<svg width="732" height="208" viewBox="0 0 732 208" fill="none" xmlns="http://www.w3.org/2000/svg">
<path d="M16.7588 91.0146C11.727 95.097 2 96.9077 2 96.9077L2 201.918L730 201.918C730 201.918 682.359 179.869 649.908 181.913C622.317 183.65 599.318 147.209 575.793 167.509C559.024 181.979 535.271 156.327 511.241 147.904C480.716 137.204 465.03 151.633 433.839 147.904C407.264 144.726 389.556 84.0303 364.342 97.5406C348.628 105.961 333.658 75.0164 317.071 73.6207C280.956 70.5818 281.739 96.7169 262.491 99.6696C243.243 102.622 241.102 76.2387 188.322 64.3462C163.943 58.8531 140.749 92.6636 118.253 82.3176C103.668 75.6097 94.2805 86.5788 79.3238 82.3176C61.3675 77.2019 53.0619 43.0392 36.2235 54.0525C25.192 61.2678 27.3728 82.403 16.7588 91.0146Z" fill="url(#paint0_linear_5313_26213)" fill-opacity="0.2"/>
<path d="M2 98.3994C2 98.3994 10.9074 95.9131 15.9595 91.7535C26.6164 82.9793 24.4268 61.4451 35.5028 54.0936C52.4092 42.8723 60.7485 77.68 78.7773 82.8924C93.7944 87.234 103.22 76.0578 117.864 82.8924C140.45 93.4337 155.36 64.7702 180.145 64.7702C230.885 64.7702 244.896 109.477 265.835 98.4003C286.774 87.3239 281.224 70.9349 317.485 74.0312C334.139 75.4533 349.169 106.982 364.947 98.4028C390.263 84.6374 406.667 143.894 433.349 147.131C464.666 150.931 482.27 136.234 512.918 147.136C537.045 155.718 554.795 182.991 577.132 166.169C602.179 147.305 623.415 183.451 651.117 181.681C683.7 179.599 730 201.918 730 201.918" stroke="#E27E55" stroke-opacity="0.4" stroke-width="2.23739" stroke-linecap="round"/>
<g filter="url(#filter0_bd_5313_26213)">
<circle cx="658.973" cy="184.481" r="13.3171" fill="#E27E55"/>
</g>
<line x1="659.016" y1="58.9844" x2="659.016" y2="184.027" stroke="url(#paint1_linear_5313_26213)" stroke-dasharray="2.28 2.28"/>
<path d="M559.596 66.3144C560.056 66.7749 560.803 66.7749 561.264 66.3144L568.769 58.8093C569.229 58.3488 569.229 57.6021 568.769 57.1416C568.308 56.681 567.561 56.681 567.101 57.1416L560.43 63.8127L553.759 57.1416C553.298 56.681 552.551 56.681 552.091 57.1416C551.63 57.6021 551.63 58.3488 552.091 58.8093L559.596 66.3144ZM561.609 48.3318L561.609 47.1525L559.25 47.1525L559.25 48.3318L561.609 48.3318ZM561.609 65.4805L561.609 48.3318L559.25 48.3318L559.25 65.4805L561.609 65.4805Z" fill="#E27E55"/>
<path d="M588.793 93.2344V85.9024H568.825V82.5224L586.817 56.4704H593.317V81.7944H597.633V85.9024H593.317V93.2344H588.793ZM574.285 81.7944H588.793V60.5784L574.285 81.7944ZM600.275 93.2344L610.051 79.2464L600.743 65.8304H606.047L613.015 76.2304L619.775 65.8304H624.923L615.667 79.4024L625.599 93.2344H620.347L612.755 82.7824L605.267 93.2344H600.275Z" fill="#E27E55"/>
<path d="M405.892 11V3.464H403.168V2.516H409.66V3.464H406.936V11H405.892ZM410.156 13.28V4.676H411.128L411.176 5.648C411.392 5.304 411.684 5.044 412.052 4.868C412.428 4.692 412.832 4.604 413.264 4.604C413.904 4.604 414.428 4.748 414.836 5.036C415.244 5.316 415.544 5.7 415.736 6.188C415.936 6.676 416.036 7.228 416.036 7.844C416.036 8.46 415.936 9.012 415.736 9.5C415.536 9.988 415.228 10.372 414.812 10.652C414.396 10.932 413.864 11.072 413.216 11.072C412.896 11.072 412.608 11.04 412.352 10.976C412.096 10.904 411.872 10.804 411.68 10.676C411.488 10.548 411.32 10.404 411.176 10.244V13.28H410.156ZM413.132 10.172C413.596 10.172 413.964 10.068 414.236 9.86C414.508 9.644 414.704 9.36 414.824 9.008C414.952 8.656 415.016 8.268 415.016 7.844C415.016 7.412 414.952 7.02 414.824 6.668C414.704 6.316 414.504 6.036 414.224 5.828C413.944 5.62 413.572 5.516 413.108 5.516C412.692 5.516 412.336 5.624 412.04 5.84C411.752 6.048 411.532 6.332 411.38 6.692C411.228 7.044 411.152 7.432 411.152 7.856C411.152 8.296 411.224 8.692 411.368 9.044C411.512 9.396 411.732 9.672 412.028 9.872C412.324 10.072 412.692 10.172 413.132 10.172ZM419.859 11.072C419.387 11.072 418.975 10.992 418.623 10.832C418.279 10.664 417.995 10.436 417.771 10.148C417.547 9.86 417.379 9.52 417.267 9.128C417.163 8.736 417.111 8.312 417.111 7.856C417.111 7.248 417.207 6.7 417.399 6.212C417.599 5.716 417.915 5.324 418.347 5.036C418.779 4.748 419.343 4.604 420.039 4.604C420.407 4.604 420.759 4.672 421.095 4.808C421.439 4.944 421.731 5.156 421.971 5.444V4.676H422.991V11H421.971V10.148C421.747 10.444 421.451 10.672 421.083 10.832C420.715 10.992 420.307 11.072 419.859 11.072ZM420.027 10.172C420.443 10.172 420.795 10.064 421.083 9.848C421.371 9.632 421.591 9.344 421.743 8.984C421.903 8.624 421.983 8.232 421.983 7.808C421.983 7.368 421.907 6.976 421.755 6.632C421.611 6.288 421.395 6.016 421.107 5.816C420.819 5.616 420.455 5.516 420.015 5.516C419.559 5.516 419.191 5.62 418.911 5.828C418.639 6.036 418.439 6.316 418.311 6.668C418.191 7.02 418.131 7.412 418.131 7.844C418.131 8.292 418.195 8.692 418.323 9.044C418.451 9.396 418.655 9.672 418.935 9.872C419.215 10.072 419.579 10.172 420.027 10.172ZM426.069 11V5.576H423.897V4.676H429.261V5.576H427.089V11H426.069ZM430.171 11V4.676H431.215V7.088H432.607C432.983 7.088 433.319 7.12 433.615 7.184C433.919 7.24 434.179 7.34 434.395 7.484C434.611 7.628 434.775 7.824 434.887 8.072C435.007 8.312 435.067 8.62 435.067 8.996C435.067 9.34 435.007 9.64 434.887 9.896C434.767 10.144 434.599 10.352 434.383 10.52C434.167 10.68 433.907 10.8 433.603 10.88C433.307 10.96 432.979 11 432.619 11H430.171ZM431.215 10.112H431.815C432.095 10.112 432.363 10.104 432.619 10.088C432.883 10.072 433.123 10.032 433.339 9.968C433.555 9.904 433.723 9.8 433.843 9.656C433.971 9.504 434.035 9.296 434.035 9.032C434.035 8.776 433.983 8.58 433.879 8.444C433.783 8.3 433.655 8.196 433.495 8.132C433.335 8.06 433.159 8.016 432.967 8C432.783 7.984 432.599 7.976 432.415 7.976H431.215V10.112ZM437.507 11V5.576H435.335V4.676H440.699V5.576H438.527V11H437.507ZM444.345 11.072C443.673 11.072 443.117 10.936 442.677 10.664C442.237 10.384 441.909 10 441.693 9.512C441.477 9.024 441.369 8.468 441.369 7.844C441.369 7.212 441.481 6.656 441.705 6.176C441.937 5.688 442.273 5.304 442.713 5.024C443.153 4.744 443.693 4.604 444.333 4.604C444.805 4.604 445.217 4.696 445.569 4.88C445.929 5.056 446.225 5.296 446.457 5.6C446.697 5.904 446.869 6.244 446.973 6.62C447.085 6.996 447.133 7.384 447.117 7.784C447.109 7.856 447.105 7.928 447.105 8C447.105 8.072 447.101 8.144 447.093 8.216H442.401C442.433 8.584 442.525 8.916 442.677 9.212C442.829 9.508 443.045 9.744 443.325 9.92C443.605 10.088 443.953 10.172 444.369 10.172C444.577 10.172 444.785 10.148 444.993 10.1C445.209 10.044 445.401 9.952 445.569 9.824C445.745 9.696 445.869 9.524 445.941 9.308H446.985C446.889 9.716 446.709 10.052 446.445 10.316C446.181 10.572 445.865 10.764 445.497 10.892C445.129 11.012 444.745 11.072 444.345 11.072ZM442.425 7.328H446.085C446.077 6.968 445.997 6.652 445.845 6.38C445.693 6.108 445.485 5.896 445.221 5.744C444.965 5.592 444.657 5.516 444.297 5.516C443.905 5.516 443.573 5.6 443.301 5.768C443.037 5.936 442.833 6.156 442.689 6.428C442.545 6.7 442.457 7 442.425 7.328ZM451.722 11V4.676H452.742V7.448H455.91V4.676H456.93V11H455.91V8.348H452.742V11H451.722ZM461.05 11.072C460.578 11.072 460.166 10.992 459.814 10.832C459.47 10.664 459.186 10.436 458.962 10.148C458.738 9.86 458.57 9.52 458.458 9.128C458.354 8.736 458.302 8.312 458.302 7.856C458.302 7.248 458.398 6.7 458.59 6.212C458.79 5.716 459.106 5.324 459.538 5.036C459.97 4.748 460.534 4.604 461.23 4.604C461.598 4.604 461.95 4.672 462.286 4.808C462.63 4.944 462.922 5.156 463.162 5.444V4.676H464.182V11H463.162V10.148C462.938 10.444 462.642 10.672 462.274 10.832C461.906 10.992 461.498 11.072 461.05 11.072ZM461.218 10.172C461.634 10.172 461.986 10.064 462.274 9.848C462.562 9.632 462.782 9.344 462.934 8.984C463.094 8.624 463.174 8.232 463.174 7.808C463.174 7.368 463.098 6.976 462.946 6.632C462.802 6.288 462.586 6.016 462.298 5.816C462.01 5.616 461.646 5.516 461.206 5.516C460.75 5.516 460.382 5.62 460.102 5.828C459.83 6.036 459.63 6.316 459.502 6.668C459.382 7.02 459.322 7.412 459.322 7.844C459.322 8.292 459.386 8.692 459.514 9.044C459.642 9.396 459.846 9.672 460.126 9.872C460.406 10.072 460.77 10.172 461.218 10.172ZM469.019 13.28V4.676H469.991L470.039 5.648C470.255 5.304 470.547 5.044 470.915 4.868C471.291 4.692 471.695 4.604 472.127 4.604C472.767 4.604 473.291 4.748 473.699 5.036C474.107 5.316 474.407 5.7 474.599 6.188C474.799 6.676 474.899 7.228 474.899 7.844C474.899 8.46 474.799 9.012 474.599 9.5C474.399 9.988 474.091 10.372 473.675 10.652C473.259 10.932 472.727 11.072 472.079 11.072C471.759 11.072 471.471 11.04 471.215 10.976C470.959 10.904 470.735 10.804 470.543 10.676C470.351 10.548 470.183 10.404 470.039 10.244V13.28H469.019ZM471.995 10.172C472.459 10.172 472.827 10.068 473.099 9.86C473.371 9.644 473.567 9.36 473.687 9.008C473.815 8.656 473.879 8.268 473.879 7.844C473.879 7.412 473.815 7.02 473.687 6.668C473.567 6.316 473.367 6.036 473.087 5.828C472.807 5.62 472.435 5.516 471.971 5.516C471.555 5.516 471.199 5.624 470.903 5.84C470.615 6.048 470.395 6.332 470.243 6.692C470.091 7.044 470.015 7.432 470.015 7.856C470.015 8.296 470.087 8.692 470.231 9.044C470.375 9.396 470.595 9.672 470.891 9.872C471.187 10.072 471.555 10.172 471.995 10.172ZM478.722 11.072C478.25 11.072 477.838 10.992 477.486 10.832C477.142 10.664 476.858 10.436 476.634 10.148C476.41 9.86 476.242 9.52 476.13 9.128C476.026 8.736 475.974 8.312 475.974 7.856C475.974 7.248 476.07 6.7 476.262 6.212C476.462 5.716 476.778 5.324 477.21 5.036C477.642 4.748 478.206 4.604 478.902 4.604C479.27 4.604 479.622 4.672 479.958 4.808C480.302 4.944 480.594 5.156 480.834 5.444V4.676H481.854V11H480.834V10.148C480.61 10.444 480.314 10.672 479.946 10.832C479.578 10.992 479.17 11.072 478.722 11.072ZM478.89 10.172C479.306 10.172 479.658 10.064 479.946 9.848C480.234 9.632 480.454 9.344 480.606 8.984C480.766 8.624 480.846 8.232 480.846 7.808C480.846 7.368 480.77 6.976 480.618 6.632C480.474 6.288 480.258 6.016 479.97 5.816C479.682 5.616 479.318 5.516 478.878 5.516C478.422 5.516 478.054 5.62 477.774 5.828C477.502 6.036 477.302 6.316 477.174 6.668C477.054 7.02 476.994 7.412 476.994 7.844C476.994 8.292 477.058 8.692 477.186 9.044C477.314 9.396 477.518 9.672 477.798 9.872C478.078 10.072 478.442 10.172 478.89 10.172ZM486.12 11.072C485.72 11.072 485.364 11.016 485.052 10.904C484.74 10.784 484.472 10.62 484.248 10.412C484.024 10.196 483.84 9.944 483.696 9.656C483.552 9.36 483.444 9.04 483.372 8.696C483.3 8.352 483.264 7.988 483.264 7.604C483.264 6.988 483.276 6.416 483.3 5.888C483.332 5.352 483.42 4.876 483.564 4.46C483.708 4.036 483.952 3.684 484.296 3.404C484.64 3.124 485.124 2.928 485.748 2.816C486.068 2.76 486.384 2.712 486.696 2.672C487.008 2.632 487.324 2.592 487.644 2.552C487.748 2.536 487.856 2.52 487.968 2.504C488.08 2.488 488.196 2.468 488.316 2.444C488.444 2.42 488.564 2.4 488.676 2.384V3.32C488.588 3.352 488.492 3.38 488.388 3.404C488.292 3.42 488.188 3.436 488.076 3.452C487.972 3.468 487.864 3.48 487.752 3.488C487.648 3.496 487.544 3.508 487.44 3.524C487.336 3.532 487.236 3.544 487.14 3.56C486.86 3.592 486.564 3.624 486.252 3.656C485.94 3.68 485.644 3.744 485.364 3.848C485.092 3.944 484.86 4.132 484.668 4.412C484.572 4.556 484.488 4.728 484.416 4.928C484.352 5.128 484.304 5.332 484.272 5.54C484.248 5.74 484.232 5.932 484.224 6.116C484.384 5.892 484.58 5.712 484.812 5.576C485.044 5.432 485.292 5.328 485.556 5.264C485.82 5.192 486.072 5.156 486.312 5.156C486.888 5.156 487.376 5.276 487.776 5.516C488.176 5.748 488.48 6.08 488.688 6.512C488.896 6.944 489 7.448 489 8.024C489 8.6 488.888 9.12 488.664 9.584C488.44 10.04 488.112 10.404 487.68 10.676C487.256 10.94 486.736 11.072 486.12 11.072ZM486.144 10.172C486.544 10.172 486.88 10.076 487.152 9.884C487.424 9.692 487.628 9.436 487.764 9.116C487.908 8.796 487.98 8.444 487.98 8.06C487.98 7.684 487.908 7.348 487.764 7.052C487.628 6.748 487.424 6.508 487.152 6.332C486.888 6.156 486.56 6.068 486.168 6.068C485.784 6.068 485.452 6.16 485.172 6.344C484.9 6.528 484.688 6.776 484.536 7.088C484.392 7.392 484.32 7.724 484.32 8.084C484.32 8.452 484.388 8.796 484.524 9.116C484.66 9.436 484.86 9.692 485.124 9.884C485.396 10.076 485.736 10.172 486.144 10.172ZM493.13 11.072C492.466 11.072 491.91 10.936 491.462 10.664C491.014 10.384 490.678 10 490.454 9.512C490.238 9.024 490.13 8.468 490.13 7.844C490.13 7.212 490.238 6.656 490.454 6.176C490.678 5.688 491.014 5.304 491.462 5.024C491.91 4.744 492.474 4.604 493.154 4.604C493.818 4.604 494.37 4.744 494.81 5.024C495.258 5.304 495.59 5.688 495.806 6.176C496.03 6.656 496.142 7.212 496.142 7.844C496.142 8.468 496.03 9.024 495.806 9.512C495.582 10 495.246 10.384 494.798 10.664C494.358 10.936 493.802 11.072 493.13 11.072ZM493.13 10.172C493.594 10.172 493.97 10.068 494.258 9.86C494.554 9.652 494.77 9.372 494.906 9.02C495.05 8.668 495.122 8.276 495.122 7.844C495.122 7.412 495.05 7.02 494.906 6.668C494.77 6.316 494.554 6.036 494.258 5.828C493.97 5.62 493.594 5.516 493.13 5.516C492.674 5.516 492.298 5.62 492.002 5.828C491.714 6.036 491.498 6.316 491.354 6.668C491.218 7.02 491.15 7.412 491.15 7.844C491.15 8.276 491.218 8.668 491.354 9.02C491.498 9.372 491.714 9.652 492.002 9.86C492.298 10.068 492.674 10.172 493.13 10.172ZM498.983 11V5.576H496.811V4.676H502.175V5.576H500.003V11H498.983ZM503.524 13.712V12.74C503.916 12.74 504.228 12.684 504.46 12.572C504.692 12.468 504.884 12.3 505.036 12.068C505.196 11.844 505.348 11.556 505.492 11.204L502.72 4.676H503.92L506.056 10.004L507.808 4.676H508.96L507.184 9.656C507.096 9.912 506.996 10.2 506.884 10.52C506.772 10.84 506.648 11.164 506.512 11.492C506.376 11.828 506.224 12.136 506.056 12.416C505.896 12.704 505.716 12.936 505.516 13.112C505.348 13.264 505.184 13.384 505.024 13.472C504.864 13.56 504.668 13.62 504.436 13.652C504.212 13.692 503.908 13.712 503.524 13.712ZM513.14 11V4.676H515.588C515.868 4.676 516.144 4.696 516.416 4.736C516.696 4.768 516.948 4.84 517.172 4.952C517.404 5.056 517.588 5.212 517.724 5.42C517.868 5.628 517.94 5.904 517.94 6.248C517.94 6.456 517.908 6.648 517.844 6.824C517.78 6.992 517.684 7.14 517.556 7.268C517.436 7.396 517.28 7.508 517.088 7.604C517.52 7.7 517.832 7.888 518.024 8.168C518.216 8.448 518.312 8.768 518.312 9.128C518.312 9.448 518.252 9.728 518.132 9.968C518.02 10.2 517.86 10.392 517.652 10.544C517.452 10.696 517.216 10.812 516.944 10.892C516.68 10.964 516.396 11 516.092 11H513.14ZM514.184 10.112H515.852C516.1 10.112 516.332 10.088 516.548 10.04C516.764 9.992 516.94 9.904 517.076 9.776C517.212 9.64 517.28 9.448 517.28 9.2C517.28 8.944 517.22 8.752 517.1 8.624C516.988 8.488 516.84 8.396 516.656 8.348C516.48 8.292 516.288 8.26 516.08 8.252C515.872 8.244 515.676 8.24 515.492 8.24H514.184V10.112ZM514.184 7.376H515.06C515.22 7.376 515.404 7.368 515.612 7.352C515.828 7.336 516.036 7.3 516.236 7.244C516.444 7.18 516.612 7.084 516.74 6.956C516.876 6.828 516.944 6.652 516.944 6.428C516.944 6.132 516.86 5.928 516.692 5.816C516.532 5.696 516.34 5.628 516.116 5.612C515.892 5.588 515.684 5.576 515.492 5.576H514.184V7.376ZM527.245 11V9.308H522.637V8.528L526.789 2.516H528.289V8.36H529.285V9.308H528.289V11H527.245ZM523.897 8.36H527.245V3.464L523.897 8.36ZM533.765 13.28V4.676H534.737L534.785 5.648C535.001 5.304 535.293 5.044 535.661 4.868C536.037 4.692 536.441 4.604 536.873 4.604C537.513 4.604 538.037 4.748 538.445 5.036C538.853 5.316 539.153 5.7 539.345 6.188C539.545 6.676 539.645 7.228 539.645 7.844C539.645 8.46 539.545 9.012 539.345 9.5C539.145 9.988 538.837 10.372 538.421 10.652C538.005 10.932 537.473 11.072 536.825 11.072C536.505 11.072 536.217 11.04 535.961 10.976C535.705 10.904 535.481 10.804 535.289 10.676C535.097 10.548 534.929 10.404 534.785 10.244V13.28H533.765ZM536.741 10.172C537.205 10.172 537.573 10.068 537.845 9.86C538.117 9.644 538.313 9.36 538.433 9.008C538.561 8.656 538.625 8.268 538.625 7.844C538.625 7.412 538.561 7.02 538.433 6.668C538.313 6.316 538.113 6.036 537.833 5.828C537.553 5.62 537.181 5.516 536.717 5.516C536.301 5.516 535.945 5.624 535.649 5.84C535.361 6.048 535.141 6.332 534.989 6.692C534.837 7.044 534.761 7.432 534.761 7.856C534.761 8.296 534.833 8.692 534.977 9.044C535.121 9.396 535.341 9.672 535.637 9.872C535.933 10.072 536.301 10.172 536.741 10.172ZM543.468 11.072C542.996 11.072 542.584 10.992 542.232 10.832C541.888 10.664 541.604 10.436 541.38 10.148C541.156 9.86 540.988 9.52 540.876 9.128C540.772 8.736 540.72 8.312 540.72 7.856C540.72 7.248 540.816 6.7 541.008 6.212C541.208 5.716 541.524 5.324 541.956 5.036C542.388 4.748 542.952 4.604 543.648 4.604C544.016 4.604 544.368 4.672 544.704 4.808C545.048 4.944 545.34 5.156 545.58 5.444V4.676H546.6V11H545.58V10.148C545.356 10.444 545.06 10.672 544.692 10.832C544.324 10.992 543.916 11.072 543.468 11.072ZM543.636 10.172C544.052 10.172 544.404 10.064 544.692 9.848C544.98 9.632 545.2 9.344 545.352 8.984C545.512 8.624 545.592 8.232 545.592 7.808C545.592 7.368 545.516 6.976 545.364 6.632C545.22 6.288 545.004 6.016 544.716 5.816C544.428 5.616 544.064 5.516 543.624 5.516C543.168 5.516 542.8 5.62 542.52 5.828C542.248 6.036 542.048 6.316 541.92 6.668C541.8 7.02 541.74 7.412 541.74 7.844C541.74 8.292 541.804 8.692 541.932 9.044C542.06 9.396 542.264 9.672 542.544 9.872C542.824 10.072 543.188 10.172 543.636 10.172ZM550.494 11.072C550.19 11.072 549.886 11.044 549.582 10.988C549.278 10.932 548.994 10.84 548.73 10.712C548.474 10.576 548.266 10.396 548.106 10.172C547.946 9.94 547.858 9.652 547.842 9.308H548.838C548.878 9.524 548.994 9.696 549.186 9.824C549.378 9.952 549.594 10.044 549.834 10.1C550.082 10.148 550.302 10.172 550.494 10.172C550.718 10.172 550.946 10.148 551.178 10.1C551.418 10.052 551.618 9.956 551.778 9.812C551.946 9.668 552.03 9.456 552.03 9.176C552.03 8.904 551.962 8.704 551.826 8.576C551.698 8.448 551.526 8.364 551.31 8.324C551.102 8.284 550.874 8.264 550.626 8.264H549.498V7.364H550.422C550.574 7.364 550.73 7.352 550.89 7.328C551.05 7.296 551.198 7.248 551.334 7.184C551.47 7.112 551.578 7.012 551.658 6.884C551.746 6.756 551.79 6.592 551.79 6.392C551.79 6.168 551.726 5.992 551.598 5.864C551.47 5.736 551.306 5.648 551.106 5.6C550.906 5.544 550.702 5.516 550.494 5.516C550.302 5.516 550.098 5.536 549.882 5.576C549.674 5.616 549.494 5.696 549.342 5.816C549.19 5.928 549.098 6.096 549.066 6.32H548.058C548.074 5.888 548.206 5.548 548.454 5.3C548.702 5.052 549.01 4.876 549.378 4.772C549.746 4.66 550.114 4.604 550.482 4.604C550.762 4.604 551.038 4.632 551.31 4.688C551.582 4.744 551.83 4.84 552.054 4.976C552.278 5.104 552.454 5.276 552.582 5.492C552.718 5.708 552.786 5.976 552.786 6.296C552.786 6.584 552.718 6.84 552.582 7.064C552.446 7.288 552.238 7.468 551.958 7.604C552.366 7.732 552.65 7.932 552.81 8.204C552.97 8.476 553.05 8.8 553.05 9.176C553.05 9.512 552.978 9.8 552.834 10.04C552.69 10.272 552.494 10.468 552.246 10.628C552.006 10.78 551.734 10.892 551.43 10.964C551.126 11.036 550.814 11.072 550.494 11.072ZM556.875 11.072C556.403 11.072 555.991 10.992 555.639 10.832C555.295 10.664 555.011 10.436 554.787 10.148C554.563 9.86 554.395 9.52 554.283 9.128C554.179 8.736 554.127 8.312 554.127 7.856C554.127 7.248 554.223 6.7 554.415 6.212C554.615 5.716 554.931 5.324 555.363 5.036C555.795 4.748 556.359 4.604 557.055 4.604C557.423 4.604 557.775 4.672 558.111 4.808C558.455 4.944 558.747 5.156 558.987 5.444V4.676H560.007V11H558.987V10.148C558.763 10.444 558.467 10.672 558.099 10.832C557.731 10.992 557.323 11.072 556.875 11.072ZM557.043 10.172C557.459 10.172 557.811 10.064 558.099 9.848C558.387 9.632 558.607 9.344 558.759 8.984C558.919 8.624 558.999 8.232 558.999 7.808C558.999 7.368 558.923 6.976 558.771 6.632C558.627 6.288 558.411 6.016 558.123 5.816C557.835 5.616 557.471 5.516 557.031 5.516C556.575 5.516 556.207 5.62 555.927 5.828C555.655 6.036 555.455 6.316 555.326 6.668C555.206 7.02 555.146 7.412 555.146 7.844C555.146 8.292 555.211 8.692 555.339 9.044C555.467 9.396 555.671 9.672 555.951 9.872C556.231 10.072 556.595 10.172 557.043 10.172ZM403.804 26V19.676H405.172L407.224 22.844L409.24 19.676H410.584V26H409.576V20.804L407.344 24.38H407.056L404.812 20.804V26H403.804ZM414.931 26.072C414.259 26.072 413.703 25.936 413.263 25.664C412.823 25.384 412.495 25 412.279 24.512C412.063 24.024 411.955 23.468 411.955 22.844C411.955 22.212 412.067 21.656 412.291 21.176C412.523 20.688 412.859 20.304 413.299 20.024C413.739 19.744 414.279 19.604 414.919 19.604C415.391 19.604 415.803 19.696 416.155 19.88C416.515 20.056 416.811 20.296 417.043 20.6C417.283 20.904 417.455 21.244 417.559 21.62C417.671 21.996 417.719 22.384 417.703 22.784C417.695 22.856 417.691 22.928 417.691 23C417.691 23.072 417.687 23.144 417.679 23.216H412.987C413.019 23.584 413.111 23.916 413.263 24.212C413.415 24.508 413.631 24.744 413.911 24.92C414.191 25.088 414.539 25.172 414.955 25.172C415.163 25.172 415.371 25.148 415.579 25.1C415.795 25.044 415.987 24.952 416.155 24.824C416.331 24.696 416.455 24.524 416.527 24.308H417.571C417.475 24.716 417.295 25.052 417.031 25.316C416.767 25.572 416.451 25.764 416.083 25.892C415.715 26.012 415.331 26.072 414.931 26.072ZM413.011 22.328H416.671C416.663 21.968 416.583 21.652 416.431 21.38C416.279 21.108 416.071 20.896 415.807 20.744C415.551 20.592 415.243 20.516 414.883 20.516C414.491 20.516 414.159 20.6 413.887 20.768C413.623 20.936 413.419 21.156 413.275 21.428C413.131 21.7 413.043 22 413.011 22.328ZM419.074 26V19.676H420.094V22.448H423.262V19.676H424.282V26H423.262V23.348H420.094V26H419.074ZM425.894 26V19.676H426.938V22.088H428.33C428.706 22.088 429.042 22.12 429.338 22.184C429.642 22.24 429.902 22.34 430.118 22.484C430.334 22.628 430.498 22.824 430.61 23.072C430.73 23.312 430.79 23.62 430.79 23.996C430.79 24.34 430.73 24.64 430.61 24.896C430.49 25.144 430.322 25.352 430.106 25.52C429.89 25.68 429.63 25.8 429.326 25.88C429.03 25.96 428.702 26 428.342 26H425.894ZM426.938 25.112H427.538C427.818 25.112 428.086 25.104 428.342 25.088C428.606 25.072 428.846 25.032 429.062 24.968C429.278 24.904 429.446 24.8 429.566 24.656C429.694 24.504 429.758 24.296 429.758 24.032C429.758 23.776 429.706 23.58 429.602 23.444C429.506 23.3 429.378 23.196 429.218 23.132C429.058 23.06 428.882 23.016 428.69 23C428.506 22.984 428.322 22.976 428.138 22.976H426.938V25.112ZM432.117 26V19.676H433.137V25.112H435.513V19.676H436.533V25.112H438.933V19.676H439.953V26H432.117ZM444.298 26.072C443.626 26.072 443.07 25.936 442.63 25.664C442.19 25.384 441.862 25 441.646 24.512C441.43 24.024 441.322 23.468 441.322 22.844C441.322 22.212 441.434 21.656 441.658 21.176C441.89 20.688 442.226 20.304 442.666 20.024C443.106 19.744 443.646 19.604 444.286 19.604C444.758 19.604 445.17 19.696 445.522 19.88C445.882 20.056 446.178 20.296 446.41 20.6C446.65 20.904 446.822 21.244 446.926 21.62C447.038 21.996 447.086 22.384 447.07 22.784C447.062 22.856 447.058 22.928 447.058 23C447.058 23.072 447.054 23.144 447.046 23.216H442.354C442.386 23.584 442.478 23.916 442.63 24.212C442.782 24.508 442.998 24.744 443.278 24.92C443.558 25.088 443.906 25.172 444.322 25.172C444.53 25.172 444.738 25.148 444.946 25.1C445.162 25.044 445.354 24.952 445.522 24.824C445.698 24.696 445.822 24.524 445.894 24.308H446.938C446.842 24.716 446.662 25.052 446.398 25.316C446.134 25.572 445.818 25.764 445.45 25.892C445.082 26.012 444.698 26.072 444.298 26.072ZM442.378 22.328H446.038C446.03 21.968 445.95 21.652 445.798 21.38C445.646 21.108 445.438 20.896 445.174 20.744C444.918 20.592 444.61 20.516 444.25 20.516C443.858 20.516 443.526 20.6 443.254 20.768C442.99 20.936 442.786 21.156 442.642 21.428C442.498 21.7 442.41 22 442.378 22.328ZM451.675 26V19.676H454.123C454.403 19.676 454.679 19.696 454.951 19.736C455.231 19.768 455.483 19.84 455.707 19.952C455.939 20.056 456.123 20.212 456.259 20.42C456.403 20.628 456.475 20.904 456.475 21.248C456.475 21.456 456.443 21.648 456.379 21.824C456.315 21.992 456.219 22.14 456.091 22.268C455.971 22.396 455.815 22.508 455.623 22.604C456.055 22.7 456.367 22.888 456.559 23.168C456.751 23.448 456.847 23.768 456.847 24.128C456.847 24.448 456.787 24.728 456.667 24.968C456.555 25.2 456.395 25.392 456.187 25.544C455.987 25.696 455.751 25.812 455.479 25.892C455.215 25.964 454.931 26 454.627 26H451.675ZM452.719 25.112H454.387C454.635 25.112 454.867 25.088 455.083 25.04C455.299 24.992 455.475 24.904 455.611 24.776C455.747 24.64 455.815 24.448 455.815 24.2C455.815 23.944 455.755 23.752 455.635 23.624C455.523 23.488 455.375 23.396 455.191 23.348C455.015 23.292 454.823 23.26 454.615 23.252C454.407 23.244 454.211 23.24 454.027 23.24H452.719V25.112ZM452.719 22.376H453.595C453.755 22.376 453.939 22.368 454.147 22.352C454.363 22.336 454.571 22.3 454.771 22.244C454.979 22.18 455.147 22.084 455.275 21.956C455.411 21.828 455.479 21.652 455.479 21.428C455.479 21.132 455.395 20.928 455.227 20.816C455.067 20.696 454.875 20.628 454.651 20.612C454.427 20.588 454.219 20.576 454.027 20.576H452.719V22.376ZM458.238 28.28V19.676H459.21L459.258 20.648C459.474 20.304 459.766 20.044 460.134 19.868C460.51 19.692 460.914 19.604 461.346 19.604C461.986 19.604 462.51 19.748 462.918 20.036C463.326 20.316 463.626 20.7 463.818 21.188C464.018 21.676 464.118 22.228 464.118 22.844C464.118 23.46 464.018 24.012 463.818 24.5C463.618 24.988 463.31 25.372 462.894 25.652C462.478 25.932 461.946 26.072 461.298 26.072C460.978 26.072 460.69 26.04 460.434 25.976C460.178 25.904 459.954 25.804 459.762 25.676C459.57 25.548 459.402 25.404 459.258 25.244V28.28H458.238ZM461.214 25.172C461.678 25.172 462.046 25.068 462.318 24.86C462.59 24.644 462.786 24.36 462.906 24.008C463.034 23.656 463.098 23.268 463.098 22.844C463.098 22.412 463.034 22.02 462.906 21.668C462.786 21.316 462.586 21.036 462.306 20.828C462.026 20.62 461.654 20.516 461.19 20.516C460.774 20.516 460.418 20.624 460.122 20.84C459.834 21.048 459.614 21.332 459.462 21.692C459.31 22.044 459.234 22.432 459.234 22.856C459.234 23.296 459.306 23.692 459.45 24.044C459.594 24.396 459.814 24.672 460.11 24.872C460.406 25.072 460.774 25.172 461.214 25.172ZM468.169 26.072C467.497 26.072 466.941 25.936 466.501 25.664C466.061 25.384 465.733 25 465.517 24.512C465.301 24.024 465.193 23.468 465.193 22.844C465.193 22.212 465.305 21.656 465.529 21.176C465.761 20.688 466.097 20.304 466.537 20.024C466.977 19.744 467.517 19.604 468.157 19.604C468.629 19.604 469.041 19.696 469.393 19.88C469.753 20.056 470.049 20.296 470.281 20.6C470.521 20.904 470.693 21.244 470.797 21.62C470.909 21.996 470.957 22.384 470.941 22.784C470.933 22.856 470.929 22.928 470.929 23C470.929 23.072 470.925 23.144 470.917 23.216H466.225C466.257 23.584 466.349 23.916 466.501 24.212C466.653 24.508 466.869 24.744 467.149 24.92C467.429 25.088 467.777 25.172 468.193 25.172C468.401 25.172 468.609 25.148 468.817 25.1C469.033 25.044 469.225 24.952 469.393 24.824C469.569 24.696 469.693 24.524 469.765 24.308H470.809C470.713 24.716 470.533 25.052 470.269 25.316C470.005 25.572 469.689 25.764 469.321 25.892C468.953 26.012 468.569 26.072 468.169 26.072ZM466.249 22.328H469.909C469.901 21.968 469.821 21.652 469.669 21.38C469.517 21.108 469.309 20.896 469.045 20.744C468.789 20.592 468.481 20.516 468.121 20.516C467.729 20.516 467.397 20.6 467.125 20.768C466.861 20.936 466.657 21.156 466.513 21.428C466.369 21.7 466.281 22 466.249 22.328ZM472.312 26V19.676H473.68L475.732 22.844L477.748 19.676H479.092V26H478.084V20.804L475.852 24.38H475.564L473.32 20.804V26H472.312ZM483.438 26.072C482.766 26.072 482.21 25.936 481.77 25.664C481.33 25.384 481.002 25 480.786 24.512C480.57 24.024 480.462 23.468 480.462 22.844C480.462 22.212 480.574 21.656 480.798 21.176C481.03 20.688 481.366 20.304 481.806 20.024C482.246 19.744 482.786 19.604 483.426 19.604C483.898 19.604 484.31 19.696 484.662 19.88C485.022 20.056 485.318 20.296 485.55 20.6C485.79 20.904 485.962 21.244 486.066 21.62C486.178 21.996 486.226 22.384 486.21 22.784C486.202 22.856 486.198 22.928 486.198 23C486.198 23.072 486.194 23.144 486.186 23.216H481.494C481.526 23.584 481.618 23.916 481.77 24.212C481.922 24.508 482.138 24.744 482.418 24.92C482.698 25.088 483.046 25.172 483.462 25.172C483.67 25.172 483.878 25.148 484.086 25.1C484.302 25.044 484.494 24.952 484.662 24.824C484.838 24.696 484.962 24.524 485.034 24.308H486.078C485.982 24.716 485.802 25.052 485.538 25.316C485.274 25.572 484.958 25.764 484.59 25.892C484.222 26.012 483.838 26.072 483.438 26.072ZM481.518 22.328H485.178C485.17 21.968 485.09 21.652 484.938 21.38C484.786 21.108 484.578 20.896 484.314 20.744C484.058 20.592 483.75 20.516 483.39 20.516C482.998 20.516 482.666 20.6 482.394 20.768C482.13 20.936 481.926 21.156 481.782 21.428C481.638 21.7 481.55 22 481.518 22.328ZM487.581 26V19.676H488.601V22.448H491.769V19.676H492.789V26H491.769V23.348H488.601V26H487.581ZM494.402 26V19.676H495.422V24.524C495.478 24.412 495.554 24.292 495.65 24.164C495.746 24.028 495.822 23.924 495.878 23.852L498.938 19.676H499.946V26H498.926V21.152C498.862 21.272 498.79 21.384 498.71 21.488C498.638 21.592 498.57 21.688 498.506 21.776L495.398 26H494.402Z" fill="#E27E55"/>
<defs>
<filter id="filter0_bd_5313_26213" x="600.088" y="125.596" width="117.771" height="117.771" filterUnits="userSpaceOnUse" color-interpolation-filters="sRGB">
<feFlood flood-opacity="0" result="BackgroundImageFix"/>
<feGaussianBlur in="BackgroundImageFix" stdDeviation="22.7841"/>
<feComposite in2="SourceAlpha" operator="in" result="effect1_backgroundBlur_5313_26213"/>
<feColorMatrix in="SourceAlpha" type="matrix" values="0 0 0 0 0 0 0 0 0 0 0 0 0 0 0 0 0 0 127 0" result="hardAlpha"/>
<feOffset dy="2.27841"/>
<feGaussianBlur stdDeviation="3.81307"/>
<feComposite in2="hardAlpha" operator="out"/>
<feColorMatrix type="matrix" values="0 0 0 0 0.870588 0 0 0 0 0.490196 0 0 0 0 0.368627 0 0 0 0.4 0"/>
<feBlend mode="normal" in2="effect1_backgroundBlur_5313_26213" result="effect2_dropShadow_5313_26213"/>
<feBlend mode="normal" in="SourceGraphic" in2="effect2_dropShadow_5313_26213" result="shape"/>
</filter>
<linearGradient id="paint0_linear_5313_26213" x1="366.428" y1="51.8789" x2="368.832" y2="209.155" gradientUnits="userSpaceOnUse">
<stop stop-color="#DE7D5E"/>
<stop offset="1" stop-color="#DE7D5E" stop-opacity="0"/>
</linearGradient>
<linearGradient id="paint1_linear_5313_26213" x1="658.016" y1="184.027" x2="658.016" y2="58.9844" gradientUnits="userSpaceOnUse">
<stop stop-color="#DE7D5E"/>
<stop offset="1" stop-color="#FAFCFF"/>
</linearGradient>
</defs>
</svg>
