<svg width="824" height="180" viewBox="0 0 824 180" fill="none" xmlns="http://www.w3.org/2000/svg">
<path d="M18.6239 55.0814C12.9563 59.6798 2 61.7192 2 61.7192L2 180L822 180C822 180 768.339 155.165 731.787 157.467C700.709 159.424 674.804 118.377 648.305 141.243C629.417 157.541 602.662 128.647 575.596 119.16C541.214 107.108 523.545 123.361 488.412 119.16C458.479 115.581 438.532 47.2145 410.133 62.4322C392.432 71.9167 375.571 37.0615 356.888 35.4894C316.209 32.0664 317.091 61.5043 295.41 64.8302C273.73 68.156 271.318 38.4383 211.868 25.0428C184.409 18.8555 158.283 56.9388 132.945 45.2854C116.516 37.7297 105.942 50.085 89.0955 45.2854C68.87 39.5231 59.5147 1.04315 40.5484 13.4483C28.1229 21.5754 30.5792 45.3815 18.6239 55.0814Z" fill="url(#paint0_linear_5313_15075)" fill-opacity="0.2"/>
<path d="M2 63.3994C2 63.3994 12.0331 60.5989 17.7236 55.9137C29.7272 46.0307 27.261 21.7751 39.7367 13.4946C58.7796 0.855149 68.1728 40.0617 88.4799 45.9327C105.395 50.823 116.011 38.2344 132.506 45.9327C157.947 57.8062 174.741 25.5205 202.658 25.5205C259.81 25.5205 275.591 75.8767 299.177 63.4005C322.762 50.9243 316.511 32.4642 357.354 35.9518C376.113 37.5536 393.042 73.067 410.814 63.4033C439.329 47.8983 457.806 114.643 487.86 118.29C523.135 122.57 542.963 106.015 577.485 118.295C604.66 127.961 624.653 158.682 649.813 139.733C678.026 118.485 701.945 159.2 733.149 157.206C769.849 154.86 822 180 822 180" stroke="#E27E55" stroke-opacity="0.4" stroke-width="2.52014" stroke-linecap="round"/>
<g filter="url(#filter0_bd_5313_15075)">
<circle cx="742" cy="160.355" r="15" fill="#E27E55"/>
</g>
<line x1="741.984" y1="19" x2="741.984" y2="159.845" stroke="url(#paint1_linear_5313_15075)" stroke-dasharray="2.57 2.57"/>
<path d="M424.892 10.7344V3.19837H422.168V2.25037H428.66V3.19837H425.936V10.7344H424.892ZM429.156 13.0144V4.41037H430.128L430.176 5.38237C430.392 5.03837 430.684 4.77837 431.052 4.60237C431.428 4.42637 431.832 4.33837 432.264 4.33837C432.904 4.33837 433.428 4.48237 433.836 4.77037C434.244 5.05037 434.544 5.43437 434.736 5.92237C434.936 6.41037 435.036 6.96237 435.036 7.57837C435.036 8.19437 434.936 8.74637 434.736 9.23438C434.536 9.72237 434.228 10.1064 433.812 10.3864C433.396 10.6664 432.864 10.8064 432.216 10.8064C431.896 10.8064 431.608 10.7744 431.352 10.7104C431.096 10.6384 430.872 10.5384 430.68 10.4104C430.488 10.2824 430.32 10.1384 430.176 9.97837V13.0144H429.156ZM432.132 9.90637C432.596 9.90637 432.964 9.80237 433.236 9.59437C433.508 9.37837 433.704 9.09437 433.824 8.74237C433.952 8.39037 434.016 8.00237 434.016 7.57837C434.016 7.14637 433.952 6.75437 433.824 6.40237C433.704 6.05037 433.504 5.77037 433.224 5.56237C432.944 5.35437 432.572 5.25037 432.108 5.25037C431.692 5.25037 431.336 5.35837 431.04 5.57437C430.752 5.78237 430.532 6.06637 430.38 6.42637C430.228 6.77837 430.152 7.16637 430.152 7.59037C430.152 8.03037 430.224 8.42637 430.368 8.77837C430.512 9.13037 430.732 9.40637 431.028 9.60637C431.324 9.80637 431.692 9.90637 432.132 9.90637ZM438.859 10.8064C438.387 10.8064 437.975 10.7264 437.623 10.5664C437.279 10.3984 436.995 10.1704 436.771 9.88237C436.547 9.59437 436.379 9.25437 436.267 8.86237C436.163 8.47037 436.111 8.04637 436.111 7.59037C436.111 6.98237 436.207 6.43437 436.399 5.94637C436.599 5.45037 436.915 5.05837 437.347 4.77037C437.779 4.48237 438.343 4.33837 439.039 4.33837C439.407 4.33837 439.759 4.40637 440.095 4.54237C440.439 4.67837 440.731 4.89037 440.971 5.17837V4.41037H441.991V10.7344H440.971V9.88237C440.747 10.1784 440.451 10.4064 440.083 10.5664C439.715 10.7264 439.307 10.8064 438.859 10.8064ZM439.027 9.90637C439.443 9.90637 439.795 9.79837 440.083 9.58237C440.371 9.36637 440.591 9.07837 440.743 8.71837C440.903 8.35837 440.983 7.96637 440.983 7.54237C440.983 7.10237 440.907 6.71037 440.755 6.36637C440.611 6.02237 440.395 5.75037 440.107 5.55037C439.819 5.35037 439.455 5.25037 439.015 5.25037C438.559 5.25037 438.191 5.35437 437.911 5.56237C437.639 5.77037 437.439 6.05037 437.311 6.40237C437.191 6.75437 437.131 7.14637 437.131 7.57837C437.131 8.02637 437.195 8.42637 437.323 8.77837C437.451 9.13037 437.655 9.40637 437.935 9.60637C438.215 9.80637 438.579 9.90637 439.027 9.90637ZM445.069 10.7344V5.31037H442.897V4.41037H448.261V5.31037H446.089V10.7344H445.069ZM449.171 10.7344V4.41037H450.215V6.82237H451.607C451.983 6.82237 452.319 6.85437 452.615 6.91837C452.919 6.97437 453.179 7.07437 453.395 7.21837C453.611 7.36237 453.775 7.55837 453.887 7.80637C454.007 8.04637 454.067 8.35437 454.067 8.73037C454.067 9.07437 454.007 9.37437 453.887 9.63037C453.767 9.87837 453.599 10.0864 453.383 10.2544C453.167 10.4144 452.907 10.5344 452.603 10.6144C452.307 10.6944 451.979 10.7344 451.619 10.7344H449.171ZM450.215 9.84637H450.815C451.095 9.84637 451.363 9.83837 451.619 9.82237C451.883 9.80637 452.123 9.76637 452.339 9.70237C452.555 9.63837 452.723 9.53437 452.843 9.39037C452.971 9.23837 453.035 9.03037 453.035 8.76637C453.035 8.51037 452.983 8.31437 452.879 8.17837C452.783 8.03437 452.655 7.93037 452.495 7.86637C452.335 7.79437 452.159 7.75037 451.967 7.73438C451.783 7.71837 451.599 7.71037 451.415 7.71037H450.215V9.84637ZM456.507 10.7344V5.31037H454.335V4.41037H459.699V5.31037H457.527V10.7344H456.507ZM463.345 10.8064C462.673 10.8064 462.117 10.6704 461.677 10.3984C461.237 10.1184 460.909 9.73437 460.693 9.24637C460.477 8.75837 460.369 8.20237 460.369 7.57837C460.369 6.94637 460.481 6.39037 460.705 5.91037C460.937 5.42237 461.273 5.03837 461.713 4.75837C462.153 4.47837 462.693 4.33837 463.333 4.33837C463.805 4.33837 464.217 4.43037 464.569 4.61437C464.929 4.79037 465.225 5.03037 465.457 5.33437C465.697 5.63837 465.869 5.97837 465.973 6.35437C466.085 6.73037 466.133 7.11837 466.117 7.51837C466.109 7.59037 466.105 7.66237 466.105 7.73438C466.105 7.80637 466.101 7.87837 466.093 7.95037H461.401C461.433 8.31837 461.525 8.65037 461.677 8.94637C461.829 9.24237 462.045 9.47837 462.325 9.65437C462.605 9.82237 462.953 9.90637 463.369 9.90637C463.577 9.90637 463.785 9.88237 463.993 9.83437C464.209 9.77837 464.401 9.68637 464.569 9.55837C464.745 9.43037 464.869 9.25837 464.941 9.04237H465.985C465.889 9.45037 465.709 9.78637 465.445 10.0504C465.181 10.3064 464.865 10.4984 464.497 10.6264C464.129 10.7464 463.745 10.8064 463.345 10.8064ZM461.425 7.06237H465.085C465.077 6.70237 464.997 6.38637 464.845 6.11437C464.693 5.84237 464.485 5.63037 464.221 5.47837C463.965 5.32637 463.657 5.25037 463.297 5.25037C462.905 5.25037 462.573 5.33437 462.301 5.50237C462.037 5.67037 461.833 5.89037 461.689 6.16237C461.545 6.43437 461.457 6.73437 461.425 7.06237ZM470.722 10.7344V4.41037H471.742V7.18237H474.91V4.41037H475.93V10.7344H474.91V8.08237H471.742V10.7344H470.722ZM480.05 10.8064C479.578 10.8064 479.166 10.7264 478.814 10.5664C478.47 10.3984 478.186 10.1704 477.962 9.88237C477.738 9.59437 477.57 9.25437 477.458 8.86237C477.354 8.47037 477.302 8.04637 477.302 7.59037C477.302 6.98237 477.398 6.43437 477.59 5.94637C477.79 5.45037 478.106 5.05837 478.538 4.77037C478.97 4.48237 479.534 4.33837 480.23 4.33837C480.598 4.33837 480.95 4.40637 481.286 4.54237C481.63 4.67837 481.922 4.89037 482.162 5.17837V4.41037H483.182V10.7344H482.162V9.88237C481.938 10.1784 481.642 10.4064 481.274 10.5664C480.906 10.7264 480.498 10.8064 480.05 10.8064ZM480.218 9.90637C480.634 9.90637 480.986 9.79837 481.274 9.58237C481.562 9.36637 481.782 9.07837 481.934 8.71837C482.094 8.35837 482.174 7.96637 482.174 7.54237C482.174 7.10237 482.098 6.71037 481.946 6.36637C481.802 6.02237 481.586 5.75037 481.298 5.55037C481.01 5.35037 480.646 5.25037 480.206 5.25037C479.75 5.25037 479.382 5.35437 479.102 5.56237C478.83 5.77037 478.63 6.05037 478.502 6.40237C478.382 6.75437 478.322 7.14637 478.322 7.57837C478.322 8.02637 478.386 8.42637 478.514 8.77837C478.642 9.13037 478.846 9.40637 479.126 9.60637C479.406 9.80637 479.77 9.90637 480.218 9.90637ZM488.019 13.0144V4.41037H488.991L489.039 5.38237C489.255 5.03837 489.547 4.77837 489.915 4.60237C490.291 4.42637 490.695 4.33837 491.127 4.33837C491.767 4.33837 492.291 4.48237 492.699 4.77037C493.107 5.05037 493.407 5.43437 493.599 5.92237C493.799 6.41037 493.899 6.96237 493.899 7.57837C493.899 8.19437 493.799 8.74637 493.599 9.23438C493.399 9.72237 493.091 10.1064 492.675 10.3864C492.259 10.6664 491.727 10.8064 491.079 10.8064C490.759 10.8064 490.471 10.7744 490.215 10.7104C489.959 10.6384 489.735 10.5384 489.543 10.4104C489.351 10.2824 489.183 10.1384 489.039 9.97837V13.0144H488.019ZM490.995 9.90637C491.459 9.90637 491.827 9.80237 492.099 9.59437C492.371 9.37837 492.567 9.09437 492.687 8.74237C492.815 8.39037 492.879 8.00237 492.879 7.57837C492.879 7.14637 492.815 6.75437 492.687 6.40237C492.567 6.05037 492.367 5.77037 492.087 5.56237C491.807 5.35437 491.435 5.25037 490.971 5.25037C490.555 5.25037 490.199 5.35837 489.903 5.57437C489.615 5.78237 489.395 6.06637 489.243 6.42637C489.091 6.77837 489.015 7.16637 489.015 7.59037C489.015 8.03037 489.087 8.42637 489.231 8.77837C489.375 9.13037 489.595 9.40637 489.891 9.60637C490.187 9.80637 490.555 9.90637 490.995 9.90637ZM497.722 10.8064C497.25 10.8064 496.838 10.7264 496.486 10.5664C496.142 10.3984 495.858 10.1704 495.634 9.88237C495.41 9.59437 495.242 9.25437 495.13 8.86237C495.026 8.47037 494.974 8.04637 494.974 7.59037C494.974 6.98237 495.07 6.43437 495.262 5.94637C495.462 5.45037 495.778 5.05837 496.21 4.77037C496.642 4.48237 497.206 4.33837 497.902 4.33837C498.27 4.33837 498.622 4.40637 498.958 4.54237C499.302 4.67837 499.594 4.89037 499.834 5.17837V4.41037H500.854V10.7344H499.834V9.88237C499.61 10.1784 499.314 10.4064 498.946 10.5664C498.578 10.7264 498.17 10.8064 497.722 10.8064ZM497.89 9.90637C498.306 9.90637 498.658 9.79837 498.946 9.58237C499.234 9.36637 499.454 9.07837 499.606 8.71837C499.766 8.35837 499.846 7.96637 499.846 7.54237C499.846 7.10237 499.77 6.71037 499.618 6.36637C499.474 6.02237 499.258 5.75037 498.97 5.55037C498.682 5.35037 498.318 5.25037 497.878 5.25037C497.422 5.25037 497.054 5.35437 496.774 5.56237C496.502 5.77037 496.302 6.05037 496.174 6.40237C496.054 6.75437 495.994 7.14637 495.994 7.57837C495.994 8.02637 496.058 8.42637 496.186 8.77837C496.314 9.13037 496.518 9.40637 496.798 9.60637C497.078 9.80637 497.442 9.90637 497.89 9.90637ZM505.12 10.8064C504.72 10.8064 504.364 10.7504 504.052 10.6384C503.74 10.5184 503.472 10.3544 503.248 10.1464C503.024 9.93037 502.84 9.67837 502.696 9.39037C502.552 9.09437 502.444 8.77437 502.372 8.43037C502.3 8.08637 502.264 7.72237 502.264 7.33837C502.264 6.72237 502.276 6.15037 502.3 5.62237C502.332 5.08637 502.42 4.61037 502.564 4.19437C502.708 3.77037 502.952 3.41837 503.296 3.13837C503.64 2.85837 504.124 2.66237 504.748 2.55037C505.068 2.49437 505.384 2.44637 505.696 2.40637C506.008 2.36637 506.324 2.32637 506.644 2.28637C506.748 2.27037 506.856 2.25437 506.968 2.23837C507.08 2.22237 507.196 2.20237 507.316 2.17837C507.444 2.15437 507.564 2.13437 507.676 2.11837V3.05437C507.588 3.08637 507.492 3.11437 507.388 3.13837C507.292 3.15437 507.188 3.17037 507.076 3.18637C506.972 3.20237 506.864 3.21437 506.752 3.22237C506.648 3.23037 506.544 3.24237 506.44 3.25837C506.336 3.26637 506.236 3.27837 506.14 3.29437C505.86 3.32637 505.564 3.35837 505.252 3.39037C504.94 3.41437 504.644 3.47837 504.364 3.58237C504.092 3.67837 503.86 3.86637 503.668 4.14637C503.572 4.29037 503.488 4.46237 503.416 4.66237C503.352 4.86237 503.304 5.06637 503.272 5.27437C503.248 5.47437 503.232 5.66637 503.224 5.85037C503.384 5.62637 503.58 5.44637 503.812 5.31037C504.044 5.16637 504.292 5.06237 504.556 4.99837C504.82 4.92637 505.072 4.89037 505.312 4.89037C505.888 4.89037 506.376 5.01037 506.776 5.25037C507.176 5.48237 507.48 5.81437 507.688 6.24637C507.896 6.67837 508 7.18237 508 7.75837C508 8.33437 507.888 8.85437 507.664 9.31837C507.44 9.77437 507.112 10.1384 506.68 10.4104C506.256 10.6744 505.736 10.8064 505.12 10.8064ZM505.144 9.90637C505.544 9.90637 505.88 9.81037 506.152 9.61837C506.424 9.42637 506.628 9.17037 506.764 8.85037C506.908 8.53037 506.98 8.17837 506.98 7.79437C506.98 7.41837 506.908 7.08237 506.764 6.78637C506.628 6.48237 506.424 6.24237 506.152 6.06637C505.888 5.89037 505.56 5.80237 505.168 5.80237C504.784 5.80237 504.452 5.89437 504.172 6.07837C503.9 6.26237 503.688 6.51037 503.536 6.82237C503.392 7.12637 503.32 7.45837 503.32 7.81837C503.32 8.18637 503.388 8.53037 503.524 8.85037C503.66 9.17037 503.86 9.42637 504.124 9.61837C504.396 9.81037 504.736 9.90637 505.144 9.90637ZM512.13 10.8064C511.466 10.8064 510.91 10.6704 510.462 10.3984C510.014 10.1184 509.678 9.73437 509.454 9.24637C509.238 8.75837 509.13 8.20237 509.13 7.57837C509.13 6.94637 509.238 6.39037 509.454 5.91037C509.678 5.42237 510.014 5.03837 510.462 4.75837C510.91 4.47837 511.474 4.33837 512.154 4.33837C512.818 4.33837 513.37 4.47837 513.81 4.75837C514.258 5.03837 514.59 5.42237 514.806 5.91037C515.03 6.39037 515.142 6.94637 515.142 7.57837C515.142 8.20237 515.03 8.75837 514.806 9.24637C514.582 9.73437 514.246 10.1184 513.798 10.3984C513.358 10.6704 512.802 10.8064 512.13 10.8064ZM512.13 9.90637C512.594 9.90637 512.97 9.80237 513.258 9.59437C513.554 9.38637 513.77 9.10637 513.906 8.75437C514.05 8.40237 514.122 8.01037 514.122 7.57837C514.122 7.14637 514.05 6.75437 513.906 6.40237C513.77 6.05037 513.554 5.77037 513.258 5.56237C512.97 5.35437 512.594 5.25037 512.13 5.25037C511.674 5.25037 511.298 5.35437 511.002 5.56237C510.714 5.77037 510.498 6.05037 510.354 6.40237C510.218 6.75437 510.15 7.14637 510.15 7.57837C510.15 8.01037 510.218 8.40237 510.354 8.75437C510.498 9.10637 510.714 9.38637 511.002 9.59437C511.298 9.80237 511.674 9.90637 512.13 9.90637ZM517.983 10.7344V5.31037H515.811V4.41037H521.175V5.31037H519.003V10.7344H517.983ZM522.524 13.4464V12.4744C522.916 12.4744 523.228 12.4184 523.46 12.3064C523.692 12.2024 523.884 12.0344 524.036 11.8024C524.196 11.5784 524.348 11.2904 524.492 10.9384L521.72 4.41037H522.92L525.056 9.73837L526.808 4.41037H527.96L526.184 9.39037C526.096 9.64637 525.996 9.93437 525.884 10.2544C525.772 10.5744 525.648 10.8984 525.512 11.2264C525.376 11.5624 525.224 11.8704 525.056 12.1504C524.896 12.4384 524.716 12.6704 524.516 12.8464C524.348 12.9984 524.184 13.1184 524.024 13.2064C523.864 13.2944 523.668 13.3544 523.436 13.3864C523.212 13.4264 522.908 13.4464 522.524 13.4464ZM532.14 10.7344V4.41037H534.588C534.868 4.41037 535.144 4.43037 535.416 4.47037C535.696 4.50237 535.948 4.57437 536.172 4.68637C536.404 4.79037 536.588 4.94637 536.724 5.15437C536.868 5.36237 536.94 5.63837 536.94 5.98237C536.94 6.19037 536.908 6.38237 536.844 6.55837C536.78 6.72637 536.684 6.87437 536.556 7.00237C536.436 7.13037 536.28 7.24237 536.088 7.33837C536.52 7.43437 536.832 7.62237 537.024 7.90237C537.216 8.18237 537.312 8.50237 537.312 8.86237C537.312 9.18237 537.252 9.46237 537.132 9.70237C537.02 9.93437 536.86 10.1264 536.652 10.2784C536.452 10.4304 536.216 10.5464 535.944 10.6264C535.68 10.6984 535.396 10.7344 535.092 10.7344H532.14ZM533.184 9.84637H534.852C535.1 9.84637 535.332 9.82237 535.548 9.77437C535.764 9.72637 535.94 9.63837 536.076 9.51037C536.212 9.37437 536.28 9.18237 536.28 8.93437C536.28 8.67837 536.22 8.48637 536.1 8.35837C535.988 8.22237 535.84 8.13037 535.656 8.08237C535.48 8.02637 535.288 7.99437 535.08 7.98637C534.872 7.97837 534.676 7.97437 534.492 7.97437H533.184V9.84637ZM533.184 7.11037H534.06C534.22 7.11037 534.404 7.10237 534.612 7.08637C534.828 7.07037 535.036 7.03437 535.236 6.97837C535.444 6.91437 535.612 6.81837 535.74 6.69037C535.876 6.56237 535.944 6.38637 535.944 6.16237C535.944 5.86637 535.86 5.66237 535.692 5.55037C535.532 5.43037 535.34 5.36237 535.116 5.34637C534.892 5.32237 534.684 5.31037 534.492 5.31037H533.184V7.11037ZM546.245 10.7344V9.04237H541.637V8.26237L545.789 2.25037H547.289V8.09437H548.285V9.04237H547.289V10.7344H546.245ZM542.897 8.09437H546.245V3.19837L542.897 8.09437ZM552.765 13.0144V4.41037H553.737L553.785 5.38237C554.001 5.03837 554.293 4.77837 554.661 4.60237C555.037 4.42637 555.441 4.33837 555.873 4.33837C556.513 4.33837 557.037 4.48237 557.445 4.77037C557.853 5.05037 558.153 5.43437 558.345 5.92237C558.545 6.41037 558.645 6.96237 558.645 7.57837C558.645 8.19437 558.545 8.74637 558.345 9.23438C558.145 9.72237 557.837 10.1064 557.421 10.3864C557.005 10.6664 556.473 10.8064 555.825 10.8064C555.505 10.8064 555.217 10.7744 554.961 10.7104C554.705 10.6384 554.481 10.5384 554.289 10.4104C554.097 10.2824 553.929 10.1384 553.785 9.97837V13.0144H552.765ZM555.741 9.90637C556.205 9.90637 556.573 9.80237 556.845 9.59437C557.117 9.37837 557.313 9.09437 557.433 8.74237C557.561 8.39037 557.625 8.00237 557.625 7.57837C557.625 7.14637 557.561 6.75437 557.433 6.40237C557.313 6.05037 557.113 5.77037 556.833 5.56237C556.553 5.35437 556.181 5.25037 555.717 5.25037C555.301 5.25037 554.945 5.35837 554.649 5.57437C554.361 5.78237 554.141 6.06637 553.989 6.42637C553.837 6.77837 553.761 7.16637 553.761 7.59037C553.761 8.03037 553.833 8.42637 553.977 8.77837C554.121 9.13037 554.341 9.40637 554.637 9.60637C554.933 9.80637 555.301 9.90637 555.741 9.90637ZM562.468 10.8064C561.996 10.8064 561.584 10.7264 561.232 10.5664C560.888 10.3984 560.604 10.1704 560.38 9.88237C560.156 9.59437 559.988 9.25437 559.876 8.86237C559.772 8.47037 559.72 8.04637 559.72 7.59037C559.72 6.98237 559.816 6.43437 560.008 5.94637C560.208 5.45037 560.524 5.05837 560.956 4.77037C561.388 4.48237 561.952 4.33837 562.648 4.33837C563.016 4.33837 563.368 4.40637 563.704 4.54237C564.048 4.67837 564.34 4.89037 564.58 5.17837V4.41037H565.6V10.7344H564.58V9.88237C564.356 10.1784 564.06 10.4064 563.692 10.5664C563.324 10.7264 562.916 10.8064 562.468 10.8064ZM562.636 9.90637C563.052 9.90637 563.404 9.79837 563.692 9.58237C563.98 9.36637 564.2 9.07837 564.352 8.71837C564.512 8.35837 564.592 7.96637 564.592 7.54237C564.592 7.10237 564.516 6.71037 564.364 6.36637C564.22 6.02237 564.004 5.75037 563.716 5.55037C563.428 5.35037 563.064 5.25037 562.624 5.25037C562.168 5.25037 561.8 5.35437 561.52 5.56237C561.248 5.77037 561.048 6.05037 560.92 6.40237C560.8 6.75437 560.74 7.14637 560.74 7.57837C560.74 8.02637 560.804 8.42637 560.932 8.77837C561.06 9.13037 561.264 9.40637 561.544 9.60637C561.824 9.80637 562.188 9.90637 562.636 9.90637ZM569.494 10.8064C569.19 10.8064 568.886 10.7784 568.582 10.7224C568.278 10.6664 567.994 10.5744 567.73 10.4464C567.474 10.3104 567.266 10.1304 567.106 9.90637C566.946 9.67437 566.858 9.38637 566.842 9.04237H567.838C567.878 9.25837 567.994 9.43037 568.186 9.55837C568.378 9.68637 568.594 9.77837 568.834 9.83437C569.082 9.88237 569.302 9.90637 569.494 9.90637C569.718 9.90637 569.946 9.88237 570.178 9.83437C570.418 9.78637 570.618 9.69037 570.778 9.54637C570.946 9.40237 571.03 9.19037 571.03 8.91037C571.03 8.63837 570.962 8.43837 570.826 8.31037C570.698 8.18237 570.526 8.09837 570.31 8.05837C570.102 8.01837 569.874 7.99837 569.626 7.99837H568.498V7.09837H569.422C569.574 7.09837 569.73 7.08637 569.89 7.06237C570.05 7.03037 570.198 6.98237 570.334 6.91837C570.47 6.84637 570.578 6.74637 570.658 6.61837C570.746 6.49037 570.79 6.32637 570.79 6.12637C570.79 5.90237 570.726 5.72637 570.598 5.59837C570.47 5.47037 570.306 5.38237 570.106 5.33437C569.906 5.27837 569.702 5.25037 569.494 5.25037C569.302 5.25037 569.098 5.27037 568.882 5.31037C568.674 5.35037 568.494 5.43037 568.342 5.55037C568.19 5.66237 568.098 5.83037 568.066 6.05437H567.058C567.074 5.62237 567.206 5.28237 567.454 5.03437C567.702 4.78637 568.01 4.61037 568.378 4.50637C568.746 4.39437 569.114 4.33837 569.482 4.33837C569.762 4.33837 570.038 4.36637 570.31 4.42237C570.582 4.47837 570.83 4.57437 571.054 4.71037C571.278 4.83837 571.454 5.01037 571.582 5.22637C571.718 5.44237 571.786 5.71037 571.786 6.03037C571.786 6.31837 571.718 6.57437 571.582 6.79837C571.446 7.02237 571.238 7.20237 570.958 7.33837C571.366 7.46637 571.65 7.66637 571.81 7.93837C571.97 8.21037 572.05 8.53437 572.05 8.91037C572.05 9.24637 571.978 9.53437 571.834 9.77437C571.69 10.0064 571.494 10.2024 571.246 10.3624C571.006 10.5144 570.734 10.6264 570.43 10.6984C570.126 10.7704 569.814 10.8064 569.494 10.8064ZM575.875 10.8064C575.403 10.8064 574.991 10.7264 574.639 10.5664C574.295 10.3984 574.011 10.1704 573.787 9.88237C573.563 9.59437 573.395 9.25437 573.283 8.86237C573.179 8.47037 573.127 8.04637 573.127 7.59037C573.127 6.98237 573.223 6.43437 573.415 5.94637C573.615 5.45037 573.931 5.05837 574.363 4.77037C574.795 4.48237 575.359 4.33837 576.055 4.33837C576.423 4.33837 576.775 4.40637 577.111 4.54237C577.455 4.67837 577.747 4.89037 577.987 5.17837V4.41037H579.007V10.7344H577.987V9.88237C577.763 10.1784 577.467 10.4064 577.099 10.5664C576.731 10.7264 576.323 10.8064 575.875 10.8064ZM576.043 9.90637C576.459 9.90637 576.811 9.79837 577.099 9.58237C577.387 9.36637 577.607 9.07837 577.759 8.71837C577.919 8.35837 577.999 7.96637 577.999 7.54237C577.999 7.10237 577.923 6.71037 577.771 6.36637C577.627 6.02237 577.411 5.75037 577.123 5.55037C576.835 5.35037 576.471 5.25037 576.031 5.25037C575.575 5.25037 575.207 5.35437 574.927 5.56237C574.655 5.77037 574.455 6.05037 574.326 6.40237C574.206 6.75437 574.146 7.14637 574.146 7.57837C574.146 8.02637 574.211 8.42637 574.339 8.77837C574.467 9.13037 574.671 9.40637 574.951 9.60637C575.231 9.80637 575.595 9.90637 576.043 9.90637ZM422.804 25.7344V19.4104H424.172L426.224 22.5784L428.24 19.4104H429.584V25.7344H428.576V20.5384L426.344 24.1144H426.056L423.812 20.5384V25.7344H422.804ZM433.931 25.8064C433.259 25.8064 432.703 25.6704 432.263 25.3984C431.823 25.1184 431.495 24.7344 431.279 24.2464C431.063 23.7584 430.955 23.2024 430.955 22.5784C430.955 21.9464 431.067 21.3904 431.291 20.9104C431.523 20.4224 431.859 20.0384 432.299 19.7584C432.739 19.4784 433.279 19.3384 433.919 19.3384C434.391 19.3384 434.803 19.4304 435.155 19.6144C435.515 19.7904 435.811 20.0304 436.043 20.3344C436.283 20.6384 436.455 20.9784 436.559 21.3544C436.671 21.7304 436.719 22.1184 436.703 22.5184C436.695 22.5904 436.691 22.6624 436.691 22.7344C436.691 22.8064 436.687 22.8784 436.679 22.9504H431.987C432.019 23.3184 432.111 23.6504 432.263 23.9464C432.415 24.2424 432.631 24.4784 432.911 24.6544C433.191 24.8224 433.539 24.9064 433.955 24.9064C434.163 24.9064 434.371 24.8824 434.579 24.8344C434.795 24.7784 434.987 24.6864 435.155 24.5584C435.331 24.4304 435.455 24.2584 435.527 24.0424H436.571C436.475 24.4504 436.295 24.7864 436.031 25.0504C435.767 25.3064 435.451 25.4984 435.083 25.6264C434.715 25.7464 434.331 25.8064 433.931 25.8064ZM432.011 22.0624H435.671C435.663 21.7024 435.583 21.3864 435.431 21.1144C435.279 20.8424 435.071 20.6304 434.807 20.4784C434.551 20.3264 434.243 20.2504 433.883 20.2504C433.491 20.2504 433.159 20.3344 432.887 20.5024C432.623 20.6704 432.419 20.8904 432.275 21.1624C432.131 21.4344 432.043 21.7344 432.011 22.0624ZM438.074 25.7344V19.4104H439.094V22.1824H442.262V19.4104H443.282V25.7344H442.262V23.0824H439.094V25.7344H438.074ZM444.894 25.7344V19.4104H445.938V21.8224H447.33C447.706 21.8224 448.042 21.8544 448.338 21.9184C448.642 21.9744 448.902 22.0744 449.118 22.2184C449.334 22.3624 449.498 22.5584 449.61 22.8064C449.73 23.0464 449.79 23.3544 449.79 23.7304C449.79 24.0744 449.73 24.3744 449.61 24.6304C449.49 24.8784 449.322 25.0864 449.106 25.2544C448.89 25.4144 448.63 25.5344 448.326 25.6144C448.03 25.6944 447.702 25.7344 447.342 25.7344H444.894ZM445.938 24.8464H446.538C446.818 24.8464 447.086 24.8384 447.342 24.8224C447.606 24.8064 447.846 24.7664 448.062 24.7024C448.278 24.6384 448.446 24.5344 448.566 24.3904C448.694 24.2384 448.758 24.0304 448.758 23.7664C448.758 23.5104 448.706 23.3144 448.602 23.1784C448.506 23.0344 448.378 22.9304 448.218 22.8664C448.058 22.7944 447.882 22.7504 447.69 22.7344C447.506 22.7184 447.322 22.7104 447.138 22.7104H445.938V24.8464ZM451.117 25.7344V19.4104H452.137V24.8464H454.513V19.4104H455.533V24.8464H457.933V19.4104H458.953V25.7344H451.117ZM463.298 25.8064C462.626 25.8064 462.07 25.6704 461.63 25.3984C461.19 25.1184 460.862 24.7344 460.646 24.2464C460.43 23.7584 460.322 23.2024 460.322 22.5784C460.322 21.9464 460.434 21.3904 460.658 20.9104C460.89 20.4224 461.226 20.0384 461.666 19.7584C462.106 19.4784 462.646 19.3384 463.286 19.3384C463.758 19.3384 464.17 19.4304 464.522 19.6144C464.882 19.7904 465.178 20.0304 465.41 20.3344C465.65 20.6384 465.822 20.9784 465.926 21.3544C466.038 21.7304 466.086 22.1184 466.07 22.5184C466.062 22.5904 466.058 22.6624 466.058 22.7344C466.058 22.8064 466.054 22.8784 466.046 22.9504H461.354C461.386 23.3184 461.478 23.6504 461.63 23.9464C461.782 24.2424 461.998 24.4784 462.278 24.6544C462.558 24.8224 462.906 24.9064 463.322 24.9064C463.53 24.9064 463.738 24.8824 463.946 24.8344C464.162 24.7784 464.354 24.6864 464.522 24.5584C464.698 24.4304 464.822 24.2584 464.894 24.0424H465.938C465.842 24.4504 465.662 24.7864 465.398 25.0504C465.134 25.3064 464.818 25.4984 464.45 25.6264C464.082 25.7464 463.698 25.8064 463.298 25.8064ZM461.378 22.0624H465.038C465.03 21.7024 464.95 21.3864 464.798 21.1144C464.646 20.8424 464.438 20.6304 464.174 20.4784C463.918 20.3264 463.61 20.2504 463.25 20.2504C462.858 20.2504 462.526 20.3344 462.254 20.5024C461.99 20.6704 461.786 20.8904 461.642 21.1624C461.498 21.4344 461.41 21.7344 461.378 22.0624ZM470.675 25.7344V19.4104H473.123C473.403 19.4104 473.679 19.4304 473.951 19.4704C474.231 19.5024 474.483 19.5744 474.707 19.6864C474.939 19.7904 475.123 19.9464 475.259 20.1544C475.403 20.3624 475.475 20.6384 475.475 20.9824C475.475 21.1904 475.443 21.3824 475.379 21.5584C475.315 21.7264 475.219 21.8744 475.091 22.0024C474.971 22.1304 474.815 22.2424 474.623 22.3384C475.055 22.4344 475.367 22.6224 475.559 22.9024C475.751 23.1824 475.847 23.5024 475.847 23.8624C475.847 24.1824 475.787 24.4624 475.667 24.7024C475.555 24.9344 475.395 25.1264 475.187 25.2784C474.987 25.4304 474.751 25.5464 474.479 25.6264C474.215 25.6984 473.931 25.7344 473.627 25.7344H470.675ZM471.719 24.8464H473.387C473.635 24.8464 473.867 24.8224 474.083 24.7744C474.299 24.7264 474.475 24.6384 474.611 24.5104C474.747 24.3744 474.815 24.1824 474.815 23.9344C474.815 23.6784 474.755 23.4864 474.635 23.3584C474.523 23.2224 474.375 23.1304 474.191 23.0824C474.015 23.0264 473.823 22.9944 473.615 22.9864C473.407 22.9784 473.211 22.9744 473.027 22.9744H471.719V24.8464ZM471.719 22.1104H472.595C472.755 22.1104 472.939 22.1024 473.147 22.0864C473.363 22.0704 473.571 22.0344 473.771 21.9784C473.979 21.9144 474.147 21.8184 474.275 21.6904C474.411 21.5624 474.479 21.3864 474.479 21.1624C474.479 20.8664 474.395 20.6624 474.227 20.5504C474.067 20.4304 473.875 20.3624 473.651 20.3464C473.427 20.3224 473.219 20.3104 473.027 20.3104H471.719V22.1104ZM477.238 28.0144V19.4104H478.21L478.258 20.3824C478.474 20.0384 478.766 19.7784 479.134 19.6024C479.51 19.4264 479.914 19.3384 480.346 19.3384C480.986 19.3384 481.51 19.4824 481.918 19.7704C482.326 20.0504 482.626 20.4344 482.818 20.9224C483.018 21.4104 483.118 21.9624 483.118 22.5784C483.118 23.1944 483.018 23.7464 482.818 24.2344C482.618 24.7224 482.31 25.1064 481.894 25.3864C481.478 25.6664 480.946 25.8064 480.298 25.8064C479.978 25.8064 479.69 25.7744 479.434 25.7104C479.178 25.6384 478.954 25.5384 478.762 25.4104C478.57 25.2824 478.402 25.1384 478.258 24.9784V28.0144H477.238ZM480.214 24.9064C480.678 24.9064 481.046 24.8024 481.318 24.5944C481.59 24.3784 481.786 24.0944 481.906 23.7424C482.034 23.3904 482.098 23.0024 482.098 22.5784C482.098 22.1464 482.034 21.7544 481.906 21.4024C481.786 21.0504 481.586 20.7704 481.306 20.5624C481.026 20.3544 480.654 20.2504 480.19 20.2504C479.774 20.2504 479.418 20.3584 479.122 20.5744C478.834 20.7824 478.614 21.0664 478.462 21.4264C478.31 21.7784 478.234 22.1664 478.234 22.5904C478.234 23.0304 478.306 23.4264 478.45 23.7784C478.594 24.1304 478.814 24.4064 479.11 24.6064C479.406 24.8064 479.774 24.9064 480.214 24.9064ZM487.169 25.8064C486.497 25.8064 485.941 25.6704 485.501 25.3984C485.061 25.1184 484.733 24.7344 484.517 24.2464C484.301 23.7584 484.193 23.2024 484.193 22.5784C484.193 21.9464 484.305 21.3904 484.529 20.9104C484.761 20.4224 485.097 20.0384 485.537 19.7584C485.977 19.4784 486.517 19.3384 487.157 19.3384C487.629 19.3384 488.041 19.4304 488.393 19.6144C488.753 19.7904 489.049 20.0304 489.281 20.3344C489.521 20.6384 489.693 20.9784 489.797 21.3544C489.909 21.7304 489.957 22.1184 489.941 22.5184C489.933 22.5904 489.929 22.6624 489.929 22.7344C489.929 22.8064 489.925 22.8784 489.917 22.9504H485.225C485.257 23.3184 485.349 23.6504 485.501 23.9464C485.653 24.2424 485.869 24.4784 486.149 24.6544C486.429 24.8224 486.777 24.9064 487.193 24.9064C487.401 24.9064 487.609 24.8824 487.817 24.8344C488.033 24.7784 488.225 24.6864 488.393 24.5584C488.569 24.4304 488.693 24.2584 488.765 24.0424H489.809C489.713 24.4504 489.533 24.7864 489.269 25.0504C489.005 25.3064 488.689 25.4984 488.321 25.6264C487.953 25.7464 487.569 25.8064 487.169 25.8064ZM485.249 22.0624H488.909C488.901 21.7024 488.821 21.3864 488.669 21.1144C488.517 20.8424 488.309 20.6304 488.045 20.4784C487.789 20.3264 487.481 20.2504 487.121 20.2504C486.729 20.2504 486.397 20.3344 486.125 20.5024C485.861 20.6704 485.657 20.8904 485.513 21.1624C485.369 21.4344 485.281 21.7344 485.249 22.0624ZM491.312 25.7344V19.4104H492.68L494.732 22.5784L496.748 19.4104H498.092V25.7344H497.084V20.5384L494.852 24.1144H494.564L492.32 20.5384V25.7344H491.312ZM502.438 25.8064C501.766 25.8064 501.21 25.6704 500.77 25.3984C500.33 25.1184 500.002 24.7344 499.786 24.2464C499.57 23.7584 499.462 23.2024 499.462 22.5784C499.462 21.9464 499.574 21.3904 499.798 20.9104C500.03 20.4224 500.366 20.0384 500.806 19.7584C501.246 19.4784 501.786 19.3384 502.426 19.3384C502.898 19.3384 503.31 19.4304 503.662 19.6144C504.022 19.7904 504.318 20.0304 504.55 20.3344C504.79 20.6384 504.962 20.9784 505.066 21.3544C505.178 21.7304 505.226 22.1184 505.21 22.5184C505.202 22.5904 505.198 22.6624 505.198 22.7344C505.198 22.8064 505.194 22.8784 505.186 22.9504H500.494C500.526 23.3184 500.618 23.6504 500.77 23.9464C500.922 24.2424 501.138 24.4784 501.418 24.6544C501.698 24.8224 502.046 24.9064 502.462 24.9064C502.67 24.9064 502.878 24.8824 503.086 24.8344C503.302 24.7784 503.494 24.6864 503.662 24.5584C503.838 24.4304 503.962 24.2584 504.034 24.0424H505.078C504.982 24.4504 504.802 24.7864 504.538 25.0504C504.274 25.3064 503.958 25.4984 503.59 25.6264C503.222 25.7464 502.838 25.8064 502.438 25.8064ZM500.518 22.0624H504.178C504.17 21.7024 504.09 21.3864 503.938 21.1144C503.786 20.8424 503.578 20.6304 503.314 20.4784C503.058 20.3264 502.75 20.2504 502.39 20.2504C501.998 20.2504 501.666 20.3344 501.394 20.5024C501.13 20.6704 500.926 20.8904 500.782 21.1624C500.638 21.4344 500.55 21.7344 500.518 22.0624ZM506.581 25.7344V19.4104H507.601V22.1824H510.769V19.4104H511.789V25.7344H510.769V23.0824H507.601V25.7344H506.581ZM513.402 25.7344V19.4104H514.422V24.2584C514.478 24.1464 514.554 24.0264 514.65 23.8984C514.746 23.7624 514.822 23.6584 514.878 23.5864L517.938 19.4104H518.946V25.7344H517.926V20.8864C517.862 21.0064 517.79 21.1184 517.71 21.2224C517.638 21.3264 517.57 21.4224 517.506 21.5104L514.398 25.7344H513.402Z" fill="#E27E55"/>
<path d="M630.061 27.2557C630.579 27.7744 631.421 27.7744 631.939 27.2557L640.393 18.8022C640.911 18.2835 640.911 17.4424 640.393 16.9237C639.874 16.4049 639.033 16.4049 638.514 16.9237L631 24.4379L623.486 16.9237C622.967 16.4049 622.126 16.4049 621.607 16.9237C621.089 17.4424 621.089 18.2835 621.607 18.8022L630.061 27.2557ZM632.328 7.00056L632.328 5.67223L629.672 5.67223L629.672 7.00056L632.328 7.00056ZM632.328 26.3164L632.328 7.00056L629.672 7.00056L629.672 26.3164L632.328 26.3164Z" fill="#E27E55"/>
<path d="M666.542 65V55.553H640.814V51.198L663.996 17.631H672.371V50.26H677.932V55.553H672.371V65H666.542ZM647.849 50.26H666.542V22.924L647.849 50.26ZM681.336 65L693.932 46.977L681.939 29.691H688.773L697.751 43.091L706.461 29.691H713.094L701.168 47.178L713.965 65H707.198L697.416 51.533L687.768 65H681.336Z" fill="#E27E55"/>
<defs>
<filter id="filter0_bd_5313_15075" x="675.673" y="94.0287" width="132.654" height="132.654" filterUnits="userSpaceOnUse" color-interpolation-filters="sRGB">
<feFlood flood-opacity="0" result="BackgroundImageFix"/>
<feGaussianBlur in="BackgroundImageFix" stdDeviation="25.6634"/>
<feComposite in2="SourceAlpha" operator="in" result="effect1_backgroundBlur_5313_15075"/>
<feColorMatrix in="SourceAlpha" type="matrix" values="0 0 0 0 0 0 0 0 0 0 0 0 0 0 0 0 0 0 127 0" result="hardAlpha"/>
<feOffset dy="2.56634"/>
<feGaussianBlur stdDeviation="4.29494"/>
<feComposite in2="hardAlpha" operator="out"/>
<feColorMatrix type="matrix" values="0 0 0 0 0.870588 0 0 0 0 0.490196 0 0 0 0 0.368627 0 0 0 0.4 0"/>
<feBlend mode="normal" in2="effect1_backgroundBlur_5313_15075" result="effect2_dropShadow_5313_15075"/>
<feBlend mode="normal" in="SourceGraphic" in2="effect2_dropShadow_5313_15075" result="shape"/>
</filter>
<linearGradient id="paint0_linear_5313_15075" x1="412.482" y1="11" x2="415.19" y2="188.152" gradientUnits="userSpaceOnUse">
<stop stop-color="#DE7D5E"/>
<stop offset="1" stop-color="#DE7D5E" stop-opacity="0"/>
</linearGradient>
<linearGradient id="paint1_linear_5313_15075" x1="740.984" y1="159.845" x2="740.984" y2="19" gradientUnits="userSpaceOnUse">
<stop stop-color="#DE7D5E"/>
<stop offset="1" stop-color="#FAFCFF"/>
</linearGradient>
</defs>
</svg>
