<svg width="298" height="80" viewBox="0 0 298 80" fill="none" xmlns="http://www.w3.org/2000/svg">
<path d="M1 25.8266C1 25.8266 3.03264 24.8912 5.10371 23.0045C9.47241 19.0247 8.57483 9.25704 13.1154 5.92251C20.046 0.832691 23.4647 16.6209 30.8555 18.9852C37.0116 20.9545 40.8755 15.8851 46.8788 18.9852C56.1379 23.7666 62.2502 10.7653 72.4105 10.7653C93.2108 10.7653 98.9545 31.0435 107.538 26.0194C116.122 20.9953 113.847 13.5615 128.712 14.9659C135.539 15.611 141.701 29.912 148.169 26.0205C158.547 19.7767 165.272 46.6544 176.21 48.1229C189.048 49.8465 196.265 43.1802 208.829 48.125C218.719 52.0176 225.996 64.3886 235.153 56.7581C245.421 48.2018 254.126 64.5972 265.483 63.7942C278.84 62.8498 297 72.5634 297 72.5634" stroke="#E27E55" stroke-width="1.04546" stroke-linecap="round"/>
<path d="M6.16477 22.1205C5.28873 24.5478 1 25.8266 1 25.8266L1 78.713L297 78.7129V72.9734C297 72.9734 278.008 62.9866 264.705 63.7794C253.394 64.4534 247.548 51.2033 238.372 55.1333C222.844 61.7834 228.397 59.8868 209.645 48.4522C198.418 41.6064 191.292 48.8452 176.53 48.4522C165.568 48.1604 159.428 20.549 147.803 26.4441C141.361 29.7108 136.388 15.6947 128.253 15.047C113.448 13.868 113.965 24.2358 106.309 26.8371C100.469 28.8213 96.7335 20.942 86.759 14.654C83.3451 13.1069 80.6242 11.8329 75.1885 11.1169C64.9913 9.77386 55.6837 23.3837 46.4619 19.37C40.4828 16.7677 36.235 20.2371 30.1036 18.584C22.7426 16.5993 20.3145 1.39898 13.4117 5.6716C8.88949 8.47075 9.35662 13.2764 6.16477 22.1205Z" fill="url(#paint0_linear_5313_33789)" fill-opacity="0.2"/>
<g filter="url(#filter0_bd_5313_33789)">
<circle cx="269.976" cy="64.429" r="5.95242" fill="#E27E55"/>
</g>
<line x1="270.207" y1="-1.14246e-08" x2="270.207" y2="59.036" stroke="url(#paint1_linear_5313_33789)" stroke-width="0.522732" stroke-dasharray="1.05 1.05"/>
<path d="M206.406 15.2656C206.734 15.5935 207.266 15.5935 207.594 15.2656L212.937 9.92206C213.265 9.59415 213.265 9.06251 212.937 8.7346C212.609 8.4067 212.078 8.4067 211.75 8.7346L207 13.4844L202.25 8.7346C201.922 8.4067 201.391 8.4067 201.063 8.7346C200.735 9.06251 200.735 9.59415 201.063 9.92206L206.406 15.2656ZM207.84 2.67188V1.83222H206.16V2.67188H207.84ZM207.84 14.6719V2.67188H206.16V14.6719H207.84Z" fill="#E27E55"/>
<path d="M228.609 31V26.488H216.321V24.408L227.393 8.376H231.393V23.96H234.049V26.488H231.393V31H228.609ZM219.681 23.96H228.609V10.904L219.681 23.96ZM235.675 31L241.691 22.392L235.963 14.136H239.227L243.515 20.536L247.675 14.136H250.843L245.147 22.488L251.259 31H248.027L243.355 24.568L238.747 31H235.675Z" fill="#E27E55"/>
<defs>
<filter id="filter0_bd_5313_33789" x="243.114" y="37.5673" width="53.7238" height="53.7233" filterUnits="userSpaceOnUse" color-interpolation-filters="sRGB">
<feFlood flood-opacity="0" result="BackgroundImageFix"/>
<feGaussianBlur in="BackgroundImageFix" stdDeviation="10.4546"/>
<feComposite in2="SourceAlpha" operator="in" result="effect1_backgroundBlur_5313_33789"/>
<feColorMatrix in="SourceAlpha" type="matrix" values="0 0 0 0 0 0 0 0 0 0 0 0 0 0 0 0 0 0 127 0" result="hardAlpha"/>
<feOffset dy="1.04546"/>
<feGaussianBlur stdDeviation="1.74965"/>
<feComposite in2="hardAlpha" operator="out"/>
<feColorMatrix type="matrix" values="0 0 0 0 0.870588 0 0 0 0 0.490196 0 0 0 0 0.368627 0 0 0 0.4 0"/>
<feBlend mode="normal" in2="effect1_backgroundBlur_5313_33789" result="effect2_dropShadow_5313_33789"/>
<feBlend mode="normal" in="SourceGraphic" in2="effect2_dropShadow_5313_33789" result="shape"/>
</filter>
<linearGradient id="paint0_linear_5313_33789" x1="148.776" y1="4.82893" x2="148.606" y2="78.7135" gradientUnits="userSpaceOnUse">
<stop stop-color="#DE7D5E"/>
<stop offset="1" stop-color="#DE7D5E" stop-opacity="0"/>
</linearGradient>
<linearGradient id="paint1_linear_5313_33789" x1="269.445" y1="59.036" x2="269.445" y2="2.18557e-08" gradientUnits="userSpaceOnUse">
<stop stop-color="#DE7D5E"/>
<stop offset="1" stop-color="#FAFCFF"/>
</linearGradient>
</defs>
</svg>
