<svg width="651" height="178" viewBox="0 0 651 178" fill="none" xmlns="http://www.w3.org/2000/svg">
<path d="M14.1572 73.131C9.6715 76.7704 1 78.3846 1 78.3846L1 172L650 172C650 172 607.529 152.343 578.599 154.165C554.002 155.714 533.499 123.228 512.527 141.324C497.578 154.224 476.402 131.356 454.98 123.847C427.768 114.308 413.784 127.172 385.977 123.847C362.286 121.014 346.499 66.9046 324.022 78.9489C310.013 86.4556 296.668 58.8689 281.881 57.6246C249.685 54.9155 250.383 78.2145 233.224 80.8468C216.064 83.4791 214.156 59.9586 167.103 49.3566C145.37 44.4595 124.692 74.601 104.638 65.3778C91.6354 59.3978 83.2665 69.1766 69.9329 65.3778C53.9252 60.8172 46.5208 30.3617 31.5097 40.18C21.6753 46.6122 23.6194 65.4539 14.1572 73.131Z" fill="url(#paint0_linear_5313_28936)" fill-opacity="0.2"/>
<path d="M1 79.7144C1 79.7144 8.94082 77.4979 13.4447 73.7897C22.9451 65.9677 20.9931 46.7703 30.8672 40.2165C45.939 30.2129 53.3733 61.2434 69.4457 65.8902C82.8332 69.7607 91.2358 59.7972 104.291 65.8902C124.426 75.2876 137.718 49.7346 159.813 49.7346C205.047 49.7346 217.537 89.5897 236.204 79.7152C254.871 69.8408 249.924 55.2303 282.25 57.9906C297.097 59.2584 310.496 87.3659 324.562 79.7175C347.13 67.4458 361.754 120.272 385.54 123.158C413.459 126.546 429.153 113.443 456.475 123.162C477.983 130.813 493.807 155.127 513.721 140.13C536.05 123.313 554.981 155.537 579.677 153.959C608.724 152.103 650 172 650 172" stroke="#E27E55" stroke-opacity="0.4" stroke-width="1.9946" stroke-linecap="round"/>
<g filter="url(#filter0_bd_5313_28936)">
<circle cx="586.684" cy="156.454" r="11.872" fill="#E27E55"/>
</g>
<line x1="586.773" y1="44.5742" x2="586.773" y2="156.048" stroke="url(#paint1_linear_5313_28936)" stroke-dasharray="2.03 2.03"/>
<path d="M498.085 51.1067C498.495 51.5172 499.161 51.5172 499.572 51.1067L506.262 44.4161C506.673 44.0055 506.673 43.3399 506.262 42.9293C505.852 42.5187 505.186 42.5187 504.775 42.9293L498.828 48.8765L492.881 42.9293C492.47 42.5187 491.805 42.5187 491.394 42.9293C490.984 43.3399 490.984 44.0055 491.394 44.4161L498.085 51.1067ZM499.879 35.0755L499.879 34.0242L497.777 34.0242L497.777 35.0755L499.879 35.0755ZM499.879 50.3633L499.879 35.0755L497.777 35.0755L497.777 50.3633L499.879 50.3633Z" fill="#E27E55"/>
<path d="M526.519 80.5352V73.2032H506.551V69.8232L524.543 43.7712H531.043V69.0952H535.359V73.2032H531.043V80.5352H526.519ZM512.011 69.0952H526.519V47.8792L512.011 69.0952ZM538.001 80.5352L547.777 66.5472L538.469 53.1312H543.773L550.741 63.5312L557.501 53.1312H562.649L553.393 66.7032L563.325 80.5352H558.073L550.481 70.0832L542.993 80.5352H538.001Z" fill="#E27E55"/>
<path d="M337.892 11V3.464H335.168V2.516H341.66V3.464H338.936V11H337.892ZM342.156 13.28V4.676H343.128L343.176 5.648C343.392 5.304 343.684 5.044 344.052 4.868C344.428 4.692 344.832 4.604 345.264 4.604C345.904 4.604 346.428 4.748 346.836 5.036C347.244 5.316 347.544 5.7 347.736 6.188C347.936 6.676 348.036 7.228 348.036 7.844C348.036 8.46 347.936 9.012 347.736 9.5C347.536 9.988 347.228 10.372 346.812 10.652C346.396 10.932 345.864 11.072 345.216 11.072C344.896 11.072 344.608 11.04 344.352 10.976C344.096 10.904 343.872 10.804 343.68 10.676C343.488 10.548 343.32 10.404 343.176 10.244V13.28H342.156ZM345.132 10.172C345.596 10.172 345.964 10.068 346.236 9.86C346.508 9.644 346.704 9.36 346.824 9.008C346.952 8.656 347.016 8.268 347.016 7.844C347.016 7.412 346.952 7.02 346.824 6.668C346.704 6.316 346.504 6.036 346.224 5.828C345.944 5.62 345.572 5.516 345.108 5.516C344.692 5.516 344.336 5.624 344.04 5.84C343.752 6.048 343.532 6.332 343.38 6.692C343.228 7.044 343.152 7.432 343.152 7.856C343.152 8.296 343.224 8.692 343.368 9.044C343.512 9.396 343.732 9.672 344.028 9.872C344.324 10.072 344.692 10.172 345.132 10.172ZM351.859 11.072C351.387 11.072 350.975 10.992 350.623 10.832C350.279 10.664 349.995 10.436 349.771 10.148C349.547 9.86 349.379 9.52 349.267 9.128C349.163 8.736 349.111 8.312 349.111 7.856C349.111 7.248 349.207 6.7 349.399 6.212C349.599 5.716 349.915 5.324 350.347 5.036C350.779 4.748 351.343 4.604 352.039 4.604C352.407 4.604 352.759 4.672 353.095 4.808C353.439 4.944 353.731 5.156 353.971 5.444V4.676H354.991V11H353.971V10.148C353.747 10.444 353.451 10.672 353.083 10.832C352.715 10.992 352.307 11.072 351.859 11.072ZM352.027 10.172C352.443 10.172 352.795 10.064 353.083 9.848C353.371 9.632 353.591 9.344 353.743 8.984C353.903 8.624 353.983 8.232 353.983 7.808C353.983 7.368 353.907 6.976 353.755 6.632C353.611 6.288 353.395 6.016 353.107 5.816C352.819 5.616 352.455 5.516 352.015 5.516C351.559 5.516 351.191 5.62 350.911 5.828C350.639 6.036 350.439 6.316 350.311 6.668C350.191 7.02 350.131 7.412 350.131 7.844C350.131 8.292 350.195 8.692 350.323 9.044C350.451 9.396 350.655 9.672 350.935 9.872C351.215 10.072 351.579 10.172 352.027 10.172ZM358.069 11V5.576H355.897V4.676H361.261V5.576H359.089V11H358.069ZM362.171 11V4.676H363.215V7.088H364.607C364.983 7.088 365.319 7.12 365.615 7.184C365.919 7.24 366.179 7.34 366.395 7.484C366.611 7.628 366.775 7.824 366.887 8.072C367.007 8.312 367.067 8.62 367.067 8.996C367.067 9.34 367.007 9.64 366.887 9.896C366.767 10.144 366.599 10.352 366.383 10.52C366.167 10.68 365.907 10.8 365.603 10.88C365.307 10.96 364.979 11 364.619 11H362.171ZM363.215 10.112H363.815C364.095 10.112 364.363 10.104 364.619 10.088C364.883 10.072 365.123 10.032 365.339 9.968C365.555 9.904 365.723 9.8 365.843 9.656C365.971 9.504 366.035 9.296 366.035 9.032C366.035 8.776 365.983 8.58 365.879 8.444C365.783 8.3 365.655 8.196 365.495 8.132C365.335 8.06 365.159 8.016 364.967 8C364.783 7.984 364.599 7.976 364.415 7.976H363.215V10.112ZM369.507 11V5.576H367.335V4.676H372.699V5.576H370.527V11H369.507ZM376.345 11.072C375.673 11.072 375.117 10.936 374.677 10.664C374.237 10.384 373.909 10 373.693 9.512C373.477 9.024 373.369 8.468 373.369 7.844C373.369 7.212 373.481 6.656 373.705 6.176C373.937 5.688 374.273 5.304 374.713 5.024C375.153 4.744 375.693 4.604 376.333 4.604C376.805 4.604 377.217 4.696 377.569 4.88C377.929 5.056 378.225 5.296 378.457 5.6C378.697 5.904 378.869 6.244 378.973 6.62C379.085 6.996 379.133 7.384 379.117 7.784C379.109 7.856 379.105 7.928 379.105 8C379.105 8.072 379.101 8.144 379.093 8.216H374.401C374.433 8.584 374.525 8.916 374.677 9.212C374.829 9.508 375.045 9.744 375.325 9.92C375.605 10.088 375.953 10.172 376.369 10.172C376.577 10.172 376.785 10.148 376.993 10.1C377.209 10.044 377.401 9.952 377.569 9.824C377.745 9.696 377.869 9.524 377.941 9.308H378.985C378.889 9.716 378.709 10.052 378.445 10.316C378.181 10.572 377.865 10.764 377.497 10.892C377.129 11.012 376.745 11.072 376.345 11.072ZM374.425 7.328H378.085C378.077 6.968 377.997 6.652 377.845 6.38C377.693 6.108 377.485 5.896 377.221 5.744C376.965 5.592 376.657 5.516 376.297 5.516C375.905 5.516 375.573 5.6 375.301 5.768C375.037 5.936 374.833 6.156 374.689 6.428C374.545 6.7 374.457 7 374.425 7.328ZM383.722 11V4.676H384.742V7.448H387.91V4.676H388.93V11H387.91V8.348H384.742V11H383.722ZM393.05 11.072C392.578 11.072 392.166 10.992 391.814 10.832C391.47 10.664 391.186 10.436 390.962 10.148C390.738 9.86 390.57 9.52 390.458 9.128C390.354 8.736 390.302 8.312 390.302 7.856C390.302 7.248 390.398 6.7 390.59 6.212C390.79 5.716 391.106 5.324 391.538 5.036C391.97 4.748 392.534 4.604 393.23 4.604C393.598 4.604 393.95 4.672 394.286 4.808C394.63 4.944 394.922 5.156 395.162 5.444V4.676H396.182V11H395.162V10.148C394.938 10.444 394.642 10.672 394.274 10.832C393.906 10.992 393.498 11.072 393.05 11.072ZM393.218 10.172C393.634 10.172 393.986 10.064 394.274 9.848C394.562 9.632 394.782 9.344 394.934 8.984C395.094 8.624 395.174 8.232 395.174 7.808C395.174 7.368 395.098 6.976 394.946 6.632C394.802 6.288 394.586 6.016 394.298 5.816C394.01 5.616 393.646 5.516 393.206 5.516C392.75 5.516 392.382 5.62 392.102 5.828C391.83 6.036 391.63 6.316 391.502 6.668C391.382 7.02 391.322 7.412 391.322 7.844C391.322 8.292 391.386 8.692 391.514 9.044C391.642 9.396 391.846 9.672 392.126 9.872C392.406 10.072 392.77 10.172 393.218 10.172ZM401.019 13.28V4.676H401.991L402.039 5.648C402.255 5.304 402.547 5.044 402.915 4.868C403.291 4.692 403.695 4.604 404.127 4.604C404.767 4.604 405.291 4.748 405.699 5.036C406.107 5.316 406.407 5.7 406.599 6.188C406.799 6.676 406.899 7.228 406.899 7.844C406.899 8.46 406.799 9.012 406.599 9.5C406.399 9.988 406.091 10.372 405.675 10.652C405.259 10.932 404.727 11.072 404.079 11.072C403.759 11.072 403.471 11.04 403.215 10.976C402.959 10.904 402.735 10.804 402.543 10.676C402.351 10.548 402.183 10.404 402.039 10.244V13.28H401.019ZM403.995 10.172C404.459 10.172 404.827 10.068 405.099 9.86C405.371 9.644 405.567 9.36 405.687 9.008C405.815 8.656 405.879 8.268 405.879 7.844C405.879 7.412 405.815 7.02 405.687 6.668C405.567 6.316 405.367 6.036 405.087 5.828C404.807 5.62 404.435 5.516 403.971 5.516C403.555 5.516 403.199 5.624 402.903 5.84C402.615 6.048 402.395 6.332 402.243 6.692C402.091 7.044 402.015 7.432 402.015 7.856C402.015 8.296 402.087 8.692 402.231 9.044C402.375 9.396 402.595 9.672 402.891 9.872C403.187 10.072 403.555 10.172 403.995 10.172ZM410.722 11.072C410.25 11.072 409.838 10.992 409.486 10.832C409.142 10.664 408.858 10.436 408.634 10.148C408.41 9.86 408.242 9.52 408.13 9.128C408.026 8.736 407.974 8.312 407.974 7.856C407.974 7.248 408.07 6.7 408.262 6.212C408.462 5.716 408.778 5.324 409.21 5.036C409.642 4.748 410.206 4.604 410.902 4.604C411.27 4.604 411.622 4.672 411.958 4.808C412.302 4.944 412.594 5.156 412.834 5.444V4.676H413.854V11H412.834V10.148C412.61 10.444 412.314 10.672 411.946 10.832C411.578 10.992 411.17 11.072 410.722 11.072ZM410.89 10.172C411.306 10.172 411.658 10.064 411.946 9.848C412.234 9.632 412.454 9.344 412.606 8.984C412.766 8.624 412.846 8.232 412.846 7.808C412.846 7.368 412.77 6.976 412.618 6.632C412.474 6.288 412.258 6.016 411.97 5.816C411.682 5.616 411.318 5.516 410.878 5.516C410.422 5.516 410.054 5.62 409.774 5.828C409.502 6.036 409.302 6.316 409.174 6.668C409.054 7.02 408.994 7.412 408.994 7.844C408.994 8.292 409.058 8.692 409.186 9.044C409.314 9.396 409.518 9.672 409.798 9.872C410.078 10.072 410.442 10.172 410.89 10.172ZM418.12 11.072C417.72 11.072 417.364 11.016 417.052 10.904C416.74 10.784 416.472 10.62 416.248 10.412C416.024 10.196 415.84 9.944 415.696 9.656C415.552 9.36 415.444 9.04 415.372 8.696C415.3 8.352 415.264 7.988 415.264 7.604C415.264 6.988 415.276 6.416 415.3 5.888C415.332 5.352 415.42 4.876 415.564 4.46C415.708 4.036 415.952 3.684 416.296 3.404C416.64 3.124 417.124 2.928 417.748 2.816C418.068 2.76 418.384 2.712 418.696 2.672C419.008 2.632 419.324 2.592 419.644 2.552C419.748 2.536 419.856 2.52 419.968 2.504C420.08 2.488 420.196 2.468 420.316 2.444C420.444 2.42 420.564 2.4 420.676 2.384V3.32C420.588 3.352 420.492 3.38 420.388 3.404C420.292 3.42 420.188 3.436 420.076 3.452C419.972 3.468 419.864 3.48 419.752 3.488C419.648 3.496 419.544 3.508 419.44 3.524C419.336 3.532 419.236 3.544 419.14 3.56C418.86 3.592 418.564 3.624 418.252 3.656C417.94 3.68 417.644 3.744 417.364 3.848C417.092 3.944 416.86 4.132 416.668 4.412C416.572 4.556 416.488 4.728 416.416 4.928C416.352 5.128 416.304 5.332 416.272 5.54C416.248 5.74 416.232 5.932 416.224 6.116C416.384 5.892 416.58 5.712 416.812 5.576C417.044 5.432 417.292 5.328 417.556 5.264C417.82 5.192 418.072 5.156 418.312 5.156C418.888 5.156 419.376 5.276 419.776 5.516C420.176 5.748 420.48 6.08 420.688 6.512C420.896 6.944 421 7.448 421 8.024C421 8.6 420.888 9.12 420.664 9.584C420.44 10.04 420.112 10.404 419.68 10.676C419.256 10.94 418.736 11.072 418.12 11.072ZM418.144 10.172C418.544 10.172 418.88 10.076 419.152 9.884C419.424 9.692 419.628 9.436 419.764 9.116C419.908 8.796 419.98 8.444 419.98 8.06C419.98 7.684 419.908 7.348 419.764 7.052C419.628 6.748 419.424 6.508 419.152 6.332C418.888 6.156 418.56 6.068 418.168 6.068C417.784 6.068 417.452 6.16 417.172 6.344C416.9 6.528 416.688 6.776 416.536 7.088C416.392 7.392 416.32 7.724 416.32 8.084C416.32 8.452 416.388 8.796 416.524 9.116C416.66 9.436 416.86 9.692 417.124 9.884C417.396 10.076 417.736 10.172 418.144 10.172ZM425.13 11.072C424.466 11.072 423.91 10.936 423.462 10.664C423.014 10.384 422.678 10 422.454 9.512C422.238 9.024 422.13 8.468 422.13 7.844C422.13 7.212 422.238 6.656 422.454 6.176C422.678 5.688 423.014 5.304 423.462 5.024C423.91 4.744 424.474 4.604 425.154 4.604C425.818 4.604 426.37 4.744 426.81 5.024C427.258 5.304 427.59 5.688 427.806 6.176C428.03 6.656 428.142 7.212 428.142 7.844C428.142 8.468 428.03 9.024 427.806 9.512C427.582 10 427.246 10.384 426.798 10.664C426.358 10.936 425.802 11.072 425.13 11.072ZM425.13 10.172C425.594 10.172 425.97 10.068 426.258 9.86C426.554 9.652 426.77 9.372 426.906 9.02C427.05 8.668 427.122 8.276 427.122 7.844C427.122 7.412 427.05 7.02 426.906 6.668C426.77 6.316 426.554 6.036 426.258 5.828C425.97 5.62 425.594 5.516 425.13 5.516C424.674 5.516 424.298 5.62 424.002 5.828C423.714 6.036 423.498 6.316 423.354 6.668C423.218 7.02 423.15 7.412 423.15 7.844C423.15 8.276 423.218 8.668 423.354 9.02C423.498 9.372 423.714 9.652 424.002 9.86C424.298 10.068 424.674 10.172 425.13 10.172ZM430.983 11V5.576H428.811V4.676H434.175V5.576H432.003V11H430.983ZM435.524 13.712V12.74C435.916 12.74 436.228 12.684 436.46 12.572C436.692 12.468 436.884 12.3 437.036 12.068C437.196 11.844 437.348 11.556 437.492 11.204L434.72 4.676H435.92L438.056 10.004L439.808 4.676H440.96L439.184 9.656C439.096 9.912 438.996 10.2 438.884 10.52C438.772 10.84 438.648 11.164 438.512 11.492C438.376 11.828 438.224 12.136 438.056 12.416C437.896 12.704 437.716 12.936 437.516 13.112C437.348 13.264 437.184 13.384 437.024 13.472C436.864 13.56 436.668 13.62 436.436 13.652C436.212 13.692 435.908 13.712 435.524 13.712ZM445.14 11V4.676H447.588C447.868 4.676 448.144 4.696 448.416 4.736C448.696 4.768 448.948 4.84 449.172 4.952C449.404 5.056 449.588 5.212 449.724 5.42C449.868 5.628 449.94 5.904 449.94 6.248C449.94 6.456 449.908 6.648 449.844 6.824C449.78 6.992 449.684 7.14 449.556 7.268C449.436 7.396 449.28 7.508 449.088 7.604C449.52 7.7 449.832 7.888 450.024 8.168C450.216 8.448 450.312 8.768 450.312 9.128C450.312 9.448 450.252 9.728 450.132 9.968C450.02 10.2 449.86 10.392 449.652 10.544C449.452 10.696 449.216 10.812 448.944 10.892C448.68 10.964 448.396 11 448.092 11H445.14ZM446.184 10.112H447.852C448.1 10.112 448.332 10.088 448.548 10.04C448.764 9.992 448.94 9.904 449.076 9.776C449.212 9.64 449.28 9.448 449.28 9.2C449.28 8.944 449.22 8.752 449.1 8.624C448.988 8.488 448.84 8.396 448.656 8.348C448.48 8.292 448.288 8.26 448.08 8.252C447.872 8.244 447.676 8.24 447.492 8.24H446.184V10.112ZM446.184 7.376H447.06C447.22 7.376 447.404 7.368 447.612 7.352C447.828 7.336 448.036 7.3 448.236 7.244C448.444 7.18 448.612 7.084 448.74 6.956C448.876 6.828 448.944 6.652 448.944 6.428C448.944 6.132 448.86 5.928 448.692 5.816C448.532 5.696 448.34 5.628 448.116 5.612C447.892 5.588 447.684 5.576 447.492 5.576H446.184V7.376ZM459.245 11V9.308H454.637V8.528L458.789 2.516H460.289V8.36H461.285V9.308H460.289V11H459.245ZM455.897 8.36H459.245V3.464L455.897 8.36ZM465.765 13.28V4.676H466.737L466.785 5.648C467.001 5.304 467.293 5.044 467.661 4.868C468.037 4.692 468.441 4.604 468.873 4.604C469.513 4.604 470.037 4.748 470.445 5.036C470.853 5.316 471.153 5.7 471.345 6.188C471.545 6.676 471.645 7.228 471.645 7.844C471.645 8.46 471.545 9.012 471.345 9.5C471.145 9.988 470.837 10.372 470.421 10.652C470.005 10.932 469.473 11.072 468.825 11.072C468.505 11.072 468.217 11.04 467.961 10.976C467.705 10.904 467.481 10.804 467.289 10.676C467.097 10.548 466.929 10.404 466.785 10.244V13.28H465.765ZM468.741 10.172C469.205 10.172 469.573 10.068 469.845 9.86C470.117 9.644 470.313 9.36 470.433 9.008C470.561 8.656 470.625 8.268 470.625 7.844C470.625 7.412 470.561 7.02 470.433 6.668C470.313 6.316 470.113 6.036 469.833 5.828C469.553 5.62 469.181 5.516 468.717 5.516C468.301 5.516 467.945 5.624 467.649 5.84C467.361 6.048 467.141 6.332 466.989 6.692C466.837 7.044 466.761 7.432 466.761 7.856C466.761 8.296 466.833 8.692 466.977 9.044C467.121 9.396 467.341 9.672 467.637 9.872C467.933 10.072 468.301 10.172 468.741 10.172ZM475.468 11.072C474.996 11.072 474.584 10.992 474.232 10.832C473.888 10.664 473.604 10.436 473.38 10.148C473.156 9.86 472.988 9.52 472.876 9.128C472.772 8.736 472.72 8.312 472.72 7.856C472.72 7.248 472.816 6.7 473.008 6.212C473.208 5.716 473.524 5.324 473.956 5.036C474.388 4.748 474.952 4.604 475.648 4.604C476.016 4.604 476.368 4.672 476.704 4.808C477.048 4.944 477.34 5.156 477.58 5.444V4.676H478.6V11H477.58V10.148C477.356 10.444 477.06 10.672 476.692 10.832C476.324 10.992 475.916 11.072 475.468 11.072ZM475.636 10.172C476.052 10.172 476.404 10.064 476.692 9.848C476.98 9.632 477.2 9.344 477.352 8.984C477.512 8.624 477.592 8.232 477.592 7.808C477.592 7.368 477.516 6.976 477.364 6.632C477.22 6.288 477.004 6.016 476.716 5.816C476.428 5.616 476.064 5.516 475.624 5.516C475.168 5.516 474.8 5.62 474.52 5.828C474.248 6.036 474.048 6.316 473.92 6.668C473.8 7.02 473.74 7.412 473.74 7.844C473.74 8.292 473.804 8.692 473.932 9.044C474.06 9.396 474.264 9.672 474.544 9.872C474.824 10.072 475.188 10.172 475.636 10.172ZM482.494 11.072C482.19 11.072 481.886 11.044 481.582 10.988C481.278 10.932 480.994 10.84 480.73 10.712C480.474 10.576 480.266 10.396 480.106 10.172C479.946 9.94 479.858 9.652 479.842 9.308H480.838C480.878 9.524 480.994 9.696 481.186 9.824C481.378 9.952 481.594 10.044 481.834 10.1C482.082 10.148 482.302 10.172 482.494 10.172C482.718 10.172 482.946 10.148 483.178 10.1C483.418 10.052 483.618 9.956 483.778 9.812C483.946 9.668 484.03 9.456 484.03 9.176C484.03 8.904 483.962 8.704 483.826 8.576C483.698 8.448 483.526 8.364 483.31 8.324C483.102 8.284 482.874 8.264 482.626 8.264H481.498V7.364H482.422C482.574 7.364 482.73 7.352 482.89 7.328C483.05 7.296 483.198 7.248 483.334 7.184C483.47 7.112 483.578 7.012 483.658 6.884C483.746 6.756 483.79 6.592 483.79 6.392C483.79 6.168 483.726 5.992 483.598 5.864C483.47 5.736 483.306 5.648 483.106 5.6C482.906 5.544 482.702 5.516 482.494 5.516C482.302 5.516 482.098 5.536 481.882 5.576C481.674 5.616 481.494 5.696 481.342 5.816C481.19 5.928 481.098 6.096 481.066 6.32H480.058C480.074 5.888 480.206 5.548 480.454 5.3C480.702 5.052 481.01 4.876 481.378 4.772C481.746 4.66 482.114 4.604 482.482 4.604C482.762 4.604 483.038 4.632 483.31 4.688C483.582 4.744 483.83 4.84 484.054 4.976C484.278 5.104 484.454 5.276 484.582 5.492C484.718 5.708 484.786 5.976 484.786 6.296C484.786 6.584 484.718 6.84 484.582 7.064C484.446 7.288 484.238 7.468 483.958 7.604C484.366 7.732 484.65 7.932 484.81 8.204C484.97 8.476 485.05 8.8 485.05 9.176C485.05 9.512 484.978 9.8 484.834 10.04C484.69 10.272 484.494 10.468 484.246 10.628C484.006 10.78 483.734 10.892 483.43 10.964C483.126 11.036 482.814 11.072 482.494 11.072ZM488.875 11.072C488.403 11.072 487.991 10.992 487.639 10.832C487.295 10.664 487.011 10.436 486.787 10.148C486.563 9.86 486.395 9.52 486.283 9.128C486.179 8.736 486.127 8.312 486.127 7.856C486.127 7.248 486.223 6.7 486.415 6.212C486.615 5.716 486.931 5.324 487.363 5.036C487.795 4.748 488.359 4.604 489.055 4.604C489.423 4.604 489.775 4.672 490.111 4.808C490.455 4.944 490.747 5.156 490.987 5.444V4.676H492.007V11H490.987V10.148C490.763 10.444 490.467 10.672 490.099 10.832C489.731 10.992 489.323 11.072 488.875 11.072ZM489.043 10.172C489.459 10.172 489.811 10.064 490.099 9.848C490.387 9.632 490.607 9.344 490.759 8.984C490.919 8.624 490.999 8.232 490.999 7.808C490.999 7.368 490.923 6.976 490.771 6.632C490.627 6.288 490.411 6.016 490.123 5.816C489.835 5.616 489.471 5.516 489.031 5.516C488.575 5.516 488.207 5.62 487.927 5.828C487.655 6.036 487.455 6.316 487.326 6.668C487.206 7.02 487.146 7.412 487.146 7.844C487.146 8.292 487.211 8.692 487.339 9.044C487.467 9.396 487.671 9.672 487.951 9.872C488.231 10.072 488.595 10.172 489.043 10.172ZM335.804 26V19.676H337.172L339.224 22.844L341.24 19.676H342.584V26H341.576V20.804L339.344 24.38H339.056L336.812 20.804V26H335.804ZM346.931 26.072C346.259 26.072 345.703 25.936 345.263 25.664C344.823 25.384 344.495 25 344.279 24.512C344.063 24.024 343.955 23.468 343.955 22.844C343.955 22.212 344.067 21.656 344.291 21.176C344.523 20.688 344.859 20.304 345.299 20.024C345.739 19.744 346.279 19.604 346.919 19.604C347.391 19.604 347.803 19.696 348.155 19.88C348.515 20.056 348.811 20.296 349.043 20.6C349.283 20.904 349.455 21.244 349.559 21.62C349.671 21.996 349.719 22.384 349.703 22.784C349.695 22.856 349.691 22.928 349.691 23C349.691 23.072 349.687 23.144 349.679 23.216H344.987C345.019 23.584 345.111 23.916 345.263 24.212C345.415 24.508 345.631 24.744 345.911 24.92C346.191 25.088 346.539 25.172 346.955 25.172C347.163 25.172 347.371 25.148 347.579 25.1C347.795 25.044 347.987 24.952 348.155 24.824C348.331 24.696 348.455 24.524 348.527 24.308H349.571C349.475 24.716 349.295 25.052 349.031 25.316C348.767 25.572 348.451 25.764 348.083 25.892C347.715 26.012 347.331 26.072 346.931 26.072ZM345.011 22.328H348.671C348.663 21.968 348.583 21.652 348.431 21.38C348.279 21.108 348.071 20.896 347.807 20.744C347.551 20.592 347.243 20.516 346.883 20.516C346.491 20.516 346.159 20.6 345.887 20.768C345.623 20.936 345.419 21.156 345.275 21.428C345.131 21.7 345.043 22 345.011 22.328ZM351.074 26V19.676H352.094V22.448H355.262V19.676H356.282V26H355.262V23.348H352.094V26H351.074ZM357.894 26V19.676H358.938V22.088H360.33C360.706 22.088 361.042 22.12 361.338 22.184C361.642 22.24 361.902 22.34 362.118 22.484C362.334 22.628 362.498 22.824 362.61 23.072C362.73 23.312 362.79 23.62 362.79 23.996C362.79 24.34 362.73 24.64 362.61 24.896C362.49 25.144 362.322 25.352 362.106 25.52C361.89 25.68 361.63 25.8 361.326 25.88C361.03 25.96 360.702 26 360.342 26H357.894ZM358.938 25.112H359.538C359.818 25.112 360.086 25.104 360.342 25.088C360.606 25.072 360.846 25.032 361.062 24.968C361.278 24.904 361.446 24.8 361.566 24.656C361.694 24.504 361.758 24.296 361.758 24.032C361.758 23.776 361.706 23.58 361.602 23.444C361.506 23.3 361.378 23.196 361.218 23.132C361.058 23.06 360.882 23.016 360.69 23C360.506 22.984 360.322 22.976 360.138 22.976H358.938V25.112ZM364.117 26V19.676H365.137V25.112H367.513V19.676H368.533V25.112H370.933V19.676H371.953V26H364.117ZM376.298 26.072C375.626 26.072 375.07 25.936 374.63 25.664C374.19 25.384 373.862 25 373.646 24.512C373.43 24.024 373.322 23.468 373.322 22.844C373.322 22.212 373.434 21.656 373.658 21.176C373.89 20.688 374.226 20.304 374.666 20.024C375.106 19.744 375.646 19.604 376.286 19.604C376.758 19.604 377.17 19.696 377.522 19.88C377.882 20.056 378.178 20.296 378.41 20.6C378.65 20.904 378.822 21.244 378.926 21.62C379.038 21.996 379.086 22.384 379.07 22.784C379.062 22.856 379.058 22.928 379.058 23C379.058 23.072 379.054 23.144 379.046 23.216H374.354C374.386 23.584 374.478 23.916 374.63 24.212C374.782 24.508 374.998 24.744 375.278 24.92C375.558 25.088 375.906 25.172 376.322 25.172C376.53 25.172 376.738 25.148 376.946 25.1C377.162 25.044 377.354 24.952 377.522 24.824C377.698 24.696 377.822 24.524 377.894 24.308H378.938C378.842 24.716 378.662 25.052 378.398 25.316C378.134 25.572 377.818 25.764 377.45 25.892C377.082 26.012 376.698 26.072 376.298 26.072ZM374.378 22.328H378.038C378.03 21.968 377.95 21.652 377.798 21.38C377.646 21.108 377.438 20.896 377.174 20.744C376.918 20.592 376.61 20.516 376.25 20.516C375.858 20.516 375.526 20.6 375.254 20.768C374.99 20.936 374.786 21.156 374.642 21.428C374.498 21.7 374.41 22 374.378 22.328ZM383.675 26V19.676H386.123C386.403 19.676 386.679 19.696 386.951 19.736C387.231 19.768 387.483 19.84 387.707 19.952C387.939 20.056 388.123 20.212 388.259 20.42C388.403 20.628 388.475 20.904 388.475 21.248C388.475 21.456 388.443 21.648 388.379 21.824C388.315 21.992 388.219 22.14 388.091 22.268C387.971 22.396 387.815 22.508 387.623 22.604C388.055 22.7 388.367 22.888 388.559 23.168C388.751 23.448 388.847 23.768 388.847 24.128C388.847 24.448 388.787 24.728 388.667 24.968C388.555 25.2 388.395 25.392 388.187 25.544C387.987 25.696 387.751 25.812 387.479 25.892C387.215 25.964 386.931 26 386.627 26H383.675ZM384.719 25.112H386.387C386.635 25.112 386.867 25.088 387.083 25.04C387.299 24.992 387.475 24.904 387.611 24.776C387.747 24.64 387.815 24.448 387.815 24.2C387.815 23.944 387.755 23.752 387.635 23.624C387.523 23.488 387.375 23.396 387.191 23.348C387.015 23.292 386.823 23.26 386.615 23.252C386.407 23.244 386.211 23.24 386.027 23.24H384.719V25.112ZM384.719 22.376H385.595C385.755 22.376 385.939 22.368 386.147 22.352C386.363 22.336 386.571 22.3 386.771 22.244C386.979 22.18 387.147 22.084 387.275 21.956C387.411 21.828 387.479 21.652 387.479 21.428C387.479 21.132 387.395 20.928 387.227 20.816C387.067 20.696 386.875 20.628 386.651 20.612C386.427 20.588 386.219 20.576 386.027 20.576H384.719V22.376ZM390.238 28.28V19.676H391.21L391.258 20.648C391.474 20.304 391.766 20.044 392.134 19.868C392.51 19.692 392.914 19.604 393.346 19.604C393.986 19.604 394.51 19.748 394.918 20.036C395.326 20.316 395.626 20.7 395.818 21.188C396.018 21.676 396.118 22.228 396.118 22.844C396.118 23.46 396.018 24.012 395.818 24.5C395.618 24.988 395.31 25.372 394.894 25.652C394.478 25.932 393.946 26.072 393.298 26.072C392.978 26.072 392.69 26.04 392.434 25.976C392.178 25.904 391.954 25.804 391.762 25.676C391.57 25.548 391.402 25.404 391.258 25.244V28.28H390.238ZM393.214 25.172C393.678 25.172 394.046 25.068 394.318 24.86C394.59 24.644 394.786 24.36 394.906 24.008C395.034 23.656 395.098 23.268 395.098 22.844C395.098 22.412 395.034 22.02 394.906 21.668C394.786 21.316 394.586 21.036 394.306 20.828C394.026 20.62 393.654 20.516 393.19 20.516C392.774 20.516 392.418 20.624 392.122 20.84C391.834 21.048 391.614 21.332 391.462 21.692C391.31 22.044 391.234 22.432 391.234 22.856C391.234 23.296 391.306 23.692 391.45 24.044C391.594 24.396 391.814 24.672 392.11 24.872C392.406 25.072 392.774 25.172 393.214 25.172ZM400.169 26.072C399.497 26.072 398.941 25.936 398.501 25.664C398.061 25.384 397.733 25 397.517 24.512C397.301 24.024 397.193 23.468 397.193 22.844C397.193 22.212 397.305 21.656 397.529 21.176C397.761 20.688 398.097 20.304 398.537 20.024C398.977 19.744 399.517 19.604 400.157 19.604C400.629 19.604 401.041 19.696 401.393 19.88C401.753 20.056 402.049 20.296 402.281 20.6C402.521 20.904 402.693 21.244 402.797 21.62C402.909 21.996 402.957 22.384 402.941 22.784C402.933 22.856 402.929 22.928 402.929 23C402.929 23.072 402.925 23.144 402.917 23.216H398.225C398.257 23.584 398.349 23.916 398.501 24.212C398.653 24.508 398.869 24.744 399.149 24.92C399.429 25.088 399.777 25.172 400.193 25.172C400.401 25.172 400.609 25.148 400.817 25.1C401.033 25.044 401.225 24.952 401.393 24.824C401.569 24.696 401.693 24.524 401.765 24.308H402.809C402.713 24.716 402.533 25.052 402.269 25.316C402.005 25.572 401.689 25.764 401.321 25.892C400.953 26.012 400.569 26.072 400.169 26.072ZM398.249 22.328H401.909C401.901 21.968 401.821 21.652 401.669 21.38C401.517 21.108 401.309 20.896 401.045 20.744C400.789 20.592 400.481 20.516 400.121 20.516C399.729 20.516 399.397 20.6 399.125 20.768C398.861 20.936 398.657 21.156 398.513 21.428C398.369 21.7 398.281 22 398.249 22.328ZM404.312 26V19.676H405.68L407.732 22.844L409.748 19.676H411.092V26H410.084V20.804L407.852 24.38H407.564L405.32 20.804V26H404.312ZM415.438 26.072C414.766 26.072 414.21 25.936 413.77 25.664C413.33 25.384 413.002 25 412.786 24.512C412.57 24.024 412.462 23.468 412.462 22.844C412.462 22.212 412.574 21.656 412.798 21.176C413.03 20.688 413.366 20.304 413.806 20.024C414.246 19.744 414.786 19.604 415.426 19.604C415.898 19.604 416.31 19.696 416.662 19.88C417.022 20.056 417.318 20.296 417.55 20.6C417.79 20.904 417.962 21.244 418.066 21.62C418.178 21.996 418.226 22.384 418.21 22.784C418.202 22.856 418.198 22.928 418.198 23C418.198 23.072 418.194 23.144 418.186 23.216H413.494C413.526 23.584 413.618 23.916 413.77 24.212C413.922 24.508 414.138 24.744 414.418 24.92C414.698 25.088 415.046 25.172 415.462 25.172C415.67 25.172 415.878 25.148 416.086 25.1C416.302 25.044 416.494 24.952 416.662 24.824C416.838 24.696 416.962 24.524 417.034 24.308H418.078C417.982 24.716 417.802 25.052 417.538 25.316C417.274 25.572 416.958 25.764 416.59 25.892C416.222 26.012 415.838 26.072 415.438 26.072ZM413.518 22.328H417.178C417.17 21.968 417.09 21.652 416.938 21.38C416.786 21.108 416.578 20.896 416.314 20.744C416.058 20.592 415.75 20.516 415.39 20.516C414.998 20.516 414.666 20.6 414.394 20.768C414.13 20.936 413.926 21.156 413.782 21.428C413.638 21.7 413.55 22 413.518 22.328ZM419.581 26V19.676H420.601V22.448H423.769V19.676H424.789V26H423.769V23.348H420.601V26H419.581ZM426.402 26V19.676H427.422V24.524C427.478 24.412 427.554 24.292 427.65 24.164C427.746 24.028 427.822 23.924 427.878 23.852L430.938 19.676H431.946V26H430.926V21.152C430.862 21.272 430.79 21.384 430.71 21.488C430.638 21.592 430.57 21.688 430.506 21.776L427.398 26H426.402Z" fill="#E27E55"/>
<defs>
<filter id="filter0_bd_5313_28936" x="534.189" y="103.959" width="104.99" height="104.991" filterUnits="userSpaceOnUse" color-interpolation-filters="sRGB">
<feFlood flood-opacity="0" result="BackgroundImageFix"/>
<feGaussianBlur in="BackgroundImageFix" stdDeviation="20.3116"/>
<feComposite in2="SourceAlpha" operator="in" result="effect1_backgroundBlur_5313_28936"/>
<feColorMatrix in="SourceAlpha" type="matrix" values="0 0 0 0 0 0 0 0 0 0 0 0 0 0 0 0 0 0 127 0" result="hardAlpha"/>
<feOffset dy="2.03116"/>
<feGaussianBlur stdDeviation="3.39929"/>
<feComposite in2="hardAlpha" operator="out"/>
<feColorMatrix type="matrix" values="0 0 0 0 0.870588 0 0 0 0 0.490196 0 0 0 0 0.368627 0 0 0 0.4 0"/>
<feBlend mode="normal" in2="effect1_backgroundBlur_5313_28936" result="effect2_dropShadow_5313_28936"/>
<feBlend mode="normal" in="SourceGraphic" in2="effect2_dropShadow_5313_28936" result="shape"/>
</filter>
<linearGradient id="paint0_linear_5313_28936" x1="325.881" y1="38.2422" x2="328.025" y2="178.451" gradientUnits="userSpaceOnUse">
<stop stop-color="#DE7D5E"/>
<stop offset="1" stop-color="#DE7D5E" stop-opacity="0"/>
</linearGradient>
<linearGradient id="paint1_linear_5313_28936" x1="585.773" y1="156.048" x2="585.773" y2="44.5742" gradientUnits="userSpaceOnUse">
<stop stop-color="#DE7D5E"/>
<stop offset="1" stop-color="#FAFCFF"/>
</linearGradient>
</defs>
</svg>
