<svg width="1279" height="376" viewBox="0 0 1279 376" fill="none" xmlns="http://www.w3.org/2000/svg">
<path d="M28.8076 92.6358C20.009 100.281 3 103.672 3 103.672L3 376L1276 376V300.324C1276 300.324 1192.69 259.033 1135.95 262.86C1087.7 266.114 1047.49 197.871 1006.35 235.886C977.027 262.984 935.491 214.945 893.473 199.172C840.096 179.135 812.667 206.156 758.125 199.172C711.656 193.222 680.69 79.5564 636.601 104.857C609.123 120.626 582.946 62.6762 553.941 60.0624C490.79 54.3714 492.159 103.315 458.502 108.844C424.844 114.374 421.1 64.9652 328.808 42.6941C286.178 32.4072 245.619 95.7239 206.283 76.3491C180.779 63.7871 164.364 84.3289 138.21 76.3491C106.812 66.7688 92.2881 2.79255 62.8441 23.4172C43.5542 36.9292 47.3675 76.509 28.8076 92.6358Z" fill="url(#paint0_linear_5382_2198)" fill-opacity="0.2"/>
<path d="M3 106.322C3 106.322 18.5758 101.673 27.41 93.8966C46.0448 77.4923 42.2161 37.2317 61.5839 23.4873C91.1469 2.50778 105.729 67.5846 137.255 77.3297C163.514 85.4468 179.996 64.5516 205.603 77.3297C245.098 97.0378 271.17 43.4484 314.509 43.4484C403.234 43.4484 427.734 127.032 464.348 106.323C500.963 85.6148 491.259 54.974 554.665 60.7628C583.788 63.4216 610.07 122.368 637.659 106.328C681.926 80.5922 710.611 191.378 757.268 197.431C812.03 204.535 842.813 177.058 896.405 197.44C938.593 213.484 969.632 264.476 1008.69 233.024C1052.49 197.756 1089.62 265.336 1138.06 262.026C1195.04 258.133 1276 299.861 1276 299.861" stroke="#E27E55" stroke-opacity="0.4" stroke-width="4.18271" stroke-linecap="round"/>
<g filter="url(#filter0_bd_5382_2198)">
<circle cx="1145.76" cy="255.112" r="24.712" fill="#E27E55"/>
</g>
<line x1="1145.76" y1="20.6816" x2="1145.76" y2="254.443" stroke="url(#paint1_linear_5382_2198)" stroke-width="1.33578" stroke-dasharray="4.26 4.26"/>
<path d="M657.341 21.645V8.22308H652.489V6.53466H664.052V8.22308H659.2V21.645H657.341ZM664.934 25.7058V10.3817H666.665L666.751 12.1129C667.136 11.5002 667.656 11.0371 668.311 10.7237C668.981 10.4102 669.7 10.2535 670.47 10.2535C671.61 10.2535 672.543 10.5099 673.27 11.0229C673.996 11.5216 674.531 12.2055 674.873 13.0746C675.229 13.9438 675.407 14.9269 675.407 16.024C675.407 17.1212 675.229 18.1043 674.873 18.9735C674.516 19.8426 673.968 20.5265 673.227 21.0252C672.486 21.5239 671.538 21.7733 670.384 21.7733C669.814 21.7733 669.301 21.7163 668.845 21.6023C668.39 21.474 667.991 21.2959 667.649 21.068C667.307 20.84 667.007 20.5835 666.751 20.2986V25.7058H664.934ZM670.235 20.1703C671.061 20.1703 671.717 19.9851 672.201 19.6146C672.685 19.2299 673.034 18.7241 673.248 18.0972C673.476 17.4703 673.59 16.7792 673.59 16.024C673.59 15.2546 673.476 14.5565 673.248 13.9295C673.034 13.3026 672.678 12.8039 672.18 12.4335C671.681 12.063 671.018 11.8778 670.192 11.8778C669.451 11.8778 668.817 12.0701 668.29 12.4548C667.777 12.8253 667.385 13.3311 667.114 13.9723C666.844 14.5992 666.708 15.2903 666.708 16.0454C666.708 16.8291 666.836 17.5344 667.093 18.1613C667.349 18.7882 667.741 19.2798 668.268 19.636C668.796 19.9922 669.451 20.1703 670.235 20.1703ZM682.216 21.7733C681.376 21.7733 680.642 21.6308 680.015 21.3458C679.402 21.0466 678.896 20.6405 678.497 20.1276C678.099 19.6146 677.799 19.0091 677.6 18.3109C677.415 17.6127 677.322 16.8576 677.322 16.0454C677.322 14.9625 677.493 13.9865 677.835 13.1174C678.191 12.234 678.754 11.5358 679.523 11.0229C680.293 10.5099 681.297 10.2535 682.537 10.2535C683.192 10.2535 683.819 10.3746 684.418 10.6168C685.03 10.859 685.55 11.2366 685.978 11.7495V10.3817H687.795V21.645H685.978V20.1276C685.579 20.6548 685.052 21.0608 684.396 21.3458C683.741 21.6308 683.014 21.7733 682.216 21.7733ZM682.516 20.1703C683.256 20.1703 683.883 19.978 684.396 19.5933C684.909 19.2086 685.301 18.6956 685.572 18.0544C685.857 17.4133 685.999 16.7151 685.999 15.9599C685.999 15.1763 685.864 14.4781 685.593 13.8654C685.337 13.2527 684.952 12.7683 684.439 12.4121C683.926 12.0559 683.278 11.8778 682.494 11.8778C681.682 11.8778 681.027 12.063 680.528 12.4335C680.043 12.8039 679.687 13.3026 679.459 13.9295C679.246 14.5565 679.139 15.2546 679.139 16.024C679.139 16.822 679.253 17.5344 679.481 18.1613C679.709 18.7882 680.072 19.2798 680.571 19.636C681.069 19.9922 681.718 20.1703 682.516 20.1703ZM693.277 21.645V11.9846H689.408V10.3817H698.962V11.9846H695.094V21.645H693.277ZM700.583 21.645V10.3817H702.442V14.6776H704.922C705.591 14.6776 706.19 14.7346 706.717 14.8486C707.258 14.9483 707.721 15.1264 708.106 15.3829C708.491 15.6393 708.783 15.9884 708.982 16.4301C709.196 16.8576 709.303 17.4061 709.303 18.0758C709.303 18.6885 709.196 19.2228 708.982 19.6787C708.769 20.1204 708.469 20.4909 708.085 20.7901C707.7 21.0751 707.237 21.2888 706.696 21.4313C706.168 21.5738 705.584 21.645 704.943 21.645H700.583ZM702.442 20.0635H703.511C704.01 20.0635 704.487 20.0492 704.943 20.0207C705.413 19.9922 705.841 19.921 706.225 19.807C706.61 19.693 706.909 19.5078 707.123 19.2513C707.351 18.9806 707.465 18.6101 707.465 18.1399C707.465 17.684 707.372 17.3349 707.187 17.0927C707.016 16.8362 706.788 16.651 706.503 16.537C706.218 16.4088 705.905 16.3304 705.563 16.3019C705.235 16.2734 704.907 16.2591 704.58 16.2591H702.442V20.0635ZM713.648 21.645V11.9846H709.779V10.3817H719.333V11.9846H715.464V21.645H713.648ZM725.827 21.7733C724.63 21.7733 723.639 21.531 722.856 21.0466C722.072 20.5479 721.488 19.864 721.103 18.9948C720.719 18.1257 720.526 17.1354 720.526 16.024C720.526 14.8984 720.726 13.9082 721.125 13.0533C721.538 12.1841 722.136 11.5002 722.92 11.0015C723.704 10.5028 724.665 10.2535 725.805 10.2535C726.646 10.2535 727.38 10.4173 728.007 10.745C728.648 11.0585 729.175 11.486 729.588 12.0274C730.016 12.5688 730.322 13.1744 730.507 13.8441C730.707 14.5137 730.792 15.2048 730.764 15.9172C730.749 16.0454 730.742 16.1737 730.742 16.3019C730.742 16.4301 730.735 16.5584 730.721 16.6866H722.364C722.421 17.342 722.585 17.9333 722.856 18.4605C723.127 18.9877 723.511 19.408 724.01 19.7215C724.509 20.0207 725.128 20.1703 725.869 20.1703C726.24 20.1703 726.61 20.1276 726.981 20.0421C727.365 19.9423 727.707 19.7785 728.007 19.5505C728.32 19.3225 728.541 19.0162 728.669 18.6315H730.529C730.358 19.3582 730.037 19.9566 729.567 20.4268C729.097 20.8827 728.534 21.2247 727.878 21.4527C727.223 21.6664 726.539 21.7733 725.827 21.7733ZM722.407 15.105H728.926C728.911 14.4639 728.769 13.901 728.498 13.4166C728.227 12.9322 727.857 12.5546 727.387 12.2839C726.931 12.0131 726.382 11.8778 725.741 11.8778C725.043 11.8778 724.452 12.0274 723.967 12.3266C723.497 12.6258 723.134 13.0176 722.877 13.5021C722.621 13.9865 722.464 14.5208 722.407 15.105ZM738.966 21.645V10.3817H740.782V15.3188H746.425V10.3817H748.242V21.645H746.425V16.9217H740.782V21.645H738.966ZM755.58 21.7733C754.739 21.7733 754.006 21.6308 753.379 21.3458C752.766 21.0466 752.26 20.6405 751.861 20.1276C751.462 19.6146 751.163 19.0091 750.963 18.3109C750.778 17.6127 750.686 16.8576 750.686 16.0454C750.686 14.9625 750.857 13.9865 751.199 13.1174C751.555 12.234 752.118 11.5358 752.887 11.0229C753.656 10.5099 754.661 10.2535 755.901 10.2535C756.556 10.2535 757.183 10.3746 757.781 10.6168C758.394 10.859 758.914 11.2366 759.342 11.7495V10.3817H761.158V21.645H759.342V20.1276C758.943 20.6548 758.415 21.0608 757.76 21.3458C757.105 21.6308 756.378 21.7733 755.58 21.7733ZM755.879 20.1703C756.62 20.1703 757.247 19.978 757.76 19.5933C758.273 19.2086 758.665 18.6956 758.935 18.0544C759.22 17.4133 759.363 16.7151 759.363 15.9599C759.363 15.1763 759.228 14.4781 758.957 13.8654C758.7 13.2527 758.316 12.7683 757.803 12.4121C757.29 12.0559 756.641 11.8778 755.858 11.8778C755.046 11.8778 754.39 12.063 753.892 12.4335C753.407 12.8039 753.051 13.3026 752.823 13.9295C752.609 14.5565 752.502 15.2546 752.502 16.024C752.502 16.822 752.616 17.5344 752.844 18.1613C753.072 18.7882 753.436 19.2798 753.934 19.636C754.433 19.9922 755.081 20.1703 755.879 20.1703ZM769.772 25.7058V10.3817H771.503L771.589 12.1129C771.974 11.5002 772.494 11.0371 773.149 10.7237C773.819 10.4102 774.538 10.2535 775.308 10.2535C776.448 10.2535 777.381 10.5099 778.108 11.0229C778.834 11.5216 779.369 12.2055 779.711 13.0746C780.067 13.9438 780.245 14.9269 780.245 16.024C780.245 17.1212 780.067 18.1043 779.711 18.9735C779.354 19.8426 778.806 20.5265 778.065 21.0252C777.324 21.5239 776.376 21.7733 775.222 21.7733C774.652 21.7733 774.139 21.7163 773.683 21.6023C773.228 21.474 772.829 21.2959 772.487 21.068C772.145 20.84 771.845 20.5835 771.589 20.2986V25.7058H769.772ZM775.073 20.1703C775.899 20.1703 776.555 19.9851 777.039 19.6146C777.523 19.2299 777.872 18.7241 778.086 18.0972C778.314 17.4703 778.428 16.7792 778.428 16.024C778.428 15.2546 778.314 14.5565 778.086 13.9295C777.872 13.3026 777.516 12.8039 777.018 12.4335C776.519 12.063 775.856 11.8778 775.03 11.8778C774.289 11.8778 773.655 12.0701 773.128 12.4548C772.615 12.8253 772.223 13.3311 771.952 13.9723C771.682 14.5992 771.546 15.2903 771.546 16.0454C771.546 16.8291 771.674 17.5344 771.931 18.1613C772.187 18.7882 772.579 19.2798 773.106 19.636C773.634 19.9922 774.289 20.1703 775.073 20.1703ZM787.054 21.7733C786.214 21.7733 785.48 21.6308 784.853 21.3458C784.24 21.0466 783.734 20.6405 783.335 20.1276C782.937 19.6146 782.637 19.0091 782.438 18.3109C782.253 17.6127 782.16 16.8576 782.16 16.0454C782.16 14.9625 782.331 13.9865 782.673 13.1174C783.029 12.234 783.592 11.5358 784.361 11.0229C785.131 10.5099 786.135 10.2535 787.375 10.2535C788.03 10.2535 788.657 10.3746 789.256 10.6168C789.868 10.859 790.388 11.2366 790.816 11.7495V10.3817H792.633V21.645H790.816V20.1276C790.417 20.6548 789.89 21.0608 789.234 21.3458C788.579 21.6308 787.852 21.7733 787.054 21.7733ZM787.354 20.1703C788.094 20.1703 788.721 19.978 789.234 19.5933C789.747 19.2086 790.139 18.6956 790.41 18.0544C790.695 17.4133 790.837 16.7151 790.837 15.9599C790.837 15.1763 790.702 14.4781 790.431 13.8654C790.175 13.2527 789.79 12.7683 789.277 12.4121C788.764 12.0559 788.116 11.8778 787.332 11.8778C786.52 11.8778 785.865 12.063 785.366 12.4335C784.881 12.8039 784.525 13.3026 784.297 13.9295C784.084 14.5565 783.977 15.2546 783.977 16.024C783.977 16.822 784.091 17.5344 784.319 18.1613C784.547 18.7882 784.91 19.2798 785.409 19.636C785.907 19.9922 786.556 20.1703 787.354 20.1703ZM800.231 21.7733C799.518 21.7733 798.884 21.6735 798.329 21.474C797.773 21.2603 797.296 20.9682 796.897 20.5978C796.498 20.2131 796.17 19.7642 795.914 19.2513C795.657 18.7241 795.465 18.1542 795.336 17.5415C795.208 16.9288 795.144 16.2805 795.144 15.5966C795.144 14.4995 795.166 13.4807 795.208 12.5403C795.265 11.5857 795.422 10.7379 795.678 9.997C795.935 9.24184 796.369 8.61491 796.982 8.11622C797.595 7.61753 798.457 7.26844 799.568 7.06897C800.138 6.96923 800.701 6.88374 801.257 6.8125C801.812 6.74126 802.375 6.67001 802.945 6.59877C803.13 6.57028 803.323 6.54178 803.522 6.51328C803.722 6.48479 803.928 6.44916 804.142 6.40642C804.37 6.36367 804.584 6.32805 804.783 6.29956V7.96661C804.626 8.02361 804.455 8.07348 804.27 8.11622C804.099 8.14472 803.914 8.17321 803.715 8.20171C803.529 8.23021 803.337 8.25158 803.137 8.26583C802.952 8.28008 802.767 8.30145 802.582 8.32995C802.397 8.34419 802.218 8.36557 802.047 8.39406C801.549 8.45106 801.022 8.50805 800.466 8.56504C799.91 8.60779 799.383 8.72178 798.884 8.907C798.4 9.07798 797.987 9.41282 797.645 9.91151C797.474 10.168 797.324 10.4743 797.196 10.8305C797.082 11.1867 796.996 11.5501 796.939 11.9205C796.897 12.2767 796.868 12.6187 796.854 12.9464C797.139 12.5475 797.488 12.2269 797.901 11.9846C798.314 11.7282 798.756 11.5429 799.226 11.429C799.696 11.3007 800.145 11.2366 800.573 11.2366C801.599 11.2366 802.468 11.4503 803.18 11.8778C803.893 12.291 804.434 12.8823 804.805 13.6517C805.175 14.4211 805.36 15.3188 805.36 16.3446C805.36 17.3705 805.161 18.2967 804.762 19.1231C804.363 19.9352 803.779 20.5835 803.009 21.068C802.254 21.5382 801.328 21.7733 800.231 21.7733ZM800.274 20.1703C800.986 20.1703 801.584 19.9993 802.069 19.6574C802.553 19.3154 802.917 18.8595 803.159 18.2895C803.415 17.7196 803.544 17.0927 803.544 16.4088C803.544 15.7391 803.415 15.1407 803.159 14.6135C802.917 14.072 802.553 13.6446 802.069 13.3311C801.599 13.0176 801.014 12.8609 800.316 12.8609C799.632 12.8609 799.041 13.0248 798.542 13.3525C798.058 13.6802 797.68 14.1219 797.41 14.6776C797.153 15.219 797.025 15.8103 797.025 16.4515C797.025 17.1069 797.146 17.7196 797.388 18.2895C797.63 18.8595 797.987 19.3154 798.457 19.6574C798.941 19.9993 799.547 20.1703 800.274 20.1703ZM812.716 21.7733C811.533 21.7733 810.543 21.531 809.745 21.0466C808.947 20.5479 808.349 19.864 807.95 18.9948C807.565 18.1257 807.373 17.1354 807.373 16.024C807.373 14.8984 807.565 13.9082 807.95 13.0533C808.349 12.1841 808.947 11.5002 809.745 11.0015C810.543 10.5028 811.548 10.2535 812.759 10.2535C813.941 10.2535 814.925 10.5028 815.708 11.0015C816.506 11.5002 817.097 12.1841 817.482 13.0533C817.881 13.9082 818.081 14.8984 818.081 16.024C818.081 17.1354 817.881 18.1257 817.482 18.9948C817.083 19.864 816.485 20.5479 815.687 21.0466C814.903 21.531 813.913 21.7733 812.716 21.7733ZM812.716 20.1703C813.542 20.1703 814.212 19.9851 814.725 19.6146C815.252 19.2442 815.637 18.7455 815.879 18.1186C816.136 17.4916 816.264 16.7935 816.264 16.024C816.264 15.2546 816.136 14.5565 815.879 13.9295C815.637 13.3026 815.252 12.8039 814.725 12.4335C814.212 12.063 813.542 11.8778 812.716 11.8778C811.904 11.8778 811.234 12.063 810.707 12.4335C810.194 12.8039 809.809 13.3026 809.553 13.9295C809.311 14.5565 809.19 15.2546 809.19 16.024C809.19 16.7935 809.311 17.4916 809.553 18.1186C809.809 18.7455 810.194 19.2442 810.707 19.6146C811.234 19.9851 811.904 20.1703 812.716 20.1703ZM823.14 21.645V11.9846H819.272V10.3817H828.825V11.9846H824.957V21.645H823.14ZM831.227 26.4752V24.744C831.925 24.744 832.481 24.6443 832.894 24.4448C833.307 24.2596 833.649 23.9604 833.92 23.5472C834.205 23.1482 834.475 22.6353 834.732 22.0084L829.795 10.3817H831.932L835.736 19.8711L838.857 10.3817H840.909L837.745 19.2513C837.589 19.7072 837.411 20.2202 837.211 20.7901C837.012 21.3601 836.791 21.9371 836.549 22.5213C836.306 23.1197 836.036 23.6683 835.736 24.167C835.451 24.6799 835.131 25.0931 834.775 25.4066C834.475 25.6773 834.183 25.891 833.898 26.0478C833.613 26.2045 833.264 26.3114 832.851 26.3683C832.452 26.4396 831.911 26.4752 831.227 26.4752ZM848.354 21.645V10.3817H852.714C853.213 10.3817 853.704 10.4173 854.189 10.4886C854.687 10.5456 855.136 10.6738 855.535 10.8733C855.948 11.0585 856.276 11.3363 856.518 11.7068C856.775 12.0773 856.903 12.5688 856.903 13.1815C856.903 13.552 856.846 13.8939 856.732 14.2074C856.618 14.5066 856.447 14.7702 856.219 14.9982C856.005 15.2261 855.727 15.4256 855.385 15.5966C856.155 15.7676 856.71 16.1024 857.052 16.6011C857.394 17.0998 857.565 17.6697 857.565 18.3109C857.565 18.8808 857.459 19.3795 857.245 19.807C857.045 20.2202 856.76 20.5621 856.39 20.8329C856.034 21.1036 855.613 21.3102 855.129 21.4527C854.659 21.5809 854.153 21.645 853.611 21.645H848.354ZM850.213 20.0635H853.184C853.626 20.0635 854.039 20.0207 854.424 19.9352C854.808 19.8497 855.122 19.693 855.364 19.465C855.606 19.2228 855.727 18.8808 855.727 18.4391C855.727 17.9832 855.621 17.6412 855.407 17.4133C855.207 17.171 854.944 17.0072 854.616 16.9217C854.303 16.822 853.961 16.765 853.59 16.7507C853.22 16.7365 852.871 16.7293 852.543 16.7293H850.213V20.0635ZM850.213 15.1905H851.773C852.058 15.1905 852.386 15.1763 852.757 15.1478C853.141 15.1193 853.512 15.0552 853.868 14.9554C854.238 14.8414 854.538 14.6705 854.766 14.4425C855.008 14.2145 855.129 13.901 855.129 13.5021C855.129 12.9749 854.979 12.6116 854.68 12.4121C854.395 12.1984 854.053 12.0773 853.654 12.0488C853.255 12.006 852.885 11.9846 852.543 11.9846H850.213V15.1905ZM873.475 21.645V18.6315H865.268V17.2423L872.663 6.53466H875.335V16.9431H877.109V18.6315H875.335V21.645H873.475ZM867.512 16.9431H873.475V8.22308L867.512 16.9431ZM885.088 25.7058V10.3817H886.819L886.905 12.1129C887.289 11.5002 887.809 11.0371 888.465 10.7237C889.134 10.4102 889.854 10.2535 890.623 10.2535C891.763 10.2535 892.696 10.5099 893.423 11.0229C894.15 11.5216 894.684 12.2055 895.026 13.0746C895.382 13.9438 895.56 14.9269 895.56 16.024C895.56 17.1212 895.382 18.1043 895.026 18.9735C894.67 19.8426 894.121 20.5265 893.38 21.0252C892.639 21.5239 891.692 21.7733 890.538 21.7733C889.968 21.7733 889.455 21.7163 888.999 21.6023C888.543 21.474 888.144 21.2959 887.802 21.068C887.46 20.84 887.161 20.5835 886.905 20.2986V25.7058H885.088ZM890.388 20.1703C891.215 20.1703 891.87 19.9851 892.354 19.6146C892.839 19.2299 893.188 18.7241 893.402 18.0972C893.63 17.4703 893.744 16.7792 893.744 16.024C893.744 15.2546 893.63 14.5565 893.402 13.9295C893.188 13.3026 892.832 12.8039 892.333 12.4335C891.834 12.063 891.172 11.8778 890.345 11.8778C889.605 11.8778 888.971 12.0701 888.443 12.4548C887.93 12.8253 887.539 13.3311 887.268 13.9723C886.997 14.5992 886.862 15.2903 886.862 16.0454C886.862 16.8291 886.99 17.5344 887.246 18.1613C887.503 18.7882 887.895 19.2798 888.422 19.636C888.949 19.9922 889.605 20.1703 890.388 20.1703ZM902.37 21.7733C901.529 21.7733 900.795 21.6308 900.168 21.3458C899.556 21.0466 899.05 20.6405 898.651 20.1276C898.252 19.6146 897.953 19.0091 897.753 18.3109C897.568 17.6127 897.476 16.8576 897.476 16.0454C897.476 14.9625 897.647 13.9865 897.988 13.1174C898.345 12.234 898.908 11.5358 899.677 11.0229C900.446 10.5099 901.451 10.2535 902.69 10.2535C903.346 10.2535 903.973 10.3746 904.571 10.6168C905.184 10.859 905.704 11.2366 906.131 11.7495V10.3817H907.948V21.645H906.131V20.1276C905.732 20.6548 905.205 21.0608 904.55 21.3458C903.894 21.6308 903.168 21.7733 902.37 21.7733ZM902.669 20.1703C903.41 20.1703 904.037 19.978 904.55 19.5933C905.063 19.2086 905.455 18.6956 905.725 18.0544C906.01 17.4133 906.153 16.7151 906.153 15.9599C906.153 15.1763 906.017 14.4781 905.747 13.8654C905.49 13.2527 905.106 12.7683 904.593 12.4121C904.08 12.0559 903.431 11.8778 902.648 11.8778C901.836 11.8778 901.18 12.063 900.681 12.4335C900.197 12.8039 899.841 13.3026 899.613 13.9295C899.399 14.5565 899.292 15.2546 899.292 16.024C899.292 16.822 899.406 17.5344 899.634 18.1613C899.862 18.7882 900.225 19.2798 900.724 19.636C901.223 19.9922 901.871 20.1703 902.669 20.1703ZM914.884 21.7733C914.342 21.7733 913.801 21.7234 913.259 21.6236C912.718 21.5239 912.212 21.3601 911.742 21.1321C911.286 20.8899 910.916 20.5693 910.631 20.1703C910.346 19.7571 910.189 19.2442 910.16 18.6315H911.934C912.006 19.0162 912.212 19.3225 912.554 19.5505C912.896 19.7785 913.281 19.9423 913.708 20.0421C914.15 20.1276 914.542 20.1703 914.884 20.1703C915.283 20.1703 915.689 20.1276 916.102 20.0421C916.529 19.9566 916.886 19.7856 917.171 19.5291C917.47 19.2727 917.619 18.8951 917.619 18.3964C917.619 17.912 917.498 17.5557 917.256 17.3278C917.028 17.0998 916.722 16.9502 916.337 16.8789C915.967 16.8077 915.561 16.7721 915.119 16.7721H913.11V15.1691H914.756C915.026 15.1691 915.304 15.1478 915.589 15.105C915.874 15.048 916.138 14.9625 916.38 14.8486C916.622 14.7203 916.814 14.5422 916.957 14.3142C917.114 14.0863 917.192 13.7942 917.192 13.438C917.192 13.039 917.078 12.7256 916.85 12.4976C916.622 12.2696 916.33 12.1129 915.974 12.0274C915.618 11.9277 915.254 11.8778 914.884 11.8778C914.542 11.8778 914.179 11.9134 913.794 11.9846C913.423 12.0559 913.103 12.1984 912.832 12.4121C912.561 12.6116 912.397 12.9108 912.34 13.3097H910.545C910.574 12.5403 910.809 11.9348 911.25 11.4931C911.692 11.0514 912.241 10.7379 912.896 10.5527C913.552 10.3532 914.207 10.2535 914.862 10.2535C915.361 10.2535 915.853 10.3033 916.337 10.4031C916.822 10.5028 917.263 10.6738 917.662 10.916C918.061 11.144 918.375 11.4503 918.603 11.835C918.845 12.2197 918.966 12.6971 918.966 13.267C918.966 13.7799 918.845 14.2359 918.603 14.6348C918.36 15.0338 917.99 15.3544 917.491 15.5966C918.218 15.8246 918.724 16.1808 919.009 16.6652C919.294 17.1497 919.436 17.7267 919.436 18.3964C919.436 18.9948 919.308 19.5078 919.051 19.9352C918.795 20.3484 918.446 20.6975 918.004 20.9825C917.577 21.2532 917.092 21.4527 916.551 21.5809C916.009 21.7091 915.454 21.7733 914.884 21.7733ZM926.247 21.7733C925.406 21.7733 924.673 21.6308 924.046 21.3458C923.433 21.0466 922.927 20.6405 922.528 20.1276C922.129 19.6146 921.83 19.0091 921.63 18.3109C921.445 17.6127 921.353 16.8576 921.353 16.0454C921.353 14.9625 921.524 13.9865 921.866 13.1174C922.222 12.234 922.785 11.5358 923.554 11.0229C924.323 10.5099 925.328 10.2535 926.568 10.2535C927.223 10.2535 927.85 10.3746 928.448 10.6168C929.061 10.859 929.581 11.2366 930.009 11.7495V10.3817H931.825V21.645H930.009V20.1276C929.61 20.6548 929.082 21.0608 928.427 21.3458C927.772 21.6308 927.045 21.7733 926.247 21.7733ZM926.546 20.1703C927.287 20.1703 927.914 19.978 928.427 19.5933C928.94 19.2086 929.332 18.6956 929.602 18.0544C929.887 17.4133 930.03 16.7151 930.03 15.9599C930.03 15.1763 929.895 14.4781 929.624 13.8654C929.367 13.2527 928.983 12.7683 928.47 12.4121C927.957 12.0559 927.308 11.8778 926.525 11.8778C925.713 11.8778 925.057 12.063 924.559 12.4335C924.074 12.8039 923.718 13.3026 923.49 13.9295C923.276 14.5565 923.169 15.2546 923.169 16.024C923.169 16.822 923.283 17.5344 923.511 18.1613C923.739 18.7882 924.103 19.2798 924.601 19.636C925.1 19.9922 925.748 20.1703 926.546 20.1703ZM653.622 48.645V37.3817H656.058L659.713 43.024L663.304 37.3817H665.697V48.645H663.902V39.3907L659.927 45.7597H659.414L655.417 39.3907V48.645H653.622ZM673.439 48.7733C672.242 48.7733 671.252 48.531 670.468 48.0466C669.684 47.5479 669.1 46.864 668.716 45.9948C668.331 45.1257 668.139 44.1354 668.139 43.024C668.139 41.8984 668.338 40.9082 668.737 40.0533C669.15 39.1841 669.749 38.5002 670.532 38.0015C671.316 37.5028 672.278 37.2535 673.418 37.2535C674.258 37.2535 674.992 37.4173 675.619 37.745C676.26 38.0585 676.787 38.486 677.2 39.0274C677.628 39.5688 677.934 40.1744 678.119 40.8441C678.319 41.5137 678.404 42.2048 678.376 42.9172C678.362 43.0454 678.355 43.1737 678.355 43.3019C678.355 43.4301 678.347 43.5584 678.333 43.6866H669.977C670.034 44.342 670.197 44.9333 670.468 45.4605C670.739 45.9877 671.124 46.408 671.622 46.7215C672.121 47.0207 672.741 47.1703 673.482 47.1703C673.852 47.1703 674.223 47.1276 674.593 47.0421C674.978 46.9423 675.32 46.7785 675.619 46.5505C675.932 46.3225 676.153 46.0162 676.281 45.6315H678.141C677.97 46.3582 677.649 46.9566 677.179 47.4268C676.709 47.8827 676.146 48.2247 675.491 48.4527C674.835 48.6664 674.151 48.7733 673.439 48.7733ZM670.019 42.105H676.538C676.524 41.4639 676.381 40.901 676.11 40.4166C675.84 39.9322 675.469 39.5546 674.999 39.2839C674.543 39.0131 673.995 38.8778 673.353 38.8778C672.655 38.8778 672.064 39.0274 671.579 39.3266C671.109 39.6258 670.746 40.0176 670.489 40.5021C670.233 40.9865 670.076 41.5208 670.019 42.105ZM680.818 48.645V37.3817H682.634V42.3188H688.277V37.3817H690.093V48.645H688.277V43.9217H682.634V48.645H680.818ZM692.965 48.645V37.3817H694.824V41.6776H697.303C697.973 41.6776 698.572 41.7346 699.099 41.8486C699.64 41.9483 700.103 42.1264 700.488 42.3829C700.873 42.6393 701.165 42.9884 701.364 43.4301C701.578 43.8576 701.685 44.4061 701.685 45.0758C701.685 45.6885 701.578 46.2228 701.364 46.6787C701.151 47.1204 700.851 47.4909 700.467 47.7901C700.082 48.0751 699.619 48.2888 699.077 48.4313C698.55 48.5738 697.966 48.645 697.325 48.645H692.965ZM694.824 47.0635H695.893C696.392 47.0635 696.869 47.0492 697.325 47.0207C697.795 46.9922 698.222 46.921 698.607 46.807C698.992 46.693 699.291 46.5078 699.505 46.2513C699.733 45.9806 699.847 45.6101 699.847 45.1399C699.847 44.684 699.754 44.3349 699.569 44.0927C699.398 43.8362 699.17 43.651 698.885 43.537C698.6 43.4088 698.287 43.3304 697.945 43.3019C697.617 43.2734 697.289 43.2591 696.962 43.2591H694.824V47.0635ZM704.048 48.645V37.3817H705.864V47.0635H710.096V37.3817H711.913V47.0635H716.187V37.3817H718.004V48.645H704.048ZM725.743 48.7733C724.546 48.7733 723.556 48.531 722.772 48.0466C721.989 47.5479 721.404 46.864 721.02 45.9948C720.635 45.1257 720.443 44.1354 720.443 43.024C720.443 41.8984 720.642 40.9082 721.041 40.0533C721.454 39.1841 722.053 38.5002 722.836 38.0015C723.62 37.5028 724.582 37.2535 725.722 37.2535C726.562 37.2535 727.296 37.4173 727.923 37.745C728.564 38.0585 729.091 38.486 729.505 39.0274C729.932 39.5688 730.238 40.1744 730.424 40.8441C730.623 41.5137 730.709 42.2048 730.68 42.9172C730.666 43.0454 730.659 43.1737 730.659 43.3019C730.659 43.4301 730.652 43.5584 730.637 43.6866H722.281C722.338 44.342 722.502 44.9333 722.772 45.4605C723.043 45.9877 723.428 46.408 723.926 46.7215C724.425 47.0207 725.045 47.1703 725.786 47.1703C726.156 47.1703 726.527 47.1276 726.897 47.0421C727.282 46.9423 727.624 46.7785 727.923 46.5505C728.237 46.3225 728.457 46.0162 728.586 45.6315H730.445C730.274 46.3582 729.953 46.9566 729.483 47.4268C729.013 47.8827 728.45 48.2247 727.795 48.4527C727.139 48.6664 726.456 48.7733 725.743 48.7733ZM722.323 42.105H728.842C728.828 41.4639 728.685 40.901 728.415 40.4166C728.144 39.9322 727.773 39.5546 727.303 39.2839C726.847 39.0131 726.299 38.8778 725.658 38.8778C724.959 38.8778 724.368 39.0274 723.884 39.3266C723.413 39.6258 723.05 40.0176 722.794 40.5021C722.537 40.9865 722.38 41.5208 722.323 42.105ZM738.882 48.645V37.3817H743.242C743.741 37.3817 744.233 37.4173 744.717 37.4886C745.216 37.5456 745.665 37.6738 746.064 37.8733C746.477 38.0585 746.804 38.3363 747.047 38.7068C747.303 39.0773 747.431 39.5688 747.431 40.1815C747.431 40.552 747.374 40.8939 747.26 41.2074C747.146 41.5066 746.975 41.7702 746.747 41.9982C746.534 42.2261 746.256 42.4256 745.914 42.5966C746.683 42.7676 747.239 43.1024 747.581 43.6011C747.923 44.0998 748.094 44.6697 748.094 45.3109C748.094 45.8808 747.987 46.3795 747.773 46.807C747.574 47.2202 747.289 47.5621 746.918 47.8329C746.562 48.1036 746.142 48.3102 745.657 48.4527C745.187 48.5809 744.681 48.645 744.14 48.645H738.882ZM740.742 47.0635H743.713C744.154 47.0635 744.567 47.0207 744.952 46.9352C745.337 46.8497 745.65 46.693 745.893 46.465C746.135 46.2228 746.256 45.8808 746.256 45.4391C746.256 44.9832 746.149 44.6412 745.935 44.4133C745.736 44.171 745.472 44.0072 745.144 43.9217C744.831 43.822 744.489 43.765 744.119 43.7507C743.748 43.7365 743.399 43.7293 743.071 43.7293H740.742V47.0635ZM740.742 42.1905H742.302C742.587 42.1905 742.915 42.1763 743.285 42.1478C743.67 42.1193 744.04 42.0552 744.396 41.9554C744.767 41.8414 745.066 41.6705 745.294 41.4425C745.536 41.2145 745.657 40.901 745.657 40.5021C745.657 39.9749 745.508 39.6116 745.209 39.4121C744.924 39.1984 744.582 39.0773 744.183 39.0488C743.784 39.006 743.413 38.9846 743.071 38.9846H740.742V42.1905ZM750.57 52.7058V37.3817H752.302L752.387 39.1129C752.772 38.5002 753.292 38.0371 753.947 37.7237C754.617 37.4102 755.337 37.2535 756.106 37.2535C757.246 37.2535 758.179 37.5099 758.906 38.0229C759.632 38.5216 760.167 39.2055 760.509 40.0746C760.865 40.9438 761.043 41.9269 761.043 43.024C761.043 44.1212 760.865 45.1043 760.509 45.9735C760.152 46.8426 759.604 47.5265 758.863 48.0252C758.122 48.5239 757.175 48.7733 756.02 48.7733C755.45 48.7733 754.938 48.7163 754.482 48.6023C754.026 48.474 753.627 48.2959 753.285 48.068C752.943 47.84 752.644 47.5835 752.387 47.2986V52.7058H750.57ZM755.871 47.1703C756.697 47.1703 757.353 46.9851 757.837 46.6146C758.322 46.2299 758.671 45.7241 758.884 45.0972C759.112 44.4703 759.226 43.7792 759.226 43.024C759.226 42.2546 759.112 41.5565 758.884 40.9295C758.671 40.3026 758.314 39.8039 757.816 39.4335C757.317 39.063 756.654 38.8778 755.828 38.8778C755.087 38.8778 754.453 39.0701 753.926 39.4548C753.413 39.8253 753.021 40.3311 752.75 40.9723C752.48 41.5992 752.344 42.2903 752.344 43.0454C752.344 43.8291 752.473 44.5344 752.729 45.1613C752.986 45.7882 753.377 46.2798 753.905 46.636C754.432 46.9922 755.087 47.1703 755.871 47.1703ZM768.259 48.7733C767.062 48.7733 766.071 48.531 765.288 48.0466C764.504 47.5479 763.92 46.864 763.535 45.9948C763.15 45.1257 762.958 44.1354 762.958 43.024C762.958 41.8984 763.158 40.9082 763.557 40.0533C763.97 39.1841 764.568 38.5002 765.352 38.0015C766.136 37.5028 767.097 37.2535 768.237 37.2535C769.078 37.2535 769.812 37.4173 770.439 37.745C771.08 38.0585 771.607 38.486 772.02 39.0274C772.448 39.5688 772.754 40.1744 772.939 40.8441C773.139 41.5137 773.224 42.2048 773.196 42.9172C773.181 43.0454 773.174 43.1737 773.174 43.3019C773.174 43.4301 773.167 43.5584 773.153 43.6866H764.796C764.853 44.342 765.017 44.9333 765.288 45.4605C765.558 45.9877 765.943 46.408 766.442 46.7215C766.941 47.0207 767.56 47.1703 768.301 47.1703C768.672 47.1703 769.042 47.1276 769.413 47.0421C769.797 46.9423 770.139 46.7785 770.439 46.5505C770.752 46.3225 770.973 46.0162 771.101 45.6315H772.96C772.789 46.3582 772.469 46.9566 771.999 47.4268C771.529 47.8827 770.966 48.2247 770.31 48.4527C769.655 48.6664 768.971 48.7733 768.259 48.7733ZM764.839 42.105H771.358C771.343 41.4639 771.201 40.901 770.93 40.4166C770.659 39.9322 770.289 39.5546 769.819 39.2839C769.363 39.0131 768.814 38.8778 768.173 38.8778C767.475 38.8778 766.884 39.0274 766.399 39.3266C765.929 39.6258 765.566 40.0176 765.309 40.5021C765.053 40.9865 764.896 41.5208 764.839 42.105ZM775.637 48.645V37.3817H778.074L781.728 43.024L785.319 37.3817H787.713V48.645H785.917V39.3907L781.942 45.7597H781.429L777.433 39.3907V48.645H775.637ZM795.454 48.7733C794.257 48.7733 793.267 48.531 792.483 48.0466C791.7 47.5479 791.116 46.864 790.731 45.9948C790.346 45.1257 790.154 44.1354 790.154 43.024C790.154 41.8984 790.353 40.9082 790.752 40.0533C791.165 39.1841 791.764 38.5002 792.548 38.0015C793.331 37.5028 794.293 37.2535 795.433 37.2535C796.273 37.2535 797.007 37.4173 797.634 37.745C798.275 38.0585 798.803 38.486 799.216 39.0274C799.643 39.5688 799.95 40.1744 800.135 40.8441C800.334 41.5137 800.42 42.2048 800.391 42.9172C800.377 43.0454 800.37 43.1737 800.37 43.3019C800.37 43.4301 800.363 43.5584 800.349 43.6866H791.992C792.049 44.342 792.213 44.9333 792.483 45.4605C792.754 45.9877 793.139 46.408 793.638 46.7215C794.136 47.0207 794.756 47.1703 795.497 47.1703C795.867 47.1703 796.238 47.1276 796.608 47.0421C796.993 46.9423 797.335 46.7785 797.634 46.5505C797.948 46.3225 798.169 46.0162 798.297 45.6315H800.156C799.985 46.3582 799.665 46.9566 799.194 47.4268C798.724 47.8827 798.161 48.2247 797.506 48.4527C796.851 48.6664 796.167 48.7733 795.454 48.7733ZM792.035 42.105H798.553C798.539 41.4639 798.396 40.901 798.126 40.4166C797.855 39.9322 797.485 39.5546 797.014 39.2839C796.558 39.0131 796.01 38.8778 795.369 38.8778C794.671 38.8778 794.079 39.0274 793.595 39.3266C793.125 39.6258 792.761 40.0176 792.505 40.5021C792.248 40.9865 792.092 41.5208 792.035 42.105ZM802.833 48.645V37.3817H804.65V42.3188H810.292V37.3817H812.109V48.645H810.292V43.9217H804.65V48.645H802.833ZM814.98 48.645V37.3817H816.797V46.0162C816.897 45.8167 817.032 45.603 817.203 45.375C817.374 45.1328 817.509 44.9476 817.609 44.8193L823.059 37.3817H824.854V48.645H823.038V40.0105C822.924 40.2243 822.795 40.4237 822.653 40.609C822.525 40.7942 822.404 40.9652 822.29 41.1219L816.754 48.645H814.98Z" fill="#E27E55"/>
<path d="M977.897 40.9417C978.758 41.8027 980.154 41.8027 981.015 40.9417L995.045 26.9114C995.906 26.0505 995.906 24.6546 995.045 23.7936C994.184 22.9326 992.788 22.9326 991.927 23.7936L979.456 36.265L966.985 23.7936C966.124 22.9326 964.728 22.9326 963.867 23.7936C963.006 24.6546 963.006 26.0505 963.867 26.9114L977.897 40.9417ZM981.661 7.32405L981.661 5.1194L977.251 5.1194L977.251 7.32405L981.661 7.32405ZM981.661 39.3828L981.661 7.32405L977.251 7.32405L977.251 39.3828L981.661 39.3828Z" fill="#E27E55"/>
<path d="M1025.92 116.325V100.504H982.833V93.2103L1021.66 36.9953H1035.68V91.6395H1044.99V100.504H1035.68V116.325H1025.92ZM994.614 91.6395H1025.92V45.8595L994.614 91.6395ZM1050.7 116.325L1071.79 86.1414L1051.71 57.1923H1063.15L1078.19 79.6334L1092.77 57.1923H1103.88L1083.91 86.478L1105.34 116.325H1094.01L1077.63 93.7714L1061.47 116.325H1050.7Z" fill="#E27E55"/>
<defs>
<filter id="filter0_bd_5382_2198" x="1035.86" y="145.212" width="219.799" height="219.799" filterUnits="userSpaceOnUse" color-interpolation-filters="sRGB">
<feFlood flood-opacity="0" result="BackgroundImageFix"/>
<feGaussianBlur in="BackgroundImageFix" stdDeviation="42.5939"/>
<feComposite in2="SourceAlpha" operator="in" result="effect1_backgroundBlur_5382_2198"/>
<feColorMatrix in="SourceAlpha" type="matrix" values="0 0 0 0 0 0 0 0 0 0 0 0 0 0 0 0 0 0 127 0" result="hardAlpha"/>
<feOffset dy="4.25939"/>
<feGaussianBlur stdDeviation="7.12837"/>
<feComposite in2="hardAlpha" operator="out"/>
<feColorMatrix type="matrix" values="0 0 0 0 0.870588 0 0 0 0 0.490196 0 0 0 0 0.368627 0 0 0 0.4 0"/>
<feBlend mode="normal" in2="effect1_backgroundBlur_5382_2198" result="effect2_dropShadow_5382_2198"/>
<feBlend mode="normal" in="SourceGraphic" in2="effect2_dropShadow_5382_2198" result="shape"/>
</filter>
<linearGradient id="paint0_linear_5382_2198" x1="640.248" y1="19.3467" x2="653.744" y2="442.465" gradientUnits="userSpaceOnUse">
<stop stop-color="#DE7D5E"/>
<stop offset="1" stop-color="#DE7D5E" stop-opacity="0"/>
</linearGradient>
<linearGradient id="paint1_linear_5382_2198" x1="1144.59" y1="254.443" x2="1144.59" y2="20.6816" gradientUnits="userSpaceOnUse">
<stop stop-color="#DE7D5E"/>
<stop offset="1" stop-color="#FAFCFF"/>
</linearGradient>
</defs>
</svg>
