<svg width="163" height="99" viewBox="0 0 163 99" fill="none" xmlns="http://www.w3.org/2000/svg">
<path d="M97.3788 62.156H76.78V98.3926H97.3788V62.156Z" fill="#E27E55"/>
<path d="M71.5344 46.9355H50.9357V98.3915H71.5344V46.9355Z" fill="#F6E7E4"/>
<path d="M45.6996 27.3647H25.1008V98.3885H45.6996V27.3647Z" fill="#F6E7E4"/>
<path d="M20.226 0.916748H0.00173378V98.3932H20.226V0.916748Z" fill="#F6E7E4"/>
<path d="M134.229 40.8079V35.1679H118.869V32.5679L132.709 12.5279H137.709V32.0079H141.029V35.1679H137.709V40.8079H134.229ZM123.069 32.0079H134.229V15.6879L123.069 32.0079ZM143.062 40.8079L150.582 30.0479L143.422 19.7279H147.502L152.862 27.7279L158.062 19.7279H162.022L154.902 30.1679L162.542 40.8079H158.502L152.662 32.7679L146.902 40.8079H143.062Z" fill="#E27E55"/>
<path d="M111.718 12.9646C111.979 13.2254 112.402 13.2254 112.663 12.9646L116.912 8.71477C117.173 8.45397 117.173 8.03115 116.912 7.77035C116.652 7.50956 116.229 7.50956 115.968 7.77035L112.19 11.548L108.413 7.77035C108.152 7.50956 107.729 7.50956 107.468 7.77035C107.207 8.03115 107.207 8.45398 107.468 8.71477L111.718 12.9646ZM112.858 1.80759L112.858 1.13978L111.523 1.13978L111.523 1.80759L112.858 1.80759ZM112.858 12.4924L112.858 1.80759L111.523 1.80759L111.523 12.4924L112.858 12.4924Z" fill="#E27E55"/>
</svg>
