<svg width="363" height="98" viewBox="0 0 363 98" fill="none" xmlns="http://www.w3.org/2000/svg">
<path d="M1 31.5C1 31.5 3.479 30.3592 6.00487 28.0582C11.3329 23.2044 10.2382 11.2919 15.7758 7.22514C24.2284 1.01762 28.3978 20.2729 37.4116 23.1563C44.9196 25.558 49.632 19.3755 56.9535 23.1563C68.2458 28.9876 75.7004 13.1314 88.0919 13.1314C113.46 13.1314 120.465 37.8625 130.934 31.7351C141.403 25.6078 138.628 16.5416 156.757 18.2544C165.084 19.0411 172.598 36.4826 180.487 31.7365C193.143 24.1217 201.345 56.9016 214.685 58.6925C230.342 60.7946 239.144 52.6644 254.467 58.6951C266.529 63.4425 275.404 78.5301 286.571 69.224C299.094 58.7887 309.711 78.7845 323.561 77.8052C339.852 76.6534 362 88.5 362 88.5" stroke="#E27E55" stroke-width="1.27504" stroke-linecap="round"/>
<path d="M7.29893 26.9801C6.23051 29.9405 1 31.5 1 31.5L1 96L362 95.9999V89C362 89 338.837 76.8201 322.613 77.787C308.818 78.6091 301.689 62.4493 290.497 67.2423C271.56 75.3527 278.332 73.0396 255.462 59.0942C241.77 50.745 233.079 59.5735 215.075 59.0942C201.706 58.7382 194.218 25.0635 180.04 32.2531C172.184 36.2371 166.118 19.1433 156.197 18.3533C138.141 16.9154 138.772 29.5599 129.434 32.7324C122.312 35.1524 117.756 25.5428 105.591 17.874C101.428 15.9872 98.1093 14.4334 91.4799 13.5602C79.0434 11.9222 67.6919 28.5207 56.445 23.6256C49.153 20.4518 43.9724 24.6831 36.4946 22.667C27.5172 20.2465 24.5559 1.70826 16.1373 6.91913C10.622 10.333 11.1917 16.1939 7.29893 26.9801Z" fill="url(#paint0_linear_5313_22722)" fill-opacity="0.2"/>
<g filter="url(#filter0_bd_5313_22722)">
<circle cx="329.041" cy="78.576" r="7.25954" fill="#E27E55"/>
</g>
<line x1="329.319" y1="-1.39334e-08" x2="329.319" y2="72" stroke="url(#paint1_linear_5313_22722)" stroke-width="0.637521" stroke-dasharray="1.28 1.28"/>
<path d="M235.383 15.2656C235.711 15.5935 236.242 15.5935 236.57 15.2656L241.914 9.92206C242.242 9.59415 242.242 9.06251 241.914 8.7346C241.586 8.4067 241.054 8.4067 240.726 8.7346L235.977 13.4844L231.227 8.7346C230.899 8.4067 230.367 8.4067 230.039 8.7346C229.711 9.06251 229.711 9.59415 230.039 9.92206L235.383 15.2656ZM236.816 2.67188V1.83222H235.137V2.67188H236.816ZM236.816 14.6719V2.67188H235.137V14.6719H236.816Z" fill="#E27E55"/>
<path d="M263.017 39V33.36H247.657V30.76L261.497 10.72H266.497V30.2H269.817V33.36H266.497V39H263.017ZM251.857 30.2H263.017V13.88L251.857 30.2ZM271.849 39L279.369 28.24L272.209 17.92H276.289L281.649 25.92L286.849 17.92H290.809L283.689 28.36L291.329 39H287.289L281.449 30.96L275.689 39H271.849Z" fill="#E27E55"/>
<defs>
<filter id="filter0_bd_5313_22722" x="296.28" y="45.8156" width="65.5207" height="65.5207" filterUnits="userSpaceOnUse" color-interpolation-filters="sRGB">
<feFlood flood-opacity="0" result="BackgroundImageFix"/>
<feGaussianBlur in="BackgroundImageFix" stdDeviation="12.7504"/>
<feComposite in2="SourceAlpha" operator="in" result="effect1_backgroundBlur_5313_22722"/>
<feColorMatrix in="SourceAlpha" type="matrix" values="0 0 0 0 0 0 0 0 0 0 0 0 0 0 0 0 0 0 127 0" result="hardAlpha"/>
<feOffset dy="1.27504"/>
<feGaussianBlur stdDeviation="2.13387"/>
<feComposite in2="hardAlpha" operator="out"/>
<feColorMatrix type="matrix" values="0 0 0 0 0.870588 0 0 0 0 0.490196 0 0 0 0 0.368627 0 0 0 0.4 0"/>
<feBlend mode="normal" in2="effect1_backgroundBlur_5313_22722" result="effect2_dropShadow_5313_22722"/>
<feBlend mode="normal" in="SourceGraphic" in2="effect2_dropShadow_5313_22722" result="shape"/>
</filter>
<linearGradient id="paint0_linear_5313_22722" x1="181.227" y1="5.89141" x2="181.02" y2="96.0007" gradientUnits="userSpaceOnUse">
<stop stop-color="#DE7D5E"/>
<stop offset="1" stop-color="#DE7D5E" stop-opacity="0"/>
</linearGradient>
<linearGradient id="paint1_linear_5313_22722" x1="328.5" y1="72" x2="328.5" y2="2.18557e-08" gradientUnits="userSpaceOnUse">
<stop stop-color="#DE7D5E"/>
<stop offset="1" stop-color="#FAFCFF"/>
</linearGradient>
</defs>
</svg>
