<svg width="957" height="281" viewBox="0 0 957 281" fill="none" xmlns="http://www.w3.org/2000/svg">
<path d="M21.3202 68.8661C14.7333 74.5895 2 77.1279 2 77.1279L2 281L955 281V224.347C955 224.347 892.635 193.435 850.154 196.3C814.036 198.736 783.929 147.648 753.133 176.107C731.181 196.393 700.086 160.43 668.63 148.622C628.671 133.621 608.137 153.85 567.306 148.622C532.518 144.167 509.336 59.0745 476.33 78.0153C455.759 89.8203 436.163 46.4376 414.449 44.4808C367.172 40.2204 368.197 76.8605 343 81C317.803 85.1395 315.001 48.1512 245.908 31.4785C213.994 23.7774 183.631 71.1779 154.183 56.6734C135.09 47.2693 122.801 62.6474 103.222 56.6734C79.716 49.5014 68.8433 1.60716 46.8008 17.0473C32.3599 27.1627 35.2146 56.7931 21.3202 68.8661Z" fill="url(#paint0_linear_5313_9253)" fill-opacity="0.2"/>
<path d="M2 79.1117C2 79.1117 13.6604 75.6318 20.2739 69.8099C34.2244 57.5293 31.3582 27.3892 45.8574 17.0997C67.989 1.39397 78.9057 50.1121 102.507 57.4075C122.165 63.4842 134.503 47.8416 153.674 57.4075C183.24 72.1615 202.759 32.0432 235.204 32.0432C301.625 32.0432 319.966 94.616 347.377 79.113C374.788 63.61 367.523 40.6715 414.991 45.0051C436.792 46.9956 456.468 91.1246 477.122 79.1165C510.261 59.85 531.735 142.787 566.664 147.318C607.661 152.637 630.705 132.066 670.826 147.325C702.409 159.336 725.645 197.51 754.886 173.964C787.674 147.562 815.473 198.154 851.738 195.676C894.39 192.762 955 224 955 224" stroke="#E27E55" stroke-opacity="0.4" stroke-width="3.13128" stroke-linecap="round"/>
<g filter="url(#filter0_bd_5313_9253)">
<circle cx="857.5" cy="190.5" r="18.5" fill="#E27E55"/>
</g>
<line x1="857.5" y1="15" x2="857.5" y2="190" stroke="url(#paint1_linear_5313_9253)" stroke-dasharray="3.19 3.19"/>
<path d="M491.856 15V4.952H488.224V3.688H496.88V4.952H493.248V15H491.856ZM497.541 18.04V6.568H498.837L498.901 7.864C499.189 7.40533 499.578 7.05867 500.069 6.824C500.57 6.58933 501.109 6.472 501.685 6.472C502.538 6.472 503.237 6.664 503.781 7.048C504.325 7.42133 504.725 7.93333 504.981 8.584C505.247 9.23467 505.381 9.97067 505.381 10.792C505.381 11.6133 505.247 12.3493 504.981 13C504.714 13.6507 504.303 14.1627 503.749 14.536C503.194 14.9093 502.485 15.096 501.621 15.096C501.194 15.096 500.81 15.0533 500.469 14.968C500.127 14.872 499.829 14.7387 499.573 14.568C499.317 14.3973 499.093 14.2053 498.901 13.992V18.04H497.541ZM501.509 13.896C502.127 13.896 502.618 13.7573 502.981 13.48C503.343 13.192 503.605 12.8133 503.765 12.344C503.935 11.8747 504.021 11.3573 504.021 10.792C504.021 10.216 503.935 9.69333 503.765 9.224C503.605 8.75467 503.338 8.38133 502.965 8.104C502.591 7.82667 502.095 7.688 501.477 7.688C500.922 7.688 500.447 7.832 500.053 8.12C499.669 8.39733 499.375 8.776 499.173 9.256C498.97 9.72533 498.869 10.2427 498.869 10.808C498.869 11.3947 498.965 11.9227 499.157 12.392C499.349 12.8613 499.642 13.2293 500.037 13.496C500.431 13.7627 500.922 13.896 501.509 13.896ZM510.479 15.096C509.849 15.096 509.3 14.9893 508.831 14.776C508.372 14.552 507.993 14.248 507.695 13.864C507.396 13.48 507.172 13.0267 507.023 12.504C506.884 11.9813 506.815 11.416 506.815 10.808C506.815 9.99733 506.943 9.26667 507.199 8.616C507.465 7.95467 507.887 7.432 508.463 7.048C509.039 6.664 509.791 6.472 510.719 6.472C511.209 6.472 511.679 6.56267 512.127 6.744C512.585 6.92533 512.975 7.208 513.295 7.592V6.568H514.655V15H513.295V13.864C512.996 14.2587 512.601 14.5627 512.111 14.776C511.62 14.9893 511.076 15.096 510.479 15.096ZM510.703 13.896C511.257 13.896 511.727 13.752 512.111 13.464C512.495 13.176 512.788 12.792 512.991 12.312C513.204 11.832 513.311 11.3093 513.311 10.744C513.311 10.1573 513.209 9.63467 513.007 9.176C512.815 8.71733 512.527 8.35467 512.143 8.088C511.759 7.82133 511.273 7.688 510.687 7.688C510.079 7.688 509.588 7.82667 509.215 8.104C508.852 8.38133 508.585 8.75467 508.414 9.224C508.254 9.69333 508.174 10.216 508.174 10.792C508.174 11.3893 508.26 11.9227 508.431 12.392C508.601 12.8613 508.873 13.2293 509.247 13.496C509.62 13.7627 510.105 13.896 510.703 13.896ZM518.759 15V7.768H515.863V6.568H523.015V7.768H520.119V15H518.759ZM524.228 15V6.568H525.62V9.784H527.476C527.978 9.784 528.426 9.82667 528.82 9.912C529.226 9.98667 529.572 10.12 529.86 10.312C530.148 10.504 530.367 10.7653 530.516 11.096C530.676 11.416 530.756 11.8267 530.756 12.328C530.756 12.7867 530.676 13.1867 530.516 13.528C530.356 13.8587 530.132 14.136 529.844 14.36C529.556 14.5733 529.21 14.7333 528.804 14.84C528.41 14.9467 527.972 15 527.492 15H524.228ZM525.62 13.816H526.42C526.794 13.816 527.151 13.8053 527.492 13.784C527.844 13.7627 528.164 13.7093 528.452 13.624C528.74 13.5387 528.964 13.4 529.124 13.208C529.295 13.0053 529.38 12.728 529.38 12.376C529.38 12.0347 529.311 11.7733 529.172 11.592C529.044 11.4 528.874 11.2613 528.66 11.176C528.447 11.08 528.212 11.0213 527.956 11C527.711 10.9787 527.466 10.968 527.22 10.968H525.62V13.816ZM534.009 15V7.768H531.113V6.568H538.265V7.768H535.369V15H534.009ZM543.126 15.096C542.23 15.096 541.489 14.9147 540.902 14.552C540.316 14.1787 539.878 13.6667 539.59 13.016C539.302 12.3653 539.158 11.624 539.158 10.792C539.158 9.94933 539.308 9.208 539.606 8.568C539.916 7.91733 540.364 7.40533 540.95 7.032C541.537 6.65867 542.257 6.472 543.11 6.472C543.74 6.472 544.289 6.59467 544.758 6.84C545.238 7.07467 545.633 7.39467 545.942 7.8C546.262 8.20533 546.492 8.65867 546.63 9.16C546.78 9.66133 546.844 10.1787 546.822 10.712C546.812 10.808 546.806 10.904 546.806 11C546.806 11.096 546.801 11.192 546.79 11.288H540.534C540.577 11.7787 540.7 12.2213 540.902 12.616C541.105 13.0107 541.393 13.3253 541.766 13.56C542.14 13.784 542.604 13.896 543.158 13.896C543.436 13.896 543.713 13.864 543.99 13.8C544.278 13.7253 544.534 13.6027 544.758 13.432C544.993 13.2613 545.158 13.032 545.254 12.744H546.646C546.518 13.288 546.278 13.736 545.926 14.088C545.574 14.4293 545.153 14.6853 544.662 14.856C544.172 15.016 543.66 15.096 543.126 15.096ZM540.566 10.104H545.446C545.436 9.624 545.329 9.20267 545.126 8.84C544.924 8.47733 544.646 8.19467 544.294 7.992C543.953 7.78933 543.542 7.688 543.062 7.688C542.54 7.688 542.097 7.8 541.734 8.024C541.382 8.248 541.11 8.54133 540.918 8.904C540.726 9.26667 540.609 9.66667 540.566 10.104ZM552.963 15V6.568H554.323V10.264H558.547V6.568H559.907V15H558.547V11.464H554.323V15H552.963ZM565.4 15.096C564.771 15.096 564.222 14.9893 563.752 14.776C563.294 14.552 562.915 14.248 562.616 13.864C562.318 13.48 562.094 13.0267 561.944 12.504C561.806 11.9813 561.736 11.416 561.736 10.808C561.736 9.99733 561.864 9.26667 562.12 8.616C562.387 7.95467 562.808 7.432 563.384 7.048C563.96 6.664 564.712 6.472 565.64 6.472C566.131 6.472 566.6 6.56267 567.048 6.744C567.507 6.92533 567.896 7.208 568.216 7.592V6.568H569.576V15H568.216V13.864C567.918 14.2587 567.523 14.5627 567.032 14.776C566.542 14.9893 565.998 15.096 565.4 15.096ZM565.624 13.896C566.179 13.896 566.648 13.752 567.032 13.464C567.416 13.176 567.71 12.792 567.912 12.312C568.126 11.832 568.232 11.3093 568.232 10.744C568.232 10.1573 568.131 9.63467 567.928 9.176C567.736 8.71733 567.448 8.35467 567.064 8.088C566.68 7.82133 566.195 7.688 565.608 7.688C565 7.688 564.51 7.82667 564.136 8.104C563.774 8.38133 563.507 8.75467 563.336 9.224C563.176 9.69333 563.096 10.216 563.096 10.792C563.096 11.3893 563.182 11.9227 563.352 12.392C563.523 12.8613 563.795 13.2293 564.168 13.496C564.542 13.7627 565.027 13.896 565.624 13.896ZM576.025 18.04V6.568H577.321L577.385 7.864C577.673 7.40533 578.062 7.05867 578.553 6.824C579.054 6.58933 579.593 6.472 580.169 6.472C581.022 6.472 581.721 6.664 582.265 7.048C582.809 7.42133 583.209 7.93333 583.465 8.584C583.732 9.23467 583.865 9.97067 583.865 10.792C583.865 11.6133 583.732 12.3493 583.465 13C583.198 13.6507 582.788 14.1627 582.233 14.536C581.678 14.9093 580.969 15.096 580.105 15.096C579.678 15.096 579.294 15.0533 578.953 14.968C578.612 14.872 578.313 14.7387 578.057 14.568C577.801 14.3973 577.577 14.2053 577.385 13.992V18.04H576.025ZM579.993 13.896C580.612 13.896 581.102 13.7573 581.465 13.48C581.828 13.192 582.089 12.8133 582.249 12.344C582.42 11.8747 582.505 11.3573 582.505 10.792C582.505 10.216 582.42 9.69333 582.249 9.224C582.089 8.75467 581.822 8.38133 581.449 8.104C581.076 7.82667 580.58 7.688 579.961 7.688C579.406 7.688 578.932 7.832 578.537 8.12C578.153 8.39733 577.86 8.776 577.657 9.256C577.454 9.72533 577.353 10.2427 577.353 10.808C577.353 11.3947 577.449 11.9227 577.641 12.392C577.833 12.8613 578.126 13.2293 578.521 13.496C578.916 13.7627 579.406 13.896 579.993 13.896ZM588.963 15.096C588.334 15.096 587.784 14.9893 587.315 14.776C586.856 14.552 586.478 14.248 586.179 13.864C585.88 13.48 585.656 13.0267 585.507 12.504C585.368 11.9813 585.299 11.416 585.299 10.808C585.299 9.99733 585.427 9.26667 585.683 8.616C585.95 7.95467 586.371 7.432 586.947 7.048C587.523 6.664 588.275 6.472 589.203 6.472C589.694 6.472 590.163 6.56267 590.611 6.744C591.07 6.92533 591.459 7.208 591.779 7.592V6.568H593.139V15H591.779V13.864C591.48 14.2587 591.086 14.5627 590.595 14.776C590.104 14.9893 589.56 15.096 588.963 15.096ZM589.187 13.896C589.742 13.896 590.211 13.752 590.595 13.464C590.979 13.176 591.272 12.792 591.475 12.312C591.688 11.832 591.795 11.3093 591.795 10.744C591.795 10.1573 591.694 9.63467 591.491 9.176C591.299 8.71733 591.011 8.35467 590.627 8.088C590.243 7.82133 589.758 7.688 589.171 7.688C588.563 7.688 588.072 7.82667 587.699 8.104C587.336 8.38133 587.07 8.75467 586.899 9.224C586.739 9.69333 586.659 10.216 586.659 10.792C586.659 11.3893 586.744 11.9227 586.915 12.392C587.086 12.8613 587.358 13.2293 587.731 13.496C588.104 13.7627 588.59 13.896 589.187 13.896ZM598.827 15.096C598.294 15.096 597.819 15.0213 597.403 14.872C596.987 14.712 596.63 14.4933 596.331 14.216C596.032 13.928 595.787 13.592 595.595 13.208C595.403 12.8133 595.259 12.3867 595.163 11.928C595.067 11.4693 595.019 10.984 595.019 10.472C595.019 9.65067 595.035 8.888 595.067 8.184C595.11 7.46933 595.227 6.83467 595.419 6.28C595.611 5.71467 595.936 5.24533 596.395 4.872C596.854 4.49867 597.499 4.23733 598.331 4.088C598.758 4.01333 599.179 3.94933 599.595 3.896C600.011 3.84267 600.432 3.78933 600.859 3.736C600.998 3.71467 601.142 3.69333 601.291 3.672C601.44 3.65067 601.595 3.624 601.755 3.592C601.926 3.56 602.086 3.53333 602.235 3.512V4.76C602.118 4.80267 601.99 4.84 601.851 4.872C601.723 4.89333 601.584 4.91467 601.435 4.936C601.296 4.95733 601.152 4.97333 601.003 4.984C600.864 4.99467 600.726 5.01067 600.587 5.032C600.448 5.04267 600.315 5.05867 600.187 5.08C599.814 5.12267 599.419 5.16533 599.003 5.208C598.587 5.24 598.192 5.32533 597.819 5.464C597.456 5.592 597.147 5.84267 596.891 6.216C596.763 6.408 596.651 6.63733 596.555 6.904C596.47 7.17067 596.406 7.44267 596.363 7.72C596.331 7.98667 596.31 8.24267 596.299 8.488C596.512 8.18933 596.774 7.94933 597.083 7.768C597.392 7.576 597.723 7.43733 598.075 7.352C598.427 7.256 598.763 7.208 599.083 7.208C599.851 7.208 600.502 7.368 601.035 7.688C601.568 7.99733 601.974 8.44 602.251 9.016C602.528 9.592 602.667 10.264 602.667 11.032C602.667 11.8 602.518 12.4933 602.219 13.112C601.92 13.72 601.483 14.2053 600.907 14.568C600.342 14.92 599.648 15.096 598.827 15.096ZM598.859 13.896C599.392 13.896 599.84 13.768 600.203 13.512C600.566 13.256 600.838 12.9147 601.019 12.488C601.211 12.0613 601.307 11.592 601.307 11.08C601.307 10.5787 601.211 10.1307 601.019 9.736C600.838 9.33067 600.566 9.01067 600.203 8.776C599.851 8.54133 599.414 8.424 598.891 8.424C598.379 8.424 597.936 8.54667 597.563 8.792C597.2 9.03733 596.918 9.368 596.715 9.784C596.523 10.1893 596.427 10.632 596.427 11.112C596.427 11.6027 596.518 12.0613 596.699 12.488C596.88 12.9147 597.147 13.256 597.499 13.512C597.862 13.768 598.315 13.896 598.859 13.896ZM608.174 15.096C607.289 15.096 606.547 14.9147 605.95 14.552C605.353 14.1787 604.905 13.6667 604.606 13.016C604.318 12.3653 604.174 11.624 604.174 10.792C604.174 9.94933 604.318 9.208 604.606 8.568C604.905 7.91733 605.353 7.40533 605.95 7.032C606.547 6.65867 607.299 6.472 608.206 6.472C609.091 6.472 609.827 6.65867 610.414 7.032C611.011 7.40533 611.454 7.91733 611.742 8.568C612.041 9.208 612.19 9.94933 612.19 10.792C612.19 11.624 612.041 12.3653 611.742 13.016C611.443 13.6667 610.995 14.1787 610.398 14.552C609.811 14.9147 609.07 15.096 608.174 15.096ZM608.174 13.896C608.793 13.896 609.294 13.7573 609.678 13.48C610.073 13.2027 610.361 12.8293 610.542 12.36C610.734 11.8907 610.83 11.368 610.83 10.792C610.83 10.216 610.734 9.69333 610.542 9.224C610.361 8.75467 610.073 8.38133 609.678 8.104C609.294 7.82667 608.793 7.688 608.174 7.688C607.566 7.688 607.065 7.82667 606.67 8.104C606.286 8.38133 605.998 8.75467 605.806 9.224C605.625 9.69333 605.534 10.216 605.534 10.792C605.534 11.368 605.625 11.8907 605.806 12.36C605.998 12.8293 606.286 13.2027 606.67 13.48C607.065 13.7573 607.566 13.896 608.174 13.896ZM615.978 15V7.768H613.082V6.568H620.234V7.768H617.338V15H615.978ZM622.032 18.616V17.32C622.554 17.32 622.97 17.2453 623.28 17.096C623.589 16.9573 623.845 16.7333 624.048 16.424C624.261 16.1253 624.464 15.7413 624.656 15.272L620.96 6.568H622.56L625.408 13.672L627.744 6.568H629.28L626.912 13.208C626.794 13.5493 626.661 13.9333 626.512 14.36C626.362 14.7867 626.197 15.2187 626.016 15.656C625.834 16.104 625.632 16.5147 625.408 16.888C625.194 17.272 624.954 17.5813 624.688 17.816C624.464 18.0187 624.245 18.1787 624.032 18.296C623.818 18.4133 623.557 18.4933 623.248 18.536C622.949 18.5893 622.544 18.616 622.032 18.616ZM634.853 15V6.568H638.117C638.491 6.568 638.859 6.59467 639.221 6.648C639.595 6.69067 639.931 6.78667 640.229 6.936C640.539 7.07467 640.784 7.28267 640.965 7.56C641.157 7.83733 641.253 8.20533 641.253 8.664C641.253 8.94133 641.211 9.19733 641.125 9.432C641.04 9.656 640.912 9.85333 640.741 10.024C640.581 10.1947 640.373 10.344 640.117 10.472C640.693 10.6 641.109 10.8507 641.365 11.224C641.621 11.5973 641.749 12.024 641.749 12.504C641.749 12.9307 641.669 13.304 641.509 13.624C641.36 13.9333 641.147 14.1893 640.869 14.392C640.603 14.5947 640.288 14.7493 639.925 14.856C639.573 14.952 639.195 15 638.789 15H634.853ZM636.245 13.816H638.469C638.8 13.816 639.109 13.784 639.397 13.72C639.685 13.656 639.92 13.5387 640.101 13.368C640.283 13.1867 640.373 12.9307 640.373 12.6C640.373 12.2587 640.293 12.0027 640.133 11.832C639.984 11.6507 639.787 11.528 639.541 11.464C639.307 11.3893 639.051 11.3467 638.773 11.336C638.496 11.3253 638.235 11.32 637.989 11.32H636.245V13.816ZM636.245 10.168H637.413C637.627 10.168 637.872 10.1573 638.149 10.136C638.437 10.1147 638.715 10.0667 638.981 9.992C639.259 9.90667 639.483 9.77867 639.653 9.608C639.835 9.43733 639.925 9.20267 639.925 8.904C639.925 8.50933 639.813 8.23733 639.589 8.088C639.376 7.928 639.12 7.83733 638.821 7.816C638.523 7.784 638.245 7.768 637.989 7.768H636.245V10.168ZM653.66 15V12.744H647.516V11.704L653.052 3.688H655.052V11.48H656.38V12.744H655.052V15H653.66ZM649.196 11.48H653.66V4.952L649.196 11.48ZM662.353 18.04V6.568H663.649L663.713 7.864C664.001 7.40533 664.391 7.05867 664.881 6.824C665.383 6.58933 665.921 6.472 666.497 6.472C667.351 6.472 668.049 6.664 668.593 7.048C669.137 7.42133 669.537 7.93333 669.793 8.584C670.06 9.23467 670.193 9.97067 670.193 10.792C670.193 11.6133 670.06 12.3493 669.793 13C669.527 13.6507 669.116 14.1627 668.561 14.536C668.007 14.9093 667.297 15.096 666.433 15.096C666.007 15.096 665.623 15.0533 665.281 14.968C664.94 14.872 664.641 14.7387 664.385 14.568C664.129 14.3973 663.905 14.2053 663.713 13.992V18.04H662.353ZM666.321 13.896C666.94 13.896 667.431 13.7573 667.793 13.48C668.156 13.192 668.417 12.8133 668.577 12.344C668.748 11.8747 668.833 11.3573 668.833 10.792C668.833 10.216 668.748 9.69333 668.577 9.224C668.417 8.75467 668.151 8.38133 667.777 8.104C667.404 7.82667 666.908 7.688 666.289 7.688C665.735 7.688 665.26 7.832 664.865 8.12C664.481 8.39733 664.188 8.776 663.985 9.256C663.783 9.72533 663.681 10.2427 663.681 10.808C663.681 11.3947 663.777 11.9227 663.969 12.392C664.161 12.8613 664.455 13.2293 664.849 13.496C665.244 13.7627 665.735 13.896 666.321 13.896ZM675.291 15.096C674.662 15.096 674.112 14.9893 673.643 14.776C673.184 14.552 672.806 14.248 672.507 13.864C672.208 13.48 671.984 13.0267 671.835 12.504C671.696 11.9813 671.627 11.416 671.627 10.808C671.627 9.99733 671.755 9.26667 672.011 8.616C672.278 7.95467 672.699 7.432 673.275 7.048C673.851 6.664 674.603 6.472 675.531 6.472C676.022 6.472 676.491 6.56267 676.939 6.744C677.398 6.92533 677.787 7.208 678.107 7.592V6.568H679.467V15H678.107V13.864C677.808 14.2587 677.414 14.5627 676.923 14.776C676.432 14.9893 675.888 15.096 675.291 15.096ZM675.515 13.896C676.07 13.896 676.539 13.752 676.923 13.464C677.307 13.176 677.6 12.792 677.803 12.312C678.016 11.832 678.123 11.3093 678.123 10.744C678.123 10.1573 678.022 9.63467 677.819 9.176C677.627 8.71733 677.339 8.35467 676.955 8.088C676.571 7.82133 676.086 7.688 675.499 7.688C674.891 7.688 674.4 7.82667 674.027 8.104C673.664 8.38133 673.398 8.75467 673.227 9.224C673.067 9.69333 672.987 10.216 672.987 10.792C672.987 11.3893 673.072 11.9227 673.243 12.392C673.414 12.8613 673.686 13.2293 674.059 13.496C674.432 13.7627 674.918 13.896 675.515 13.896ZM684.659 15.096C684.254 15.096 683.849 15.0587 683.443 14.984C683.038 14.9093 682.659 14.7867 682.307 14.616C681.966 14.4347 681.689 14.1947 681.475 13.896C681.262 13.5867 681.145 13.2027 681.123 12.744H682.451C682.505 13.032 682.659 13.2613 682.915 13.432C683.171 13.6027 683.459 13.7253 683.779 13.8C684.11 13.864 684.403 13.896 684.659 13.896C684.958 13.896 685.262 13.864 685.571 13.8C685.891 13.736 686.158 13.608 686.371 13.416C686.595 13.224 686.707 12.9413 686.707 12.568C686.707 12.2053 686.617 11.9387 686.435 11.768C686.265 11.5973 686.035 11.4853 685.747 11.432C685.47 11.3787 685.166 11.352 684.835 11.352H683.331V10.152H684.563C684.766 10.152 684.974 10.136 685.187 10.104C685.401 10.0613 685.598 9.99733 685.779 9.912C685.961 9.816 686.105 9.68267 686.211 9.512C686.329 9.34133 686.387 9.12267 686.387 8.856C686.387 8.55733 686.302 8.32267 686.131 8.152C685.961 7.98133 685.742 7.864 685.475 7.8C685.209 7.72533 684.937 7.688 684.659 7.688C684.403 7.688 684.131 7.71467 683.843 7.768C683.566 7.82133 683.326 7.928 683.123 8.088C682.921 8.23733 682.798 8.46133 682.755 8.76H681.411C681.433 8.184 681.609 7.73067 681.939 7.4C682.27 7.06933 682.681 6.83467 683.171 6.696C683.662 6.54667 684.153 6.472 684.643 6.472C685.017 6.472 685.385 6.50933 685.747 6.584C686.11 6.65867 686.441 6.78667 686.739 6.968C687.038 7.13867 687.273 7.368 687.443 7.656C687.625 7.944 687.715 8.30133 687.715 8.728C687.715 9.112 687.625 9.45333 687.443 9.752C687.262 10.0507 686.985 10.2907 686.611 10.472C687.155 10.6427 687.534 10.9093 687.747 11.272C687.961 11.6347 688.067 12.0667 688.067 12.568C688.067 13.016 687.971 13.4 687.779 13.72C687.587 14.0293 687.326 14.2907 686.995 14.504C686.675 14.7067 686.313 14.856 685.907 14.952C685.502 15.048 685.086 15.096 684.659 15.096ZM693.166 15.096C692.537 15.096 691.987 14.9893 691.518 14.776C691.059 14.552 690.681 14.248 690.382 13.864C690.083 13.48 689.859 13.0267 689.71 12.504C689.571 11.9813 689.502 11.416 689.502 10.808C689.502 9.99733 689.63 9.26667 689.886 8.616C690.153 7.95467 690.574 7.432 691.15 7.048C691.726 6.664 692.478 6.472 693.406 6.472C693.897 6.472 694.366 6.56267 694.814 6.744C695.273 6.92533 695.662 7.208 695.982 7.592V6.568H697.342V15H695.982V13.864C695.683 14.2587 695.289 14.5627 694.798 14.776C694.307 14.9893 693.763 15.096 693.166 15.096ZM693.39 13.896C693.945 13.896 694.414 13.752 694.798 13.464C695.182 13.176 695.475 12.792 695.678 12.312C695.891 11.832 695.998 11.3093 695.998 10.744C695.998 10.1573 695.897 9.63467 695.694 9.176C695.502 8.71733 695.214 8.35467 694.83 8.088C694.446 7.82133 693.961 7.688 693.374 7.688C692.766 7.688 692.275 7.82667 691.902 8.104C691.539 8.38133 691.273 8.75467 691.102 9.224C690.942 9.69333 690.862 10.216 690.862 10.792C690.862 11.3893 690.947 11.9227 691.118 12.392C691.289 12.8613 691.561 13.2293 691.934 13.496C692.307 13.7627 692.793 13.896 693.39 13.896ZM489.072 35V26.568H490.896L493.632 30.792L496.32 26.568H498.112V35H496.768V28.072L493.792 32.84H493.408L490.416 28.072V35H489.072ZM503.908 35.096C503.012 35.096 502.27 34.9147 501.684 34.552C501.097 34.1787 500.66 33.6667 500.372 33.016C500.084 32.3653 499.94 31.624 499.94 30.792C499.94 29.9493 500.089 29.208 500.388 28.568C500.697 27.9173 501.145 27.4053 501.732 27.032C502.318 26.6587 503.038 26.472 503.891 26.472C504.521 26.472 505.07 26.5947 505.54 26.84C506.02 27.0747 506.414 27.3947 506.724 27.8C507.044 28.2053 507.273 28.6587 507.411 29.16C507.561 29.6613 507.625 30.1787 507.604 30.712C507.593 30.808 507.588 30.904 507.588 31C507.588 31.096 507.582 31.192 507.572 31.288H501.316C501.358 31.7787 501.481 32.2213 501.684 32.616C501.886 33.0107 502.174 33.3253 502.548 33.56C502.921 33.784 503.385 33.896 503.94 33.896C504.217 33.896 504.494 33.864 504.772 33.8C505.06 33.7253 505.316 33.6027 505.54 33.432C505.774 33.2613 505.94 33.032 506.036 32.744H507.428C507.3 33.288 507.06 33.736 506.708 34.088C506.356 34.4293 505.934 34.6853 505.444 34.856C504.953 35.016 504.441 35.096 503.908 35.096ZM501.348 30.104H506.228C506.217 29.624 506.11 29.2027 505.908 28.84C505.705 28.4773 505.428 28.1947 505.076 27.992C504.734 27.7893 504.324 27.688 503.844 27.688C503.321 27.688 502.878 27.8 502.516 28.024C502.164 28.248 501.892 28.5413 501.7 28.904C501.508 29.2667 501.39 29.6667 501.348 30.104ZM509.431 35V26.568H510.791V30.264H515.015V26.568H516.375V35H515.015V31.464H510.791V35H509.431ZM518.525 35V26.568H519.917V29.784H521.773C522.274 29.784 522.722 29.8267 523.117 29.912C523.522 29.9867 523.869 30.12 524.157 30.312C524.445 30.504 524.664 30.7653 524.813 31.096C524.973 31.416 525.053 31.8267 525.053 32.328C525.053 32.7867 524.973 33.1867 524.813 33.528C524.653 33.8587 524.429 34.136 524.141 34.36C523.853 34.5733 523.506 34.7333 523.101 34.84C522.706 34.9467 522.269 35 521.789 35H518.525ZM519.917 33.816H520.717C521.09 33.816 521.448 33.8053 521.789 33.784C522.141 33.7627 522.461 33.7093 522.749 33.624C523.037 33.5387 523.261 33.4 523.421 33.208C523.592 33.0053 523.677 32.728 523.677 32.376C523.677 32.0347 523.608 31.7733 523.469 31.592C523.341 31.4 523.17 31.2613 522.957 31.176C522.744 31.08 522.509 31.0213 522.253 31C522.008 30.9787 521.762 30.968 521.517 30.968H519.917V33.816ZM526.822 35V26.568H528.182V33.816H531.35V26.568H532.71V33.816H535.91V26.568H537.27V35H526.822ZM543.064 35.096C542.168 35.096 541.426 34.9147 540.84 34.552C540.253 34.1787 539.816 33.6667 539.528 33.016C539.24 32.3653 539.096 31.624 539.096 30.792C539.096 29.9493 539.245 29.208 539.544 28.568C539.853 27.9173 540.301 27.4053 540.888 27.032C541.474 26.6587 542.194 26.472 543.048 26.472C543.677 26.472 544.226 26.5947 544.696 26.84C545.176 27.0747 545.57 27.3947 545.88 27.8C546.2 28.2053 546.429 28.6587 546.568 29.16C546.717 29.6613 546.781 30.1787 546.76 30.712C546.749 30.808 546.744 30.904 546.744 31C546.744 31.096 546.738 31.192 546.728 31.288H540.472C540.514 31.7787 540.637 32.2213 540.84 32.616C541.042 33.0107 541.33 33.3253 541.704 33.56C542.077 33.784 542.541 33.896 543.096 33.896C543.373 33.896 543.65 33.864 543.928 33.8C544.216 33.7253 544.472 33.6027 544.696 33.432C544.93 33.2613 545.096 33.032 545.192 32.744H546.584C546.456 33.288 546.216 33.736 545.864 34.088C545.512 34.4293 545.09 34.6853 544.6 34.856C544.109 35.016 543.597 35.096 543.064 35.096ZM540.504 30.104H545.384C545.373 29.624 545.266 29.2027 545.064 28.84C544.861 28.4773 544.584 28.1947 544.232 27.992C543.89 27.7893 543.48 27.688 543 27.688C542.477 27.688 542.034 27.8 541.672 28.024C541.32 28.248 541.048 28.5413 540.856 28.904C540.664 29.2667 540.546 29.6667 540.504 30.104ZM552.9 35V26.568H556.164C556.537 26.568 556.905 26.5947 557.268 26.648C557.641 26.6907 557.977 26.7867 558.276 26.936C558.585 27.0747 558.831 27.2827 559.012 27.56C559.204 27.8373 559.3 28.2053 559.3 28.664C559.3 28.9413 559.257 29.1973 559.172 29.432C559.087 29.656 558.959 29.8533 558.788 30.024C558.628 30.1947 558.42 30.344 558.164 30.472C558.74 30.6 559.156 30.8507 559.412 31.224C559.668 31.5973 559.796 32.024 559.796 32.504C559.796 32.9307 559.716 33.304 559.556 33.624C559.407 33.9333 559.193 34.1893 558.916 34.392C558.649 34.5947 558.335 34.7493 557.972 34.856C557.62 34.952 557.241 35 556.836 35H552.9ZM554.292 33.816H556.516C556.847 33.816 557.156 33.784 557.444 33.72C557.732 33.656 557.967 33.5387 558.148 33.368C558.329 33.1867 558.42 32.9307 558.42 32.6C558.42 32.2587 558.34 32.0027 558.18 31.832C558.031 31.6507 557.833 31.528 557.588 31.464C557.353 31.3893 557.097 31.3467 556.82 31.336C556.543 31.3253 556.281 31.32 556.036 31.32H554.292V33.816ZM554.292 30.168H555.46C555.673 30.168 555.919 30.1573 556.196 30.136C556.484 30.1147 556.761 30.0667 557.028 29.992C557.305 29.9067 557.529 29.7787 557.7 29.608C557.881 29.4373 557.972 29.2027 557.972 28.904C557.972 28.5093 557.86 28.2373 557.636 28.088C557.423 27.928 557.167 27.8373 556.868 27.816C556.569 27.784 556.292 27.768 556.036 27.768H554.292V30.168ZM561.65 38.04V26.568H562.946L563.01 27.864C563.298 27.4053 563.687 27.0587 564.178 26.824C564.679 26.5893 565.218 26.472 565.794 26.472C566.647 26.472 567.346 26.664 567.89 27.048C568.434 27.4213 568.834 27.9333 569.09 28.584C569.357 29.2347 569.49 29.9707 569.49 30.792C569.49 31.6133 569.357 32.3493 569.09 33C568.823 33.6507 568.413 34.1627 567.858 34.536C567.303 34.9093 566.594 35.096 565.73 35.096C565.303 35.096 564.919 35.0533 564.578 34.968C564.237 34.872 563.938 34.7387 563.682 34.568C563.426 34.3973 563.202 34.2053 563.01 33.992V38.04H561.65ZM565.618 33.896C566.237 33.896 566.727 33.7573 567.09 33.48C567.453 33.192 567.714 32.8133 567.874 32.344C568.045 31.8747 568.13 31.3573 568.13 30.792C568.13 30.216 568.045 29.6933 567.874 29.224C567.714 28.7547 567.447 28.3813 567.074 28.104C566.701 27.8267 566.205 27.688 565.586 27.688C565.031 27.688 564.557 27.832 564.162 28.12C563.778 28.3973 563.485 28.776 563.282 29.256C563.079 29.7253 562.978 30.2427 562.978 30.808C562.978 31.3947 563.074 31.9227 563.266 32.392C563.458 32.8613 563.751 33.2293 564.146 33.496C564.541 33.7627 565.031 33.896 565.618 33.896ZM574.892 35.096C573.996 35.096 573.255 34.9147 572.668 34.552C572.081 34.1787 571.644 33.6667 571.356 33.016C571.068 32.3653 570.924 31.624 570.924 30.792C570.924 29.9493 571.073 29.208 571.372 28.568C571.681 27.9173 572.129 27.4053 572.716 27.032C573.303 26.6587 574.023 26.472 574.876 26.472C575.505 26.472 576.055 26.5947 576.524 26.84C577.004 27.0747 577.399 27.3947 577.708 27.8C578.028 28.2053 578.257 28.6587 578.396 29.16C578.545 29.6613 578.609 30.1787 578.588 30.712C578.577 30.808 578.572 30.904 578.572 31C578.572 31.096 578.567 31.192 578.556 31.288H572.3C572.343 31.7787 572.465 32.2213 572.668 32.616C572.871 33.0107 573.159 33.3253 573.532 33.56C573.905 33.784 574.369 33.896 574.924 33.896C575.201 33.896 575.479 33.864 575.756 33.8C576.044 33.7253 576.3 33.6027 576.524 33.432C576.759 33.2613 576.924 33.032 577.02 32.744H578.412C578.284 33.288 578.044 33.736 577.692 34.088C577.34 34.4293 576.919 34.6853 576.428 34.856C575.937 35.016 575.425 35.096 574.892 35.096ZM572.332 30.104H577.212C577.201 29.624 577.095 29.2027 576.892 28.84C576.689 28.4773 576.412 28.1947 576.06 27.992C575.719 27.7893 575.308 27.688 574.828 27.688C574.305 27.688 573.863 27.8 573.5 28.024C573.148 28.248 572.876 28.5413 572.684 28.904C572.492 29.2667 572.375 29.6667 572.332 30.104ZM580.416 35V26.568H582.24L584.976 30.792L587.664 26.568H589.456V35H588.112V28.072L585.136 32.84H584.752L581.76 28.072V35H580.416ZM595.251 35.096C594.355 35.096 593.614 34.9147 593.027 34.552C592.441 34.1787 592.003 33.6667 591.715 33.016C591.427 32.3653 591.283 31.624 591.283 30.792C591.283 29.9493 591.433 29.208 591.731 28.568C592.041 27.9173 592.489 27.4053 593.075 27.032C593.662 26.6587 594.382 26.472 595.235 26.472C595.865 26.472 596.414 26.5947 596.883 26.84C597.363 27.0747 597.758 27.3947 598.067 27.8C598.387 28.2053 598.617 28.6587 598.755 29.16C598.905 29.6613 598.969 30.1787 598.947 30.712C598.937 30.808 598.931 30.904 598.931 31C598.931 31.096 598.926 31.192 598.915 31.288H592.659C592.702 31.7787 592.825 32.2213 593.027 32.616C593.23 33.0107 593.518 33.3253 593.891 33.56C594.265 33.784 594.729 33.896 595.283 33.896C595.561 33.896 595.838 33.864 596.115 33.8C596.403 33.7253 596.659 33.6027 596.883 33.432C597.118 33.2613 597.283 33.032 597.379 32.744H598.771C598.643 33.288 598.403 33.736 598.051 34.088C597.699 34.4293 597.278 34.6853 596.787 34.856C596.297 35.016 595.785 35.096 595.251 35.096ZM592.691 30.104H597.571C597.561 29.624 597.454 29.2027 597.251 28.84C597.049 28.4773 596.771 28.1947 596.419 27.992C596.078 27.7893 595.667 27.688 595.187 27.688C594.665 27.688 594.222 27.8 593.859 28.024C593.507 28.248 593.235 28.5413 593.043 28.904C592.851 29.2667 592.734 29.6667 592.691 30.104ZM600.775 35V26.568H602.135V30.264H606.359V26.568H607.719V35H606.359V31.464H602.135V35H600.775ZM609.869 35V26.568H611.229V33.032C611.304 32.8827 611.405 32.7227 611.533 32.552C611.661 32.3707 611.762 32.232 611.837 32.136L615.917 26.568H617.261V35H615.901V28.536C615.816 28.696 615.72 28.8453 615.613 28.984C615.517 29.1227 615.426 29.2507 615.341 29.368L611.197 35H609.869Z" fill="#E27E55"/>
<path d="M731.833 30.167C732.477 30.8116 733.523 30.8116 734.167 30.167L744.67 19.6636C745.315 19.0191 745.315 17.9741 744.67 17.3295C744.026 16.685 742.981 16.685 742.336 17.3295L733 26.6659L723.664 17.3295C723.019 16.685 721.974 16.685 721.33 17.3295C720.685 17.9741 720.685 19.0191 721.33 19.6636L731.833 30.167ZM734.65 5L734.65 3.34954L731.35 3.34954L731.35 5L734.65 5ZM734.65 29L734.65 5L731.35 5L731.35 29L734.65 29Z" fill="#E27E55"/>
<path d="M767.784 86V74.156H735.528V68.696L764.592 26.612H775.092V67.52H782.064V74.156H775.092V86H767.784ZM744.348 67.52H767.784V33.248L744.348 67.52ZM786.332 86L802.124 63.404L787.088 41.732H795.656L806.912 58.532L817.832 41.732H826.148L811.196 63.656L827.24 86H818.756L806.492 69.116L794.396 86H786.332Z" fill="#E27E55"/>
<defs>
<filter id="filter0_bd_5313_9253" x="775.226" y="108.226" width="164.547" height="164.547" filterUnits="userSpaceOnUse" color-interpolation-filters="sRGB">
<feFlood flood-opacity="0" result="BackgroundImageFix"/>
<feGaussianBlur in="BackgroundImageFix" stdDeviation="31.8869"/>
<feComposite in2="SourceAlpha" operator="in" result="effect1_backgroundBlur_5313_9253"/>
<feColorMatrix in="SourceAlpha" type="matrix" values="0 0 0 0 0 0 0 0 0 0 0 0 0 0 0 0 0 0 127 0" result="hardAlpha"/>
<feOffset dy="3.18869"/>
<feGaussianBlur stdDeviation="5.33648"/>
<feComposite in2="hardAlpha" operator="out"/>
<feColorMatrix type="matrix" values="0 0 0 0 0.870588 0 0 0 0 0.490196 0 0 0 0 0.368627 0 0 0 0.4 0"/>
<feBlend mode="normal" in2="effect1_backgroundBlur_5313_9253" result="effect2_dropShadow_5313_9253"/>
<feBlend mode="normal" in="SourceGraphic" in2="effect2_dropShadow_5313_9253" result="shape"/>
</filter>
<linearGradient id="paint0_linear_5313_9253" x1="479.06" y1="14" x2="489.163" y2="330.757" gradientUnits="userSpaceOnUse">
<stop stop-color="#DE7D5E"/>
<stop offset="1" stop-color="#DE7D5E" stop-opacity="0"/>
</linearGradient>
<linearGradient id="paint1_linear_5313_9253" x1="856.5" y1="190" x2="856.5" y2="15" gradientUnits="userSpaceOnUse">
<stop stop-color="#DE7D5E"/>
<stop offset="1" stop-color="#FAFCFF"/>
</linearGradient>
</defs>
</svg>
