<svg width="22" height="23" viewBox="0 0 22 23" fill="none" xmlns="http://www.w3.org/2000/svg">
<g clip-path="url(#clip0_5972_25330)">
<path d="M11 0.5C4.92486 0.5 0 5.42486 0 11.5C0 17.5751 4.92486 22.5 11 22.5C17.0751 22.5 22 17.5751 22 11.5C21.9935 5.42758 17.0724 0.506491 11 0.5ZM17.0555 8.12692L9.19833 15.9841C8.89149 16.2908 8.39414 16.2908 8.08734 15.9841L4.94447 12.8412C4.63234 12.5397 4.62368 12.0424 4.92514 11.7302C5.22659 11.4181 5.72399 11.4094 6.03612 11.7109C6.04266 11.7172 6.04911 11.7236 6.05546 11.7302L8.64284 14.3176L15.9445 7.01593C16.2566 6.71447 16.754 6.72313 17.0555 7.03522C17.3496 7.33972 17.3496 7.82242 17.0555 8.12692Z" fill="#E27E55"/>
</g>
<defs>
<clipPath id="clip0_5972_25330">
<rect width="22" height="22" fill="white" transform="translate(0 0.5)"/>
</clipPath>
</defs>
</svg>
