<svg width="50" height="50" viewBox="0 0 50 50" fill="none" xmlns="http://www.w3.org/2000/svg">
<path fill-rule="evenodd" clip-rule="evenodd" d="M21.4828 6.63125L10.7031 6.625V43.375H39.2865L39.2847 24.4318C39.2847 23.9811 39.2457 23.5311 39.1714 23.0866C38.4285 18.6379 36.2615 15.6337 31.8128 16.3767L29.0781 16.8333L29.5348 14.0987C29.609 13.6541 29.6464 13.2042 29.6464 12.7535C29.6464 8.24316 25.9932 6.63125 21.4828 6.63125ZM16.4163 14.792C16.4163 14.0012 17.0575 13.36 17.8484 13.36H22.9525C23.7434 13.36 24.3846 14.0012 24.3846 14.792C24.3846 15.5829 23.7434 16.2241 22.9525 16.2241H17.8484C17.0575 16.2241 16.4163 15.5829 16.4163 14.792ZM16.4163 22.9587C16.4163 22.1678 17.0575 21.5267 17.8484 21.5267H32.14C32.9309 21.5267 33.5721 22.1678 33.5721 22.9587C33.5721 23.7496 32.9309 24.3907 32.14 24.3907H17.8484C17.0575 24.3907 16.4163 23.7496 16.4163 22.9587ZM16.4163 29.0837C16.4163 28.2928 17.0575 27.6517 17.8484 27.6517H32.14C32.9309 27.6517 33.5721 28.2928 33.5721 29.0837C33.5721 29.8746 32.9309 30.5157 32.14 30.5157H17.8484C17.0575 30.5157 16.4163 29.8746 16.4163 29.0837ZM16.4163 35.2087C16.4163 34.4178 17.0575 33.7767 17.8484 33.7767H32.14C32.9309 33.7767 33.5721 34.4178 33.5721 35.2087C33.5721 35.9996 32.9309 36.6407 32.14 36.6407H17.8484C17.0575 36.6407 16.4163 35.9996 16.4163 35.2087ZM29.0152 6.95177C34.1637 8.47844 37.663 12.1704 38.9436 17.4581C38.5838 16.8281 38.1529 16.2386 37.6373 15.7128C36.1741 14.2206 34.2754 13.4876 32.1263 13.5262C32.1277 13.4568 32.1285 13.3873 32.1285 13.3178C32.1285 10.5549 30.9894 8.36381 29.0152 6.95177Z" fill="#E27E55"/>
</svg>
