<svg width="48" height="50" viewBox="0 0 48 50" fill="none" xmlns="http://www.w3.org/2000/svg">
<path d="M18.9331 24.5376C17.7859 24.5376 16.8568 25.4663 16.8568 26.6108C16.8568 27.7572 17.7859 28.684 18.9331 28.684C20.0822 28.684 21.0112 27.7572 21.0112 26.6108C21.0112 25.4663 20.0822 24.5376 18.9331 24.5376ZM29.0572 33.0423C27.6256 32.4438 25.9798 33.1161 25.3799 34.5443C24.7801 35.9724 25.454 37.6143 26.8855 38.2128C28.3151 38.8112 29.9629 38.1389 30.5628 36.7108C31.1627 35.2827 30.4888 33.6408 29.0572 33.0423ZM29.0572 33.0423C27.6256 32.4438 25.9798 33.1161 25.3799 34.5443C24.7801 35.9724 25.454 37.6143 26.8855 38.2128C28.3151 38.8112 29.9629 38.1389 30.5628 36.7108C31.1627 35.2827 30.4888 33.6408 29.0572 33.0423ZM18.9331 24.5376C17.7859 24.5376 16.8568 25.4663 16.8568 26.6108C16.8568 27.7572 17.7859 28.684 18.9331 28.684C20.0822 28.684 21.0112 27.7572 21.0112 26.6108C21.0112 25.4663 20.0822 24.5376 18.9331 24.5376ZM37.1285 12.4343V1.5065H31.0906V6.8946L24.073 0.5L0.5 21.5491L4.08377 25.579L7.71818 22.305V49.5H40.2448V22.5071L43.8208 25.7811L47.5 21.8522L37.1285 12.4343ZM13.6684 25.9599L15.0376 25.7286C15.1389 25.2817 15.3162 24.864 15.5538 24.487L14.7474 23.3581L15.6726 22.4352L16.8042 23.2396C17.1821 23.0006 17.6008 22.8257 18.0488 22.7247L18.2806 21.3587H19.5875L19.8193 22.7247C20.2672 22.8257 20.686 23.0006 21.0638 23.2396L22.1955 22.4352L23.1206 23.3581L22.3143 24.487C22.5519 24.864 22.7291 25.2817 22.8304 25.7286L24.1996 25.9599V27.2637L22.8304 27.4929C22.7291 27.9418 22.5519 28.3595 22.3143 28.7365L23.1206 29.8654L22.1955 30.7864L21.0638 29.9839C20.686 30.221 20.2672 30.3978 19.8193 30.4989L19.5875 31.8648H18.2806L18.0488 30.4989C17.6008 30.3978 17.1821 30.221 16.8042 29.9839L15.6726 30.7864L14.7474 29.8654L15.5538 28.7365C15.3162 28.3595 15.1389 27.9418 15.0376 27.4929L13.6684 27.2637V25.9599ZM20.0355 36.9343L19.1298 37.0858C19.0616 37.3831 18.9447 37.659 18.787 37.9077L19.3206 38.6558L18.7091 39.2659L17.9592 38.7335C17.7099 38.8909 17.4333 39.0075 17.1353 39.0755L16.9834 39.979H16.1186L15.9648 39.0755C15.6687 39.0075 15.3902 38.8909 15.1409 38.7335L14.393 39.2659L13.7814 38.6558L14.3131 37.9077C14.1553 37.659 14.0385 37.3831 13.9723 37.0858L13.0646 36.9343V36.0715L13.9723 35.918C14.0385 35.6227 14.1553 35.3448 14.3131 35.0961L13.7814 34.35L14.393 33.7379L15.1409 34.2703C15.3902 34.1129 15.6687 33.9963 15.9648 33.9303L16.1186 33.0268H16.9834L17.1353 33.9303C17.4333 33.9963 17.7099 34.1129 17.9592 34.2703L18.7091 33.7379L19.3206 34.35L18.787 35.0961C18.9447 35.3448 19.0616 35.6227 19.1298 35.918L20.0355 36.0715V36.9343ZM33.2935 36.5592L34.8808 37.5619L34.1972 39.1882L32.3683 38.7607C32.008 39.2659 31.5678 39.6953 31.075 40.0412L31.486 41.8696L29.8499 42.538L28.8605 40.9447C28.2645 41.0438 27.649 41.0458 27.0374 40.937L26.0324 42.5205L24.4022 41.8385L24.8307 40.014C24.3243 39.6545 23.8938 39.2154 23.5472 38.7238L21.7144 39.1357L21.0444 37.5036L22.6415 36.5146C22.5421 35.92 22.5402 35.306 22.6493 34.6959L21.0619 33.6932L21.7436 32.0669L23.5744 32.4944C23.9348 31.9892 24.3749 31.5598 24.8677 31.2139L24.4548 29.3855L26.0909 28.7171L27.0822 30.3104C27.6782 30.2113 28.2937 30.2113 28.9053 30.3181L29.9103 28.7346L31.5405 29.4166L31.112 31.2411C31.6184 31.6006 32.0489 32.0397 32.3956 32.5313L34.2284 32.1213L34.8984 33.7535L33.3013 34.7405C33.4006 35.3351 33.4006 35.9491 33.2935 36.5592ZM29.0572 33.0423C27.6256 32.4438 25.9798 33.1161 25.3799 34.5443C24.7801 35.9724 25.454 37.6143 26.8855 38.2128C28.3151 38.8112 29.9629 38.1389 30.5628 36.7108C31.1627 35.2827 30.4888 33.6408 29.0572 33.0423ZM18.9331 28.684C20.0822 28.684 21.0112 27.7572 21.0112 26.6108C21.0112 25.4663 20.0822 24.5376 18.9331 24.5376C17.7859 24.5376 16.8568 25.4663 16.8568 26.6108C16.8568 27.7572 17.7859 28.684 18.9331 28.684ZM16.551 35.5411C16.0193 35.5411 15.5869 35.9724 15.5869 36.5029C15.5869 37.0333 16.0193 37.4628 16.551 37.4628C17.0827 37.4628 17.5132 37.0333 17.5132 36.5029C17.5132 35.9724 17.0827 35.5411 16.551 35.5411ZM18.9331 24.5376C17.7859 24.5376 16.8568 25.4663 16.8568 26.6108C16.8568 27.7572 17.7859 28.684 18.9331 28.684C20.0822 28.684 21.0112 27.7572 21.0112 26.6108C21.0112 25.4663 20.0822 24.5376 18.9331 24.5376ZM18.9331 24.5376C17.7859 24.5376 16.8568 25.4663 16.8568 26.6108C16.8568 27.7572 17.7859 28.684 18.9331 28.684C20.0822 28.684 21.0112 27.7572 21.0112 26.6108C21.0112 25.4663 20.0822 24.5376 18.9331 24.5376Z" fill="#E27E55"/>
</svg>
