<svg width="50" height="50" viewBox="0 0 50 50" fill="none" xmlns="http://www.w3.org/2000/svg">
<path fill-rule="evenodd" clip-rule="evenodd" d="M22.9867 2.98865C22.3442 2.56027 21.5068 2.56115 20.8652 2.99087C20.2235 3.42059 19.9039 4.19453 20.0553 4.9518L20.6357 7.85383C13.8029 9.75588 8.78906 16.0239 8.78906 23.463C8.78906 27.9588 10.6228 32.0299 13.5785 34.9629C14.327 35.7057 15.5359 35.7011 16.2787 34.9526C17.0215 34.2041 17.0169 32.9951 16.2684 32.2524C14.0056 30.0068 12.6078 26.8999 12.6078 23.463C12.6078 17.8775 16.3061 13.1558 21.3875 11.6129L22.097 15.1601C22.2484 15.9174 22.8411 16.5089 23.5987 16.6587C24.3563 16.8086 25.1296 16.4874 25.558 15.8448L29.6413 9.7198C30.2262 8.84239 29.9891 7.65692 29.1117 7.07198L22.9867 2.98865ZM38.4434 13.941C37.6949 13.1982 36.4859 13.2028 35.7431 13.9513C35.0004 14.6999 35.005 15.9088 35.7535 16.6516C38.0163 18.8971 39.4141 22.004 39.4141 25.4409C39.4141 31.066 35.6632 35.8151 30.5261 37.3233L29.9249 34.3175C29.7734 33.5602 29.1807 32.9687 28.4231 32.8189C27.6656 32.669 26.8923 32.9902 26.4639 33.6328L22.3806 39.7578C21.7956 40.6352 22.0327 41.8207 22.9101 42.4056L29.0351 46.489C29.6777 46.9173 30.515 46.9165 31.1567 46.4867C31.7984 46.057 32.118 45.2831 31.9666 44.5258L31.2774 41.08C38.1657 39.2145 43.2328 32.9194 43.2328 25.4409C43.2328 20.9451 41.3991 16.8741 38.4434 13.941Z" fill="#E27E55"/>
</svg>
