<svg xmlns="http://www.w3.org/2000/svg" width="1442" height="346" fill="none"><path fill="url(#a)" d="M1 318.473v26.998h1440V75.824l-94.88 8.344c-16.85 0-56.33 35.421-62.17 39.481l-20.31 10.932c-17.58 8.654-53.73 8.993-69.54-2.733l-40.63-30.973c-20.26-15.024-65.23-15.605-93.51-3.829l-19.95 8.306c-16.12 6.712-33.81 4.504-46.618-6.439a14 14 0 0 1-1.185-1.091c-.32-.33-.851-.948-1.128-1.315-.393-.519-.661-.951-1.197-1.816l-39.601-63.92c-7.802-13.231-46.495-14.42-57.849-1.775l-14.315 15.94c-14.813 16.497-49.052 22.188-88.189 22.629-1.695.019-2.542.028-3.552-.015a40 40 0 0 1-2.685-.212c-1.004-.116-1.943-.276-3.821-.597l-26.835-4.578c-20.381-2.156-39.607 4.914-48.834 14.575l-75.789 103.85c-6.539 9.044-24.811 15.113-44.708 13.431l-77.01-6.511c-33.779-2.855-55.254-4.187-85.081 18.553l-24.798 20.024c-22.483 18.156-59.619 31.205-102.867 36.147l-29.086 3.323c-13.367 1.528-25.706 4.622-35.878 8.999l-3.947 1.698c-19.552 8.412-54.495.931-74.863-3.741-2.991-.686-4.486-1.029-6.035-1.121a19 19 0 0 0-4.115.209c-1.531.249-2.992.744-5.913 1.735z"/><path fill="url(#b)" d="M1 318.473v26.998h1440V75.824l-94.88 8.344c-16.85 0-56.33 35.421-62.17 39.481l-20.31 10.932c-17.58 8.654-53.73 8.993-69.54-2.733l-40.63-30.973c-20.26-15.024-65.23-15.605-93.51-3.829l-19.95 8.306c-16.12 6.712-33.81 4.504-46.618-6.439a14 14 0 0 1-1.185-1.091c-.32-.33-.851-.948-1.128-1.315-.393-.519-.661-.951-1.197-1.816l-39.601-63.92c-7.802-13.231-46.495-14.42-57.849-1.775l-14.315 15.94c-14.813 16.497-49.052 22.188-88.189 22.629-1.695.019-2.542.028-3.552-.015a40 40 0 0 1-2.685-.212c-1.004-.116-1.943-.276-3.821-.597l-26.835-4.578c-20.381-2.156-39.607 4.914-48.834 14.575l-75.789 103.85c-6.539 9.044-24.811 15.113-44.708 13.431l-77.01-6.511c-33.779-2.855-55.254-4.187-85.081 18.553l-24.798 20.024c-22.483 18.156-59.619 31.205-102.867 36.147l-29.086 3.323c-13.367 1.528-25.706 4.622-35.878 8.999l-3.947 1.698c-19.552 8.412-54.495.931-74.863-3.741-2.991-.686-4.486-1.029-6.035-1.121a19 19 0 0 0-4.115.209c-1.531.249-2.992.744-5.913 1.735z"/><path stroke="url(#c)" stroke-linecap="square" stroke-width="4.659" d="m3.578 318.541 16.799-5.449c23.095-6.066 41.786-10.274 58.19-18.403l34.362-12.693c7.527-2.78 11.291-4.171 16.625-5.227 3.759-.745 10.553-1.357 14.385-1.298 5.437.085 8.28.585 13.967 1.584 13.407 2.355 27.133 5.156 37.428 5.502.344.011.515.017 2.083-.052.846-.037 3.323-.274 4.161-.398 1.552-.229 2.305-.401 3.809-.744l14.328-3.267c.7-.16 1.051-.24 1.361-.316.308-.076.52-.131.826-.213.308-.084.699-.197 1.48-.422 6.84-1.976 31.294-8.877 42.725-9.916l45.317-6.812c43.24-3.931 66.521-21.04 87.51-35.873l30.356-24.243c17.336-11.139 40.824-14.917 74.597-12.646l78.503 6.323c19.892 1.338 34.927 5.137 57.021-27.097l50.22-69.753c6.221-8.64 9.331-12.96 14.21-17.398 3.258-2.963 10.482-7.893 14.428-9.846 5.911-2.926 8.025-3.468 12.253-4.551 6.777-1.737 14.218-2.606 22.933-1.872l31.245 4.064c38.567 3.246 78.929-8.597 94.375-22.283L893.5 30.997c10.248-9.08 27.205-15.872 49.581-3.636 1.705.933 2.557 1.4 4.183 2.658 1.137.88 3.014 2.681 3.94 3.78 1.325 1.572 2.153 2.947 3.808 5.697L987.401 93.3c9.764 12.61 22.259 19.836 53.899 11.707l34.37-13.398c29.2-8.289 66.31.793 81.63 13.398l35.54 28c14.22 8.393 40.75 12.862 67.83 3.476 1.19-.41 1.78-.615 4.23-1.735 1.48-.675 4.95-2.535 6.33-3.39 2.29-1.421 3.62-2.434 6.28-4.46l46.52-35.404c13.29-9.536 30.48-8.628 37.51-9.082l77.46-6.415"/><path stroke="url(#d)" stroke-dasharray="2 2" d="M914.719 25.191v129.047"/><path fill="#BAD4FF" d="M933.781 19.457c0 10.217-8.282 18.5-18.5 18.5s-18.5-8.283-18.5-18.5 8.283-18.5 18.5-18.5 18.5 8.283 18.5 18.5"/><defs><linearGradient id="a" x1="736.101" x2="754.633" y1="67.064" y2="325.887" gradientUnits="userSpaceOnUse"><stop stop-color="#DDEBFF"/><stop offset="1" stop-color="#FAFCFF"/></linearGradient><linearGradient id="b" x1="736.101" x2="754.633" y1="67.064" y2="325.887" gradientUnits="userSpaceOnUse"><stop stop-color="#DDEBFF"/><stop offset="1" stop-color="#FAFCFF"/></linearGradient><linearGradient id="d" x1="913.719" x2="913.719" y1="25.191" y2="154.238" gradientUnits="userSpaceOnUse"><stop stop-color="#446CA9"/><stop offset="1" stop-color="#FAFCFF"/></linearGradient><radialGradient id="c" cx="0" cy="0" r="1" gradientTransform="rotate(11.998 -237.447 1596.384)scale(953.436 507.946)" gradientUnits="userSpaceOnUse"><stop stop-color="#8DB8FF"/><stop offset="1" stop-color="#FAFCFF"/></radialGradient></defs></svg>