<svg width="1239" height="239" viewBox="0 0 1239 239" fill="none" xmlns="http://www.w3.org/2000/svg">
<path d="M0 220.079V239H1238.66V50.0198L1157.05 55.8675C1142.56 55.8675 1108.6 80.692 1103.57 83.538L1086.1 91.1993C1070.98 97.2645 1039.89 97.5021 1026.28 89.284L991.335 67.5769C973.904 57.0471 935.223 56.6398 910.896 64.8935L893.739 70.7145C880.095 75.3435 865.145 73.9186 854.17 66.5642C853.687 66.2406 853.445 66.0788 852.909 65.6368C852.546 65.3374 851.883 64.7129 851.563 64.3683C851.089 63.8595 850.779 63.451 850.157 62.6341L816.556 18.445C809.845 9.17155 776.561 8.33925 766.795 17.2007L754.482 28.3728C741.192 40.4307 709.728 44.251 674.264 44.251L646.888 40.4456C629.357 38.9348 612.819 43.8896 604.882 50.6607L539.689 123.443C534.064 129.781 518.347 134.035 501.232 132.856L434.989 128.293C405.933 126.292 387.461 125.358 361.804 141.296L340.474 155.329C321.134 168.054 289.19 177.199 251.989 180.663L226.97 182.992C215.471 184.062 204.858 186.231 196.108 189.298L192.713 190.488C175.798 196.418 145.49 191.08 128.016 187.811C125.549 187.349 124.316 187.118 123.041 187.056C121.924 187.002 120.761 187.051 119.652 187.2C118.387 187.369 117.171 187.705 114.738 188.378L0 220.079Z" fill="url(#paint0_linear_139_813)"/>
<path d="M0 220.079V239H1238.66V50.0198L1157.05 55.8675C1142.56 55.8675 1108.6 80.692 1103.57 83.538L1086.1 91.1993C1070.98 97.2645 1039.89 97.5021 1026.28 89.284L991.335 67.5769C973.904 57.0471 935.223 56.6398 910.896 64.8935L893.739 70.7145C880.095 75.3435 865.145 73.9186 854.17 66.5642C853.687 66.2406 853.445 66.0788 852.909 65.6368C852.546 65.3374 851.883 64.7129 851.563 64.3683C851.089 63.8595 850.779 63.451 850.157 62.6341L816.556 18.445C809.845 9.17155 776.561 8.33925 766.795 17.2007L754.482 28.3728C741.192 40.4307 709.728 44.251 674.264 44.251L646.888 40.4456C629.357 38.9348 612.819 43.8896 604.882 50.6607L539.689 123.443C534.064 129.781 518.347 134.035 501.232 132.856L434.989 128.293C405.933 126.292 387.461 125.358 361.804 141.296L340.474 155.329C321.134 168.054 289.19 177.199 251.989 180.663L226.97 182.992C215.471 184.062 204.858 186.231 196.108 189.298L192.713 190.488C175.798 196.418 145.49 191.08 128.016 187.811C125.549 187.349 124.316 187.118 123.041 187.056C121.924 187.002 120.761 187.051 119.652 187.2C118.387 187.369 117.171 187.705 114.738 188.378L0 220.079Z" fill="url(#paint1_linear_139_813)"/>
<path d="M4.38281 218.607L18.8328 214.788C38.6984 210.537 54.7762 207.588 68.8862 201.891L98.9379 192.847C105.304 190.931 108.487 189.973 112.89 189.252C116.007 188.741 121.562 188.32 124.721 188.354C129.182 188.403 131.549 188.739 136.281 189.411C150.106 191.372 164.439 193.856 173.704 193.345L190.338 190.255C190.926 190.145 191.221 190.091 191.482 190.038C191.741 189.986 191.919 189.949 192.177 189.892C192.437 189.835 192.766 189.757 193.424 189.602C199.265 188.227 220.356 183.375 230.205 182.645L269.187 177.872C306.381 175.117 326.407 163.126 344.461 152.73L370.573 135.74C385.486 127.933 405.689 125.285 434.74 126.877L502.267 131.308C519.378 132.246 532.31 134.908 551.316 112.318L591.211 67.1695C597.784 59.731 601.07 56.0117 606.224 52.1492C609.557 49.6512 617.256 45.3721 621.137 43.8609C627.139 41.5241 628.903 41.2259 632.431 40.6297C637.52 39.7697 643.075 39.4013 649.414 39.836L676.291 42.6846C709.465 44.9593 744.184 36.6592 757.471 27.0674L769.782 18.1802C778.401 11.9577 793.101 7.49176 811.851 15.3576C813.486 16.0437 814.304 16.3868 816.059 17.4782C817.256 18.2231 819.371 19.8742 820.384 20.8548C821.869 22.2916 822.803 23.5395 824.671 26.0353L850.651 60.7494C859.05 69.5871 869.8 74.6513 897.012 68.9541L926.576 59.5643C951.695 53.7551 983.619 60.1201 996.791 68.9541L1027.36 88.5779C1039.51 94.4155 1062.08 97.5447 1085.19 91.1613C1086.25 90.8692 1086.78 90.7232 1089.05 89.8789C1090.42 89.3733 1093.68 87.9455 1094.98 87.2879C1097.14 86.1897 1098.41 85.4042 1100.94 83.8332L1140.22 59.4836C1151.64 52.8004 1166.43 53.4369 1172.48 53.1187L1235.99 50.2544" stroke="url(#paint2_radial_139_813)" stroke-width="4.65874" stroke-linecap="square"/>
<line x1="792.164" y1="15" x2="792.164" y2="119" stroke="url(#paint3_linear_139_813)" stroke-dasharray="2 2"/>
<path d="M801.664 10C801.664 15.5228 797.187 20 791.664 20C786.141 20 781.664 15.5228 781.664 10C781.664 4.47715 786.141 0 791.664 0C797.187 0 801.664 4.47715 801.664 10Z" fill="#B5D1FF"/>
<defs>
<linearGradient id="paint0_linear_139_813" x1="634.479" y1="42.3585" x2="645.079" y2="224.064" gradientUnits="userSpaceOnUse">
<stop stop-color="#DDEBFF"/>
<stop offset="1" stop-color="#FAFCFF"/>
</linearGradient>
<linearGradient id="paint1_linear_139_813" x1="634.479" y1="42.3585" x2="645.079" y2="224.064" gradientUnits="userSpaceOnUse">
<stop stop-color="#DDEBFF"/>
<stop offset="1" stop-color="#FAFCFF"/>
</linearGradient>
<radialGradient id="paint2_radial_139_813" cx="0" cy="0" r="1" gradientUnits="userSpaceOnUse" gradientTransform="translate(282.292 54.3917) rotate(9.82334) scale(814.151 358.605)">
<stop stop-color="#8DB8FF"/>
<stop offset="1" stop-color="#FAFCFF"/>
</radialGradient>
<linearGradient id="paint3_linear_139_813" x1="791.164" y1="15" x2="791.164" y2="119" gradientUnits="userSpaceOnUse">
<stop stop-color="#0166FF"/>
<stop offset="1" stop-color="#FAFCFF"/>
</linearGradient>
</defs>
</svg>
