<svg width="356" height="69" viewBox="0 0 356 69" fill="none" xmlns="http://www.w3.org/2000/svg">
<path d="M52.2363 14.1347L52.2584 27.299H63.1849C73.0398 27.299 74.1115 27.321 74.1778 27.4746C74.2662 27.694 74.2662 33.0475 74.1778 33.2669C74.1226 33.4095 73.8905 33.4424 72.7526 33.4424C72.0013 33.4424 71.3163 33.4753 71.2169 33.5082C71.0622 33.5631 71.0401 33.8373 71.0401 35.3732V37.1723H72.5758C73.8684 37.1723 74.1226 37.1942 74.1778 37.3478C74.2772 37.6001 74.2551 43.0194 74.1557 43.173C74.1005 43.2717 73.6033 43.3156 72.5869 43.3376L71.0954 43.3705L71.0622 45.3122L71.0401 47.2649H72.5758C73.8684 47.2649 74.1226 47.2869 74.1778 47.4404C74.2109 47.5392 74.2441 48.8666 74.2441 50.3914C74.2441 52.772 74.222 53.1998 74.0673 53.3424C73.9347 53.485 73.6143 53.518 72.4653 53.518H71.0401V55.4377V57.3575H72.5758C73.8684 57.3575 74.1226 57.3795 74.1778 57.5331C74.2109 57.6318 74.2441 58.9592 74.2441 60.4841C74.2441 62.8646 74.222 63.2925 74.0673 63.4351C73.9347 63.5777 73.6143 63.6106 72.4653 63.6106H71.0401V66.024V68.4375H80.5967H90.1533V34.704V0.970444H71.1838H52.2031L52.2363 14.1347ZM64.113 6.80662C64.2897 6.93826 64.3008 7.22348 64.2787 9.85635L64.2456 12.7635L61.13 12.7964L58.0034 12.8183V9.81247C58.0034 7.03699 58.0144 6.79565 58.2022 6.75177C58.3017 6.71885 59.6385 6.69691 61.1631 6.68594C63.2181 6.67497 63.9804 6.70788 64.113 6.80662ZM74.0563 6.80662C74.233 6.93826 74.2441 7.22348 74.222 9.85635L74.1888 12.7635L71.0733 12.7964L67.9467 12.8183V9.81247C67.9467 7.03699 67.9577 6.79565 68.1455 6.75177C68.245 6.71885 69.5818 6.69691 71.1064 6.68594C73.1614 6.67497 73.9237 6.70788 74.0563 6.80662ZM84.1653 6.7408L84.4083 6.80662V9.81247V12.8183H81.2596H78.1109V9.81247C78.1109 7.03699 78.122 6.79565 78.3098 6.75177C78.597 6.67497 83.878 6.664 84.1653 6.7408ZM64.2456 19.6747V22.6367L61.13 22.6696L58.0034 22.6915V19.6747V16.6579L61.13 16.6798L64.2456 16.7128V19.6747ZM74.1888 19.6747V22.6367L71.0733 22.6696L67.9467 22.6915V19.6747V16.6579L71.0733 16.6798L74.1888 16.7128V19.6747ZM84.4083 19.6747V22.6915L81.2928 22.6696L78.1662 22.6367L78.133 19.6418L78.1109 16.6579H81.2596H84.4083V19.6747ZM84.4083 30.3707V33.4424H81.2596H78.1109V30.3707V27.299H81.2596H84.4083V30.3707ZM84.4083 40.2439V43.3156H81.2596H78.1109V40.2439V37.1723H81.2596H84.4083V40.2439ZM84.4083 50.3256V53.3863L84.1653 53.4521C83.7233 53.5618 78.5528 53.5289 78.3208 53.4083C78.122 53.2986 78.1109 53.145 78.1109 50.3476C78.1109 48.7349 78.1441 47.3746 78.1883 47.3417C78.2214 47.2978 79.6466 47.2649 81.337 47.2649H84.4083V50.3256ZM84.3862 60.3744C84.4083 63.0621 84.3973 63.3473 84.2205 63.468C83.9775 63.6435 78.6523 63.6654 78.3208 63.5009C78.122 63.3912 78.1109 63.2376 78.1109 60.4402C78.1109 58.8276 78.1441 57.4672 78.1883 57.4343C78.2324 57.3905 79.6356 57.3685 81.3038 57.3795L84.3531 57.4124L84.3862 60.3744Z" fill="#003990"/>
<path d="M92.9688 17.7617V24.714H98.0846C102.151 24.7249 103.234 24.7466 103.39 24.8661C103.569 24.9964 103.58 26.0719 103.58 44.6802C103.58 64.0271 103.58 64.353 103.368 64.4725C103.223 64.5377 101.357 64.5811 98.0511 64.5811H92.9688L92.9911 66.5039L93.0246 68.4375H100.285H107.546L107.579 46.7333C107.602 28.1033 107.624 24.9964 107.758 24.8661C107.87 24.7575 108.194 24.714 108.875 24.714H109.836V23.3018C109.836 22.5197 109.791 21.8896 109.746 21.8896C109.623 21.8896 109.098 21.4768 108.484 20.8794C108.194 20.5969 107.903 20.3688 107.836 20.3688C107.78 20.3688 107.501 20.1516 107.233 19.88C106.954 19.6084 106.697 19.3911 106.663 19.3911C106.585 19.3911 106.138 19.0327 105.747 18.6525C105.602 18.5221 105.457 18.4135 105.423 18.4135C105.312 18.4135 104.809 17.8812 104.809 17.7617C104.809 17.7074 104.708 17.6531 104.586 17.6531C104.463 17.6531 104.362 17.5987 104.362 17.5444C104.362 17.4793 104.306 17.4358 104.239 17.4358C104.116 17.4358 103.804 17.1642 103.804 17.0556C103.804 16.9687 103.502 16.6754 103.413 16.6754C103.335 16.6754 103.145 16.5233 102.743 16.154C102.597 16.0236 102.452 15.915 102.419 15.915C102.385 15.915 102.117 15.6977 101.827 15.4262C101.547 15.1546 101.268 14.9373 101.212 14.9373C101.156 14.9373 100.832 14.6657 100.497 14.3399C100.151 14.014 99.8272 13.7424 99.7601 13.7424C99.7043 13.7424 99.4362 13.5251 99.157 13.2536C98.8889 12.982 98.6431 12.7647 98.6096 12.7647C98.5538 12.7647 98.4086 12.6452 97.716 12.026C97.5708 11.8957 97.4144 11.7871 97.3809 11.7871C97.3474 11.7871 97.1463 11.6241 96.9341 11.4286C96.7219 11.2439 96.4761 11.0158 96.3868 10.9397C96.2639 10.8528 95.7278 10.8094 94.5884 10.8094H92.9688V17.7617Z" fill="#003990"/>
<path d="M45.9142 28.2366C45.9034 29.7057 45.8709 30.2134 45.7626 30.2783C45.6868 30.3323 43.943 30.3755 41.8851 30.3755H38.1484V49.3876V68.3997L53.4309 68.4213C61.8358 68.4429 68.7892 68.4429 68.8867 68.4213C69.06 68.3889 69.0708 67.0818 69.0708 49.3768V30.3755H59.7021H50.3333V28.323V26.2706H48.1346H45.9359L45.9142 28.2366ZM64.9551 51.116V64.6189H58.7273H52.4995V58.7856V52.9524H49.261C46.4125 52.9524 46.0117 52.974 45.9576 53.1252C45.9251 53.2224 45.8926 55.815 45.8926 58.8936C45.8926 63.8951 45.8709 64.5 45.7193 64.5541C45.6218 64.5865 44.8311 64.6189 43.943 64.6189C42.7949 64.6189 42.3184 64.5757 42.2425 64.4784C42.0801 64.284 41.9501 38.1099 42.1017 37.8291C42.2209 37.613 42.3833 37.613 53.5826 37.613H64.9551V51.116Z" fill="#003990"/>
<path d="M46.5781 44.2717C46.5781 46.4503 46.6077 48.3479 46.6373 48.4884L46.6965 48.7578H49.3893C51.7565 48.7578 52.0919 48.7344 52.1412 48.5704C52.1708 48.465 52.2004 46.5675 52.2004 44.3537V40.3244H49.3893H46.5781V44.2717Z" fill="#003990"/>
<path d="M55.0156 44.3303C55.0277 47.4811 55.052 48.3947 55.1853 48.547C55.3307 48.7344 55.6457 48.7578 58.6992 48.7578H62.0434V44.5411V40.3244H58.5295H55.0156V44.3303Z" fill="#003990"/>
<path d="M55.1731 51.7462C55.052 51.8751 55.0156 52.8707 55.0156 55.8926C55.0156 59.4065 55.0399 59.8751 55.2095 59.9336C55.3185 59.9688 56.8937 60.0039 58.7234 60.0039H62.0434V55.7872V51.5705H58.6871C55.9365 51.5822 55.2943 51.6057 55.1731 51.7462Z" fill="#003990"/>
<path d="M92.9926 31.8594L93.0283 36.0539L96.5184 36.0872L99.9966 36.1094V31.8927V27.676H96.4827H92.9688L92.9926 31.8594Z" fill="#003990"/>
<path d="M93.0521 40.3845C93.0045 40.4187 92.9688 42.3264 92.9688 44.6111V48.7578H96.4827H99.9966L99.9727 44.554L99.937 40.3616L96.5303 40.3273C94.6602 40.3159 93.0998 40.3388 93.0521 40.3845Z" fill="#003990"/>
<path d="M93.0091 51.7167C92.9732 51.7842 92.9613 53.6732 92.9732 55.8997L93.0091 59.9477L96.5088 59.9814L99.9966 60.0039V55.7872V51.5705H96.5327C93.8571 51.5705 93.0449 51.6043 93.0091 51.7167Z" fill="#003990"/>
<path d="M123.883 18.8658H129.998V50.5403H123.883V18.8658ZM126.092 18.8658H142.964V24.6169H126.092V18.8658Z" fill="#003990"/>
<path d="M166.633 50.5185V25.1833L167.168 25.7497L154.916 50.5185H147.619V18.8658H153.466V44.5714L152.93 44.005L165.227 18.8658H172.48V50.5185H166.633Z" fill="#003990"/>
<path d="M190.86 50.867C188.39 50.867 186.277 50.4096 184.522 49.4946C182.766 48.5651 181.427 47.2218 180.505 45.4645C179.582 43.6927 179.121 41.5578 179.121 39.0599V30.368C179.121 27.87 179.582 25.7424 180.505 23.9851C181.427 22.2134 182.766 20.8627 184.522 19.9333C186.277 19.0038 188.39 18.5391 190.86 18.5391C192.898 18.5391 194.721 18.9675 196.327 19.8243C197.934 20.6812 199.258 21.9302 200.3 23.5712C201.356 25.1978 202.085 27.1657 202.487 29.4748H196.149C195.911 28.4292 195.539 27.536 195.033 26.7953C194.542 26.0547 193.939 25.4883 193.225 25.0961C192.526 24.704 191.738 24.508 190.86 24.508C189.714 24.508 188.74 24.7403 187.936 25.2051C187.133 25.6553 186.515 26.3233 186.084 27.2092C185.667 28.0806 185.459 29.1335 185.459 30.368V39.0599C185.459 40.2944 185.667 41.3473 186.084 42.2186C186.515 43.09 187.133 43.7581 187.936 44.2228C188.74 44.673 189.714 44.8981 190.86 44.8981C191.752 44.8981 192.556 44.7093 193.27 44.3317C193.984 43.9396 194.587 43.3732 195.078 42.6325C195.569 41.8919 195.926 40.9915 196.149 39.9313H202.487C202.07 42.2404 201.334 44.2155 200.277 45.8566C199.236 47.4832 197.912 48.7249 196.305 49.5818C194.713 50.4386 192.898 50.867 190.86 50.867Z" fill="#003990"/>
<path d="M244.647 33.1564L252.503 18.8658H259.555L249.178 37.0558L244.647 33.1564ZM244.625 36.5983L250.182 34.3109L260.916 50.5403H253.262L244.625 36.5983ZM227.865 34.3109L233.422 36.5983L224.785 50.5403H217.131L227.865 34.3109ZM218.492 18.8658H225.544L233.4 33.1564L228.869 37.0558L218.492 18.8658ZM228.289 31.9364H249.758V37.6875H228.289V31.9364ZM235.966 18.8658H242.081V50.5403H235.966V18.8658Z" fill="#003990"/>
<path d="M274.141 33.1564L282.443 18.8658H289.495L278.671 37.0558L274.141 33.1564ZM274.119 36.5983L279.676 34.3109L290.856 50.5403H283.202L274.119 36.5983ZM265.103 18.8658H271.217V50.5403H265.103V18.8658ZM267.758 31.9364H279.252V37.6875H267.758V31.9364Z" fill="#003990"/>
<path d="M303.545 37.5786L302.921 36.5547L292.186 18.8658H298.636L305.911 30.869L306.759 32.285L317.851 50.5403H311.401L303.545 37.5786ZM310.91 18.8658H317.36L298.368 50.5403H291.918L310.91 18.8658Z" fill="#003990"/>
</svg>
