<svg xmlns="http://www.w3.org/2000/svg" width="210" height="45" fill="none"><mask id="a" width="211" height="46" x="-1" y="0" maskUnits="userSpaceOnUse" style="mask-type:luminance"><path fill="#fff" d="M209.984.008h-210v45h210z"/></mask><g fill="#003990" mask="url(#a)"><path d="M55.992 2.016h-3v11h3zM55.992 13.016h-3v11h3z"/><path d="M55.992 23.016h-3v11h3z"/><path d="M55.992 34.012h-3v11h3zM24.962 22.187c-.01-.01-.256-.274-.683-.274-.226 0-.457.074-.688.21a.11.11 0 0 0-.056.116c0 .011.17 1.19.04 1.695-.097.38-.41.826-.98.826-.123 0-.246-.02-.38-.057h-.005l.431-.3a.12.12 0 0 0 .052-.1q-.002-.063-.052-.1l-.857-.606c.272-.21.441-.358.462-.379a.11.11 0 0 0 .041-.084.12.12 0 0 0-.036-.09l-.154-.157a.12.12 0 0 0-.082-.037.12.12 0 0 0-.072.026c-.01.005-.236.184-.58.426l-.344-.242 1.345-.947.103.274a.11.11 0 0 0 .102.073h.006a.12.12 0 0 0 .102-.063l.642-1.21a.14.14 0 0 0-.005-.127.12.12 0 0 0-.098-.052h-.015l-1.325.205a.12.12 0 0 0-.097.084c-.01.042 0 .09.036.121l.215.195-1.53 1.079-1.525-1.079.215-.195c.031-.031.047-.079.031-.12a.105.105 0 0 0-.092-.085l-1.325-.205h-.015c-.041 0-.077.016-.098.053a.12.12 0 0 0-.005.126l.637 1.21c.02.037.061.063.102.063h.006c.046 0 .082-.031.102-.073l.108-.274 1.346.947-.345.242a12 12 0 0 1-.575-.426.12.12 0 0 0-.072-.026c-.03 0-.061.01-.082.037l-.154.158a.13.13 0 0 0-.036.09.11.11 0 0 0 .041.083c.026.021.195.169.468.38l-.858.605a.12.12 0 0 0-.051.1c0 .042.02.073.051.1l.431.3H18.8a1.4 1.4 0 0 1-.38.058c-.57 0-.888-.448-.986-.827-.128-.505.041-1.684.041-1.695.006-.047-.015-.094-.056-.115-.236-.137-.467-.21-.688-.21a.95.95 0 0 0-.688.273.1.1 0 0 0-.031.068c-.005.074-.139 1.774.632 2.637.282.316.657.479 1.104.479.077 0 .164 0 .246-.016a6 6 0 0 0 1.279-.32l.713.494-1.576 1.095c-.03.026-.051.058-.051.1 0 .036.015.073.051.1l1.582 1.12-1.35.959-.104-.269c-.015-.042-.056-.068-.102-.073h-.005a.12.12 0 0 0-.103.063l-.637 1.21a.13.13 0 0 0 .005.121c.02.032.057.053.098.053h.015l1.325-.2a.11.11 0 0 0 .093-.084.13.13 0 0 0-.031-.127l-.221-.2 1.53-1.084 1.53 1.084-.22.2c-.036.032-.047.08-.036.127.01.042.051.073.097.084l1.325.2h.015a.12.12 0 0 0 .098-.053.11.11 0 0 0 .005-.12l-.642-1.211a.12.12 0 0 0-.102-.063h-.006a.11.11 0 0 0-.102.073l-.103.269-1.35-.958 1.581-1.121a.12.12 0 0 0 .052-.1c0-.042-.021-.074-.052-.1l-1.576-1.095.713-.495c.411.153.837.269 1.274.321q.131.016.246.016c.452 0 .822-.163 1.104-.479.77-.863.637-2.563.632-2.637a.13.13 0 0 0-.026-.068m-4.467 1.252.339.237q-.162.104-.34.216c-.117-.074-.23-.142-.338-.216zm-1.233.869.468-.332q.136.087.287.19-.277.15-.554.284zm2.44 2.416-1.207.852-1.202-.852 1.202-.837zm-1.207-1.558-.58-.405c.205-.1.395-.2.58-.306q.277.157.585.306zm1.037-.716a7 7 0 0 1-.56-.284c.103-.063.195-.127.288-.19l.472.332zM25.555 23.06c.046-.093.067-.27.067-.27l-.067-.02z"/><path d="M40.937 18.89c-.5-.301-1.327-.405-2.17-.327 1.317-.458 2.217-1.436 2.264-2.31-.687-.198-1.4-.095-2.02.046.64-.479 1.692-1.353 1.562-2.639-.62-.15-1.754.281-2.228.495 1.52-.854 2.066-2.873 1.26-4.018-.479.281-2.65 2.498-3.003 2.753 1.124-1.285 1.65-2.206 1.952-3.07.359-.942.385-2.587-.781-3.139-.552 1.26-2.477 4.492-3.55 5.834-.12-.104-.213-.244-.364-.27-.255.817-1.015 1.905-1.707 2.425-.036-.068-.104-.255-.224-.458-.733 1.098-2.638 2.602-3.252 3.529-.479.687-.479 1.306.187 1.946.27.27.78.744.338 1.41-.603.88-1.816.984-2.472.464q-.001-.235-.01-.448c.775-.302.958-1.358.385-2.014-.125.24-.333.416-.583.505-.067-.276-.125-.406-.13-.422l-.031-.062h-.068c-.005 0-.26-.016-.64-.057.432-.14.708-.542.645-1.078-.666.573-1.332.026-1.483-.125-.416-.489-.536-1.04-.37-1.884.141-.733.901-1.9 1.4-2.274.074.068.188.208.433.187.14-.046.374-.166.551-.234a1.6 1.6 0 0 1 1.307.167c.572.349.52.734.504 1.015.87-.49.568-1.307-.572-1.608.78 0 1.42.713 1.587.801.432.317 1.052.245 1.41.073.693-.328.833-1.145.646-1.312-.068.292-.291.552-.692.599-.594.067-1.166-.187-1.619-.39-.385-.162-1.004-.282-1.426-.255.78-.432 1.994-.386 2.425.28.26-.208.422-.395.495-.827.224-1.166-.687-1.764-1.66-1.764.026-.281-.172-.422-.432-.328 0-.12-.031-.213-.1-.26.022 0 .053-.01.074-.01.978-.068 1.905-.37 2.404-.896.874-.937-.52-2.123-.02-3.044.478.208.832.478 1.493.572.067.14.13.422.15.573.214 1.04-.811 1.212-.546 2.32.115.505.495.677.62 1.276 0 0 .047.416-.318.78.843.021 1.286-.692 1.026-1.353-.115-.27-.407-.525-.407-.843.432.573.818.552 1.484.338.302-.093.328.328.14.667.458-.271.573-.713.573-.911 0-.469-.365-.687-.713-.593-.198.02-.593.291-.62-.094-.083-.666.968-.64.755-1.712-.114-.536-.713-.833-1.645-.948-.093-.093-.327-.317-.452-.504-.51-.849-1.041-1.073-1.359-.9-.374.187-.567.348-.874.514-.245.13-.505.198-.666.386-.406.504-.02 1.285.187 1.764.14.28.48.921.328 1.4-.166.572-1.108.931-1.68 1.051-.037 0-.063.01-.1.01v-.223c.167-.292.307-.64.422-.958.385-1.03-.187-1.447-1.036-1.644a.4.4 0 0 0-.364-.047h-.026l-.02.171-.115-.036.026-.208h-.053c.1-.068.141-.187.141-.302a.5.5 0 0 0-.094-.291h.115l-.047-.047a.7.7 0 0 0-.14-.167c-.021-.02-.047-.067-.047-.094.02.021.046.047.093.068.047.047.115.094.14.14l.069.048v-.942l-.068.057c-.02.02-.094.067-.14.12-.047.046-.068.046-.094.067 0-.02.02-.047.046-.094a.45.45 0 0 0 .141-.15l.047-.073h-.958l.047.073c.047.03.104.104.151.15.02.047.047.073.068.094-.026-.02-.068-.02-.094-.068-.083-.046-.125-.093-.172-.12l-.036-.056v.957l.047-.047a.8.8 0 0 1 .171-.14c.027-.021.068-.047.094-.068-.026.02-.047.068-.067.094-.047.073-.11.114-.151.166l-.047.047h.15c-.083.068-.104.167-.104.292 0 .114.047.234.125.301h-.02l.02.209-.124.036-.026-.172h-.021a.37.37 0 0 0-.349.047c-.864.198-1.436.62-1.051 1.645.12.317.26.666.432.957v.151c-.864-.28-2.42-1.228-2.837-1.8a1 1 0 0 1-.104-.14h-.005l.016-.62c.302-.505.572-1.124.78-1.692.547-1.483-.26-2.102-1.54-2.357a.52.52 0 0 0-.505-.068l-.047.234-.27-.02.02-.302c-.036.01-.083.01-.13.01a.63.63 0 0 0 .313-.546c0-.167-.084-.365-.224-.458h.224c-.13-.115-.339-.36-.38-.526.161.047.406.265.52.385V.519c-.114.094-.359.328-.52.35.041-.136.25-.37.38-.49h-1.213c.094.12.328.354.349.49-.14-.022-.375-.256-.505-.35v1.213c.13-.12.359-.338.505-.385-.021.161-.255.406-.349.526h.208c-.14.093-.208.291-.208.458 0 .229.114.458.302.546-.047 0-.094 0-.167-.02l.026.301-.27.02-.026-.233a.57.57 0 0 0-.51.067c-1.27.26-2.077.875-1.53 2.358.187.567.458 1.192.78 1.691v.64c-.02.021-.047.068-.094.115-.405.572-1.972 1.52-2.836 1.8v-.15c.172-.292.318-.64.432-.958.385-1.03-.187-1.447-1.051-1.644a.37.37 0 0 0-.349-.047h-.02l-.027.171-.114-.036.02-.208h-.02a.45.45 0 0 0 .114-.302c0-.125-.02-.224-.093-.291h.14l-.047-.047a1 1 0 0 1-.14-.167c-.021-.02-.057-.067-.083-.094.026.021.083.047.104.068.067.047.114.094.166.14l.047.048v-.942l-.047.057c-.047.02-.094.067-.166.12-.021.046-.078.046-.104.067a.3.3 0 0 0 .083-.094c.047-.046.093-.114.14-.15l.047-.073h-.957l.046.073c.021.03.084.104.13.15.047.047.068.073.068.094-.015-.026-.041-.026-.083-.073-.057-.047-.13-.093-.151-.12l-.073-.057v.958l.073-.047c.02-.047.094-.094.151-.14.047-.021.068-.047.088-.068 0 .02-.02.068-.067.094-.047.072-.11.114-.13.166l-.047.047h.125a.45.45 0 0 0-.11.291c0 .115.047.235.157.302h-.047l.026.208-.13.037-.021-.172h-.026a.37.37 0 0 0-.349.047c-.864.198-1.436.62-1.051 1.645.12.317.26.666.432.957V9.7c-.037 0-.068-.01-.094-.01-.572-.12-1.53-.48-1.691-1.052-.151-.479.187-1.119.328-1.4.223-.479.598-1.26.203-1.764-.177-.187-.432-.255-.682-.385-.302-.161-.49-.328-.875-.515-.307-.172-.827.046-1.358.9-.114.187-.359.406-.458.505-.92.114-1.514.406-1.644.947-.214 1.072.838 1.051.77 1.712-.026.385-.432.115-.62.094-.364-.094-.723.125-.723.593 0 .198.13.64.573.911-.188-.338-.167-.76.15-.666.667.213 1.036.234 1.473-.338 0 .312-.28.572-.406.843-.26.666.172 1.374 1.026 1.353-.385-.365-.307-.78-.307-.78.12-.6.494-.771.619-1.276.26-1.108-.77-1.28-.546-2.321.02-.151.067-.432.14-.573.666-.093 1.03-.359 1.494-.572.479.921-.9 2.108-.021 3.045.505.525 1.436.827 2.404.895.021 0 .052.01.078.015-.067.047-.104.136-.104.255-.255-.093-.453.047-.416.328-1.005 0-1.89.599-1.67 1.764.067.432.234.62.504.828.422-.666 1.634-.713 2.425-.281-.432-.026-1.051.094-1.43.255-.448.198-1.016.458-1.609.39-.411-.047-.62-.302-.703-.598-.187.166-.046.978.651 1.311.349.172.968.245 1.4-.073.166-.093.807-.801 1.592-.801-1.134.302-1.452 1.119-.562 1.608-.036-.281-.078-.666.49-1.015a1.64 1.64 0 0 1 1.311-.166c.172.067.406.187.547.234.244.02.359-.12.431-.187.505.374 1.239 1.54 1.4 2.274.177.843.047 1.39-.374 1.884-.14.15-.817.697-1.478.125-.063.536.213.931.645 1.077-.385.042-.645.057-.65.057h-.068l-.026.063c-.005.01-.063.145-.136.416a1.08 1.08 0 0 1-.572-.505c-.572.656-.396 1.707.375 2.01q-.009.216-.01.457c-.662.51-1.859.4-2.452-.474-.458-.666.068-1.145.328-1.41.666-.64.666-1.26.182-1.946-.62-.921-2.519-2.43-3.253-3.529-.12.198-.187.385-.213.458-.687-.52-1.457-1.608-1.712-2.425-.14.02-.245.166-.364.27-1.062-1.342-2.998-4.574-3.545-5.834-1.155.552-1.134 2.197-.78 3.139.312.864.838 1.785 1.946 3.07-.348-.26-2.519-2.472-2.997-2.753-.802 1.145-.255 3.164 1.259 4.018-.463-.213-1.608-.646-2.227-.495-.115 1.286.92 2.16 1.56 2.64-.624-.142-1.337-.245-2.024-.048.047.875.958 1.858 2.238 2.311-.817-.083-1.644.026-2.15.328.095.91 1.125 1.697 2.358 1.884-.827.094-1.56.458-1.946.957.453.594 1.119 1.052 2.134 1.03a2.2 2.2 0 0 0-.734.464.2.2 0 0 0-.115-.047c-.052.021-.067.094-.052.14v.037c-.098.068-.15.151-.16.234a2 2 0 0 0-.246.432c.026.01.047.037.068.047a.4.4 0 0 0 .073.25c-.047.047-.068.114-.094.187l-.593-.239c-.031.541.088.984.36 1.26.212.244.457.208.384.29l.646.396c.114.245.348.245.51.177v.047c0 .255.177.463.406.547-.047.213.046.348.338.447l2.425 5.881c-.094.281 0 .526.213.62a.4.4 0 0 0-.093.28c.093-.067.234-.093.302.105.046.14-.209.593.176.9a.605.605 0 0 0 .37.666c0 .14.13.593.15.755-.17.245-.572.62-.52 1.03.047.292.162.385.396.458-.094.526.198.76.64.786 0 .385.36.52.593.547.224.166.318.234.573.364-.234.276-.068.64.359.76.047.161.167.302.406.359.14.234.395.234.546.166.094-.046.26-.317.115-.551.093-.115.047-.339-.021-.48.14-.254.02-.572-.172-.665.026-.14-.047-.365-.093-.5.338-.213.76-.479.91-.572.828-.594 1.765-1.125 2.826-1.192.27-.026.77-.047 1.052-.026.431.047 1.025.177 1.374-.094.109-.068.176-.187.156-.302-.047-.27-.339-.505-.432-.744a3 3 0 0 0-.115-.281c.302.052.583.01.755-.073.187-.068.64-.406.62-.91-.365.171-1.24.405-1.333-.48-.094-.78.593-1.446 1.67-1.155.734.188 1.806 1.749.828 2.43-.479.329-1.213.64-1.12 1.494.313-.385.735-.572 1.281-.525-.801.593-1.42.666-2.264 1.119-.733.431-1.28 1.145-1.858 1.165-.442.021-.687-.505-.255-.91-.432-.094-1.004.244-1.165.697-.209.62-.047 1.062.338 1.312-.52.28-.91.827-.723 1.608.176.64.817.64.572 1.457.36-.094.593-.338.697-.687.047-.245.094-.5.214-.62-.052.49.229 1.213.9 1.541.453.224 1.166.312 1.712-.255.224.64.979 1.192 1.764 1.166.36 0 .713-.156.979-.312.187.473.666.957 1.14 1.186.489-.229.968-.713 1.165-1.186.26.16.62.312.968.312.755.02 1.551-.526 1.765-1.166.546.567 1.26.479 1.712.255.666-.328.947-1.051.9-1.54.125.12.172.374.224.619a.92.92 0 0 0 .687.687c-.245-.817.411-.817.572-1.457.188-.781-.197-1.333-.713-1.608.375-.245.552-.687.328-1.312-.161-.453-.733-.791-1.166-.697.433.405.198.931-.255.91-.572-.02-1.118-.739-1.857-1.165-.838-.458-1.458-.526-2.264-1.12.546-.046.978.141 1.28.526.094-.853-.64-1.165-1.119-1.493-.968-.682.094-2.244.843-2.43 1.062-.292 1.764.374 1.655 1.155-.114.89-.968.655-1.353.478 0 .5.453.838.64.911.219.104.625.161.984.005-.01.089-.026.182-.026.209-.073.76-.48.827-.339 1.14.198.233 1.505.187 1.858.26.62.083 1.145.312 1.739.431.666.141 1.374.141 1.972.386.385.166.817.478 1.192.666.572.093.479.328.843.328.328 0 .453-.281.874-.396.292-.068.62.047.911-.047.213-.047.307-.265.505-.385.234-.14.562-.14.78-.343.115-.104.14-.302.12-.443l.005.032c.448-.313.786-.77.974-1.296a.256.256 0 0 0 .208-.245v-.047a.5.5 0 0 0 .187-.375.57.57 0 0 0-.187-.431v-.047c0-.094-.047-.162-.094-.224a2.66 2.66 0 0 0-1.952-2.087v-.047h-.02q-.001-.072-.058-.073c-.14-.14-.307-.359-.327-.5.16.047.431.302.572.407v-1.343c-.14.104-.406.359-.572.406.02-.167.275-.458.405-.573h-1.363c.125.115.385.406.406.573-.161-.047-.432-.302-.567-.406v1.342c.14-.104.406-.359.567-.405-.021.166-.281.457-.406.572l.047.02a2.69 2.69 0 0 0-2.02 2.114.29.29 0 0 0-.114.224v.047a.57.57 0 0 0-.187.431c0 .136.067.281.187.375v.047c0 .15.094.224.208.245.047.13.104.26.167.374 0-.01 0-.01.015-.026-.083.385-.551.62-.655.62-.833.12-1.754-.235-2.592-.547-.37-.14-.875-.302-1.12-.666-.15-.265-.218-.432-.14-.666.094.114.245.244.458.359.021-.115.021-.245.068-.338.213.317.552.478.958.458-.245-.209-.36-.76-.245-1.239.338.573 1.624.687 1.858-.338-.479.224-.786-.021-.874-.281-.14-.411.328-1.405-.094-2.17-.338-.573-.724-.922-1.619-1.062a.8.8 0 0 0 .115-.365c-.828.302-1.54.068-1.879-.593.167.068.406.094.64.094-.733-.599-.687-2.29-.161-3.165.068-.046.094-.093.161-.114.162.328.64.328.885.593.094-.093.14-.12.234-.197 0 0 .021 1.39.115 1.962.093.64.713.572 1.03.853.375-.411 1.051-.39.947-1.098-.093-.708-.234-1.353-.255-1.832.208.432.62 2.056.781 2.519.265.687.931.479 1.306.75.245-.48.864-.62.62-1.343-.068-.188-1.083-2.321-1.234-2.733.36.526 1.343 2.405 1.645 2.93.338.547.957.281 1.4.417.083-.396.681-.854.244-1.54-.546-.911-1.832-2.499-1.9-2.723.256.245 2.249 2.722 2.405 2.858.463.406 1.14.093 1.54.093 0-.452.36-.968-.16-1.493-.48-.458-1.578-1.239-1.812-1.504.734.504 1.598 1.306 2.113 1.436.91.234 1.239-.13 1.577-.27-.281-.828.094-1.213-1.832-2.02 1.665.593 2.404.302 2.998-.166-.235-.594-.828-1.093-1.312-1.26 1.02.02 1.697-.432 2.14-1.03-.375-.5-1.12-.864-1.973-.958 1.26-.172 2.264-.952 2.378-1.863M2.306 25.007c-.021 0-.021.02-.047.047-.14-.021-.14-.187-.115-.328.068 0 .115-.02.162-.068l.02.026-.067.047c.026.089.026.182.047.276m.458.978-.23-.135c.094-.11.183-.11.277-.047 0 .068 0 .136-.047.182m.687-1.457h-.094c-.005-.005-.01-.015-.016-.02.042-.011.089-.011.125-.022 0 .011-.01.027-.015.042m13.234 17.05c-.572 0-.978-.36-.687-.864.151.229.453.333.713.359-.026.24-.026.307-.026.505m8.707-.864c.291.505-.115.864-.687.864 0-.198 0-.266-.047-.505.265-.02.578-.12.734-.36M16.664 9.82c1.307-.281 2.639-1.015 3.237-1.635.495.032 1.135.037 1.619.006.588.624 1.9 1.342 3.211 1.623-.76 0-2.087-.067-2.254-.255.047.48 1.062 1.02 1.728 1.166-.551.068-1.061 0-1.493-.198.234.339.505.594.947.745-.463.572-1.42.942-2.368.853.234.281.666.458 1.04.406-.853 1.358-1.482 2.753-1.633 4.367h-.006v.005c-.14-1.619-.77-3.014-1.618-4.372.385.047.807-.125 1.025-.406-.957.094-1.879-.28-2.357-.853.447-.151.713-.406.947-.745-.422.198-.947.266-1.494.198.666-.15 1.692-.687 1.738-1.166-.182.193-1.509.26-2.269.26M4.69 24.179l-.374.16v-.03c.114-.047.26-.089.374-.13m8.4 6.115c.026.161.047.255.114.364-.9.14-1.28.49-1.608 1.062-.458.77.021 1.764-.109 2.17-.094.255-.39.505-.869.28.234 1.031 1.514.912 1.853.34.114.478 0 1.03-.235 1.238.401.02.74-.14.948-.458.046.093.046.224.067.338.224-.114.365-.245.458-.359.037.114.078.385.026.604a7 7 0 0 1-.666.38c-.479.234-1.353.572-1.852.64-.412.067-1.125-.167-1.307-.74-.166-.546-.62-.723-.978-.384-.094-.068-.349-.12-.458.052 0 0-.115-.26-.255-.385.094-.282.02-.62-.234-.734-.021-.552-.36-.552-.48-.74-.067-.114-.067-.26.095-.28-.068-.104-.214-.125-.235-.125.047-.234-.026-.526-.338-.62l-2.769-5.714c.177-.187.084-.458-.114-.552v-.046a.6.6 0 0 0 .026-.115 2 2 0 0 0 .245-.052c.546-.13 1.4-.932 2.138-1.436-.26.27-1.332 1.05-1.81 1.504-.448.442-.26.884-.188 1.285l.104.224c.406.026 1.015.27 1.468-.104.14-.14 2.139-2.618 2.404-2.857-.104.223-1.363 1.81-1.936 2.721-.421.688.198 1.14.27 1.541.453-.14 1.073.13 1.4-.416.318-.526 1.286-2.405 1.645-2.93-.14.41-1.166 2.545-1.238 2.732-.245.723.374.864.619 1.343.375-.271 1.046-.058 1.306-.75.162-.463.573-2.087.786-2.519-.026.48-.166 1.124-.26 1.832-.094.713.572.687.921 1.098.338-.28.958-.213 1.051-.853.094-.573.115-1.962.115-1.962.093.083.14.104.244.198.23-.271.713-.271.875-.594.072.021.093.068.166.115.526.874.567 2.566-.166 3.164.213 0 .478-.026.64-.094-.323.661-1.046.896-1.879.594m5.173 7.994c-.432.593-.77 1.025-1.051 1.764-.505-.047-.406-.666-.245-.979.338-.619 1.712-1.426 2.405-2.232-.307.515-.734.983-1.109 1.447m1.494 1.098c-.281 1.093-.48 2.706-.385 3.43-.968-.505-.422-2.452-.047-3.29.52-1.166.884-2.592 1.004-3.502.302.692-.37 2.623-.572 3.362m2.264 3.43c.093-.724-.094-2.337-.386-3.43-.203-.74-.869-2.67-.572-3.362.114.91.479 2.331 1.004 3.502.375.838.922 2.785-.046 3.29m2.404-3.748c.166.318.26.932-.245.979-.28-.74-.619-1.166-1.035-1.765-.39-.458-.817-.931-1.124-1.446.686.811 2.066 1.613 2.404 2.232m-.12-8.353c-1.264 2.457-3.58 4.455-3.606 4.43-.026.03-2.342-1.973-3.607-4.43-1.265-2.451-2.076-6.308-2.118-8.15-.047-1.842.317-2.628.317-2.628s1.582-.089 2.847-.526c1.072-.37 2.238-1.311 2.566-1.587.328.276 1.494 1.213 2.57 1.587 1.26.443 2.842.526 2.842.526s.36.791.313 2.628c-.053 1.842-.864 5.699-2.124 8.15M67.617 24.98a18 18 0 0 1 2.608-.354 39 39 0 0 1 2.779-.099q1.453 0 2.945.255 1.498.257 2.722.942a5.7 5.7 0 0 1 2.01 1.895c.52.806.785 1.847.785 3.117q-.002 1.795-.713 3.06a6 6 0 0 1-1.894 2.066c-.786.531-1.692.922-2.707 1.166-1.014.245-2.066.37-3.148.37q-.174 0-.526-.016-.358-.016-.739-.026c-.255-.01-.505-.026-.739-.041a7 7 0 0 1-.526-.058v7.463h-2.846V24.98zm5.47 2.05c-.515 0-1.01.011-1.494.027q-.725.03-1.124.14v7.552q.14.055.469.073c.218.01.447.02.681.041.24.021.464.026.682.026h.5q1.023 0 2.024-.156a5.4 5.4 0 0 0 1.811-.604 3.5 3.5 0 0 0 1.312-1.264q.5-.812.5-2.108c0-.75-.162-1.364-.484-1.853a3.5 3.5 0 0 0-1.255-1.15 5.3 5.3 0 0 0-1.722-.578 13 13 0 0 0-1.9-.145M82.125 37.257q0-1.851.484-3.32.483-1.47 1.426-2.493a6.1 6.1 0 0 1 2.295-1.567q1.35-.54 3.092-.541c1.212 0 2.28.198 3.19.598.91.401 1.67.953 2.28 1.666.608.713 1.056 1.545 1.353 2.508q.443 1.439.442 3.149 0 1.82-.5 3.274-.498 1.453-1.426 2.477a6.1 6.1 0 0 1-2.28 1.566q-1.35.541-3.06.542-1.88.001-3.247-.599c-.91-.4-1.665-.947-2.264-1.65a6.9 6.9 0 0 1-1.337-2.493c-.302-.957-.448-1.998-.448-3.117m2.847 0q-.001 1.053.24 2.066a5.5 5.5 0 0 0 .775 1.811c.359.536.817.958 1.379 1.28q.842.484 2.082.484 4.386 0 4.387-5.636.002-1.108-.24-2.139c-.16-.682-.41-1.285-.76-1.806a4.1 4.1 0 0 0-1.363-1.27q-.845-.483-2.024-.484-2.193 0-3.331 1.41c-.765.932-1.145 2.364-1.145 4.284M111.033 43.69a7.1 7.1 0 0 1-2.337 1.067c-.895.239-1.832.359-2.821.359q-1.88-.001-3.206-.573c-.884-.38-1.597-.91-2.149-1.592s-.948-1.51-1.197-2.478q-.369-1.452-.37-3.216.001-3.786 1.838-5.855c1.223-1.374 2.987-2.066 5.282-2.066q1.507-.001 2.623.27 1.11.274 1.993.672l-.676 2.134a7.7 7.7 0 0 0-3.591-.854q-4.612 0-4.611 5.699-.002 1.084.255 2.092c.171.677.442 1.275.822 1.796.38.52.874.947 1.483 1.27q.921.483 2.249.483c.791 0 1.488-.109 2.081-.327q.89-.329 1.489-.781zM124.299 43.69a7.1 7.1 0 0 1-2.337 1.067c-.895.239-1.832.359-2.821.359q-1.88-.001-3.206-.573c-.884-.38-1.597-.91-2.149-1.592s-.947-1.51-1.197-2.478q-.369-1.452-.37-3.216.002-3.786 1.838-5.855c1.223-1.374 2.987-2.066 5.282-2.066q1.507-.001 2.623.27 1.11.274 1.993.672l-.676 2.134a7.7 7.7 0 0 0-3.591-.854q-4.612 0-4.611 5.699-.001 1.084.255 2.092c.171.677.442 1.275.822 1.796.375.52.874.947 1.488 1.27q.922.483 2.249.483c.791 0 1.488-.109 2.081-.327q.89-.329 1.484-.781zM137.284 36.177l.4-2.96h-.312l-1.395 2.789-7.005 8.717h-2.019V29.766h2.623v8.826l-.198 2.623h.312l1.312-2.534 6.864-8.915h2.051v14.952h-2.623v-8.54zM154.12 36.177l.401-2.96h-.313l-1.394 2.789-7.005 8.717h-2.02V29.766h2.618v8.826l-.198 2.623h.313l1.311-2.534 6.865-8.915h2.05v14.952h-2.623v-8.54z"/><path stroke="#003990" stroke-miterlimit="10" stroke-width=".559" d="m83.699 8.117.306-2.945h-.15l-1.161 2.69-5.553 8.864h-.765l-5.886-8.89-1.098-2.664h-.151l.427 2.914v13.209h-2.379V1.665h1.89l6.682 10.038 1.004 2.186h.063l.947-2.243 6.375-9.982h1.983V21.29h-2.535zM100.699 12.99l.093-1.74h-.093l-1.25 1.796-6.864 8.244H91.18V7.27h2.44v8.55l-.093 1.655h.12l1.191-1.738 6.865-8.467h1.431v14.02h-2.44v-8.3zM117.173 15.092h-6.896v6.198h-2.441V7.27h2.441v5.86h6.896V7.27h2.441v14.02h-2.441zM138.003 24.85h-1.65l-.458-3.56h-11.59V7.27h2.441v12.058h6.62V7.27h2.441v12.058h2.196zM150.535 12.99l.094-1.74h-.094l-1.249 1.796-6.865 8.244h-1.405V7.27h2.441v8.55l-.094 1.655h.125l1.192-1.738 6.865-8.467h1.431v14.02h-2.441zM164.549 21.404a4.2 4.2 0 0 1-1.082.198c-.375.02-.719.026-1.02.026-1.853 0-3.274-.599-4.273-1.796s-1.494-3.044-1.494-5.552c0-2.395.547-4.195 1.65-5.413q1.648-1.82 4.757-1.822.852-.001 1.462.115V1.664h2.321v5.522q.548-.085.979-.115c.286-.02.557-.026.822-.026q3.022-.001 4.543 1.614 1.524 1.616 1.525 5.34.001 1.765-.411 3.18-.412 1.413-1.207 2.399a5.4 5.4 0 0 1-1.936 1.514q-1.148.53-2.639.53-.274-.001-.807-.04a3.5 3.5 0 0 1-.869-.157v5.47h-2.321zm-1.494-1.623q.368-.001.734-.026.368-.03.791-.115V9.013a8.367 8.367 0 0 0-1.462-.11c-1.26 0-2.243.432-2.946 1.307q-1.052 1.302-1.051 4.08.001 1.178.229 2.186c.151.671.39 1.26.718 1.754.323.494.739.88 1.234 1.15.494.265 1.082.4 1.753.4Zm5.153-10.883q-.367 0-.656.016a4 4 0 0 0-.718.125v10.653c.203.036.432.063.687.068q.384.015.838.015 1.952.002 2.945-1.488.993-1.484.994-4.289 0-2.382-.9-3.741c-.598-.9-1.66-1.359-3.19-1.359ZM178.43 7.268h1.676l.458 1.681h.12A4.5 4.5 0 0 1 182.5 7.45c.744-.343 1.592-.52 2.545-.52q3.052 0 4.543 1.655 1.493 1.656 1.494 5.412.001 1.766-.505 3.18c-.338.942-.807 1.744-1.421 2.4a6.2 6.2 0 0 1-2.212 1.514q-1.296.53-2.883.53-1.13 0-1.785-.124a7.5 7.5 0 0 1-1.421-.437v5.834h-2.441V7.268zm6.162 1.624c-1.036 0-1.858.25-2.456.744q-.898.742-1.265 2.259v6.953q.547.392 1.249.603.701.21 1.863.209 2.108 0 3.341-1.442 1.234-1.444 1.234-4.247a9.5 9.5 0 0 0-.214-2.087c-.14-.624-.369-1.16-.687-1.598a3.3 3.3 0 0 0-1.217-1.025q-.749-.368-1.848-.37ZM197.37 12.625q.735-.11 1.406-.156a22 22 0 0 1 1.28-.042q1.554.002 2.607.323t1.692.884q.64.56.9 1.333.259.773.26 1.64-.001 2.551-1.54 3.7c-1.025.765-2.691 1.15-4.986 1.15q-1.951-.002-4.059-.167V7.27h2.44zm0 6.703c.75.114 1.473.167 2.165.167q1.921 0 2.686-.687.765-.689.765-1.947c0-.75-.25-1.363-.749-1.853q-.75-.727-2.608-.728-.522.001-1.129.026-.608.028-1.13.166zM207.925 7.27h2.441v14.02h-2.441z"/></g></svg>