<svg width="345" height="50" viewBox="0 0 345 50" fill="none" xmlns="http://www.w3.org/2000/svg">
<g clip-path="url(#clip0_3682_8608)">
<path d="M21.0846 43.2977V37.0242C21.0846 32.2924 20.4983 30.9101 18.6863 26.9759L9.19963 6.34766H2.48438L14.6358 32.7178V43.2977H21.0846ZM25.2949 24.2113L33.1827 6.34766H26.6273L18.7396 24.2113H25.2949ZM92.6607 43.8294C95.6453 43.8294 98.0969 42.447 99.8023 39.8419L100.122 43.2977H105.985V6.34766H99.6424V19.6922C98.0436 17.2998 95.6985 16.0238 92.9272 16.0238C86.7982 16.0238 82.5345 21.1808 82.5345 30.1126C82.5345 38.9381 86.6916 43.8294 92.6607 43.8294ZM131.62 41.4901V36.333C129.648 37.6622 126.344 38.8318 123.252 38.8318C118.616 38.8318 116.857 36.652 116.59 32.1861H131.886V28.8367C131.886 19.5327 127.783 16.0238 121.44 16.0238C113.712 16.0238 110.035 21.9252 110.035 30.0063C110.035 39.3103 114.619 43.8294 122.719 43.8294C126.77 43.8294 129.754 42.766 131.62 41.4901ZM51.8362 25.0619C51.8362 18.5757 48.5319 16.1301 41.8166 16.1301C37.6595 16.1301 34.3019 17.8846 32.3833 19.2669V24.7429C34.4085 23.0948 37.4996 21.1808 41.0705 21.1808C44.1083 21.1808 45.494 22.2441 45.494 25.1151V26.8164H44.4814C34.7816 26.8164 30.4646 29.9531 30.4646 35.5355C30.4646 40.6926 33.7689 43.6699 38.6721 43.6699C42.4029 43.6699 44.0017 42.447 45.2275 41.1711H45.494C45.5473 41.8622 45.7605 42.766 45.9737 43.2977H52.156C51.9428 41.1179 51.8362 38.9381 51.8362 36.7583V25.0619ZM63.3481 24.1049C64.5206 22.6695 66.3859 21.4467 68.6776 21.4467C70.9161 21.4467 71.9287 22.4036 71.9287 24.4239V43.2977H78.2709V23.7859C78.2709 18.4694 76.139 16.1301 70.9693 16.1301C67.1853 16.1301 64.9469 17.5124 63.6678 18.7884H63.3481L63.1882 16.5554H57.0059V43.2977H63.3481V24.1049ZM151.126 43.2977H158.268L149.527 29.5278L157.095 16.5554H150.753L146.17 24.6366L141.053 16.5554H133.912L142.012 29.3683L133.592 43.2977H140.041L145.423 34.2596L151.126 43.2977ZM94.526 21.0213C97.937 21.0213 99.6424 23.7328 99.6424 29.9C99.6424 36.1203 97.8304 38.8318 94.2596 38.8318C90.7953 38.8318 89.0899 36.1735 89.0899 30.1126C89.0899 23.7859 90.9019 21.0213 94.526 21.0213ZM121.334 21.0213C124.478 21.0213 125.438 23.6264 125.438 26.9759V27.5075H116.59C116.75 23.2543 118.296 21.0213 121.334 21.0213ZM45.494 36.9178C44.6946 38.0875 43.2023 39.0445 40.9639 39.0445C38.2991 39.0445 36.9667 37.5027 36.9667 35.1634C36.9667 32.0798 39.1518 31.0165 44.588 31.0165H45.494V36.9178Z" fill="#003990"/>
<path d="M242.307 45.0007C246.365 45.0007 249.124 43.541 250.801 42.4058V37.1619C248.637 38.7297 246.257 39.919 242.794 39.919C236.843 39.919 234.03 35.1077 234.03 25.7012C234.03 16.0244 236.735 11.4293 243.119 11.4293C246.094 11.4293 248.853 12.7268 250.801 13.9701V8.7263C249.07 7.48292 246.257 6.34766 242.794 6.34766C232.785 6.34766 227.375 13.6998 227.375 25.7012C227.375 38.0269 233.002 45.0007 242.307 45.0007Z" fill="#003990"/>
<path d="M260.177 6.34766H254.32V43.8294H260.177V6.34766Z" fill="#003990"/>
<path d="M276.572 15.7188C269.661 15.7188 264.859 20.7175 264.859 29.8013C264.859 38.8313 269.661 43.83 276.572 43.83C283.484 43.83 288.285 38.8313 288.285 29.7475C288.285 20.7175 283.484 15.7188 276.572 15.7188ZM276.572 38.7775C273.09 38.7775 271.349 36.0363 271.349 29.8013C271.349 23.5125 273.09 20.7713 276.572 20.7713C280.055 20.7713 281.796 23.5125 281.796 29.7475C281.796 36.0363 280.055 38.7775 276.572 38.7775Z" fill="#003990"/>
<path d="M307.764 35.9226C306.602 37.346 304.752 38.5586 302.48 38.5586C300.261 38.5586 299.257 37.6096 299.257 35.6063V16.8906H292.969V36.2389C292.969 41.5109 295.082 43.8306 300.208 43.8306C303.96 43.8306 306.179 42.4599 307.447 41.1946H307.764L307.923 43.4088H314.052V16.8906H307.764V35.9226Z" fill="#003990"/>
<path d="M328.85 43.8294C331.832 43.8294 334.281 42.447 335.984 39.8419L336.304 43.2977H342.16V6.34766H335.825V19.6922C334.228 17.2998 331.885 16.0238 329.116 16.0238C322.994 16.0238 318.734 21.1808 318.734 30.1126C318.734 38.9381 322.887 43.8294 328.85 43.8294ZM330.714 21.0213C334.121 21.0213 335.825 23.7328 335.825 29.9C335.825 36.1203 334.015 38.8318 330.447 38.8318C326.987 38.8318 325.283 36.1735 325.283 30.1126C325.283 23.7859 327.093 21.0213 330.714 21.0213Z" fill="#003990"/>
<path d="M177.016 22.7459C177.016 13.6895 184.357 6.34766 193.414 6.34766C202.471 6.34766 209.812 13.6895 209.812 22.7459C209.812 31.8023 202.471 39.1441 193.414 39.1441C184.357 39.1441 177.016 31.8023 177.016 22.7459Z" fill="#FAFCFF"/>
<path d="M193.567 47.3443C187.415 47.2036 184.98 43.3122 184.238 39.5542C183.833 37.511 184.01 34.114 184.238 32.9015C184.606 30.9253 185.2 28.085 185.858 24.7891C186.799 20.0664 189.298 17.3802 194.692 16.4222L203.515 14.8277C203.749 13.5883 204.191 10.3061 203.789 8.28299C203.038 4.48472 199.945 0.552471 193.666 0.492188C179.99 0.492188 168.812 10.976 168.812 23.9182C168.812 36.8605 179.891 47.3443 193.567 47.3443Z" fill="#003990"/>
<path d="M194.195 0.492188C200.405 0.632869 203.479 4.53162 204.228 8.28971C204.636 10.3329 203.843 13.7225 203.613 14.935C203.242 16.9112 202.642 19.7515 201.977 23.0474C201.028 27.7701 198.504 30.4563 193.059 31.4143L184.771 32.9398C184.534 34.1792 183.756 37.5286 184.162 39.5517C184.92 43.35 187.756 47.284 194.095 47.3443C207.902 47.3443 219.186 36.8605 219.186 23.9182C219.186 10.976 208.002 0.492188 194.195 0.492188Z" fill="#003990"/>
<mask id="mask0_3682_8608" style="mask-type:luminance" maskUnits="userSpaceOnUse" x="32" y="9" width="34" height="34">
<path d="M65.734 9.85938H32.9375V42.6559H65.734V9.85938Z" fill="white"/>
</mask>
<g mask="url(#mask0_3682_8608)">
</g>
</g>
<defs>
<clipPath id="clip0_3682_8608">
<rect width="344.363" height="49.1947" fill="white" transform="translate(0.140625 0.492188)"/>
</clipPath>
</defs>
</svg>
