<svg width="22" height="23" viewBox="0 0 22 23" fill="none" xmlns="http://www.w3.org/2000/svg">
<g clip-path="url(#clip0_5972_18913)">
<path d="M11 0.675781C4.92486 0.675781 0 5.60064 0 11.6758C0 17.7509 4.92486 22.6757 11 22.6757C17.0751 22.6757 22 17.7509 22 11.6758C21.9935 5.60336 17.0724 0.682273 11 0.675781ZM17.0555 8.3027L9.19833 16.1599C8.89149 16.4666 8.39414 16.4666 8.08734 16.1599L4.94447 13.017C4.63234 12.7155 4.62368 12.2181 4.92514 11.906C5.22659 11.5939 5.72399 11.5852 6.03612 11.8867C6.04266 11.893 6.04911 11.8994 6.05546 11.906L8.64284 14.4934L15.9445 7.19171C16.2566 6.89026 16.754 6.89891 17.0555 7.211C17.3496 7.5155 17.3496 7.9982 17.0555 8.3027Z" fill="#B567DA"/>
</g>
<defs>
<clipPath id="clip0_5972_18913">
<rect width="22" height="22" fill="white" transform="translate(0 0.964844)"/>
</clipPath>
</defs>
</svg>
