<svg width="984" height="180" viewBox="0 0 984 180" fill="none" xmlns="http://www.w3.org/2000/svg">
<mask id="mask0_5313_29086" style="mask-type:alpha" maskUnits="userSpaceOnUse" x="0" y="0" width="984" height="182">
<rect width="984" height="181.752" fill="#D9D9D9"/>
</mask>
<g mask="url(#mask0_5313_29086)">
<path d="M27.5042 43.8787C17.8699 35.7135 8.43263 27.1473 0 16.8242V142.998H984L982.708 141.409C982.708 141.409 978.114 133.706 965.154 127.475C960.541 125.257 955.464 127.875 950.87 128.851C944.245 130.258 937.233 130.056 930.543 129.676C921.638 129.17 912.133 126.938 903.898 122.339C900.271 120.313 896.961 116.846 892.911 116.562C885.083 116.011 878.92 123.31 870.661 121.881C858.838 119.834 847.351 114.94 835.432 113.535C824.504 112.247 811.33 111.708 801.508 119.038C792.99 125.394 788.995 127.637 780.013 121.697C769.074 114.463 758.348 105.863 745.746 106.749C734.671 107.527 725.293 114.781 713.951 114.911C698.884 115.083 688.183 103.182 674.396 97.119C667.434 94.0578 658.675 93.5714 652.558 87.5811C644.606 79.7936 636.79 82.7616 626.943 84.5547C609.06 87.8114 591.662 100.979 573.722 101.704C564.704 102.069 555.635 101.228 548.314 93.4506C538.767 83.3087 528.961 77.644 516.381 79.5107C500.602 81.8521 485.941 89.8635 469.89 88.1314C463.234 87.4131 453.859 87.1305 448.464 80.8863C438.103 68.8936 426.998 68.1904 413.854 70.4314C402.232 72.4127 391.655 84.9435 379.93 83.1791C370.948 81.8276 362.158 71.5521 354.933 65.0205C345.249 56.2657 338.997 59.5646 328.494 63.6448C314.172 69.2091 298.436 90.6699 283.651 85.24C271.8 80.8876 262.026 69.2638 254.122 57.1767C248.818 49.065 244.215 39.4578 235.306 38.3762C213.169 35.6886 189.533 65.4206 174.911 81.8195C165.9 84.8282 144.197 91.4129 139.714 77.1694C136.433 66.7413 139.548 51.4906 127.148 51.4906C123.526 51.4906 120.492 53.7886 116.915 54.4253C113.596 55.0163 110.652 53.1414 107.37 53.1414C102.448 53.1414 91.8967 50.969 88.2104 46.5383C84.4029 41.962 74.2617 42.1875 69.6689 45.2543C63.3611 49.4663 59.3407 51.4906 51.7455 51.4906C42.5009 51.4906 35.7456 50.8634 27.5042 43.8787Z" fill="url(#paint0_linear_5313_29086)" fill-opacity="0.2"/>
<path d="M0 16.8242C8.43384 27.1515 17.8725 35.7211 27.5082 43.8895C35.7507 50.877 42.507 51.5045 51.7529 51.5045C59.3492 51.5045 63.3702 49.4794 69.6789 45.2657C74.2724 42.1977 84.415 41.972 88.2231 46.5502C91.91 50.9827 102.463 53.156 107.385 53.156C110.668 53.156 113.613 55.0317 116.932 54.4404C120.509 53.8034 123.544 51.5045 127.166 51.5045C139.568 51.5045 136.452 66.7613 139.735 77.1936C144.218 91.4429 165.923 84.8555 174.936 81.8455C189.561 65.44 213.2 35.6962 235.34 38.3848C244.25 39.4669 248.854 49.078 254.159 57.1929C262.063 69.2848 271.839 80.9133 283.692 85.2674C298.479 90.6995 314.217 69.2301 328.541 63.6636C339.045 59.5818 345.298 56.2815 354.984 65.0398C362.21 71.574 371.002 81.8537 379.984 83.2057C391.712 84.9708 402.29 72.435 413.913 70.4529C427.06 68.211 438.166 68.9145 448.529 80.912C453.925 87.1586 463.301 87.4414 469.958 88.16C486.01 89.8928 500.674 81.8782 516.455 79.5358C529.037 77.6684 538.844 83.3353 548.393 93.4813C555.715 101.262 564.786 102.104 573.805 101.739C591.747 101.012 609.148 87.8399 627.033 84.5819C636.882 82.788 644.699 79.8189 652.652 87.6095C658.769 93.6022 667.53 94.0888 674.493 97.1512C688.282 103.216 698.985 115.122 714.054 114.95C725.397 114.821 734.777 107.563 745.853 106.785C758.457 105.899 769.185 114.503 780.126 121.739C789.109 127.681 793.104 125.438 801.623 119.079C811.447 111.746 824.623 112.286 835.552 113.574C847.473 114.979 858.962 119.875 870.786 121.923C879.046 123.353 885.21 116.051 893.039 116.602C897.091 116.886 900.4 120.355 904.028 122.382C912.264 126.982 921.771 129.215 930.677 129.721C937.367 130.102 944.381 130.304 951.007 128.896C955.601 127.919 960.679 125.301 965.292 127.519C978.255 133.753 984 142.998 984 142.998" stroke="#B567DA" stroke-opacity="0.4" stroke-width="1.56964" stroke-linecap="square"/>
<path d="M808.22 82.3066C805.724 82.3066 803.575 81.8386 801.772 80.9026C800.004 79.932 798.548 78.632 797.404 77.0026C796.295 75.3386 795.48 73.4666 794.96 71.3866C794.44 69.272 794.18 67.0533 794.18 64.7306C794.18 61.992 794.44 59.4266 794.96 57.0346C795.515 54.608 796.364 52.476 797.508 50.6386C798.687 48.8013 800.212 47.3626 802.084 46.3226C803.956 45.248 806.209 44.7106 808.844 44.7106C810.612 44.7106 812.259 45.0226 813.784 45.6466C815.344 46.236 816.696 47.1373 817.84 48.3506C818.984 49.5293 819.833 50.9853 820.388 52.7186H815.656C815.032 51.436 814.079 50.4653 812.796 49.8066C811.513 49.148 810.179 48.8186 808.792 48.8186C807.197 48.8186 805.828 49.1306 804.684 49.7546C803.54 50.344 802.569 51.1413 801.772 52.1466C801.009 53.152 800.385 54.296 799.9 55.5786C799.449 56.8613 799.12 58.196 798.912 59.5826C798.704 60.9693 798.6 62.3213 798.6 63.6386C799.397 62.4253 800.316 61.4373 801.356 60.6746C802.431 59.912 803.592 59.3573 804.84 59.0106C806.123 58.6293 807.423 58.4386 808.74 58.4386C811.167 58.4386 813.264 58.9413 815.032 59.9466C816.835 60.9173 818.239 62.2866 819.244 64.0546C820.249 65.788 820.752 67.7986 820.752 70.0866C820.752 72.5133 820.215 74.6453 819.14 76.4826C818.065 78.32 816.575 79.7586 814.668 80.7986C812.796 81.804 810.647 82.3066 808.22 82.3066ZM808.116 78.1986C809.676 78.1986 811.045 77.8693 812.224 77.2106C813.437 76.5173 814.391 75.5986 815.084 74.4546C815.777 73.276 816.124 71.976 816.124 70.5546C816.124 69.0293 815.795 67.6773 815.136 66.4986C814.477 65.32 813.559 64.384 812.38 63.6906C811.236 62.9973 809.884 62.6506 808.324 62.6506C806.903 62.6506 805.551 62.98 804.268 63.6386C802.985 64.2626 801.945 65.164 801.148 66.3426C800.385 67.4866 800.004 68.856 800.004 70.4506C800.004 71.9066 800.351 73.224 801.044 74.4026C801.772 75.5466 802.743 76.4653 803.956 77.1586C805.204 77.852 806.591 78.1986 808.116 78.1986ZM840.879 82.3066C838.313 82.3066 836.112 81.8386 834.275 80.9026C832.472 79.932 830.999 78.5973 829.855 76.8986C828.711 75.1653 827.861 73.172 827.307 70.9186C826.787 68.6306 826.527 66.1693 826.527 63.5346C826.527 60.9 826.787 58.456 827.307 56.2026C827.827 53.9146 828.659 51.9213 829.803 50.2226C830.947 48.4893 832.42 47.1373 834.223 46.1666C836.06 45.196 838.279 44.7106 840.879 44.7106C843.617 44.7106 845.905 45.248 847.743 46.3226C849.615 47.3626 851.088 48.784 852.163 50.5866C853.272 52.3893 854.052 54.4173 854.503 56.6706C854.988 58.8893 855.231 61.1773 855.231 63.5346C855.231 65.892 854.988 68.1973 854.503 70.4506C854.052 72.6693 853.272 74.68 852.163 76.4826C851.088 78.2506 849.615 79.672 847.743 80.7466C845.905 81.7866 843.617 82.3066 840.879 82.3066ZM840.879 78.1986C842.924 78.1986 844.571 77.7653 845.819 76.8986C847.101 75.9973 848.089 74.8186 848.783 73.3626C849.476 71.9066 849.944 70.3293 850.187 68.6306C850.429 66.8973 850.551 65.1986 850.551 63.5346C850.551 61.9053 850.429 60.2413 850.187 58.5426C849.944 56.8093 849.476 55.2146 848.783 53.7586C848.089 52.268 847.101 51.072 845.819 50.1706C844.571 49.2693 842.924 48.8186 840.879 48.8186C838.799 48.8186 837.117 49.2693 835.835 50.1706C834.552 51.072 833.564 52.268 832.871 53.7586C832.212 55.2146 831.761 56.8093 831.519 58.5426C831.276 60.2413 831.155 61.9053 831.155 63.5346C831.155 65.1986 831.276 66.8973 831.519 68.6306C831.761 70.3293 832.212 71.9066 832.871 73.3626C833.564 74.8186 834.552 75.9973 835.835 76.8986C837.117 77.7653 838.799 78.1986 840.879 78.1986ZM865.373 81.8906L887.993 45.1266H892.569L870.001 81.8906H865.373ZM889.397 82.2026C887.733 82.2026 886.329 81.8386 885.185 81.1106C884.075 80.3826 883.226 79.412 882.637 78.1986C882.047 76.9506 881.753 75.564 881.753 74.0386C881.753 72.444 882.047 71.04 882.637 69.8266C883.226 68.6133 884.093 67.66 885.237 66.9666C886.381 66.2733 887.767 65.9266 889.397 65.9266C890.991 65.9266 892.343 66.2733 893.453 66.9666C894.562 67.66 895.411 68.6133 896.001 69.8266C896.59 71.04 896.885 72.444 896.885 74.0386C896.885 75.564 896.59 76.9506 896.001 78.1986C895.411 79.412 894.562 80.3826 893.453 81.1106C892.343 81.8386 890.991 82.2026 889.397 82.2026ZM889.345 78.5106C890.246 78.5106 890.957 78.3026 891.477 77.8866C892.031 77.4706 892.413 76.916 892.621 76.2226C892.863 75.5293 892.985 74.8013 892.985 74.0386C892.985 73.276 892.863 72.5653 892.621 71.9066C892.413 71.2133 892.031 70.6586 891.477 70.2426C890.957 69.8266 890.246 69.6186 889.345 69.6186C887.958 69.6186 886.97 70.0693 886.381 70.9706C885.826 71.872 885.549 72.8946 885.549 74.0386C885.549 75.252 885.843 76.3093 886.433 77.2106C887.022 78.0773 887.993 78.5106 889.345 78.5106ZM868.805 60.9866C867.141 60.9866 865.737 60.6226 864.593 59.8946C863.483 59.1666 862.634 58.196 862.045 56.9826C861.49 55.7346 861.213 54.348 861.213 52.8226C861.213 51.228 861.49 49.824 862.045 48.6106C862.634 47.3973 863.501 46.444 864.645 45.7506C865.789 45.0573 867.175 44.7106 868.805 44.7106C870.434 44.7106 871.803 45.0573 872.913 45.7506C874.022 46.444 874.854 47.3973 875.409 48.6106C875.998 49.824 876.293 51.228 876.293 52.8226C876.293 54.348 875.998 55.7346 875.409 56.9826C874.854 58.196 874.022 59.1666 872.913 59.8946C871.803 60.6226 870.434 60.9866 868.805 60.9866ZM868.805 57.2946C869.706 57.2946 870.417 57.0866 870.937 56.6706C871.457 56.2546 871.838 55.7 872.081 55.0066C872.323 54.3133 872.445 53.5853 872.445 52.8226C872.445 52.06 872.323 51.3493 872.081 50.6906C871.838 49.9973 871.457 49.4426 870.937 49.0266C870.417 48.6106 869.706 48.4026 868.805 48.4026C867.418 48.4026 866.43 48.8533 865.841 49.7546C865.251 50.656 864.957 51.6786 864.957 52.8226C864.957 54.036 865.251 55.0933 865.841 55.9946C866.43 56.8613 867.418 57.2946 868.805 57.2946Z" fill="#B567DA"/>
<g filter="url(#filter0_bd_5313_29086)">
<ellipse cx="919.724" cy="121.048" rx="11.9032" ry="13.1411" fill="#B567DA"/>
</g>
<line x1="919.43" y1="4.9292" x2="919.43" y2="108.808" stroke="url(#paint1_linear_5313_29086)" stroke-dasharray="1.28 1.28"/>
</g>
<path d="M777.624 56.5795C778.043 56.9988 778.723 56.9988 779.142 56.5795L785.975 49.7466C786.394 49.3273 786.394 48.6474 785.975 48.2281C785.556 47.8088 784.876 47.8088 784.457 48.2281L778.383 54.3019L772.309 48.2281C771.89 47.8088 771.21 47.8088 770.791 48.2281C770.371 48.6474 770.371 49.3273 770.791 49.7466L777.624 56.5795ZM779.457 40.4755V39.4018H777.309V40.4755H779.457ZM779.457 55.8203V40.4755H777.309V55.8203H779.457Z" fill="#B567DA"/>
<path d="M500.476 11.096C499.604 11.096 498.876 10.912 498.292 10.544C497.716 10.168 497.284 9.656 496.996 9.008C496.716 8.352 496.576 7.604 496.576 6.764C496.576 5.932 496.72 5.192 497.008 4.544C497.296 3.888 497.728 3.372 498.304 2.996C498.888 2.612 499.62 2.42 500.5 2.42C501.124 2.42 501.66 2.52 502.108 2.72C502.564 2.912 502.932 3.18 503.212 3.524C503.492 3.868 503.684 4.272 503.788 4.736H502.732C502.612 4.32 502.352 3.988 501.952 3.74C501.56 3.492 501.064 3.368 500.464 3.368C499.792 3.368 499.248 3.528 498.832 3.848C498.424 4.16 498.124 4.572 497.932 5.084C497.74 5.588 497.644 6.136 497.644 6.728C497.644 7.352 497.744 7.924 497.944 8.444C498.144 8.964 498.456 9.38 498.88 9.692C499.304 9.996 499.844 10.148 500.5 10.148C500.9 10.148 501.256 10.092 501.568 9.98C501.888 9.868 502.152 9.708 502.36 9.5C502.576 9.292 502.724 9.052 502.804 8.78H503.944C503.824 9.244 503.608 9.652 503.296 10.004C502.992 10.348 502.604 10.616 502.132 10.808C501.66 11 501.108 11.096 500.476 11.096ZM505.324 11V4.676H506.344V7.448H509.512V4.676H510.532V11H509.512V8.348H506.344V11H505.324ZM512.144 11V4.676H513.164V9.524C513.22 9.412 513.296 9.292 513.392 9.164C513.488 9.028 513.564 8.924 513.62 8.852L516.68 4.676H517.688V11H516.668V6.152C516.604 6.272 516.532 6.384 516.452 6.488C516.38 6.592 516.312 6.688 516.248 6.776L513.14 11H512.144ZM518.656 11L520.708 7.688L518.836 4.676H519.928L521.596 7.412H522.544V4.676H523.564V7.412H524.512L526.18 4.676H527.272L525.4 7.688L527.452 11H526.264L524.62 8.276H523.564V11H522.544V8.276H521.488L519.844 11H518.656ZM531.04 11.072C530.368 11.072 529.812 10.936 529.372 10.664C528.932 10.384 528.604 10 528.388 9.512C528.172 9.024 528.064 8.468 528.064 7.844C528.064 7.212 528.176 6.656 528.4 6.176C528.632 5.688 528.968 5.304 529.408 5.024C529.848 4.744 530.388 4.604 531.028 4.604C531.5 4.604 531.912 4.696 532.264 4.88C532.624 5.056 532.92 5.296 533.152 5.6C533.392 5.904 533.564 6.244 533.668 6.62C533.78 6.996 533.828 7.384 533.812 7.784C533.804 7.856 533.8 7.928 533.8 8C533.8 8.072 533.796 8.144 533.788 8.216H529.096C529.128 8.584 529.22 8.916 529.372 9.212C529.524 9.508 529.74 9.744 530.02 9.92C530.3 10.088 530.648 10.172 531.064 10.172C531.272 10.172 531.48 10.148 531.688 10.1C531.904 10.044 532.096 9.952 532.264 9.824C532.44 9.696 532.564 9.524 532.636 9.308H533.68C533.584 9.716 533.404 10.052 533.14 10.316C532.876 10.572 532.56 10.764 532.192 10.892C531.824 11.012 531.44 11.072 531.04 11.072ZM529.12 7.328H532.78C532.772 6.968 532.692 6.652 532.54 6.38C532.388 6.108 532.18 5.896 531.916 5.744C531.66 5.592 531.352 5.516 530.992 5.516C530.6 5.516 530.268 5.6 529.996 5.768C529.732 5.936 529.528 6.156 529.384 6.428C529.24 6.7 529.152 7 529.12 7.328ZM535.183 11V4.676H536.203V7.448H539.371V4.676H540.391V11H539.371V8.348H536.203V11H535.183ZM542.003 11V4.676H543.023V9.524C543.079 9.412 543.155 9.292 543.251 9.164C543.347 9.028 543.423 8.924 543.479 8.852L546.539 4.676H547.547V11H546.527V6.152C546.463 6.272 546.391 6.384 546.311 6.488C546.239 6.592 546.171 6.688 546.107 6.776L542.999 11H542.003ZM551.888 11.072C551.216 11.072 550.66 10.936 550.22 10.664C549.78 10.384 549.452 10 549.236 9.512C549.02 9.024 548.912 8.468 548.912 7.844C548.912 7.212 549.024 6.656 549.248 6.176C549.48 5.688 549.816 5.304 550.256 5.024C550.696 4.744 551.236 4.604 551.876 4.604C552.348 4.604 552.76 4.696 553.112 4.88C553.472 5.056 553.768 5.296 554 5.6C554.24 5.904 554.412 6.244 554.516 6.62C554.628 6.996 554.676 7.384 554.66 7.784C554.652 7.856 554.648 7.928 554.648 8C554.648 8.072 554.644 8.144 554.636 8.216H549.944C549.976 8.584 550.068 8.916 550.22 9.212C550.372 9.508 550.588 9.744 550.868 9.92C551.148 10.088 551.496 10.172 551.912 10.172C552.12 10.172 552.328 10.148 552.536 10.1C552.752 10.044 552.944 9.952 553.112 9.824C553.288 9.696 553.412 9.524 553.484 9.308H554.528C554.432 9.716 554.252 10.052 553.988 10.316C553.724 10.572 553.408 10.764 553.04 10.892C552.672 11.012 552.288 11.072 551.888 11.072ZM549.968 7.328H553.628C553.62 6.968 553.54 6.652 553.388 6.38C553.236 6.108 553.028 5.896 552.764 5.744C552.508 5.592 552.2 5.516 551.84 5.516C551.448 5.516 551.116 5.6 550.844 5.768C550.58 5.936 550.376 6.156 550.232 6.428C550.088 6.7 550 7 549.968 7.328ZM559.265 11V4.676H560.285V7.448H563.453V4.676H564.473V11H563.453V8.348H560.285V11H559.265ZM568.593 11.072C568.121 11.072 567.709 10.992 567.357 10.832C567.013 10.664 566.729 10.436 566.505 10.148C566.281 9.86 566.113 9.52 566.001 9.128C565.897 8.736 565.845 8.312 565.845 7.856C565.845 7.248 565.941 6.7 566.133 6.212C566.333 5.716 566.649 5.324 567.081 5.036C567.513 4.748 568.077 4.604 568.773 4.604C569.141 4.604 569.493 4.672 569.829 4.808C570.173 4.944 570.465 5.156 570.705 5.444V4.676H571.725V11H570.705V10.148C570.481 10.444 570.185 10.672 569.817 10.832C569.449 10.992 569.041 11.072 568.593 11.072ZM568.761 10.172C569.177 10.172 569.529 10.064 569.817 9.848C570.105 9.632 570.325 9.344 570.477 8.984C570.637 8.624 570.717 8.232 570.717 7.808C570.717 7.368 570.641 6.976 570.489 6.632C570.345 6.288 570.129 6.016 569.841 5.816C569.553 5.616 569.189 5.516 568.749 5.516C568.293 5.516 567.925 5.62 567.645 5.828C567.373 6.036 567.173 6.316 567.045 6.668C566.925 7.02 566.865 7.412 566.865 7.844C566.865 8.292 566.929 8.692 567.057 9.044C567.185 9.396 567.389 9.672 567.669 9.872C567.949 10.072 568.313 10.172 568.761 10.172ZM573.327 11V4.676H577.695V5.576H574.347V11H573.327ZM578.777 13.28V4.676H579.749L579.797 5.648C580.013 5.304 580.305 5.044 580.673 4.868C581.049 4.692 581.453 4.604 581.885 4.604C582.525 4.604 583.049 4.748 583.457 5.036C583.865 5.316 584.165 5.7 584.357 6.188C584.557 6.676 584.657 7.228 584.657 7.844C584.657 8.46 584.557 9.012 584.357 9.5C584.157 9.988 583.849 10.372 583.433 10.652C583.017 10.932 582.485 11.072 581.837 11.072C581.517 11.072 581.229 11.04 580.973 10.976C580.717 10.904 580.493 10.804 580.301 10.676C580.109 10.548 579.941 10.404 579.797 10.244V13.28H578.777ZM581.753 10.172C582.217 10.172 582.585 10.068 582.857 9.86C583.129 9.644 583.325 9.36 583.445 9.008C583.573 8.656 583.637 8.268 583.637 7.844C583.637 7.412 583.573 7.02 583.445 6.668C583.325 6.316 583.125 6.036 582.845 5.828C582.565 5.62 582.193 5.516 581.729 5.516C581.313 5.516 580.957 5.624 580.661 5.84C580.373 6.048 580.153 6.332 580.001 6.692C579.849 7.044 579.773 7.432 579.773 7.856C579.773 8.296 579.845 8.692 579.989 9.044C580.133 9.396 580.353 9.672 580.649 9.872C580.945 10.072 581.313 10.172 581.753 10.172ZM586.176 13.712V12.74C586.568 12.74 586.88 12.684 587.112 12.572C587.344 12.468 587.536 12.3 587.688 12.068C587.848 11.844 588 11.556 588.144 11.204L585.372 4.676H586.572L588.708 10.004L590.46 4.676H591.612L589.836 9.656C589.748 9.912 589.648 10.2 589.536 10.52C589.424 10.84 589.3 11.164 589.164 11.492C589.028 11.828 588.876 12.136 588.708 12.416C588.548 12.704 588.368 12.936 588.168 13.112C588 13.264 587.836 13.384 587.676 13.472C587.516 13.56 587.32 13.62 587.088 13.652C586.864 13.692 586.56 13.712 586.176 13.712ZM594.85 11.072C594.546 11.072 594.242 11.044 593.938 10.988C593.634 10.932 593.35 10.84 593.086 10.712C592.83 10.576 592.622 10.396 592.462 10.172C592.302 9.94 592.214 9.652 592.198 9.308H593.194C593.234 9.524 593.35 9.696 593.542 9.824C593.734 9.952 593.95 10.044 594.19 10.1C594.438 10.148 594.658 10.172 594.85 10.172C595.074 10.172 595.302 10.148 595.534 10.1C595.774 10.052 595.974 9.956 596.134 9.812C596.302 9.668 596.386 9.456 596.386 9.176C596.386 8.904 596.318 8.704 596.182 8.576C596.054 8.448 595.882 8.364 595.666 8.324C595.458 8.284 595.23 8.264 594.982 8.264H593.854V7.364H594.778C594.93 7.364 595.086 7.352 595.246 7.328C595.406 7.296 595.554 7.248 595.69 7.184C595.826 7.112 595.934 7.012 596.014 6.884C596.102 6.756 596.146 6.592 596.146 6.392C596.146 6.168 596.082 5.992 595.954 5.864C595.826 5.736 595.662 5.648 595.462 5.6C595.262 5.544 595.058 5.516 594.85 5.516C594.658 5.516 594.454 5.536 594.238 5.576C594.03 5.616 593.85 5.696 593.698 5.816C593.546 5.928 593.454 6.096 593.422 6.32H592.414C592.43 5.888 592.562 5.548 592.81 5.3C593.058 5.052 593.366 4.876 593.734 4.772C594.102 4.66 594.47 4.604 594.838 4.604C595.118 4.604 595.394 4.632 595.666 4.688C595.938 4.744 596.186 4.84 596.41 4.976C596.634 5.104 596.81 5.276 596.938 5.492C597.074 5.708 597.142 5.976 597.142 6.296C597.142 6.584 597.074 6.84 596.938 7.064C596.802 7.288 596.594 7.468 596.314 7.604C596.722 7.732 597.006 7.932 597.166 8.204C597.326 8.476 597.406 8.8 597.406 9.176C597.406 9.512 597.334 9.8 597.19 10.04C597.046 10.272 596.85 10.468 596.602 10.628C596.362 10.78 596.09 10.892 595.786 10.964C595.482 11.036 595.17 11.072 594.85 11.072ZM598.722 11V4.676H599.742V7.4H600.846L602.718 4.676H603.882L601.77 7.688L604.062 11H602.862L600.966 8.288H599.742V11H598.722ZM604.945 11V4.676H605.965V9.524C606.021 9.412 606.097 9.292 606.193 9.164C606.289 9.028 606.365 8.924 606.421 8.852L609.481 4.676H610.489V11H609.469V6.152C609.405 6.272 609.333 6.384 609.253 6.488C609.181 6.592 609.113 6.688 609.049 6.776L605.941 11H604.945ZM496.804 26V19.676H497.824V22.448H500.992V19.676H502.012V26H500.992V23.348H497.824V26H496.804ZM506.132 26.072C505.66 26.072 505.248 25.992 504.896 25.832C504.552 25.664 504.268 25.436 504.044 25.148C503.82 24.86 503.652 24.52 503.54 24.128C503.436 23.736 503.384 23.312 503.384 22.856C503.384 22.248 503.48 21.7 503.672 21.212C503.872 20.716 504.188 20.324 504.62 20.036C505.052 19.748 505.616 19.604 506.312 19.604C506.68 19.604 507.032 19.672 507.368 19.808C507.712 19.944 508.004 20.156 508.244 20.444V19.676H509.264V26H508.244V25.148C508.02 25.444 507.724 25.672 507.356 25.832C506.988 25.992 506.58 26.072 506.132 26.072ZM506.3 25.172C506.716 25.172 507.068 25.064 507.356 24.848C507.644 24.632 507.864 24.344 508.016 23.984C508.176 23.624 508.256 23.232 508.256 22.808C508.256 22.368 508.18 21.976 508.028 21.632C507.884 21.288 507.668 21.016 507.38 20.816C507.092 20.616 506.728 20.516 506.288 20.516C505.832 20.516 505.464 20.62 505.184 20.828C504.912 21.036 504.712 21.316 504.584 21.668C504.464 22.02 504.404 22.412 504.404 22.844C504.404 23.292 504.468 23.692 504.596 24.044C504.724 24.396 504.928 24.672 505.208 24.872C505.488 25.072 505.852 25.172 506.3 25.172ZM513.561 27.944V25.112C513.793 25.112 513.977 25.048 514.113 24.92C514.257 24.792 514.369 24.624 514.449 24.416C514.529 24.208 514.589 23.984 514.629 23.744C514.669 23.496 514.701 23.26 514.725 23.036C514.765 22.668 514.789 22.304 514.797 21.944C514.813 21.576 514.821 21.284 514.821 21.068C514.829 20.836 514.833 20.604 514.833 20.372C514.833 20.14 514.833 19.908 514.833 19.676H519.321V25.112H520.149V27.944H519.165V26H514.545V27.944H513.561ZM515.181 25.112H518.301V20.576H515.805C515.797 20.912 515.789 21.288 515.781 21.704C515.773 22.12 515.757 22.508 515.733 22.868C515.725 23.076 515.705 23.312 515.673 23.576C515.649 23.84 515.601 24.108 515.529 24.38C515.457 24.644 515.341 24.888 515.181 25.112ZM521.214 26V19.676H522.234V24.524C522.29 24.412 522.366 24.292 522.462 24.164C522.558 24.028 522.634 23.924 522.69 23.852L525.75 19.676H526.758V26H525.738V21.152C525.674 21.272 525.602 21.384 525.522 21.488C525.45 21.592 525.382 21.688 525.318 21.776L522.21 26H521.214ZM531.063 26.072C530.399 26.072 529.847 25.936 529.407 25.664C528.975 25.384 528.651 25 528.435 24.512C528.227 24.024 528.123 23.472 528.123 22.856C528.123 22.256 528.231 21.712 528.447 21.224C528.671 20.728 529.007 20.336 529.455 20.048C529.911 19.752 530.487 19.604 531.183 19.604C531.615 19.604 531.999 19.676 532.335 19.82C532.679 19.964 532.963 20.176 533.187 20.456C533.411 20.728 533.567 21.072 533.655 21.488H532.611C532.491 21.136 532.299 20.888 532.035 20.744C531.779 20.592 531.475 20.516 531.123 20.516C530.643 20.516 530.259 20.628 529.971 20.852C529.683 21.076 529.471 21.368 529.335 21.728C529.207 22.08 529.143 22.456 529.143 22.856C529.143 23.272 529.211 23.656 529.347 24.008C529.483 24.36 529.695 24.644 529.983 24.86C530.271 25.068 530.643 25.172 531.099 25.172C531.435 25.172 531.751 25.1 532.047 24.956C532.351 24.812 532.551 24.556 532.647 24.188H533.703C533.623 24.62 533.451 24.976 533.187 25.256C532.931 25.536 532.615 25.744 532.239 25.88C531.871 26.008 531.479 26.072 531.063 26.072ZM534.995 26V19.676H540.239V26H539.219V20.576H536.015V26H534.995ZM544.587 26.072C543.915 26.072 543.359 25.936 542.919 25.664C542.479 25.384 542.151 25 541.935 24.512C541.719 24.024 541.611 23.468 541.611 22.844C541.611 22.212 541.723 21.656 541.947 21.176C542.179 20.688 542.515 20.304 542.955 20.024C543.395 19.744 543.935 19.604 544.575 19.604C545.047 19.604 545.459 19.696 545.811 19.88C546.171 20.056 546.467 20.296 546.699 20.6C546.939 20.904 547.111 21.244 547.215 21.62C547.327 21.996 547.375 22.384 547.359 22.784C547.351 22.856 547.347 22.928 547.347 23C547.347 23.072 547.343 23.144 547.335 23.216H542.643C542.675 23.584 542.767 23.916 542.919 24.212C543.071 24.508 543.287 24.744 543.567 24.92C543.847 25.088 544.195 25.172 544.611 25.172C544.819 25.172 545.027 25.148 545.235 25.1C545.451 25.044 545.643 24.952 545.811 24.824C545.987 24.696 546.111 24.524 546.183 24.308H547.227C547.131 24.716 546.951 25.052 546.687 25.316C546.423 25.572 546.107 25.764 545.739 25.892C545.371 26.012 544.987 26.072 544.587 26.072ZM542.667 22.328H546.327C546.319 21.968 546.239 21.652 546.087 21.38C545.935 21.108 545.727 20.896 545.463 20.744C545.207 20.592 544.899 20.516 544.539 20.516C544.147 20.516 543.815 20.6 543.543 20.768C543.279 20.936 543.075 21.156 542.931 21.428C542.787 21.7 542.699 22 542.667 22.328ZM550.206 26V20.576H548.034V19.676H553.398V20.576H551.226V26H550.206ZM558.028 26V23.564C557.724 23.62 557.428 23.66 557.14 23.684C556.86 23.7 556.608 23.708 556.384 23.708C555.792 23.708 555.324 23.616 554.98 23.432C554.636 23.248 554.392 22.968 554.248 22.592C554.104 22.208 554.032 21.732 554.032 21.164V19.676H555.052V21.092C555.052 21.46 555.088 21.772 555.16 22.028C555.232 22.284 555.372 22.48 555.58 22.616C555.788 22.744 556.1 22.808 556.516 22.808C556.756 22.808 557.008 22.796 557.272 22.772C557.544 22.748 557.796 22.712 558.028 22.664V19.676H559.048V26H558.028ZM563.395 26.072C562.723 26.072 562.167 25.936 561.727 25.664C561.287 25.384 560.959 25 560.743 24.512C560.527 24.024 560.419 23.468 560.419 22.844C560.419 22.212 560.531 21.656 560.755 21.176C560.987 20.688 561.323 20.304 561.763 20.024C562.203 19.744 562.743 19.604 563.383 19.604C563.855 19.604 564.267 19.696 564.619 19.88C564.979 20.056 565.275 20.296 565.507 20.6C565.747 20.904 565.919 21.244 566.023 21.62C566.135 21.996 566.183 22.384 566.167 22.784C566.159 22.856 566.155 22.928 566.155 23C566.155 23.072 566.151 23.144 566.143 23.216H561.451C561.483 23.584 561.575 23.916 561.727 24.212C561.879 24.508 562.095 24.744 562.375 24.92C562.655 25.088 563.003 25.172 563.419 25.172C563.627 25.172 563.835 25.148 564.043 25.1C564.259 25.044 564.451 24.952 564.619 24.824C564.795 24.696 564.919 24.524 564.991 24.308H566.035C565.939 24.716 565.759 25.052 565.495 25.316C565.231 25.572 564.915 25.764 564.547 25.892C564.179 26.012 563.795 26.072 563.395 26.072ZM561.475 22.328H565.135C565.127 21.968 565.047 21.652 564.895 21.38C564.743 21.108 564.535 20.896 564.271 20.744C564.015 20.592 563.707 20.516 563.347 20.516C562.955 20.516 562.623 20.6 562.351 20.768C562.087 20.936 561.883 21.156 561.739 21.428C561.595 21.7 561.507 22 561.475 22.328ZM567.538 28.28V19.676H568.51L568.558 20.648C568.774 20.304 569.066 20.044 569.434 19.868C569.81 19.692 570.214 19.604 570.646 19.604C571.286 19.604 571.81 19.748 572.218 20.036C572.626 20.316 572.926 20.7 573.118 21.188C573.318 21.676 573.418 22.228 573.418 22.844C573.418 23.46 573.318 24.012 573.118 24.5C572.918 24.988 572.61 25.372 572.194 25.652C571.778 25.932 571.246 26.072 570.598 26.072C570.278 26.072 569.99 26.04 569.734 25.976C569.478 25.904 569.254 25.804 569.062 25.676C568.87 25.548 568.702 25.404 568.558 25.244V28.28H567.538ZM570.514 25.172C570.978 25.172 571.346 25.068 571.618 24.86C571.89 24.644 572.086 24.36 572.206 24.008C572.334 23.656 572.398 23.268 572.398 22.844C572.398 22.412 572.334 22.02 572.206 21.668C572.086 21.316 571.886 21.036 571.606 20.828C571.326 20.62 570.954 20.516 570.49 20.516C570.074 20.516 569.718 20.624 569.422 20.84C569.134 21.048 568.914 21.332 568.762 21.692C568.61 22.044 568.534 22.432 568.534 22.856C568.534 23.296 568.606 23.692 568.75 24.044C568.894 24.396 569.114 24.672 569.41 24.872C569.706 25.072 570.074 25.172 570.514 25.172ZM577.551 26.072C576.887 26.072 576.335 25.936 575.895 25.664C575.463 25.384 575.139 25 574.923 24.512C574.715 24.024 574.611 23.472 574.611 22.856C574.611 22.256 574.719 21.712 574.935 21.224C575.159 20.728 575.495 20.336 575.943 20.048C576.399 19.752 576.975 19.604 577.671 19.604C578.103 19.604 578.487 19.676 578.823 19.82C579.167 19.964 579.451 20.176 579.675 20.456C579.899 20.728 580.055 21.072 580.143 21.488H579.099C578.979 21.136 578.787 20.888 578.523 20.744C578.267 20.592 577.963 20.516 577.611 20.516C577.131 20.516 576.747 20.628 576.459 20.852C576.171 21.076 575.959 21.368 575.823 21.728C575.695 22.08 575.631 22.456 575.631 22.856C575.631 23.272 575.699 23.656 575.835 24.008C575.971 24.36 576.183 24.644 576.471 24.86C576.759 25.068 577.131 25.172 577.587 25.172C577.923 25.172 578.239 25.1 578.535 24.956C578.839 24.812 579.039 24.556 579.135 24.188H580.191C580.111 24.62 579.939 24.976 579.675 25.256C579.419 25.536 579.103 25.744 578.727 25.88C578.359 26.008 577.967 26.072 577.551 26.072ZM581.484 26V19.676H582.504V22.4H583.608L585.48 19.676H586.644L584.532 22.688L586.824 26H585.624L583.728 23.288H582.504V26H581.484ZM587.91 28.712V27.74C588.302 27.74 588.614 27.684 588.846 27.572C589.078 27.468 589.27 27.3 589.422 27.068C589.582 26.844 589.734 26.556 589.878 26.204L587.106 19.676H588.306L590.442 25.004L592.194 19.676H593.346L591.57 24.656C591.482 24.912 591.382 25.2 591.27 25.52C591.158 25.84 591.034 26.164 590.898 26.492C590.762 26.828 590.61 27.136 590.442 27.416C590.282 27.704 590.102 27.936 589.902 28.112C589.734 28.264 589.57 28.384 589.41 28.472C589.25 28.56 589.054 28.62 588.822 28.652C588.598 28.692 588.294 28.712 587.91 28.712ZM599.416 26.072C598.488 26.072 597.788 25.816 597.316 25.304C596.844 24.784 596.576 24.112 596.512 23.288H595.312V26H594.292V19.676H595.312V22.4H596.512C596.56 21.848 596.692 21.364 596.908 20.948C597.132 20.524 597.452 20.196 597.868 19.964C598.284 19.724 598.8 19.604 599.416 19.604C600.088 19.604 600.644 19.744 601.084 20.024C601.524 20.304 601.852 20.688 602.068 21.176C602.284 21.656 602.392 22.212 602.392 22.844C602.392 23.468 602.284 24.024 602.068 24.512C601.852 25 601.524 25.384 601.084 25.664C600.644 25.936 600.088 26.072 599.416 26.072ZM599.416 25.172C599.88 25.172 600.252 25.068 600.532 24.86C600.82 24.652 601.032 24.372 601.168 24.02C601.304 23.668 601.372 23.276 601.372 22.844C601.372 22.412 601.304 22.02 601.168 21.668C601.032 21.316 600.82 21.036 600.532 20.828C600.252 20.62 599.88 20.516 599.416 20.516C598.96 20.516 598.588 20.62 598.3 20.828C598.02 21.036 597.816 21.316 597.688 21.668C597.56 22.02 597.496 22.412 597.496 22.844C597.496 23.276 597.56 23.668 597.688 24.02C597.816 24.372 598.02 24.652 598.3 24.86C598.588 25.068 598.96 25.172 599.416 25.172ZM609.649 26.072C608.985 26.072 608.433 25.936 607.993 25.664C607.561 25.384 607.237 25 607.021 24.512C606.813 24.024 606.709 23.472 606.709 22.856C606.709 22.256 606.817 21.712 607.033 21.224C607.257 20.728 607.593 20.336 608.041 20.048C608.497 19.752 609.073 19.604 609.769 19.604C610.201 19.604 610.585 19.676 610.921 19.82C611.265 19.964 611.549 20.176 611.773 20.456C611.997 20.728 612.153 21.072 612.241 21.488H611.197C611.077 21.136 610.885 20.888 610.621 20.744C610.365 20.592 610.061 20.516 609.709 20.516C609.229 20.516 608.845 20.628 608.557 20.852C608.269 21.076 608.057 21.368 607.921 21.728C607.793 22.08 607.729 22.456 607.729 22.856C607.729 23.272 607.797 23.656 607.933 24.008C608.069 24.36 608.281 24.644 608.569 24.86C608.857 25.068 609.229 25.172 609.685 25.172C610.021 25.172 610.337 25.1 610.633 24.956C610.937 24.812 611.137 24.556 611.233 24.188H612.289C612.209 24.62 612.037 24.976 611.773 25.256C611.517 25.536 611.201 25.744 610.825 25.88C610.457 26.008 610.065 26.072 609.649 26.072ZM612.947 26.012V25.124C613.107 25.124 613.251 25.092 613.379 25.028C613.507 24.956 613.619 24.852 613.715 24.716C613.827 24.556 613.915 24.324 613.979 24.02C614.043 23.716 614.087 23.392 614.111 23.048C614.143 22.664 614.167 22.288 614.183 21.92C614.199 21.544 614.211 21.172 614.219 20.804C614.235 20.436 614.243 20.06 614.243 19.676H618.635V26H617.615V20.576H615.239C615.231 20.848 615.219 21.124 615.203 21.404C615.195 21.676 615.183 21.952 615.167 22.232C615.159 22.504 615.147 22.78 615.131 23.06C615.123 23.38 615.091 23.74 615.035 24.14C614.979 24.54 614.859 24.904 614.675 25.232C614.499 25.544 614.283 25.752 614.027 25.856C613.779 25.96 613.419 26.012 612.947 26.012ZM620.442 28.712V27.74C620.834 27.74 621.146 27.684 621.378 27.572C621.61 27.468 621.802 27.3 621.954 27.068C622.114 26.844 622.266 26.556 622.41 26.204L619.638 19.676H620.838L622.974 25.004L624.726 19.676H625.878L624.102 24.656C624.014 24.912 623.914 25.2 623.802 25.52C623.69 25.84 623.566 26.164 623.43 26.492C623.294 26.828 623.142 27.136 622.974 27.416C622.814 27.704 622.634 27.936 622.434 28.112C622.266 28.264 622.102 28.384 621.942 28.472C621.782 28.56 621.586 28.62 621.354 28.652C621.13 28.692 620.826 28.712 620.442 28.712ZM626.188 26L628.24 22.688L626.368 19.676H627.46L629.128 22.412H630.076V19.676H631.096V22.412H632.044L633.712 19.676H634.804L632.932 22.688L634.984 26H633.796L632.152 23.276H631.096V26H630.076V23.276H629.02L627.376 26H626.188ZM638.616 26.072C638.216 26.072 637.86 26.016 637.548 25.904C637.236 25.784 636.968 25.62 636.744 25.412C636.52 25.196 636.336 24.944 636.192 24.656C636.048 24.36 635.94 24.04 635.868 23.696C635.796 23.352 635.76 22.988 635.76 22.604C635.76 21.988 635.772 21.416 635.796 20.888C635.828 20.352 635.916 19.876 636.06 19.46C636.204 19.036 636.448 18.684 636.792 18.404C637.136 18.124 637.62 17.928 638.244 17.816C638.564 17.76 638.88 17.712 639.192 17.672C639.504 17.632 639.82 17.592 640.14 17.552C640.244 17.536 640.352 17.52 640.464 17.504C640.576 17.488 640.692 17.468 640.812 17.444C640.94 17.42 641.06 17.4 641.172 17.384V18.32C641.084 18.352 640.988 18.38 640.884 18.404C640.788 18.42 640.684 18.436 640.572 18.452C640.468 18.468 640.36 18.48 640.248 18.488C640.144 18.496 640.04 18.508 639.936 18.524C639.832 18.532 639.732 18.544 639.636 18.56C639.356 18.592 639.06 18.624 638.748 18.656C638.436 18.68 638.14 18.744 637.86 18.848C637.588 18.944 637.356 19.132 637.164 19.412C637.068 19.556 636.984 19.728 636.912 19.928C636.848 20.128 636.8 20.332 636.768 20.54C636.744 20.74 636.728 20.932 636.72 21.116C636.88 20.892 637.076 20.712 637.308 20.576C637.54 20.432 637.788 20.328 638.052 20.264C638.316 20.192 638.568 20.156 638.808 20.156C639.384 20.156 639.872 20.276 640.272 20.516C640.672 20.748 640.976 21.08 641.184 21.512C641.392 21.944 641.496 22.448 641.496 23.024C641.496 23.6 641.384 24.12 641.16 24.584C640.936 25.04 640.608 25.404 640.176 25.676C639.752 25.94 639.232 26.072 638.616 26.072ZM638.64 25.172C639.04 25.172 639.376 25.076 639.648 24.884C639.92 24.692 640.124 24.436 640.26 24.116C640.404 23.796 640.476 23.444 640.476 23.06C640.476 22.684 640.404 22.348 640.26 22.052C640.124 21.748 639.92 21.508 639.648 21.332C639.384 21.156 639.056 21.068 638.664 21.068C638.28 21.068 637.948 21.16 637.668 21.344C637.396 21.528 637.184 21.776 637.032 22.088C636.888 22.392 636.816 22.724 636.816 23.084C636.816 23.452 636.884 23.796 637.02 24.116C637.156 24.436 637.356 24.692 637.62 24.884C637.892 25.076 638.232 25.172 638.64 25.172ZM643.071 28.712V27.74C643.463 27.74 643.775 27.684 644.007 27.572C644.239 27.468 644.431 27.3 644.583 27.068C644.743 26.844 644.895 26.556 645.039 26.204L642.267 19.676H643.467L645.603 25.004L647.355 19.676H648.507L646.731 24.656C646.643 24.912 646.543 25.2 646.431 25.52C646.319 25.84 646.195 26.164 646.059 26.492C645.923 26.828 645.771 27.136 645.603 27.416C645.443 27.704 645.263 27.936 645.062 28.112C644.895 28.264 644.731 28.384 644.571 28.472C644.411 28.56 644.215 28.62 643.983 28.652C643.759 28.692 643.455 28.712 643.071 28.712Z" fill="#B567DA"/>
<defs>
<filter id="filter0_bd_5313_29086" x="878.96" y="79.0469" width="81.5271" height="84.0029" filterUnits="userSpaceOnUse" color-interpolation-filters="sRGB">
<feFlood flood-opacity="0" result="BackgroundImageFix"/>
<feGaussianBlur in="BackgroundImageFix" stdDeviation="14.4302"/>
<feComposite in2="SourceAlpha" operator="in" result="effect1_backgroundBlur_5313_29086"/>
<feColorMatrix in="SourceAlpha" type="matrix" values="0 0 0 0 0 0 0 0 0 0 0 0 0 0 0 0 0 0 127 0" result="hardAlpha"/>
<feOffset dy="3.19391"/>
<feGaussianBlur stdDeviation="6.77108"/>
<feComposite in2="hardAlpha" operator="out"/>
<feColorMatrix type="matrix" values="0 0 0 0 0.709804 0 0 0 0 0.403922 0 0 0 0 0.854902 0 0 0 0.4 0"/>
<feBlend mode="normal" in2="effect1_backgroundBlur_5313_29086" result="effect2_dropShadow_5313_29086"/>
<feBlend mode="normal" in="SourceGraphic" in2="effect2_dropShadow_5313_29086" result="shape"/>
</filter>
<linearGradient id="paint0_linear_5313_29086" x1="589.555" y1="29.8199" x2="589.368" y2="174.791" gradientUnits="userSpaceOnUse">
<stop stop-color="#B567DA"/>
<stop offset="0.755234" stop-color="#FAFCFF"/>
</linearGradient>
<linearGradient id="paint1_linear_5313_29086" x1="918.43" y1="108.808" x2="918.43" y2="4.9292" gradientUnits="userSpaceOnUse">
<stop stop-color="#B567DA"/>
<stop offset="1" stop-color="#FAFCFF"/>
</linearGradient>
</defs>
</svg>
