<svg width="315" height="129" viewBox="0 0 315 129" fill="none" xmlns="http://www.w3.org/2000/svg">
<path d="M72.929 19.9036C49.6885 19.9036 38.2854 33.2725 27.9111 27.9996C21.9176 24.9533 20.0296 20.493 17.4444 16.5509C12.8208 9.50043 9.32386 2.96354 0 1V128.955H314V97.7327C314 97.7327 312.235 92.455 304.115 88.3656C297.379 84.9732 285.543 83.079 273.296 79.5188C261.203 76.0034 249.317 58.8035 237.826 54.0194C215.118 44.5658 208.644 40.6262 182.66 39.0966C170.956 38.4075 159.883 42.6869 150.604 47.7747C137.647 54.8788 126.028 62.2133 111.644 55.0602C85.2447 41.9313 96.1695 19.9036 72.929 19.9036Z" fill="url(#paint0_linear_10001_40067)"/>
<path d="M0.78125 1C23.1296 10.6623 16.074 35.7276 41.7532 27.1441C41.7532 27.1441 63.0918 17.7434 76.9687 20.0403C97.7842 23.4858 86.1812 44.4319 111.946 54.9294C137.711 65.4269 151.627 37.2786 180.245 38.2281C206.424 39.0967 218.169 44.196 240.316 54.9294C251.653 60.4237 262.402 74.7151 274.379 79.1506C294.009 86.4203 303.14 81.2378 313.996 96.77" stroke="#B567DA" stroke-opacity="0.4" stroke-width="1.26238" stroke-linecap="round"/>
<path d="M94.2929 77.6602C94.6834 78.0508 95.3166 78.0508 95.7071 77.6602L102.071 71.2963C102.462 70.9057 102.462 70.2726 102.071 69.8821C101.681 69.4915 101.047 69.4915 100.657 69.8821L95 75.5389L89.3431 69.8821C88.9526 69.4915 88.3195 69.4915 87.9289 69.8821C87.5384 70.2726 87.5384 70.9057 87.9289 71.2963L94.2929 77.6602ZM96 62.9531L96 61.9531L94 61.9531L94 62.9531L96 62.9531ZM96 76.9531L96 62.9531L94 62.9531L94 76.9531L96 76.9531Z" fill="#B567DA"/>
<path d="M127.476 111.561C126.02 111.561 124.546 111.422 123.056 111.145C121.6 110.833 120.23 110.347 118.948 109.689C117.7 109.03 116.625 108.146 115.724 107.037C114.857 105.927 114.302 104.558 114.06 102.929H118.74C119.156 104.107 119.849 105.026 120.82 105.685C121.79 106.343 122.865 106.811 124.044 107.089C125.257 107.331 126.418 107.453 127.528 107.453C128.325 107.453 129.192 107.383 130.128 107.245C131.064 107.106 131.965 106.811 132.832 106.361C133.733 105.91 134.461 105.251 135.016 104.385C135.57 103.483 135.848 102.305 135.848 100.849C135.848 99.4619 135.588 98.3525 135.068 97.5205C134.548 96.6539 133.854 96.0125 132.988 95.5965C132.121 95.1459 131.15 94.8512 130.076 94.7125C129.036 94.5739 127.978 94.5045 126.904 94.5045H123.368V90.4485H125.5C126.713 90.4485 127.857 90.3445 128.932 90.1365C130.006 89.8939 130.96 89.5299 131.792 89.0445C132.624 88.5592 133.265 87.9179 133.716 87.1205C134.201 86.3232 134.444 85.3352 134.444 84.1565C134.444 82.4579 134.08 81.1752 133.352 80.3085C132.658 79.4419 131.757 78.8525 130.648 78.5405C129.538 78.2285 128.377 78.0725 127.164 78.0725C126.193 78.0725 125.188 78.2285 124.148 78.5405C123.142 78.8179 122.241 79.2859 121.444 79.9445C120.646 80.5685 120.109 81.4179 119.832 82.4925H115.308C115.516 80.9672 116.001 79.6672 116.764 78.5925C117.526 77.5179 118.462 76.6339 119.572 75.9405C120.716 75.2472 121.964 74.7445 123.316 74.4325C124.702 74.1205 126.106 73.9645 127.528 73.9645C129.088 73.9645 130.544 74.1379 131.896 74.4845C133.282 74.7965 134.496 75.3339 135.536 76.0965C136.576 76.8245 137.39 77.7952 137.98 79.0085C138.604 80.2219 138.916 81.6952 138.916 83.4285C138.916 84.7112 138.708 85.8899 138.292 86.9645C137.876 88.0392 137.252 88.9752 136.42 89.7725C135.622 90.5699 134.617 91.2285 133.404 91.7485C134.964 92.0259 136.264 92.5805 137.304 93.4125C138.378 94.2445 139.176 95.2672 139.696 96.4805C140.25 97.6592 140.528 98.9939 140.528 100.485C140.528 102.807 140.112 104.697 139.28 106.153C138.448 107.609 137.373 108.735 136.056 109.533C134.738 110.295 133.317 110.833 131.792 111.145C130.266 111.422 128.828 111.561 127.476 111.561ZM160.789 111.561C158.223 111.561 156.022 111.093 154.185 110.157C152.382 109.186 150.909 107.851 149.765 106.153C148.621 104.419 147.771 102.426 147.217 100.173C146.697 97.8845 146.437 95.4232 146.437 92.7885C146.437 90.1539 146.697 87.7099 147.217 85.4565C147.737 83.1685 148.569 81.1752 149.713 79.4765C150.857 77.7432 152.33 76.3912 154.133 75.4205C155.97 74.4499 158.189 73.9645 160.789 73.9645C163.527 73.9645 165.815 74.5019 167.653 75.5765C169.525 76.6165 170.998 78.0379 172.073 79.8405C173.182 81.6432 173.962 83.6712 174.413 85.9245C174.898 88.1432 175.141 90.4312 175.141 92.7885C175.141 95.1459 174.898 97.4512 174.413 99.7045C173.962 101.923 173.182 103.934 172.073 105.737C170.998 107.505 169.525 108.926 167.653 110.001C165.815 111.041 163.527 111.561 160.789 111.561ZM160.789 107.453C162.834 107.453 164.481 107.019 165.729 106.153C167.011 105.251 167.999 104.073 168.693 102.617C169.386 101.161 169.854 99.5832 170.097 97.8845C170.339 96.1512 170.461 94.4525 170.461 92.7885C170.461 91.1592 170.339 89.4952 170.097 87.7965C169.854 86.0632 169.386 84.4685 168.693 83.0125C167.999 81.5219 167.011 80.3259 165.729 79.4245C164.481 78.5232 162.834 78.0725 160.789 78.0725C158.709 78.0725 157.027 78.5232 155.745 79.4245C154.462 80.3259 153.474 81.5219 152.781 83.0125C152.122 84.4685 151.671 86.0632 151.429 87.7965C151.186 89.4952 151.065 91.1592 151.065 92.7885C151.065 94.4525 151.186 96.1512 151.429 97.8845C151.671 99.5832 152.122 101.161 152.781 102.617C153.474 104.073 154.462 105.251 155.745 106.153C157.027 107.019 158.709 107.453 160.789 107.453ZM185.283 111.145L207.903 74.3805H212.479L189.911 111.145H185.283ZM209.307 111.457C207.643 111.457 206.239 111.093 205.095 110.365C203.985 109.637 203.136 108.666 202.547 107.453C201.957 106.205 201.663 104.818 201.663 103.293C201.663 101.698 201.957 100.294 202.547 99.0805C203.136 97.8672 204.003 96.9139 205.147 96.2205C206.291 95.5272 207.677 95.1805 209.307 95.1805C210.901 95.1805 212.253 95.5272 213.363 96.2205C214.472 96.9139 215.321 97.8672 215.911 99.0805C216.5 100.294 216.795 101.698 216.795 103.293C216.795 104.818 216.5 106.205 215.911 107.453C215.321 108.666 214.472 109.637 213.363 110.365C212.253 111.093 210.901 111.457 209.307 111.457ZM209.255 107.765C210.156 107.765 210.867 107.557 211.387 107.141C211.941 106.725 212.323 106.17 212.531 105.477C212.773 104.783 212.895 104.055 212.895 103.293C212.895 102.53 212.773 101.819 212.531 101.161C212.323 100.467 211.941 99.9125 211.387 99.4965C210.867 99.0805 210.156 98.8725 209.255 98.8725C207.868 98.8725 206.88 99.3232 206.291 100.225C205.736 101.126 205.459 102.149 205.459 103.293C205.459 104.506 205.753 105.563 206.343 106.465C206.932 107.331 207.903 107.765 209.255 107.765ZM188.715 90.2405C187.051 90.2405 185.647 89.8765 184.503 89.1485C183.393 88.4205 182.544 87.4499 181.955 86.2365C181.4 84.9885 181.123 83.6019 181.123 82.0765C181.123 80.4819 181.4 79.0779 181.955 77.8645C182.544 76.6512 183.411 75.6979 184.555 75.0045C185.699 74.3112 187.085 73.9645 188.715 73.9645C190.344 73.9645 191.713 74.3112 192.823 75.0045C193.932 75.6979 194.764 76.6512 195.319 77.8645C195.908 79.0779 196.203 80.4819 196.203 82.0765C196.203 83.6019 195.908 84.9885 195.319 86.2365C194.764 87.4499 193.932 88.4205 192.823 89.1485C191.713 89.8765 190.344 90.2405 188.715 90.2405ZM188.715 86.5485C189.616 86.5485 190.327 86.3405 190.847 85.9245C191.367 85.5085 191.748 84.9539 191.991 84.2605C192.233 83.5672 192.355 82.8392 192.355 82.0765C192.355 81.3139 192.233 80.6032 191.991 79.9445C191.748 79.2512 191.367 78.6965 190.847 78.2805C190.327 77.8645 189.616 77.6565 188.715 77.6565C187.328 77.6565 186.34 78.1072 185.751 79.0085C185.161 79.9099 184.867 80.9325 184.867 82.0765C184.867 83.2899 185.161 84.3472 185.751 85.2485C186.34 86.1152 187.328 86.5485 188.715 86.5485Z" fill="#B567DA"/>
<defs>
<linearGradient id="paint0_linear_10001_40067" x1="157.742" y1="19.3477" x2="157.742" y2="113.113" gradientUnits="userSpaceOnUse">
<stop stop-color="#EFE3F9"/>
<stop offset="1" stop-color="#EFE3F9" stop-opacity="0.15"/>
</linearGradient>
</defs>
</svg>
