<svg width="1240" height="159" viewBox="0 0 1240 159" fill="none" xmlns="http://www.w3.org/2000/svg">
<mask id="mask0_5313_15225" style="mask-type:alpha" maskUnits="userSpaceOnUse" x="0" y="0" width="1240" height="208">
<rect y="0.371094" width="1240" height="207.462" fill="#D9D9D9"/>
</mask>
<g mask="url(#mask0_5313_15225)">
<path d="M34.6598 34.093C22.519 23.8035 10.6265 13.0088 0 0V159H1240L1238.37 156.997C1238.37 156.997 1232.58 147.29 1216.25 139.438C1210.44 136.643 1204.04 139.942 1198.25 141.172C1189.9 142.945 1181.07 142.691 1172.64 142.212C1161.41 141.574 1149.44 138.761 1139.06 132.966C1134.49 130.413 1130.32 126.044 1125.21 125.685C1115.35 124.992 1107.58 134.19 1097.17 132.388C1082.28 129.809 1067.8 123.641 1052.78 121.871C1039.01 120.249 1022.41 119.568 1010.03 128.806C999.297 136.816 994.262 139.642 982.944 132.157C969.158 123.041 955.641 112.203 939.761 113.319C925.805 114.3 913.987 123.442 899.694 123.605C880.708 123.822 867.223 108.825 849.848 101.184C841.076 97.3269 830.037 96.7139 822.329 89.1652C812.309 79.3517 802.459 83.0918 790.051 85.3514C767.515 89.4554 745.59 106.048 722.984 106.963C711.619 107.423 700.19 106.362 690.964 96.5617C678.934 83.7812 666.577 76.6428 650.724 78.9951C630.839 81.9458 612.364 92.0414 592.138 89.8587C583.751 88.9535 571.937 88.5973 565.138 80.7287C552.081 65.6159 538.087 64.7298 521.523 67.5537C506.878 70.0505 493.55 85.8414 478.773 83.6179C467.455 81.9148 456.378 68.966 447.273 60.7351C435.069 49.7026 427.191 53.8599 413.956 59.0016C395.907 66.0135 376.078 93.0575 357.447 86.215C342.512 80.7303 330.195 66.0824 320.235 50.8507C313.551 40.6287 307.751 28.522 296.524 27.1589C268.628 23.7722 238.843 61.2393 220.417 81.9046C209.06 85.6961 181.712 93.9939 176.063 76.0448C171.927 62.9037 175.854 43.6853 160.227 43.6853C155.663 43.6853 151.839 46.5811 147.332 47.3835C143.15 48.1283 139.439 45.7656 135.304 45.7656C129.101 45.7656 115.805 43.028 111.159 37.4445C106.361 31.6776 93.5819 31.9619 87.7942 35.8266C79.8453 41.1343 74.7789 43.6853 65.2077 43.6853C53.558 43.6853 45.0452 42.8948 34.6598 34.093Z" fill="url(#paint0_linear_5313_15225)" fill-opacity="0.2"/>
<path d="M0 0C10.628 13.014 22.5223 23.8131 34.6648 34.1067C45.0517 42.912 53.5658 43.7028 65.2171 43.7028C74.7897 43.7028 79.8568 41.1508 87.8068 35.8409C93.5953 31.9747 106.377 31.6903 111.175 37.4596C115.821 43.0452 129.12 45.7839 135.323 45.7839C139.459 45.7839 143.17 48.1476 147.354 47.4025C151.861 46.5997 155.685 43.7028 160.25 43.7028C175.879 43.7028 171.952 62.9289 176.088 76.0753C181.738 94.0316 209.09 85.7304 220.448 81.9374C238.877 61.2638 268.667 23.7817 296.567 27.1698C307.795 28.5334 313.597 40.6449 320.281 50.8711C330.243 66.1089 342.562 80.7626 357.498 86.2496C376.132 93.0948 395.964 66.04 414.016 59.0252C427.252 53.8815 435.132 49.7226 447.338 60.7595C456.444 68.9936 467.522 81.9477 478.842 83.6514C493.62 85.8758 506.951 70.0786 521.598 67.5808C538.165 64.7557 552.16 65.6422 565.219 80.761C572.019 88.6328 583.834 88.9892 592.223 89.8947C612.452 92.0783 630.93 81.9786 650.818 79.0268C666.673 76.6735 679.031 83.8148 691.064 96.6004C700.291 106.405 711.722 107.466 723.088 107.006C745.697 106.091 767.625 89.4913 790.164 85.3857C802.574 83.1251 812.426 79.3835 822.447 89.201C830.156 96.7527 841.197 97.3659 849.971 101.225C867.348 108.868 880.835 123.871 899.824 123.655C914.119 123.491 925.938 114.346 939.896 113.365C955.779 112.248 969.298 123.091 983.085 132.21C994.405 139.698 999.44 136.871 1010.18 128.857C1022.55 119.616 1039.16 120.297 1052.93 121.92C1067.95 123.691 1082.43 129.861 1097.33 132.441C1107.74 134.244 1115.51 125.042 1125.37 125.736C1130.48 126.095 1134.65 130.466 1139.22 133.019C1149.6 138.817 1161.58 141.631 1172.8 142.269C1181.24 142.748 1190.07 143.002 1198.42 141.228C1204.21 139.998 1210.61 136.698 1216.43 139.494C1232.76 147.349 1240 159 1240 159" stroke="#B567DA" stroke-opacity="0.4" stroke-width="1.978" stroke-linecap="square"/>
<path d="M1018.98 83.2587C1015.76 83.2587 1012.99 82.6557 1010.67 81.4497C1008.39 80.199 1006.51 78.524 1005.04 76.4247C1003.61 74.2807 1002.56 71.8687 1001.89 69.1887C1001.22 66.464 1000.89 63.6053 1000.89 60.6127C1000.89 57.084 1001.22 53.7787 1001.89 50.6967C1002.61 47.57 1003.7 44.823 1005.17 42.4557C1006.69 40.0883 1008.66 38.2347 1011.07 36.8947C1013.48 35.51 1016.39 34.8177 1019.78 34.8177C1022.06 34.8177 1024.18 35.2197 1026.15 36.0237C1028.16 36.783 1029.9 37.9443 1031.37 39.5077C1032.85 41.0263 1033.94 42.9023 1034.65 45.1357H1028.56C1027.75 43.483 1026.52 42.2323 1024.87 41.3837C1023.22 40.535 1021.5 40.1107 1019.71 40.1107C1017.66 40.1107 1015.89 40.5127 1014.42 41.3167C1012.95 42.076 1011.7 43.1033 1010.67 44.3987C1009.69 45.694 1008.88 47.168 1008.26 48.8207C1007.68 50.4733 1007.25 52.193 1006.98 53.9797C1006.72 55.7663 1006.58 57.5083 1006.58 59.2057C1007.61 57.6423 1008.79 56.3693 1010.13 55.3867C1011.52 54.404 1013.01 53.6893 1014.62 53.2427C1016.27 52.7513 1017.95 52.5057 1019.65 52.5057C1022.77 52.5057 1025.48 53.1533 1027.75 54.4487C1030.08 55.6993 1031.88 57.4637 1033.18 59.7417C1034.48 61.975 1035.12 64.5657 1035.12 67.5137C1035.12 70.6403 1034.43 73.3873 1033.05 75.7547C1031.66 78.122 1029.74 79.9757 1027.28 81.3157C1024.87 82.611 1022.1 83.2587 1018.98 83.2587ZM1018.84 77.9657C1020.85 77.9657 1022.62 77.5413 1024.14 76.6927C1025.7 75.7993 1026.93 74.6157 1027.82 73.1417C1028.71 71.623 1029.16 69.948 1029.16 68.1167C1029.16 66.1513 1028.74 64.4093 1027.89 62.8907C1027.04 61.372 1025.85 60.166 1024.34 59.2727C1022.86 58.3793 1021.12 57.9327 1019.11 57.9327C1017.28 57.9327 1015.54 58.357 1013.88 59.2057C1012.23 60.0097 1010.89 61.171 1009.86 62.6897C1008.88 64.1637 1008.39 65.928 1008.39 67.9827C1008.39 69.8587 1008.84 71.556 1009.73 73.0747C1010.67 74.5487 1011.92 75.7323 1013.48 76.6257C1015.09 77.519 1016.88 77.9657 1018.84 77.9657ZM1061.06 83.2587C1057.75 83.2587 1054.91 82.6557 1052.55 81.4497C1050.22 80.199 1048.33 78.4793 1046.85 76.2907C1045.38 74.0573 1044.28 71.489 1043.57 68.5857C1042.9 65.6377 1042.56 62.4663 1042.56 59.0717C1042.56 55.677 1042.9 52.528 1043.57 49.6247C1044.24 46.6767 1045.31 44.1083 1046.78 41.9197C1048.26 39.6863 1050.16 37.9443 1052.48 36.6937C1054.85 35.443 1057.71 34.8177 1061.06 34.8177C1064.58 34.8177 1067.53 35.51 1069.9 36.8947C1072.31 38.2347 1074.21 40.066 1075.59 42.3887C1077.02 44.7113 1078.03 47.3243 1078.61 50.2277C1079.23 53.0863 1079.55 56.0343 1079.55 59.0717C1079.55 62.109 1079.23 65.0793 1078.61 67.9827C1078.03 70.8413 1077.02 73.432 1075.59 75.7547C1074.21 78.0327 1072.31 79.864 1069.9 81.2487C1067.53 82.5887 1064.58 83.2587 1061.06 83.2587ZM1061.06 77.9657C1063.69 77.9657 1065.81 77.4073 1067.42 76.2907C1069.07 75.1293 1070.35 73.6107 1071.24 71.7347C1072.13 69.8587 1072.74 67.8263 1073.05 65.6377C1073.36 63.4043 1073.52 61.2157 1073.52 59.0717C1073.52 56.9723 1073.36 54.8283 1073.05 52.6397C1072.74 50.4063 1072.13 48.3517 1071.24 46.4757C1070.35 44.555 1069.07 43.014 1067.42 41.8527C1065.81 40.6913 1063.69 40.1107 1061.06 40.1107C1058.38 40.1107 1056.21 40.6913 1054.56 41.8527C1052.9 43.014 1051.63 44.555 1050.74 46.4757C1049.89 48.3517 1049.31 50.4063 1049 52.6397C1048.68 54.8283 1048.53 56.9723 1048.53 59.0717C1048.53 61.2157 1048.68 63.4043 1049 65.6377C1049.31 67.8263 1049.89 69.8587 1050.74 71.7347C1051.63 73.6107 1052.9 75.1293 1054.56 76.2907C1056.21 77.4073 1058.38 77.9657 1061.06 77.9657ZM1092.61 82.7227L1121.76 35.3537H1127.66L1098.58 82.7227H1092.61ZM1123.57 83.1247C1121.42 83.1247 1119.62 82.6557 1118.14 81.7177C1116.71 80.7797 1115.62 79.529 1114.86 77.9657C1114.1 76.3577 1113.72 74.571 1113.72 72.6057C1113.72 70.551 1114.1 68.742 1114.86 67.1787C1115.62 65.6153 1116.73 64.387 1118.21 63.4937C1119.68 62.6003 1121.47 62.1537 1123.57 62.1537C1125.62 62.1537 1127.37 62.6003 1128.79 63.4937C1130.22 64.387 1131.32 65.6153 1132.08 67.1787C1132.84 68.742 1133.22 70.551 1133.22 72.6057C1133.22 74.571 1132.84 76.3577 1132.08 77.9657C1131.32 79.529 1130.22 80.7797 1128.79 81.7177C1127.37 82.6557 1125.62 83.1247 1123.57 83.1247ZM1123.5 78.3677C1124.66 78.3677 1125.58 78.0997 1126.25 77.5637C1126.96 77.0277 1127.45 76.313 1127.72 75.4197C1128.04 74.5263 1128.19 73.5883 1128.19 72.6057C1128.19 71.623 1128.04 70.7073 1127.72 69.8587C1127.45 68.9653 1126.96 68.2507 1126.25 67.7147C1125.58 67.1787 1124.66 66.9107 1123.5 66.9107C1121.72 66.9107 1120.44 67.4913 1119.68 68.6527C1118.97 69.814 1118.61 71.1317 1118.61 72.6057C1118.61 74.169 1118.99 75.5313 1119.75 76.6927C1120.51 77.8093 1121.76 78.3677 1123.5 78.3677ZM1097.04 55.7887C1094.89 55.7887 1093.08 55.3197 1091.61 54.3817C1090.18 53.4437 1089.09 52.193 1088.33 50.6297C1087.61 49.0217 1087.25 47.235 1087.25 45.2697C1087.25 43.215 1087.61 41.406 1088.33 39.8427C1089.09 38.2793 1090.2 37.051 1091.68 36.1577C1093.15 35.2643 1094.94 34.8177 1097.04 34.8177C1099.14 34.8177 1100.9 35.2643 1102.33 36.1577C1103.76 37.051 1104.83 38.2793 1105.55 39.8427C1106.31 41.406 1106.68 43.215 1106.68 45.2697C1106.68 47.235 1106.31 49.0217 1105.55 50.6297C1104.83 52.193 1103.76 53.4437 1102.33 54.3817C1100.9 55.3197 1099.14 55.7887 1097.04 55.7887ZM1097.04 51.0317C1098.2 51.0317 1099.11 50.7637 1099.78 50.2277C1100.45 49.6917 1100.95 48.977 1101.26 48.0837C1101.57 47.1903 1101.73 46.2523 1101.73 45.2697C1101.73 44.287 1101.57 43.3713 1101.26 42.5227C1100.95 41.6293 1100.45 40.9147 1099.78 40.3787C1099.11 39.8427 1098.2 39.5747 1097.04 39.5747C1095.25 39.5747 1093.98 40.1553 1093.22 41.3167C1092.46 42.478 1092.08 43.7957 1092.08 45.2697C1092.08 46.833 1092.46 48.1953 1093.22 49.3567C1093.98 50.4733 1095.25 51.0317 1097.04 51.0317Z" fill="#B567DA"/>
<g filter="url(#filter0_bd_5313_15225)">
<circle cx="1159" cy="138.543" r="15" fill="#B567DA"/>
</g>
<line x1="1158.5" y1="6" x2="1158.5" y2="124.573" stroke="url(#paint1_linear_5313_15225)" stroke-dasharray="1.61 1.61"/>
</g>
<path d="M979.934 50.0974C980.462 50.6258 981.319 50.6258 981.847 50.0974L990.458 41.4867C990.986 40.9583 990.986 40.1016 990.458 39.5732C989.93 39.0448 989.073 39.0448 988.545 39.5732L980.891 47.2271L973.237 39.5732C972.708 39.0448 971.852 39.0448 971.323 39.5732C970.795 40.1016 970.795 40.9583 971.323 41.4867L979.934 50.0974ZM982.244 29.8037V28.4507H979.538V29.8037H982.244ZM982.244 49.1406V29.8037H979.538V49.1406H982.244Z" fill="#B567DA"/>
<defs>
<filter id="filter0_bd_5313_15225" x="1107.63" y="87.1742" width="102.737" height="102.737" filterUnits="userSpaceOnUse" color-interpolation-filters="sRGB">
<feFlood flood-opacity="0" result="BackgroundImageFix"/>
<feGaussianBlur in="BackgroundImageFix" stdDeviation="18.1844"/>
<feComposite in2="SourceAlpha" operator="in" result="effect1_backgroundBlur_5313_15225"/>
<feColorMatrix in="SourceAlpha" type="matrix" values="0 0 0 0 0 0 0 0 0 0 0 0 0 0 0 0 0 0 127 0" result="hardAlpha"/>
<feOffset dy="4.02484"/>
<feGaussianBlur stdDeviation="8.53267"/>
<feComposite in2="hardAlpha" operator="out"/>
<feColorMatrix type="matrix" values="0 0 0 0 0.709804 0 0 0 0 0.403922 0 0 0 0 0.854902 0 0 0 0.4 0"/>
<feBlend mode="normal" in2="effect1_backgroundBlur_5313_15225" result="effect2_dropShadow_5313_15225"/>
<feBlend mode="normal" in="SourceGraphic" in2="effect2_dropShadow_5313_15225" result="shape"/>
</filter>
<linearGradient id="paint0_linear_5313_15225" x1="742.935" y1="16.3767" x2="742.699" y2="199.064" gradientUnits="userSpaceOnUse">
<stop stop-color="#B567DA"/>
<stop offset="0.755234" stop-color="#FAFCFF"/>
</linearGradient>
<linearGradient id="paint1_linear_5313_15225" x1="1157.5" y1="124.573" x2="1157.5" y2="6" gradientUnits="userSpaceOnUse">
<stop stop-color="#B567DA"/>
<stop offset="1" stop-color="#FAFCFF"/>
</linearGradient>
</defs>
</svg>
