<svg width="1920" height="318" viewBox="0 0 1920 318" fill="none" xmlns="http://www.w3.org/2000/svg">
<mask id="mask0_5393_1985" style="mask-type:alpha" maskUnits="userSpaceOnUse" x="0" y="1" width="1920" height="317">
<rect y="1" width="1920" height="317" fill="#D9D9D9"/>
</mask>
<g mask="url(#mask0_5393_1985)">
<path d="M52.5401 56.7611C34.0303 39.7575 15.8989 21.9188 -0.302246 0.421387V318.431H1919.7V299.409C1919.7 299.409 1878.89 243.823 1853.99 230.847C1845.13 226.228 1835.38 231.679 1826.55 233.711C1813.82 236.642 1800.35 236.222 1787.5 235.43C1770.39 234.377 1752.13 229.729 1736.31 220.152C1729.34 215.933 1722.98 208.713 1715.2 208.12C1700.16 206.974 1688.32 222.174 1672.45 219.197C1649.74 214.935 1627.67 204.742 1604.77 201.817C1583.77 199.136 1558.46 198.012 1539.59 213.276C1523.23 226.514 1515.55 231.183 1498.29 218.815C1477.28 203.751 1456.67 185.84 1432.46 187.685C1411.18 189.306 1393.16 204.413 1371.37 204.682C1342.43 205.04 1321.87 180.257 1295.38 167.632C1282 161.257 1265.17 160.244 1253.42 147.77C1238.14 131.552 1223.13 137.733 1204.21 141.467C1169.85 148.249 1136.42 175.669 1101.96 177.181C1084.63 177.941 1067.21 176.188 1053.14 159.992C1034.8 138.872 1015.96 127.076 991.792 130.963C961.476 135.839 933.308 152.523 902.472 148.915C889.684 147.42 871.672 146.831 861.307 133.828C841.4 108.854 820.066 107.389 794.812 112.056C772.484 116.182 752.164 142.277 729.635 138.602C712.38 135.788 695.492 114.39 681.611 100.788C663.005 82.5564 650.993 89.4264 630.815 97.9232C603.298 109.511 573.067 154.202 544.661 142.894C521.892 133.831 503.113 109.624 487.929 84.4537C477.738 67.5614 468.895 47.5548 451.778 45.3023C409.248 39.7056 363.838 101.621 335.745 135.771C318.431 142.037 276.736 155.749 268.123 126.088C261.818 104.372 267.804 72.6126 243.979 72.6126C237.021 72.6126 231.191 77.398 224.321 78.7241C217.944 79.9548 212.287 76.0503 205.982 76.0503C196.526 76.0503 176.254 71.5264 169.171 62.2996C161.856 52.7696 142.373 53.2393 133.549 59.6258C121.43 68.3971 113.706 72.6126 99.1135 72.6126C81.3524 72.6126 68.3737 71.3064 52.5401 56.7611Z" fill="url(#paint0_linear_5393_1985)" fill-opacity="0.2"/>
<path d="M-0.302246 0.421387C15.8989 21.8909 34.0303 39.7065 52.5401 56.6881C68.3737 71.2145 81.3524 72.519 99.1135 72.519C113.706 72.519 121.43 68.3089 133.549 59.5491C142.373 53.1709 161.856 52.7017 169.171 62.2194C176.254 71.4342 196.526 75.9523 205.982 75.9523C212.287 75.9523 217.944 79.8517 224.321 78.6225C231.191 77.2982 237.021 72.519 243.979 72.519C267.804 72.519 261.818 104.237 268.123 125.925C276.736 155.548 318.431 141.853 335.745 135.596C363.838 101.49 409.248 39.6547 451.778 45.2441C468.895 47.4937 477.738 67.4744 487.929 84.3447C503.113 109.483 521.892 133.658 544.661 142.709C573.067 154.002 603.298 109.369 630.815 97.7968C650.993 89.311 663.005 82.4499 681.611 100.658C695.492 114.242 712.38 135.613 729.635 138.423C752.163 142.093 772.484 116.032 794.812 111.911C820.066 107.251 841.4 108.713 861.308 133.655C871.672 146.641 889.684 147.229 902.472 148.723C933.308 152.325 961.476 135.664 991.792 130.794C1015.96 126.912 1034.8 138.693 1053.14 159.786C1067.21 175.96 1084.63 177.711 1101.96 176.952C1136.42 175.442 1169.85 148.057 1204.21 141.284C1223.13 137.555 1238.14 131.382 1253.42 147.579C1265.17 160.037 1282 161.048 1295.38 167.415C1321.87 180.024 1342.43 204.775 1371.37 204.417C1393.16 204.148 1411.18 189.061 1432.46 187.442C1456.67 185.6 1477.28 203.487 1498.29 218.532C1515.55 230.884 1523.23 226.221 1539.59 213C1558.46 197.756 1583.77 198.878 1604.77 201.556C1627.67 204.477 1649.74 214.657 1672.45 218.913C1688.32 221.887 1700.16 206.706 1715.2 207.851C1722.98 208.443 1729.34 215.654 1736.31 219.867C1752.13 229.431 1770.39 234.073 1787.5 235.126C1800.35 235.916 1813.82 236.336 1826.55 233.409C1835.38 231.379 1845.13 225.935 1853.99 230.548C1878.89 243.507 1919.7 299.022 1919.7 299.022" stroke="#B567DA" stroke-opacity="0.4" stroke-width="3.27393" stroke-linecap="square"/>
<g filter="url(#filter0_bd_5393_1985)">
<ellipse cx="1789.4" cy="222.807" rx="24.6667" ry="23.0385" fill="#B567DA"/>
</g>
<line x1="1789.28" y1="16.5063" x2="1789.28" y2="199.811" stroke="url(#paint1_linear_5393_1985)" stroke-width="1.33236" stroke-dasharray="2.66 2.66"/>
</g>
<path d="M1494.42 69.5884C1495.29 70.463 1496.71 70.463 1497.58 69.5884L1511.84 55.3363C1512.71 54.4618 1512.71 53.0438 1511.84 52.1692C1510.96 51.2946 1509.54 51.2946 1508.67 52.1692L1496 64.8377L1483.33 52.1692C1482.46 51.2946 1481.04 51.2946 1480.16 52.1692C1479.29 53.0438 1479.29 54.4618 1480.16 55.3363L1494.42 69.5884ZM1498.24 35.9989V33.7594H1493.76V35.9989H1498.24ZM1498.24 68.0049V35.9989H1493.76V68.0049H1498.24Z" fill="#B567DA"/>
<path d="M1006.62 22.5037C1005.07 22.5037 1003.78 22.1766 1002.74 21.5223C1001.72 20.8539 1000.95 19.9437 1000.44 18.7917C999.939 17.6255 999.69 16.2957 999.69 14.8023C999.69 13.3232 999.946 12.0077 1000.46 10.8557C1000.97 9.68945 1001.74 8.77212 1002.76 8.10367C1003.8 7.42101 1005.1 7.07967 1006.67 7.07967C1007.78 7.07967 1008.73 7.25745 1009.52 7.61301C1010.34 7.95434 1010.99 8.43078 1011.49 9.04234C1011.99 9.6539 1012.33 10.3721 1012.51 11.197H1010.63C1010.42 10.4575 1009.96 9.86723 1009.25 9.42634C1008.55 8.98545 1007.67 8.76501 1006.6 8.76501C1005.41 8.76501 1004.44 9.04945 1003.7 9.61834C1002.98 10.173 1002.44 10.9055 1002.1 11.8157C1001.76 12.7117 1001.59 13.6859 1001.59 14.7383C1001.59 15.8477 1001.77 16.8646 1002.12 17.789C1002.48 18.7135 1003.03 19.453 1003.79 20.0077C1004.54 20.5481 1005.5 20.8183 1006.67 20.8183C1007.38 20.8183 1008.01 20.7188 1008.56 20.5197C1009.13 20.3206 1009.6 20.0361 1009.97 19.6663C1010.36 19.2966 1010.62 18.8699 1010.76 18.3863H1012.79C1012.58 19.2112 1012.19 19.9366 1011.64 20.5623C1011.1 21.1739 1010.41 21.6503 1009.57 21.9917C1008.73 22.333 1007.75 22.5037 1006.62 22.5037ZM1015.24 22.333V11.0903H1017.05V16.0183H1022.69V11.0903H1024.5V22.333H1022.69V17.6183H1017.05V22.333H1015.24ZM1027.37 22.333V11.0903H1029.18V19.709C1029.28 19.5099 1029.41 19.2966 1029.58 19.069C1029.76 18.8272 1029.89 18.6423 1029.99 18.5143L1035.43 11.0903H1037.22V22.333H1035.41V13.7143C1035.3 13.9277 1035.17 14.1268 1035.02 14.3117C1034.9 14.4966 1034.78 14.6672 1034.66 14.8237L1029.14 22.333H1027.37ZM1038.94 22.333L1042.59 16.445L1039.26 11.0903H1041.21L1044.17 15.9543H1045.86V11.0903H1047.67V15.9543H1049.35L1052.32 11.0903H1054.26L1050.93 16.445L1054.58 22.333H1052.47L1049.55 17.4903H1047.67V22.333H1045.86V17.4903H1043.98L1041.06 22.333H1038.94ZM1060.96 22.461C1059.76 22.461 1058.78 22.2192 1057.99 21.7357C1057.21 21.2379 1056.63 20.5552 1056.24 19.6877C1055.86 18.8201 1055.67 17.8317 1055.67 16.7223C1055.67 15.5988 1055.87 14.6103 1056.27 13.757C1056.68 12.8895 1057.28 12.2068 1058.06 11.709C1058.84 11.2112 1059.8 10.9623 1060.94 10.9623C1061.78 10.9623 1062.51 11.1259 1063.14 11.453C1063.78 11.7659 1064.3 12.1926 1064.71 12.733C1065.14 13.2735 1065.45 13.8779 1065.63 14.5463C1065.83 15.2148 1065.92 15.9046 1065.89 16.6157C1065.87 16.7437 1065.87 16.8717 1065.87 16.9997C1065.87 17.1277 1065.86 17.2557 1065.84 17.3837H1057.5C1057.56 18.0379 1057.72 18.6281 1057.99 19.1543C1058.26 19.6806 1058.65 20.1001 1059.15 20.413C1059.64 20.7117 1060.26 20.861 1061 20.861C1061.37 20.861 1061.74 20.8183 1062.11 20.733C1062.5 20.6335 1062.84 20.4699 1063.14 20.2423C1063.45 20.0148 1063.67 19.709 1063.8 19.325H1065.65C1065.48 20.0503 1065.16 20.6477 1064.69 21.117C1064.22 21.5721 1063.66 21.9135 1063.01 22.141C1062.35 22.3543 1061.67 22.461 1060.96 22.461ZM1057.55 15.805H1064.05C1064.04 15.165 1063.9 14.6032 1063.63 14.1197C1063.36 13.6361 1062.99 13.2592 1062.52 12.989C1062.06 12.7188 1061.51 12.5837 1060.87 12.5837C1060.18 12.5837 1059.59 12.733 1059.1 13.0317C1058.63 13.3303 1058.27 13.7215 1058.02 14.205C1057.76 14.6886 1057.6 15.2219 1057.55 15.805ZM1068.32 22.333V11.0903H1070.14V16.0183H1075.77V11.0903H1077.58V22.333H1075.77V17.6183H1070.14V22.333H1068.32ZM1080.45 22.333V11.0903H1082.26V19.709C1082.36 19.5099 1082.5 19.2966 1082.67 19.069C1082.84 18.8272 1082.97 18.6423 1083.07 18.5143L1088.51 11.0903H1090.31V22.333H1088.49V13.7143C1088.38 13.9277 1088.25 14.1268 1088.11 14.3117C1087.98 14.4966 1087.86 14.6672 1087.75 14.8237L1082.22 22.333H1080.45ZM1098.02 22.461C1096.83 22.461 1095.84 22.2192 1095.06 21.7357C1094.27 21.2379 1093.69 20.5552 1093.31 19.6877C1092.92 18.8201 1092.73 17.8317 1092.73 16.7223C1092.73 15.5988 1092.93 14.6103 1093.33 13.757C1093.74 12.8895 1094.34 12.2068 1095.12 11.709C1095.9 11.2112 1096.86 10.9623 1098 10.9623C1098.84 10.9623 1099.57 11.1259 1100.2 11.453C1100.84 11.7659 1101.36 12.1926 1101.78 12.733C1102.2 13.2735 1102.51 13.8779 1102.69 14.5463C1102.89 15.2148 1102.98 15.9046 1102.95 16.6157C1102.94 16.7437 1102.93 16.8717 1102.93 16.9997C1102.93 17.1277 1102.92 17.2557 1102.91 17.3837H1094.57C1094.62 18.0379 1094.79 18.6281 1095.06 19.1543C1095.33 19.6806 1095.71 20.1001 1096.21 20.413C1096.71 20.7117 1097.32 20.861 1098.06 20.861C1098.43 20.861 1098.8 20.8183 1099.17 20.733C1099.56 20.6335 1099.9 20.4699 1100.2 20.2423C1100.51 20.0148 1100.73 19.709 1100.86 19.325H1102.72C1102.54 20.0503 1102.22 20.6477 1101.76 21.117C1101.29 21.5721 1100.72 21.9135 1100.07 22.141C1099.42 22.3543 1098.73 22.461 1098.02 22.461ZM1094.61 15.805H1101.12C1101.1 15.165 1100.96 14.6032 1100.69 14.1197C1100.42 13.6361 1100.05 13.2592 1099.58 12.989C1099.12 12.7188 1098.58 12.5837 1097.94 12.5837C1097.24 12.5837 1096.65 12.733 1096.17 13.0317C1095.7 13.3303 1095.33 13.7215 1095.08 14.205C1094.82 14.6886 1094.67 15.2219 1094.61 15.805ZM1111.14 22.333V11.0903H1112.95V16.0183H1118.58V11.0903H1120.4V22.333H1118.58V17.6183H1112.95V22.333H1111.14ZM1127.72 22.461C1126.88 22.461 1126.15 22.3188 1125.52 22.0343C1124.91 21.7357 1124.41 21.3303 1124.01 20.8183C1123.61 20.3063 1123.31 19.7019 1123.11 19.005C1122.93 18.3081 1122.84 17.5543 1122.84 16.7437C1122.84 15.6628 1123.01 14.6886 1123.35 13.821C1123.7 12.9392 1124.26 12.2423 1125.03 11.7303C1125.8 11.2183 1126.8 10.9623 1128.04 10.9623C1128.69 10.9623 1129.32 11.0832 1129.92 11.325C1130.53 11.5668 1131.05 11.9437 1131.48 12.4557V11.0903H1133.29V22.333H1131.48V20.8183C1131.08 21.3446 1130.55 21.7499 1129.9 22.0343C1129.24 22.3188 1128.52 22.461 1127.72 22.461ZM1128.02 20.861C1128.76 20.861 1129.38 20.669 1129.9 20.285C1130.41 19.901 1130.8 19.389 1131.07 18.749C1131.35 18.109 1131.5 17.4121 1131.5 16.6583C1131.5 15.8761 1131.36 15.1792 1131.09 14.5677C1130.84 13.9561 1130.45 13.4726 1129.94 13.117C1129.43 12.7615 1128.78 12.5837 1128 12.5837C1127.19 12.5837 1126.53 12.7686 1126.04 13.1383C1125.55 13.5081 1125.2 14.0059 1124.97 14.6317C1124.76 15.2575 1124.65 15.9543 1124.65 16.7223C1124.65 17.5188 1124.76 18.2299 1124.99 18.8557C1125.22 19.4815 1125.58 19.9721 1126.08 20.3277C1126.58 20.6832 1127.22 20.861 1128.02 20.861ZM1136.14 22.333V11.0903H1143.9V12.6903H1137.95V22.333H1136.14ZM1145.82 26.3863V11.0903H1147.55L1147.64 12.8183C1148.02 12.2068 1148.54 11.7446 1149.2 11.4317C1149.86 11.1188 1150.58 10.9623 1151.35 10.9623C1152.49 10.9623 1153.42 11.2183 1154.14 11.7303C1154.87 12.2281 1155.4 12.9108 1155.74 13.7783C1156.1 14.6459 1156.28 15.6272 1156.28 16.7223C1156.28 17.8175 1156.1 18.7988 1155.74 19.6663C1155.39 20.5339 1154.84 21.2166 1154.1 21.7143C1153.36 22.2121 1152.42 22.461 1151.26 22.461C1150.7 22.461 1150.18 22.4041 1149.73 22.2903C1149.27 22.1623 1148.88 21.9846 1148.53 21.757C1148.19 21.5295 1147.89 21.2735 1147.64 20.989V26.3863H1145.82ZM1151.12 20.861C1151.94 20.861 1152.59 20.6761 1153.08 20.3063C1153.56 19.9223 1153.91 19.4175 1154.12 18.7917C1154.35 18.1659 1154.46 17.4761 1154.46 16.7223C1154.46 15.9543 1154.35 15.2575 1154.12 14.6317C1153.91 14.0059 1153.55 13.5081 1153.06 13.1383C1152.56 12.7686 1151.9 12.5837 1151.07 12.5837C1150.33 12.5837 1149.7 12.7757 1149.17 13.1597C1148.66 13.5295 1148.27 14.0343 1148 14.6743C1147.73 15.3001 1147.6 15.9899 1147.6 16.7437C1147.6 17.5259 1147.72 18.2299 1147.98 18.8557C1148.24 19.4815 1148.63 19.9721 1149.15 20.3277C1149.68 20.6832 1150.33 20.861 1151.12 20.861ZM1158.98 27.1543V25.4263C1159.68 25.4263 1160.23 25.3268 1160.64 25.1277C1161.06 24.9428 1161.4 24.6441 1161.67 24.2317C1161.95 23.8335 1162.22 23.3215 1162.48 22.6957L1157.55 11.0903H1159.68L1163.48 20.5623L1166.59 11.0903H1168.64L1165.49 19.9437C1165.33 20.3988 1165.15 20.9108 1164.95 21.4797C1164.75 22.0486 1164.53 22.6246 1164.29 23.2077C1164.05 23.805 1163.78 24.3526 1163.48 24.8503C1163.2 25.3623 1162.88 25.7748 1162.52 26.0877C1162.22 26.3579 1161.93 26.5712 1161.65 26.7277C1161.36 26.8841 1161.01 26.9908 1160.6 27.0477C1160.2 27.1188 1159.66 27.1543 1158.98 27.1543ZM1174.4 22.461C1173.86 22.461 1173.32 22.4112 1172.78 22.3117C1172.24 22.2121 1171.73 22.0486 1171.26 21.821C1170.81 21.5792 1170.44 21.2592 1170.15 20.861C1169.87 20.4486 1169.71 19.9366 1169.68 19.325H1171.46C1171.53 19.709 1171.73 20.0148 1172.07 20.2423C1172.42 20.4699 1172.8 20.6335 1173.23 20.733C1173.67 20.8183 1174.06 20.861 1174.4 20.861C1174.8 20.861 1175.2 20.8183 1175.62 20.733C1176.04 20.6477 1176.4 20.477 1176.68 20.221C1176.98 19.965 1177.13 19.5881 1177.13 19.0903C1177.13 18.6068 1177.01 18.2512 1176.77 18.0237C1176.54 17.7961 1176.23 17.6468 1175.85 17.5757C1175.48 17.5046 1175.07 17.469 1174.63 17.469H1172.63V15.869H1174.27C1174.54 15.869 1174.82 15.8477 1175.1 15.805C1175.39 15.7481 1175.65 15.6628 1175.89 15.549C1176.13 15.421 1176.33 15.2432 1176.47 15.0157C1176.62 14.7881 1176.7 14.4966 1176.7 14.141C1176.7 13.7428 1176.59 13.4299 1176.36 13.2023C1176.13 12.9748 1175.84 12.8183 1175.49 12.733C1175.13 12.6335 1174.77 12.5837 1174.4 12.5837C1174.06 12.5837 1173.7 12.6192 1173.31 12.6903C1172.94 12.7615 1172.62 12.9037 1172.35 13.117C1172.08 13.3161 1171.92 13.6148 1171.86 14.013H1170.07C1170.1 13.245 1170.33 12.6406 1170.77 12.1997C1171.21 11.7588 1171.76 11.4459 1172.42 11.261C1173.07 11.0619 1173.72 10.9623 1174.38 10.9623C1174.88 10.9623 1175.37 11.0121 1175.85 11.1117C1176.33 11.2112 1176.77 11.3819 1177.17 11.6237C1177.57 11.8512 1177.88 12.157 1178.11 12.541C1178.35 12.925 1178.47 13.4015 1178.47 13.9703C1178.47 14.4823 1178.35 14.9375 1178.11 15.3357C1177.87 15.7339 1177.5 16.0539 1177 16.2957C1177.73 16.5232 1178.23 16.8788 1178.52 17.3623C1178.8 17.8459 1178.94 18.4219 1178.94 19.0903C1178.94 19.6877 1178.82 20.1997 1178.56 20.6263C1178.3 21.0388 1177.95 21.3872 1177.51 21.6717C1177.09 21.9419 1176.6 22.141 1176.06 22.269C1175.52 22.397 1174.97 22.461 1174.4 22.461ZM1181.28 22.333V11.0903H1183.1V15.933H1185.06L1188.39 11.0903H1190.46L1186.7 16.445L1190.78 22.333H1188.64L1185.27 17.5117H1183.1V22.333H1181.28ZM1192.35 22.333V11.0903H1194.16V19.709C1194.26 19.5099 1194.39 19.2966 1194.56 19.069C1194.73 18.8272 1194.87 18.6423 1194.97 18.5143L1200.41 11.0903H1202.2V22.333H1200.39V13.7143C1200.27 13.9277 1200.15 14.1268 1200 14.3117C1199.88 14.4966 1199.76 14.6672 1199.64 14.8237L1194.12 22.333H1192.35ZM1000.1 49.333V38.0903H1001.91V43.0183H1007.54V38.0903H1009.35V49.333H1007.54V44.6183H1001.91V49.333H1000.1ZM1016.68 49.461C1015.84 49.461 1015.11 49.3188 1014.48 49.0343C1013.87 48.7357 1013.37 48.3303 1012.97 47.8183C1012.57 47.3063 1012.27 46.7019 1012.07 46.005C1011.89 45.3081 1011.79 44.5543 1011.79 43.7437C1011.79 42.6628 1011.96 41.6886 1012.31 40.821C1012.66 39.9392 1013.22 39.2423 1013.99 38.7303C1014.76 38.2183 1015.76 37.9623 1017 37.9623C1017.65 37.9623 1018.28 38.0832 1018.88 38.325C1019.49 38.5668 1020.01 38.9437 1020.43 39.4557V38.0903H1022.25V49.333H1020.43V47.8183C1020.04 48.3446 1019.51 48.7499 1018.86 49.0343C1018.2 49.3188 1017.48 49.461 1016.68 49.461ZM1016.98 47.861C1017.72 47.861 1018.34 47.669 1018.86 47.285C1019.37 46.901 1019.76 46.389 1020.03 45.749C1020.31 45.109 1020.46 44.4121 1020.46 43.6583C1020.46 42.8761 1020.32 42.1792 1020.05 41.5677C1019.79 40.9561 1019.41 40.4726 1018.9 40.117C1018.39 39.7615 1017.74 39.5837 1016.96 39.5837C1016.15 39.5837 1015.49 39.7686 1014.99 40.1383C1014.51 40.5081 1014.15 41.0059 1013.93 41.6317C1013.71 42.2575 1013.61 42.9543 1013.61 43.7223C1013.61 44.5188 1013.72 45.2299 1013.95 45.8557C1014.18 46.4815 1014.54 46.9721 1015.04 47.3277C1015.53 47.6832 1016.18 47.861 1016.98 47.861ZM1029.89 52.789V47.7543C1030.3 47.7543 1030.62 47.6406 1030.87 47.413C1031.12 47.1855 1031.32 46.8868 1031.46 46.517C1031.61 46.1472 1031.71 45.749 1031.78 45.3223C1031.86 44.8815 1031.91 44.4619 1031.95 44.0637C1032.03 43.4095 1032.07 42.7623 1032.08 42.1223C1032.11 41.4681 1032.13 40.949 1032.13 40.565C1032.14 40.1526 1032.15 39.7401 1032.15 39.3277C1032.15 38.9152 1032.15 38.5028 1032.15 38.0903H1040.13V47.7543H1041.6V52.789H1039.85V49.333H1031.63V52.789H1029.89ZM1032.77 47.7543H1038.31V39.6903H1033.87C1033.86 40.2877 1033.85 40.9561 1033.83 41.6957C1033.82 42.4352 1033.79 43.125 1033.75 43.765C1033.73 44.1348 1033.7 44.5543 1033.64 45.0237C1033.6 45.493 1033.51 45.9695 1033.38 46.453C1033.26 46.9223 1033.05 47.3561 1032.77 47.7543ZM1043.49 49.333V38.0903H1045.3V46.709C1045.4 46.5099 1045.54 46.2966 1045.71 46.069C1045.88 45.8272 1046.02 45.6423 1046.12 45.5143L1051.56 38.0903H1053.35V49.333H1051.53V40.7143C1051.42 40.9277 1051.29 41.1268 1051.15 41.3117C1051.02 41.4966 1050.9 41.6672 1050.79 41.8237L1045.26 49.333H1043.49ZM1061 49.461C1059.82 49.461 1058.84 49.2192 1058.06 48.7357C1057.29 48.2379 1056.71 47.5552 1056.33 46.6877C1055.96 45.8201 1055.77 44.8388 1055.77 43.7437C1055.77 42.677 1055.96 41.7099 1056.35 40.8423C1056.75 39.9606 1057.34 39.2637 1058.14 38.7517C1058.95 38.2255 1059.98 37.9623 1061.21 37.9623C1061.98 37.9623 1062.66 38.0903 1063.26 38.3463C1063.87 38.6023 1064.38 38.9792 1064.78 39.477C1065.17 39.9606 1065.45 40.5721 1065.61 41.3117H1063.75C1063.54 40.6859 1063.2 40.245 1062.73 39.989C1062.27 39.7188 1061.73 39.5837 1061.11 39.5837C1060.25 39.5837 1059.57 39.7828 1059.06 40.181C1058.55 40.5792 1058.17 41.0983 1057.93 41.7383C1057.7 42.3641 1057.59 43.0326 1057.59 43.7437C1057.59 44.4832 1057.71 45.1659 1057.95 45.7917C1058.19 46.4175 1058.57 46.9223 1059.08 47.3063C1059.59 47.6761 1060.25 47.861 1061.06 47.861C1061.66 47.861 1062.22 47.733 1062.75 47.477C1063.29 47.221 1063.64 46.7659 1063.82 46.1117H1065.69C1065.55 46.8797 1065.24 47.5126 1064.78 48.0103C1064.32 48.5081 1063.76 48.8779 1063.09 49.1197C1062.44 49.3472 1061.74 49.461 1061 49.461ZM1067.99 49.333V38.0903H1077.31V49.333H1075.5V39.6903H1069.8V49.333H1067.99ZM1085.04 49.461C1083.85 49.461 1082.86 49.2192 1082.08 48.7357C1081.3 48.2379 1080.71 47.5552 1080.33 46.6877C1079.94 45.8201 1079.75 44.8317 1079.75 43.7223C1079.75 42.5988 1079.95 41.6103 1080.35 40.757C1080.76 39.8895 1081.36 39.2068 1082.14 38.709C1082.92 38.2112 1083.88 37.9623 1085.02 37.9623C1085.86 37.9623 1086.59 38.1259 1087.22 38.453C1087.86 38.7659 1088.38 39.1926 1088.8 39.733C1089.22 40.2735 1089.53 40.8779 1089.71 41.5463C1089.91 42.2148 1090 42.9046 1089.97 43.6157C1089.96 43.7437 1089.95 43.8717 1089.95 43.9997C1089.95 44.1277 1089.94 44.2557 1089.93 44.3837H1081.59C1081.64 45.0379 1081.81 45.6281 1082.08 46.1543C1082.35 46.6806 1082.73 47.1001 1083.23 47.413C1083.73 47.7117 1084.35 47.861 1085.09 47.861C1085.46 47.861 1085.82 47.8183 1086.19 47.733C1086.58 47.6335 1086.92 47.4699 1087.22 47.2423C1087.53 47.0148 1087.75 46.709 1087.88 46.325H1089.74C1089.57 47.0503 1089.25 47.6477 1088.78 48.117C1088.31 48.5721 1087.74 48.9135 1087.09 49.141C1086.44 49.3543 1085.75 49.461 1085.04 49.461ZM1081.63 42.805H1088.14C1088.12 42.165 1087.98 41.6032 1087.71 41.1197C1087.44 40.6361 1087.07 40.2592 1086.6 39.989C1086.14 39.7188 1085.6 39.5837 1084.96 39.5837C1084.26 39.5837 1083.67 39.733 1083.19 40.0317C1082.72 40.3303 1082.35 40.7215 1082.1 41.205C1081.84 41.6886 1081.69 42.2219 1081.63 42.805ZM1095.03 49.333V39.6903H1091.17V38.0903H1100.71V39.6903H1096.85V49.333H1095.03ZM1108.94 49.333V45.0023C1108.4 45.1019 1107.87 45.173 1107.36 45.2157C1106.86 45.2441 1106.41 45.2583 1106.02 45.2583C1104.96 45.2583 1104.13 45.0948 1103.52 44.7677C1102.91 44.4406 1102.47 43.9428 1102.22 43.2743C1101.96 42.5917 1101.83 41.7455 1101.83 40.7357V38.0903H1103.65V40.6077C1103.65 41.2619 1103.71 41.8166 1103.84 42.2717C1103.97 42.7268 1104.22 43.0752 1104.59 43.317C1104.96 43.5446 1105.51 43.6583 1106.25 43.6583C1106.68 43.6583 1107.12 43.637 1107.59 43.5943C1108.08 43.5517 1108.53 43.4877 1108.94 43.4023V38.0903H1110.75V49.333H1108.94ZM1118.48 49.461C1117.29 49.461 1116.3 49.2192 1115.51 48.7357C1114.73 48.2379 1114.15 47.5552 1113.77 46.6877C1113.38 45.8201 1113.19 44.8317 1113.19 43.7223C1113.19 42.5988 1113.39 41.6103 1113.79 40.757C1114.2 39.8895 1114.8 39.2068 1115.58 38.709C1116.36 38.2112 1117.32 37.9623 1118.46 37.9623C1119.3 37.9623 1120.03 38.1259 1120.66 38.453C1121.3 38.7659 1121.82 39.1926 1122.23 39.733C1122.66 40.2735 1122.97 40.8779 1123.15 41.5463C1123.35 42.2148 1123.44 42.9046 1123.41 43.6157C1123.39 43.7437 1123.39 43.8717 1123.39 43.9997C1123.39 44.1277 1123.38 44.2557 1123.37 44.3837H1115.02C1115.08 45.0379 1115.24 45.6281 1115.51 46.1543C1115.79 46.6806 1116.17 47.1001 1116.67 47.413C1117.16 47.7117 1117.78 47.861 1118.52 47.861C1118.89 47.861 1119.26 47.8183 1119.63 47.733C1120.02 47.6335 1120.36 47.4699 1120.66 47.2423C1120.97 47.0148 1121.19 46.709 1121.32 46.325H1123.17C1123 47.0503 1122.68 47.6477 1122.21 48.117C1121.74 48.5721 1121.18 48.9135 1120.53 49.141C1119.87 49.3543 1119.19 49.461 1118.48 49.461ZM1115.07 42.805H1121.57C1121.56 42.165 1121.42 41.6032 1121.15 41.1197C1120.88 40.6361 1120.51 40.2592 1120.04 39.989C1119.58 39.7188 1119.03 39.5837 1118.39 39.5837C1117.7 39.5837 1117.11 39.733 1116.62 40.0317C1116.15 40.3303 1115.79 40.7215 1115.54 41.205C1115.28 41.6886 1115.12 42.2219 1115.07 42.805ZM1125.85 53.3863V38.0903H1127.57L1127.66 39.8183C1128.04 39.2068 1128.56 38.7446 1129.22 38.4317C1129.88 38.1188 1130.6 37.9623 1131.37 37.9623C1132.51 37.9623 1133.44 38.2183 1134.17 38.7303C1134.89 39.2281 1135.42 39.9108 1135.77 40.7783C1136.12 41.6459 1136.3 42.6272 1136.3 43.7223C1136.3 44.8175 1136.12 45.7988 1135.77 46.6663C1135.41 47.5339 1134.86 48.2166 1134.12 48.7143C1133.38 49.2121 1132.44 49.461 1131.29 49.461C1130.72 49.461 1130.2 49.4041 1129.75 49.2903C1129.29 49.1623 1128.9 48.9846 1128.55 48.757C1128.21 48.5295 1127.91 48.2735 1127.66 47.989V53.3863H1125.85ZM1131.14 47.861C1131.96 47.861 1132.62 47.6761 1133.1 47.3063C1133.58 46.9223 1133.93 46.4175 1134.14 45.7917C1134.37 45.1659 1134.49 44.4761 1134.49 43.7223C1134.49 42.9543 1134.37 42.2575 1134.14 41.6317C1133.93 41.0059 1133.58 40.5081 1133.08 40.1383C1132.58 39.7686 1131.92 39.5837 1131.09 39.5837C1130.35 39.5837 1129.72 39.7757 1129.19 40.1597C1128.68 40.5295 1128.29 41.0343 1128.02 41.6743C1127.75 42.3001 1127.62 42.9899 1127.62 43.7437C1127.62 44.5259 1127.74 45.2299 1128 45.8557C1128.26 46.4815 1128.65 46.9721 1129.17 47.3277C1129.7 47.6832 1130.35 47.861 1131.14 47.861ZM1143.65 49.461C1142.46 49.461 1141.48 49.2192 1140.7 48.7357C1139.93 48.2379 1139.36 47.5552 1138.97 46.6877C1138.6 45.8201 1138.42 44.8388 1138.42 43.7437C1138.42 42.677 1138.61 41.7099 1138.99 40.8423C1139.39 39.9606 1139.99 39.2637 1140.79 38.7517C1141.6 38.2255 1142.62 37.9623 1143.86 37.9623C1144.63 37.9623 1145.31 38.0903 1145.91 38.3463C1146.52 38.6023 1147.02 38.9792 1147.42 39.477C1147.82 39.9606 1148.1 40.5721 1148.25 41.3117H1146.4C1146.18 40.6859 1145.84 40.245 1145.37 39.989C1144.92 39.7188 1144.38 39.5837 1143.75 39.5837C1142.9 39.5837 1142.22 39.7828 1141.7 40.181C1141.19 40.5792 1140.82 41.0983 1140.57 41.7383C1140.35 42.3641 1140.23 43.0326 1140.23 43.7437C1140.23 44.4832 1140.35 45.1659 1140.59 45.7917C1140.84 46.4175 1141.21 46.9223 1141.73 47.3063C1142.24 47.6761 1142.9 47.861 1143.71 47.861C1144.31 47.861 1144.87 47.733 1145.39 47.477C1145.94 47.221 1146.29 46.7659 1146.46 46.1117H1148.34C1148.2 46.8797 1147.89 47.5126 1147.42 48.0103C1146.97 48.5081 1146.4 48.8779 1145.74 49.1197C1145.08 49.3472 1144.38 49.461 1143.65 49.461ZM1150.64 49.333V38.0903H1152.45V42.933H1154.41L1157.74 38.0903H1159.81L1156.06 43.445L1160.13 49.333H1158L1154.63 44.5117H1152.45V49.333H1150.64ZM1162.06 54.1543V52.4263C1162.76 52.4263 1163.31 52.3268 1163.73 52.1277C1164.14 51.9428 1164.48 51.6441 1164.75 51.2317C1165.03 50.8335 1165.3 50.3215 1165.56 49.6957L1160.63 38.0903H1162.77L1166.56 47.5623L1169.68 38.0903H1171.73L1168.57 46.9437C1168.41 47.3988 1168.23 47.9108 1168.04 48.4797C1167.84 49.0486 1167.62 49.6246 1167.37 50.2077C1167.13 50.805 1166.86 51.3526 1166.56 51.8503C1166.28 52.3623 1165.96 52.7748 1165.6 53.0877C1165.3 53.3579 1165.01 53.5712 1164.73 53.7277C1164.44 53.8841 1164.1 53.9908 1163.68 54.0477C1163.29 54.1188 1162.74 54.1543 1162.06 54.1543ZM1182.52 49.461C1180.87 49.461 1179.62 49.0059 1178.78 48.0957C1177.94 47.1712 1177.47 45.9766 1177.35 44.5117H1175.22V49.333H1173.41V38.0903H1175.22V42.933H1177.35C1177.44 41.9517 1177.67 41.0912 1178.06 40.3517C1178.46 39.5979 1179.03 39.0148 1179.77 38.6023C1180.5 38.1757 1181.42 37.9623 1182.52 37.9623C1183.71 37.9623 1184.7 38.2112 1185.48 38.709C1186.26 39.2068 1186.85 39.8895 1187.23 40.757C1187.62 41.6103 1187.81 42.5988 1187.81 43.7223C1187.81 44.8317 1187.62 45.8201 1187.23 46.6877C1186.85 47.5552 1186.26 48.2379 1185.48 48.7357C1184.7 49.2192 1183.71 49.461 1182.52 49.461ZM1182.52 47.861C1183.34 47.861 1184 47.6761 1184.5 47.3063C1185.01 46.9366 1185.39 46.4388 1185.63 45.813C1185.87 45.1872 1185.99 44.4903 1185.99 43.7223C1185.99 42.9543 1185.87 42.2575 1185.63 41.6317C1185.39 41.0059 1185.01 40.5081 1184.5 40.1383C1184 39.7686 1183.34 39.5837 1182.52 39.5837C1181.71 39.5837 1181.05 39.7686 1180.53 40.1383C1180.04 40.5081 1179.67 41.0059 1179.45 41.6317C1179.22 42.2575 1179.1 42.9543 1179.1 43.7223C1179.1 44.4903 1179.22 45.1872 1179.45 45.813C1179.67 46.4388 1180.04 46.9366 1180.53 47.3063C1181.05 47.6761 1181.71 47.861 1182.52 47.861ZM1200.71 49.461C1199.53 49.461 1198.55 49.2192 1197.76 48.7357C1197 48.2379 1196.42 47.5552 1196.04 46.6877C1195.67 45.8201 1195.48 44.8388 1195.48 43.7437C1195.48 42.677 1195.67 41.7099 1196.06 40.8423C1196.46 39.9606 1197.05 39.2637 1197.85 38.7517C1198.66 38.2255 1199.68 37.9623 1200.92 37.9623C1201.69 37.9623 1202.37 38.0903 1202.97 38.3463C1203.58 38.6023 1204.09 38.9792 1204.48 39.477C1204.88 39.9606 1205.16 40.5721 1205.32 41.3117H1203.46C1203.25 40.6859 1202.91 40.245 1202.44 39.989C1201.98 39.7188 1201.44 39.5837 1200.81 39.5837C1199.96 39.5837 1199.28 39.7828 1198.77 40.181C1198.25 40.5792 1197.88 41.0983 1197.64 41.7383C1197.41 42.3641 1197.29 43.0326 1197.29 43.7437C1197.29 44.4832 1197.42 45.1659 1197.66 45.7917C1197.9 46.4175 1198.28 46.9223 1198.79 47.3063C1199.3 47.6761 1199.96 47.861 1200.77 47.861C1201.37 47.861 1201.93 47.733 1202.46 47.477C1203 47.221 1203.35 46.7659 1203.52 46.1117H1205.4C1205.26 46.8797 1204.95 47.5126 1204.48 48.0103C1204.03 48.5081 1203.47 48.8779 1202.8 49.1197C1202.14 49.3472 1201.45 49.461 1200.71 49.461ZM1206.57 49.3543V47.7757C1206.86 47.7757 1207.11 47.7188 1207.34 47.605C1207.57 47.477 1207.77 47.2921 1207.94 47.0503C1208.14 46.7659 1208.29 46.3535 1208.41 45.813C1208.52 45.2726 1208.6 44.6966 1208.64 44.085C1208.7 43.4023 1208.74 42.7339 1208.77 42.0797C1208.8 41.4112 1208.82 40.7499 1208.83 40.0957C1208.86 39.4415 1208.88 38.773 1208.88 38.0903H1216.68V49.333H1214.87V39.6903H1210.65C1210.63 40.1739 1210.61 40.6646 1210.58 41.1623C1210.57 41.6459 1210.55 42.1366 1210.52 42.6343C1210.5 43.1179 1210.48 43.6086 1210.45 44.1063C1210.44 44.6752 1210.38 45.3152 1210.28 46.0263C1210.18 46.7375 1209.97 47.3846 1209.64 47.9677C1209.33 48.5223 1208.95 48.8921 1208.49 49.077C1208.05 49.2619 1207.41 49.3543 1206.57 49.3543ZM1219.9 54.1543V52.4263C1220.59 52.4263 1221.15 52.3268 1221.56 52.1277C1221.97 51.9428 1222.31 51.6441 1222.58 51.2317C1222.87 50.8335 1223.14 50.3215 1223.39 49.6957L1218.47 38.0903H1220.6L1224.4 47.5623L1227.51 38.0903H1229.56L1226.4 46.9437C1226.25 47.3988 1226.07 47.9108 1225.87 48.4797C1225.67 49.0486 1225.45 49.6246 1225.21 50.2077C1224.97 50.805 1224.7 51.3526 1224.4 51.8503C1224.11 52.3623 1223.79 52.7748 1223.44 53.0877C1223.14 53.3579 1222.85 53.5712 1222.56 53.7277C1222.28 53.8841 1221.93 53.9908 1221.52 54.0477C1221.12 54.1188 1220.58 54.1543 1219.9 54.1543ZM1230.11 49.333L1233.76 43.445L1230.43 38.0903H1232.37L1235.34 42.9543H1237.02V38.0903H1238.84V42.9543H1240.52L1243.49 38.0903H1245.43L1242.1 43.445L1245.75 49.333H1243.64L1240.71 44.4903H1238.84V49.333H1237.02V44.4903H1235.15L1232.22 49.333H1230.11ZM1252.21 49.461C1251.5 49.461 1250.86 49.3615 1250.31 49.1623C1249.75 48.949 1249.28 48.6575 1248.88 48.2877C1248.48 47.9037 1248.15 47.4557 1247.9 46.9437C1247.64 46.4175 1247.45 45.8486 1247.32 45.237C1247.19 44.6255 1247.13 43.9783 1247.13 43.2957C1247.13 42.2006 1247.15 41.1837 1247.19 40.245C1247.25 39.2921 1247.41 38.4459 1247.66 37.7063C1247.92 36.9526 1248.35 36.3268 1248.96 35.829C1249.58 35.3312 1250.44 34.9828 1251.55 34.7837C1252.11 34.6841 1252.68 34.5988 1253.23 34.5277C1253.79 34.4566 1254.35 34.3855 1254.92 34.3143C1255.1 34.2859 1255.29 34.2575 1255.49 34.229C1255.69 34.2006 1255.9 34.165 1256.11 34.1223C1256.34 34.0797 1256.55 34.0441 1256.75 34.0157V35.6797C1256.59 35.7366 1256.42 35.7863 1256.24 35.829C1256.07 35.8575 1255.88 35.8859 1255.68 35.9143C1255.5 35.9428 1255.31 35.9641 1255.11 35.9783C1254.92 35.9926 1254.74 36.0139 1254.55 36.0423C1254.37 36.0566 1254.19 36.0779 1254.02 36.1063C1253.52 36.1632 1253 36.2201 1252.44 36.277C1251.89 36.3197 1251.36 36.4335 1250.86 36.6183C1250.38 36.789 1249.97 37.1232 1249.63 37.621C1249.45 37.877 1249.31 38.1828 1249.18 38.5383C1249.06 38.8939 1248.98 39.2566 1248.92 39.6263C1248.88 39.9819 1248.85 40.3232 1248.84 40.6503C1249.12 40.2521 1249.47 39.9321 1249.88 39.6903C1250.29 39.4343 1250.73 39.2495 1251.2 39.1357C1251.67 39.0077 1252.12 38.9437 1252.55 38.9437C1253.57 38.9437 1254.44 39.157 1255.15 39.5837C1255.86 39.9961 1256.4 40.5863 1256.77 41.3543C1257.14 42.1223 1257.33 43.0183 1257.33 44.0423C1257.33 45.0663 1257.13 45.9908 1256.73 46.8157C1256.33 47.6263 1255.75 48.2735 1254.98 48.757C1254.23 49.2263 1253.3 49.461 1252.21 49.461ZM1252.25 47.861C1252.96 47.861 1253.56 47.6903 1254.04 47.349C1254.52 47.0077 1254.89 46.5526 1255.13 45.9837C1255.39 45.4148 1255.51 44.789 1255.51 44.1063C1255.51 43.4379 1255.39 42.8406 1255.13 42.3143C1254.89 41.7739 1254.52 41.3472 1254.04 41.0343C1253.57 40.7215 1252.99 40.565 1252.29 40.565C1251.61 40.565 1251.02 40.7286 1250.52 41.0557C1250.04 41.3828 1249.66 41.8237 1249.39 42.3783C1249.13 42.9188 1249.01 43.509 1249.01 44.149C1249.01 44.8032 1249.13 45.4148 1249.37 45.9837C1249.61 46.5526 1249.97 47.0077 1250.44 47.349C1250.92 47.6903 1251.52 47.861 1252.25 47.861ZM1260.12 54.1543V52.4263C1260.82 52.4263 1261.38 52.3268 1261.79 52.1277C1262.2 51.9428 1262.54 51.6441 1262.81 51.2317C1263.1 50.8335 1263.37 50.3215 1263.62 49.6957L1258.7 38.0903H1260.83L1264.63 47.5623L1267.74 38.0903H1269.79L1266.63 46.9437C1266.47 47.3988 1266.3 47.9108 1266.1 48.4797C1265.9 49.0486 1265.68 49.6246 1265.44 50.2077C1265.19 50.805 1264.92 51.3526 1264.63 51.8503C1264.34 52.3623 1264.02 52.7748 1263.67 53.0877C1263.37 53.3579 1263.08 53.5712 1262.79 53.7277C1262.51 53.8841 1262.16 53.9908 1261.75 54.0477C1261.35 54.1188 1260.81 54.1543 1260.12 54.1543Z" fill="#B567DA"/>
<path d="M1559.4 139.229C1554.03 139.229 1549.4 138.221 1545.51 136.205C1541.71 134.114 1538.57 131.314 1536.11 127.805C1533.72 124.221 1531.96 120.189 1530.84 115.709C1529.72 111.154 1529.16 106.376 1529.16 101.373C1529.16 95.4743 1529.72 89.949 1530.84 84.797C1532.04 79.5703 1533.87 74.9783 1536.33 71.021C1538.87 67.0637 1542.15 63.965 1546.19 61.725C1550.22 59.4103 1555.07 58.253 1560.75 58.253C1564.55 58.253 1568.1 58.925 1571.39 60.269C1574.75 61.5383 1577.66 63.4797 1580.12 66.093C1582.59 68.6317 1584.42 71.7677 1585.61 75.501H1575.42C1574.07 72.7383 1572.02 70.6477 1569.26 69.229C1566.5 67.8103 1563.62 67.101 1560.63 67.101C1557.2 67.101 1554.25 67.773 1551.79 69.117C1549.32 70.3863 1547.23 72.1037 1545.51 74.269C1543.87 76.4343 1542.53 78.8983 1541.48 81.661C1540.51 84.4237 1539.8 87.2983 1539.35 90.285C1538.91 93.2717 1538.68 96.1837 1538.68 99.021C1540.4 96.4077 1542.38 94.2797 1544.62 92.637C1546.93 90.9943 1549.43 89.7997 1552.12 89.053C1554.88 88.2317 1557.68 87.821 1560.52 87.821C1565.75 87.821 1570.27 88.9037 1574.07 91.069C1577.96 93.1597 1580.98 96.109 1583.15 99.917C1585.31 103.65 1586.39 107.981 1586.39 112.909C1586.39 118.136 1585.24 122.728 1582.92 126.685C1580.61 130.642 1577.4 133.741 1573.29 135.981C1569.26 138.146 1564.63 139.229 1559.4 139.229ZM1559.18 130.381C1562.54 130.381 1565.49 129.672 1568.03 128.253C1570.64 126.76 1572.69 124.781 1574.19 122.317C1575.68 119.778 1576.43 116.978 1576.43 113.917C1576.43 110.632 1575.72 107.72 1574.3 105.181C1572.88 102.642 1570.9 100.626 1568.36 99.133C1565.9 97.6397 1562.99 96.893 1559.63 96.893C1556.56 96.893 1553.65 97.6023 1550.89 99.021C1548.13 100.365 1545.89 102.306 1544.17 104.845C1542.53 107.309 1541.71 110.258 1541.71 113.693C1541.71 116.829 1542.45 119.666 1543.95 122.205C1545.51 124.669 1547.6 126.648 1550.22 128.141C1552.91 129.634 1555.89 130.381 1559.18 130.381ZM1629.74 139.229C1624.22 139.229 1619.48 138.221 1615.52 136.205C1611.64 134.114 1608.46 131.24 1606 127.581C1603.54 123.848 1601.71 119.554 1600.51 114.701C1599.39 109.773 1598.83 104.472 1598.83 98.797C1598.83 93.1223 1599.39 87.8583 1600.51 83.005C1601.63 78.077 1603.42 73.7837 1605.89 70.125C1608.35 66.3917 1611.52 63.4797 1615.41 61.389C1619.36 59.2983 1624.14 58.253 1629.74 58.253C1635.64 58.253 1640.57 59.4103 1644.53 61.725C1648.56 63.965 1651.73 67.0263 1654.05 70.909C1656.44 74.7917 1658.12 79.1597 1659.09 84.013C1660.13 88.7917 1660.66 93.7197 1660.66 98.797C1660.66 103.874 1660.13 108.84 1659.09 113.693C1658.12 118.472 1656.44 122.802 1654.05 126.685C1651.73 130.493 1648.56 133.554 1644.53 135.869C1640.57 138.109 1635.64 139.229 1629.74 139.229ZM1629.74 130.381C1634.15 130.381 1637.7 129.448 1640.38 127.581C1643.15 125.64 1645.27 123.101 1646.77 119.965C1648.26 116.829 1649.27 113.432 1649.79 109.773C1650.31 106.04 1650.58 102.381 1650.58 98.797C1650.58 95.2877 1650.31 91.7037 1649.79 88.045C1649.27 84.3117 1648.26 80.877 1646.77 77.741C1645.27 74.5303 1643.15 71.9543 1640.38 70.013C1637.7 68.0717 1634.15 67.101 1629.74 67.101C1625.26 67.101 1621.64 68.0717 1618.88 70.013C1616.12 71.9543 1613.99 74.5303 1612.5 77.741C1611.08 80.877 1610.11 84.3117 1609.58 88.045C1609.06 91.7037 1608.8 95.2877 1608.8 98.797C1608.8 102.381 1609.06 106.04 1609.58 109.773C1610.11 113.432 1611.08 116.829 1612.5 119.965C1613.99 123.101 1616.12 125.64 1618.88 127.581C1621.64 129.448 1625.26 130.381 1629.74 130.381ZM1682.5 138.333L1731.22 59.149H1741.08L1692.47 138.333H1682.5ZM1734.24 139.005C1730.66 139.005 1727.64 138.221 1725.17 136.653C1722.78 135.085 1720.95 132.994 1719.68 130.381C1718.41 127.693 1717.78 124.706 1717.78 121.421C1717.78 117.986 1718.41 114.962 1719.68 112.349C1720.95 109.736 1722.82 107.682 1725.28 106.189C1727.75 104.696 1730.73 103.949 1734.24 103.949C1737.68 103.949 1740.59 104.696 1742.98 106.189C1745.37 107.682 1747.2 109.736 1748.47 112.349C1749.74 114.962 1750.37 117.986 1750.37 121.421C1750.37 124.706 1749.74 127.693 1748.47 130.381C1747.2 132.994 1745.37 135.085 1742.98 136.653C1740.59 138.221 1737.68 139.005 1734.24 139.005ZM1734.13 131.053C1736.07 131.053 1737.6 130.605 1738.72 129.709C1739.92 128.813 1740.74 127.618 1741.19 126.125C1741.71 124.632 1741.97 123.064 1741.97 121.421C1741.97 119.778 1741.71 118.248 1741.19 116.829C1740.74 115.336 1739.92 114.141 1738.72 113.245C1737.6 112.349 1736.07 111.901 1734.13 111.901C1731.14 111.901 1729.02 112.872 1727.75 114.813C1726.55 116.754 1725.96 118.957 1725.96 121.421C1725.96 124.034 1726.59 126.312 1727.86 128.253C1729.13 130.12 1731.22 131.053 1734.13 131.053ZM1689.89 93.309C1686.31 93.309 1683.28 92.525 1680.82 90.957C1678.43 89.389 1676.6 87.2983 1675.33 84.685C1674.14 81.997 1673.54 79.0103 1673.54 75.725C1673.54 72.2903 1674.14 69.2663 1675.33 66.653C1676.6 64.0397 1678.47 61.9863 1680.93 60.493C1683.4 58.9997 1686.38 58.253 1689.89 58.253C1693.4 58.253 1696.35 58.9997 1698.74 60.493C1701.13 61.9863 1702.92 64.0397 1704.12 66.653C1705.38 69.2663 1706.02 72.2903 1706.02 75.725C1706.02 79.0103 1705.38 81.997 1704.12 84.685C1702.92 87.2983 1701.13 89.389 1698.74 90.957C1696.35 92.525 1693.4 93.309 1689.89 93.309ZM1689.89 85.357C1691.83 85.357 1693.36 84.909 1694.48 84.013C1695.6 83.117 1696.42 81.9223 1696.95 80.429C1697.47 78.9357 1697.73 77.3677 1697.73 75.725C1697.73 74.0823 1697.47 72.5517 1696.95 71.133C1696.42 69.6397 1695.6 68.445 1694.48 67.549C1693.36 66.653 1691.83 66.205 1689.89 66.205C1686.9 66.205 1684.78 67.1757 1683.51 69.117C1682.24 71.0583 1681.6 73.261 1681.6 75.725C1681.6 78.3383 1682.24 80.6157 1683.51 82.557C1684.78 84.4237 1686.9 85.357 1689.89 85.357Z" fill="#B567DA"/>
<defs>
<filter id="filter0_bd_5393_1985" x="1704.53" y="139.572" width="169.726" height="166.47" filterUnits="userSpaceOnUse" color-interpolation-filters="sRGB">
<feFlood flood-opacity="0" result="BackgroundImageFix"/>
<feGaussianBlur in="BackgroundImageFix" stdDeviation="30.0983"/>
<feComposite in2="SourceAlpha" operator="in" result="effect1_backgroundBlur_5393_1985"/>
<feColorMatrix in="SourceAlpha" type="matrix" values="0 0 0 0 0 0 0 0 0 0 0 0 0 0 0 0 0 0 127 0" result="hardAlpha"/>
<feOffset dy="6.66181"/>
<feGaussianBlur stdDeviation="14.123"/>
<feComposite in2="hardAlpha" operator="out"/>
<feColorMatrix type="matrix" values="0 0 0 0 0.709804 0 0 0 0 0.403922 0 0 0 0 0.854902 0 0 0 0.4 0"/>
<feBlend mode="normal" in2="effect1_backgroundBlur_5393_1985" result="effect2_dropShadow_5393_1985"/>
<feBlend mode="normal" in="SourceGraphic" in2="effect2_dropShadow_5393_1985" result="shape"/>
</filter>
<linearGradient id="paint0_linear_5393_1985" x1="1132.38" y1="27.4844" x2="1136.39" y2="406.476" gradientUnits="userSpaceOnUse">
<stop stop-color="#B567DA"/>
<stop offset="0.755234" stop-color="#FAFCFF"/>
</linearGradient>
<linearGradient id="paint1_linear_5393_1985" x1="1788.12" y1="199.811" x2="1788.12" y2="16.5063" gradientUnits="userSpaceOnUse">
<stop stop-color="#B567DA"/>
<stop offset="1" stop-color="#FAFCFF"/>
</linearGradient>
</defs>
</svg>
