<svg width="1442" height="258" viewBox="0 0 1442 258" fill="none" xmlns="http://www.w3.org/2000/svg">
<mask id="mask0_5313_9403" style="mask-type:alpha" maskUnits="userSpaceOnUse" x="0" y="0" width="1496" height="258">
<rect y="0.460938" width="1495.99" height="257.539" fill="#D9D9D9"/>
</mask>
<g mask="url(#mask0_5313_9403)">
<path d="M39.4052 42.571C25.5228 29.8182 11.9243 16.4392 -0.226562 0.316162V238.823H1439.77V224.557C1439.77 224.557 1409.17 182.867 1390.5 173.135C1383.85 169.671 1376.53 173.759 1369.91 175.284C1360.37 177.482 1350.26 177.167 1340.62 176.573C1327.79 175.783 1314.1 172.297 1302.23 165.114C1297 161.95 1292.23 156.535 1286.4 156.09C1275.12 155.231 1266.24 166.631 1254.34 164.398C1237.3 161.201 1220.75 153.557 1203.58 151.363C1187.83 149.352 1168.85 148.509 1154.69 159.957C1142.42 169.885 1136.66 173.388 1123.72 164.111C1107.96 152.813 1092.5 139.38 1074.34 140.764C1058.39 141.98 1044.87 153.31 1028.53 153.512C1006.82 153.78 991.4 135.193 971.533 125.724C961.502 120.943 948.88 120.183 940.066 110.827C928.608 98.6644 917.345 103.3 903.157 106.1C877.388 111.187 852.318 131.752 826.469 132.886C813.475 133.456 800.406 132.141 789.857 119.994C776.1 104.154 761.971 95.307 743.844 98.2225C721.107 101.879 699.981 114.392 676.854 111.687C667.263 110.565 653.754 110.123 645.981 100.371C631.05 81.6403 615.049 80.542 596.109 84.042C579.363 87.1365 564.123 106.708 547.227 103.952C534.285 101.841 521.619 85.7924 511.208 75.5911C497.254 61.9174 488.245 67.0699 473.112 73.4425C452.474 82.1331 429.8 115.651 408.496 107.171C391.419 100.373 377.335 82.2185 365.947 63.3404C358.304 50.6712 351.671 35.6662 338.834 33.9769C306.936 29.7794 272.878 76.2159 251.809 101.828C238.824 106.528 207.552 116.812 201.093 94.5658C196.364 78.2788 200.853 54.4596 182.984 54.4596C177.766 54.4596 173.394 58.0486 168.241 59.0432C163.458 59.9662 159.215 57.0379 154.486 57.0379C147.395 57.0379 132.191 53.6449 126.879 46.7248C121.392 39.5773 106.78 39.9296 100.162 44.7195C91.0726 51.2979 85.2794 54.4596 74.3352 54.4596C61.0144 54.4596 51.2804 53.4799 39.4052 42.571Z" fill="url(#paint0_linear_5313_9403)" fill-opacity="0.2"/>
<path d="M-0.226562 0.316162C11.9243 16.4183 25.5228 29.78 39.4052 42.5162C51.2804 53.411 61.0144 54.3894 74.3352 54.3894C85.2794 54.3894 91.0726 51.2318 100.162 44.6619C106.78 39.8783 121.392 39.5264 126.879 46.6646C132.191 53.5758 147.395 56.9643 154.486 56.9643C159.215 56.9643 163.458 59.8889 168.241 58.967C173.394 57.9737 177.766 54.3894 182.984 54.3894C200.853 54.3894 196.364 78.1777 201.093 94.4436C207.552 116.661 238.824 106.39 251.809 101.697C272.878 76.1175 306.936 29.7412 338.834 33.9332C351.671 35.6204 358.304 50.6059 365.947 63.2587C377.335 82.1123 391.419 100.243 408.496 107.032C429.8 115.502 452.474 82.027 473.112 73.3477C488.245 66.9834 497.254 61.8376 511.208 75.4935C521.619 85.6816 534.285 101.71 547.227 103.818C564.123 106.57 579.363 87.024 596.109 83.9335C615.049 80.438 631.05 81.5349 645.981 100.241C653.754 109.981 667.263 110.422 676.854 111.542C699.981 114.244 721.107 101.748 743.844 98.0955C761.971 95.1838 776.1 104.02 789.857 119.839C800.406 131.97 813.475 133.283 826.469 132.714C852.318 131.581 877.388 111.043 903.157 105.963C917.345 103.166 928.608 98.5369 940.066 110.684C948.88 120.028 961.502 120.786 971.533 125.561C991.4 135.018 1006.82 153.581 1028.53 153.313C1044.87 153.111 1058.39 141.796 1074.34 140.582C1092.5 139.2 1107.96 152.615 1123.72 163.899C1136.66 173.163 1142.42 169.666 1154.69 159.75C1168.85 148.317 1187.83 149.159 1203.58 151.167C1220.75 153.358 1237.3 160.993 1254.34 164.185C1266.24 166.415 1275.12 155.03 1286.4 155.888C1292.24 156.332 1297 161.74 1302.23 164.9C1314.1 172.074 1327.79 175.555 1340.62 176.344C1350.26 176.937 1360.37 177.252 1369.91 175.057C1376.53 173.534 1383.85 169.452 1390.5 172.911C1409.17 182.631 1439.77 224.266 1439.77 224.266" stroke="#B567DA" stroke-opacity="0.4" stroke-width="2.45545" stroke-linecap="square"/>
<g filter="url(#filter0_bd_5313_9403)">
<circle cx="1342.05" cy="178.883" r="18.5" fill="#B567DA"/>
</g>
<line x1="1341.96" y1="13.2224" x2="1341.96" y2="160.416" stroke="url(#paint1_linear_5313_9403)" stroke-width="0.999271" stroke-dasharray="2 2"/>
</g>
<path d="M1120.81 52.1916C1121.47 52.8475 1122.53 52.8475 1123.19 52.1916L1133.88 41.5025C1134.53 40.8466 1134.53 39.7831 1133.88 39.1272C1133.22 38.4712 1132.16 38.4712 1131.5 39.1272L1122 48.6286L1112.5 39.1272C1111.84 38.4712 1110.78 38.4712 1110.12 39.1272C1109.47 39.7831 1109.47 40.8466 1110.12 41.5025L1120.81 52.1916ZM1123.68 26.9994V25.3198H1120.32V26.9994H1123.68ZM1123.68 51.0039V26.9994H1120.32V51.0039H1123.68Z" fill="#B567DA"/>
<path d="M754.968 16.128C753.805 16.128 752.835 15.8827 752.056 15.392C751.288 14.8907 750.712 14.208 750.328 13.344C749.955 12.4693 749.768 11.472 749.768 10.352C749.768 9.24267 749.96 8.256 750.344 7.392C750.728 6.51733 751.304 5.82933 752.072 5.328C752.851 4.816 753.827 4.56 755 4.56C755.832 4.56 756.547 4.69333 757.144 4.96C757.752 5.216 758.243 5.57333 758.616 6.032C758.989 6.49067 759.245 7.02933 759.384 7.648H757.976C757.816 7.09333 757.469 6.65067 756.936 6.32C756.413 5.98933 755.752 5.824 754.952 5.824C754.056 5.824 753.331 6.03733 752.776 6.464C752.232 6.88 751.832 7.42933 751.576 8.112C751.32 8.784 751.192 9.51467 751.192 10.304C751.192 11.136 751.325 11.8987 751.592 12.592C751.859 13.2853 752.275 13.84 752.84 14.256C753.405 14.6613 754.125 14.864 755 14.864C755.533 14.864 756.008 14.7893 756.424 14.64C756.851 14.4907 757.203 14.2773 757.48 14C757.768 13.7227 757.965 13.4027 758.072 13.04H759.592C759.432 13.6587 759.144 14.2027 758.728 14.672C758.323 15.1307 757.805 15.488 757.176 15.744C756.547 16 755.811 16.128 754.968 16.128ZM761.431 16V7.568H762.791V11.264H767.015V7.568H768.375V16H767.015V12.464H762.791V16H761.431ZM770.525 16V7.568H771.885V14.032C771.96 13.8827 772.061 13.7227 772.189 13.552C772.317 13.3707 772.418 13.232 772.493 13.136L776.573 7.568H777.917V16H776.557V9.536C776.472 9.696 776.376 9.84533 776.269 9.984C776.173 10.1227 776.082 10.2507 775.997 10.368L771.853 16H770.525ZM779.208 16L781.944 11.584L779.448 7.568H780.904L783.128 11.216H784.392V7.568H785.752V11.216H787.016L789.24 7.568H790.696L788.2 11.584L790.936 16H789.352L787.16 12.368H785.752V16H784.392V12.368H782.984L780.792 16H779.208ZM795.72 16.096C794.824 16.096 794.083 15.9147 793.496 15.552C792.909 15.1787 792.472 14.6667 792.184 14.016C791.896 13.3653 791.752 12.624 791.752 11.792C791.752 10.9493 791.901 10.208 792.2 9.568C792.509 8.91733 792.957 8.40533 793.544 8.032C794.131 7.65867 794.851 7.472 795.704 7.472C796.333 7.472 796.883 7.59467 797.352 7.84C797.832 8.07467 798.227 8.39467 798.536 8.8C798.856 9.20533 799.085 9.65867 799.224 10.16C799.373 10.6613 799.437 11.1787 799.416 11.712C799.405 11.808 799.4 11.904 799.4 12C799.4 12.096 799.395 12.192 799.384 12.288H793.128C793.171 12.7787 793.293 13.2213 793.496 13.616C793.699 14.0107 793.987 14.3253 794.36 14.56C794.733 14.784 795.197 14.896 795.752 14.896C796.029 14.896 796.307 14.864 796.584 14.8C796.872 14.7253 797.128 14.6027 797.352 14.432C797.587 14.2613 797.752 14.032 797.848 13.744H799.24C799.112 14.288 798.872 14.736 798.52 15.088C798.168 15.4293 797.747 15.6853 797.256 15.856C796.765 16.016 796.253 16.096 795.72 16.096ZM793.16 11.104H798.04C798.029 10.624 797.923 10.2027 797.72 9.84C797.517 9.47733 797.24 9.19467 796.888 8.992C796.547 8.78933 796.136 8.688 795.656 8.688C795.133 8.688 794.691 8.8 794.328 9.024C793.976 9.248 793.704 9.54133 793.512 9.904C793.32 10.2667 793.203 10.6667 793.16 11.104ZM801.244 16V7.568H802.604V11.264H806.828V7.568H808.188V16H806.828V12.464H802.604V16H801.244ZM810.338 16V7.568H811.698V14.032C811.772 13.8827 811.874 13.7227 812.002 13.552C812.13 13.3707 812.231 13.232 812.306 13.136L816.386 7.568H817.73V16H816.37V9.536C816.284 9.696 816.188 9.84533 816.082 9.984C815.986 10.1227 815.895 10.2507 815.81 10.368L811.666 16H810.338ZM823.517 16.096C822.621 16.096 821.88 15.9147 821.293 15.552C820.706 15.1787 820.269 14.6667 819.981 14.016C819.693 13.3653 819.549 12.624 819.549 11.792C819.549 10.9493 819.698 10.208 819.997 9.568C820.306 8.91733 820.754 8.40533 821.341 8.032C821.928 7.65867 822.648 7.472 823.501 7.472C824.13 7.472 824.68 7.59467 825.149 7.84C825.629 8.07467 826.024 8.39467 826.333 8.8C826.653 9.20533 826.882 9.65867 827.021 10.16C827.17 10.6613 827.234 11.1787 827.213 11.712C827.202 11.808 827.197 11.904 827.197 12C827.197 12.096 827.192 12.192 827.181 12.288H820.925C820.968 12.7787 821.09 13.2213 821.293 13.616C821.496 14.0107 821.784 14.3253 822.157 14.56C822.53 14.784 822.994 14.896 823.549 14.896C823.826 14.896 824.104 14.864 824.381 14.8C824.669 14.7253 824.925 14.6027 825.149 14.432C825.384 14.2613 825.549 14.032 825.645 13.744H827.037C826.909 14.288 826.669 14.736 826.317 15.088C825.965 15.4293 825.544 15.6853 825.053 15.856C824.562 16.016 824.05 16.096 823.517 16.096ZM820.957 11.104H825.837C825.826 10.624 825.72 10.2027 825.517 9.84C825.314 9.47733 825.037 9.19467 824.685 8.992C824.344 8.78933 823.933 8.688 823.453 8.688C822.93 8.688 822.488 8.8 822.125 9.024C821.773 9.248 821.501 9.54133 821.309 9.904C821.117 10.2667 821 10.6667 820.957 11.104ZM833.353 16V7.568H834.713V11.264H838.937V7.568H840.297V16H838.937V12.464H834.713V16H833.353ZM845.791 16.096C845.162 16.096 844.612 15.9893 844.143 15.776C843.684 15.552 843.306 15.248 843.007 14.864C842.708 14.48 842.484 14.0267 842.335 13.504C842.196 12.9813 842.127 12.416 842.127 11.808C842.127 10.9973 842.255 10.2667 842.511 9.616C842.778 8.95467 843.199 8.432 843.775 8.048C844.351 7.664 845.103 7.472 846.031 7.472C846.522 7.472 846.991 7.56267 847.439 7.744C847.898 7.92533 848.287 8.208 848.607 8.592V7.568H849.967V16H848.607V14.864C848.308 15.2587 847.914 15.5627 847.423 15.776C846.932 15.9893 846.388 16.096 845.791 16.096ZM846.015 14.896C846.57 14.896 847.039 14.752 847.423 14.464C847.807 14.176 848.1 13.792 848.303 13.312C848.516 12.832 848.623 12.3093 848.623 11.744C848.623 11.1573 848.522 10.6347 848.319 10.176C848.127 9.71733 847.839 9.35467 847.455 9.088C847.071 8.82133 846.586 8.688 845.999 8.688C845.391 8.688 844.9 8.82667 844.527 9.104C844.164 9.38133 843.898 9.75467 843.727 10.224C843.567 10.6933 843.487 11.216 843.487 11.792C843.487 12.3893 843.572 12.9227 843.743 13.392C843.914 13.8613 844.186 14.2293 844.559 14.496C844.932 14.7627 845.418 14.896 846.015 14.896ZM852.103 16V7.568H857.927V8.768H853.463V16H852.103ZM859.369 19.04V7.568H860.665L860.729 8.864C861.017 8.40533 861.406 8.05867 861.897 7.824C862.398 7.58933 862.937 7.472 863.513 7.472C864.366 7.472 865.065 7.664 865.609 8.048C866.153 8.42133 866.553 8.93333 866.809 9.584C867.076 10.2347 867.209 10.9707 867.209 11.792C867.209 12.6133 867.076 13.3493 866.809 14C866.542 14.6507 866.132 15.1627 865.577 15.536C865.022 15.9093 864.313 16.096 863.449 16.096C863.022 16.096 862.638 16.0533 862.297 15.968C861.956 15.872 861.657 15.7387 861.401 15.568C861.145 15.3973 860.921 15.2053 860.729 14.992V19.04H859.369ZM863.337 14.896C863.956 14.896 864.446 14.7573 864.809 14.48C865.172 14.192 865.433 13.8133 865.593 13.344C865.764 12.8747 865.849 12.3573 865.849 11.792C865.849 11.216 865.764 10.6933 865.593 10.224C865.433 9.75467 865.166 9.38133 864.793 9.104C864.42 8.82667 863.924 8.688 863.305 8.688C862.75 8.688 862.276 8.832 861.881 9.12C861.497 9.39733 861.204 9.776 861.001 10.256C860.798 10.7253 860.697 11.2427 860.697 11.808C860.697 12.3947 860.793 12.9227 860.985 13.392C861.177 13.8613 861.47 14.2293 861.865 14.496C862.26 14.7627 862.75 14.896 863.337 14.896ZM869.235 19.616V18.32C869.757 18.32 870.173 18.2453 870.483 18.096C870.792 17.9573 871.048 17.7333 871.251 17.424C871.464 17.1253 871.667 16.7413 871.859 16.272L868.163 7.568H869.763L872.611 14.672L874.947 7.568H876.483L874.115 14.208C873.997 14.5493 873.864 14.9333 873.715 15.36C873.565 15.7867 873.4 16.2187 873.219 16.656C873.037 17.104 872.835 17.5147 872.611 17.888C872.397 18.272 872.157 18.5813 871.891 18.816C871.667 19.0187 871.448 19.1787 871.235 19.296C871.021 19.4133 870.76 19.4933 870.451 19.536C870.152 19.5893 869.747 19.616 869.235 19.616ZM880.8 16.096C880.395 16.096 879.989 16.0587 879.584 15.984C879.179 15.9093 878.8 15.7867 878.448 15.616C878.107 15.4347 877.829 15.1947 877.616 14.896C877.403 14.5867 877.285 14.2027 877.264 13.744H878.592C878.645 14.032 878.8 14.2613 879.056 14.432C879.312 14.6027 879.6 14.7253 879.92 14.8C880.251 14.864 880.544 14.896 880.8 14.896C881.099 14.896 881.403 14.864 881.712 14.8C882.032 14.736 882.299 14.608 882.512 14.416C882.736 14.224 882.848 13.9413 882.848 13.568C882.848 13.2053 882.757 12.9387 882.576 12.768C882.405 12.5973 882.176 12.4853 881.888 12.432C881.611 12.3787 881.307 12.352 880.976 12.352H879.472V11.152H880.704C880.907 11.152 881.115 11.136 881.328 11.104C881.541 11.0613 881.739 10.9973 881.92 10.912C882.101 10.816 882.245 10.6827 882.352 10.512C882.469 10.3413 882.528 10.1227 882.528 9.856C882.528 9.55733 882.443 9.32267 882.272 9.152C882.101 8.98133 881.883 8.864 881.616 8.8C881.349 8.72533 881.077 8.688 880.8 8.688C880.544 8.688 880.272 8.71467 879.984 8.768C879.707 8.82133 879.467 8.928 879.264 9.088C879.061 9.23733 878.939 9.46133 878.896 9.76H877.552C877.573 9.184 877.749 8.73067 878.08 8.4C878.411 8.06933 878.821 7.83467 879.312 7.696C879.803 7.54667 880.293 7.472 880.784 7.472C881.157 7.472 881.525 7.50933 881.888 7.584C882.251 7.65867 882.581 7.78667 882.88 7.968C883.179 8.13867 883.413 8.368 883.584 8.656C883.765 8.944 883.856 9.30133 883.856 9.728C883.856 10.112 883.765 10.4533 883.584 10.752C883.403 11.0507 883.125 11.2907 882.752 11.472C883.296 11.6427 883.675 11.9093 883.888 12.272C884.101 12.6347 884.208 13.0667 884.208 13.568C884.208 14.016 884.112 14.4 883.92 14.72C883.728 15.0293 883.467 15.2907 883.136 15.504C882.816 15.7067 882.453 15.856 882.048 15.952C881.643 16.048 881.227 16.096 880.8 16.096ZM885.963 16V7.568H887.323V11.2H888.795L891.291 7.568H892.843L890.027 11.584L893.083 16H891.483L888.955 12.384H887.323V16H885.963ZM894.26 16V7.568H895.62V14.032C895.694 13.8827 895.796 13.7227 895.924 13.552C896.052 13.3707 896.153 13.232 896.228 13.136L900.308 7.568H901.652V16H900.292V9.536C900.206 9.696 900.11 9.84533 900.004 9.984C899.908 10.1227 899.817 10.2507 899.732 10.368L895.588 16H894.26ZM750.072 36V27.568H751.432V31.264H755.656V27.568H757.016V36H755.656V32.464H751.432V36H750.072ZM762.51 36.096C761.88 36.096 761.331 35.9893 760.862 35.776C760.403 35.552 760.024 35.248 759.726 34.864C759.427 34.48 759.203 34.0267 759.054 33.504C758.915 32.9813 758.846 32.416 758.846 31.808C758.846 30.9973 758.974 30.2667 759.23 29.616C759.496 28.9547 759.918 28.432 760.494 28.048C761.07 27.664 761.822 27.472 762.75 27.472C763.24 27.472 763.71 27.5627 764.158 27.744C764.616 27.9253 765.006 28.208 765.326 28.592V27.568H766.686V36H765.326V34.864C765.027 35.2587 764.632 35.5627 764.142 35.776C763.651 35.9893 763.107 36.096 762.51 36.096ZM762.734 34.896C763.288 34.896 763.758 34.752 764.142 34.464C764.526 34.176 764.819 33.792 765.022 33.312C765.235 32.832 765.342 32.3093 765.342 31.744C765.342 31.1573 765.24 30.6347 765.038 30.176C764.846 29.7173 764.558 29.3547 764.174 29.088C763.79 28.8213 763.304 28.688 762.718 28.688C762.11 28.688 761.619 28.8267 761.246 29.104C760.883 29.3813 760.616 29.7547 760.446 30.224C760.286 30.6933 760.206 31.216 760.206 31.792C760.206 32.3893 760.291 32.9227 760.462 33.392C760.632 33.8613 760.904 34.2293 761.278 34.496C761.651 34.7627 762.136 34.896 762.734 34.896ZM772.415 38.592V34.816C772.724 34.816 772.969 34.7307 773.151 34.56C773.343 34.3893 773.492 34.1653 773.599 33.888C773.705 33.6107 773.785 33.312 773.839 32.992C773.892 32.6613 773.935 32.3467 773.967 32.048C774.02 31.5573 774.052 31.072 774.062 30.592C774.084 30.1013 774.095 29.712 774.095 29.424C774.105 29.1147 774.111 28.8053 774.111 28.496C774.111 28.1867 774.111 27.8773 774.111 27.568H780.095V34.816H781.199V38.592H779.887V36H773.727V38.592H772.415ZM774.575 34.816H778.735V28.768H775.407C775.396 29.216 775.385 29.7173 775.375 30.272C775.364 30.8267 775.343 31.344 775.311 31.824C775.3 32.1013 775.273 32.416 775.231 32.768C775.199 33.12 775.135 33.4773 775.039 33.84C774.943 34.192 774.788 34.5173 774.575 34.816ZM782.619 36V27.568H783.979V34.032C784.054 33.8827 784.155 33.7227 784.283 33.552C784.411 33.3707 784.512 33.232 784.587 33.136L788.667 27.568H790.011V36H788.651V29.536C788.566 29.696 788.47 29.8453 788.363 29.984C788.267 30.1227 788.176 30.2507 788.091 30.368L783.947 36H782.619ZM795.75 36.096C794.865 36.096 794.129 35.9147 793.542 35.552C792.966 35.1787 792.534 34.6667 792.246 34.016C791.969 33.3653 791.83 32.6293 791.83 31.808C791.83 31.008 791.974 30.2827 792.262 29.632C792.561 28.9707 793.009 28.448 793.606 28.064C794.214 27.6693 794.982 27.472 795.91 27.472C796.486 27.472 796.998 27.568 797.446 27.76C797.905 27.952 798.283 28.2347 798.582 28.608C798.881 28.9707 799.089 29.4293 799.206 29.984H797.814C797.654 29.5147 797.398 29.184 797.046 28.992C796.705 28.7893 796.299 28.688 795.83 28.688C795.19 28.688 794.678 28.8373 794.294 29.136C793.91 29.4347 793.627 29.824 793.446 30.304C793.275 30.7733 793.19 31.2747 793.19 31.808C793.19 32.3627 793.281 32.8747 793.462 33.344C793.643 33.8133 793.926 34.192 794.31 34.48C794.694 34.7573 795.19 34.896 795.798 34.896C796.246 34.896 796.667 34.8 797.062 34.608C797.467 34.416 797.734 34.0747 797.862 33.584H799.27C799.163 34.16 798.934 34.6347 798.582 35.008C798.241 35.3813 797.819 35.6587 797.318 35.84C796.827 36.0107 796.305 36.096 795.75 36.096ZM800.994 36V27.568H807.986V36H806.626V28.768H802.354V36H800.994ZM813.783 36.096C812.887 36.096 812.145 35.9147 811.559 35.552C810.972 35.1787 810.535 34.6667 810.247 34.016C809.959 33.3653 809.815 32.624 809.815 31.792C809.815 30.9493 809.964 30.208 810.263 29.568C810.572 28.9173 811.02 28.4053 811.607 28.032C812.193 27.6587 812.913 27.472 813.766 27.472C814.396 27.472 814.945 27.5947 815.415 27.84C815.895 28.0747 816.289 28.3947 816.599 28.8C816.919 29.2053 817.148 29.6587 817.286 30.16C817.436 30.6613 817.5 31.1787 817.479 31.712C817.468 31.808 817.463 31.904 817.463 32C817.463 32.096 817.457 32.192 817.447 32.288H811.191C811.233 32.7787 811.356 33.2213 811.559 33.616C811.761 34.0107 812.049 34.3253 812.423 34.56C812.796 34.784 813.26 34.896 813.815 34.896C814.092 34.896 814.369 34.864 814.647 34.8C814.935 34.7253 815.191 34.6027 815.415 34.432C815.649 34.2613 815.815 34.032 815.911 33.744H817.303C817.175 34.288 816.935 34.736 816.583 35.088C816.231 35.4293 815.809 35.6853 815.319 35.856C814.828 36.016 814.316 36.096 813.783 36.096ZM811.223 31.104H816.103C816.092 30.624 815.985 30.2027 815.783 29.84C815.58 29.4773 815.303 29.1947 814.951 28.992C814.609 28.7893 814.199 28.688 813.719 28.688C813.196 28.688 812.753 28.8 812.391 29.024C812.039 29.248 811.767 29.5413 811.575 29.904C811.383 30.2667 811.265 30.6667 811.223 31.104ZM821.274 36V28.768H818.378V27.568H825.53V28.768H822.634V36H821.274ZM831.704 36V32.752C831.299 32.8267 830.904 32.88 830.52 32.912C830.147 32.9333 829.811 32.944 829.512 32.944C828.723 32.944 828.099 32.8213 827.64 32.576C827.181 32.3307 826.856 31.9573 826.664 31.456C826.472 30.944 826.376 30.3093 826.376 29.552V27.568H827.736V29.456C827.736 29.9467 827.784 30.3627 827.88 30.704C827.976 31.0453 828.163 31.3067 828.44 31.488C828.717 31.6587 829.133 31.744 829.688 31.744C830.008 31.744 830.344 31.728 830.696 31.696C831.059 31.664 831.395 31.616 831.704 31.552V27.568H833.064V36H831.704ZM838.861 36.096C837.965 36.096 837.223 35.9147 836.637 35.552C836.05 35.1787 835.613 34.6667 835.325 34.016C835.037 33.3653 834.893 32.624 834.893 31.792C834.893 30.9493 835.042 30.208 835.341 29.568C835.65 28.9173 836.098 28.4053 836.685 28.032C837.271 27.6587 837.991 27.472 838.845 27.472C839.474 27.472 840.023 27.5947 840.493 27.84C840.973 28.0747 841.367 28.3947 841.677 28.8C841.997 29.2053 842.226 29.6587 842.365 30.16C842.514 30.6613 842.578 31.1787 842.557 31.712C842.546 31.808 842.541 31.904 842.541 32C842.541 32.096 842.535 32.192 842.525 32.288H836.269C836.311 32.7787 836.434 33.2213 836.637 33.616C836.839 34.0107 837.127 34.3253 837.501 34.56C837.874 34.784 838.338 34.896 838.893 34.896C839.17 34.896 839.447 34.864 839.725 34.8C840.013 34.7253 840.269 34.6027 840.493 34.432C840.727 34.2613 840.893 34.032 840.989 33.744H842.381C842.253 34.288 842.013 34.736 841.661 35.088C841.309 35.4293 840.887 35.6853 840.397 35.856C839.906 36.016 839.394 36.096 838.861 36.096ZM836.301 31.104H841.181C841.17 30.624 841.063 30.2027 840.861 29.84C840.658 29.4773 840.381 29.1947 840.029 28.992C839.687 28.7893 839.277 28.688 838.797 28.688C838.274 28.688 837.831 28.8 837.469 29.024C837.117 29.248 836.845 29.5413 836.653 29.904C836.461 30.2667 836.343 30.6667 836.301 31.104ZM844.385 39.04V27.568H845.681L845.745 28.864C846.033 28.4053 846.422 28.0587 846.913 27.824C847.414 27.5893 847.953 27.472 848.529 27.472C849.382 27.472 850.081 27.664 850.625 28.048C851.169 28.4213 851.569 28.9333 851.825 29.584C852.091 30.2347 852.225 30.9707 852.225 31.792C852.225 32.6133 852.091 33.3493 851.825 34C851.558 34.6507 851.147 35.1627 850.593 35.536C850.038 35.9093 849.329 36.096 848.465 36.096C848.038 36.096 847.654 36.0533 847.312 35.968C846.971 35.872 846.673 35.7387 846.417 35.568C846.161 35.3973 845.937 35.2053 845.745 34.992V39.04H844.385ZM848.353 34.896C848.971 34.896 849.462 34.7573 849.825 34.48C850.187 34.192 850.449 33.8133 850.609 33.344C850.779 32.8747 850.865 32.3573 850.865 31.792C850.865 31.216 850.779 30.6933 850.609 30.224C850.449 29.7547 850.182 29.3813 849.809 29.104C849.435 28.8267 848.939 28.688 848.321 28.688C847.766 28.688 847.291 28.832 846.897 29.12C846.513 29.3973 846.219 29.776 846.017 30.256C845.814 30.7253 845.713 31.2427 845.713 31.808C845.713 32.3947 845.809 32.9227 846.001 33.392C846.193 33.8613 846.486 34.2293 846.881 34.496C847.275 34.7627 847.766 34.896 848.353 34.896ZM857.735 36.096C856.849 36.096 856.113 35.9147 855.527 35.552C854.951 35.1787 854.519 34.6667 854.231 34.016C853.953 33.3653 853.815 32.6293 853.815 31.808C853.815 31.008 853.959 30.2827 854.247 29.632C854.545 28.9707 854.993 28.448 855.591 28.064C856.199 27.6693 856.967 27.472 857.895 27.472C858.471 27.472 858.983 27.568 859.431 27.76C859.889 27.952 860.268 28.2347 860.567 28.608C860.865 28.9707 861.073 29.4293 861.191 29.984H859.799C859.639 29.5147 859.383 29.184 859.031 28.992C858.689 28.7893 858.284 28.688 857.815 28.688C857.175 28.688 856.663 28.8373 856.279 29.136C855.895 29.4347 855.612 29.824 855.431 30.304C855.26 30.7733 855.174 31.2747 855.174 31.808C855.174 32.3627 855.265 32.8747 855.447 33.344C855.628 33.8133 855.911 34.192 856.295 34.48C856.679 34.7573 857.175 34.896 857.783 34.896C858.231 34.896 858.652 34.8 859.047 34.608C859.452 34.416 859.719 34.0747 859.847 33.584H861.255C861.148 34.16 860.919 34.6347 860.567 35.008C860.225 35.3813 859.804 35.6587 859.303 35.84C858.812 36.0107 858.289 36.096 857.735 36.096ZM862.978 36V27.568H864.338V31.2H865.81L868.306 27.568H869.858L867.042 31.584L870.098 36H868.498L865.97 32.384H864.338V36H862.978ZM871.547 39.616V38.32C872.07 38.32 872.486 38.2453 872.795 38.096C873.104 37.9573 873.36 37.7333 873.563 37.424C873.776 37.1253 873.979 36.7413 874.171 36.272L870.475 27.568H872.075L874.923 34.672L877.259 27.568H878.795L876.427 34.208C876.31 34.5493 876.176 34.9333 876.027 35.36C875.878 35.7867 875.712 36.2187 875.531 36.656C875.35 37.104 875.147 37.5147 874.923 37.888C874.71 38.272 874.47 38.5813 874.203 38.816C873.979 39.0187 873.76 39.1787 873.547 39.296C873.334 39.4133 873.072 39.4933 872.763 39.536C872.464 39.5893 872.059 39.616 871.547 39.616ZM886.888 36.096C885.651 36.096 884.718 35.7547 884.088 35.072C883.459 34.3787 883.102 33.4827 883.016 32.384H881.416V36H880.056V27.568H881.416V31.2H883.016C883.08 30.464 883.256 29.8187 883.544 29.264C883.843 28.6987 884.27 28.2613 884.824 27.952C885.379 27.632 886.067 27.472 886.888 27.472C887.784 27.472 888.526 27.6587 889.112 28.032C889.699 28.4053 890.136 28.9173 890.424 29.568C890.712 30.208 890.856 30.9493 890.856 31.792C890.856 32.624 890.712 33.3653 890.424 34.016C890.136 34.6667 889.699 35.1787 889.112 35.552C888.526 35.9147 887.784 36.096 886.888 36.096ZM886.888 34.896C887.507 34.896 888.003 34.7573 888.376 34.48C888.76 34.2027 889.043 33.8293 889.224 33.36C889.406 32.8907 889.496 32.368 889.496 31.792C889.496 31.216 889.406 30.6933 889.224 30.224C889.043 29.7547 888.76 29.3813 888.376 29.104C888.003 28.8267 887.507 28.688 886.888 28.688C886.28 28.688 885.784 28.8267 885.4 29.104C885.027 29.3813 884.755 29.7547 884.584 30.224C884.414 30.6933 884.328 31.216 884.328 31.792C884.328 32.368 884.414 32.8907 884.584 33.36C884.755 33.8293 885.027 34.2027 885.4 34.48C885.784 34.7573 886.28 34.896 886.888 34.896ZM900.531 36.096C899.646 36.096 898.91 35.9147 898.323 35.552C897.747 35.1787 897.315 34.6667 897.027 34.016C896.75 33.3653 896.611 32.6293 896.611 31.808C896.611 31.008 896.755 30.2827 897.043 29.632C897.342 28.9707 897.79 28.448 898.387 28.064C898.995 27.6693 899.763 27.472 900.691 27.472C901.267 27.472 901.779 27.568 902.227 27.76C902.686 27.952 903.065 28.2347 903.363 28.608C903.662 28.9707 903.87 29.4293 903.987 29.984H902.595C902.435 29.5147 902.179 29.184 901.827 28.992C901.486 28.7893 901.081 28.688 900.611 28.688C899.971 28.688 899.459 28.8373 899.075 29.136C898.691 29.4347 898.409 29.824 898.227 30.304C898.057 30.7733 897.971 31.2747 897.971 31.808C897.971 32.3627 898.062 32.8747 898.243 33.344C898.425 33.8133 898.707 34.192 899.091 34.48C899.475 34.7573 899.971 34.896 900.579 34.896C901.027 34.896 901.449 34.8 901.843 34.608C902.249 34.416 902.515 34.0747 902.643 33.584H904.051C903.945 34.16 903.715 34.6347 903.363 35.008C903.022 35.3813 902.601 35.6587 902.099 35.84C901.609 36.0107 901.086 36.096 900.531 36.096ZM904.929 36.016V34.832C905.142 34.832 905.334 34.7893 905.505 34.704C905.676 34.608 905.825 34.4693 905.953 34.288C906.102 34.0747 906.22 33.7653 906.305 33.36C906.39 32.9547 906.449 32.5227 906.481 32.064C906.524 31.552 906.556 31.0507 906.577 30.56C906.598 30.0587 906.614 29.5627 906.625 29.072C906.646 28.5813 906.657 28.08 906.657 27.568H912.513V36H911.153V28.768H907.985C907.974 29.1307 907.958 29.4987 907.937 29.872C907.926 30.2347 907.91 30.6027 907.889 30.976C907.878 31.3387 907.862 31.7067 907.841 32.08C907.83 32.5067 907.788 32.9867 907.713 33.52C907.638 34.0533 907.478 34.5387 907.233 34.976C906.998 35.392 906.71 35.6693 906.369 35.808C906.038 35.9467 905.558 36.016 904.929 36.016ZM914.922 39.616V38.32C915.445 38.32 915.861 38.2453 916.17 38.096C916.479 37.9573 916.735 37.7333 916.938 37.424C917.151 37.1253 917.354 36.7413 917.546 36.272L913.85 27.568H915.45L918.298 34.672L920.634 27.568H922.17L919.802 34.208C919.685 34.5493 919.551 34.9333 919.402 35.36C919.253 35.7867 919.087 36.2187 918.906 36.656C918.725 37.104 918.522 37.5147 918.298 37.888C918.085 38.272 917.845 38.5813 917.578 38.816C917.354 39.0187 917.135 39.1787 916.922 39.296C916.709 39.4133 916.447 39.4933 916.138 39.536C915.839 39.5893 915.434 39.616 914.922 39.616ZM922.583 36L925.319 31.584L922.823 27.568H924.279L926.503 31.216H927.767V27.568H929.127V31.216H930.391L932.615 27.568H934.071L931.575 31.584L934.311 36H932.727L930.535 32.368H929.127V36H927.767V32.368H926.359L924.167 36H922.583ZM939.155 36.096C938.622 36.096 938.147 36.0213 937.731 35.872C937.315 35.712 936.958 35.4933 936.659 35.216C936.361 34.928 936.115 34.592 935.923 34.208C935.731 33.8133 935.587 33.3867 935.491 32.928C935.395 32.4693 935.347 31.984 935.347 31.472C935.347 30.6507 935.363 29.888 935.395 29.184C935.438 28.4693 935.555 27.8347 935.747 27.28C935.939 26.7147 936.265 26.2453 936.723 25.872C937.182 25.4987 937.827 25.2373 938.659 25.088C939.086 25.0133 939.507 24.9493 939.923 24.896C940.339 24.8427 940.761 24.7893 941.187 24.736C941.326 24.7147 941.47 24.6933 941.619 24.672C941.769 24.6507 941.923 24.624 942.083 24.592C942.254 24.56 942.414 24.5333 942.563 24.512V25.76C942.446 25.8027 942.318 25.84 942.179 25.872C942.051 25.8933 941.913 25.9147 941.763 25.936C941.625 25.9573 941.481 25.9733 941.331 25.984C941.193 25.9947 941.054 26.0107 940.915 26.032C940.777 26.0427 940.643 26.0587 940.515 26.08C940.142 26.1227 939.747 26.1653 939.331 26.208C938.915 26.24 938.521 26.3253 938.147 26.464C937.785 26.592 937.475 26.8427 937.219 27.216C937.091 27.408 936.979 27.6373 936.883 27.904C936.798 28.1707 936.734 28.4427 936.691 28.72C936.659 28.9867 936.638 29.2427 936.627 29.488C936.841 29.1893 937.102 28.9493 937.411 28.768C937.721 28.576 938.051 28.4373 938.403 28.352C938.755 28.256 939.091 28.208 939.411 28.208C940.179 28.208 940.83 28.368 941.363 28.688C941.897 28.9973 942.302 29.44 942.579 30.016C942.857 30.592 942.995 31.264 942.995 32.032C942.995 32.8 942.846 33.4933 942.547 34.112C942.249 34.72 941.811 35.2053 941.235 35.568C940.67 35.92 939.977 36.096 939.155 36.096ZM939.187 34.896C939.721 34.896 940.169 34.768 940.531 34.512C940.894 34.256 941.166 33.9147 941.347 33.488C941.539 33.0613 941.635 32.592 941.635 32.08C941.635 31.5787 941.539 31.1307 941.347 30.736C941.166 30.3307 940.894 30.0107 940.531 29.776C940.179 29.5413 939.742 29.424 939.219 29.424C938.707 29.424 938.265 29.5467 937.891 29.792C937.529 30.0373 937.246 30.368 937.043 30.784C936.851 31.1893 936.755 31.632 936.755 32.112C936.755 32.6027 936.846 33.0613 937.027 33.488C937.209 33.9147 937.475 34.256 937.827 34.512C938.19 34.768 938.643 34.896 939.187 34.896ZM945.094 39.616V38.32C945.617 38.32 946.033 38.2453 946.342 38.096C946.651 37.9573 946.907 37.7333 947.11 37.424C947.323 37.1253 947.526 36.7413 947.718 36.272L944.022 27.568H945.622L948.47 34.672L950.806 27.568H952.342L949.974 34.208C949.857 34.5493 949.723 34.9333 949.574 35.36C949.425 35.7867 949.259 36.2187 949.078 36.656C948.897 37.104 948.694 37.5147 948.47 37.888C948.257 38.272 948.017 38.5813 947.75 38.816C947.526 39.0187 947.307 39.1787 947.094 39.296C946.881 39.4133 946.619 39.4933 946.31 39.536C946.011 39.5893 945.606 39.616 945.094 39.616Z" fill="#B567DA"/>
<path d="M1169.55 103.672C1165.52 103.672 1162.05 102.916 1159.14 101.404C1156.28 99.836 1153.93 97.736 1152.08 95.104C1150.29 92.416 1148.97 89.392 1148.13 86.032C1147.29 82.616 1146.87 79.032 1146.87 75.28C1146.87 70.856 1147.29 66.712 1148.13 62.848C1149.03 58.928 1150.4 55.484 1152.25 52.516C1154.15 49.548 1156.62 47.224 1159.64 45.544C1162.66 43.808 1166.3 42.94 1170.56 42.94C1173.42 42.94 1176.08 43.444 1178.54 44.452C1181.06 45.404 1183.24 46.86 1185.09 48.82C1186.94 50.724 1188.31 53.076 1189.21 55.876H1181.56C1180.56 53.804 1179.02 52.236 1176.94 51.172C1174.87 50.108 1172.72 49.576 1170.48 49.576C1167.9 49.576 1165.69 50.08 1163.84 51.088C1161.99 52.04 1160.42 53.328 1159.14 54.952C1157.9 56.576 1156.9 58.424 1156.11 60.496C1155.38 62.568 1154.85 64.724 1154.52 66.964C1154.18 69.204 1154.01 71.388 1154.01 73.516C1155.3 71.556 1156.78 69.96 1158.46 68.728C1160.2 67.496 1162.08 66.6 1164.09 66.04C1166.16 65.424 1168.26 65.116 1170.39 65.116C1174.31 65.116 1177.7 65.928 1180.56 67.552C1183.47 69.12 1185.74 71.332 1187.36 74.188C1188.98 76.988 1189.8 80.236 1189.8 83.932C1189.8 87.852 1188.93 91.296 1187.19 94.264C1185.46 97.232 1183.05 99.556 1179.97 101.236C1176.94 102.86 1173.47 103.672 1169.55 103.672ZM1169.38 97.036C1171.9 97.036 1174.12 96.504 1176.02 95.44C1177.98 94.32 1179.52 92.836 1180.64 90.988C1181.76 89.084 1182.32 86.984 1182.32 84.688C1182.32 82.224 1181.79 80.04 1180.72 78.136C1179.66 76.232 1178.18 74.72 1176.27 73.6C1174.42 72.48 1172.24 71.92 1169.72 71.92C1167.42 71.92 1165.24 72.452 1163.17 73.516C1161.1 74.524 1159.42 75.98 1158.13 77.884C1156.9 79.732 1156.28 81.944 1156.28 84.52C1156.28 86.872 1156.84 89 1157.96 90.904C1159.14 92.752 1160.7 94.236 1162.66 95.356C1164.68 96.476 1166.92 97.036 1169.38 97.036ZM1222.31 103.672C1218.16 103.672 1214.61 102.916 1211.64 101.404C1208.73 99.836 1206.35 97.68 1204.5 94.936C1202.65 92.136 1201.28 88.916 1200.38 85.276C1199.54 81.58 1199.12 77.604 1199.12 73.348C1199.12 69.092 1199.54 65.144 1200.38 61.504C1201.22 57.808 1202.57 54.588 1204.42 51.844C1206.26 49.044 1208.64 46.86 1211.56 45.292C1214.52 43.724 1218.11 42.94 1222.31 42.94C1226.73 42.94 1230.43 43.808 1233.4 45.544C1236.42 47.224 1238.8 49.52 1240.54 52.432C1242.33 55.344 1243.59 58.62 1244.32 62.26C1245.1 65.844 1245.49 69.54 1245.49 73.348C1245.49 77.156 1245.1 80.88 1244.32 84.52C1243.59 88.104 1242.33 91.352 1240.54 94.264C1238.8 97.12 1236.42 99.416 1233.4 101.152C1230.43 102.832 1226.73 103.672 1222.31 103.672ZM1222.31 97.036C1225.61 97.036 1228.27 96.336 1230.29 94.936C1232.36 93.48 1233.96 91.576 1235.08 89.224C1236.2 86.872 1236.95 84.324 1237.34 81.58C1237.74 78.78 1237.93 76.036 1237.93 73.348C1237.93 70.716 1237.74 68.028 1237.34 65.284C1236.95 62.484 1236.2 59.908 1235.08 57.556C1233.96 55.148 1232.36 53.216 1230.29 51.76C1228.27 50.304 1225.61 49.576 1222.31 49.576C1218.95 49.576 1216.23 50.304 1214.16 51.76C1212.09 53.216 1210.49 55.148 1209.37 57.556C1208.31 59.908 1207.58 62.484 1207.19 65.284C1206.8 68.028 1206.6 70.716 1206.6 73.348C1206.6 76.036 1206.8 78.78 1207.19 81.58C1207.58 84.324 1208.31 86.872 1209.37 89.224C1210.49 91.576 1212.09 93.48 1214.16 94.936C1216.23 96.336 1218.95 97.036 1222.31 97.036ZM1261.88 103L1298.42 43.612H1305.81L1269.35 103H1261.88ZM1300.68 103.504C1298 103.504 1295.73 102.916 1293.88 101.74C1292.09 100.564 1290.72 98.996 1289.76 97.036C1288.81 95.02 1288.34 92.78 1288.34 90.316C1288.34 87.74 1288.81 85.472 1289.76 83.512C1290.72 81.552 1292.12 80.012 1293.96 78.892C1295.81 77.772 1298.05 77.212 1300.68 77.212C1303.26 77.212 1305.44 77.772 1307.24 78.892C1309.03 80.012 1310.4 81.552 1311.35 83.512C1312.3 85.472 1312.78 87.74 1312.78 90.316C1312.78 92.78 1312.3 95.02 1311.35 97.036C1310.4 98.996 1309.03 100.564 1307.24 101.74C1305.44 102.916 1303.26 103.504 1300.68 103.504ZM1300.6 97.54C1302.06 97.54 1303.2 97.204 1304.04 96.532C1304.94 95.86 1305.56 94.964 1305.89 93.844C1306.28 92.724 1306.48 91.548 1306.48 90.316C1306.48 89.084 1306.28 87.936 1305.89 86.872C1305.56 85.752 1304.94 84.856 1304.04 84.184C1303.2 83.512 1302.06 83.176 1300.6 83.176C1298.36 83.176 1296.76 83.904 1295.81 85.36C1294.92 86.816 1294.47 88.468 1294.47 90.316C1294.47 92.276 1294.94 93.984 1295.9 95.44C1296.85 96.84 1298.42 97.54 1300.6 97.54ZM1267.42 69.232C1264.73 69.232 1262.46 68.644 1260.62 67.468C1258.82 66.292 1257.45 64.724 1256.5 62.764C1255.6 60.748 1255.16 58.508 1255.16 56.044C1255.16 53.468 1255.6 51.2 1256.5 49.24C1257.45 47.28 1258.85 45.74 1260.7 44.62C1262.55 43.5 1264.79 42.94 1267.42 42.94C1270.05 42.94 1272.26 43.5 1274.06 44.62C1275.85 45.74 1277.19 47.28 1278.09 49.24C1279.04 51.2 1279.52 53.468 1279.52 56.044C1279.52 58.508 1279.04 60.748 1278.09 62.764C1277.19 64.724 1275.85 66.292 1274.06 67.468C1272.26 68.644 1270.05 69.232 1267.42 69.232ZM1267.42 63.268C1268.88 63.268 1270.02 62.932 1270.86 62.26C1271.7 61.588 1272.32 60.692 1272.71 59.572C1273.1 58.452 1273.3 57.276 1273.3 56.044C1273.3 54.812 1273.1 53.664 1272.71 52.6C1272.32 51.48 1271.7 50.584 1270.86 49.912C1270.02 49.24 1268.88 48.904 1267.42 48.904C1265.18 48.904 1263.58 49.632 1262.63 51.088C1261.68 52.544 1261.2 54.196 1261.2 56.044C1261.2 58.004 1261.68 59.712 1262.63 61.168C1263.58 62.568 1265.18 63.268 1267.42 63.268Z" fill="#B567DA"/>
<defs>
<filter id="filter0_bd_5313_9403" x="1278.4" y="115.235" width="127.295" height="127.295" filterUnits="userSpaceOnUse" color-interpolation-filters="sRGB">
<feFlood flood-opacity="0" result="BackgroundImageFix"/>
<feGaussianBlur in="BackgroundImageFix" stdDeviation="22.5737"/>
<feComposite in2="SourceAlpha" operator="in" result="effect1_backgroundBlur_5313_9403"/>
<feColorMatrix in="SourceAlpha" type="matrix" values="0 0 0 0 0 0 0 0 0 0 0 0 0 0 0 0 0 0 127 0" result="hardAlpha"/>
<feOffset dy="4.99636"/>
<feGaussianBlur stdDeviation="10.5923"/>
<feComposite in2="hardAlpha" operator="out"/>
<feColorMatrix type="matrix" values="0 0 0 0 0.709804 0 0 0 0 0.403922 0 0 0 0 0.854902 0 0 0 0.4 0"/>
<feBlend mode="normal" in2="effect1_backgroundBlur_5313_9403" result="effect2_dropShadow_5313_9403"/>
<feBlend mode="normal" in="SourceGraphic" in2="effect2_dropShadow_5313_9403" result="shape"/>
</filter>
<linearGradient id="paint0_linear_5313_9403" x1="849.282" y1="20.6134" x2="852.295" y2="304.857" gradientUnits="userSpaceOnUse">
<stop stop-color="#B567DA"/>
<stop offset="0.755234" stop-color="#FAFCFF"/>
</linearGradient>
<linearGradient id="paint1_linear_5313_9403" x1="1340.96" y1="160.416" x2="1340.96" y2="13.2224" gradientUnits="userSpaceOnUse">
<stop stop-color="#B567DA"/>
<stop offset="1" stop-color="#FAFCFF"/>
</linearGradient>
</defs>
</svg>
