<svg width="364" height="142" viewBox="0 0 364 142" fill="none" xmlns="http://www.w3.org/2000/svg">
<path d="M9.20455 64.4463C8.14486 67.4725 1 69.3459 1 69.3459L2.5 142H362V126.5C362 126.5 340.592 114.012 324.5 115C310.818 115.84 301.6 99.6004 290.5 104.5C271.717 112.791 280.5 111.5 257.5 98C243.667 89.8808 232.857 96.99 215 96.5C201.74 96.1362 194.597 62.4872 180.535 69.8365C172.742 73.9091 166.726 56.4354 156.886 55.6278C138.978 54.158 139.604 67.0835 130.342 70.3265C123.278 72.8002 118.759 62.9771 106.694 55.1378C102.564 53.2092 99.2731 51.6208 92.6979 50.7282C80.363 49.0538 69.1042 66.0212 57.9492 61.0173C50.7167 57.773 45.5785 62.0983 38.1618 60.0374C29.2576 57.5631 26.3205 38.6129 17.9707 43.9396C12.5004 47.4292 13.0655 53.4204 9.20455 64.4463Z" fill="url(#paint0_linear_5313_22765)" fill-opacity="0.2"/>
<path d="M1 69.3877C1 69.3877 5.41701 68.0658 7.92223 65.7924C13.2067 60.9971 12.121 49.2282 17.6134 45.2104C25.9969 39.0776 30.1322 58.1009 39.0723 60.9496C46.5189 63.3224 51.1928 57.2143 58.4545 60.9496C69.6546 66.7107 77.0482 51.0454 89.3384 51.0454C114.499 51.0454 121.447 75.4786 131.83 69.4251C142.214 63.3715 139.462 54.4146 157.442 56.1068C165.701 56.884 173.154 74.1153 180.978 69.4265C193.531 61.9033 201.666 94.2883 214.897 96.0577C230.427 98.1344 239.156 90.1021 254.354 96.0602C266.317 100.75 275.119 115.656 286.196 106.462C298.616 96.1527 309.147 115.908 322.884 114.94C339.041 113.802 362 126 362 126" stroke="#B567DA" stroke-width="1.27504" stroke-linecap="round"/>
<g filter="url(#filter0_bd_5313_22765)">
<circle cx="336.041" cy="116.576" r="7.25954" fill="#B567DA"/>
</g>
<line x1="336.319" y1="37" x2="336.319" y2="110" stroke="url(#paint1_linear_5313_22765)" stroke-width="0.637521" stroke-dasharray="1.28 1.28"/>
<path d="M210.422 13.5785C210.741 13.898 211.259 13.898 211.578 13.5785L216.785 8.3722C217.104 8.05271 217.104 7.53473 216.785 7.21525C216.465 6.89576 215.947 6.89576 215.628 7.21525L211 11.843L206.372 7.21525C206.053 6.89576 205.535 6.89576 205.215 7.21524C204.896 7.53473 204.896 8.05271 205.215 8.3722L210.422 13.5785ZM211.818 1L211.818 0.181912L210.182 0.181911L210.182 1L211.818 1ZM211.818 13L211.818 1L210.182 1L210.182 13L211.818 13Z" fill="#B567DA"/>
<path d="M231.19 40.32C229.27 40.32 227.617 39.96 226.23 39.24C224.87 38.4933 223.75 37.4933 222.87 36.24C222.017 34.96 221.39 33.52 220.99 31.92C220.59 30.2933 220.39 28.5867 220.39 26.8C220.39 24.6933 220.59 22.72 220.99 20.88C221.417 19.0133 222.07 17.3733 222.95 15.96C223.857 14.5467 225.03 13.44 226.47 12.64C227.91 11.8133 229.644 11.4 231.67 11.4C233.03 11.4 234.297 11.64 235.47 12.12C236.67 12.5733 237.71 13.2667 238.59 14.2C239.47 15.1067 240.124 16.2267 240.55 17.56H236.91C236.43 16.5733 235.697 15.8267 234.71 15.32C233.724 14.8133 232.697 14.56 231.63 14.56C230.404 14.56 229.35 14.8 228.47 15.28C227.59 15.7333 226.844 16.3467 226.23 17.12C225.644 17.8933 225.164 18.7733 224.79 19.76C224.444 20.7467 224.19 21.7733 224.03 22.84C223.87 23.9067 223.79 24.9467 223.79 25.96C224.404 25.0267 225.11 24.2667 225.91 23.68C226.737 23.0933 227.63 22.6667 228.59 22.4C229.577 22.1067 230.577 21.96 231.59 21.96C233.457 21.96 235.07 22.3467 236.43 23.12C237.817 23.8667 238.897 24.92 239.67 26.28C240.444 27.6133 240.83 29.16 240.83 30.92C240.83 32.7867 240.417 34.4267 239.59 35.84C238.764 37.2533 237.617 38.36 236.15 39.16C234.71 39.9333 233.057 40.32 231.19 40.32ZM231.11 37.16C232.31 37.16 233.364 36.9067 234.27 36.4C235.204 35.8667 235.937 35.16 236.47 34.28C237.004 33.3733 237.27 32.3733 237.27 31.28C237.27 30.1067 237.017 29.0667 236.51 28.16C236.004 27.2533 235.297 26.5333 234.39 26C233.51 25.4667 232.47 25.2 231.27 25.2C230.177 25.2 229.137 25.4533 228.15 25.96C227.164 26.44 226.364 27.1333 225.75 28.04C225.164 28.92 224.87 29.9733 224.87 31.2C224.87 32.32 225.137 33.3333 225.67 34.24C226.23 35.12 226.977 35.8267 227.91 36.36C228.87 36.8933 229.937 37.16 231.11 37.16ZM256.312 40.32C254.339 40.32 252.646 39.96 251.232 39.24C249.846 38.4933 248.712 37.4667 247.832 36.16C246.952 34.8267 246.299 33.2933 245.872 31.56C245.472 29.8 245.272 27.9067 245.272 25.88C245.272 23.8533 245.472 21.9733 245.872 20.24C246.272 18.48 246.912 16.9467 247.792 15.64C248.672 14.3067 249.806 13.2667 251.192 12.52C252.606 11.7733 254.312 11.4 256.312 11.4C258.419 11.4 260.179 11.8133 261.592 12.64C263.032 13.44 264.166 14.5333 264.992 15.92C265.846 17.3067 266.446 18.8667 266.792 20.6C267.166 22.3067 267.352 24.0667 267.352 25.88C267.352 27.6933 267.166 29.4667 266.792 31.2C266.446 32.9067 265.846 34.4533 264.992 35.84C264.166 37.2 263.032 38.2933 261.592 39.12C260.179 39.92 258.419 40.32 256.312 40.32ZM256.312 37.16C257.886 37.16 259.152 36.8267 260.112 36.16C261.099 35.4667 261.859 34.56 262.392 33.44C262.926 32.32 263.286 31.1067 263.472 29.8C263.659 28.4667 263.752 27.16 263.752 25.88C263.752 24.6267 263.659 23.3467 263.472 22.04C263.286 20.7067 262.926 19.48 262.392 18.36C261.859 17.2133 261.099 16.2933 260.112 15.6C259.152 14.9067 257.886 14.56 256.312 14.56C254.712 14.56 253.419 14.9067 252.432 15.6C251.446 16.2933 250.686 17.2133 250.152 18.36C249.646 19.48 249.299 20.7067 249.112 22.04C248.926 23.3467 248.832 24.6267 248.832 25.88C248.832 27.16 248.926 28.4667 249.112 29.8C249.299 31.1067 249.646 32.32 250.152 33.44C250.686 34.56 251.446 35.4667 252.432 36.16C253.419 36.8267 254.712 37.16 256.312 37.16ZM275.154 40L292.554 11.72H296.074L278.714 40H275.154ZM293.634 40.24C292.354 40.24 291.274 39.96 290.394 39.4C289.54 38.84 288.887 38.0933 288.434 37.16C287.98 36.2 287.754 35.1333 287.754 33.96C287.754 32.7333 287.98 31.6533 288.434 30.72C288.887 29.7867 289.554 29.0533 290.434 28.52C291.314 27.9867 292.38 27.72 293.634 27.72C294.86 27.72 295.9 27.9867 296.754 28.52C297.607 29.0533 298.26 29.7867 298.714 30.72C299.167 31.6533 299.394 32.7333 299.394 33.96C299.394 35.1333 299.167 36.2 298.714 37.16C298.26 38.0933 297.607 38.84 296.754 39.4C295.9 39.96 294.86 40.24 293.634 40.24ZM293.594 37.4C294.287 37.4 294.834 37.24 295.234 36.92C295.66 36.6 295.954 36.1733 296.114 35.64C296.3 35.1067 296.394 34.5467 296.394 33.96C296.394 33.3733 296.3 32.8267 296.114 32.32C295.954 31.7867 295.66 31.36 295.234 31.04C294.834 30.72 294.287 30.56 293.594 30.56C292.527 30.56 291.767 30.9067 291.314 31.6C290.887 32.2933 290.674 33.08 290.674 33.96C290.674 34.8933 290.9 35.7067 291.354 36.4C291.807 37.0667 292.554 37.4 293.594 37.4ZM277.794 23.92C276.514 23.92 275.434 23.64 274.554 23.08C273.7 22.52 273.047 21.7733 272.594 20.84C272.167 19.88 271.954 18.8133 271.954 17.64C271.954 16.4133 272.167 15.3333 272.594 14.4C273.047 13.4667 273.714 12.7333 274.594 12.2C275.474 11.6667 276.54 11.4 277.794 11.4C279.047 11.4 280.1 11.6667 280.954 12.2C281.807 12.7333 282.447 13.4667 282.874 14.4C283.327 15.3333 283.554 16.4133 283.554 17.64C283.554 18.8133 283.327 19.88 282.874 20.84C282.447 21.7733 281.807 22.52 280.954 23.08C280.1 23.64 279.047 23.92 277.794 23.92ZM277.794 21.08C278.487 21.08 279.034 20.92 279.434 20.6C279.834 20.28 280.127 19.8533 280.314 19.32C280.5 18.7867 280.594 18.2267 280.594 17.64C280.594 17.0533 280.5 16.5067 280.314 16C280.127 15.4667 279.834 15.04 279.434 14.72C279.034 14.4 278.487 14.24 277.794 14.24C276.727 14.24 275.967 14.5867 275.514 15.28C275.06 15.9733 274.834 16.76 274.834 17.64C274.834 18.5733 275.06 19.3867 275.514 20.08C275.967 20.7467 276.727 21.08 277.794 21.08Z" fill="#B567DA"/>
<defs>
<filter id="filter0_bd_5313_22765" x="303.28" y="83.8156" width="65.5207" height="65.5207" filterUnits="userSpaceOnUse" color-interpolation-filters="sRGB">
<feFlood flood-opacity="0" result="BackgroundImageFix"/>
<feGaussianBlur in="BackgroundImageFix" stdDeviation="12.7504"/>
<feComposite in2="SourceAlpha" operator="in" result="effect1_backgroundBlur_5313_22765"/>
<feColorMatrix in="SourceAlpha" type="matrix" values="0 0 0 0 0 0 0 0 0 0 0 0 0 0 0 0 0 0 127 0" result="hardAlpha"/>
<feOffset dy="1.27504"/>
<feGaussianBlur stdDeviation="2.13387"/>
<feComposite in2="hardAlpha" operator="out"/>
<feColorMatrix type="matrix" values="0 0 0 0 0.711333 0 0 0 0 0.402609 0 0 0 0 0.856615 0 0 0 1 0"/>
<feBlend mode="normal" in2="effect1_backgroundBlur_5313_22765" result="effect2_dropShadow_5313_22765"/>
<feBlend mode="normal" in="SourceGraphic" in2="effect2_dropShadow_5313_22765" result="shape"/>
</filter>
<linearGradient id="paint0_linear_5313_22765" x1="181.712" y1="42.889" x2="181.494" y2="135.001" gradientUnits="userSpaceOnUse">
<stop stop-color="#AC4BD9"/>
<stop offset="1" stop-color="#B567DA" stop-opacity="0"/>
</linearGradient>
<linearGradient id="paint1_linear_5313_22765" x1="335.5" y1="110" x2="335.5" y2="37" gradientUnits="userSpaceOnUse">
<stop stop-color="#B567DA"/>
<stop offset="1" stop-color="#FAFCFF"/>
</linearGradient>
</defs>
</svg>
