<svg width="297" height="111" viewBox="0 0 297 111" fill="none" xmlns="http://www.w3.org/2000/svg">
<path d="M7.6903 47.6991C6.82619 50.1667 1 51.6944 1 51.6944L2.22316 110.939L295.373 110.939V98.3C295.373 98.3 277.916 88.1165 264.794 88.9224C253.637 89.6077 246.121 76.3651 237.069 80.3604C221.753 87.1209 228.915 86.0684 210.16 75.06C198.88 68.4393 190.065 74.2364 175.504 73.8368C164.691 73.5402 158.866 46.1015 147.399 52.0944C141.045 55.4154 136.139 41.1666 128.116 40.5081C113.512 39.3096 114.023 49.8495 106.471 52.494C100.71 54.5112 97.0254 46.501 87.1868 40.1086C83.8194 38.5359 81.1356 37.2407 75.7739 36.5128C65.7156 35.1475 56.5347 48.9833 47.4385 44.9029C41.5409 42.2574 37.351 45.7844 31.3031 44.1039C24.0423 42.0863 21.6473 26.6335 14.8386 30.9771C10.3779 33.8227 10.8387 38.7081 7.6903 47.6991Z" fill="url(#paint0_linear_5313_33832)" fill-opacity="0.2"/>
<path d="M1 51.7333C1 51.7333 4.60179 50.6554 6.64465 48.8016C10.9538 44.8914 10.0685 35.2945 14.5472 32.0182C21.3834 27.0174 24.7555 42.5297 32.0456 44.8526C38.1179 46.7875 41.9291 41.8067 47.8506 44.8526C56.9835 49.5504 63.0126 36.7764 73.0345 36.7764C93.5515 36.7764 99.2169 56.7001 107.684 51.7638C116.151 46.8275 113.907 39.5237 128.569 40.9036C135.303 41.5373 141.381 55.5884 147.761 51.7649C157.997 45.6303 164.63 72.0382 175.42 73.481C188.083 75.1745 195.201 68.6247 207.594 73.4831C217.35 77.3077 224.527 89.4624 233.56 81.9653C243.688 73.5585 252.274 89.6674 263.476 88.8784C276.651 87.9505 295.373 97.8971 295.373 97.8971" stroke="#B567DA" stroke-width="1.03972" stroke-linecap="round"/>
<g filter="url(#filter0_bd_5313_33832)">
<circle cx="274.201" cy="90.2127" r="5.91971" fill="#B567DA"/>
</g>
<line x1="274.424" y1="25.3242" x2="274.424" y2="84.8512" stroke="url(#paint1_linear_5313_33832)" stroke-width="0.519858" stroke-dasharray="1.04 1.04"/>
<path d="M221.406 14.4496C221.725 14.7691 222.243 14.7691 222.563 14.4496L227.769 9.24328C228.089 8.92379 228.089 8.40581 227.769 8.08632C227.45 7.76684 226.932 7.76684 226.612 8.08632L221.984 12.7141L217.357 8.08632C217.037 7.76684 216.519 7.76684 216.2 8.08632C215.88 8.4058 215.88 8.92379 216.2 9.24327L221.406 14.4496ZM222.802 1.87109L222.802 1.053L221.166 1.053L221.166 1.87109L222.802 1.87109ZM222.802 13.8711L222.802 1.87109L221.166 1.87109L221.166 13.8711L222.802 13.8711Z" fill="#B567DA"/>
<path d="M240.566 33.256C239.03 33.256 237.708 32.968 236.598 32.392C235.51 31.7947 234.614 30.9947 233.91 29.992C233.228 28.968 232.726 27.816 232.406 26.536C232.086 25.2347 231.926 23.8693 231.926 22.44C231.926 20.7547 232.086 19.176 232.406 17.704C232.748 16.2107 233.27 14.8987 233.974 13.768C234.7 12.6373 235.638 11.752 236.79 11.112C237.942 10.4507 239.329 10.12 240.95 10.12C242.038 10.12 243.052 10.312 243.99 10.696C244.95 11.0587 245.782 11.6133 246.486 12.36C247.19 13.0853 247.713 13.9813 248.054 15.048H245.142C244.758 14.2587 244.172 13.6613 243.382 13.256C242.593 12.8507 241.772 12.648 240.918 12.648C239.937 12.648 239.094 12.84 238.39 13.224C237.686 13.5867 237.089 14.0773 236.598 14.696C236.129 15.3147 235.745 16.0187 235.446 16.808C235.169 17.5973 234.966 18.4187 234.838 19.272C234.71 20.1253 234.646 20.9573 234.646 21.768C235.137 21.0213 235.702 20.4133 236.342 19.944C237.004 19.4747 237.718 19.1333 238.486 18.92C239.276 18.6853 240.076 18.568 240.886 18.568C242.38 18.568 243.67 18.8773 244.758 19.496C245.868 20.0933 246.732 20.936 247.35 22.024C247.969 23.0907 248.278 24.328 248.278 25.736C248.278 27.2293 247.948 28.5413 247.286 29.672C246.625 30.8027 245.708 31.688 244.534 32.328C243.382 32.9467 242.06 33.256 240.566 33.256ZM240.502 30.728C241.462 30.728 242.305 30.5253 243.03 30.12C243.777 29.6933 244.364 29.128 244.79 28.424C245.217 27.6987 245.43 26.8987 245.43 26.024C245.43 25.0853 245.228 24.2533 244.822 23.528C244.417 22.8027 243.852 22.2267 243.126 21.8C242.422 21.3733 241.59 21.16 240.63 21.16C239.756 21.16 238.924 21.3627 238.134 21.768C237.345 22.152 236.705 22.7067 236.214 23.432C235.745 24.136 235.51 24.9787 235.51 25.96C235.51 26.856 235.724 27.6667 236.15 28.392C236.598 29.096 237.196 29.6613 237.942 30.088C238.71 30.5147 239.564 30.728 240.502 30.728ZM260.664 33.256C259.085 33.256 257.73 32.968 256.6 32.392C255.49 31.7947 254.584 30.9733 253.88 29.928C253.176 28.8613 252.653 27.6347 252.312 26.248C251.992 24.84 251.832 23.3253 251.832 21.704C251.832 20.0827 251.992 18.5787 252.312 17.192C252.632 15.784 253.144 14.5573 253.848 13.512C254.552 12.4453 255.458 11.6133 256.568 11.016C257.698 10.4187 259.064 10.12 260.664 10.12C262.349 10.12 263.757 10.4507 264.888 11.112C266.04 11.752 266.946 12.6267 267.608 13.736C268.29 14.8453 268.77 16.0933 269.048 17.48C269.346 18.8453 269.496 20.2533 269.496 21.704C269.496 23.1547 269.346 24.5733 269.048 25.96C268.77 27.3253 268.29 28.5627 267.608 29.672C266.946 30.76 266.04 31.6347 264.888 32.296C263.757 32.936 262.349 33.256 260.664 33.256ZM260.664 30.728C261.922 30.728 262.936 30.4613 263.704 29.928C264.493 29.3733 265.101 28.648 265.528 27.752C265.954 26.856 266.242 25.8853 266.392 24.84C266.541 23.7733 266.616 22.728 266.616 21.704C266.616 20.7013 266.541 19.6773 266.392 18.632C266.242 17.5653 265.954 16.584 265.528 15.688C265.101 14.7707 264.493 14.0347 263.704 13.48C262.936 12.9253 261.922 12.648 260.664 12.648C259.384 12.648 258.349 12.9253 257.56 13.48C256.77 14.0347 256.162 14.7707 255.736 15.688C255.33 16.584 255.053 17.5653 254.904 18.632C254.754 19.6773 254.68 20.7013 254.68 21.704C254.68 22.728 254.754 23.7733 254.904 24.84C255.053 25.8853 255.33 26.856 255.736 27.752C256.162 28.648 256.77 29.3733 257.56 29.928C258.349 30.4613 259.384 30.728 260.664 30.728ZM275.737 33L289.657 10.376H292.473L278.585 33H275.737ZM290.521 33.192C289.497 33.192 288.633 32.968 287.929 32.52C287.246 32.072 286.724 31.4747 286.361 30.728C285.998 29.96 285.817 29.1067 285.817 28.168C285.817 27.1867 285.998 26.3227 286.361 25.576C286.724 24.8293 287.257 24.2427 287.961 23.816C288.665 23.3893 289.518 23.176 290.521 23.176C291.502 23.176 292.334 23.3893 293.017 23.816C293.7 24.2427 294.222 24.8293 294.585 25.576C294.948 26.3227 295.129 27.1867 295.129 28.168C295.129 29.1067 294.948 29.96 294.585 30.728C294.222 31.4747 293.7 32.072 293.017 32.52C292.334 32.968 291.502 33.192 290.521 33.192ZM290.489 30.92C291.044 30.92 291.481 30.792 291.801 30.536C292.142 30.28 292.377 29.9387 292.505 29.512C292.654 29.0853 292.729 28.6373 292.729 28.168C292.729 27.6987 292.654 27.2613 292.505 26.856C292.377 26.4293 292.142 26.088 291.801 25.832C291.481 25.576 291.044 25.448 290.489 25.448C289.636 25.448 289.028 25.7253 288.665 26.28C288.324 26.8347 288.153 27.464 288.153 28.168C288.153 28.9147 288.334 29.5653 288.697 30.12C289.06 30.6533 289.657 30.92 290.489 30.92ZM277.849 20.136C276.825 20.136 275.961 19.912 275.257 19.464C274.574 19.016 274.052 18.4187 273.689 17.672C273.348 16.904 273.177 16.0507 273.177 15.112C273.177 14.1307 273.348 13.2667 273.689 12.52C274.052 11.7733 274.585 11.1867 275.289 10.76C275.993 10.3333 276.846 10.12 277.849 10.12C278.852 10.12 279.694 10.3333 280.377 10.76C281.06 11.1867 281.572 11.7733 281.913 12.52C282.276 13.2667 282.457 14.1307 282.457 15.112C282.457 16.0507 282.276 16.904 281.913 17.672C281.572 18.4187 281.06 19.016 280.377 19.464C279.694 19.912 278.852 20.136 277.849 20.136ZM277.849 17.864C278.404 17.864 278.841 17.736 279.161 17.48C279.481 17.224 279.716 16.8827 279.865 16.456C280.014 16.0293 280.089 15.5813 280.089 15.112C280.089 14.6427 280.014 14.2053 279.865 13.8C279.716 13.3733 279.481 13.032 279.161 12.776C278.841 12.52 278.404 12.392 277.849 12.392C276.996 12.392 276.388 12.6693 276.025 13.224C275.662 13.7787 275.481 14.408 275.481 15.112C275.481 15.8587 275.662 16.5093 276.025 17.064C276.388 17.5973 276.996 17.864 277.849 17.864Z" fill="#B567DA"/>
<defs>
<filter id="filter0_bd_5313_33832" x="247.487" y="63.4986" width="53.4285" height="53.428" filterUnits="userSpaceOnUse" color-interpolation-filters="sRGB">
<feFlood flood-opacity="0" result="BackgroundImageFix"/>
<feGaussianBlur in="BackgroundImageFix" stdDeviation="10.3972"/>
<feComposite in2="SourceAlpha" operator="in" result="effect1_backgroundBlur_5313_33832"/>
<feColorMatrix in="SourceAlpha" type="matrix" values="0 0 0 0 0 0 0 0 0 0 0 0 0 0 0 0 0 0 127 0" result="hardAlpha"/>
<feOffset dy="1.03972"/>
<feGaussianBlur stdDeviation="1.74004"/>
<feComposite in2="hardAlpha" operator="out"/>
<feColorMatrix type="matrix" values="0 0 0 0 0.711333 0 0 0 0 0.402609 0 0 0 0 0.856615 0 0 0 1 0"/>
<feBlend mode="normal" in2="effect1_backgroundBlur_5313_33832" result="effect2_dropShadow_5313_33832"/>
<feBlend mode="normal" in="SourceGraphic" in2="effect2_dropShadow_5313_33832" result="shape"/>
</filter>
<linearGradient id="paint0_linear_5313_33832" x1="148.359" y1="30.1204" x2="148.181" y2="105.232" gradientUnits="userSpaceOnUse">
<stop stop-color="#AC4BD9"/>
<stop offset="1" stop-color="#B567DA" stop-opacity="0"/>
</linearGradient>
<linearGradient id="paint1_linear_5313_33832" x1="273.664" y1="84.8512" x2="273.664" y2="25.3242" gradientUnits="userSpaceOnUse">
<stop stop-color="#B567DA"/>
<stop offset="1" stop-color="#FAFCFF"/>
</linearGradient>
</defs>
</svg>
