<svg width="141" height="103" viewBox="0 0 141 103" fill="none" xmlns="http://www.w3.org/2000/svg">
<path d="M73.312 32.256C72.416 32.256 71.5093 32.1707 70.592 32C69.696 31.808 68.8533 31.5093 68.064 31.104C67.296 30.6987 66.6347 30.1547 66.08 29.472C65.5467 28.7893 65.2053 27.9467 65.056 26.944H67.936C68.192 27.6693 68.6187 28.2347 69.216 28.64C69.8133 29.0453 70.4747 29.3333 71.2 29.504C71.9467 29.6533 72.6613 29.728 73.344 29.728C73.8347 29.728 74.368 29.6853 74.944 29.6C75.52 29.5147 76.0747 29.3333 76.608 29.056C77.1627 28.7787 77.6107 28.3733 77.952 27.84C78.2933 27.2853 78.464 26.56 78.464 25.664C78.464 24.8107 78.304 24.128 77.984 23.616C77.664 23.0827 77.2373 22.688 76.704 22.432C76.1707 22.1547 75.5733 21.9733 74.912 21.888C74.272 21.8027 73.6213 21.76 72.96 21.76H70.784V19.264H72.096C72.8427 19.264 73.5467 19.2 74.208 19.072C74.8693 18.9227 75.456 18.6987 75.968 18.4C76.48 18.1013 76.8747 17.7067 77.152 17.216C77.4507 16.7253 77.6 16.1173 77.6 15.392C77.6 14.3467 77.376 13.5573 76.928 13.024C76.5013 12.4907 75.9467 12.128 75.264 11.936C74.5813 11.744 73.8667 11.648 73.12 11.648C72.5227 11.648 71.904 11.744 71.264 11.936C70.6453 12.1067 70.0907 12.3947 69.6 12.8C69.1093 13.184 68.7787 13.7067 68.608 14.368H65.824C65.952 13.4293 66.2507 12.6293 66.72 11.968C67.1893 11.3067 67.7653 10.7627 68.448 10.336C69.152 9.90933 69.92 9.6 70.752 9.408C71.6053 9.216 72.4693 9.12 73.344 9.12C74.304 9.12 75.2 9.22667 76.032 9.44C76.8853 9.632 77.632 9.96267 78.272 10.432C78.912 10.88 79.4133 11.4773 79.776 12.224C80.16 12.9707 80.352 13.8773 80.352 14.944C80.352 15.7333 80.224 16.4587 79.968 17.12C79.712 17.7813 79.328 18.3573 78.816 18.848C78.3253 19.3387 77.7067 19.744 76.96 20.064C77.92 20.2347 78.72 20.576 79.36 21.088C80.0213 21.6 80.512 22.2293 80.832 22.976C81.1733 23.7013 81.344 24.5227 81.344 25.44C81.344 26.8693 81.088 28.032 80.576 28.928C80.064 29.824 79.4027 30.5173 78.592 31.008C77.7813 31.4773 76.9067 31.808 75.968 32C75.0293 32.1707 74.144 32.256 73.312 32.256ZM93.8123 32.256C92.2336 32.256 90.8789 31.968 89.7483 31.392C88.6389 30.7947 87.7323 29.9733 87.0283 28.928C86.3243 27.8613 85.8016 26.6347 85.4603 25.248C85.1403 23.84 84.9803 22.3253 84.9803 20.704C84.9803 19.0827 85.1403 17.5787 85.4603 16.192C85.7803 14.784 86.2923 13.5573 86.9963 12.512C87.7003 11.4453 88.6069 10.6133 89.7163 10.016C90.8469 9.41867 92.2123 9.12 93.8123 9.12C95.4976 9.12 96.9056 9.45067 98.0363 10.112C99.1883 10.752 100.095 11.6267 100.756 12.736C101.439 13.8453 101.919 15.0933 102.196 16.48C102.495 17.8453 102.644 19.2533 102.644 20.704C102.644 22.1547 102.495 23.5733 102.196 24.96C101.919 26.3253 101.439 27.5627 100.756 28.672C100.095 29.76 99.1883 30.6347 98.0363 31.296C96.9056 31.936 95.4976 32.256 93.8123 32.256ZM93.8123 29.728C95.0709 29.728 96.0843 29.4613 96.8523 28.928C97.6416 28.3733 98.2496 27.648 98.6763 26.752C99.1029 25.856 99.3909 24.8853 99.5403 23.84C99.6896 22.7733 99.7643 21.728 99.7643 20.704C99.7643 19.7013 99.6896 18.6773 99.5403 17.632C99.3909 16.5653 99.1029 15.584 98.6763 14.688C98.2496 13.7707 97.6416 13.0347 96.8523 12.48C96.0843 11.9253 95.0709 11.648 93.8123 11.648C92.5323 11.648 91.4976 11.9253 90.7083 12.48C89.9189 13.0347 89.3109 13.7707 88.8843 14.688C88.4789 15.584 88.2016 16.5653 88.0523 17.632C87.9029 18.6773 87.8283 19.7013 87.8283 20.704C87.8283 21.728 87.9029 22.7733 88.0523 23.84C88.2016 24.8853 88.4789 25.856 88.8843 26.752C89.3109 27.648 89.9189 28.3733 90.7083 28.928C91.4976 29.4613 92.5323 29.728 93.8123 29.728ZM108.886 32L122.806 9.376H125.622L111.734 32H108.886ZM123.67 32.192C122.646 32.192 121.782 31.968 121.078 31.52C120.395 31.072 119.872 30.4747 119.51 29.728C119.147 28.96 118.966 28.1067 118.966 27.168C118.966 26.1867 119.147 25.3227 119.51 24.576C119.872 23.8293 120.406 23.2427 121.11 22.816C121.814 22.3893 122.667 22.176 123.67 22.176C124.651 22.176 125.483 22.3893 126.166 22.816C126.848 23.2427 127.371 23.8293 127.734 24.576C128.096 25.3227 128.278 26.1867 128.278 27.168C128.278 28.1067 128.096 28.96 127.734 29.728C127.371 30.4747 126.848 31.072 126.166 31.52C125.483 31.968 124.651 32.192 123.67 32.192ZM123.638 29.92C124.192 29.92 124.63 29.792 124.95 29.536C125.291 29.28 125.526 28.9387 125.654 28.512C125.803 28.0853 125.878 27.6373 125.878 27.168C125.878 26.6987 125.803 26.2613 125.654 25.856C125.526 25.4293 125.291 25.088 124.95 24.832C124.63 24.576 124.192 24.448 123.638 24.448C122.784 24.448 122.176 24.7253 121.814 25.28C121.472 25.8347 121.302 26.464 121.302 27.168C121.302 27.9147 121.483 28.5653 121.846 29.12C122.208 29.6533 122.806 29.92 123.638 29.92ZM110.998 19.136C109.974 19.136 109.11 18.912 108.406 18.464C107.723 18.016 107.2 17.4187 106.838 16.672C106.496 15.904 106.326 15.0507 106.326 14.112C106.326 13.1307 106.496 12.2667 106.838 11.52C107.2 10.7733 107.734 10.1867 108.438 9.76C109.142 9.33333 109.995 9.12 110.998 9.12C112 9.12 112.843 9.33333 113.526 9.76C114.208 10.1867 114.72 10.7733 115.062 11.52C115.424 12.2667 115.606 13.1307 115.606 14.112C115.606 15.0507 115.424 15.904 115.062 16.672C114.72 17.4187 114.208 18.016 113.526 18.464C112.843 18.912 112 19.136 110.998 19.136ZM110.998 16.864C111.552 16.864 111.99 16.736 112.31 16.48C112.63 16.224 112.864 15.8827 113.014 15.456C113.163 15.0293 113.238 14.5813 113.238 14.112C113.238 13.6427 113.163 13.2053 113.014 12.8C112.864 12.3733 112.63 12.032 112.31 11.776C111.99 11.52 111.552 11.392 110.998 11.392C110.144 11.392 109.536 11.6693 109.174 12.224C108.811 12.7787 108.63 13.408 108.63 14.112C108.63 14.8587 108.811 15.5093 109.174 16.064C109.536 16.5973 110.144 16.864 110.998 16.864Z" fill="#B567DA"/>
<path d="M33.2839 36.5234C22.9959 36.5234 17.948 44.673 13.3556 41.4587C10.7024 39.6017 9.86663 36.8827 8.72222 34.4797C6.67543 30.1818 5.12744 26.197 1 25V103H140V83.9672C140 83.9672 139.219 80.75 135.624 78.2571C132.642 76.1892 127.403 75.0345 121.981 72.8642C116.628 70.7213 111.367 60.2364 106.28 57.3201C96.2275 51.5572 93.3614 49.1557 81.8591 48.2233C76.6778 47.8032 71.7761 50.4119 67.6685 53.5133C61.9331 57.844 56.7894 62.315 50.4222 57.9545C38.7357 49.9513 43.5719 36.5234 33.2839 36.5234Z" fill="url(#paint0_linear_10316_1023)"/>
<path d="M1 25C11.0031 31.091 8.6235 46.19 20.1175 40.7791C20.1175 40.7791 27.846 34.8718 34.0573 36.3198C43.3743 38.4918 38.0301 51.0068 49.5624 57.6243C61.0947 64.2417 68.245 47.727 81.0544 48.3256C92.7723 48.8731 97.108 50.8581 107.021 57.6243C112.095 61.0878 116.906 70.0969 122.267 72.893C131.054 77.4757 135.141 74.2087 140 84" stroke="#B567DA" stroke-opacity="0.4" stroke-width="0.802312" stroke-linecap="round"/>
<path d="M56.6333 11.3667C56.8358 11.5692 57.1642 11.5692 57.3667 11.3667L60.6669 8.06652C60.8694 7.864 60.8694 7.53566 60.6669 7.33315C60.4643 7.13063 60.136 7.13063 59.9335 7.33315L57 10.2666L54.0665 7.33315C53.864 7.13063 53.5357 7.13063 53.3331 7.33315C53.1306 7.53566 53.1306 7.864 53.3331 8.06652L56.6333 11.3667ZM57.5186 1L57.5186 0.481429L56.4814 0.481429L56.4814 1L57.5186 1ZM57.5186 11L57.5186 1L56.4814 1L56.4814 11L57.5186 11Z" fill="#B567DA"/>
<defs>
<linearGradient id="paint0_linear_10316_1023" x1="70.8284" y1="36.1846" x2="70.8284" y2="93.3427" gradientUnits="userSpaceOnUse">
<stop stop-color="#EFE3F9"/>
<stop offset="1" stop-color="#EFE3F9" stop-opacity="0.15"/>
</linearGradient>
</defs>
</svg>
