<svg width="177" height="149" viewBox="0 0 177 149" fill="none" xmlns="http://www.w3.org/2000/svg">
<path d="M103.64 41.32C102.52 41.32 101.387 41.2133 100.24 41C99.12 40.76 98.0667 40.3867 97.08 39.88C96.12 39.3733 95.2933 38.6933 94.6 37.84C93.9333 36.9867 93.5067 35.9333 93.32 34.68H96.92C97.24 35.5867 97.7733 36.2933 98.52 36.8C99.2667 37.3067 100.093 37.6667 101 37.88C101.933 38.0667 102.827 38.16 103.68 38.16C104.293 38.16 104.96 38.1067 105.68 38C106.4 37.8933 107.093 37.6667 107.76 37.32C108.453 36.9733 109.013 36.4667 109.44 35.8C109.867 35.1067 110.08 34.2 110.08 33.08C110.08 32.0133 109.88 31.16 109.48 30.52C109.08 29.8533 108.547 29.36 107.88 29.04C107.213 28.6933 106.467 28.4667 105.64 28.36C104.84 28.2533 104.027 28.2 103.2 28.2H100.48V25.08H102.12C103.053 25.08 103.933 25 104.76 24.84C105.587 24.6533 106.32 24.3733 106.96 24C107.6 23.6267 108.093 23.1333 108.44 22.52C108.813 21.9067 109 21.1467 109 20.24C109 18.9333 108.72 17.9467 108.16 17.28C107.627 16.6133 106.933 16.16 106.08 15.92C105.227 15.68 104.333 15.56 103.4 15.56C102.653 15.56 101.88 15.68 101.08 15.92C100.307 16.1333 99.6133 16.4933 99 17C98.3867 17.48 97.9733 18.1333 97.76 18.96H94.28C94.44 17.7867 94.8133 16.7867 95.4 15.96C95.9867 15.1333 96.7067 14.4533 97.56 13.92C98.44 13.3867 99.4 13 100.44 12.76C101.507 12.52 102.587 12.4 103.68 12.4C104.88 12.4 106 12.5333 107.04 12.8C108.107 13.04 109.04 13.4533 109.84 14.04C110.64 14.6 111.267 15.3467 111.72 16.28C112.2 17.2133 112.44 18.3467 112.44 19.68C112.44 20.6667 112.28 21.5733 111.96 22.4C111.64 23.2267 111.16 23.9467 110.52 24.56C109.907 25.1733 109.133 25.68 108.2 26.08C109.4 26.2933 110.4 26.72 111.2 27.36C112.027 28 112.64 28.7867 113.04 29.72C113.467 30.6267 113.68 31.6533 113.68 32.8C113.68 34.5867 113.36 36.04 112.72 37.16C112.08 38.28 111.253 39.1467 110.24 39.76C109.227 40.3467 108.133 40.76 106.96 41C105.787 41.2133 104.68 41.32 103.64 41.32ZM129.265 41.32C127.292 41.32 125.599 40.96 124.185 40.24C122.799 39.4933 121.665 38.4667 120.785 37.16C119.905 35.8267 119.252 34.2933 118.825 32.56C118.425 30.8 118.225 28.9067 118.225 26.88C118.225 24.8533 118.425 22.9733 118.825 21.24C119.225 19.48 119.865 17.9467 120.745 16.64C121.625 15.3067 122.759 14.2667 124.145 13.52C125.559 12.7733 127.265 12.4 129.265 12.4C131.372 12.4 133.132 12.8133 134.545 13.64C135.985 14.44 137.119 15.5333 137.945 16.92C138.799 18.3067 139.399 19.8667 139.745 21.6C140.119 23.3067 140.305 25.0667 140.305 26.88C140.305 28.6933 140.119 30.4667 139.745 32.2C139.399 33.9067 138.799 35.4533 137.945 36.84C137.119 38.2 135.985 39.2933 134.545 40.12C133.132 40.92 131.372 41.32 129.265 41.32ZM129.265 38.16C130.839 38.16 132.105 37.8267 133.065 37.16C134.052 36.4667 134.812 35.56 135.345 34.44C135.879 33.32 136.239 32.1067 136.425 30.8C136.612 29.4667 136.705 28.16 136.705 26.88C136.705 25.6267 136.612 24.3467 136.425 23.04C136.239 21.7067 135.879 20.48 135.345 19.36C134.812 18.2133 134.052 17.2933 133.065 16.6C132.105 15.9067 130.839 15.56 129.265 15.56C127.665 15.56 126.372 15.9067 125.385 16.6C124.399 17.2933 123.639 18.2133 123.105 19.36C122.599 20.48 122.252 21.7067 122.065 23.04C121.879 24.3467 121.785 25.6267 121.785 26.88C121.785 28.16 121.879 29.4667 122.065 30.8C122.252 32.1067 122.599 33.32 123.105 34.44C123.639 35.56 124.399 36.4667 125.385 37.16C126.372 37.8267 127.665 38.16 129.265 38.16ZM148.107 41L165.507 12.72H169.027L151.667 41H148.107ZM166.587 41.24C165.307 41.24 164.227 40.96 163.347 40.4C162.494 39.84 161.84 39.0933 161.387 38.16C160.934 37.2 160.707 36.1333 160.707 34.96C160.707 33.7333 160.934 32.6533 161.387 31.72C161.84 30.7867 162.507 30.0533 163.387 29.52C164.267 28.9867 165.334 28.72 166.587 28.72C167.814 28.72 168.854 28.9867 169.707 29.52C170.56 30.0533 171.214 30.7867 171.667 31.72C172.12 32.6533 172.347 33.7333 172.347 34.96C172.347 36.1333 172.12 37.2 171.667 38.16C171.214 39.0933 170.56 39.84 169.707 40.4C168.854 40.96 167.814 41.24 166.587 41.24ZM166.547 38.4C167.24 38.4 167.787 38.24 168.187 37.92C168.614 37.6 168.907 37.1733 169.067 36.64C169.254 36.1067 169.347 35.5467 169.347 34.96C169.347 34.3733 169.254 33.8267 169.067 33.32C168.907 32.7867 168.614 32.36 168.187 32.04C167.787 31.72 167.24 31.56 166.547 31.56C165.48 31.56 164.72 31.9067 164.267 32.6C163.84 33.2933 163.627 34.08 163.627 34.96C163.627 35.8933 163.854 36.7067 164.307 37.4C164.76 38.0667 165.507 38.4 166.547 38.4ZM150.747 24.92C149.467 24.92 148.387 24.64 147.507 24.08C146.654 23.52 146 22.7733 145.547 21.84C145.12 20.88 144.907 19.8133 144.907 18.64C144.907 17.4133 145.12 16.3333 145.547 15.4C146 14.4667 146.667 13.7333 147.547 13.2C148.427 12.6667 149.494 12.4 150.747 12.4C152 12.4 153.054 12.6667 153.907 13.2C154.76 13.7333 155.4 14.4667 155.827 15.4C156.28 16.3333 156.507 17.4133 156.507 18.64C156.507 19.8133 156.28 20.88 155.827 21.84C155.4 22.7733 154.76 23.52 153.907 24.08C153.054 24.64 152 24.92 150.747 24.92ZM150.747 22.08C151.44 22.08 151.987 21.92 152.387 21.6C152.787 21.28 153.08 20.8533 153.267 20.32C153.454 19.7867 153.547 19.2267 153.547 18.64C153.547 18.0533 153.454 17.5067 153.267 17C153.08 16.4667 152.787 16.04 152.387 15.72C151.987 15.4 151.44 15.24 150.747 15.24C149.68 15.24 148.92 15.5867 148.467 16.28C148.014 16.9733 147.787 17.76 147.787 18.64C147.787 19.5733 148.014 20.3867 148.467 21.08C148.92 21.7467 149.68 22.08 150.747 22.08Z" fill="#B567DA"/>
<path d="M41.6452 52.6942C28.6926 52.6942 22.3374 64.5006 16.5556 59.844C13.2152 57.1537 12.163 53.2147 10.7222 49.7334C8.14533 43.5069 6.19642 37.734 1 36V149H176V121.427C176 121.427 175.016 116.766 170.491 113.155C166.736 110.159 160.14 108.486 153.315 105.342C146.575 102.237 139.951 87.0476 133.546 82.8227C120.891 74.474 117.282 70.9948 102.801 69.644C96.2778 69.0355 90.1066 72.8146 84.9352 77.3078C77.7143 83.5817 71.2385 90.0589 63.2222 83.7418C48.509 72.1473 54.5977 52.6942 41.6452 52.6942Z" fill="url(#paint0_linear_10001_29742)"/>
<path d="M1.5 36C14.0578 44.8783 11.0705 66.8871 25.5 59C25.5 59 35.2024 50.3894 43 52.5C54.6965 55.6659 47.9875 73.9082 62.4651 83.554C76.9427 93.1998 85.9191 69.1275 102 70C116.711 70.7981 122.154 73.6914 134.598 83.554C140.968 88.6025 147.008 101.734 153.738 105.81C164.769 112.49 169.9 107.728 176 122" stroke="#B567DA" stroke-opacity="0.4" stroke-width="1.16037" stroke-linecap="round"/>
<path d="M79.4697 13.5303C79.7626 13.8232 80.2374 13.8232 80.5303 13.5303L85.3033 8.75736C85.5962 8.46447 85.5962 7.98959 85.3033 7.6967C85.0104 7.40381 84.5355 7.40381 84.2426 7.6967L80 11.9393L75.7574 7.6967C75.4645 7.40381 74.9896 7.40381 74.6967 7.6967C74.4038 7.98959 74.4038 8.46447 74.6967 8.75736L79.4697 13.5303ZM80.75 1.99933V1.24933H79.25V1.99933H80.75ZM80.75 13V1.99933H79.25V13H80.75Z" fill="#B567DA"/>
<defs>
<linearGradient id="paint0_linear_10001_29742" x1="88.9134" y1="52.2033" x2="88.9134" y2="135.009" gradientUnits="userSpaceOnUse">
<stop stop-color="#EFE3F9"/>
<stop offset="1" stop-color="#EFE3F9" stop-opacity="0.15"/>
</linearGradient>
</defs>
</svg>
