<svg width="272" height="123" viewBox="0 0 272 123" fill="none" xmlns="http://www.w3.org/2000/svg">
<path d="M62.9427 28.0729C42.8846 28.0729 33.0429 39.6112 24.0892 35.0603C18.9164 32.4312 17.2869 28.5816 15.0557 25.1793C11.0652 19.0943 8.04712 13.4525 0 11.7578V122.192H271.003V95.2447C271.003 95.2447 269.48 90.6897 262.472 87.1602C256.658 84.2324 246.443 82.5975 235.873 79.5249C225.436 76.4909 215.178 61.6462 205.26 57.5172C185.662 49.3581 180.074 45.9579 157.648 44.6377C147.546 44.0431 137.99 47.7364 129.981 52.1275C118.799 58.2589 108.771 64.589 96.3567 58.4155C73.5719 47.0843 83.0008 28.0729 62.9427 28.0729Z" fill="url(#paint0_linear_10001_34588)"/>
<path d="M0.671875 11.7578C19.96 20.097 13.8705 41.7301 36.0334 34.3219C36.0334 34.3219 54.4501 26.2085 66.4268 28.1909C84.392 31.1646 74.3778 49.2425 96.6146 58.3025C118.851 67.3626 130.862 43.0687 155.561 43.8882C178.156 44.6379 188.293 49.0389 207.407 58.3025C217.191 63.0445 226.468 75.3789 236.805 79.2071C253.747 85.4814 261.628 81.0085 270.998 94.4138" stroke="#B567DA" stroke-opacity="0.4" stroke-width="1.08952" stroke-linecap="round"/>
<path d="M51.2929 74.7071C51.6834 75.0976 52.3166 75.0976 52.7071 74.7071L59.0711 68.3431C59.4616 67.9526 59.4616 67.3195 59.0711 66.9289C58.6805 66.5384 58.0474 66.5384 57.6569 66.9289L52 72.5858L46.3431 66.9289C45.9526 66.5384 45.3195 66.5384 44.9289 66.9289C44.5384 67.3195 44.5384 67.9526 44.9289 68.3431L51.2929 74.7071ZM53 60L53 59L51 59L51 60L53 60ZM53 74L53 60L51 60L51 74L53 74Z" fill="#B567DA"/>
<path d="M84.4758 110.607C83.0198 110.607 81.5464 110.469 80.0558 110.191C78.5998 109.879 77.2304 109.394 75.9478 108.735C74.6998 108.077 73.6251 107.193 72.7238 106.083C71.8571 104.974 71.3024 103.605 71.0597 101.975H75.7398C76.1558 103.154 76.8491 104.073 77.8198 104.731C78.7904 105.39 79.8651 105.858 81.0438 106.135C82.2571 106.378 83.4184 106.499 84.5278 106.499C85.3251 106.499 86.1918 106.43 87.1278 106.291C88.0638 106.153 88.9651 105.858 89.8318 105.407C90.7331 104.957 91.4611 104.298 92.0158 103.431C92.5704 102.53 92.8478 101.351 92.8478 99.8954C92.8478 98.5087 92.5878 97.3994 92.0678 96.5674C91.5478 95.7007 90.8544 95.0594 89.9878 94.6434C89.1211 94.1927 88.1504 93.8981 87.0758 93.7594C86.0358 93.6207 84.9784 93.5514 83.9038 93.5514H80.3678V89.4954H82.4998C83.7131 89.4954 84.8571 89.3914 85.9318 89.1834C87.0064 88.9407 87.9598 88.5767 88.7918 88.0914C89.6238 87.6061 90.2651 86.9647 90.7158 86.1674C91.2011 85.3701 91.4438 84.3821 91.4438 83.2034C91.4438 81.5047 91.0798 80.2221 90.3518 79.3554C89.6584 78.4887 88.7571 77.8994 87.6478 77.5874C86.5384 77.2754 85.3771 77.1194 84.1638 77.1194C83.1931 77.1194 82.1878 77.2754 81.1478 77.5874C80.1424 77.8647 79.2411 78.3327 78.4438 78.9914C77.6464 79.6154 77.1091 80.4647 76.8318 81.5394H72.3078C72.5158 80.0141 73.0011 78.7141 73.7638 77.6394C74.5264 76.5647 75.4624 75.6807 76.5718 74.9874C77.7158 74.2941 78.9638 73.7914 80.3158 73.4794C81.7024 73.1674 83.1064 73.0114 84.5278 73.0114C86.0878 73.0114 87.5438 73.1847 88.8958 73.5314C90.2824 73.8434 91.4958 74.3807 92.5358 75.1434C93.5758 75.8714 94.3904 76.8421 94.9798 78.0554C95.6038 79.2687 95.9158 80.7421 95.9158 82.4754C95.9158 83.7581 95.7078 84.9367 95.2918 86.0114C94.8758 87.0861 94.2518 88.0221 93.4198 88.8194C92.6224 89.6167 91.6171 90.2754 90.4038 90.7954C91.9638 91.0727 93.2638 91.6274 94.3038 92.4594C95.3784 93.2914 96.1758 94.3141 96.6958 95.5274C97.2504 96.7061 97.5278 98.0407 97.5278 99.5314C97.5278 101.854 97.1118 103.743 96.2798 105.199C95.4478 106.655 94.3731 107.782 93.0558 108.579C91.7384 109.342 90.3171 109.879 88.7918 110.191C87.2664 110.469 85.8278 110.607 84.4758 110.607ZM117.789 110.607C115.223 110.607 113.022 110.139 111.185 109.203C109.382 108.233 107.909 106.898 106.765 105.199C105.621 103.466 104.771 101.473 104.217 99.2194C103.697 96.9314 103.437 94.4701 103.437 91.8354C103.437 89.2007 103.697 86.7567 104.217 84.5034C104.737 82.2154 105.569 80.2221 106.713 78.5234C107.857 76.7901 109.33 75.4381 111.133 74.4674C112.97 73.4967 115.189 73.0114 117.789 73.0114C120.527 73.0114 122.815 73.5487 124.653 74.6234C126.525 75.6634 127.998 77.0847 129.073 78.8874C130.182 80.6901 130.962 82.7181 131.413 84.9714C131.898 87.1901 132.141 89.4781 132.141 91.8354C132.141 94.1927 131.898 96.4981 131.413 98.7514C130.962 100.97 130.182 102.981 129.073 104.783C127.998 106.551 126.525 107.973 124.653 109.047C122.815 110.087 120.527 110.607 117.789 110.607ZM117.789 106.499C119.834 106.499 121.481 106.066 122.729 105.199C124.011 104.298 124.999 103.119 125.693 101.663C126.386 100.207 126.854 98.6301 127.097 96.9314C127.339 95.1981 127.461 93.4994 127.461 91.8354C127.461 90.2061 127.339 88.5421 127.097 86.8434C126.854 85.1101 126.386 83.5154 125.693 82.0594C124.999 80.5687 124.011 79.3727 122.729 78.4714C121.481 77.5701 119.834 77.1194 117.789 77.1194C115.709 77.1194 114.027 77.5701 112.745 78.4714C111.462 79.3727 110.474 80.5687 109.781 82.0594C109.122 83.5154 108.671 85.1101 108.429 86.8434C108.186 88.5421 108.065 90.2061 108.065 91.8354C108.065 93.4994 108.186 95.1981 108.429 96.9314C108.671 98.6301 109.122 100.207 109.781 101.663C110.474 103.119 111.462 104.298 112.745 105.199C114.027 106.066 115.709 106.499 117.789 106.499ZM142.283 110.191L164.903 73.4274H169.479L146.911 110.191H142.283ZM166.307 110.503C164.643 110.503 163.239 110.139 162.095 109.411C160.985 108.683 160.136 107.713 159.547 106.499C158.957 105.251 158.663 103.865 158.663 102.339C158.663 100.745 158.957 99.3407 159.547 98.1274C160.136 96.9141 161.003 95.9607 162.147 95.2674C163.291 94.5741 164.677 94.2274 166.307 94.2274C167.901 94.2274 169.253 94.5741 170.363 95.2674C171.472 95.9607 172.321 96.9141 172.911 98.1274C173.5 99.3407 173.795 100.745 173.795 102.339C173.795 103.865 173.5 105.251 172.911 106.499C172.321 107.713 171.472 108.683 170.363 109.411C169.253 110.139 167.901 110.503 166.307 110.503ZM166.255 106.811C167.156 106.811 167.867 106.603 168.387 106.187C168.941 105.771 169.323 105.217 169.531 104.523C169.773 103.83 169.895 103.102 169.895 102.339C169.895 101.577 169.773 100.866 169.531 100.207C169.323 99.5141 168.941 98.9594 168.387 98.5434C167.867 98.1274 167.156 97.9194 166.255 97.9194C164.868 97.9194 163.88 98.3701 163.291 99.2714C162.736 100.173 162.459 101.195 162.459 102.339C162.459 103.553 162.753 104.61 163.343 105.511C163.932 106.378 164.903 106.811 166.255 106.811ZM145.715 89.2874C144.051 89.2874 142.647 88.9234 141.503 88.1954C140.393 87.4674 139.544 86.4967 138.955 85.2834C138.4 84.0354 138.123 82.6487 138.123 81.1234C138.123 79.5287 138.4 78.1247 138.955 76.9114C139.544 75.6981 140.411 74.7447 141.555 74.0514C142.699 73.3581 144.085 73.0114 145.715 73.0114C147.344 73.0114 148.713 73.3581 149.823 74.0514C150.932 74.7447 151.764 75.6981 152.319 76.9114C152.908 78.1247 153.203 79.5287 153.203 81.1234C153.203 82.6487 152.908 84.0354 152.319 85.2834C151.764 86.4967 150.932 87.4674 149.823 88.1954C148.713 88.9234 147.344 89.2874 145.715 89.2874ZM145.715 85.5954C146.616 85.5954 147.327 85.3874 147.847 84.9714C148.367 84.5554 148.748 84.0007 148.991 83.3074C149.233 82.6141 149.355 81.8861 149.355 81.1234C149.355 80.3607 149.233 79.6501 148.991 78.9914C148.748 78.2981 148.367 77.7434 147.847 77.3274C147.327 76.9114 146.616 76.7034 145.715 76.7034C144.328 76.7034 143.34 77.1541 142.751 78.0554C142.161 78.9567 141.867 79.9794 141.867 81.1234C141.867 82.3367 142.161 83.3941 142.751 84.2954C143.34 85.1621 144.328 85.5954 145.715 85.5954Z" fill="#B567DA"/>
<defs>
<linearGradient id="paint0_linear_10001_34588" x1="136.142" y1="27.5931" x2="136.142" y2="108.519" gradientUnits="userSpaceOnUse">
<stop stop-color="#EFE3F9"/>
<stop offset="1" stop-color="#EFE3F9" stop-opacity="0.15"/>
</linearGradient>
</defs>
</svg>
