<svg width="728" height="151" viewBox="0 0 728 151" fill="none" xmlns="http://www.w3.org/2000/svg">
<mask id="mask0_5313_26340" style="mask-type:alpha" maskUnits="userSpaceOnUse" x="0" y="30" width="728" height="123">
<rect y="30.8281" width="728" height="121.8" fill="#D9D9D9"/>
</mask>
<g mask="url(#mask0_5313_26340)">
<path d="M20.3486 50.6216C13.2208 44.5807 6.23877 38.2431 0 30.6057V123.954H728L727.044 122.778C727.044 122.778 723.646 117.079 714.057 112.469C710.644 110.828 706.888 112.765 703.489 113.487C698.588 114.528 693.4 114.379 688.45 114.098C681.862 113.723 674.83 112.072 668.738 108.67C666.054 107.171 663.606 104.606 660.609 104.395C654.817 103.988 650.258 109.388 644.147 108.33C635.401 106.816 626.902 103.195 618.084 102.156C609.999 101.203 600.252 100.804 592.985 106.227C586.684 110.93 583.728 112.589 577.083 108.195C568.99 102.843 561.054 96.4798 551.731 97.1351C543.537 97.711 536.599 103.078 528.208 103.174C517.061 103.301 509.144 94.4963 498.943 90.0108C493.793 87.746 487.312 87.3862 482.787 82.9543C476.904 77.1928 471.121 79.3886 463.836 80.7153C450.605 83.1247 437.733 92.8662 424.461 93.4033C417.789 93.6733 411.079 93.0506 405.663 87.2968C398.6 79.7934 391.345 75.6024 382.038 76.9835C370.364 78.7158 359.517 84.6429 347.642 83.3614C342.718 82.83 335.782 82.6209 331.791 78.0013C324.125 69.1286 315.909 68.6083 306.184 70.2663C297.586 71.7321 289.761 81.0029 281.086 79.6975C274.441 78.6976 267.938 71.0954 262.593 66.2631C255.428 59.786 250.802 62.2267 243.032 65.2453C232.436 69.362 220.794 85.2395 209.856 81.2223C201.088 78.0022 193.856 69.4025 188.009 60.46C184.085 54.4587 180.68 47.3509 174.088 46.5506C157.711 44.5623 140.224 66.5591 129.406 78.6916C122.739 80.9176 106.682 85.7892 103.366 75.2514C100.938 67.5363 103.243 56.2532 94.0685 56.2532C91.389 56.2532 89.1441 57.9533 86.4983 58.4244C84.0428 58.8617 81.8644 57.4745 79.4363 57.4745C75.795 57.4745 67.9886 55.8673 65.2613 52.5893C62.4444 49.2035 54.9416 49.3704 51.5437 51.6394C46.8769 54.7555 43.9025 56.2532 38.2832 56.2532C31.4438 56.2532 26.4459 55.7891 20.3486 50.6216Z" fill="url(#paint0_linear_5313_26340)" fill-opacity="0.2"/>
<path d="M0 30.6057C6.23967 38.2462 13.2227 44.5863 20.3516 50.6296C26.4497 55.7992 31.4483 56.2635 38.2887 56.2635C43.9088 56.2635 46.8837 54.7652 51.5511 51.6478C54.9495 49.378 62.4534 49.211 65.2707 52.5981C67.9984 55.8774 75.8059 57.4853 79.4477 57.4853C81.8762 57.4853 84.0549 58.873 86.5108 58.4356C89.157 57.9643 91.4021 56.2635 94.082 56.2635C103.258 56.2635 100.952 67.5511 103.381 75.2693C106.698 85.8114 122.756 80.9378 129.424 78.7109C140.244 66.5735 157.733 44.5679 174.113 46.557C180.706 47.3576 184.112 54.4682 188.036 60.472C193.884 69.418 201.117 78.0212 209.886 81.2426C220.826 85.2614 232.469 69.3776 243.067 65.2592C250.838 62.2394 255.465 59.7977 262.63 66.2774C267.977 71.1117 274.481 78.7169 281.127 79.7172C289.803 81.0231 297.629 71.7486 306.229 70.2822C315.955 68.6236 324.171 69.1441 331.838 78.0203C335.83 82.6418 342.767 82.851 347.692 83.3826C359.569 84.6646 370.417 78.7351 382.093 77.0021C391.402 75.6205 398.657 79.8131 405.721 87.3195C411.138 93.0756 417.85 93.6986 424.522 93.4285C437.796 92.8912 450.67 83.1458 463.903 80.7354C471.189 79.4082 476.972 77.2115 482.856 82.9753C487.382 87.4089 493.864 87.7689 499.015 90.0346C509.217 94.5219 517.135 103.33 528.284 103.203C536.676 103.107 543.615 97.7379 551.81 97.1618C561.135 96.5062 569.071 102.872 577.166 108.226C583.812 112.622 586.768 110.962 593.071 106.257C600.338 100.832 610.087 101.232 618.173 102.185C626.992 103.224 635.492 106.847 644.24 108.362C650.351 109.42 654.912 104.017 660.704 104.425C663.701 104.635 666.15 107.202 668.834 108.701C674.927 112.105 681.96 113.757 688.549 114.131C693.499 114.413 698.688 114.562 703.59 113.52C706.99 112.798 710.746 110.861 714.159 112.502C723.75 117.114 728 123.954 728 123.954" stroke="#B567DA" stroke-opacity="0.4" stroke-width="1.16128" stroke-linecap="square"/>
<path d="M564.056 80.4162C561.56 80.4162 559.411 79.9482 557.608 79.0122C555.84 78.0416 554.384 76.7416 553.24 75.1122C552.131 73.4482 551.316 71.5762 550.796 69.4962C550.276 67.3816 550.016 65.1629 550.016 62.8402C550.016 60.1016 550.276 57.5362 550.796 55.1442C551.351 52.7176 552.2 50.5856 553.344 48.7482C554.523 46.9109 556.048 45.4722 557.92 44.4322C559.792 43.3576 562.045 42.8202 564.68 42.8202C566.448 42.8202 568.095 43.1322 569.62 43.7562C571.18 44.3456 572.532 45.2469 573.676 46.4602C574.82 47.6389 575.669 49.0949 576.224 50.8282H571.492C570.868 49.5456 569.915 48.5749 568.632 47.9162C567.349 47.2576 566.015 46.9282 564.628 46.9282C563.033 46.9282 561.664 47.2402 560.52 47.8642C559.376 48.4536 558.405 49.2509 557.608 50.2562C556.845 51.2616 556.221 52.4056 555.736 53.6882C555.285 54.9709 554.956 56.3056 554.748 57.6922C554.54 59.0789 554.436 60.4309 554.436 61.7482C555.233 60.5349 556.152 59.5469 557.192 58.7842C558.267 58.0216 559.428 57.4669 560.676 57.1202C561.959 56.7389 563.259 56.5482 564.576 56.5482C567.003 56.5482 569.1 57.0509 570.868 58.0562C572.671 59.0269 574.075 60.3962 575.08 62.1642C576.085 63.8976 576.588 65.9082 576.588 68.1962C576.588 70.6229 576.051 72.7549 574.976 74.5922C573.901 76.4296 572.411 77.8682 570.504 78.9082C568.632 79.9136 566.483 80.4162 564.056 80.4162ZM563.952 76.3082C565.512 76.3082 566.881 75.9789 568.06 75.3202C569.273 74.6269 570.227 73.7082 570.92 72.5642C571.613 71.3856 571.96 70.0856 571.96 68.6642C571.96 67.1389 571.631 65.7869 570.972 64.6082C570.313 63.4296 569.395 62.4936 568.216 61.8002C567.072 61.1069 565.72 60.7602 564.16 60.7602C562.739 60.7602 561.387 61.0896 560.104 61.7482C558.821 62.3722 557.781 63.2736 556.984 64.4522C556.221 65.5962 555.84 66.9656 555.84 68.5602C555.84 70.0162 556.187 71.3336 556.88 72.5122C557.608 73.6562 558.579 74.5749 559.792 75.2682C561.04 75.9616 562.427 76.3082 563.952 76.3082ZM596.714 80.4162C594.149 80.4162 591.948 79.9482 590.11 79.0122C588.308 78.0416 586.834 76.7069 585.69 75.0082C584.546 73.2749 583.697 71.2816 583.142 69.0282C582.622 66.7402 582.362 64.2789 582.362 61.6442C582.362 59.0096 582.622 56.5656 583.142 54.3122C583.662 52.0242 584.494 50.0309 585.638 48.3322C586.782 46.5989 588.256 45.2469 590.058 44.2762C591.896 43.3056 594.114 42.8202 596.714 42.8202C599.453 42.8202 601.741 43.3576 603.578 44.4322C605.45 45.4722 606.924 46.8936 607.998 48.6962C609.108 50.4989 609.888 52.5269 610.338 54.7802C610.824 56.9989 611.066 59.2869 611.066 61.6442C611.066 64.0016 610.824 66.3069 610.338 68.5602C609.888 70.7789 609.108 72.7896 607.998 74.5922C606.924 76.3602 605.45 77.7816 603.578 78.8562C601.741 79.8962 599.453 80.4162 596.714 80.4162ZM596.714 76.3082C598.76 76.3082 600.406 75.8749 601.654 75.0082C602.937 74.1069 603.925 72.9282 604.618 71.4722C605.312 70.0162 605.78 68.4389 606.022 66.7402C606.265 65.0069 606.386 63.3082 606.386 61.6442C606.386 60.0149 606.265 58.3509 606.022 56.6522C605.78 54.9189 605.312 53.3242 604.618 51.8682C603.925 50.3776 602.937 49.1816 601.654 48.2802C600.406 47.3789 598.76 46.9282 596.714 46.9282C594.634 46.9282 592.953 47.3789 591.67 48.2802C590.388 49.1816 589.4 50.3776 588.706 51.8682C588.048 53.3242 587.597 54.9189 587.354 56.6522C587.112 58.3509 586.99 60.0149 586.99 61.6442C586.99 63.3082 587.112 65.0069 587.354 66.7402C587.597 68.4389 588.048 70.0162 588.706 71.4722C589.4 72.9282 590.388 74.1069 591.67 75.0082C592.953 75.8749 594.634 76.3082 596.714 76.3082ZM621.208 80.0002L643.828 43.2362H648.404L625.836 80.0002H621.208ZM645.232 80.3122C643.568 80.3122 642.164 79.9482 641.02 79.2202C639.911 78.4922 639.062 77.5216 638.472 76.3082C637.883 75.0602 637.588 73.6736 637.588 72.1482C637.588 70.5536 637.883 69.1496 638.472 67.9362C639.062 66.7229 639.928 65.7696 641.072 65.0762C642.216 64.3829 643.603 64.0362 645.232 64.0362C646.827 64.0362 648.179 64.3829 649.288 65.0762C650.398 65.7696 651.247 66.7229 651.836 67.9362C652.426 69.1496 652.72 70.5536 652.72 72.1482C652.72 73.6736 652.426 75.0602 651.836 76.3082C651.247 77.5216 650.398 78.4922 649.288 79.2202C648.179 79.9482 646.827 80.3122 645.232 80.3122ZM645.18 76.6202C646.082 76.6202 646.792 76.4122 647.312 75.9962C647.867 75.5802 648.248 75.0256 648.456 74.3322C648.699 73.6389 648.82 72.9109 648.82 72.1482C648.82 71.3856 648.699 70.6749 648.456 70.0162C648.248 69.3229 647.867 68.7682 647.312 68.3522C646.792 67.9362 646.082 67.7282 645.18 67.7282C643.794 67.7282 642.806 68.1789 642.216 69.0802C641.662 69.9816 641.384 71.0042 641.384 72.1482C641.384 73.3616 641.679 74.4189 642.268 75.3202C642.858 76.1869 643.828 76.6202 645.18 76.6202ZM624.64 59.0962C622.976 59.0962 621.572 58.7322 620.428 58.0042C619.319 57.2762 618.47 56.3056 617.88 55.0922C617.326 53.8442 617.048 52.4576 617.048 50.9322C617.048 49.3376 617.326 47.9336 617.88 46.7202C618.47 45.5069 619.336 44.5536 620.48 43.8602C621.624 43.1669 623.011 42.8202 624.64 42.8202C626.27 42.8202 627.639 43.1669 628.748 43.8602C629.858 44.5536 630.69 45.5069 631.244 46.7202C631.834 47.9336 632.128 49.3376 632.128 50.9322C632.128 52.4576 631.834 53.8442 631.244 55.0922C630.69 56.3056 629.858 57.2762 628.748 58.0042C627.639 58.7322 626.27 59.0962 624.64 59.0962ZM624.64 55.4042C625.542 55.4042 626.252 55.1962 626.772 54.7802C627.292 54.3642 627.674 53.8096 627.916 53.1162C628.159 52.4229 628.28 51.6949 628.28 50.9322C628.28 50.1696 628.159 49.4589 627.916 48.8002C627.674 48.1069 627.292 47.5522 626.772 47.1362C626.252 46.7202 625.542 46.5122 624.64 46.5122C623.254 46.5122 622.266 46.9629 621.676 47.8642C621.087 48.7656 620.792 49.7882 620.792 50.9322C620.792 52.1456 621.087 53.2029 621.676 54.1042C622.266 54.9709 623.254 55.4042 624.64 55.4042Z" fill="#B567DA"/>
<g filter="url(#filter0_bd_5313_26340)">
<circle cx="680.447" cy="111.947" r="8.80645" fill="#B567DA"/>
</g>
<line x1="680.359" y1="34.1292" x2="680.359" y2="103.743" stroke="url(#paint1_linear_5313_26340)" stroke-dasharray="2 2"/>
</g>
<path d="M536.977 48.2687C537.288 48.5789 537.791 48.5789 538.101 48.2687L543.156 43.2134C543.466 42.9032 543.466 42.4003 543.156 42.0901C542.846 41.7798 542.343 41.7798 542.033 42.0901L537.539 46.5836L533.045 42.0901C532.735 41.7798 532.232 41.7798 531.922 42.0901C531.612 42.4003 531.612 42.9032 531.922 43.2134L536.977 48.2687ZM538.333 36.3544V35.56H536.745V36.3544H538.333ZM538.333 47.707V36.3544H536.745V47.707H538.333Z" fill="#B567DA"/>
<path d="M369.476 11.096C368.604 11.096 367.876 10.912 367.292 10.544C366.716 10.168 366.284 9.656 365.996 9.008C365.716 8.352 365.576 7.604 365.576 6.764C365.576 5.932 365.72 5.192 366.008 4.544C366.296 3.888 366.728 3.372 367.304 2.996C367.888 2.612 368.62 2.42 369.5 2.42C370.124 2.42 370.66 2.52 371.108 2.72C371.564 2.912 371.932 3.18 372.212 3.524C372.492 3.868 372.684 4.272 372.788 4.736H371.732C371.612 4.32 371.352 3.988 370.952 3.74C370.56 3.492 370.064 3.368 369.464 3.368C368.792 3.368 368.248 3.528 367.832 3.848C367.424 4.16 367.124 4.572 366.932 5.084C366.74 5.588 366.644 6.136 366.644 6.728C366.644 7.352 366.744 7.924 366.944 8.444C367.144 8.964 367.456 9.38 367.88 9.692C368.304 9.996 368.844 10.148 369.5 10.148C369.9 10.148 370.256 10.092 370.568 9.98C370.888 9.868 371.152 9.708 371.36 9.5C371.576 9.292 371.724 9.052 371.804 8.78H372.944C372.824 9.244 372.608 9.652 372.296 10.004C371.992 10.348 371.604 10.616 371.132 10.808C370.66 11 370.108 11.096 369.476 11.096ZM374.324 11V4.676H375.344V7.448H378.512V4.676H379.532V11H378.512V8.348H375.344V11H374.324ZM381.144 11V4.676H382.164V9.524C382.22 9.412 382.296 9.292 382.392 9.164C382.488 9.028 382.564 8.924 382.62 8.852L385.68 4.676H386.688V11H385.668V6.152C385.604 6.272 385.532 6.384 385.452 6.488C385.38 6.592 385.312 6.688 385.248 6.776L382.14 11H381.144ZM387.656 11L389.708 7.688L387.836 4.676H388.928L390.596 7.412H391.544V4.676H392.564V7.412H393.512L395.18 4.676H396.272L394.4 7.688L396.452 11H395.264L393.62 8.276H392.564V11H391.544V8.276H390.488L388.844 11H387.656ZM400.04 11.072C399.368 11.072 398.812 10.936 398.372 10.664C397.932 10.384 397.604 10 397.388 9.512C397.172 9.024 397.064 8.468 397.064 7.844C397.064 7.212 397.176 6.656 397.4 6.176C397.632 5.688 397.968 5.304 398.408 5.024C398.848 4.744 399.388 4.604 400.028 4.604C400.5 4.604 400.912 4.696 401.264 4.88C401.624 5.056 401.92 5.296 402.152 5.6C402.392 5.904 402.564 6.244 402.668 6.62C402.78 6.996 402.828 7.384 402.812 7.784C402.804 7.856 402.8 7.928 402.8 8C402.8 8.072 402.796 8.144 402.788 8.216H398.096C398.128 8.584 398.22 8.916 398.372 9.212C398.524 9.508 398.74 9.744 399.02 9.92C399.3 10.088 399.648 10.172 400.064 10.172C400.272 10.172 400.48 10.148 400.688 10.1C400.904 10.044 401.096 9.952 401.264 9.824C401.44 9.696 401.564 9.524 401.636 9.308H402.68C402.584 9.716 402.404 10.052 402.14 10.316C401.876 10.572 401.56 10.764 401.192 10.892C400.824 11.012 400.44 11.072 400.04 11.072ZM398.12 7.328H401.78C401.772 6.968 401.692 6.652 401.54 6.38C401.388 6.108 401.18 5.896 400.916 5.744C400.66 5.592 400.352 5.516 399.992 5.516C399.6 5.516 399.268 5.6 398.996 5.768C398.732 5.936 398.528 6.156 398.384 6.428C398.24 6.7 398.152 7 398.12 7.328ZM404.183 11V4.676H405.203V7.448H408.371V4.676H409.391V11H408.371V8.348H405.203V11H404.183ZM411.003 11V4.676H412.023V9.524C412.079 9.412 412.155 9.292 412.251 9.164C412.347 9.028 412.423 8.924 412.479 8.852L415.539 4.676H416.547V11H415.527V6.152C415.463 6.272 415.391 6.384 415.311 6.488C415.239 6.592 415.171 6.688 415.107 6.776L411.999 11H411.003ZM420.888 11.072C420.216 11.072 419.66 10.936 419.22 10.664C418.78 10.384 418.452 10 418.236 9.512C418.02 9.024 417.912 8.468 417.912 7.844C417.912 7.212 418.024 6.656 418.248 6.176C418.48 5.688 418.816 5.304 419.256 5.024C419.696 4.744 420.236 4.604 420.876 4.604C421.348 4.604 421.76 4.696 422.112 4.88C422.472 5.056 422.768 5.296 423 5.6C423.24 5.904 423.412 6.244 423.516 6.62C423.628 6.996 423.676 7.384 423.66 7.784C423.652 7.856 423.648 7.928 423.648 8C423.648 8.072 423.644 8.144 423.636 8.216H418.944C418.976 8.584 419.068 8.916 419.22 9.212C419.372 9.508 419.588 9.744 419.868 9.92C420.148 10.088 420.496 10.172 420.912 10.172C421.12 10.172 421.328 10.148 421.536 10.1C421.752 10.044 421.944 9.952 422.112 9.824C422.288 9.696 422.412 9.524 422.484 9.308H423.528C423.432 9.716 423.252 10.052 422.988 10.316C422.724 10.572 422.408 10.764 422.04 10.892C421.672 11.012 421.288 11.072 420.888 11.072ZM418.968 7.328H422.628C422.62 6.968 422.54 6.652 422.388 6.38C422.236 6.108 422.028 5.896 421.764 5.744C421.508 5.592 421.2 5.516 420.84 5.516C420.448 5.516 420.116 5.6 419.844 5.768C419.58 5.936 419.376 6.156 419.232 6.428C419.088 6.7 419 7 418.968 7.328ZM428.265 11V4.676H429.285V7.448H432.453V4.676H433.473V11H432.453V8.348H429.285V11H428.265ZM437.593 11.072C437.121 11.072 436.709 10.992 436.357 10.832C436.013 10.664 435.729 10.436 435.505 10.148C435.281 9.86 435.113 9.52 435.001 9.128C434.897 8.736 434.845 8.312 434.845 7.856C434.845 7.248 434.941 6.7 435.133 6.212C435.333 5.716 435.649 5.324 436.081 5.036C436.513 4.748 437.077 4.604 437.773 4.604C438.141 4.604 438.493 4.672 438.829 4.808C439.173 4.944 439.465 5.156 439.705 5.444V4.676H440.725V11H439.705V10.148C439.481 10.444 439.185 10.672 438.817 10.832C438.449 10.992 438.041 11.072 437.593 11.072ZM437.761 10.172C438.177 10.172 438.529 10.064 438.817 9.848C439.105 9.632 439.325 9.344 439.477 8.984C439.637 8.624 439.717 8.232 439.717 7.808C439.717 7.368 439.641 6.976 439.489 6.632C439.345 6.288 439.129 6.016 438.841 5.816C438.553 5.616 438.189 5.516 437.749 5.516C437.293 5.516 436.925 5.62 436.645 5.828C436.373 6.036 436.173 6.316 436.045 6.668C435.925 7.02 435.865 7.412 435.865 7.844C435.865 8.292 435.929 8.692 436.057 9.044C436.185 9.396 436.389 9.672 436.669 9.872C436.949 10.072 437.313 10.172 437.761 10.172ZM442.327 11V4.676H446.695V5.576H443.347V11H442.327ZM447.777 13.28V4.676H448.749L448.797 5.648C449.013 5.304 449.305 5.044 449.673 4.868C450.049 4.692 450.453 4.604 450.885 4.604C451.525 4.604 452.049 4.748 452.457 5.036C452.865 5.316 453.165 5.7 453.357 6.188C453.557 6.676 453.657 7.228 453.657 7.844C453.657 8.46 453.557 9.012 453.357 9.5C453.157 9.988 452.849 10.372 452.433 10.652C452.017 10.932 451.485 11.072 450.837 11.072C450.517 11.072 450.229 11.04 449.973 10.976C449.717 10.904 449.493 10.804 449.301 10.676C449.109 10.548 448.941 10.404 448.797 10.244V13.28H447.777ZM450.753 10.172C451.217 10.172 451.585 10.068 451.857 9.86C452.129 9.644 452.325 9.36 452.445 9.008C452.573 8.656 452.637 8.268 452.637 7.844C452.637 7.412 452.573 7.02 452.445 6.668C452.325 6.316 452.125 6.036 451.845 5.828C451.565 5.62 451.193 5.516 450.729 5.516C450.313 5.516 449.957 5.624 449.661 5.84C449.373 6.048 449.153 6.332 449.001 6.692C448.849 7.044 448.773 7.432 448.773 7.856C448.773 8.296 448.845 8.692 448.989 9.044C449.133 9.396 449.353 9.672 449.649 9.872C449.945 10.072 450.313 10.172 450.753 10.172ZM455.176 13.712V12.74C455.568 12.74 455.88 12.684 456.112 12.572C456.344 12.468 456.536 12.3 456.688 12.068C456.848 11.844 457 11.556 457.144 11.204L454.372 4.676H455.572L457.708 10.004L459.46 4.676H460.612L458.836 9.656C458.748 9.912 458.648 10.2 458.536 10.52C458.424 10.84 458.3 11.164 458.164 11.492C458.028 11.828 457.876 12.136 457.708 12.416C457.548 12.704 457.368 12.936 457.168 13.112C457 13.264 456.836 13.384 456.676 13.472C456.516 13.56 456.32 13.62 456.088 13.652C455.864 13.692 455.56 13.712 455.176 13.712ZM463.85 11.072C463.546 11.072 463.242 11.044 462.938 10.988C462.634 10.932 462.35 10.84 462.086 10.712C461.83 10.576 461.622 10.396 461.462 10.172C461.302 9.94 461.214 9.652 461.198 9.308H462.194C462.234 9.524 462.35 9.696 462.542 9.824C462.734 9.952 462.95 10.044 463.19 10.1C463.438 10.148 463.658 10.172 463.85 10.172C464.074 10.172 464.302 10.148 464.534 10.1C464.774 10.052 464.974 9.956 465.134 9.812C465.302 9.668 465.386 9.456 465.386 9.176C465.386 8.904 465.318 8.704 465.182 8.576C465.054 8.448 464.882 8.364 464.666 8.324C464.458 8.284 464.23 8.264 463.982 8.264H462.854V7.364H463.778C463.93 7.364 464.086 7.352 464.246 7.328C464.406 7.296 464.554 7.248 464.69 7.184C464.826 7.112 464.934 7.012 465.014 6.884C465.102 6.756 465.146 6.592 465.146 6.392C465.146 6.168 465.082 5.992 464.954 5.864C464.826 5.736 464.662 5.648 464.462 5.6C464.262 5.544 464.058 5.516 463.85 5.516C463.658 5.516 463.454 5.536 463.238 5.576C463.03 5.616 462.85 5.696 462.698 5.816C462.546 5.928 462.454 6.096 462.422 6.32H461.414C461.43 5.888 461.562 5.548 461.81 5.3C462.058 5.052 462.366 4.876 462.734 4.772C463.102 4.66 463.47 4.604 463.838 4.604C464.118 4.604 464.394 4.632 464.666 4.688C464.938 4.744 465.186 4.84 465.41 4.976C465.634 5.104 465.81 5.276 465.938 5.492C466.074 5.708 466.142 5.976 466.142 6.296C466.142 6.584 466.074 6.84 465.938 7.064C465.802 7.288 465.594 7.468 465.314 7.604C465.722 7.732 466.006 7.932 466.166 8.204C466.326 8.476 466.406 8.8 466.406 9.176C466.406 9.512 466.334 9.8 466.19 10.04C466.046 10.272 465.85 10.468 465.602 10.628C465.362 10.78 465.09 10.892 464.786 10.964C464.482 11.036 464.17 11.072 463.85 11.072ZM467.722 11V4.676H468.742V7.4H469.846L471.718 4.676H472.882L470.77 7.688L473.062 11H471.862L469.966 8.288H468.742V11H467.722ZM473.945 11V4.676H474.965V9.524C475.021 9.412 475.097 9.292 475.193 9.164C475.289 9.028 475.365 8.924 475.421 8.852L478.481 4.676H479.489V11H478.469V6.152C478.405 6.272 478.333 6.384 478.253 6.488C478.181 6.592 478.113 6.688 478.049 6.776L474.941 11H473.945ZM365.804 26V19.676H366.824V22.448H369.992V19.676H371.012V26H369.992V23.348H366.824V26H365.804ZM375.132 26.072C374.66 26.072 374.248 25.992 373.896 25.832C373.552 25.664 373.268 25.436 373.044 25.148C372.82 24.86 372.652 24.52 372.54 24.128C372.436 23.736 372.384 23.312 372.384 22.856C372.384 22.248 372.48 21.7 372.672 21.212C372.872 20.716 373.188 20.324 373.62 20.036C374.052 19.748 374.616 19.604 375.312 19.604C375.68 19.604 376.032 19.672 376.368 19.808C376.712 19.944 377.004 20.156 377.244 20.444V19.676H378.264V26H377.244V25.148C377.02 25.444 376.724 25.672 376.356 25.832C375.988 25.992 375.58 26.072 375.132 26.072ZM375.3 25.172C375.716 25.172 376.068 25.064 376.356 24.848C376.644 24.632 376.864 24.344 377.016 23.984C377.176 23.624 377.256 23.232 377.256 22.808C377.256 22.368 377.18 21.976 377.028 21.632C376.884 21.288 376.668 21.016 376.38 20.816C376.092 20.616 375.728 20.516 375.288 20.516C374.832 20.516 374.464 20.62 374.184 20.828C373.912 21.036 373.712 21.316 373.584 21.668C373.464 22.02 373.404 22.412 373.404 22.844C373.404 23.292 373.468 23.692 373.596 24.044C373.724 24.396 373.928 24.672 374.208 24.872C374.488 25.072 374.852 25.172 375.3 25.172ZM382.561 27.944V25.112C382.793 25.112 382.977 25.048 383.113 24.92C383.257 24.792 383.369 24.624 383.449 24.416C383.529 24.208 383.589 23.984 383.629 23.744C383.669 23.496 383.701 23.26 383.725 23.036C383.765 22.668 383.789 22.304 383.797 21.944C383.813 21.576 383.821 21.284 383.821 21.068C383.829 20.836 383.833 20.604 383.833 20.372C383.833 20.14 383.833 19.908 383.833 19.676H388.321V25.112H389.149V27.944H388.165V26H383.545V27.944H382.561ZM384.181 25.112H387.301V20.576H384.805C384.797 20.912 384.789 21.288 384.781 21.704C384.773 22.12 384.757 22.508 384.733 22.868C384.725 23.076 384.705 23.312 384.673 23.576C384.649 23.84 384.601 24.108 384.529 24.38C384.457 24.644 384.341 24.888 384.181 25.112ZM390.214 26V19.676H391.234V24.524C391.29 24.412 391.366 24.292 391.462 24.164C391.558 24.028 391.634 23.924 391.69 23.852L394.75 19.676H395.758V26H394.738V21.152C394.674 21.272 394.602 21.384 394.522 21.488C394.45 21.592 394.382 21.688 394.318 21.776L391.21 26H390.214ZM400.063 26.072C399.399 26.072 398.847 25.936 398.407 25.664C397.975 25.384 397.651 25 397.435 24.512C397.227 24.024 397.123 23.472 397.123 22.856C397.123 22.256 397.231 21.712 397.447 21.224C397.671 20.728 398.007 20.336 398.455 20.048C398.911 19.752 399.487 19.604 400.183 19.604C400.615 19.604 400.999 19.676 401.335 19.82C401.679 19.964 401.963 20.176 402.187 20.456C402.411 20.728 402.567 21.072 402.655 21.488H401.611C401.491 21.136 401.299 20.888 401.035 20.744C400.779 20.592 400.475 20.516 400.123 20.516C399.643 20.516 399.259 20.628 398.971 20.852C398.683 21.076 398.471 21.368 398.335 21.728C398.207 22.08 398.143 22.456 398.143 22.856C398.143 23.272 398.211 23.656 398.347 24.008C398.483 24.36 398.695 24.644 398.983 24.86C399.271 25.068 399.643 25.172 400.099 25.172C400.435 25.172 400.751 25.1 401.047 24.956C401.351 24.812 401.551 24.556 401.647 24.188H402.703C402.623 24.62 402.451 24.976 402.187 25.256C401.931 25.536 401.615 25.744 401.239 25.88C400.871 26.008 400.479 26.072 400.063 26.072ZM403.995 26V19.676H409.239V26H408.219V20.576H405.015V26H403.995ZM413.587 26.072C412.915 26.072 412.359 25.936 411.919 25.664C411.479 25.384 411.151 25 410.935 24.512C410.719 24.024 410.611 23.468 410.611 22.844C410.611 22.212 410.723 21.656 410.947 21.176C411.179 20.688 411.515 20.304 411.955 20.024C412.395 19.744 412.935 19.604 413.575 19.604C414.047 19.604 414.459 19.696 414.811 19.88C415.171 20.056 415.467 20.296 415.699 20.6C415.939 20.904 416.111 21.244 416.215 21.62C416.327 21.996 416.375 22.384 416.359 22.784C416.351 22.856 416.347 22.928 416.347 23C416.347 23.072 416.343 23.144 416.335 23.216H411.643C411.675 23.584 411.767 23.916 411.919 24.212C412.071 24.508 412.287 24.744 412.567 24.92C412.847 25.088 413.195 25.172 413.611 25.172C413.819 25.172 414.027 25.148 414.235 25.1C414.451 25.044 414.643 24.952 414.811 24.824C414.987 24.696 415.111 24.524 415.183 24.308H416.227C416.131 24.716 415.951 25.052 415.687 25.316C415.423 25.572 415.107 25.764 414.739 25.892C414.371 26.012 413.987 26.072 413.587 26.072ZM411.667 22.328H415.327C415.319 21.968 415.239 21.652 415.087 21.38C414.935 21.108 414.727 20.896 414.463 20.744C414.207 20.592 413.899 20.516 413.539 20.516C413.147 20.516 412.815 20.6 412.543 20.768C412.279 20.936 412.075 21.156 411.931 21.428C411.787 21.7 411.699 22 411.667 22.328ZM419.206 26V20.576H417.034V19.676H422.398V20.576H420.226V26H419.206ZM427.028 26V23.564C426.724 23.62 426.428 23.66 426.14 23.684C425.86 23.7 425.608 23.708 425.384 23.708C424.792 23.708 424.324 23.616 423.98 23.432C423.636 23.248 423.392 22.968 423.248 22.592C423.104 22.208 423.032 21.732 423.032 21.164V19.676H424.052V21.092C424.052 21.46 424.088 21.772 424.16 22.028C424.232 22.284 424.372 22.48 424.58 22.616C424.788 22.744 425.1 22.808 425.516 22.808C425.756 22.808 426.008 22.796 426.272 22.772C426.544 22.748 426.796 22.712 427.028 22.664V19.676H428.048V26H427.028ZM432.395 26.072C431.723 26.072 431.167 25.936 430.727 25.664C430.287 25.384 429.959 25 429.743 24.512C429.527 24.024 429.419 23.468 429.419 22.844C429.419 22.212 429.531 21.656 429.755 21.176C429.987 20.688 430.323 20.304 430.763 20.024C431.203 19.744 431.743 19.604 432.383 19.604C432.855 19.604 433.267 19.696 433.619 19.88C433.979 20.056 434.275 20.296 434.507 20.6C434.747 20.904 434.919 21.244 435.023 21.62C435.135 21.996 435.183 22.384 435.167 22.784C435.159 22.856 435.155 22.928 435.155 23C435.155 23.072 435.151 23.144 435.143 23.216H430.451C430.483 23.584 430.575 23.916 430.727 24.212C430.879 24.508 431.095 24.744 431.375 24.92C431.655 25.088 432.003 25.172 432.419 25.172C432.627 25.172 432.835 25.148 433.043 25.1C433.259 25.044 433.451 24.952 433.619 24.824C433.795 24.696 433.919 24.524 433.991 24.308H435.035C434.939 24.716 434.759 25.052 434.495 25.316C434.231 25.572 433.915 25.764 433.547 25.892C433.179 26.012 432.795 26.072 432.395 26.072ZM430.475 22.328H434.135C434.127 21.968 434.047 21.652 433.895 21.38C433.743 21.108 433.535 20.896 433.271 20.744C433.015 20.592 432.707 20.516 432.347 20.516C431.955 20.516 431.623 20.6 431.351 20.768C431.087 20.936 430.883 21.156 430.739 21.428C430.595 21.7 430.507 22 430.475 22.328ZM436.538 28.28V19.676H437.51L437.558 20.648C437.774 20.304 438.066 20.044 438.434 19.868C438.81 19.692 439.214 19.604 439.646 19.604C440.286 19.604 440.81 19.748 441.218 20.036C441.626 20.316 441.926 20.7 442.118 21.188C442.318 21.676 442.418 22.228 442.418 22.844C442.418 23.46 442.318 24.012 442.118 24.5C441.918 24.988 441.61 25.372 441.194 25.652C440.778 25.932 440.246 26.072 439.598 26.072C439.278 26.072 438.99 26.04 438.734 25.976C438.478 25.904 438.254 25.804 438.062 25.676C437.87 25.548 437.702 25.404 437.558 25.244V28.28H436.538ZM439.514 25.172C439.978 25.172 440.346 25.068 440.618 24.86C440.89 24.644 441.086 24.36 441.206 24.008C441.334 23.656 441.398 23.268 441.398 22.844C441.398 22.412 441.334 22.02 441.206 21.668C441.086 21.316 440.886 21.036 440.606 20.828C440.326 20.62 439.954 20.516 439.49 20.516C439.074 20.516 438.718 20.624 438.422 20.84C438.134 21.048 437.914 21.332 437.762 21.692C437.61 22.044 437.534 22.432 437.534 22.856C437.534 23.296 437.606 23.692 437.75 24.044C437.894 24.396 438.114 24.672 438.41 24.872C438.706 25.072 439.074 25.172 439.514 25.172ZM446.551 26.072C445.887 26.072 445.335 25.936 444.895 25.664C444.463 25.384 444.139 25 443.923 24.512C443.715 24.024 443.611 23.472 443.611 22.856C443.611 22.256 443.719 21.712 443.935 21.224C444.159 20.728 444.495 20.336 444.943 20.048C445.399 19.752 445.975 19.604 446.671 19.604C447.103 19.604 447.487 19.676 447.823 19.82C448.167 19.964 448.451 20.176 448.675 20.456C448.899 20.728 449.055 21.072 449.143 21.488H448.099C447.979 21.136 447.787 20.888 447.523 20.744C447.267 20.592 446.963 20.516 446.611 20.516C446.131 20.516 445.747 20.628 445.459 20.852C445.171 21.076 444.959 21.368 444.823 21.728C444.695 22.08 444.631 22.456 444.631 22.856C444.631 23.272 444.699 23.656 444.835 24.008C444.971 24.36 445.183 24.644 445.471 24.86C445.759 25.068 446.131 25.172 446.587 25.172C446.923 25.172 447.239 25.1 447.535 24.956C447.839 24.812 448.039 24.556 448.135 24.188H449.191C449.111 24.62 448.939 24.976 448.675 25.256C448.419 25.536 448.103 25.744 447.727 25.88C447.359 26.008 446.967 26.072 446.551 26.072ZM450.484 26V19.676H451.504V22.4H452.608L454.48 19.676H455.644L453.532 22.688L455.824 26H454.624L452.728 23.288H451.504V26H450.484ZM456.91 28.712V27.74C457.302 27.74 457.614 27.684 457.846 27.572C458.078 27.468 458.27 27.3 458.422 27.068C458.582 26.844 458.734 26.556 458.878 26.204L456.106 19.676H457.306L459.442 25.004L461.194 19.676H462.346L460.57 24.656C460.482 24.912 460.382 25.2 460.27 25.52C460.158 25.84 460.034 26.164 459.898 26.492C459.762 26.828 459.61 27.136 459.442 27.416C459.282 27.704 459.102 27.936 458.902 28.112C458.734 28.264 458.57 28.384 458.41 28.472C458.25 28.56 458.054 28.62 457.822 28.652C457.598 28.692 457.294 28.712 456.91 28.712ZM468.416 26.072C467.488 26.072 466.788 25.816 466.316 25.304C465.844 24.784 465.576 24.112 465.512 23.288H464.312V26H463.292V19.676H464.312V22.4H465.512C465.56 21.848 465.692 21.364 465.908 20.948C466.132 20.524 466.452 20.196 466.868 19.964C467.284 19.724 467.8 19.604 468.416 19.604C469.088 19.604 469.644 19.744 470.084 20.024C470.524 20.304 470.852 20.688 471.068 21.176C471.284 21.656 471.392 22.212 471.392 22.844C471.392 23.468 471.284 24.024 471.068 24.512C470.852 25 470.524 25.384 470.084 25.664C469.644 25.936 469.088 26.072 468.416 26.072ZM468.416 25.172C468.88 25.172 469.252 25.068 469.532 24.86C469.82 24.652 470.032 24.372 470.168 24.02C470.304 23.668 470.372 23.276 470.372 22.844C470.372 22.412 470.304 22.02 470.168 21.668C470.032 21.316 469.82 21.036 469.532 20.828C469.252 20.62 468.88 20.516 468.416 20.516C467.96 20.516 467.588 20.62 467.3 20.828C467.02 21.036 466.816 21.316 466.688 21.668C466.56 22.02 466.496 22.412 466.496 22.844C466.496 23.276 466.56 23.668 466.688 24.02C466.816 24.372 467.02 24.652 467.3 24.86C467.588 25.068 467.96 25.172 468.416 25.172ZM478.649 26.072C477.985 26.072 477.433 25.936 476.993 25.664C476.561 25.384 476.237 25 476.021 24.512C475.813 24.024 475.709 23.472 475.709 22.856C475.709 22.256 475.817 21.712 476.033 21.224C476.257 20.728 476.593 20.336 477.041 20.048C477.497 19.752 478.073 19.604 478.769 19.604C479.201 19.604 479.585 19.676 479.921 19.82C480.265 19.964 480.549 20.176 480.773 20.456C480.997 20.728 481.153 21.072 481.241 21.488H480.197C480.077 21.136 479.885 20.888 479.621 20.744C479.365 20.592 479.061 20.516 478.709 20.516C478.229 20.516 477.845 20.628 477.557 20.852C477.269 21.076 477.057 21.368 476.921 21.728C476.793 22.08 476.729 22.456 476.729 22.856C476.729 23.272 476.797 23.656 476.933 24.008C477.069 24.36 477.281 24.644 477.569 24.86C477.857 25.068 478.229 25.172 478.685 25.172C479.021 25.172 479.337 25.1 479.633 24.956C479.937 24.812 480.137 24.556 480.233 24.188H481.289C481.209 24.62 481.037 24.976 480.773 25.256C480.517 25.536 480.201 25.744 479.825 25.88C479.457 26.008 479.065 26.072 478.649 26.072ZM481.947 26.012V25.124C482.107 25.124 482.251 25.092 482.379 25.028C482.507 24.956 482.619 24.852 482.715 24.716C482.827 24.556 482.915 24.324 482.979 24.02C483.043 23.716 483.087 23.392 483.111 23.048C483.143 22.664 483.167 22.288 483.183 21.92C483.199 21.544 483.211 21.172 483.219 20.804C483.235 20.436 483.243 20.06 483.243 19.676H487.635V26H486.615V20.576H484.239C484.231 20.848 484.219 21.124 484.203 21.404C484.195 21.676 484.183 21.952 484.167 22.232C484.159 22.504 484.147 22.78 484.131 23.06C484.123 23.38 484.091 23.74 484.035 24.14C483.979 24.54 483.859 24.904 483.675 25.232C483.499 25.544 483.283 25.752 483.027 25.856C482.779 25.96 482.419 26.012 481.947 26.012ZM489.442 28.712V27.74C489.834 27.74 490.146 27.684 490.378 27.572C490.61 27.468 490.802 27.3 490.954 27.068C491.114 26.844 491.266 26.556 491.41 26.204L488.638 19.676H489.838L491.974 25.004L493.726 19.676H494.878L493.102 24.656C493.014 24.912 492.914 25.2 492.802 25.52C492.69 25.84 492.566 26.164 492.43 26.492C492.294 26.828 492.142 27.136 491.974 27.416C491.814 27.704 491.634 27.936 491.434 28.112C491.266 28.264 491.102 28.384 490.942 28.472C490.782 28.56 490.586 28.62 490.354 28.652C490.13 28.692 489.826 28.712 489.442 28.712ZM495.188 26L497.24 22.688L495.368 19.676H496.46L498.128 22.412H499.076V19.676H500.096V22.412H501.044L502.712 19.676H503.804L501.932 22.688L503.984 26H502.796L501.152 23.276H500.096V26H499.076V23.276H498.02L496.376 26H495.188ZM507.616 26.072C507.216 26.072 506.86 26.016 506.548 25.904C506.236 25.784 505.968 25.62 505.744 25.412C505.52 25.196 505.336 24.944 505.192 24.656C505.048 24.36 504.94 24.04 504.868 23.696C504.796 23.352 504.76 22.988 504.76 22.604C504.76 21.988 504.772 21.416 504.796 20.888C504.828 20.352 504.916 19.876 505.06 19.46C505.204 19.036 505.448 18.684 505.792 18.404C506.136 18.124 506.62 17.928 507.244 17.816C507.564 17.76 507.88 17.712 508.192 17.672C508.504 17.632 508.82 17.592 509.14 17.552C509.244 17.536 509.352 17.52 509.464 17.504C509.576 17.488 509.692 17.468 509.812 17.444C509.94 17.42 510.06 17.4 510.172 17.384V18.32C510.084 18.352 509.988 18.38 509.884 18.404C509.788 18.42 509.684 18.436 509.572 18.452C509.468 18.468 509.36 18.48 509.248 18.488C509.144 18.496 509.04 18.508 508.936 18.524C508.832 18.532 508.732 18.544 508.636 18.56C508.356 18.592 508.06 18.624 507.748 18.656C507.436 18.68 507.14 18.744 506.86 18.848C506.588 18.944 506.356 19.132 506.164 19.412C506.068 19.556 505.984 19.728 505.912 19.928C505.848 20.128 505.8 20.332 505.768 20.54C505.744 20.74 505.728 20.932 505.72 21.116C505.88 20.892 506.076 20.712 506.308 20.576C506.54 20.432 506.788 20.328 507.052 20.264C507.316 20.192 507.568 20.156 507.808 20.156C508.384 20.156 508.872 20.276 509.272 20.516C509.672 20.748 509.976 21.08 510.184 21.512C510.392 21.944 510.496 22.448 510.496 23.024C510.496 23.6 510.384 24.12 510.16 24.584C509.936 25.04 509.608 25.404 509.176 25.676C508.752 25.94 508.232 26.072 507.616 26.072ZM507.64 25.172C508.04 25.172 508.376 25.076 508.648 24.884C508.92 24.692 509.124 24.436 509.26 24.116C509.404 23.796 509.476 23.444 509.476 23.06C509.476 22.684 509.404 22.348 509.26 22.052C509.124 21.748 508.92 21.508 508.648 21.332C508.384 21.156 508.056 21.068 507.664 21.068C507.28 21.068 506.948 21.16 506.668 21.344C506.396 21.528 506.184 21.776 506.032 22.088C505.888 22.392 505.816 22.724 505.816 23.084C505.816 23.452 505.884 23.796 506.02 24.116C506.156 24.436 506.356 24.692 506.62 24.884C506.892 25.076 507.232 25.172 507.64 25.172ZM512.071 28.712V27.74C512.463 27.74 512.775 27.684 513.007 27.572C513.239 27.468 513.431 27.3 513.583 27.068C513.743 26.844 513.895 26.556 514.039 26.204L511.267 19.676H512.467L514.603 25.004L516.355 19.676H517.507L515.731 24.656C515.643 24.912 515.543 25.2 515.431 25.52C515.319 25.84 515.195 26.164 515.059 26.492C514.923 26.828 514.771 27.136 514.603 27.416C514.443 27.704 514.263 27.936 514.062 28.112C513.895 28.264 513.731 28.384 513.571 28.472C513.411 28.56 513.215 28.62 512.983 28.652C512.759 28.692 512.455 28.712 512.071 28.712Z" fill="#B567DA"/>
<defs>
<filter id="filter0_bd_5313_26340" x="650.289" y="81.7889" width="60.3167" height="60.3167" filterUnits="userSpaceOnUse" color-interpolation-filters="sRGB">
<feFlood flood-opacity="0" result="BackgroundImageFix"/>
<feGaussianBlur in="BackgroundImageFix" stdDeviation="10.676"/>
<feComposite in2="SourceAlpha" operator="in" result="effect1_backgroundBlur_5313_26340"/>
<feColorMatrix in="SourceAlpha" type="matrix" values="0 0 0 0 0 0 0 0 0 0 0 0 0 0 0 0 0 0 127 0" result="hardAlpha"/>
<feOffset dy="2.36297"/>
<feGaussianBlur stdDeviation="5.0095"/>
<feComposite in2="hardAlpha" operator="out"/>
<feColorMatrix type="matrix" values="0 0 0 0 0.709804 0 0 0 0 0.403922 0 0 0 0 0.854902 0 0 0 0.4 0"/>
<feBlend mode="normal" in2="effect1_backgroundBlur_5313_26340" result="effect2_dropShadow_5313_26340"/>
<feBlend mode="normal" in="SourceGraphic" in2="effect2_dropShadow_5313_26340" result="shape"/>
</filter>
<linearGradient id="paint0_linear_5313_26340" x1="436.174" y1="40.2204" x2="436.036" y2="147.475" gradientUnits="userSpaceOnUse">
<stop stop-color="#B567DA"/>
<stop offset="0.755234" stop-color="#FAFCFF"/>
</linearGradient>
<linearGradient id="paint1_linear_5313_26340" x1="679.359" y1="103.743" x2="679.359" y2="34.1292" gradientUnits="userSpaceOnUse">
<stop stop-color="#B567DA"/>
<stop offset="1" stop-color="#FAFCFF"/>
</linearGradient>
</defs>
</svg>
