<svg width="46" height="45" viewBox="0 0 46 45" fill="none" xmlns="http://www.w3.org/2000/svg">
<path fill-rule="evenodd" clip-rule="evenodd" d="M19.8793 5.63855L9.98438 5.63281V39.3663H36.2216L36.22 21.978C36.22 21.5643 36.1841 21.1513 36.116 20.7432C35.434 16.6596 33.4449 13.9021 29.3613 14.584L26.8511 15.0032L27.2703 12.493C27.3385 12.085 27.3727 11.672 27.3727 11.2583C27.3727 7.11816 24.0194 5.63855 19.8793 5.63855ZM15.1344 13.1273C15.1344 12.3511 15.7637 11.7218 16.54 11.7218H21.2252C22.0015 11.7218 22.6308 12.3511 22.6308 13.1273C22.6308 13.9036 22.0015 14.5329 21.2252 14.5329H16.54C15.7637 14.5329 15.1344 13.9036 15.1344 13.1273ZM15.1344 20.6237C15.1344 19.8474 15.7637 19.2181 16.54 19.2181H29.6586C30.4349 19.2181 31.0642 19.8474 31.0642 20.6237C31.0642 21.3999 30.4349 22.0292 29.6586 22.0292H16.54C15.7637 22.0292 15.1344 21.3999 15.1344 20.6237ZM15.1344 26.2459C15.1344 25.4696 15.7637 24.8404 16.54 24.8404H29.6586C30.4349 24.8404 31.0642 25.4696 31.0642 26.2459C31.0642 27.0222 30.4349 27.6515 29.6586 27.6515H16.54C15.7637 27.6515 15.1344 27.0222 15.1344 26.2459ZM15.1344 31.8682C15.1344 31.0919 15.7637 30.4626 16.54 30.4626H29.6586C30.4349 30.4626 31.0642 31.0919 31.0642 31.8682C31.0642 32.6444 30.4349 33.2737 29.6586 33.2737H16.54C15.7637 33.2737 15.1344 32.6444 15.1344 31.8682ZM27.2993 6.09487C31.5558 7.51868 34.5091 10.6165 35.7492 14.9784C35.4822 14.5778 35.1796 14.1988 34.8368 13.8492C33.4976 12.4836 31.7733 11.7949 29.8322 11.7863L29.8322 11.7783C29.8322 9.37834 28.9135 7.42794 27.2993 6.09487Z" fill="#B567DA"/>
</svg>
