<svg xmlns="http://www.w3.org/2000/svg" width="36" height="41" fill="none"><path fill="#B567DA" fill-rule="evenodd" d="M4.349 12.693c0 .649.13 1.225.333 1.724.14.345.402.707.705.931l.146.117c-.542 0-2.044.188-2.369.358.168.25.71.63.948.79.215.143.833.585 1.092.645-.006.005-.018.003-.02.012l-.87.443c-.2.115-.727.363-.788.589.112.026.338.143.46.197.157.068.297.117.47.185.33.128.65.22 1.011.303l-.668.74c-.121.143-.335.328-.352.532.265.06.53.128.826.16.288.032.6.077.885.1-.11.467-.35.83-.394 1.37.264 0 .555.018.803-.018.136-.02.26-.011.396-.032.136-.02.252-.047.38-.047-.057.679-.029.505.033 1.239.26-.006 1.13-.238 1.316-.326.165.34.233.755.494 1.141.423-.098.711-.18 1.053-.358.035.151.277.592.361.717.084-.055.114-.104.197-.164 1.351-.967 2.803.792 1.981 1.442-.11.087-.316.174-.462.227-.897.323-1.135.267-1.542 1.211-.125.292-.301.678-.667.708.079.117.213.163.395.163.356 0 .598-.394 1.151-.521 0 .26-.065.547-.065.815 0 .227.048.478.065.685.127-.03.317-.168.43-.227a1.75 1.75 0 0 1 .525-.164c-.067.281-.138.921 0 1.206.199-.132.392-.276.632-.351.94-.294 1.236-.04 1.835-.04v.032c-.292 0-.92.07-.92.327 0 .185.116.363.127.559.01.192-.09.394-.095.582.46 0 .675.01 1.049-.265.108-.08.142-.191.267-.224.117.785-.188.765-.395 1.044.384 0 .886-.212.988-.587h.065c.02.23.346.63.527.75.205-.108.562-.419.625-.653h.066c.063.234.42.545.625.653.184-.122.507-.52.526-.75h.066c.101.375.603.587.987.587-.174-.236-.427-.266-.427-.75 0-.165.029-.147.032-.294.125.033.148.135.249.21.382.283.607.28 1.067.28-.007-.346-.149-.472-.045-.86.053-.197.335-.609-.843-.609v-.032c.51 0 1.327-.313 2.174.193.12.071.19.129.294.198.138-.285.066-.925 0-1.206.44.036.651.32.954.39.016-.193.066-.479.066-.684 0-.268-.066-.555-.066-.815.572.132.767.521 1.185.521.181 0 .22-.065.362-.097v-.066c-.603-.05-.72-1.163-1.198-1.52-.393-.294-1.043-.304-1.455-.612-.842-.628.57-2.414 1.943-1.469.104.072.125.117.216.177.085-.125.326-.566.362-.717.341.178.63.26 1.053.358.098-.144.196-.37.268-.55l.226-.591c.185.088 1.056.32 1.316.326.062-.742.088-.576.033-1.24l.747.075c.237.03.544.024.832.024-.045-.536-.284-.9-.395-1.37.564-.047 1.17-.136 1.711-.261-.017-.211-.542-.782-.731-.971-.104-.104-.21-.184-.289-.301.858-.198 1.766-.645 1.942-.685-.06-.218-.569-.467-.767-.577a10.23 10.23 0 0 0-.45-.238l-.462-.229c.337-.077 1.263-.757 1.566-.992.103-.08.38-.376.474-.41-.113-.154-.866-.236-1.108-.27-.34-.05-.874-.121-1.26-.121l.255-.204c.099-.09.131-.14.216-.243.135-.164.283-.368.37-.578.348-.835.447-1.813.205-2.72-.028-.103-.042-.207-.125-.267-.14.596-1.112 1.675-1.537 2.162-.096.11-.135.123-.143.282-.036.692-.146 1.47-.459 2.057.332.157.705.299 1.022.487.117.07.208.136.327.198-.17.252-.803.878-1.119 1.043.14.206.329.399.502.58.113.117.439.46.453.627l-1.317.587c.05.213.193.454.268.68.063.191.155.608.226.755-.336.007-.772.098-1.218.098h-.329c0 .814-.04.773-.098 1.467-.425 0-1.151-.25-1.448-.391-.062.263-.354 1.038-.56 1.174-.06-.228-.858-.75-1.316-.75-.586 0-.816.17-1.21.562-.232.231-.431.69-.528 1.042-.318 1.162.371 3.503-.56 4.142-.758.521-2.299-.23-3.319.623-.112.094-.303.297-.338.447h-.066c-.077-.327-.505-.618-.803-.737-.925-.37-2.802.265-3.199-.743-.457-1.159.354-3.656-.727-4.758-.394-.4-.634-.578-1.227-.578-.426 0-.787.222-1.06.481-.072.067-.067.059-.145.118-.087.067-.083.049-.11.151-.204-.135-.5-.918-.56-1.174-.297.141-1.024.391-1.448.391-.058-.694-.099-.653-.099-1.467l-.954-.033c-.214-.005-.403-.06-.592-.065l.217-.73c.081-.243.225-.486.276-.705-.321-.153-.68-.244-.998-.413-.107-.057-.205-.144-.318-.174.01-.116.023-.102.083-.179.25-.323.68-.746.871-1.028-.317-.166-.932-.767-1.118-1.043l1.349-.685a4.59 4.59 0 0 1-.46-1.991c.001-.28-.167-.349-.32-.53-.264-.312-.494-.6-.744-.927-.156-.206-.556-.8-.615-1.053-.08.058-.086.121-.119.242-.093.34-.144.63-.144.997Z" clip-rule="evenodd"/><path fill="#B567DA" fill-rule="evenodd" d="M7.623 16.292c-.24.057-.472.19-.683.297-.116.059-.201.096-.311.162-.117.07-.205.131-.316.191.187.286.505.534.782.743.099.076.232.158.292.25-.13.197-.527.556-.729.797a1.651 1.651 0 0 0-.211.298c.277.189 1.002.466 1.344.547-.073.278-.566.922-.605 1.403.198.005.498.063.704.07.263.008.543-.002.808-.002-.062.748-.033.594.033 1.403.444-.01.956-.235 1.344-.445.08.169.118.419.18.604.063.189.18.37.223.56.135-.032.105-.032.194-.11a1.74 1.74 0 0 1 1.7-.314c.248.087.406.204.588.36.182.155.31.341.434.55.071.117.108.354.242.404-.088-.381-.034-3.275-.034-3.901 0-.204.065-.377.269-.377h7.994c.204 0 .27.173.27.377 0 .626.053 3.52-.035 3.9.162-.059.318-.98 1.263-1.314.342-.12.7-.152 1.068-.033.233.076.437.18.615.332.1.085.065.091.212.126.044-.194.159-.367.223-.56.062-.186.101-.435.18-.604l.609.27c.175.06.529.17.735.175.066-.81.095-.655.034-1.402.424 0 .742.041 1.133-.01.09-.011.276-.05.378-.059-.018-.226-.191-.54-.264-.723-.091-.23-.279-.444-.34-.68.37-.088 1.072-.363 1.343-.547-.082-.158-.213-.285-.326-.421-.181-.22-.464-.446-.614-.674.127-.194.829-.619 1.075-.993l-.605-.342c-.105-.053-.199-.105-.313-.16-.125-.059-.247-.093-.359-.148.093-.407.537-.507.537-2.737-.113.077-.23.39-.316.533-.318.528-.728.958-1.153 1.392-.428.436-.912.784-1.413 1.126-.863.588.162 1.279.162 2.252 0 1.007-.92 1.78-1.881 1.78-.323 0-.698-.02-.982-.095-.151-.04-.403-.083-.497-.213.43 0 .828-.37.907-.719l-.37.034c-.235 0-.314-.086-.503-.102v-.069a.448.448 0 0 0 .302-.41c-.262.141-.763.217-1.04.034-.165-.11-.048-.117-.316-.158-.573-.088-1.156-.348-1.514-.82-.078-.102-.152-.156-.186-.288h-.068c-.014.17-.094.378-.134.547a3.568 3.568 0 0 0-.1.582c-.22-.118-.432-.33-.587-.532-.138-.182-.367-.462-.422-.7-.138.038-.143.123-.22.255-.167.286-.423.7-.451 1.046h-.068c-.013-.169-.2-.582-.268-.72-.076-.155-.244-.537-.403-.58-.091.397-.663 1.045-1.008 1.231a3.579 3.579 0 0 0-.1-.582c-.04-.169-.121-.377-.135-.547h-.067c-.045.169-.28.403-.408.508l-.566.382a1.762 1.762 0 0 1-.697.214c-.402.056-.264.265-.882.265a1.08 1.08 0 0 1-.504-.137.436.436 0 0 0 .302.41v.069c-.199.017-.363.103-.638.103-.116 0-.13-.026-.235-.035.08.348.477.719.907.719-.147.204-.876.308-1.109.308-.66 0-1.216-.09-1.671-.521-.612-.58-.731-1.336-.367-2.137.212-.466.562-.946-.03-1.36-.179-.125-.33-.214-.504-.342-.173-.127-.303-.242-.47-.377-.632-.508-1.396-1.329-1.762-2.072-.061-.124-.052-.196-.167-.274 0 .838.009 1.447.282 2.175.098.26.155.359.289.562Z" clip-rule="evenodd"/><path fill="#B567DA" fill-rule="evenodd" d="m15.035 27.145.057-.198.105.158c.11.126.17.108.337.108.004.214.139.339-.063.339-.233 0-.436-.165-.436-.407Zm.374-6.98c.183-.043.113.077.373.475.089.137.148.116.22.235.122.198.023.2.035.372.011.148.56 1.052.64 1.198l.654 1.186c.132.241.588.998.633 1.21-.117.002-.2.038-.288.06-.34.082-.667.075-1.052.075-.039.183-.114.223-.187.373.133-.038.116-.097.21-.181.122-.11.125-.022.32-.022-.016.21-.19.359-.305.482-.236.251-.02.47.196.755.106.14.116.066.283.132.253.1.075.257.543.257v-.067c-.41 0-.335-.346-.312-.644.112.14.078.321.28.372-.036-.15-.124-.21-.124-.44 0-.228.058-.277.093-.44h.063c0 .326.114.53.311.643-.03-.122-.085-.148-.134-.26a.831.831 0 0 1 .021-.744c.028-.048.054-.08.082-.114.018.852.935.945.935 1.931.106-.002.133-.015.188-.066.096-.092.092-.21.092-.34 0-.166-.27-.19-.361-.42-.121-.303-.1-.28-.355-.427-.026-.034.028-.01.062-.102l-.076-.12a5.366 5.366 0 0 0-.074-.124c-.527-.859-.171-.45-.377-.808l-1.485-2.69c-.078-.142-.26-.424-.294-.562.228 0 .293.058.467.102-.048-.197-.123-.149.006-.333.233-.332.649-.362.649.096 0 .13-.224.343-.312.407.222.328.435.163.332.598a2.64 2.64 0 0 0-.036.2c-.025.168-.019.276.078.354 0-.825.606-1.5 1.345-1.226.182.067.298.23.409.37a.35.35 0 0 0 .24.144c-.04.164-.109.111-.165.261-.06.159-.01.153-.109.322-.077.133-.21.487-.224.67-.216-.004-.228-.109-.22-.305.004-.125-.013-.16-.035-.265-.029-.14-.017-.32-.169-.231-.414.241.11.749.143 1.175a3.238 3.238 0 0 1-.124.067c-.268 0-.513-.118-.674-.25-.164-.135-.265-.301-.366-.483-.038-.07-.011-.03-.05-.08 0 .665.444.983 1.059.983.069.142.079.198.28.203v-.44a3 3 0 0 1 .686-.102l.319.466c.277.325.304.28.304.754 0 .182-.25.036-.25-.034 0-.213.066-.244-.03-.407-.062-.106-.155-.186-.241-.28-.114-.125-.164-.144-.346-.088-.138.043-.242.076-.317.199.193 0 .426-.079.55.01.127.089.126.364.16.505.044.185.104.348.14.529.044.21-.088.267-.134.48-.099-.028-.15-.117-.218-.203.154-.315.156-.355.056-.704-.085-.303-.191-.239-.431-.178a.97.97 0 0 1-.278.037c-.468.004-.343.044-.593.066.031.146.179.335.255.468.05.087.077.14.13.23.06.1.088.182.176.217-.025-.115-.185-.339 0-.339.1 0 .198.181.274.244.127.104.228.076.343.203.353.395.128.214.568.432.062.031.026.01.061.036-.139 0-.182.018-.28-.034.031.128.06.099.124.203-.197-.004-.275-.143-.28.136.33-.172.311.348.311.576 0 .302-.148.378-.249.542.098 0 .264-.025.304-.015.073.019.145.143.163.219-.113-.026-.09-.057-.093.101-.114-.01-.326-.056-.429-.05-.123.008-.531.196-.55-.018-.014-.142.11-.082-.003-.154-.047-.03-.34.019-.451.019-.151 0-.032-.167-.032-.305 0-.191-.135-.357-.311-.373.281.457.164.395-.031.712.102.03.135.085.187.17-.283-.026-.073-.073-.25.067-.17-.125-.38-.034-.623-.034.03-.118.105-.14.218-.17-.046-.067-.11-.102-.18-.177-.264-.281-.586-.794-1.018-.72-.788.138-.073 1.1.077.491-.116.03-.087.056-.218.068l-.1-.13c.07-.3.43-.284.586-.094.27.33.019.698-.393.698-.856 0-.907-1.221-.192-1.496.077-.03.215-.06.286-.096-.052-.242-.18-.312-.28-.475l.155-.44c-.095.024-.078.023-.148.076-.503.386-.787.122-.787.974l.187.44c-.128.067-.15.047-.28.035-.005-.24-.11-.226-.126-.442-.017-.206.062-.265-.005-.88.221-.122.51-.339.457-.659-.022-.137-.1-.297-.134-.431-.053-.212.01-.435-.192-.435-.295 0 .03.496.03.712 0 .226-.048.466-.198.597-.127.11-.26.198-.456.216.465-.439-.543-1.233-.054-1.822.109-.13.268-.143.428-.143.241 0 .341.146.499.237.287-.209.31-.232.684-.307.222-.044.12-.111.181-.314.033-.109.065-.07.046-.172-.013-.064-.048-.088-.07-.19-.12.087-.218.32-.218.542-.19 0-.353-.046-.495-.105a1.091 1.091 0 0 1-.209-.112c-.081-.055-.107-.095-.2-.122.046-.215.206-.337.25-.542-.161.117-.237.268-.343.44-.082-.059-.13-.084-.218-.135l.467-.745a1.443 1.443 0 0 0-.581.59c-.092.169-.05.087-.26.087l.41-.807c.156-.261.363-.476.65-.548-.032.234-.05.5.074.699.133.212.31.235.517.182-.1-.149-.29-.028-.392-.353-.068-.214-.037-.469-.042-.733a2.301 2.301 0 0 0-.162-.604l-.276-.513Zm-1.745-.068v7.32c0 1.884 1.364.869 2.836 1.286.254.072.748.362.81.61h.062c.061-.248.536-.515.791-.596.863-.273 2.036.058 2.47-.229.303-.201.384-.563.384-1.072v-7.32c0-.114-.055-.237-.155-.237H13.82c-.1 0-.156.123-.156.238ZM15.615 33.903l-.469.625c-.427.635-.893 1.608-.915 2.459-.025.968.374 1.786 1.171 2.139.291.128.492.194.888.194-.223-1.067-.335-1.596-.132-2.73.073-.407.197-.825.346-1.157.1-.225.407-.808.558-.92-.122.583-.208.755-.318 1.475-.177 1.161-.236 2.838.566 3.736.103.115.364.33.528.347.158.016.447-.202.535-.293.848-.889.795-2.58.618-3.76-.112-.751-.19-.873-.321-1.506.363.272.794 1.468.903 2.077.203 1.135.091 1.664-.132 2.73.808 0 1.613-.477 1.912-1.31.479-1.339-.25-2.764-.984-3.779-.083-.115-.19-.224-.252-.327.121.031.337.21.441.296.23.191.545.534.726.805.441.661.783 1.504.796 2.378.006.377-.084.53-.098.718.078-.042.252-.056.366-.094.486-.164 1.153-.526 1.453-.962.125-.18.318-.394.368-.63-.163.004-.204.064-.407.023-.566-.113-.514-.97-.806-1.648-.16-.37-.35-.414-.395-.6.225-.067.476-.535.482-.86-.556.144-.752.213-1.468-.05a9.632 9.632 0 0 1-.636-.258l-.63-.302c-.154.115-.177.125-.385.18.084.128.136.07.353.178l1.068.639c.249.186.754.589.792.949.022.198-.055.346-.155.422-.026-.106-.14-.25-.206-.345-.185-.265-.73-.8-.986-.981-.314-.223-.503-.355-.859-.519-.227-.105-.168.015-.168.302-.193 0-.15.035-.33.012-.133-.018-.276-.039-.378-.048.179.298 1.174 1.158 1.54 2.479.072.256.114.592-.053.83-.08.115-.093.077-.2.135-.13-1.741-1.333-2.912-1.383-3.121-.19.056-.193.348-.417.353-.122.002-.448-.186-.548-.246 0 .362.038.713.063 1.043.027.37.034.728.034 1.11 0 .665.114 1.696-.226 1.973-.339-.277-.225-1.303-.225-1.973 0-.846.097-1.535.097-2.153-.107.063-.402.233-.522.244-.119.011-.181-.066-.243-.144-.094-.118-.064-.167-.2-.207-.02.086-.369.525-.45.645a5.502 5.502 0 0 0-.418.718c-.265.569-.464 1.077-.515 1.758-.08-.044-.226-.054-.298-.349-.185-.75.784-2.186 1.271-2.727.112-.125.229-.227.314-.368l-.708.036c0-.27.138-.535-.525-.12l-.652.457c-.222.17-.382.344-.567.55-.11.124-.432.478-.475.655-.225-.167-.211-.532.024-.799.422-.48 1.253-1.067 1.846-1.276.12-.043.127-.019.188-.113-.208-.054-.231-.064-.386-.18-.11.03-.195.094-.293.14-.392.177-.494.247-.972.422-.254.093-.423.12-.719.168-.318.05-.474-.048-.749-.12.006.326.257.794.482.862-.033.138-.121.18-.2.278-.054.066-.15.225-.184.297-.214.458-.257 1.163-.507 1.48-.089.11-.126.149-.283.186-.217.052-.26-.013-.434-.017.118.56.939 1.233 1.461 1.456.12.05.219.086.336.127.094.033.319.065.39.103-.01-.135-.042-.178-.065-.322-.064-.391-.028-.705.052-1.092.141-.68.34-1.12.683-1.641.201-.306.466-.607.736-.83.107-.09.334-.28.46-.312ZM24.08 28.645c0 .794-.14.953-.168 1.267-.143-.088-.436-.415-.804-.494 0 .209.019.434-.013.636l-.12.569c-.1-.025-.303-.176-.43-.254-.167-.104-.3-.155-.475-.24.013.138.027.092.105.243.446.865.095 1.584.183 1.776.087.188.413.139.685.142l.788.045c.633.087 1.56.091 2.118.425.282.168.201.291.52.693.07.087.115.156.255.167a.997.997 0 0 1 .275-.426c.21-.194.615-.462.73-.007h.067c.014-.157.232-.432.368-.432.161 0 .255-.013.397.19.059.084.128.185.139.304h.067a.446.446 0 0 1 .046-.173c.131-.24.476-.056.632.072.182.15.191.245.293.44.114-.07.355-.405.433-.526.313-.48.185-.42.303-.647H26.49c-.555 0-.469.132-.469-.68h1.842v-1.761c-.776.06-1.567.742-1.785 1.474-.03.099.005.194-.325.194-.332 0-.812-.104-1.124-.167-.484-.098-.918-.174-.918-.482 0-.189.23-.401.435-.401.232 0 .584.054.758.02.235-.048.367-.172.481-.33-.629 0-.7-.357-.738-.894-.03-.433-.154-.986-.601-1.02.003.139.033.122.033.277ZM16.712 15.818l-.404-.488c-.138-.145-.287-.345-.455-.443-.06.108-.095.223-.16.34l-.397.644c-.227.317.029.58-.22 1.308-.11.32-.173.44-.357.68.382 0 .707-.187.973-.381.23-.168.094-.076.29-.257.152-.142.403-.533.42-.713.113.072.245.362.321.5.11.2.168.38.23.61.179-.114.627-.907.652-1.17h.069c.03.098.604.709.687 1.02h.069c.042-.157.363-.608.495-.767.068-.082.164-.16.192-.253h.069c.025.263.473 1.055.653 1.17.058-.219.115-.398.217-.59.074-.137.222-.45.332-.52.025.257.377.698.596.89.062.054.035.023.096.067.287.201.577.393.992.393-.714-.932-.331-1.64-.563-1.969l-.4-.641c-.064-.115-.108-.246-.17-.36-.298.173-.663.732-.86.93 0-.29-.072-.865-.137-1.111-.12.028-.308.165-.458.23-.796.347-.682.092-.895.48-.067.123-.155.33-.16.49h-.068c-.004-.16-.092-.367-.16-.49-.14-.255-.07-.205-.385-.294-.539-.151-.833-.385-.967-.416-.065.246-.137.82-.137 1.11ZM12.576 11.354c-.03-.158-.11-.241-.176-.385-.097-.207-.108-.252.143-.25l1.016.002c-.043.046-.046.05-.113.087-.518.287-.204.006-.87.546Zm-.921-1.265c-.023.042-.092.125-.092.149 0 .391.38 1.213.592 1.514.06.084.09.11.145.196.16.254.198.232.33.381l.523.52c.12.12.22.21.338.335.072.076.104.08.168.168.089.12.04.152.176.195 0-.297.138-.538.185-.78h.061c.037.166.244.388.346.51.124.151.261.376.484.382-.13-.671-.093-.54-.093-1.227.463.374.921.769 1.585.58.137-.04.165-.099.29-.134v-.074c-.433-.044-.824-.51-1.015-.856.418 0 .505-.02.83-.111v-.112c-.204-.02-.495-.286-.584-.446.33-.033.748-.335.891-.595-.064-.037-.574-.004-.707-.223.277-.09.505-.726.615-1.004-.126.013-.153.06-.246.111-.075.042-.168.075-.246.112-.155.075-.354.15-.54.201-.414.116-.805.143-1.246.203l-2.79.005ZM22.166 10.721c.33 0 .66.004.99-.002.51-.008.072.259-.001.635-.72-.58-.619-.369-.917-.57-.063-.043-.038-.027-.072-.063Zm-2.564-.26c-.122.2-.512.203-.68.186.023.331.64.61.865.632-.09.16-.383.426-.587.446v.112c.327.092.415.111.834.111-.192.346-.585.812-1.02.856v.074c.134.038.265.186.619.186.518 0 .95-.377 1.266-.632 0 .688.037.556-.092 1.227.292-.008.805-.76.834-.892h.062c.047.242.185.483.185.78.131-.042.084-.058.163-.175.055-.08.1-.104.167-.17l.852-.835c.077-.093.108-.105.185-.186.35-.37.92-1.405.92-1.943 0-.024-.07-.107-.093-.149-1.262 0-2.866.107-4.035-.201a3.318 3.318 0 0 1-.547-.197l-.516-.234c.112.283.337.914.617 1.004ZM30.779 12.17c.148.285.227 1.053.264 1.464.374-.231.679-.613.953-.897.266-.276.62-.74.829-1.048.11-.164.4-.626.445-.808.102.069.189.258.189.418 0 .5-.377.893-.625 1.2-.09.112-.139.138-.227.243l-1.387 1.194c-.372.27-.086.198-.465 1.175a3.182 3.182 0 0 1-.14.324c-.062.12-.125.179-.138.325.123-.06.226-.136.34-.21l1.002-.711c.622-.452 1.842-1.522 2.27-2.262.654-1.134.83-2.14.189-3.323-.105-.193-.514-.827-.781-.848-.112.443-.962 1.629-1.23 2-.15.208-1.233 1.606-1.488 1.764ZM1.063 10.462c0 .998.068 1.203.567 2.092.065.117.137.207.22.32l.527.63c.107.102.194.177.304.278.666.613 1.124 1.004 1.87 1.52l.713.458c-.012-.141-.064-.186-.126-.302a5.043 5.043 0 0 1-.37-1.019c-.093-.431.11-.26-.623-.785l-.745-.639c-.425-.39-1.126-1.141-1.126-1.681 0-.19.067-.371.19-.453.13.513.991 1.532 1.394 1.991.182.208.576.6.839.762.037-.41.116-1.18.265-1.464-.13-.08-.105-.093-.201-.198-.554-.609-.773-.85-1.29-1.565-.233-.32-.463-.631-.665-.957-.156-.251-.503-.78-.57-1.044-.405.031-1.174 1.378-1.174 2.056ZM14.719 4.36c0 .45.051.743.184 1.152.047.147.253.792.407.792h4.07c.23 0 .591-1.34.591-1.81 0-.264-.027-.429-.186-.648-.275-.377-.88-.694-1.39-.694 0 1.154-.925 4.783-1.794 1.699-.128-.457-.306-1.217-.306-1.699-.6 0-1.576.51-1.576 1.207ZM30.633 15.79v.069c.529 0 1.669.339 1.671.339.336 0 1.718-.924 2.088-1.231.213-.177.224-.273.224.146 0 .466-.923.896-1.316 1.085-.701.337-.705.163-1.03.576-.118.149-.25.266-.413.387-.163.12-.273.238-.449.352l-.374.252c-.046.034-.08.063-.117.093.253-.005.677-.116.898-.161.898-.182 2.403-.7 3.042-1.304.092-.087.181-.164.266-.255.914-.98.976-2.399.346-3.533-.119.076-.44.512-.731.726-.149.11-.526.463-.843.688-.739.524-1.037.718-1.85 1.151-.22.117-1.216.605-1.412.62ZM.008 13.927c0 .835.004 1.282.587 2.019.752.951 2.267 1.507 3.477 1.751.223.045.648.155.902.161l-.471-.332c-.195-.125-.734-.564-.872-.732-.201-.247-.115-.224-.453-.35-.58-.214-.617-.27-1.11-.506a2.686 2.686 0 0 1-.489-.316c-.272-.206-.32-.404-.32-.712 0-.21.142.007.484.252.342.245 1.506 1.036 1.838 1.036.003 0 1.139-.34 1.68-.34v-.067c-.455-.036-2.156-1.026-2.68-1.356-.41-.257-.773-.556-1.15-.842-.31-.235-.57-.539-.771-.725-.1-.093-.166-.203-.26-.263-.154.278-.392.906-.392 1.322ZM10.618 30.222c.32.466.632.3 1.105.3.348 0 .43.225.43.478 0 .284-1.691.568-2.211.568-.816 0-.82-.598-1.137-.598-.575 0-.42.924-.204 1.186.142.171.42.22.42-.319 0-.103-.023-.115-.031-.209.14.092.301.268.439.38 1.165.95.017.46 2.381.213a9.07 9.07 0 0 1 .804-.055c.256 0 .613.046.738-.088.09-.097.057-.206.036-.335-.167-1.037.253-1.468.27-1.67-.15.077-.27.124-.417.22-.077.051-.131.083-.201.134-.073.053-.114.099-.21.124-.008-.089-.038-.176-.056-.245-.028-.106-.032-.157-.05-.28-.031-.199-.018-.43-.018-.642-.141.032-.292.13-.405.203-.15.097-.207.194-.332.276-.008-.098-.04-.18-.06-.271-.021-.1-.028-.167-.046-.284-.102-.677-.025-.589-.016-.94-.411.033-.524.568-.552.988-.035.52-.1.866-.677.866ZM31.065 18.011c.046.126.047.06.293.23.121.084.2.149.318.238.57.425.216.344.712.3.493-.045 1.417-.249 1.773-.42 0 .391-.288.575-.59.662-.933.268-1.335.003-1.679.236-.247.167-1.23.526-1.314.599.396.033.68.104 1.183.104 1.563 0 2.878.024 3.736-1.273.358-.54.333-1.154.333-1.79 0-.185-.129-.042-.437.085-.753.311-.81.345-1.68.616-.668.21-1.775.413-2.648.413ZM3.362 19.96l1.296-.034c.221-.01.4-.054.594-.07-.086-.074-.323-.139-.44-.188-.158-.065-.294-.13-.435-.192-.154-.069-.284-.11-.426-.202-.402-.26-.681.025-1.682-.24-.324-.087-.622-.272-.622-.667.193.091 1.937.592 2.181.393.106-.087.058-.081.3-.26l.574-.4c.06-.053.03.004.06-.08-1.48 0-2.488-.357-3.714-.757a3.71 3.71 0 0 1-.52-.212c-.174-.086-.353-.152-.526-.242 0 .956-.083 1.726.78 2.448.666.558 1.653.703 2.58.703Z" clip-rule="evenodd"/><path fill="#B567DA" fill-rule="evenodd" d="M14.79 32.296c.061.202.593.307.898.18-.118.439-.063.313-.035.6.127 0 .246.007.367-.011.124-.018.194-.046.324-.049.006.245.206.5.38.6.327-.066.439-.153.691-.27.253.117.365.205.691.27.175-.1.374-.355.38-.6.124.01.204.046.315.057.11.01.263.003.377.003.027-.287.083-.161-.035-.6.225.094.42.069.653-.003.124-.038.21-.059.246-.177-.39-.028-.857-.267-1.058-.492-.084-.095-.186-.175-.221-.288l-.588.54c-.085-.036-.124-.036-.215-.083-.166-.088-.461-.268-.51-.427h-.07c-.074.243-.486.41-.725.51l-.587-.54c-.09.289-.744.741-1.279.78ZM1.442 25.969l.432-.434c.092.063.474.392.474.49 0 .08-.07.226-.114.276-.059.068-.191.121-.285.142l-.507-.474Zm-.258-.973c.041.174.15.288.166.483-.105-.049-.396-.129-.455-.206-.046-.06-.054-.277.289-.277Zm.964.161c0 .574-.76.07-.467-.39.035-.054.053-.034.056-.099.012-.216-.297.002-.354.039-.025-.294-.343-.264-.601-.228-.487.067-.43.178-.43.775 0 .151.083.245.233.257-.04.147-.1.08-.1.29 0 .122-.01.011.033.096.173-.045.121-.161.4-.161.359 0 .605.514.166.514-.114 0-.046-.052-.18-.08-.135-.03-.074.087-.818-.08 0 .427.197.695.598.869.464.2.652.019.899-.001 0 .329-.133.354.2.354.279 0 .199-.502.199-.547 0-.098.058-.11.133-.129.073.148-.208.897.477.493.044-.026.292-.153.3-.16.029-.025.288-.554.288-.59 0-.323-.351-.193-.633-.193.057-.234.16-.128.366-.128.209 0 .433-.148.267-.483-.175.045-.008.064-.233.064-.264 0 .209-.285-.154-.976-.15-.286-.41-.503-.844-.503.015.182.1.166.1.481.004.634.1.383.1.516ZM21.094 7.249c0 .414.055.584.156.965.025.096.029.192.138.192h2.562c.102 0 .106-.073.132-.168.15-.553.342-1.232-.174-1.647-.165-.133-.447-.286-.724-.286 0 .362-.18 1.723-.5 1.766-.097-.024-.108-.027-.167-.102a.647.647 0 0 1-.103-.198c-.148-.42-.29-1.006-.29-1.466-.467.01-1.03.431-1.03.944ZM10.586 7.28c0 .306.02.378.088.67.022.093.042.164.068.264.026.096.029.192.138.192h2.563c.128 0 .152-.23.2-.432.12-.505.198-1.007-.238-1.387-.138-.12-.464-.277-.699-.282 0 .708-.478 2.877-.925 1.048a3.845 3.845 0 0 1-.135-1.048c-.457 0-1.06.394-1.06.974ZM32.866 20.909c-.053.618-1.196.395-1.667.302-.515-.101-.202-.066-.982.084-.243.047-.5.071-.725.121.099.129 1.209.381 1.371.42.88.21 2.053.427 2.856-.115.464-.313.802-.73.952-1.259.172-.603.193-.23-1.698-.23-.712 0-1.29-.054-1.964-.16l-.593-.111.523.72c.093.128.081.11.277.142.554.09 1.012.086 1.65.086ZM2.905 20.232c-.39 0-1.175-.03-1.513-.087-.107-.018-.22-.06-.248-.002-.017.034.036.237.05.293.261.954 1.106 1.626 2.245 1.626.554 0 1.116-.113 1.58-.224l1.054-.284c.129-.033.252-.047.32-.136l-1.053-.183c-.647-.135-.048-.116-.869.014-.293.047-.888.15-1.165.024-.143-.065-.28-.187-.295-.363.626 0 1.078.004 1.624-.082.187-.03.201-.008.294-.126.06-.078.104-.159.168-.247.1-.138.345-.401.37-.494-.123.01-.818.17-1.213.2-.451.035-.864.071-1.35.071Z" clip-rule="evenodd"/><path fill="#B567DA" fill-rule="evenodd" d="M2.18 21.842c.039.372 1.134 1.267 1.97 1.267 1.149 0 2.068-.412 2.975-.847.118-.057.24-.11.307-.19l-.839.03c-.608 0-.114-.119-.705.134-.405.173-1.126.346-1.41-.077.39-.007.917-.172 1.23-.267.358-.108.24-.063.324-.378.05-.19.11-.334.16-.506-1.075.449-2.818.834-4.012.834ZM31.4 22.16c-.28.417-.983.253-1.387.086-.628-.26-.118-.144-.802-.144-.308 0-.464-.03-.766-.03.23.27 2.202 1.037 3.064 1.037.711 0 .908-.123 1.439-.448.199-.122.271-.2.427-.354.09-.088.31-.339.323-.465-.827 0-1.489-.143-2.167-.276a11.262 11.262 0 0 1-1.846-.558l.217.75c.093.174 1.277.397 1.498.401ZM18.677 12.922c-.156.29-.296.538-.432.87-.081.2-.303.806-.308 1.026.495-.114.914-.45 1.287-.696.052.22.128.563.128.822.166-.044.559-.64.74-.758.063.263.387 1.338.642 1.537.069.054-.03.033.033.011v-.219c-.022-1.188.322-1.749.322-1.867 0-.557-.042-.402-.064-.663-.14.037-.056.069-.238.208-.337.259-.596.297-1.08.297.027-.101.291-.534.32-.885-.26.136-.19.174-.597.266-.238.054-.52.104-.753.05ZM15.13 13.493c-.447 0-.9-.065-1.178-.39-.087-.103.004-.08-.138-.117-.02.248-.153.505.005.882.322.771.237 1.843.252 1.874.037.014 0 .056.109-.11.277-.425.448-.95.564-1.442.24.159.577.718.738.76 0-.26.076-.602.128-.823.409.27.783.582 1.284.697-.011-.479-.515-1.485-.738-1.902-.231.053-.513.004-.751-.05-.408-.093-.334-.13-.596-.267.011.14.085.35.132.472l.188.416ZM4.281 24.378c.051.184.402.457.58.557 1.077.61 2.173.11 3.011-.55.067-.053.08-.051.146-.098.113-.08.141-.146.245-.234.092-.077.184-.138.22-.254-.172.034-.325.08-.517.113-.282.047-.314-.01-.501.155-.111.098-.211.19-.381.231-.21.052-.36-.017-.457-.14.154-.036.478-.241.582-.337.102-.095.046-.058.01-.303-.023-.151-.039-.242-.039-.409-.102.058-.163.13-.279.205-.68.448-1.765 1.004-2.62 1.064ZM29.255 24.156c-.357.45-.866-.146-.98-.19-.084-.032-.315-.046-.44-.07-.167-.031-.292-.07-.437-.098.033.104.396.437.448.475.066.049.081.048.147.097.85.634 1.908 1.195 3.028.563.177-.1.529-.373.58-.557-.828-.058-1.936-.605-2.602-1.05-.11-.073-.2-.161-.298-.217 0 .218-.031.359-.067.553-.02.103-.034.083.024.145.092.098.448.315.597.349ZM11.405 10.782c.012.13.038.102.067.216-.12-.053-.366-.03-.541-.03.12-.165.183-.186.474-.186Zm-1.354 1.823c.176-.69 1.321-.784 2.04-.658.19.034.413.102.6.102-.039-.132-.054-.084-.16-.164l-.45-.516c-.122-.168-.418-.628-.44-.865-.422 0-.78.025-1.087.12-.28.086-.617.246-.775.435-.6.718.09 1.502.272 1.546ZM24.413 10.998c.029-.114.055-.086.067-.216.29 0 .353.021.473.185-.12 0-.494-.017-.54.031Zm-1.218 1.05c.284 0 .592-.154 1.251-.154.632 0 1.268.246 1.387.71.178-.043.866-.818.286-1.527-.172-.21-.484-.353-.764-.445-.319-.105-.683-.128-1.111-.128-.021.229-.302.673-.426.847l-.444.52c-.15.129-.145.063-.179.178ZM5.336 7.83c0 .738.934 1.102.934 2.348 0 .307-.19.443-.234.597.257-.02.563-.234.623-.448.268.172.467.787.467 1.23h.078c.127-.524.233-.441.233-1.155 0-.46-.25-.929-.43-1.229-.308-.511-.543-.728-.543-1.306 0-.259.253-.345.35-.484-.39 0-.58-.06-.935-.002-.253.042-.543.18-.543.449ZM29.067 7.383c.192.275.35.1.35.67 0 .65-.972 1.222-.972 2.535 0 .402.157.653.233.97h.078c0-.444.198-1.059.466-1.23.06.213.365.426.621.447-.077-.278-.602-.619.182-1.876.232-.372 1.06-1.339-.025-1.518-.354-.058-.543.002-.933.002ZM17.416 6.304c.286 0 .603-2.353.508-2.686-.17-.598-.81-.635-1.009-.026-.122.372.235 2.712.5 2.712ZM7.438 25.838c.01.119.028.121.122.182.073.048.146.086.232.119.493.186 1.084.149 1.557-.038.545-.216 1.144-1.062 1.24-1.425-.543.23-.612.036-.843.323-.161.2-.638.256-.445 0 .051-.068.102-.128.152-.194a3.024 3.024 0 0 1-.162-.309l-.168-.336c-.082.053-.268.369-.34.474-.066.096-.11.14-.18.23a2.43 2.43 0 0 1-.204.24c-.216.211-.672.666-.961.734ZM26.425 24.808c.255.337.327.356-.037.356-.075 0-.197-.091-.241-.143-.11-.126-.033-.118-.211-.17-.229-.065-.454-.09-.647-.173.094.358.685 1.197 1.215 1.42.764.322 1.9.13 1.937-.254-.382-.09-1.095-.849-1.332-1.187-.064-.092-.104-.155-.164-.244-.068-.1-.096-.192-.19-.253l-.33.648ZM6.13 30.496c-.04.178-.01.18.207.18.053.23.258.533.504.539-.153.321.021.396.183.185.185-.242.369-.333.409-.485-.129-.087-.168-.087-.296 0-.05-.104-.047-.137-.127-.231-.315-.377-.371-.125-.433-.341-.044-.157.022-.195-.18-.147-.02-.246-.502-.643-.674-.816-.215-.215-1.13-1.218-1.391-.975-.211.195.297.699.474.884.059.062.059.073.106.133l.901.885c.133.114.185.178.317.189ZM24.242 9.456c.752 0 1.16-.219 1.563-.65.58-.622.337-1.125 1.097-1.698.146-.11.32-.165.492-.242-.068-.213-.89-.561-1.113-.561-.634 0-.63 1.29-.785 1.772-.107.332-.228.58-.466.825-.233.24-.314.285-.619.384-.204.067-.083.02-.169.17ZM8.484 6.858c.561.251.867.449 1.1 1.044.077.196.099.322.197.49.38.649.906 1.064 1.855 1.064-.082-.143.03-.096-.142-.162-.26-.1-.334-.072-.628-.377-.25-.258-.352-.453-.476-.82-.329-.97-.018-2.474-1.673-1.45-.109.068-.195.092-.233.212ZM28.445 32.566h2.101c0-.525-.413-1.12-.696-1.392-.307-.295-.86-.665-1.405-.71v2.102ZM8.894 14.212c-.307 0-.189-.02-.41-.082.066.297.376.576.752.576.23 0 .34-.08.502-.177.237-.146 1.1-.813 1.24-.852a1.072 1.072 0 0 0 0 .576c.065-.028.24-.329.74-.631.577-.349.786-.252.968-.357-.042-.07-.64-.66-.683-.66-.59 0-1.773.917-2.265 1.265-.204.145-.544.342-.844.342ZM22.148 13.264c.273.158.89.048 1.61.901.094.11-.029.033.099.088a1.074 1.074 0 0 0 0-.576c.444.124 1.093 1.03 1.844 1.03.267 0 .593-.324.65-.577-.465.13-.67.147-1.233-.244-.247-.172-.436-.34-.703-.511-.357-.23-1.156-.77-1.583-.77-.044 0-.641.59-.684.66ZM13.742 9.456c1.264 0 2.17-.265 2.79-1.168.13-.19.355-.651.362-.933h-1.096c-.048.548-.409 1.264-.788 1.544-.292.215-.512.365-.955.398-.177.013-.217-.014-.313.16ZM21.089 9.456c-.176-.318-.493-.006-1.097-.426-.064-.044-.082-.066-.151-.117-.401-.299-.757-.982-.807-1.558h-1.096c.012.532.519 1.269 1.013 1.59.579.376 1.183.511 2.138.511Z" clip-rule="evenodd"/><path fill="#B567DA" fill-rule="evenodd" d="M26.352 6.71c.854 0 1.341.78 1.852 1.105.703.446 1.156.153 1.878.305.358.075.306.224.472.286-.043-.532-.865-.405-1.632-.928-.26-.177-.44-.387-.656-.611-.433-.447-.338-.562-.882-.562-.32 0-.909.214-1.032.405ZM5.336 8.406c.151-.057.137-.206.442-.28.713-.17 1.187.147 1.907-.31.29-.185.516-.469.805-.677.301-.216.557-.426 1.048-.426-.135-.208-1.19-.67-1.595-.213-.583.66-.867 1.085-1.844 1.37-.31.09-.735.187-.763.536ZM27.715 29.023c-.147 0-.206-.027-.317-.044v.828c.122 0 .17-.044.317-.044-.038.832-.158.697.366.697.103 0 .06-.106.053-.26-.01-.217-.005-.26-.028-.437.39 0 .341.291.341-.653 0-.178-.076-.115-.126-.104-.08.018-.133.017-.215.017.02-.161.018-.19.028-.392.016-.309.099-.261-.394-.261-.115 0-.042.275-.025.653ZM16.085 7.656h3.704c.127 0 .235-.14.249-.3h-4.202c.008.092.025.142.072.198.032.038.106.102.177.102ZM11.778 9.857h2.861c.04-.16.105-.24.145-.4h-3.151c.033.132.106.248.145.4ZM21.239 9.857H24.1c.039-.152.112-.268.145-.4h-3.151c.04.16.104.24.145.4ZM10.961 25.19c-.104 0-.1-.213-.1-.344 0-.28.072-.048-.037-.319a1.276 1.276 0 0 1-.088-.324h-.05c-.06.446-.1.273-.1.943 0 .665.258 1.115.65 1.115 0-.67.028-1.164.261-1.74.033-.081.046-.087.081-.16.043-.087.051-.091.058-.2-.132.119-.505.435-.566.658-.049.178 0 .37-.109.37ZM24.641 25.875v.386c.586 0 .732-.918.614-1.699-.024-.162-.048-.232-.066-.359h-.05a1.276 1.276 0 0 1-.087.324c-.106.264-.037.003-.037.405 0 .132-.023.257-.1.257-.105 0-.064-.172-.101-.34-.058-.262-.435-.564-.572-.689.014.22.399.69.399 1.715ZM27.398 34.795c0 .56.038.92.601.92.743 0 .469-1.952-.12-2.102-.236.245-.48.794-.48 1.182ZM17.258.4a2.217 2.217 0 0 0-.367-.05V.7c.117-.026.25-.024.367-.05 0 .161-.026.226-.026.4h.368c0-.174-.027-.239-.027-.4.118.026.25.024.368.05V.35a2.22 2.22 0 0 0-.368.05c0-.16.027-.225.027-.4h-.368c0 .175.026.24.026.4ZM12.688 6.869c0 .495.112 1.415.487 1.615.395-.077.486-.824.528-1.075.228-1.357-.72-1.046-.9-.85a.42.42 0 0 0-.116.31ZM22.707 8.484c.369-.198.67-1.596.37-1.925-.179-.196-1.12-.507-.894.85a4.1 4.1 0 0 0 .146.603c.093.266.126.423.378.472ZM7.438 33.39c0 .404 1.045.536 1.045-.43 0-.119.034-.316-.072-.316-.179 0-.513.174-.622.252-.168.118-.351.255-.351.495ZM6.375 33.251c0 .714.61.432.938.09.027-.03.037-.032.063-.074.202-.32-.272-.623-.45-.623-.245 0-.551.255-.551.607Z" clip-rule="evenodd"/><path fill="#B567DA" fill-rule="evenodd" d="M8.958 33.695c.207 0 .4-.127.49-.205.237-.203-.04-.332-.463-.588-.133-.081-.258-.228-.44-.258-.055.145-.101.161-.004.252.631.586.096.799.417.799ZM22.528 4.679c-.095-.052-.214-.03-.38-.03v.339c.205-.046.135-.03.38-.03l-.038.37h.354c0-.155-.031-.19-.031-.37.467 0 .38.11.38-.31h-.285c-.121 0-.012-.01-.095.031 0-.188.031-.248.031-.402h-.348c0 .177.032.214.032.402ZM13.074 4.679c-.095-.052-.215-.03-.38-.03 0 .42-.087.308.38.308 0 .18-.032.216-.032.37h.348l-.038-.37c.248 0 .18-.016.386.031v-.34h-.285c-.12 0-.011-.01-.095.031 0-.188.032-.225.032-.402h-.348c0 .154.032.214.032.402ZM28.445 34.133c0 .245.125.609.45.609.286 0 .6-.032.6-.304 0-.488-1.05-1.231-1.05-.305ZM26.352 34.267c0 .422.046.475.574.475a.553.553 0 0 0 .334-.156c.22-.239.19-.895-.125-.895-.333 0-.783.358-.783.576Z" clip-rule="evenodd"/><path fill="#B567DA" fill-rule="evenodd" d="M8.709 33.695c.506 0 .173-.901-.034-1.05-.104.194-.131.283-.178.548-.031.178-.02.502.212.502ZM17.938 1.582c0 .874 1.05.674 1.05.1 0-.8-1.05-.652-1.05-.1ZM3.266 27.446c-.275 1.14 1.358 1.322.954.436-.179-.393-.527-.597-.954-.436ZM9.685 34.742c.414 0 .905-.601.905-.822 0-.124-.023-.126-.048-.229-.21.017-.197.066-.307.208-.372.48-.245.283-.567.556-.088.075-.248.287.017.287Z" clip-rule="evenodd"/><path fill="#B567DA" fill-rule="evenodd" d="M9.54 34.473v.111c.078.019.789.41.993-.114.148-.382-.033-.456-.108-.779-.261.07-.104.079-.428.406-.147.147-.245.318-.458.375ZM23.199 5.971c0-.94-1.018-.732-1.05-.124-.038.739 1.05.637 1.05.124ZM12.688 5.831c0 .776 1.084.68 1.05.008-.036-.674-1.05-.685-1.05-.008ZM27.867 32.2c0 .335.467.384.467-.033 0-.24-.467-.28-.467.033ZM26.96 32.204c0 .37.468.315.468.034 0-.37-.467-.315-.467-.034ZM29.92 31.973c-.289 0-.3.51.03.49.128-.007.228-.128.224-.257-.004-.108-.117-.233-.254-.233ZM27.867 30.368c0 .35.467.34.467.033 0-.368-.467-.304-.467-.033ZM26.063 32.2c0 .314.466.394.466-.033 0-.24-.466-.28-.466.033ZM28.79 32.206c0 .368.466.304.466.033 0-.142-.103-.266-.233-.266-.113 0-.234.12-.234.233ZM27.867 31.3c0 .297.467.328.467 0 0-.35-.467-.282-.467 0ZM1.969 26.468c.118.08.204.234.4.234.204 0 .185-.32-.133-.534a3.05 3.05 0 0 0-.267.3ZM19.539 6.82h.066c.208 0 .208-.367 0-.367h-.066c-.208 0-.208.367 0 .367ZM18.555 6.481c-.069.295.005.369.3.3.033-.068.058-.116.047-.186-.033-.19-.22-.163-.347-.114ZM16.98 6.82c.157 0 .325-.367-.067-.367-.19 0-.225.367.067.367ZM15.906 6.585c0 .385.367.244.367.034 0-.237-.367-.214-.367-.034ZM17.648 6.585c0 .316.367.316.367 0 0-.186-.367-.186-.367 0ZM7.398 31.833c.177 0 .197.001.334.033 0-.157.049-.365-.109-.316-.108.034-.2.174-.225.283Z" clip-rule="evenodd"/></svg>