<svg width="40" height="40" viewBox="0 0 40 40" fill="none" xmlns="http://www.w3.org/2000/svg">
<path d="M37.8685 13.711C36.8766 14.1485 35.8094 14.3887 34.7262 14.4182C32.6881 14.4596 30.7011 13.777 29.1183 12.4913C27.5352 11.2057 26.4583 9.40013 26.0788 7.39515C25.8279 5.93271 25.9536 4.43042 26.4442 3.03015C26.4785 2.91652 26.4858 2.79637 26.4651 2.67944C26.4446 2.56251 26.3967 2.45207 26.3255 2.35706C26.2544 2.26208 26.1618 2.18519 26.0554 2.13267C25.9492 2.08014 25.8318 2.05344 25.7134 2.05473H8.17486C6.23674 2.05473 4.37801 2.82548 3.00755 4.19744C1.6371 5.56939 0.867188 7.43015 0.867188 9.37038V23.6359C0.86938 25.2387 1.39736 26.7965 2.36994 28.0697C3.34254 29.3431 4.7059 30.2612 6.2505 30.6833C6.8045 30.8023 7.29974 31.1108 7.65097 31.556C8.0022 32.0011 8.18747 32.5549 8.17486 33.1218V37.8282C8.17344 38.0689 8.24326 38.3047 8.37545 38.5057C8.50767 38.7068 8.69638 38.8641 8.9178 38.958C9.13923 39.0519 9.38345 39.0782 9.61968 39.0334C9.85594 38.9885 10.0737 38.8746 10.2454 38.7061L17.1634 31.7806C17.617 31.3302 18.2294 31.0761 18.8685 31.0735H31.5595C33.4975 31.0735 35.3563 30.3026 36.7268 28.9307C38.0972 27.5588 38.8672 25.6979 38.8672 23.7578V14.3938C38.8674 14.2744 38.8387 14.1567 38.7831 14.051C38.7274 13.9453 38.647 13.8548 38.5483 13.7875C38.4499 13.7201 38.3364 13.678 38.2178 13.6646C38.0994 13.6513 37.9793 13.6672 37.8685 13.711ZM12.5595 18.7588C12.0777 18.7588 11.6067 18.6159 11.2062 18.3479C10.8056 18.0799 10.4934 17.699 10.309 17.2535C10.1246 16.808 10.0764 16.3176 10.1704 15.8445C10.2644 15.3715 10.4964 14.937 10.837 14.5959C11.1777 14.2549 11.6117 14.0226 12.0842 13.9285C12.5568 13.8345 13.0465 13.8827 13.4916 14.0673C13.9367 14.2519 14.3172 14.5644 14.5848 14.9655C14.8525 15.3665 14.9953 15.8379 14.9953 16.3202C14.9953 16.9669 14.7387 17.5873 14.2819 18.0445C13.8251 18.5018 13.2055 18.7588 12.5595 18.7588ZM19.8672 18.7588C19.3854 18.7588 18.9143 18.6159 18.5139 18.3479C18.1132 18.0799 17.8011 17.699 17.6167 17.2535C17.4323 16.808 17.3841 16.3176 17.4781 15.8445C17.5722 15.3715 17.8041 14.937 18.1446 14.5959C18.4854 14.2549 18.9194 14.0226 19.392 13.9285C19.8643 13.8345 20.3542 13.8827 20.7992 14.0673C21.2445 14.2519 21.6247 14.5644 21.8924 14.9655C22.1602 15.3665 22.3031 15.8379 22.3031 16.3202C22.3031 16.9669 22.0464 17.5873 21.5897 18.0445C21.1327 18.5018 20.5132 18.7588 19.8672 18.7588ZM27.1749 18.7588C26.6931 18.7588 26.222 18.6159 25.8215 18.3479C25.4208 18.0799 25.1088 17.699 24.9244 17.2535C24.74 16.808 24.6918 16.3176 24.7858 15.8445C24.8798 15.3715 25.1117 14.937 25.4523 14.5959C25.793 14.2549 26.2271 14.0226 26.6997 13.9285C27.172 13.8345 27.6619 13.8827 28.1069 14.0673C28.5522 14.2519 28.9324 14.5644 29.2001 14.9655C29.4678 15.3665 29.6108 15.8379 29.6108 16.3202C29.6108 16.9669 29.3541 17.5873 28.8973 18.0445C28.4404 18.5018 27.8209 18.7588 27.1749 18.7588Z" fill="#B567DA"/>
<path d="M34.1328 10.9414C36.8941 10.9414 39.1328 8.70283 39.1328 5.94141C39.1328 3.17998 36.8941 0.941406 34.1328 0.941406C31.3713 0.941406 29.1328 3.17998 29.1328 5.94141C29.1328 8.70283 31.3713 10.9414 34.1328 10.9414Z" fill="#B567DA"/>
</svg>
