<svg width="24" height="38" viewBox="0 0 24 38" fill="none" xmlns="http://www.w3.org/2000/svg">
<path fill-rule="evenodd" clip-rule="evenodd" d="M24 17.2476L23.9892 17.6867L24 18.1501L23.9895 18.5921L24 19.0526L23.6645 33.9497C23.6228 35.8036 22.234 37.3389 20.4182 37.5385C14.8225 38.1538 9.17751 38.1538 3.58158 37.5385C1.76581 37.3389 0.377055 35.8036 0.335456 33.9497L0 19.0526L0.0104876 18.5891L0 18.1501L0.0110233 17.6885L0 17.2476L0.299904 5.25995C0.30186 5.18072 0.305593 5.10184 0.311104 5.0235L0.330835 4.18941C0.376167 2.28209 1.81079 0.706155 3.68007 0.511036C3.83562 0.494791 3.99117 0.478906 4.1469 0.463564C4.35792 0.413746 4.57444 0.377468 4.79524 0.355627C9.58709 -0.118542 14.4129 -0.118542 19.2048 0.355627C19.4256 0.377468 19.6421 0.413746 19.8531 0.463564C20.0088 0.478906 20.1644 0.494791 20.3201 0.511036C22.1892 0.706155 23.624 2.28209 23.6692 4.18941L23.6891 5.02549C23.6944 5.1031 23.6981 5.18126 23.7001 5.25995L24 17.2476ZM19.1109 29.4312C19.8472 29.4312 20.4442 28.8251 20.4442 28.0775C20.4442 27.3299 19.8472 26.7238 19.1109 26.7238H4.8891C4.15277 26.7238 3.55581 27.3299 3.55581 28.0775C3.55581 28.8251 4.15277 29.4312 4.8891 29.4312H19.1109ZM12 36.5609C13.4727 36.5609 14.6666 35.3489 14.6666 33.8535C14.6666 32.3582 13.4727 31.146 12 31.146C10.5273 31.146 9.33341 32.3582 9.33341 33.8535C9.33341 35.3489 10.5273 36.5609 12 36.5609Z" fill="#B567DA"/>
</svg>
