<svg width="629" height="788" viewBox="0 0 629 788" fill="none" xmlns="http://www.w3.org/2000/svg">
<path d="M9.34285 55.5832C9.34285 49.8428 13.2931 47.4975 18.1245 50.3636L379.718 265.184C384.55 268.053 388.508 275.1 388.508 280.84L388.502 571.863C388.502 577.604 384.547 579.954 379.715 577.085L18.1245 362.268C13.2904 359.396 9.34015 352.349 9.34015 346.609L9.34285 55.5832Z" fill="#DEE5F0"/>
<path d="M9.34015 321.067L9.34285 59.0547L388.508 284.309L388.502 546.323L9.34015 321.067Z" fill="#BAD6FF"/>
<path d="M388.497 571.857L388.503 280.834C388.503 275.093 384.544 268.047 379.713 265.178L18.1193 50.3601C15.7277 48.9409 13.553 48.8031 11.9675 49.718V49.7125L24.1478 42.5555C25.7467 41.5276 27.9936 41.6296 30.4709 43.0984L392.065 257.919C396.896 260.788 400.852 267.834 400.852 273.578L400.849 564.595C400.849 567.571 399.788 569.638 398.09 570.534L386.076 577.597L386.073 577.584C387.571 576.602 388.497 574.632 388.497 571.857Z" fill="#EAF4FB"/>
<path d="M65.8653 513.612L133.266 482.432C148.342 474.892 159.07 462.653 165.675 449.91L240.984 494.652C234.511 517.217 218.046 533.231 218.046 533.231C218.046 533.231 176.687 566.222 165.795 573.732C154.909 581.241 143.277 574.878 143.277 574.878L65.8332 527.014C65.8332 527.014 61.508 524.875 60.5144 521.582L60.2921 520.513C59.8154 516.316 65.8653 513.612 65.8653 513.612Z" fill="#EAF4FB"/>
<path d="M65.8489 527.022L143.293 574.886C143.293 574.886 154.922 581.25 165.811 573.74C176.703 566.23 218.062 533.24 218.062 533.24C218.062 533.24 234.527 517.225 241 494.66L247.5 498.521C243.164 513.56 233.375 528.161 217.007 540.245C170.46 574.608 165.495 577.405 165.495 577.405C165.495 577.405 157.56 584.584 143.119 577.405C128.681 570.221 65.3856 529.955 65.3856 529.955C65.3856 529.955 60.1337 527.025 60.1337 524.198L60.3345 520.031C60.1256 524.2 65.8489 527.022 65.8489 527.022Z" fill="#C3CDD4"/>
<path d="M165.675 449.91L240.984 494.652C236.962 508.679 229.083 520.166 223.692 526.857L141.146 477.816C152.147 470.367 160.289 460.308 165.675 449.91Z" fill="#DDE7EE"/>
<path d="M495.161 687.443C494.73 685.456 495.756 683.372 498.327 681.846C502.711 679.244 509.797 679.244 514.155 681.846L542.797 698.979C544.969 700.277 546.057 701.983 546.059 703.686V703.691C546.059 703.697 546.059 703.703 546.059 703.711C546.065 706.183 546.073 708.658 546.078 711.132C546.083 712.852 544.988 714.569 542.787 715.881C538.4 718.485 531.297 718.471 526.94 715.864L498.297 698.739C496.131 697.444 495.046 695.752 495.043 694.054L495.022 686.6C495.022 686.878 495.099 687.159 495.161 687.443ZM509.942 690.279C507.614 689.463 504.829 689.474 502.51 690.303C504.832 691.116 507.623 691.108 509.942 690.279Z" fill="#E6CCF3"/>
<path opacity="0.3" d="M498.273 691.293L526.919 708.421C531.276 711.028 538.376 711.039 542.765 708.432C544.967 707.126 546.065 705.406 546.059 703.689C546.065 706.169 546.073 708.655 546.078 711.138C546.083 712.858 544.988 714.575 542.787 715.887C538.4 718.491 531.297 718.477 526.94 715.87L498.297 698.745C496.131 697.45 495.046 695.758 495.043 694.06L495.022 686.605C495.024 688.3 496.109 689.998 498.273 691.293Z" fill="#D6ABEA"/>
<path d="M458.045 686.873C457.723 684.944 458.754 682.949 461.242 681.469C465.626 678.859 472.716 678.859 477.073 681.469L524.516 709.838C526.688 711.136 527.768 712.839 527.765 714.537C527.765 714.537 527.768 714.531 527.768 714.526V714.551C527.768 714.551 527.768 714.556 527.768 714.564L527.789 721.975C527.794 723.695 526.694 725.417 524.482 726.726C520.1 729.333 513.011 729.336 508.654 726.726L461.207 698.357C459.043 697.062 457.962 695.364 457.956 693.669L457.935 686.22C457.937 686.438 458.004 686.653 458.045 686.873ZM473.096 689.902C470.68 688.995 467.592 689.006 465.187 689.919C467.595 690.82 470.683 690.82 473.096 689.902Z" fill="#F5D4C6"/>
<path opacity="0.3" d="M461.184 690.915L508.63 719.284C512.987 721.892 520.071 721.892 524.458 719.284C526.662 717.975 527.765 716.253 527.76 714.536L527.781 721.985C527.787 723.705 526.686 725.427 524.474 726.736C520.092 729.343 513.003 729.346 508.646 726.736L461.2 698.367C459.036 697.072 457.954 695.374 457.948 693.68L457.927 686.23C457.935 687.925 459.017 689.62 461.184 690.915Z" fill="#EFB7A1"/>
<path d="M423.646 688.206C423.29 686.258 424.321 684.235 426.836 682.738C431.223 680.134 438.307 680.134 442.664 682.738L506.222 720.745C508.399 722.048 509.479 723.749 509.476 725.449C509.476 725.443 509.479 725.435 509.479 725.43L509.5 732.881C509.503 734.601 508.402 736.324 506.192 737.633C501.808 740.24 494.722 740.24 490.362 737.633L426.804 699.624C424.64 698.331 423.555 696.636 423.55 694.941L423.529 687.49C423.531 687.729 423.604 687.966 423.646 688.206ZM438.695 691.174C436.277 690.27 433.165 690.276 430.754 691.199C433.175 692.108 436.277 692.097 438.695 691.174Z" fill="#5398FF"/>
<path opacity="0.3" d="M500.987 683.446C503.903 681.716 508.571 681.716 511.463 683.446C514.356 685.174 514.345 687.96 511.434 689.691C510.992 689.953 510.451 690.099 509.94 690.283C507.612 689.468 504.827 689.479 502.508 690.308C501.972 690.118 501.415 689.964 500.955 689.691C498.062 687.96 498.079 685.177 500.987 683.446Z" fill="#D6ABEA"/>
<path opacity="0.3" d="M463.902 683.066C466.797 681.347 471.489 681.338 474.378 683.066C477.249 684.783 477.238 687.591 474.346 689.311C473.961 689.545 473.532 689.738 473.09 689.906C470.675 688.999 467.587 689.01 465.182 689.923C464.716 689.752 464.271 689.551 463.867 689.308C460.975 687.58 460.991 684.794 463.902 683.066Z" fill="#EFB7A1"/>
<path opacity="0.3" d="M426.783 692.138L490.34 730.144C494.703 732.751 501.784 732.751 506.174 730.144C508.383 728.833 509.481 727.113 509.479 725.393L509.5 732.845C509.503 734.565 508.402 736.287 506.192 737.596C501.808 740.203 494.722 740.203 490.362 737.596L426.804 699.587C424.64 698.295 423.555 696.6 423.55 694.905L423.529 687.453C423.537 689.148 424.619 690.843 426.783 692.138Z" fill="#0050C8"/>
<path d="M437.552 718.377C437.185 716.423 438.214 714.392 440.742 712.89C445.123 710.285 452.207 710.288 456.564 712.89L487.915 731.638C490.087 732.939 491.169 734.634 491.166 736.337C491.166 736.331 491.169 736.328 491.169 736.323L491.187 743.772C491.193 745.492 490.095 747.209 487.885 748.523C483.498 751.125 476.415 751.127 472.052 748.523L440.707 729.772C438.54 728.48 437.461 726.788 437.453 725.087L437.432 717.635C437.434 717.889 437.507 718.134 437.552 718.377ZM452.593 721.325C450.188 720.427 447.094 720.424 444.679 721.345C447.092 722.251 450.188 722.243 452.593 721.325Z" fill="#D3F5C7"/>
<path d="M440.686 722.323L472.033 741.069C476.393 743.676 483.48 743.673 487.864 741.069C490.073 739.754 491.174 738.04 491.169 736.32L491.187 743.77C491.193 745.489 490.095 747.206 487.885 748.521C483.498 751.122 476.415 751.125 472.052 748.521L440.707 729.77C438.54 728.477 437.461 726.785 437.453 725.085L437.432 717.633C437.437 719.333 438.519 721.028 440.686 722.323Z" fill="#C0EFB0"/>
<path d="M443.443 714.49C446.356 712.76 451.048 712.768 453.922 714.49C456.812 716.218 456.795 719.004 453.882 720.735C453.496 720.964 453.073 721.159 452.628 721.327C450.224 720.429 447.13 720.426 444.715 721.347C444.254 721.176 443.81 720.975 443.411 720.732C440.537 719.018 440.553 716.21 443.443 714.49Z" fill="#C0EFB0"/>
<path opacity="0.3" d="M429.505 684.329C432.398 682.609 437.108 682.609 439.982 684.329C442.872 686.057 442.839 688.854 439.947 690.573C439.561 690.802 439.136 691 438.696 691.169C436.278 690.265 433.166 690.27 430.756 691.193C430.293 691.02 429.854 690.824 429.452 690.582C426.578 688.865 426.592 686.057 429.505 684.329Z" fill="#0050C8"/>
<path d="M496.829 762.347L564.367 722.222L560.334 719.824L492.794 759.95L496.829 762.347Z" fill="#DDEBFF"/>
<path d="M483.235 781.164L573.414 727.587L569.373 725.184L479.189 778.76L483.235 781.164Z" fill="#DDEBFF"/>
<path d="M539.304 758.049L582.023 732.667L577.987 730.27L535.266 755.648L539.304 758.049Z" fill="#DDEBFF"/>
<path opacity="0.4" d="M287.414 462.032L29.1032 305.382L29.1059 77.5703L287.414 234.219V462.032Z" fill="#5398FF"/>
<path d="M278.422 467.983L20.1112 311.332L20.1164 83.5234L278.422 240.172V467.983Z" fill="white"/>
<path d="M31.0692 307.883L264.891 449.687V449.152L31.0692 307.348V307.883Z" fill="#BAD1DE"/>
<path d="M31.0692 273.117L264.891 414.921V414.382L31.0692 272.578V273.117Z" fill="#BAD1DE"/>
<path d="M31.0692 238.347L264.891 380.151V379.613L31.0692 237.809V238.347Z" fill="#BAD1DE"/>
<path d="M31.0692 203.488L264.891 345.289V344.751L31.0692 202.949V203.488Z" fill="#BAD1DE"/>
<path d="M31.0666 168.679L264.888 310.483L264.891 309.945L31.0666 168.141V168.679Z" fill="#BAD1DE"/>
<path d="M31.0666 133.92L264.891 275.722V275.183L31.0666 133.379V133.92Z" fill="#BAD1DE"/>
<path d="M31.0666 99.0931L264.891 240.894V240.359L31.0666 98.5547V99.0931Z" fill="#BAD1DE"/>
<path d="M264.6 448.278L265.044 448.544L265.047 240.425L264.602 240.156L264.6 448.278Z" fill="#BAD1DE"/>
<path d="M238.602 432.509L239.044 432.778L239.047 224.656L238.602 224.387V432.509Z" fill="#BAD1DE"/>
<path d="M212.628 416.825L213.07 417.094V208.97L212.628 208.703V416.825Z" fill="#BAD1DE"/>
<path d="M186.743 401.059L187.188 401.331V193.207L186.746 192.938L186.743 401.059Z" fill="#BAD1DE"/>
<path d="M160.589 385.255L161.029 385.524L161.031 177.399L160.589 177.133V385.255Z" fill="#BAD1DE"/>
<path d="M134.579 369.481L135.021 369.75L135.023 161.629L134.584 161.359L134.579 369.481Z" fill="#BAD1DE"/>
<path d="M108.66 353.801L109.107 354.071L109.109 145.949L108.662 145.68L108.66 353.801Z" fill="#BAD1DE"/>
<path d="M82.7195 338.044L83.1614 338.313L83.1641 130.191L82.7221 129.922L82.7195 338.044Z" fill="#BAD1DE"/>
<path d="M56.6571 322.251L57.099 322.52L57.1016 114.398L56.6571 114.129V322.251Z" fill="#BAD1DE"/>
<path d="M30.7352 306.466L31.1771 306.735L31.1797 98.6129L30.7352 98.3438V306.466Z" fill="#BAD1DE"/>
<path opacity="0.4" d="M309.435 467.839L370.992 504.409V278.731L309.437 242.16L309.435 467.839Z" fill="#5398FF"/>
<path d="M298.318 474.656L359.875 511.227V285.548L298.318 248.98V474.656Z" fill="white"/>
<path d="M319.079 405.086C326.706 409.619 325.707 398.11 332.657 402.239C339.149 406.094 338.155 417.393 346.198 422.172C349.867 424.355 353.367 421.464 353.367 421.464V482.845L304.116 453.586V366.773C311.609 371.221 311.449 400.549 319.079 405.086Z" fill="#5398FF"/>
<path d="M353.367 437.023C353.367 437.023 351.49 430.145 346.2 427.003C339.701 423.142 340.815 432.832 332.662 427.99C324.51 423.145 326.864 413.979 320.145 409.983C313.422 405.989 314.253 411.766 310.616 409.605C306.979 407.444 304.116 397.336 304.116 397.336V453.559L353.367 482.818V437.023Z" fill="#0050C8"/>
<path d="M308.787 270.605C313.112 273.173 314.665 288.791 319.416 291.613C324.173 294.437 321.762 286.525 328.246 290.378C334.73 294.228 332.644 298.039 336.963 300.608C341.283 303.176 340.175 294.68 346.567 298.329C352.965 301.977 353.086 312.902 353.086 312.902V371.836L304.464 342.949V274.066C304.469 274.066 304.469 268.039 308.787 270.605Z" fill="#BAD6FF"/>
<path d="M353.086 371.85V321.58C353.086 321.58 350.86 313.241 340.316 306.977C329.77 300.713 331.085 310.394 323.653 305.976C316.221 301.561 316.738 293.429 304.467 286.137V342.96L353.086 371.85Z" fill="#8CBAFF"/>
<path d="M329.975 483.196L353.367 497.089V487.526L329.975 473.633V483.196Z" fill="#0050C8"/>
<path d="M304.147 467.829L327.531 481.722V472.159L304.147 458.266V467.829Z" fill="#5398FF"/>
<path d="M329.978 372.485L353.367 386.381V376.818L329.978 362.922V372.485Z" fill="#BAD6FF"/>
<path d="M304.147 357.076L327.531 370.969V361.409L304.147 347.516V357.076Z" fill="#BAD6FF"/>
<path opacity="0.2" d="M255.396 736.414C235.832 748.038 235.832 766.882 255.396 778.509C274.962 790.131 306.688 790.131 326.249 778.509C345.813 766.882 345.813 748.038 326.249 736.414C306.688 724.789 274.962 724.789 255.396 736.414Z" fill="#0166FF"/>
<path opacity="0.2" d="M272.809 688.316C253.245 699.943 253.245 718.785 272.809 730.412C292.376 742.033 324.098 742.033 343.665 730.412C363.226 718.785 363.226 699.94 343.665 688.316C324.098 676.692 292.376 676.692 272.809 688.316Z" fill="#0166FF"/>
<path d="M266.063 686.214C283.222 676.017 311.043 676.017 328.202 686.214C336.785 691.307 341.073 697.993 341.07 704.673V713.359C341.07 720.042 336.783 726.722 328.202 731.821C311.046 742.015 283.225 742.015 266.063 731.821C257.48 726.722 253.192 720.042 253.192 713.359V704.673C253.189 697.995 257.477 691.31 266.063 686.214Z" fill="#5398FF"/>
<path d="M266.063 686.214C248.898 696.405 248.898 712.934 266.063 723.137C283.222 733.331 311.042 733.331 328.201 723.137C345.36 712.934 345.36 696.405 328.201 686.216C311.042 676.017 283.222 676.017 266.063 686.214Z" fill="#BAD6FF"/>
<path d="M322.621 692.926C308.539 684.556 285.716 684.556 271.637 692.926C265.324 696.668 261.869 701.461 261.213 706.361C260.402 700.322 263.862 694.122 271.637 689.506C285.716 681.139 308.539 681.139 322.621 689.506C330.393 694.119 333.85 700.32 333.041 706.361C332.385 701.461 328.928 696.668 322.621 692.926Z" fill="#5398FF"/>
<path d="M257.876 671.989C275.037 661.795 302.855 661.795 320.014 671.992C328.595 677.085 332.885 683.767 332.883 690.448V699.14C332.883 705.82 328.592 712.503 320.014 717.599C302.855 727.793 275.035 727.793 257.876 717.599C249.292 712.503 245.005 705.82 245.005 699.14V690.448C245.005 683.767 249.292 677.084 257.876 671.989Z" fill="#5398FF"/>
<path d="M257.875 671.991C240.711 682.185 240.711 698.715 257.875 708.914C275.037 719.108 302.855 719.108 320.014 708.914C337.173 698.712 337.173 682.185 320.014 671.994C302.857 661.794 275.037 661.794 257.875 671.991Z" fill="#BAD6FF"/>
<path d="M314.432 678.701C300.351 670.334 277.528 670.334 263.448 678.701C257.139 682.444 253.681 687.239 253.028 692.136C252.214 686.098 255.676 679.897 263.448 675.284C277.528 666.914 300.351 666.917 314.432 675.284C322.204 679.897 325.665 686.098 324.853 692.136C324.2 687.239 320.74 682.447 314.432 678.701Z" fill="#5398FF"/>
<path d="M266.063 654.145C283.222 643.951 311.043 643.951 328.202 654.148C336.785 659.241 341.073 665.926 341.07 672.604V681.293C341.07 687.976 336.783 694.657 328.202 699.755C311.046 709.949 283.225 709.949 266.063 699.755C257.48 694.657 253.192 687.976 253.192 681.293V672.604C253.189 665.926 257.477 659.241 266.063 654.145Z" fill="#5398FF"/>
<path d="M266.063 654.145C248.898 664.336 248.898 680.866 266.063 691.068C283.222 701.262 311.042 701.262 328.201 691.068C345.36 680.866 345.36 664.336 328.201 654.148C311.042 643.951 283.222 643.951 266.063 654.145Z" fill="#BAD6FF"/>
<path d="M322.621 660.863C308.539 652.494 285.716 652.494 271.637 660.863C265.324 664.606 261.869 669.398 261.213 674.298C260.402 668.26 263.862 662.059 271.637 657.446C285.716 649.079 308.539 649.082 322.621 657.446C330.393 662.059 333.85 668.26 333.041 674.298C332.385 669.398 328.928 664.608 322.621 660.863Z" fill="#5398FF"/>
<path d="M257.876 630.188C275.037 619.994 302.855 619.994 320.014 630.191C328.595 635.284 332.885 641.969 332.883 648.647V657.336C332.883 664.016 328.592 670.699 320.014 675.798C302.855 685.992 275.035 685.992 257.876 675.798C249.292 670.699 245.007 664.016 245.007 657.336V648.647C245.007 641.967 249.292 635.284 257.876 630.188Z" fill="#5398FF"/>
<path d="M257.875 630.19C240.711 640.384 240.711 656.911 257.875 667.113C275.037 677.307 302.855 677.307 320.014 667.113C337.173 656.911 337.173 640.384 320.014 630.193C302.855 619.993 275.037 619.993 257.875 630.19Z" fill="#BAD6FF"/>
<path d="M314.432 636.902C300.351 628.533 277.528 628.533 263.448 636.902C257.139 640.647 253.681 645.44 253.028 650.337C252.214 644.299 255.676 638.098 263.448 633.482C277.528 625.113 300.351 625.118 314.432 633.482C322.204 638.095 325.665 644.296 324.853 650.337C324.197 645.437 320.74 640.645 314.432 636.902Z" fill="#5398FF"/>
<path d="M297.074 647.123L286.917 653.157L284.013 651.432L294.132 645.421C295.012 644.898 295.557 644.381 295.806 643.847C296.031 643.299 295.987 642.773 295.674 642.269C295.338 641.751 294.817 641.26 294.027 640.79C293.237 640.321 292.43 640 291.539 639.812C290.667 639.612 289.758 639.572 288.859 639.72C287.956 639.843 287.043 640.164 286.202 640.664L282.013 643.153L301.76 654.884L298.795 656.645L276.144 643.189L283.278 638.95C284.77 638.064 286.316 637.505 287.938 637.286C289.579 637.057 291.161 637.11 292.704 637.436C294.247 637.762 295.676 638.293 296.954 639.052C298.232 639.811 299.168 640.662 299.697 641.59C300.222 642.493 300.293 643.444 299.902 644.394C299.512 645.344 298.57 646.262 297.098 647.137L297.074 647.123ZM299.132 648.164L302.036 649.889L291.746 656.002L288.842 654.277L299.132 648.164Z" fill="#5398FF"/>
<path d="M185.149 702.425C202.311 692.228 230.131 692.228 247.288 702.427C255.871 707.52 260.159 714.206 260.156 720.883V729.573C260.156 736.256 255.869 742.936 247.288 748.034C230.131 758.228 202.308 758.228 185.149 748.034C176.566 742.939 172.278 736.256 172.278 729.573V720.883C172.278 714.206 176.566 707.52 185.149 702.425Z" fill="#5398FF"/>
<path d="M185.149 702.425C167.984 712.619 167.984 729.148 185.149 739.348C202.31 749.542 230.131 749.542 247.287 739.348C264.446 729.146 264.446 712.616 247.287 702.427C230.131 692.228 202.31 692.228 185.149 702.425Z" fill="#BAD6FF"/>
<path d="M241.704 709.143C227.623 700.774 204.802 700.774 190.723 709.143C184.411 712.886 180.953 717.681 180.3 722.578C179.488 716.54 182.951 710.339 190.723 705.723C204.802 697.356 227.623 697.359 241.704 705.723C249.479 710.337 252.934 716.54 252.128 722.578C251.472 717.681 248.012 712.886 241.704 709.143Z" fill="#5398FF"/>
<path d="M183.154 686.214C200.316 676.017 228.134 676.017 245.293 686.214C253.876 691.307 258.167 697.993 258.164 704.673V713.359C258.164 720.042 253.876 726.722 245.293 731.821C228.137 742.015 200.316 742.015 183.154 731.821C174.571 726.722 170.283 720.042 170.283 713.359V704.673C170.283 697.995 174.568 691.31 183.154 686.214Z" fill="#5398FF"/>
<path d="M183.154 686.214C165.99 696.408 165.99 712.934 183.154 723.137C200.316 733.331 228.134 733.331 245.293 723.137C262.454 712.934 262.454 696.408 245.293 686.216C228.134 676.017 200.313 676.017 183.154 686.214Z" fill="#BAD6FF"/>
<path d="M239.714 692.926C225.633 684.556 202.809 684.556 188.73 692.926C182.423 696.668 178.963 701.461 178.31 706.361C177.498 700.32 180.958 694.119 188.73 689.506C202.812 681.139 225.635 681.139 239.714 689.506C247.489 694.119 250.944 700.32 250.135 706.361C249.479 701.461 246.021 696.668 239.714 692.926Z" fill="#5398FF"/>
<path d="M215.662 672.28C232.824 662.083 260.642 662.083 277.801 672.283C286.384 677.376 290.675 684.059 290.672 690.739V699.428C290.672 706.111 286.384 712.791 277.801 717.89C260.644 728.084 232.824 728.084 215.662 717.89C207.079 712.791 202.791 706.111 202.791 699.428V690.739C202.791 684.059 207.076 677.376 215.662 672.28Z" fill="#5398FF"/>
<path d="M215.662 672.28C198.498 682.474 198.498 699.004 215.662 709.203C232.824 719.397 260.642 719.397 277.801 709.203C294.962 699.001 294.962 682.471 277.801 672.283C260.642 662.083 232.821 662.083 215.662 672.28Z" fill="#BAD6FF"/>
<path d="M272.222 678.991C258.14 670.621 235.317 670.621 221.238 678.991C214.931 682.734 211.471 687.529 210.817 692.426C210.006 686.388 213.466 680.187 221.238 675.571C235.32 667.204 258.143 667.207 272.222 675.571C279.997 680.184 283.452 686.385 282.643 692.426C281.987 687.529 278.529 682.736 272.222 678.991Z" fill="#5398FF"/>
<path d="M253.457 691.08L243.3 697.114L240.396 695.389L250.515 689.378C251.395 688.855 251.94 688.338 252.188 687.804C252.414 687.256 252.37 686.73 252.057 686.226C251.721 685.708 251.2 685.217 250.41 684.747C249.62 684.278 248.813 683.957 247.922 683.769C247.05 683.569 246.141 683.529 245.242 683.677C244.339 683.8 243.426 684.121 242.584 684.621L238.395 687.11L258.143 698.841L255.178 700.602L232.527 687.146L239.661 682.907C241.153 682.021 242.699 681.462 244.32 681.243C245.962 681.014 247.544 681.068 249.087 681.393C250.629 681.719 252.059 682.25 253.337 683.009C254.614 683.768 255.551 684.62 256.08 685.547C256.605 686.45 256.676 687.401 256.285 688.351C255.895 689.301 254.953 690.219 253.48 691.094L253.457 691.08ZM255.515 692.121L258.419 693.846L248.128 699.959L245.224 698.234L255.515 692.121Z" fill="#5398FF"/>
<path d="M253.529 732.544C270.691 722.35 298.509 722.35 315.671 732.546C324.251 737.639 328.542 744.325 328.539 751.005V759.694C328.539 766.377 324.251 773.058 315.671 778.156C298.509 788.35 270.691 788.35 253.529 778.156C244.946 773.058 240.658 766.377 240.658 759.694V751.005C240.658 744.322 244.946 737.636 253.529 732.544Z" fill="#5398FF"/>
<path d="M253.529 732.546C236.364 742.74 236.364 759.267 253.529 769.469C270.69 779.663 298.508 779.663 315.67 769.469C332.829 759.267 332.829 742.74 315.67 732.548C298.508 722.349 270.69 722.349 253.529 732.546Z" fill="#BAD6FF"/>
<path d="M310.087 739.258C296.008 730.888 273.182 730.888 259.103 739.258C252.796 743 249.335 747.795 248.682 752.693C247.868 746.654 251.331 740.454 259.103 735.838C273.182 727.468 296.008 727.474 310.087 735.838C317.861 740.451 321.319 746.652 320.51 752.693C319.851 747.795 316.394 743.003 310.087 739.258Z" fill="#5398FF"/>
<path d="M292.077 750.539L282.831 756.032L279.927 754.307L289.138 748.835C289.939 748.359 290.421 747.88 290.618 747.376C290.792 746.859 290.71 746.355 290.373 745.865C290.013 745.362 289.479 744.879 288.689 744.409C287.899 743.94 287.103 743.612 286.238 743.409C285.39 743.195 284.519 743.132 283.672 743.25C282.818 743.342 281.971 743.625 281.205 744.08L277.391 746.346L297.139 758.077L294.44 759.68L271.788 746.224L278.283 742.365C279.641 741.559 281.075 741.066 282.608 740.9C284.158 740.725 285.673 740.818 287.171 741.17C288.67 741.523 290.075 742.068 291.353 742.827C292.631 743.586 293.589 744.424 294.164 745.325C294.734 746.201 294.874 747.111 294.572 748.008C294.271 748.905 293.441 749.757 292.1 750.553L292.077 750.539ZM294.122 751.588L297.026 753.313L287.658 758.878L284.754 757.153L294.122 751.588Z" fill="#5398FF"/>
<path d="M501.853 381.554L510.8 376.205L517.578 373.691L508.631 379.04L501.853 381.554Z" fill="#8CBAFF"/>
<path d="M536.391 423.263L545.336 417.914L541.04 424.398L532.096 429.747L536.391 423.263Z" fill="#8CBAFF"/>
<path d="M497.108 359.458L506.056 354.109L514.32 355.62L505.373 360.968L497.108 359.458Z" fill="#8CBAFF"/>
<path d="M550.477 432.524L559.422 427.172L557.981 436.547L549.034 441.896L550.477 432.524Z" fill="#5398FF"/>
<path d="M498.38 340.034L507.327 334.688L516.055 340.009L507.11 345.361L498.38 340.034Z" fill="#8CBAFF"/>
<path d="M563.857 435.779L572.802 430.43L574.406 441.541L565.462 446.893L563.857 435.779Z" fill="#5398FF"/>
<path d="M505.312 325.747L514.259 320.398L522.422 328.922L513.477 334.274L505.312 325.747Z" fill="#8CBAFF"/>
<path d="M525.191 345.543L534.139 340.191C528.89 343.328 525.636 350.005 525.609 359.496C525.555 378.581 538.609 401.843 554.758 411.439L545.813 416.788C529.661 407.192 516.61 383.927 516.661 364.845C516.688 355.354 519.942 348.68 525.191 345.543Z" fill="#8CBAFF"/>
<path d="M575.5 413.477C572.519 415.26 569.536 417.046 566.555 418.826C561.239 422.009 553.871 421.56 545.743 416.732L554.688 411.383C562.816 416.211 570.184 416.66 575.5 413.477Z" fill="#8CBAFF"/>
<path d="M575.201 432.513L584.145 427.164L588.602 438.725L579.657 444.073L575.201 432.513Z" fill="#5398FF"/>
<path d="M578.251 430.091L587.195 424.742C586.255 425.679 585.243 426.476 584.164 427.176L575.216 432.527C576.296 431.825 577.308 431.025 578.251 430.091Z" fill="#8CBAFF"/>
<path d="M512.037 320.323L520.982 314.974L526.07 312.945L517.123 318.297L512.037 320.323Z" fill="#8CBAFF"/>
<path d="M517.068 318.297L526.016 312.945L532.617 323.632L523.672 328.981L517.068 318.297Z" fill="#5398FF"/>
<path d="M523.79 328.969L532.737 323.62C534.049 323.386 535.394 323.264 536.797 323.262L527.852 328.611C526.446 328.613 525.102 328.732 523.79 328.969Z" fill="#8CBAFF"/>
<path d="M582.966 423.266L591.913 417.914L598.656 428.46L589.712 433.812L582.966 423.266Z" fill="#5398FF"/>
<path d="M589.712 433.774L598.656 428.422L595.327 433.244L586.38 438.593L589.712 433.774Z" fill="#8CBAFF"/>
<path d="M584.654 418.978L593.602 413.629C593.146 415.142 592.608 416.561 591.987 417.881L583.039 423.233C583.661 421.913 584.199 420.491 584.654 418.978Z" fill="#8CBAFF"/>
<path d="M526.24 317.47L535.187 312.121L541.422 313.138L532.474 318.487L526.24 317.47Z" fill="#8CBAFF"/>
<path d="M532.399 318.497L541.346 313.148L545.594 324.706L536.646 330.055L532.399 318.497Z" fill="#5398FF"/>
<path d="M536.678 330.048L545.625 324.699C547.131 325.17 548.67 325.757 550.234 326.479L541.287 331.831C539.726 331.106 538.183 330.519 536.678 330.048Z" fill="#8CBAFF"/>
<path d="M586.381 406.274L595.328 400.922C595.325 401.84 595.299 402.757 595.25 403.647L586.303 408.996C586.351 408.109 586.375 407.194 586.381 406.274Z" fill="#8CBAFF"/>
<path d="M586.319 403.439L595.264 398.09C595.309 399.035 595.328 399.98 595.328 400.909L586.381 406.261C586.383 405.329 586.362 404.384 586.319 403.439Z" fill="#8CBAFF"/>
<path d="M586.294 408.962L595.241 403.613L603.484 411.914L594.54 417.263L586.294 408.962Z" fill="#5398FF"/>
<path d="M594.54 417.271L603.484 411.922L602.317 418.96L593.372 424.309L594.54 417.271Z" fill="#8CBAFF"/>
<path d="M550.769 337.442L559.717 332.09C561.278 333.222 562.815 334.468 564.32 335.785L555.373 341.137C553.871 339.814 552.331 338.574 550.769 337.442Z" fill="#8CBAFF"/>
<path d="M549.285 326.395L558.233 321.043L559.617 332.094L550.67 337.445L549.285 326.395Z" fill="#5398FF"/>
<path d="M542.656 322.435L551.604 317.086L558.227 321.021L549.279 326.373L542.656 322.435Z" fill="#8CBAFF"/>
<path d="M583.071 385.317L592.019 379.965C592.627 382.012 593.154 384.068 593.602 386.116L584.657 391.467C584.21 389.42 583.682 387.367 583.071 385.317Z" fill="#8CBAFF"/>
<path d="M564.165 350.208L573.11 344.859C574.51 346.529 575.86 348.249 577.156 350.035L568.209 355.384C566.915 353.598 565.566 351.878 564.165 350.208Z" fill="#8CBAFF"/>
<path d="M575.464 366.841L584.412 361.492C585.472 363.479 586.487 365.48 587.422 367.53L578.475 372.879C577.54 370.829 576.528 368.828 575.464 366.841Z" fill="#8CBAFF"/>
<path d="M593.412 396.535L602.36 391.184L603.484 399.586L594.537 404.935L593.412 396.535Z" fill="#8CBAFF"/>
<path d="M584.658 391.481L593.603 386.129L602.344 391.183L593.396 396.535L584.658 391.481Z" fill="#5398FF"/>
<path d="M559.574 334.661L568.518 329.312L574.742 335.698L565.797 341.047L559.574 334.661Z" fill="#8CBAFF"/>
<path d="M565.797 341.017L574.742 335.668L573.082 344.839L564.134 350.191L565.797 341.017Z" fill="#5398FF"/>
<path d="M586.644 374.075L595.591 368.727L598.883 377.484L589.935 382.833L586.644 374.075Z" fill="#8CBAFF"/>
<path d="M578.442 372.919L587.389 367.57L595.562 368.75L586.615 374.099L578.442 372.919Z" fill="#8CBAFF"/>
<path d="M568.179 355.361L577.124 350.012L583.766 347.195L574.818 352.544L568.179 355.361Z" fill="#8CBAFF"/>
<path d="M579.922 360.634L588.867 355.285L584.363 361.508L575.415 366.859L579.922 360.634Z" fill="#5398FF"/>
<path d="M574.853 352.544L583.8 347.195L588.867 355.253L579.922 360.602L574.853 352.544Z" fill="#8CBAFF"/>
<path d="M586.25 409L594.496 417.301L593.329 424.34L584.587 419.01C584.132 420.523 583.594 421.945 582.972 423.262L589.716 433.809L586.387 438.629L578.235 430.11C577.292 431.045 576.282 431.844 575.2 432.544L579.657 444.105L574.56 446.125L567.956 435.44C566.657 435.683 565.299 435.796 563.896 435.799L565.5 446.913L559.265 445.896L555.028 434.343C553.521 433.872 551.981 433.288 550.419 432.566L548.979 441.939L542.355 438.003L540.982 426.958C539.42 425.825 537.88 424.579 536.375 423.262L532.079 429.747L525.858 423.364L527.518 414.19C526.12 412.52 524.781 410.806 523.474 409.014L516.833 411.831L511.774 403.781L516.268 397.547C515.207 395.56 514.192 393.559 513.268 391.528L505.086 390.327L501.792 381.569L508.571 379.055C507.96 377.008 507.432 374.952 506.988 372.904L498.26 367.855L497.124 359.444L505.389 360.955C505.346 360.009 505.325 359.064 505.325 358.149C505.327 357.218 505.351 356.3 505.402 355.41L497.156 347.109L498.337 340.076L507.065 345.403C507.521 343.89 508.059 342.468 508.678 341.148L501.937 330.601L505.266 325.779L513.431 334.305C514.361 333.36 515.384 332.569 516.452 331.85L512.007 320.311L517.092 318.285L523.697 328.97C525.009 328.736 526.354 328.614 527.757 328.612L526.153 317.5L532.387 318.517L536.635 330.075C538.14 330.546 539.68 331.133 541.244 331.855L542.674 322.474L549.297 326.41L550.682 337.461C552.243 338.593 553.783 339.836 555.286 341.156L559.571 334.666L565.795 341.052L564.134 350.226C565.532 351.896 566.885 353.616 568.178 355.399L574.82 352.582L579.89 360.64L575.385 366.863C576.448 368.853 577.461 370.854 578.395 372.901L586.569 374.081L589.861 382.839L583.082 385.355C583.693 387.403 584.22 389.459 584.665 391.506L593.406 396.56L594.531 404.963L586.269 403.453C586.312 404.398 586.333 405.343 586.331 406.275C586.323 407.195 586.299 408.11 586.25 409ZM575.072 399.592C575.125 380.48 562.072 357.229 545.923 347.633C529.773 338.037 516.634 345.728 516.581 364.84C516.527 383.922 529.581 407.187 545.733 416.783C561.882 426.379 575.021 418.674 575.072 399.592Z" fill="#BAD6FF"/>
<g opacity="0.86">
<path d="M505.068 247.719L514.016 242.37L520.805 239.852L511.857 245.2L505.068 247.719Z" fill="#BAE2FF"/>
<path d="M529.607 276.521L538.555 271.172L532.904 276.014L523.957 281.365L529.607 276.521Z" fill="#BAE2FF"/>
<path d="M545.553 288.074L554.5 282.723L553.07 292.31L544.125 297.659L545.553 288.074Z" fill="#5D8DC7"/>
<path d="M501.499 221.685L510.447 216.336L519.078 219.805L510.131 225.154L501.499 221.685Z" fill="#BAE2FF"/>
<path d="M560.228 289.173L569.176 283.824L572.344 295.578L563.396 300.927L560.228 289.173Z" fill="#5D8DC7"/>
<path d="M508.462 203.031L517.41 197.68L525.586 206.214L516.639 211.563L508.462 203.031Z" fill="#BAE2FF"/>
<path d="M525.298 221.313L534.243 215.961C530.269 218.337 527.808 223.391 527.786 230.573C527.746 245.044 537.626 262.651 549.852 269.913L540.904 275.262C528.678 267.997 518.798 250.39 518.839 235.919C518.863 228.743 521.324 223.688 525.298 221.313Z" fill="#BAE2FF"/>
<path d="M565.594 271.473C562.61 273.259 559.629 275.039 556.646 276.822C552.617 279.231 547.041 278.892 540.884 275.232L549.832 269.883C555.989 273.54 561.566 273.879 565.594 271.473Z" fill="#BAE2FF"/>
<path d="M572.828 282.042L563.883 287.393C564.328 287.126 564.767 286.85 565.209 286.567L574.156 281.215C573.714 281.499 573.273 281.774 572.828 282.042Z" fill="#BAE2FF"/>
<path d="M518.037 210.728C521.02 208.945 524.001 207.162 526.981 205.379C528.136 204.69 529.317 204.076 530.578 203.621L521.631 208.97C520.372 209.425 519.191 210.037 518.037 210.728Z" fill="#BAE2FF"/>
<path d="M576.724 290.247L585.672 284.898L582.33 289.699L573.382 295.048L576.724 290.247Z" fill="#BAE2FF"/>
<path d="M569.81 279.497L578.757 274.148L585.672 284.921L576.724 290.27L569.81 279.497Z" fill="#5D8DC7"/>
<path d="M524.161 196.697L533.106 191.348L538.617 202.644L529.67 207.992L524.161 196.697Z" fill="#5D8DC7"/>
<path d="M518.464 197.201L527.412 191.852L533.164 191.348L524.219 196.697L518.464 197.201Z" fill="#BAE2FF"/>
<path d="M571.712 272.943L580.656 267.594C580.115 269.947 579.518 272.168 578.701 274.139L569.754 279.488C570.573 277.515 571.171 275.293 571.712 272.943Z" fill="#BAE2FF"/>
<path d="M529.706 207.965L538.651 202.613C540.82 203.134 542.998 203.729 545.258 204.658L536.31 210.007C534.053 209.081 531.876 208.486 529.706 207.965Z" fill="#BAE2FF"/>
<path d="M545.738 215.443L554.685 210.094C556.94 212.064 559.117 214.057 561.188 216.245L552.24 221.594C550.17 219.405 547.993 217.413 545.738 215.443Z" fill="#BAE2FF"/>
<path d="M570.043 252.935L578.991 247.586C579.631 250.529 580.212 253.456 580.555 256.33L571.61 261.679C571.267 258.805 570.683 255.881 570.043 252.935Z" fill="#BAE2FF"/>
<path d="M580.404 268.572L589.352 263.223L589.33 271.052L580.383 276.404L580.404 268.572Z" fill="#BAE2FF"/>
<path d="M571.599 261.665L580.546 256.316L589.352 263.206L580.404 268.555L571.599 261.665Z" fill="#5D8DC7"/>
<path d="M544.392 204.439L553.337 199.09L554.711 210.121L545.764 215.47L544.392 204.439Z" fill="#5D8DC7"/>
<path d="M537.734 200.482L546.679 195.133L553.312 199.074L544.368 204.422L537.734 200.482Z" fill="#BAE2FF"/>
<path d="M560.544 231.868L569.489 226.52C571.139 229.38 572.735 232.218 574.141 235.123L565.193 240.472C563.787 237.567 562.194 234.726 560.544 231.868Z" fill="#BAE2FF"/>
<path d="M565.19 240.474L574.137 235.125L582.484 236.299L573.537 241.648L565.19 240.474Z" fill="#BAE2FF"/>
<path d="M573.495 241.661L582.443 236.312L585.742 245.073L576.798 250.425L573.495 241.661Z" fill="#BAE2FF"/>
<path d="M557.858 216.736L566.803 211.387L572.523 218.706L563.576 224.055L557.858 216.736Z" fill="#BAE2FF"/>
<path d="M571.74 272.945C571.199 275.296 570.602 277.52 569.785 279.49L576.7 290.263L573.358 295.063L565.195 286.553C563.615 287.576 562.01 288.515 560.246 289.141L563.414 300.895L557.672 301.405L552.16 290.108C549.991 289.59 547.814 289.006 545.556 288.077L544.126 297.662L537.492 293.721L536.121 282.676C533.863 280.719 531.688 278.716 529.618 276.538L523.967 281.383L518.236 274.058L521.367 266.237C519.717 263.39 518.124 260.552 516.715 257.633L508.359 256.451L505.068 247.707L511.857 245.185C511.217 242.239 510.633 239.315 510.293 236.441L501.487 229.534L501.508 221.702L510.14 225.169C510.678 222.815 511.278 220.58 512.092 218.61L505.177 207.851L508.506 203.028L516.683 211.561C518.263 210.538 519.864 209.598 521.619 208.964L518.45 197.197L524.206 196.695L529.717 207.992C531.887 208.512 534.064 209.108 536.322 210.037L537.752 200.452L544.386 204.392L545.757 215.424C548.012 217.395 550.189 219.387 552.259 221.575L557.91 216.717L563.631 224.036L560.513 231.866C562.163 234.726 563.757 237.565 565.163 240.47L573.508 241.644L576.81 250.407L570.021 252.926C570.661 255.872 571.245 258.796 571.588 261.671L580.391 268.563L580.369 276.395L571.74 272.945ZM563.082 262.205C563.122 247.748 553.242 230.141 541.006 222.871C528.777 215.609 518.836 221.438 518.796 235.895C518.756 250.366 528.635 267.973 540.861 275.238C553.1 282.508 563.044 276.676 563.082 262.205Z" fill="#A0CAEF"/>
<path d="M563.576 224.021L572.523 218.672L569.404 226.498L560.459 231.85L563.576 224.021Z" fill="#5D8DC7"/>
</g>
<g opacity="0.6">
<path d="M485.537 311.724L494.484 306.375L493.113 315.337L484.169 320.686L485.537 311.724Z" fill="#5398FF"/>
<path d="M455.614 269.767L464.561 264.418L472.82 267.733L463.873 273.085L455.614 269.767Z" fill="#5398FF"/>
<path d="M497.461 296.845L488.516 302.194C486.559 303.362 483.851 303.199 480.862 301.422L489.807 296.07C492.796 297.848 495.506 298.013 497.461 296.845Z" fill="#5398FF"/>
<path d="M473.335 275.228L482.28 269.879C480.352 271.034 479.15 273.486 479.144 276.978C479.123 284 483.925 292.56 489.852 296.079L480.907 301.431C474.982 297.912 470.178 289.352 470.199 282.33C470.202 278.835 471.404 276.383 473.335 275.228Z" fill="#5398FF"/>
<path d="M460.691 258.247L469.636 252.896L474.328 250.129L465.381 255.481L460.691 258.247Z" fill="#5398FF"/>
<path d="M496.299 308.275L505.246 302.926L510.109 313.852L501.162 319.201L496.299 308.275Z" fill="#8CBAFF"/>
<path d="M465.366 255.481L474.313 250.129L481.086 259.937L472.139 265.288L465.366 255.481Z" fill="#8CBAFF"/>
<path d="M498.055 304.447L507 299.098C506.59 300.597 506.006 301.909 505.262 302.986L496.315 308.335C497.059 307.258 497.646 305.946 498.055 304.447Z" fill="#5398FF"/>
<path d="M472.12 265.286L481.065 259.934C482.361 259.829 483.754 259.986 485.227 260.378L476.282 265.729C474.809 265.335 473.416 265.178 472.12 265.286Z" fill="#5398FF"/>
<path d="M496.341 287.454L505.289 282.105C506.023 284.081 506.598 286.068 507 288.047L498.053 293.399C497.648 291.414 497.075 289.428 496.341 287.454Z" fill="#5398FF"/>
<path d="M485.613 271.259L494.56 265.91C496.03 267.266 497.415 268.76 498.711 270.408L489.764 275.757C488.473 274.109 487.083 272.612 485.613 271.259Z" fill="#5398FF"/>
<path d="M506.326 299.895L515.273 294.543L515.252 302.375L506.305 307.727L506.326 299.895Z" fill="#5398FF"/>
<path d="M498.075 293.387L507.022 288.035L515.273 294.525L506.326 299.877L498.075 293.387Z" fill="#8CBAFF"/>
<path d="M477.664 256.779L486.611 251.43L493.242 255.368L484.297 260.719L477.664 256.779Z" fill="#5398FF"/>
<path d="M484.371 260.711L493.315 255.359L494.633 265.917L485.683 271.268L484.371 260.711Z" fill="#8CBAFF"/>
<path d="M501.274 282.337L510.219 276.988L505.313 282.106L496.368 287.457L501.274 282.337Z" fill="#5398FF"/>
<path d="M489.795 275.756L498.739 270.407L505.539 268.66L496.594 274.009L489.795 275.756Z" fill="#5398FF"/>
<path d="M498.021 304.416C497.611 305.915 497.025 307.227 496.283 308.305L501.147 319.232L496.454 321.999L489.687 312.188C488.388 312.295 486.993 312.155 485.522 311.747L484.154 320.709L477.52 316.768L476.202 306.207C474.732 304.868 473.347 303.358 472.051 301.713L465.251 303.457L460.589 295.134L465.495 290.017C464.761 288.054 464.188 286.054 463.784 284.075L455.535 277.582L455.556 269.753L463.816 273.071C464.228 271.574 464.812 270.276 465.557 269.179L460.693 258.255L465.383 255.488L472.156 265.296C473.452 265.189 474.844 265.346 476.317 265.74L477.689 256.778L484.322 260.719L485.635 271.277C487.105 272.633 488.495 274.129 489.786 275.774L496.586 274.027L501.248 282.35L496.342 287.467C497.076 289.443 497.652 291.428 498.053 293.409L506.305 299.899L506.283 307.731L498.021 304.416ZM491.669 295.132C491.687 288.11 486.888 279.55 480.948 276.022C475.019 272.5 470.187 275.333 470.171 282.355C470.15 289.377 474.952 297.937 480.878 301.456C486.816 304.987 491.65 302.154 491.669 295.132Z" fill="#DDEBFF"/>
<path d="M496.612 274.009L505.556 268.66L510.219 276.983L501.274 282.332L496.612 274.009Z" fill="#5398FF"/>
</g>
<path opacity="0.5" d="M480.82 116.729L471.803 102.762L456.942 113.706L443.096 92.6538L429.772 99.1714L414.654 83.8047V129.169L480.82 168.476V116.729Z" fill="#BAE2FF"/>
<path opacity="0.5" d="M363.19 85.2419L405.719 110.505V107.485L363.19 82.2188V85.2419Z" fill="#BAE2FF"/>
<path opacity="0.5" d="M348.931 83.5076L405.719 117.245V114.222L348.931 80.4844V83.5076Z" fill="#BAE2FF"/>
<path opacity="0.5" d="M378.817 107.691L405.719 123.672V120.649L378.817 104.668V107.691Z" fill="#BAE2FF"/>
<path d="M480.82 150.554L468.844 129.11L457.164 134.991L442.308 111.139L426.631 118.36L414.657 105.391L414.654 129.152L480.82 168.459V150.554Z" fill="#BAE2FF"/>
<path opacity="0.5" d="M274.068 101.044C284.558 108.347 293.974 85.3159 298.479 87.8596C302.984 90.4032 305.905 98.5579 314.186 103.265C322.459 107.972 331.618 104.287 331.618 104.287L332.422 182.301L236.946 125.579V59.9922C260.294 66.9122 263.58 93.7434 274.068 101.044Z" fill="#BAE2FF"/>
<path d="M264.501 86.9259C267.707 92.8207 270.479 97.9246 274.118 100.457C280.235 104.699 286.119 97.9742 290.838 92.5562C294.1 88.8082 296.457 86.0991 298.468 87.2373C300.578 88.4306 302.215 90.5664 304.164 93.0715C306.698 96.3317 309.558 100.025 314.173 102.643C322.167 107.19 331.195 103.651 331.283 103.615L331.961 104.966C331.602 105.104 323.777 108.168 315.954 104.767V172.518L315.694 172.361V104.654C315.193 104.426 314.698 104.178 314.197 103.891C309.312 101.105 306.16 97.0703 303.639 93.8321C301.829 91.5007 300.252 89.4999 298.495 88.4885C297.9 88.155 297.132 88.4416 296.242 89.0948L296.24 160.805L295.983 160.648V89.2904C294.713 90.3046 293.229 92.0077 291.698 93.7687C286.973 99.1868 281.135 105.895 274.654 102.047C274.44 101.921 274.236 101.788 274.024 101.64C273.706 101.416 273.395 101.174 273.087 100.923V147.054L272.83 146.899L272.833 100.697C269.402 97.7289 266.753 92.8703 263.74 87.331C260.679 81.7035 257.404 75.6792 252.776 70.6359V134.983L252.516 134.828V70.3548C248.571 66.1273 243.649 62.6219 237.074 60.6762L236.817 59.3203C251.927 63.7959 258.898 76.6162 264.501 86.9259Z" fill="#BAE2FF"/>
<path opacity="0.5" d="M611.82 313.37C611.82 319.008 615.666 325.865 620.411 328.681C625.154 331.5 629.003 329.216 629 323.577C629 317.942 625.154 311.085 620.411 308.266C615.666 305.447 611.82 307.732 611.82 313.37Z" fill="#BAE2FF"/>
<path opacity="0.5" d="M611.82 474.806C611.82 480.444 615.666 487.298 620.411 490.117C625.154 492.936 629.003 490.651 629 485.013C629 479.375 625.154 472.521 620.411 469.702C615.666 466.886 611.82 469.17 611.82 474.806Z" fill="#BAE2FF"/>
<path opacity="0.5" d="M346.357 26.3175C346.357 31.9558 350.202 38.8121 354.948 41.6285C359.691 44.4477 363.539 42.1631 363.539 36.5248C363.539 30.8893 359.693 24.0329 354.951 21.2138C350.202 18.3974 346.357 20.6819 346.357 26.3175Z" fill="#BAE2FF"/>
<path opacity="0.5" d="M180.029 35.5263C180.029 39.2107 182.541 43.6888 185.639 45.5297C188.738 47.3705 191.25 45.8797 191.25 42.1952C191.25 38.5135 188.735 34.0354 185.639 32.1945C182.541 30.3537 180.029 31.8473 180.029 35.5263Z" fill="#BAE2FF"/>
<path opacity="0.5" d="M290.482 4.12099C290.482 7.80545 292.994 12.2836 296.093 14.1217C299.191 15.9653 301.703 14.4717 301.703 10.7872C301.703 7.10549 299.188 2.62737 296.093 0.786512C292.994 -1.05159 290.482 0.442039 290.482 4.12099Z" fill="#BAE2FF"/>
<path opacity="0.5" d="M371.784 163.058C371.784 166.742 374.299 171.22 377.397 173.061C380.496 174.902 383.008 173.411 383.008 169.726C383.008 166.045 380.496 161.567 377.397 159.726C374.296 157.885 371.784 159.379 371.784 163.058Z" fill="#BAE2FF"/>
<path opacity="0.5" d="M427.695 197.644C427.695 199.976 429.285 202.809 431.246 203.974C433.206 205.14 434.797 204.195 434.797 201.866C434.797 199.535 433.206 196.699 431.246 195.536C429.285 194.368 427.695 195.313 427.695 197.644Z" fill="#BAE2FF"/>
<path opacity="0.5" d="M312.171 57.8614C312.171 60.1928 313.762 63.0284 315.722 64.1914C317.683 65.3571 319.273 64.4118 319.273 62.0832C319.273 59.7518 317.683 56.9189 315.722 55.7532C313.759 54.5875 312.171 55.5328 312.171 57.8614Z" fill="#BAE2FF"/>
<path opacity="0.5" d="M137.788 12.785C137.788 15.1163 139.377 17.952 141.34 19.115C143.3 20.2807 144.891 19.3354 144.891 17.0068C144.891 14.6754 143.297 11.8425 141.34 10.6768C139.379 9.50835 137.788 10.4536 137.788 12.785Z" fill="#BAE2FF"/>
<path opacity="0.5" d="M398.687 223.498C398.687 225.829 400.275 228.662 402.238 229.828C404.198 230.994 405.789 230.048 405.789 227.717C405.789 225.386 404.198 222.553 402.238 221.384C400.275 220.221 398.687 221.167 398.687 223.498Z" fill="#BAE2FF"/>
<path opacity="0.2" d="M15.0203 731.393C-2.47728 741.79 -2.47729 758.642 15.0184 769.035C32.5142 779.431 60.8837 779.431 78.3775 769.039C95.8732 758.642 95.8751 741.79 78.3775 731.395C60.8856 720.999 32.5161 720.999 15.0203 731.393Z" fill="#0166FF"/>
<path d="M12.6478 718.459C29.5018 708.446 56.8263 708.446 73.6803 718.46C82.1063 723.467 86.3222 730.028 86.3203 736.591V749.408C86.3203 755.971 82.1063 762.532 73.6803 767.54C56.8263 777.551 29.5018 777.551 12.6478 767.539C4.22179 762.53 0.0078116 755.969 0.0078116 749.406V736.589C0.0078116 730.028 4.22179 723.465 12.6478 718.459Z" fill="url(#paint0_linear_5929_1323)"/>
<path d="M12.6488 718.459C-4.20522 728.471 -4.20522 744.706 12.6488 754.717C29.5027 764.733 56.8273 764.733 73.6812 754.719C90.5333 744.706 90.5333 728.471 73.6812 718.46C56.8273 708.446 29.5027 708.446 12.6488 718.459Z" fill="white"/>
<path d="M14.9955 719.341C18.1305 717.479 21.2048 716.15 25.1481 714.95C44.8795 708.966 68.9631 713.635 78.9395 725.378C86.9605 734.828 83.4072 745.976 71.4354 753.086C68.5277 754.816 65.1278 756.303 61.2697 757.473C41.5288 763.454 17.4546 758.788 7.47815 747.044C-0.503026 737.648 2.4445 726.796 14.9955 719.341ZM24.158 747.538C34.6134 753.792 51.6226 753.792 62.148 747.538C72.6735 741.285 72.7284 731.148 62.2711 724.895C51.8157 718.642 34.8008 718.638 24.2754 724.893C13.7499 731.144 13.7007 741.285 24.158 747.538Z" fill="#EAF4FB"/>
<path d="M15.0454 710.742L15.0662 719.296L24.3438 724.845L24.3267 716.294L15.0454 710.742Z" fill="#E6CCF3"/>
<path d="M15.0345 710.756L24.3162 716.306C34.8492 710.049 51.8546 710.049 62.3119 716.304C64.3546 717.524 65.9883 718.899 67.2301 720.356L78.9766 716.795C69.002 705.053 44.926 700.385 25.1869 706.367C21.2456 707.567 18.1713 708.896 15.0345 710.756Z" fill="#EFDDF7"/>
<path d="M24.3171 716.326L24.3341 724.878C34.8653 718.621 51.8726 718.622 62.3318 724.876C64.3744 726.095 66.0081 727.468 67.25 728.927L67.2311 720.376C65.9892 718.917 64.3536 717.543 62.3129 716.324C51.8556 710.069 34.8501 710.069 24.3171 716.326Z" fill="#D6ABEA"/>
<path d="M67.2097 720.354L67.2286 728.907L78.9766 725.346L78.9576 716.793L67.2097 720.354Z" fill="#E6CCF3"/>
<path opacity="0.2" d="M26.5083 725.231C15.8257 731.578 15.8257 741.867 26.5083 748.214C37.189 754.562 54.5105 754.562 65.1912 748.214C75.8738 741.867 75.8738 731.578 65.1912 725.231C54.5105 718.886 37.1909 718.886 26.5083 725.231Z" fill="#438BE3"/>
<path d="M24.2541 722.097C34.7625 715.853 51.7983 715.853 62.3067 722.097C67.5599 725.217 70.1894 729.31 70.1875 733.401V736.257C70.1875 740.347 67.5599 744.44 62.3067 747.561C51.7983 753.804 34.7625 753.804 24.2522 747.559C18.9989 744.438 16.3714 740.347 16.3714 736.257V733.401C16.3714 729.31 18.9989 725.219 24.2541 722.097Z" fill="url(#paint1_linear_5929_1323)"/>
<path d="M24.2536 722.097C13.7433 728.34 13.7433 738.462 24.2517 744.703C34.762 750.947 51.7978 750.947 62.3062 744.705C72.8127 738.46 72.8165 728.34 62.3062 722.097C51.7978 715.853 34.762 715.853 24.2536 722.097Z" fill="white"/>
<path d="M249.532 432.641C250.227 433.089 250.896 433.379 251.532 433.502C252.178 433.623 252.791 433.541 253.375 433.262L254.145 434.873C253.561 435.151 252.855 435.22 252.022 435.065C251.193 434.913 250.313 434.54 249.379 433.939C248.446 433.337 247.543 432.605 246.766 431.808C245.996 431.017 245.335 430.149 244.785 429.212C244.242 428.28 243.822 427.291 243.525 426.249C243.227 425.206 243.078 424.123 243.078 423.009C243.078 421.895 243.223 421.006 243.51 420.335C243.807 419.672 244.223 419.221 244.754 418.986C245.297 418.754 245.948 418.732 246.706 418.925C247.465 419.118 248.304 419.509 249.227 420.103C250.149 420.698 251.041 421.464 251.87 422.385C252.699 423.301 253.409 424.282 253.992 425.313L253.223 425.932C252.639 424.9 252.022 424.029 251.379 423.333C250.744 422.628 250.078 422.049 249.379 421.598C248.826 421.241 248.309 421.017 247.825 420.929C247.342 420.826 246.929 420.888 246.58 421.109C246.231 421.33 245.956 421.72 245.751 422.285C245.558 422.842 245.457 423.592 245.457 424.547C245.457 425.503 245.554 426.388 245.751 427.207C245.955 428.021 246.239 428.763 246.599 429.44C246.967 430.123 247.398 430.733 247.889 431.272C248.387 431.798 248.937 432.257 249.532 432.64L249.532 432.641Z" fill="#003990"/>
<path d="M204.15 392.563L200.741 390.346L196.329 400.789L198.462 402.176L199.629 399.343L205.261 403.006L206.559 407.441L208.692 408.829L204.15 392.563ZM200.146 398.145L202.369 392.934L202.518 393.031L204.741 401.133L200.146 398.145Z" fill="#003990"/>
<path d="M219.305 404.611C219.09 403.919 218.778 403.248 218.372 402.613C217.967 401.963 217.47 401.349 216.874 400.771C216.291 400.187 215.629 399.651 214.889 399.168L209.555 395.688L209.555 409.043L211.704 410.445L211.703 405.936L214.889 408.014C215.629 408.497 216.291 408.834 216.875 409.02C217.466 409.202 217.967 409.24 218.373 409.133C218.778 409.012 219.09 408.755 219.305 408.352C219.521 407.94 219.633 407.388 219.633 406.686C219.629 405.987 219.521 405.296 219.305 404.612L219.305 404.611ZM216.696 407.097C216.272 407.314 215.67 407.165 214.889 406.656L211.703 404.577L211.703 398.443L214.889 400.521C215.67 401.031 216.272 401.677 216.696 402.456C217.131 403.233 217.346 404.144 217.346 405.189C217.35 406.242 217.131 406.873 216.696 407.096L216.696 407.097Z" fill="#003990"/>
<path d="M243.53 417.126L237.758 426.694L235.46 425.198L237.308 421.988L236.122 421.216L231.898 409.555L234.345 411.147L237.824 420.797L237.973 420.894L241.233 415.631L243.53 417.126Z" fill="#003990"/>
<path d="M227.017 412.978L231.426 422.954L228.98 421.36L225.251 412.899L222.657 411.208L222.649 417.235L220.5 415.835L220.5 402.496L222.649 403.896L222.642 409.661L225.084 411.253L228.5 407.709L230.871 409.254L227.017 412.978Z" fill="#003990"/>
<path d="M31.917 132.076C32.1075 132.199 32.2801 132.297 32.4341 132.37C32.5875 132.443 32.7291 132.481 32.8584 132.486C32.9877 132.49 33.1087 132.457 33.2228 132.388C33.3363 132.319 33.4456 132.197 33.5502 132.024L30.9844 124.41L31.9347 125.024L34.0108 131.306L35.6535 127.425L36.5206 127.985C36.324 128.399 36.1287 128.828 35.9348 129.27C35.7409 129.714 35.5456 130.157 35.349 130.601C35.2011 130.935 35.0492 131.271 34.8924 131.61C34.7356 131.948 34.5706 132.269 34.3987 132.572C34.2818 132.782 34.1574 132.969 34.0253 133.132C33.8933 133.295 33.753 133.411 33.6052 133.481C33.3776 133.582 33.1287 133.585 32.8578 133.489C32.5868 133.393 32.2733 133.23 31.9164 133L31.9163 132.075L31.917 132.076Z" fill="#898995"/>
<path d="M42.4113 139.63L41.6088 139.111L41.6086 132L38.0838 129.722L38.084 136.833L37.2815 136.315L37.2812 128.309L42.4118 131.624L42.412 139.63L42.4113 139.63Z" fill="#898995"/>
<path d="M44.0705 140.54L44.0703 132.523L46.3313 133.986C47.0513 134.452 47.6138 135.034 48.0202 135.731C48.4259 136.429 48.6295 137.231 48.6295 138.139C48.6295 138.6 48.5635 138.961 48.4308 139.223C48.2988 139.486 48.1159 139.655 47.8821 139.73C47.6854 139.799 47.4392 139.795 47.1436 139.718C46.8486 139.64 46.5219 139.486 46.1657 139.255L44.8736 138.419L44.8737 141.061L44.0705 140.542L44.0705 140.54ZM44.8736 137.522L46.1286 138.334C46.3624 138.485 46.59 138.596 46.8114 138.668C47.0328 138.739 47.2144 138.741 47.356 138.675C47.4977 138.615 47.6084 138.502 47.6881 138.334C47.7679 138.167 47.8078 137.909 47.8077 137.561C47.8077 136.412 47.303 135.512 46.2942 134.859L44.8728 133.939L44.8729 137.523L44.8736 137.522Z" fill="#898995"/>
<path d="M54.5526 147.169L53.6854 146.61L53.1683 144.559L49.9384 142.475L49.422 143.86L48.5549 143.3L50.9814 136.874L52.1346 137.618L54.5526 147.169ZM52.9008 143.492L51.5535 138.102L50.2066 141.754L52.9008 143.492Z" fill="#898995"/>
<path d="M55.4141 139.59L57.7025 141.07C58.0161 141.273 58.3008 141.48 58.5559 141.69C58.811 141.9 59.0407 142.155 59.2436 142.452C59.4217 142.711 59.573 143.013 59.6961 143.357C59.8192 143.701 59.8804 144.077 59.8804 144.485C59.8804 144.894 59.8048 145.207 59.6542 145.427C59.5036 145.647 59.2712 145.731 58.9576 145.679C59.3757 146.04 59.6893 146.46 59.899 146.939C60.1081 147.418 60.2126 147.93 60.2126 148.474C60.1941 148.96 60.1081 149.294 59.9541 149.474C59.8001 149.654 59.6034 149.745 59.3634 149.749C59.1234 149.752 58.8546 149.686 58.5561 149.551C58.2577 149.414 57.9579 149.249 57.6567 149.054L55.4143 147.604L55.4141 139.592L55.4141 139.59ZM56.2166 141.004L56.2166 143.622L57.4716 144.434C57.6435 144.545 57.8223 144.645 58.0066 144.734C58.1909 144.823 58.3573 144.867 58.5051 144.864C58.677 144.869 58.8173 144.815 58.9253 144.699C59.0332 144.584 59.0896 144.365 59.0958 144.045C59.0958 143.788 59.0586 143.559 58.985 143.356C58.9115 143.154 58.8097 142.969 58.6804 142.802C58.5511 142.635 58.4033 142.485 58.2376 142.351C58.0712 142.218 57.8965 142.091 57.7115 141.972L56.2166 141.005L56.2166 141.004ZM57.6285 148.139C57.8251 148.266 58.0239 148.384 58.224 148.49C58.4241 148.597 58.6146 148.662 58.7961 148.684C58.9776 148.707 59.1234 148.662 59.2341 148.548C59.3448 148.434 59.4005 148.219 59.4005 147.902C59.4005 147.63 59.3592 147.381 59.276 147.153C59.1928 146.926 59.0821 146.718 58.9439 146.53C58.8057 146.343 58.6468 146.172 58.4687 146.019C58.2899 145.866 58.1091 145.73 57.9241 145.611L56.2167 144.506L56.2167 147.227L57.6285 148.14L57.6285 148.139Z" fill="#898995"/>
<path d="M65.4644 153.922L65.4642 146.824L62.7239 145.055C62.7116 145.454 62.7006 145.861 62.6916 146.277C62.6827 146.693 62.6745 147.102 62.669 147.505C62.669 147.731 62.6642 147.997 62.6553 148.304C62.6463 148.611 62.6353 148.922 62.623 149.238C62.6106 149.554 62.5893 149.85 62.5584 150.123C62.5274 150.397 62.4848 150.61 62.4291 150.763C62.3246 151.08 62.1458 151.269 61.8941 151.333C61.6418 151.396 61.2787 151.282 60.8049 150.991L60.8049 150.019C61.0325 150.166 61.225 150.202 61.3818 150.126C61.5386 150.051 61.6417 149.897 61.6912 149.665C61.7586 149.438 61.8006 149.127 61.8157 148.733C61.8308 148.34 61.8445 147.967 61.8569 147.613C61.8693 146.958 61.883 146.299 61.8981 145.634C61.9132 144.969 61.9214 144.306 61.9214 143.643L66.2673 146.45L66.2676 154.439L65.4651 153.921L65.4644 153.922Z" fill="#898995"/>
<path d="M68.5354 155.764L67.64 155.185L69.0331 152.9C68.8303 152.709 68.6412 152.496 68.4658 152.262C68.2905 152.028 68.1385 151.774 68.0092 151.501C67.8799 151.229 67.7782 150.938 67.7046 150.63C67.631 150.321 67.5938 150.001 67.5938 149.669C67.5938 149.216 67.6495 148.866 67.7602 148.62C67.8709 148.374 68.0291 148.216 68.2353 148.145C68.4416 148.075 68.6905 148.087 68.9828 148.18C69.275 148.275 69.5996 148.438 69.9565 148.669L72.3743 150.232L72.3745 158.245L71.572 157.726L71.5719 154.723L69.837 153.601L68.536 155.762L68.5354 155.764ZM71.5712 153.829L71.5711 150.61L69.9469 149.559C69.4236 149.221 69.0365 149.103 68.7841 149.204C68.5317 149.305 68.4059 149.625 68.4059 150.161C68.4059 150.501 68.4534 150.804 68.549 151.07C68.6446 151.335 68.7766 151.583 68.9458 151.814C69.1149 152.045 69.3061 152.251 69.5179 152.433C69.7297 152.616 69.9559 152.785 70.1959 152.94L71.5712 153.83L71.5712 153.829Z" fill="#898995"/>
<path d="M74.008 159.068L74.0078 151.106L74.811 151.623L74.8111 155.159L75.8721 155.841C75.8969 155.332 75.9766 154.898 76.1121 154.543C76.2475 154.187 76.438 153.926 76.6842 153.762C76.9303 153.597 77.2315 153.539 77.5884 153.589C77.9453 153.638 78.3606 153.815 78.8344 154.119C79.3384 154.443 79.7833 154.833 80.1677 155.287C80.5521 155.741 80.874 156.231 81.1318 156.756C81.3904 157.283 81.5836 157.837 81.7129 158.42C81.8422 159.002 81.9069 159.586 81.9069 160.171C81.9069 160.757 81.8423 161.256 81.713 161.669C81.5838 162.081 81.3899 162.385 81.132 162.579C80.8735 162.773 80.5523 162.85 80.1679 162.809C79.7836 162.768 79.3387 162.585 78.8346 162.261C78.3608 161.957 77.9455 161.599 77.5886 161.189C77.2317 160.78 76.9305 160.335 76.6843 159.854C76.4381 159.373 76.2476 158.867 76.1122 158.337C75.9767 157.807 75.8969 157.271 75.8721 156.73L74.8111 156.047L74.8112 159.584L74.008 159.067L74.008 159.068ZM78.8337 155.008C78.4521 154.763 78.1248 154.637 77.8511 154.63C77.5774 154.623 77.3526 154.709 77.1772 154.889C77.0019 155.07 76.874 155.326 76.7942 155.662C76.7145 155.998 76.6746 156.379 76.6746 156.807C76.6746 157.235 76.7145 157.666 76.7943 158.1C76.8741 158.534 77.0006 158.953 77.1725 159.356C77.3445 159.76 77.5679 160.134 77.8416 160.479C78.1153 160.824 78.4461 161.121 78.8339 161.371C79.2217 161.62 79.5566 161.751 79.8399 161.764C80.1225 161.776 80.355 161.697 80.5365 161.525C80.718 161.353 80.8535 161.104 80.9429 160.778C81.0322 160.453 81.0769 160.072 81.0769 159.637C81.0769 159.201 81.0322 158.762 80.9428 158.317C80.8534 157.873 80.7165 157.447 80.5322 157.04C80.3479 156.633 80.1155 156.254 79.8356 155.905C79.5558 155.556 79.2222 155.257 78.8344 155.008L78.8337 155.008Z" fill="#898995"/>
<path d="M83.1186 156.767L83.921 157.284L83.9212 164.371L86.3665 165.947L86.3663 158.859L87.1688 159.376L87.169 166.464L89.6143 168.039L89.6141 160.951L90.4165 161.468L90.4167 168.556L91.2013 169.062L91.2014 171.693L90.3982 171.175L90.3982 169.436L83.1174 164.745L83.1172 156.766L83.1186 156.767Z" fill="#898995"/>
<path d="M92.1877 170.451L92.1875 162.445L92.9907 162.964L92.9908 169.43L96.488 165.224L97.3373 165.773L97.3375 173.779L96.5343 173.26L96.5341 166.85L93.028 170.994L92.1884 170.452L92.1877 170.451Z" fill="#898995"/>
<path d="M102.444 168.913L103.413 169.539L101.383 172.203L103.487 177.593L102.519 176.967L100.876 172.702L99.215 174.833L98.2737 174.224L100.368 171.581L98.3381 166.261L99.3159 166.893L100.885 171.1L102.444 168.914L102.444 168.913Z" fill="#898995"/>
<path d="M107.678 180.128L106.875 179.609L106.875 171.598L107.678 172.117L107.678 175.811L108.647 176.438L110.77 174.116L111.693 174.713L109.349 177.176L111.711 182.737L110.761 182.123L108.713 177.376L107.679 176.708L107.679 180.13L107.678 180.128Z" fill="#898995"/>
<path d="M115.129 184.804C114.618 184.474 114.172 184.084 113.791 183.631C113.409 183.178 113.089 182.688 112.831 182.161C112.572 181.634 112.378 181.08 112.249 180.5C112.119 179.921 112.055 179.338 112.055 178.752C112.055 178.167 112.119 177.665 112.249 177.249C112.378 176.832 112.572 176.527 112.83 176.333C113.089 176.139 113.409 176.062 113.79 176.101C114.172 176.141 114.618 176.325 115.128 176.655C115.639 176.984 116.076 177.369 116.457 177.822C116.839 178.274 117.158 178.765 117.417 179.292C117.676 179.819 117.869 180.375 117.998 180.957C118.127 181.541 118.192 182.125 118.192 182.711C118.192 183.298 118.127 183.797 117.998 184.209C117.869 184.621 117.675 184.925 117.417 185.119C117.159 185.313 116.839 185.391 116.457 185.351C116.076 185.312 115.633 185.129 115.129 184.804ZM115.128 177.545C114.741 177.295 114.406 177.164 114.122 177.15C113.839 177.136 113.606 177.216 113.421 177.39C113.237 177.565 113.098 177.815 113.006 178.142C112.914 178.47 112.868 178.848 112.868 179.276C112.868 179.704 112.912 180.139 113.002 180.58C113.091 181.02 113.228 181.447 113.412 181.859C113.597 182.271 113.832 182.654 114.119 183.008C114.405 183.361 114.742 183.663 115.129 183.913C115.516 184.163 115.851 184.294 116.135 184.308C116.417 184.322 116.65 184.242 116.831 184.069C117.013 183.898 117.148 183.648 117.238 183.323C117.327 182.997 117.371 182.616 117.371 182.18C117.371 181.744 117.326 181.304 117.238 180.86C117.148 180.415 117.011 179.989 116.827 179.581C116.643 179.173 116.408 178.792 116.126 178.44C115.842 178.089 115.51 177.789 115.129 177.544L115.128 177.545Z" fill="#898995"/>
<path d="M119.414 187.323L119.414 179.336L120.614 180.109L122.608 185.789L124.573 182.662L125.745 183.417L125.745 191.404L124.942 190.886L124.942 183.894L122.773 187.41L122.404 187.172L120.217 180.848L120.217 187.84L119.414 187.323Z" fill="#898995"/>
<path d="M132.498 195.603L131.695 195.084L131.695 187.973L128.17 185.695L128.171 192.807L127.367 192.287L127.367 184.281L132.498 187.597L132.498 195.603Z" fill="#898995"/>
<path d="M139.357 199.908L138.49 199.348L137.974 197.297L134.744 195.214L134.227 196.598L133.36 196.039L135.786 189.612L136.94 190.357L139.358 199.908L139.357 199.908ZM137.705 196.231L136.358 190.84L135.011 194.493L137.705 196.231Z" fill="#898995"/>
<path d="M141.045 196.474L144.542 198.735L144.542 195.111L145.345 195.63L145.345 203.636L144.542 203.118L144.542 199.641L141.045 197.381L141.045 200.857L140.242 200.339L140.242 192.332L141.045 192.851L141.045 196.474Z" fill="#898995"/>
<path d="M147 204.498L147 196.492L147.803 197.011L147.803 203.477L151.301 199.271L152.15 199.82L152.15 207.826L151.347 207.307L151.347 200.897L147.841 205.041L147.001 204.499L147 204.498Z" fill="#898995"/>
<path d="M153.758 208.69L153.758 200.668L154.561 201.188L154.561 207.667L158.058 203.454L158.907 204.005L158.907 212.027L158.104 211.506L158.104 205.084L154.598 209.234L153.759 208.69L153.758 208.69ZM156.332 200.838C156.609 201.018 156.831 201.084 156.996 201.036C157.163 200.989 157.251 200.825 157.264 200.545L158.03 201.042C158.017 201.579 157.865 201.902 157.573 202.011C157.281 202.121 156.867 202.002 156.332 201.655C155.797 201.309 155.383 200.891 155.091 200.403C154.799 199.915 154.647 199.395 154.634 198.842L155.4 199.338C155.413 199.634 155.502 199.913 155.668 200.175C155.834 200.438 156.056 200.659 156.332 200.838Z" fill="#898995"/>
<path d="M34.3333 108.174C33.8719 107.876 33.484 107.743 33.1705 107.773C32.8569 107.804 32.6534 107.985 32.5613 108.317L31.7492 107.792C31.8227 107.456 31.9444 107.205 32.1136 107.041C32.2827 106.876 32.4828 106.779 32.7132 106.751C32.9442 106.723 33.2007 106.76 33.484 106.859C33.7666 106.959 34.0623 107.108 34.3697 107.307C34.8806 107.644 35.32 108.039 35.6893 108.492C36.0586 108.945 36.3632 109.435 36.6032 109.962C36.8432 110.49 37.02 111.04 37.1341 111.614C37.2483 112.188 37.3047 112.764 37.3047 113.343C37.3047 113.923 37.2415 114.429 37.1156 114.841C36.9898 115.252 36.8021 115.554 36.5525 115.747C36.3036 115.94 35.9893 116.013 35.6111 115.968C35.2329 115.923 34.7915 115.738 34.2867 115.412C33.5668 114.947 32.9843 114.374 32.538 113.69C32.0917 113.007 31.7981 112.289 31.6564 111.536L32.5332 112.102C32.6253 112.553 32.8303 112.998 33.1466 113.435C33.4636 113.872 33.8528 114.241 34.3142 114.539C34.6649 114.765 34.9709 114.893 35.2322 114.923C35.4935 114.953 35.7136 114.901 35.8923 114.768C36.0704 114.635 36.2073 114.432 36.3028 114.159C36.3984 113.886 36.452 113.561 36.4644 113.185L33.456 111.243L33.4559 110.351L36.4644 112.294C36.4458 111.914 36.3887 111.527 36.2938 111.134C36.1982 110.741 36.0634 110.364 35.8881 109.998C35.7127 109.633 35.4961 109.293 35.2375 108.98C34.979 108.666 34.6778 108.399 34.3333 108.176L34.3333 108.174Z" fill="#898995"/>
<path d="M39.3737 118.445L38.5705 117.926L38.5703 109.938L39.3735 110.457L39.3736 114.141L40.3425 114.767L42.4651 112.456L43.388 113.053L41.0446 115.503L43.4068 121.053L42.4564 120.439L40.4078 115.701L39.3743 115.033L39.3744 118.446L39.3737 118.445Z" fill="#898995"/>
<path d="M46.7693 123.167C46.2584 122.838 45.8128 122.447 45.4312 121.994C45.0495 121.541 44.7297 121.051 44.4712 120.524C44.2126 119.997 44.0187 119.443 43.8894 118.864C43.7601 118.285 43.6954 117.701 43.6954 117.116C43.6954 116.53 43.76 116.029 43.8893 115.612C44.0185 115.196 44.2125 114.891 44.471 114.696C44.7296 114.503 45.0493 114.425 45.4309 114.465C45.8126 114.504 46.2582 114.688 46.7691 115.018C47.28 115.347 47.7167 115.732 48.0976 116.185C48.4793 116.638 48.799 117.128 49.0576 117.655C49.3162 118.182 49.5101 118.738 49.6387 119.321C49.768 119.904 49.8326 120.488 49.8327 121.075C49.8327 121.661 49.7681 122.16 49.6388 122.572C49.5095 122.985 49.3156 123.288 49.0578 123.483C48.7999 123.678 48.4795 123.754 48.0978 123.714C47.7162 123.675 47.2734 123.492 46.7693 123.167ZM46.7691 115.908C46.3813 115.658 46.0464 115.527 45.7631 115.513C45.4798 115.499 45.2467 115.58 45.0617 115.754C44.8774 115.928 44.7385 116.178 44.6464 116.505C44.5543 116.833 44.5082 117.211 44.5082 117.639C44.5082 118.068 44.5529 118.502 44.6424 118.943C44.7318 119.384 44.8686 119.81 45.0529 120.222C45.2372 120.634 45.4731 121.017 45.7591 121.371C46.0452 121.724 46.3821 122.026 46.7693 122.276C47.1564 122.526 47.492 122.657 47.7753 122.671C48.0579 122.685 48.2903 122.605 48.4719 122.433C48.6534 122.261 48.7889 122.011 48.8782 121.686C48.9676 121.361 49.0116 120.979 49.0116 120.543C49.0116 120.107 48.9669 119.667 48.8782 119.223C48.7888 118.778 48.6519 118.352 48.4676 117.944C48.2833 117.536 48.0488 117.155 47.7662 116.803C47.4829 116.452 47.1508 116.153 46.7698 115.907L46.7691 115.908Z" fill="#898995"/>
<path d="M53.7178 120.256C53.33 120.006 52.9992 119.879 52.7256 119.875C52.4519 119.872 52.2271 119.959 52.0517 120.14C51.8764 120.32 51.7485 120.574 51.6687 120.902C51.589 121.231 51.5484 121.601 51.5484 122.015C51.5484 122.459 51.5917 122.905 51.6777 123.351C51.7637 123.798 51.8964 124.224 52.0745 124.628C52.2526 125.033 52.4802 125.409 52.7574 125.757C53.0345 126.105 53.3632 126.403 53.7448 126.649C54.2062 126.947 54.5941 127.08 54.9076 127.05C55.2212 127.02 55.4247 126.838 55.5169 126.507L56.3936 127.073C56.252 127.643 55.9536 127.979 55.4983 128.08C55.0431 128.181 54.4524 127.997 53.7263 127.528C53.2216 127.202 52.7822 126.817 52.4067 126.372C52.0312 125.926 51.719 125.443 51.4701 124.92C51.2212 124.399 51.0348 123.85 50.9117 123.274C50.7886 122.698 50.7267 122.112 50.7267 121.518C50.7267 120.924 50.7878 120.429 50.9116 120.013C51.0347 119.597 51.2224 119.286 51.4747 119.084C51.7271 118.883 52.0407 118.799 52.4161 118.835C52.7909 118.87 53.2344 119.053 53.7446 119.382C54.1015 119.613 54.4227 119.873 54.7087 120.163C54.9948 120.453 55.2437 120.762 55.4562 121.091C55.6687 121.42 55.842 121.761 55.9775 122.116C56.1129 122.471 56.2113 122.83 56.2725 123.192L55.4604 122.668C55.3682 122.217 55.1695 121.777 54.8648 121.346C54.5602 120.917 54.1772 120.553 53.7158 120.255L53.7178 120.256Z" fill="#898995"/>
<path d="M57.6409 129.799L57.6406 121.816L58.4431 122.335L58.4433 128.783L61.9405 124.595L62.7897 125.144L62.7899 133.128L61.9875 132.609L61.9873 126.217L58.4805 130.343L57.6409 129.8L57.6409 129.799Z" fill="#898995"/>
<path d="M67.068 128.517C66.6802 128.267 66.3494 128.14 66.0765 128.137C65.8028 128.133 65.5779 128.221 65.4026 128.401C65.2272 128.581 65.0994 128.835 65.0196 129.163C64.9398 129.492 64.8993 129.863 64.8993 130.276C64.8993 130.72 64.9426 131.166 65.0286 131.612C65.1146 132.059 65.2466 132.485 65.4254 132.889C65.6042 133.295 65.8318 133.67 66.1083 134.019C66.3854 134.367 66.7141 134.664 67.0957 134.91C67.5571 135.208 67.945 135.342 68.2585 135.311C68.5721 135.281 68.7749 135.099 68.8678 134.768L69.7445 135.334C69.6029 135.904 69.3044 136.24 68.8492 136.341C68.394 136.442 67.8033 136.258 67.0772 135.789C66.5725 135.464 66.1331 135.078 65.7576 134.633C65.3821 134.187 65.0699 133.704 64.821 133.182C64.572 132.66 64.3857 132.111 64.2626 131.535C64.1395 130.959 64.0783 130.374 64.0782 129.78C64.0782 129.185 64.1394 128.691 64.2625 128.274C64.3856 127.858 64.5733 127.548 64.8256 127.346C65.078 127.144 65.3915 127.06 65.767 127.096C66.1424 127.132 66.5853 127.314 67.0955 127.644C67.4524 127.874 67.7742 128.135 68.0596 128.424C68.3457 128.714 68.5946 129.023 68.8071 129.352C69.0196 129.681 69.1929 130.023 69.3283 130.377C69.4638 130.732 69.5622 131.091 69.6241 131.454L68.8119 130.929C68.7198 130.479 68.5211 130.039 68.2164 129.608C67.9118 129.179 67.5288 128.814 67.0674 128.517L67.068 128.517Z" fill="#898995"/>
<path d="M73.1089 139.468L72.3057 138.949L72.3055 131.856L70.211 130.502L70.2109 129.609L75.2033 132.837L75.2033 133.729L73.1087 132.375L73.1089 139.469L73.1089 139.468Z" fill="#898995"/>
<path d="M76.1174 141.29L76.1172 133.293L80.5002 136.13L80.5003 137.024L76.9197 134.706L76.9198 137.398L80.14 139.483L80.14 140.388L76.9198 138.304L76.9199 140.917L80.5004 143.234L80.5005 144.128L76.1174 141.291L76.1174 141.29Z" fill="#898995"/>
<path d="M81.719 144.753L81.7188 136.789L82.9187 137.563L84.9123 143.23L86.8782 140.115L88.0499 140.87L88.0501 148.835L87.2469 148.317L87.2468 141.344L85.0781 144.847L84.7088 144.608L82.5213 138.298L82.5215 145.271L81.719 144.754L81.719 144.753Z" fill="#898995"/>
<path d="M94.9744 153.132L94.1073 152.572L93.5901 150.525L90.3603 148.442L89.8439 149.822L88.9768 149.263L91.4032 142.858L92.5564 143.602L94.9744 153.132ZM93.3226 149.462L91.9754 144.084L90.6284 147.724L93.3233 149.463L93.3226 149.462Z" fill="#898995"/>
<circle cx="5.17938" cy="5.17938" r="5.17938" transform="matrix(0.858387 0.628109 -0.114765 0.924921 246.258 274.461)" stroke="#8CBAFF" stroke-width="1.09156"/>
<circle cx="5.17938" cy="5.17938" r="5.17938" transform="matrix(0.858387 0.628109 -0.114765 0.924921 218.094 304.547)" stroke="#8CBAFF" stroke-width="1.09156"/>
<circle cx="5.17938" cy="5.17938" r="5.17938" transform="matrix(0.858387 0.628109 -0.114765 0.924921 195.406 303.16)" stroke="#8CBAFF" stroke-width="1.09156"/>
<circle cx="5.17938" cy="5.17938" r="5.17938" transform="matrix(0.858387 0.628109 -0.114765 0.924921 172.602 306.84)" stroke="#8CBAFF" stroke-width="1.09156"/>
<circle cx="5.17938" cy="5.17938" r="5.17938" transform="matrix(0.858387 0.628109 -0.114765 0.924921 151.742 269.934)" stroke="#8CBAFF" stroke-width="1.09156"/>
<circle cx="5.17938" cy="5.17938" r="5.17938" transform="matrix(0.858387 0.628109 -0.114765 0.924921 129.281 279.191)" stroke="#8CBAFF" stroke-width="1.09156"/>
<circle cx="5.17938" cy="5.17938" r="5.17938" transform="matrix(0.858387 0.628109 -0.114765 0.924921 106.477 276.176)" stroke="#8CBAFF" stroke-width="1.09156"/>
<circle cx="5.17938" cy="5.17938" r="5.17938" transform="matrix(0.858387 0.628109 -0.114765 0.924921 87.0625 252.094)" stroke="#8CBAFF" stroke-width="1.09156"/>
<circle cx="5.17938" cy="5.17938" r="5.17938" transform="matrix(0.858387 0.628109 -0.114765 0.924921 61.3281 263.48)" stroke="#8CBAFF" stroke-width="1.09156"/>
<circle cx="5.17938" cy="5.17938" r="5.17938" transform="matrix(0.858387 0.628109 -0.114765 0.924921 40.7891 244.457)" stroke="#8CBAFF" stroke-width="1.09156"/>
<path d="M247.097 285.263L224.618 310.084" stroke="#8CBAFF" stroke-width="1.09156"/>
<path d="M217.858 312.882L203.355 311.515" stroke="#8CBAFF" stroke-width="1.09156"/>
<path d="M195.247 311.375L180.454 314.351" stroke="#8CBAFF" stroke-width="1.09156"/>
<path d="M173.042 309.293L158.516 284.059" stroke="#8CBAFF" stroke-width="1.09156"/>
<path d="M152.227 279.225L136.52 285.552" stroke="#8CBAFF" stroke-width="1.09156"/>
<path d="M128.853 286.365C128.671 286.232 119.461 284.896 114.601 283.975" stroke="#8CBAFF" stroke-width="1.09156"/>
<path d="M106.455 279.61L94.6016 264.906" stroke="#8CBAFF" stroke-width="1.09156"/>
<path d="M86.8833 259.932L68.6136 269.877" stroke="#8CBAFF" stroke-width="1.09156"/>
<path d="M60.4806 267.976L48.9297 256.844" stroke="#8CBAFF" stroke-width="1.09156"/>
<circle cx="5.17938" cy="5.17938" r="5.17938" transform="matrix(0.858387 0.628109 -0.114765 0.924921 235.172 353.48)" stroke="#5398FF" stroke-width="1.09156"/>
<circle cx="5.17938" cy="5.17938" r="5.17938" transform="matrix(0.858387 0.628109 -0.114765 0.924921 208.055 346.504)" stroke="#5398FF" stroke-width="1.09156"/>
<circle cx="5.17938" cy="5.17938" r="5.17938" transform="matrix(0.858387 0.628109 -0.114765 0.924921 185.289 345.184)" stroke="#5398FF" stroke-width="1.09156"/>
<circle cx="5.17938" cy="5.17938" r="5.17938" transform="matrix(0.858387 0.628109 -0.114765 0.924921 162.68 348.395)" stroke="#5398FF" stroke-width="1.09156"/>
<circle cx="5.17938" cy="5.17938" r="5.17938" transform="matrix(0.858387 0.628109 -0.114765 0.924921 129.227 329.285)" stroke="#5398FF" stroke-width="1.09156"/>
<circle cx="5.17938" cy="5.17938" r="5.17938" transform="matrix(0.858387 0.628109 -0.114765 0.924921 94.6797 332.727)" stroke="#5398FF" stroke-width="1.09156"/>
<circle cx="5.17938" cy="5.17938" r="5.17938" transform="matrix(0.858387 0.628109 -0.114765 0.924921 74.2344 313.715)" stroke="#5398FF" stroke-width="1.09156"/>
<circle cx="5.17938" cy="5.17938" r="5.17938" transform="matrix(0.858387 0.628109 -0.114765 0.924921 52.8203 287.617)" stroke="#5398FF" stroke-width="1.09156"/>
<path d="M234.293 359.548L215.968 353.91" stroke="#5398FF" stroke-width="1.09156"/>
<path d="M207.78 354.863L193.276 353.495" stroke="#5398FF" stroke-width="1.09156"/>
<path d="M185.161 353.368L170.368 356.343" stroke="#5398FF" stroke-width="1.09156"/>
<path d="M162.245 355.639C162.063 355.506 144.992 344.355 138.107 339.718" stroke="#5398FF" stroke-width="1.09156"/>
<path d="M128.767 337.01L102.015 339.142" stroke="#5398FF" stroke-width="1.09156"/>
<path d="M93.8869 337.226L82.3359 326.094" stroke="#5398FF" stroke-width="1.09156"/>
<path d="M73.7788 317.007L60.3594 300.891" stroke="#5398FF" stroke-width="1.09156"/>
<circle cx="5.17938" cy="5.17938" r="5.17938" transform="matrix(0.858387 0.628109 -0.114765 0.924921 150.281 293.715)" stroke="#EFB7A1" stroke-width="1.09156"/>
<circle cx="5.17938" cy="5.17938" r="5.17938" transform="matrix(0.858387 0.628109 -0.114765 0.924921 175.766 279.309)" stroke="#EFB7A1" stroke-width="1.09156"/>
<circle cx="5.17938" cy="5.17938" r="5.17938" transform="matrix(0.858387 0.628109 -0.114765 0.924921 202.172 253.34)" stroke="#EFB7A1" stroke-width="1.09156"/>
<circle cx="5.17938" cy="5.17938" r="5.17938" transform="matrix(0.858387 0.628109 -0.114765 0.924921 118.516 255.168)" stroke="#EFB7A1" stroke-width="1.09156"/>
<circle cx="5.17938" cy="5.17938" r="5.17938" transform="matrix(0.858387 0.628109 -0.114765 0.924921 87.5547 230.586)" stroke="#EFB7A1" stroke-width="1.09156"/>
<circle cx="5.17938" cy="5.17938" r="5.17938" transform="matrix(0.858387 0.628109 -0.114765 0.924921 61.9609 206.496)" stroke="#EFB7A1" stroke-width="1.09156"/>
<circle cx="5.17938" cy="5.17938" r="5.17938" transform="matrix(0.858387 0.628109 -0.114765 0.924921 41.5547 207.992)" stroke="#EFB7A1" stroke-width="1.09156"/>
<path d="M49.3784 215.395L61.8451 215.138" stroke="#EFB7A1" stroke-width="1.09156"/>
<path d="M70.0547 218.191L86.6971 234.389" stroke="#EFB7A1" stroke-width="1.09156"/>
<path d="M96.3203 241.988L118.201 259.071" stroke="#EFB7A1" stroke-width="1.09156"/>
<path d="M126.531 267.98L150.134 296.239" stroke="#EFB7A1" stroke-width="1.09156"/>
<path d="M158.218 300.294L175.912 288.987" stroke="#EFB7A1" stroke-width="1.09156"/>
<path d="M182.415 284.864L203.585 264.579" stroke="#EFB7A1" stroke-width="1.09156"/>
<defs>
<linearGradient id="paint0_linear_5929_1323" x1="86.3196" y1="742.999" x2="-30.222" y2="742.999" gradientUnits="userSpaceOnUse">
<stop stop-color="#DADDE1"/>
<stop offset="1" stop-color="#DEE5EF"/>
</linearGradient>
<linearGradient id="paint1_linear_5929_1323" x1="70.1877" y1="734.83" x2="-2.47546" y2="734.83" gradientUnits="userSpaceOnUse">
<stop stop-color="#C7DEEB"/>
<stop offset="1" stop-color="white"/>
</linearGradient>
</defs>
</svg>
