<svg width="369" height="184" viewBox="0 0 369 184" fill="none" xmlns="http://www.w3.org/2000/svg">
<g filter="url(#filter0_d_6729_1263)">
<ellipse cx="184.505" cy="43.905" rx="41.6535" ry="41.905" fill="#DDEBFF"/>
</g>
<g filter="url(#filter1_d_6729_1263)">
<mask id="mask0_6729_1263" style="mask-type:alpha" maskUnits="userSpaceOnUse" x="156" y="122" width="57" height="57">
<ellipse cx="184.48" cy="150.066" rx="27.769" ry="27.9367" fill="#52B788"/>
</mask>
<g mask="url(#mask0_6729_1263)">
<rect x="3.96875" y="122.129" width="360.997" height="55.8733" fill="#AFD0FF"/>
</g>
</g>
<g filter="url(#filter2_d_6729_1263)">
<mask id="mask1_6729_1263" style="mask-type:alpha" maskUnits="userSpaceOnUse" x="80" y="122" width="56" height="57">
<ellipse cx="108.136" cy="150.066" rx="27.769" ry="27.9367" fill="#52B788"/>
</mask>
<g mask="url(#mask1_6729_1263)">
<rect x="3.99219" y="122.129" width="360.997" height="55.8733" fill="#AFD0FF"/>
<path d="M104.679 139.66C102.265 139.66 100.305 141.637 100.305 144.061C100.305 146.484 102.265 148.461 104.679 148.461C107.088 148.461 109.053 146.489 109.053 144.061C109.053 141.632 107.093 139.66 104.679 139.66ZM104.679 147.58C102.751 147.58 101.181 146 101.181 144.061C101.181 142.121 102.745 140.541 104.679 140.541C106.607 140.541 108.177 142.121 108.177 144.061C108.177 146 106.607 147.58 104.679 147.58Z" fill="#003990"/>
<path d="M116.561 143.18C114.633 143.18 113.062 144.759 113.062 146.699C113.062 148.639 114.633 150.218 116.561 150.218C118.489 150.218 120.059 148.639 120.059 146.699C120.059 144.759 118.489 143.18 116.561 143.18ZM116.561 149.337C115.113 149.337 113.938 148.155 113.938 146.699C113.938 145.243 115.113 144.061 116.561 144.061C118.008 144.061 119.183 145.243 119.183 146.699C119.183 148.155 118.008 149.337 116.561 149.337Z" fill="#003990"/>
<path d="M119.079 150.356L116.575 153.886L114.07 150.356C114.07 150.356 112.9 150.851 112.003 151.743C110.427 149.217 108.083 148.336 108.083 148.336L104.675 153.14L101.268 148.336C101.268 148.336 95.7184 150.458 96.0281 157.25H123.139C123.39 151.78 119.079 150.356 119.079 150.356ZM112.446 156.38H96.8987C96.8987 156.38 96.669 151.818 100.984 149.464L104.675 154.66L108.366 149.464C112.708 151.914 112.446 156.38 112.446 156.38ZM113.322 156.38C113.322 156.38 113.381 154.327 112.441 152.554C112.836 152.129 113.29 151.769 113.792 151.485L116.575 155.402L119.357 151.485C121.13 152.484 122.231 154.327 122.257 156.38H113.322Z" fill="#003990"/>
</g>
</g>
<g filter="url(#filter3_d_6729_1263)">
<mask id="mask2_6729_1263" style="mask-type:alpha" maskUnits="userSpaceOnUse" x="309" y="122" width="56" height="57">
<ellipse cx="337.23" cy="150.066" rx="27.769" ry="27.9367" fill="#52B788"/>
</mask>
<g mask="url(#mask2_6729_1263)">
<rect x="4.00781" y="122.129" width="360.997" height="55.8733" fill="#AFD0FF"/>
</g>
</g>
<g filter="url(#filter4_d_6729_1263)">
<mask id="mask3_6729_1263" style="mask-type:alpha" maskUnits="userSpaceOnUse" x="4" y="122" width="56" height="57">
<ellipse cx="31.769" cy="150.066" rx="27.769" ry="27.9367" fill="#52B788"/>
</mask>
<g mask="url(#mask3_6729_1263)">
<rect x="4" y="122.129" width="360.997" height="55.8733" fill="#AFD0FF"/>
</g>
</g>
<g filter="url(#filter5_d_6729_1263)">
<mask id="mask4_6729_1263" style="mask-type:alpha" maskUnits="userSpaceOnUse" x="233" y="122" width="56" height="57">
<ellipse cx="260.871" cy="150.066" rx="27.769" ry="27.9367" fill="#52B788"/>
</mask>
<g mask="url(#mask4_6729_1263)">
<rect x="4.01562" y="122.129" width="360.997" height="55.8733" fill="#AFD0FF"/>
</g>
</g>
<path d="M31.7549 117.931C31.2921 117.931 30.9219 118.304 30.9219 118.769C30.9219 119.235 31.2921 119.607 31.7549 119.607C32.2178 119.607 32.588 119.235 32.588 118.769C32.588 118.351 32.2896 118.008 31.8937 117.943C31.8486 117.935 31.8022 117.931 31.7549 117.931Z" fill="#FAFCFF"/>
<path d="M31.7549 118.769C31.7549 103.404 171.988 103.404 184.485 88.0391M30.9219 118.769C30.9219 118.304 31.2921 117.931 31.7549 117.931C32.2178 117.931 32.588 118.304 32.588 118.769C32.588 119.235 32.2178 119.607 31.7549 119.607C31.2921 119.607 30.9219 119.235 30.9219 118.769Z" stroke="#FAFCFF" stroke-width="0.73" stroke-linecap="round"/>
<path d="M337.229 117.931C337.692 117.931 338.062 118.304 338.062 118.769C338.062 119.235 337.692 119.607 337.229 119.607C336.767 119.607 336.396 119.235 336.396 118.769C336.396 118.351 336.695 118.008 337.091 117.943C337.136 117.935 337.182 117.931 337.229 117.931Z" fill="#FAFCFF"/>
<path d="M337.229 118.769C337.229 103.404 196.996 103.404 184.5 88.0391M338.062 118.769C338.062 118.304 337.692 117.931 337.229 117.931C336.767 117.931 336.396 118.304 336.396 118.769C336.396 119.235 336.767 119.607 337.229 119.607C337.692 119.607 338.062 119.235 338.062 118.769Z" stroke="#FAFCFF" stroke-width="0.73" stroke-linecap="round"/>
<path d="M184.489 117.931C184.027 117.931 183.656 118.304 183.656 118.769C183.656 119.235 184.027 119.607 184.489 119.607C184.952 119.607 185.322 119.235 185.322 118.769C185.322 118.304 184.952 117.931 184.489 117.931Z" fill="#FAFCFF"/>
<path d="M184.489 118.769V88.0391M183.656 118.769C183.656 118.304 184.027 117.931 184.489 117.931C184.952 117.931 185.322 118.304 185.322 118.769C185.322 119.235 184.952 119.607 184.489 119.607C184.027 119.607 183.656 119.235 183.656 118.769Z" stroke="#FAFCFF" stroke-width="0.73" stroke-linecap="round"/>
<path d="M108.13 117.931C107.667 117.931 107.297 118.304 107.297 118.769C107.297 119.235 107.667 119.607 108.13 119.607C108.593 119.607 108.963 119.235 108.963 118.769C108.963 118.327 108.629 117.969 108.199 117.934C108.176 117.932 108.153 117.931 108.13 117.931Z" fill="#FAFCFF"/>
<path d="M108.13 118.769C108.13 103.404 176.01 103.404 184.495 88.0391M107.297 118.769C107.297 118.304 107.667 117.931 108.13 117.931C108.593 117.931 108.963 118.304 108.963 118.769C108.963 119.235 108.593 119.607 108.13 119.607C107.667 119.607 107.297 119.235 107.297 118.769Z" stroke="#FAFCFF" stroke-width="0.73" stroke-linecap="round"/>
<path d="M260.862 117.931C261.325 117.931 261.695 118.304 261.695 118.769C261.695 119.235 261.325 119.607 260.862 119.607C260.399 119.607 260.029 119.235 260.029 118.769C260.029 118.327 260.363 117.969 260.794 117.934C260.816 117.932 260.839 117.931 260.862 117.931Z" fill="#FAFCFF"/>
<path d="M260.862 118.769C260.862 103.404 192.982 103.404 184.497 88.0391M261.695 118.769C261.695 118.304 261.325 117.931 260.862 117.931C260.399 117.931 260.029 118.304 260.029 118.769C260.029 119.235 260.399 119.607 260.862 119.607C261.325 119.607 261.695 119.235 261.695 118.769Z" stroke="#FAFCFF" stroke-width="0.73" stroke-linecap="round"/>
<g clip-path="url(#clip0_6729_1263)">
<path d="M273.592 140.488H247.589C247.277 140.488 247.023 140.742 247.023 141.055V147.854C247.023 148.167 247.277 148.421 247.589 148.421H250.981V159.753C250.981 160.065 251.107 160.32 251.263 160.32C251.419 160.32 251.773 160.206 252.051 160.067L253.301 159.44C253.44 159.371 253.624 159.336 253.807 159.336C253.99 159.336 254.174 159.37 254.313 159.44L255.562 160.067C255.702 160.137 255.885 160.172 256.068 160.172C256.251 160.172 256.434 160.137 256.574 160.067L257.824 159.44C257.963 159.371 258.146 159.336 258.329 159.336C258.513 159.336 258.696 159.37 258.835 159.44L260.084 160.067C260.224 160.137 260.407 160.172 260.59 160.172C260.773 160.172 260.957 160.137 261.096 160.067L262.346 159.44C262.485 159.371 262.668 159.336 262.852 159.336C263.035 159.336 263.218 159.37 263.357 159.44L264.607 160.067C264.747 160.137 264.93 160.172 265.113 160.172C265.296 160.172 265.479 160.137 265.618 160.067L266.868 159.44C267.007 159.371 267.191 159.336 267.374 159.336C267.557 159.336 267.741 159.37 267.88 159.44L269.129 160.067C269.408 160.206 269.762 160.32 269.918 160.32C270.073 160.32 270.2 160.065 270.2 159.753V148.421H273.592C273.904 148.421 274.157 148.167 274.157 147.854V141.055C274.157 140.742 273.904 140.488 273.592 140.488ZM269.07 158.77L268.385 158.427C268.016 158.241 267.631 158.203 267.374 158.203C267.116 158.203 266.732 158.241 266.363 158.427L265.146 159.036C265.138 159.038 265.127 159.038 265.113 159.038C265.098 159.038 265.087 159.038 265.079 159.036L263.863 158.427C263.493 158.241 263.109 158.203 262.852 158.203C262.594 158.203 262.21 158.241 261.84 158.427L260.624 159.036C260.616 159.038 260.604 159.038 260.59 159.038C260.576 159.038 260.565 159.038 260.556 159.036L259.341 158.427C258.971 158.241 258.586 158.203 258.329 158.203C258.072 158.203 257.688 158.241 257.318 158.427L256.102 159.036C256.094 159.038 256.082 159.038 256.068 159.038C256.054 159.038 256.043 159.038 256.034 159.036L254.818 158.427C254.448 158.241 254.064 158.203 253.807 158.203C253.549 158.203 253.165 158.241 252.796 158.427L252.111 158.77V145.021H269.07V158.77ZM273.027 147.288H270.2V145.021C270.512 145.021 270.766 144.768 270.766 144.455C270.766 144.142 270.512 143.888 270.2 143.888H269.635H251.545H250.981C250.669 143.888 250.415 144.142 250.415 144.455C250.415 144.768 250.669 145.021 250.981 145.021V147.288H248.154V141.621H273.027V147.288Z" fill="#003990"/>
<path d="M267.381 147.289H265.119C264.807 147.289 264.555 147.543 264.555 147.856C264.555 148.168 264.807 148.422 265.119 148.422H267.381C267.693 148.422 267.946 148.168 267.946 147.856C267.946 147.543 267.693 147.289 267.381 147.289Z" fill="#003990"/>
<path d="M267.381 149.559H265.119C264.807 149.559 264.555 149.812 264.555 150.125C264.555 150.438 264.807 150.692 265.119 150.692H267.381C267.693 150.692 267.946 150.438 267.946 150.125C267.946 149.812 267.693 149.559 267.381 149.559Z" fill="#003990"/>
<path d="M260.599 147.289H253.816C253.503 147.289 253.25 147.543 253.25 147.856C253.25 148.168 253.503 148.422 253.816 148.422H260.599C260.911 148.422 261.165 148.168 261.165 147.856C261.165 147.543 260.911 147.289 260.599 147.289Z" fill="#003990"/>
<path d="M267.381 155.223H265.119C264.807 155.223 264.555 155.477 264.555 155.79C264.555 156.103 264.807 156.356 265.119 156.356H267.381C267.693 156.356 267.946 156.102 267.946 155.79C267.946 155.477 267.693 155.223 267.381 155.223Z" fill="#003990"/>
<path d="M256.077 155.223H253.816C253.503 155.223 253.25 155.477 253.25 155.79C253.25 156.103 253.503 156.356 253.816 156.356H256.077C256.389 156.356 256.642 156.102 256.642 155.79C256.642 155.477 256.389 155.223 256.077 155.223Z" fill="#003990"/>
<path d="M257.235 149.56V149.559H253.816C253.503 149.559 253.25 149.812 253.25 150.125C253.25 150.438 253.503 150.692 253.816 150.692H257.235V150.69C257.534 150.675 257.773 150.428 257.773 150.125C257.773 149.822 257.534 149.575 257.235 149.56Z" fill="#003990"/>
<path d="M253.815 152.387C253.503 152.387 253.25 152.641 253.25 152.952C253.25 153.266 253.503 153.519 253.815 153.519C254.127 153.519 254.38 153.266 254.38 152.952C254.38 152.641 254.127 152.387 253.815 152.387Z" fill="#003990"/>
<path d="M256.089 152.387C255.777 152.387 255.523 152.641 255.523 152.952C255.523 153.266 255.777 153.519 256.089 153.519C256.401 153.519 256.653 153.266 256.653 152.952C256.653 152.641 256.401 152.387 256.089 152.387Z" fill="#003990"/>
<path d="M258.314 152.387C258.002 152.387 257.75 152.641 257.75 152.952C257.75 153.266 258.002 153.519 258.314 153.519C258.626 153.519 258.88 153.266 258.88 152.952C258.88 152.641 258.626 152.387 258.314 152.387Z" fill="#003990"/>
<path d="M260.604 152.387C260.292 152.387 260.039 152.641 260.039 152.952C260.039 153.266 260.292 153.519 260.604 153.519C260.916 153.519 261.169 153.266 261.169 152.952C261.169 152.641 260.916 152.387 260.604 152.387Z" fill="#003990"/>
<path d="M262.846 152.387C262.534 152.387 262.281 152.641 262.281 152.952C262.281 153.266 262.534 153.519 262.846 153.519C263.158 153.519 263.411 153.266 263.411 152.952C263.411 152.641 263.158 152.387 262.846 152.387Z" fill="#003990"/>
<path d="M265.119 152.387C264.807 152.387 264.555 152.641 264.555 152.952C264.555 153.266 264.807 153.519 265.119 153.519C265.431 153.519 265.684 153.266 265.684 152.952C265.684 152.641 265.431 152.387 265.119 152.387Z" fill="#003990"/>
<path d="M267.362 152.387C267.05 152.387 266.797 152.641 266.797 152.952C266.797 153.266 267.05 153.519 267.362 153.519C267.674 153.519 267.927 153.266 267.927 152.952C267.927 152.641 267.674 152.387 267.362 152.387Z" fill="#003990"/>
</g>
<g clip-path="url(#clip1_6729_1263)">
<path d="M321.84 147.484C321.859 147.485 321.876 147.486 321.894 147.486C322.157 147.486 322.382 147.287 322.409 147.02C322.763 143.571 324.287 140.295 326.702 137.794C328.887 135.531 331.728 133.976 334.785 133.354L333.193 134.657C332.971 134.838 332.938 135.165 333.119 135.388C333.221 135.514 333.37 135.579 333.521 135.579C333.636 135.579 333.752 135.54 333.848 135.462L337.184 132.733C337.338 132.606 337.407 132.403 337.36 132.209C337.314 132.015 337.161 131.864 336.966 131.822L332.758 130.906C332.479 130.846 332.203 131.024 332.142 131.304C332.081 131.585 332.259 131.861 332.538 131.922L334.507 132.35C331.273 133.024 328.27 134.675 325.957 137.071C323.381 139.739 321.755 143.234 321.378 146.914C321.348 147.199 321.556 147.454 321.84 147.484Z" fill="#003990"/>
<path d="M353.925 149.784C353.64 149.755 353.386 149.962 353.356 150.248C353.003 153.696 351.478 156.973 349.064 159.474C346.879 161.737 344.037 163.292 340.98 163.914L342.573 162.611C342.795 162.43 342.828 162.102 342.647 161.88C342.465 161.657 342.139 161.624 341.917 161.806L338.581 164.535C338.427 164.661 338.358 164.865 338.405 165.059C338.451 165.253 338.605 165.403 338.799 165.445L343.007 166.361C343.044 166.369 343.081 166.373 343.117 166.373C343.356 166.373 343.571 166.207 343.624 165.963C343.684 165.683 343.507 165.406 343.227 165.345L341.258 164.917C344.492 164.244 347.496 162.592 349.809 160.196C352.384 157.529 354.01 154.033 354.388 150.354C354.417 150.068 354.21 149.813 353.925 149.784Z" fill="#003990"/>
<path d="M355.168 142.882C354.888 142.821 354.612 142.999 354.551 143.28L354.124 145.253C353.452 142.011 351.804 139.001 349.414 136.682C346.753 134.101 343.265 132.471 339.595 132.092C339.31 132.064 339.056 132.271 339.026 132.556C338.997 132.842 339.204 133.097 339.489 133.126C342.929 133.481 346.198 135.009 348.693 137.429C350.951 139.619 352.502 142.467 353.123 145.532L351.823 143.935C351.642 143.713 351.315 143.68 351.094 143.861C350.872 144.043 350.839 144.37 351.02 144.593L353.742 147.936C353.842 148.059 353.99 148.127 354.144 148.127C354.184 148.127 354.225 148.123 354.265 148.113C354.459 148.067 354.608 147.913 354.651 147.718L355.564 143.5C355.625 143.22 355.447 142.943 355.168 142.882Z" fill="#003990"/>
<path d="M336.267 164.138C332.826 163.784 329.558 162.255 327.063 159.835C324.805 157.645 323.254 154.797 322.633 151.733L323.933 153.329C324.114 153.551 324.44 153.584 324.662 153.403C324.884 153.221 324.917 152.894 324.736 152.672L322.013 149.328C321.887 149.173 321.684 149.104 321.491 149.151C321.297 149.198 321.147 149.351 321.105 149.546L320.192 153.764C320.131 154.045 320.308 154.321 320.588 154.382C320.625 154.39 320.662 154.394 320.699 154.394C320.937 154.394 321.152 154.228 321.205 153.984L321.632 152.011C322.304 155.253 323.951 158.263 326.342 160.582C329.003 163.164 332.49 164.794 336.161 165.172C336.179 165.173 336.197 165.174 336.214 165.174C336.477 165.174 336.702 164.975 336.73 164.708C336.759 164.422 336.552 164.167 336.267 164.138Z" fill="#003990"/>
<path d="M331.235 144.149C331.722 144.149 332.186 144.359 332.508 144.724C332.698 144.94 333.025 144.96 333.24 144.77C333.454 144.58 333.475 144.252 333.285 144.036C332.766 143.447 332.019 143.109 331.235 143.109C329.727 143.109 328.5 144.339 328.5 145.851V151.405C328.5 152.917 329.727 154.146 331.235 154.146C332.019 154.146 332.767 153.808 333.286 153.218C333.475 153.003 333.455 152.675 333.24 152.485C333.026 152.295 332.698 152.315 332.508 152.531C332.186 152.897 331.722 153.107 331.235 153.107C330.299 153.107 329.537 152.343 329.537 151.405V145.851C329.537 144.912 330.299 144.149 331.235 144.149Z" fill="#003990"/>
<path d="M346.739 154.147C347.026 154.147 347.258 153.914 347.258 153.627V143.629C347.258 143.369 347.066 143.149 346.809 143.114C346.552 143.079 346.309 143.24 346.24 143.49L343.969 151.685L341.698 143.49C341.628 143.24 341.386 143.079 341.128 143.114C340.871 143.149 340.68 143.369 340.68 143.629V153.627C340.68 153.914 340.912 154.147 341.198 154.147C341.484 154.147 341.717 153.914 341.717 153.627V147.442L343.469 153.766C343.532 153.991 343.736 154.147 343.969 154.147C344.202 154.147 344.406 153.991 344.468 153.766L346.221 147.442V153.627C346.221 153.914 346.453 154.147 346.739 154.147Z" fill="#003990"/>
<path d="M338.506 153.809C338.584 154.018 338.781 154.146 338.991 154.146C339.052 154.146 339.113 154.136 339.173 154.113C339.441 154.012 339.577 153.713 339.476 153.444L337.973 149.425C338.882 148.979 339.509 148.043 339.509 146.962V145.851C339.509 144.339 338.282 143.109 336.775 143.109H335.112C334.826 143.109 334.594 143.342 334.594 143.629V146.962C334.594 147.249 334.826 147.481 335.112 147.481C335.399 147.481 335.631 147.249 335.631 146.962V144.149H336.775C337.711 144.149 338.472 144.912 338.472 145.851V146.962C338.472 147.9 337.711 148.664 336.775 148.664H335.112C334.826 148.664 334.594 148.896 334.594 149.183V153.627C334.594 153.914 334.826 154.146 335.112 154.146C335.399 154.146 335.631 153.914 335.631 153.627V149.703H336.775C336.839 149.703 336.903 149.7 336.967 149.695L338.506 153.809Z" fill="#003990"/>
</g>
<path d="M194.926 138.176H172.879C172.412 138.176 172.031 138.557 172.031 139.026V153.9C172.031 154.369 172.412 154.75 172.879 154.75H182.042L181.053 157.725H178.815C178.347 157.725 177.967 158.106 177.967 158.575V159.424C177.967 159.893 178.347 160.274 178.815 160.274H188.99C189.458 160.274 189.838 159.893 189.838 159.424V158.575C189.838 158.106 189.458 157.725 188.99 157.725H186.752L185.763 154.75H194.926C195.393 154.75 195.774 154.369 195.774 153.9V139.026C195.774 138.557 195.393 138.176 194.926 138.176ZM194.926 139.026L194.925 151.35H172.879V139.026H194.926ZM188.989 159.424H178.815V158.575H188.99L188.989 159.424ZM185.858 157.725H181.947L182.936 154.75H184.869L185.858 157.725ZM172.879 153.9V152.2H194.925V153.9H172.879ZM184.326 153.05C184.326 153.285 184.136 153.475 183.902 153.475C183.668 153.475 183.478 153.285 183.478 153.05C183.478 152.815 183.668 152.625 183.902 152.625C184.136 152.625 184.326 152.815 184.326 153.05ZM178.815 150.5H180.087C180.321 150.5 180.511 150.31 180.511 150.075V147.1C180.511 146.866 180.321 146.675 180.087 146.675H178.815C178.581 146.675 178.391 146.866 178.391 147.1V150.075C178.391 150.31 178.581 150.5 178.815 150.5ZM179.239 147.525H179.663V149.65H179.239V147.525ZM186.022 145.4H184.75C184.516 145.4 184.326 145.591 184.326 145.825V150.075C184.326 150.31 184.516 150.5 184.75 150.5H186.022C186.256 150.5 186.446 150.31 186.446 150.075V145.825C186.446 145.591 186.256 145.4 186.022 145.4ZM185.598 149.65H185.174V146.25H185.598V149.65ZM183.054 144.125H181.783C181.549 144.125 181.359 144.316 181.359 144.55V150.075C181.359 150.31 181.549 150.5 181.783 150.5H183.054C183.288 150.5 183.478 150.31 183.478 150.075V144.55C183.478 144.316 183.288 144.125 183.054 144.125ZM182.63 149.65H182.207V144.975H182.63V149.65ZM187.294 142.85V150.075C187.294 150.31 187.484 150.5 187.718 150.5H188.99C189.224 150.5 189.414 150.31 189.414 150.075V142.85C189.414 142.616 189.224 142.426 188.99 142.426H187.718C187.484 142.426 187.294 142.616 187.294 142.85ZM188.142 143.275H188.566V149.65H188.142V143.275ZM179.31 144.361C179.18 144.166 179.233 143.902 179.427 143.772L181.971 142.072C182.058 142.014 182.162 141.99 182.266 142.005L185.044 142.403L187.866 139.978C188.043 139.825 188.311 139.846 188.463 140.024C188.616 140.202 188.595 140.471 188.418 140.623L185.45 143.173C185.357 143.253 185.236 143.288 185.114 143.271L182.307 142.869L179.898 144.479C179.826 144.527 179.744 144.55 179.663 144.55C179.526 144.55 179.392 144.484 179.31 144.361Z" fill="#003990"/>
<path d="M210.442 54.8906H201.461V63.797H210.442V54.8906Z" fill="#0166FF"/>
<path d="M192.5 25.2061V28.8933C189.396 26.5476 185.552 25.1572 181.4 25.1328C180.624 25.1328 179.873 25.1817 179.134 25.255C169.709 26.3423 162.38 34.5278 162.367 44.4604V44.5093C162.392 54.4296 169.709 62.5907 179.134 63.678C179.873 63.7513 180.637 63.8002 181.4 63.8002H192.5V54.8939H201.468V25.1328L192.5 25.2061ZM181.944 54.8804C176.085 54.8804 171.336 50.2318 171.336 44.4958C171.336 38.7599 176.085 34.1112 181.944 34.1112C187.803 34.1112 192.552 38.7599 192.552 44.4958C192.552 50.2318 187.803 54.8804 181.944 54.8804Z" fill="#0166FF"/>
<path d="M39.6711 154.998C38.0049 154.998 36.3388 154.996 34.6725 154.998C34.0922 154.999 33.5115 155.003 32.932 154.977C31.7639 154.924 30.6281 154.721 29.5734 154.183C28.6117 153.693 27.8109 153.009 27.1646 152.147C26.4552 151.2 26.0105 150.138 25.8491 148.966C25.3377 145.251 27.7748 141.973 31.2058 141.184C31.9094 141.022 32.623 140.971 33.3422 141.033C36.483 141.305 38.9683 143.61 39.5875 146.558C39.6737 146.968 39.7231 147.383 39.7303 147.803C39.7323 147.915 39.7325 147.916 39.6152 147.916C39.0764 147.916 38.5376 147.916 37.9987 147.916C37.9905 147.916 37.9822 147.916 37.9739 147.916C37.8848 147.914 37.8833 147.914 37.8807 147.829C37.8776 147.729 37.8705 147.63 37.8613 147.531C37.7543 146.373 37.3058 145.364 36.5187 144.511C35.7217 143.647 34.7376 143.11 33.5768 142.926C30.8182 142.491 28.3914 144.274 27.7832 146.755C27.2006 149.131 28.3465 151.546 30.551 152.606C30.9828 152.813 31.4427 152.935 31.9145 153.015C32.4222 153.101 32.9324 153.145 33.4477 153.145C36.2164 153.145 38.985 153.148 41.7537 153.15C43.3453 153.15 44.9369 153.15 46.5284 153.15C46.7034 153.15 46.7034 153.15 46.7034 153.331C46.7034 153.828 46.7034 154.326 46.7034 154.823C46.7034 154.844 46.7036 154.864 46.7034 154.885C46.7021 154.997 46.702 154.997 46.5844 154.998C46.5637 154.998 46.543 154.998 46.5223 154.998C44.2386 154.998 41.9549 154.998 39.6711 154.998Z" fill="#003990"/>
<path d="M39.7093 152.019C37.9228 152.019 36.1364 152.018 34.35 152.019C33.8857 152.019 33.421 152.023 32.9576 151.997C32.3609 151.963 31.7644 151.9 31.2106 151.656C29.9875 151.118 29.1856 150.203 28.8755 148.899C28.3593 146.729 29.7116 144.576 31.889 144.097C34.1245 143.605 36.1643 145.04 36.6343 147.089C36.69 147.331 36.7258 147.577 36.7322 147.826C36.7345 147.914 36.7325 147.916 36.6449 147.916C36.1103 147.917 35.5755 147.915 35.0409 147.918C34.9753 147.918 34.9546 147.896 34.9509 147.834C34.9362 147.584 34.882 147.341 34.7768 147.113C34.4283 146.36 33.8455 145.912 33.0197 145.799C31.9131 145.647 30.76 146.402 30.5687 147.67C30.4336 148.566 30.8698 149.454 31.6572 149.898C31.9532 150.065 32.2793 150.14 32.6151 150.184C33.0856 150.246 33.5581 150.234 34.0301 150.234C36.9564 150.236 39.8828 150.235 42.8091 150.235C44.0526 150.235 45.296 150.236 46.5395 150.236C46.5561 150.236 46.5727 150.236 46.5893 150.236C46.6967 150.238 46.6978 150.238 46.6979 150.346C46.6983 150.86 46.6981 151.374 46.6981 151.888C46.6981 152.033 46.7066 152.019 46.561 152.019C44.331 152.019 42.1011 152.019 39.8711 152.019C39.8171 152.019 39.7632 152.019 39.7093 152.019Z" fill="#003990"/>
<path d="M24.6389 147.996C24.6389 150.275 24.639 152.554 24.6386 154.833C24.6385 155.003 24.6605 154.987 24.4874 154.987C23.9653 154.987 23.4432 154.987 22.921 154.987C22.892 154.987 22.8629 154.986 22.834 154.987C22.7928 154.989 22.7724 154.973 22.7745 154.93C22.7763 154.892 22.7746 154.855 22.7746 154.818C22.7746 150.889 22.7747 146.961 22.7742 143.032C22.7742 142.841 22.8002 142.866 22.6124 142.866C21.8085 142.865 21.0046 142.865 20.2007 142.865C20.1717 142.865 20.1426 142.864 20.1137 142.866C20.0669 142.869 20.0438 142.85 20.0472 142.801C20.0486 142.781 20.0473 142.76 20.0473 142.739C20.0473 142.201 20.0473 141.662 20.0473 141.123C20.0473 141.102 20.0487 141.082 20.0473 141.061C20.0446 141.02 20.0595 140.998 20.1035 141C20.1282 141.002 20.1532 141 20.178 141C21.6201 141 23.0622 141 24.5042 141C24.6509 141 24.6381 140.988 24.6382 141.133C24.6383 143.421 24.6383 145.708 24.6383 147.996C24.6385 147.996 24.6387 147.996 24.6389 147.996Z" fill="#003990"/>
<path d="M21.8365 149.386C21.8365 151.201 21.8368 153.016 21.8361 154.831C21.8361 155.004 21.8611 154.981 21.6845 154.982C21.1872 154.983 20.69 154.982 20.1927 154.982C20.1637 154.982 20.1346 154.981 20.1056 154.982C20.0653 154.983 20.0437 154.968 20.0456 154.925C20.0472 154.887 20.0457 154.85 20.0457 154.813C20.0457 151.792 20.0458 148.771 20.0453 145.75C20.0452 145.557 20.071 145.584 19.8833 145.583C19.3073 145.582 18.7312 145.583 18.1552 145.583C18.1262 145.583 18.0971 145.581 18.0682 145.583C18.0244 145.585 17.9952 145.573 18.0007 145.521C18.0028 145.501 18.0008 145.48 18.0008 145.459C18.0008 144.945 18.0008 144.431 18.0008 143.917C18.0008 143.892 18.0017 143.868 18.0012 143.843C18.0004 143.806 18.0176 143.79 18.0537 143.791C18.0827 143.791 18.1118 143.79 18.1408 143.79C19.326 143.79 20.5112 143.79 21.6964 143.79C21.8511 143.79 21.8363 143.771 21.8364 143.928C21.8367 145.748 21.8365 147.567 21.8365 149.386Z" fill="#003990"/>
<defs>
<filter id="filter0_d_6729_1263" x="138.852" y="0" width="91.3047" height="91.8086" filterUnits="userSpaceOnUse" color-interpolation-filters="sRGB">
<feFlood flood-opacity="0" result="BackgroundImageFix"/>
<feColorMatrix in="SourceAlpha" type="matrix" values="0 0 0 0 0 0 0 0 0 0 0 0 0 0 0 0 0 0 127 0" result="hardAlpha"/>
<feOffset dy="2"/>
<feGaussianBlur stdDeviation="2"/>
<feComposite in2="hardAlpha" operator="out"/>
<feColorMatrix type="matrix" values="0 0 0 0 0.109804 0 0 0 0 0.152941 0 0 0 0 0.313726 0 0 0 0.7 0"/>
<feBlend mode="normal" in2="BackgroundImageFix" result="effect1_dropShadow_6729_1263"/>
<feBlend mode="normal" in="SourceGraphic" in2="effect1_dropShadow_6729_1263" result="shape"/>
</filter>
<filter id="filter1_d_6729_1263" x="152.711" y="120.129" width="63.5391" height="63.875" filterUnits="userSpaceOnUse" color-interpolation-filters="sRGB">
<feFlood flood-opacity="0" result="BackgroundImageFix"/>
<feColorMatrix in="SourceAlpha" type="matrix" values="0 0 0 0 0 0 0 0 0 0 0 0 0 0 0 0 0 0 127 0" result="hardAlpha"/>
<feOffset dy="2"/>
<feGaussianBlur stdDeviation="2"/>
<feComposite in2="hardAlpha" operator="out"/>
<feColorMatrix type="matrix" values="0 0 0 0 0.109804 0 0 0 0 0.152941 0 0 0 0 0.313726 0 0 0 0.7 0"/>
<feBlend mode="normal" in2="BackgroundImageFix" result="effect1_dropShadow_6729_1263"/>
<feBlend mode="normal" in="SourceGraphic" in2="effect1_dropShadow_6729_1263" result="shape"/>
</filter>
<filter id="filter2_d_6729_1263" x="76.3672" y="120.129" width="63.5391" height="63.875" filterUnits="userSpaceOnUse" color-interpolation-filters="sRGB">
<feFlood flood-opacity="0" result="BackgroundImageFix"/>
<feColorMatrix in="SourceAlpha" type="matrix" values="0 0 0 0 0 0 0 0 0 0 0 0 0 0 0 0 0 0 127 0" result="hardAlpha"/>
<feOffset dy="2"/>
<feGaussianBlur stdDeviation="2"/>
<feComposite in2="hardAlpha" operator="out"/>
<feColorMatrix type="matrix" values="0 0 0 0 0.109804 0 0 0 0 0.152941 0 0 0 0 0.313726 0 0 0 0.7 0"/>
<feBlend mode="normal" in2="BackgroundImageFix" result="effect1_dropShadow_6729_1263"/>
<feBlend mode="normal" in="SourceGraphic" in2="effect1_dropShadow_6729_1263" result="shape"/>
</filter>
<filter id="filter3_d_6729_1263" x="305.461" y="120.129" width="63.5391" height="63.875" filterUnits="userSpaceOnUse" color-interpolation-filters="sRGB">
<feFlood flood-opacity="0" result="BackgroundImageFix"/>
<feColorMatrix in="SourceAlpha" type="matrix" values="0 0 0 0 0 0 0 0 0 0 0 0 0 0 0 0 0 0 127 0" result="hardAlpha"/>
<feOffset dy="2"/>
<feGaussianBlur stdDeviation="2"/>
<feComposite in2="hardAlpha" operator="out"/>
<feColorMatrix type="matrix" values="0 0 0 0 0.109804 0 0 0 0 0.152941 0 0 0 0 0.313726 0 0 0 0.7 0"/>
<feBlend mode="normal" in2="BackgroundImageFix" result="effect1_dropShadow_6729_1263"/>
<feBlend mode="normal" in="SourceGraphic" in2="effect1_dropShadow_6729_1263" result="shape"/>
</filter>
<filter id="filter4_d_6729_1263" x="0" y="120.129" width="63.5391" height="63.875" filterUnits="userSpaceOnUse" color-interpolation-filters="sRGB">
<feFlood flood-opacity="0" result="BackgroundImageFix"/>
<feColorMatrix in="SourceAlpha" type="matrix" values="0 0 0 0 0 0 0 0 0 0 0 0 0 0 0 0 0 0 127 0" result="hardAlpha"/>
<feOffset dy="2"/>
<feGaussianBlur stdDeviation="2"/>
<feComposite in2="hardAlpha" operator="out"/>
<feColorMatrix type="matrix" values="0 0 0 0 0.109804 0 0 0 0 0.152941 0 0 0 0 0.313726 0 0 0 0.7 0"/>
<feBlend mode="normal" in2="BackgroundImageFix" result="effect1_dropShadow_6729_1263"/>
<feBlend mode="normal" in="SourceGraphic" in2="effect1_dropShadow_6729_1263" result="shape"/>
</filter>
<filter id="filter5_d_6729_1263" x="229.102" y="120.129" width="63.5391" height="63.875" filterUnits="userSpaceOnUse" color-interpolation-filters="sRGB">
<feFlood flood-opacity="0" result="BackgroundImageFix"/>
<feColorMatrix in="SourceAlpha" type="matrix" values="0 0 0 0 0 0 0 0 0 0 0 0 0 0 0 0 0 0 127 0" result="hardAlpha"/>
<feOffset dy="2"/>
<feGaussianBlur stdDeviation="2"/>
<feComposite in2="hardAlpha" operator="out"/>
<feColorMatrix type="matrix" values="0 0 0 0 0.109804 0 0 0 0 0.152941 0 0 0 0 0.313726 0 0 0 0.7 0"/>
<feBlend mode="normal" in2="BackgroundImageFix" result="effect1_dropShadow_6729_1263"/>
<feBlend mode="normal" in="SourceGraphic" in2="effect1_dropShadow_6729_1263" result="shape"/>
</filter>
<clipPath id="clip0_6729_1263">
<rect width="27.1334" height="27.2972" fill="white" transform="translate(247.023 137.301)"/>
</clipPath>
<clipPath id="clip1_6729_1263">
<rect width="35.3914" height="35.6051" fill="white" transform="translate(320.156 131.367)"/>
</clipPath>
</defs>
</svg>
