<svg width="121" height="121" viewBox="0 0 121 121" fill="none" xmlns="http://www.w3.org/2000/svg">
<g clip-path="url(#clip0_3038_4862)">
<path d="M120.352 86.7812H97.9375V109.293H120.352V86.7812Z" fill="#0166FF"/>
<path d="M75.5461 11.5905V21.0836C67.8 15.1566 58.2064 11.637 47.8465 11.5731C45.9093 11.5731 44.0328 11.698 42.1881 11.8809C18.6694 14.631 0.375555 35.3188 0.34375 60.4236V60.5485C0.404469 85.6213 18.6694 106.248 42.1881 108.998C44.0328 109.184 45.9382 109.306 47.8465 109.306H75.549V86.7945H97.9313V11.5586L75.549 11.5905H75.5461ZM49.1968 86.7655C34.5634 86.7655 22.7261 75.0015 22.7261 60.5194C22.7261 46.0374 34.5924 34.2734 49.1968 34.2734C63.8013 34.2734 75.6675 46.0083 75.6675 60.5194C75.6675 75.0305 63.8302 86.7655 49.1968 86.7655Z" fill="#0166FF"/>
</g>
<defs>
<clipPath id="clip0_3038_4862">
<rect width="120" height="120" fill="white" transform="translate(0.351562 0.433594)"/>
</clipPath>
</defs>
</svg>
