<svg width="1844" height="596" viewBox="0 0 1844 596" fill="none" xmlns="http://www.w3.org/2000/svg">
<g opacity="0.5">
<path d="M1723.53 587.504V577.606H1724.75V582.086H1730.05V577.606H1731.27V587.504H1730.05V583.206H1724.75V587.504H1723.53ZM1736.64 587.588C1735.87 587.588 1735.22 587.429 1734.7 587.112C1734.17 586.785 1733.78 586.337 1733.52 585.768C1733.27 585.199 1733.14 584.55 1733.14 583.822C1733.14 583.085 1733.27 582.436 1733.52 581.876C1733.78 581.307 1734.17 580.859 1734.7 580.532C1735.22 580.205 1735.88 580.042 1736.67 580.042C1737.45 580.042 1738.09 580.205 1738.6 580.532C1739.13 580.859 1739.51 581.307 1739.76 581.876C1740.03 582.436 1740.16 583.085 1740.16 583.822C1740.16 584.55 1740.03 585.199 1739.76 585.768C1739.5 586.337 1739.11 586.785 1738.59 587.112C1738.08 587.429 1737.43 587.588 1736.64 587.588ZM1736.64 586.538C1737.18 586.538 1737.62 586.417 1737.96 586.174C1738.3 585.931 1738.56 585.605 1738.71 585.194C1738.88 584.783 1738.97 584.326 1738.97 583.822C1738.97 583.318 1738.88 582.861 1738.71 582.45C1738.56 582.039 1738.3 581.713 1737.96 581.47C1737.62 581.227 1737.18 581.106 1736.64 581.106C1736.11 581.106 1735.67 581.227 1735.33 581.47C1734.99 581.713 1734.74 582.039 1734.57 582.45C1734.41 582.861 1734.33 583.318 1734.33 583.822C1734.33 584.326 1734.41 584.783 1734.57 585.194C1734.74 585.605 1734.99 585.931 1735.33 586.174C1735.67 586.417 1736.11 586.538 1736.64 586.538ZM1741.29 587.504L1743.2 584.592C1742.67 584.443 1742.25 584.2 1741.94 583.864C1741.64 583.519 1741.48 583.061 1741.48 582.492C1741.48 582.044 1741.55 581.671 1741.68 581.372C1741.81 581.064 1742 580.821 1742.25 580.644C1742.5 580.457 1742.81 580.327 1743.16 580.252C1743.52 580.168 1743.92 580.126 1744.38 580.126H1747.35V587.504H1746.16V584.774H1744.46L1742.67 587.504H1741.29ZM1745.28 583.738H1746.16V581.176H1744.58C1744.3 581.176 1744.04 581.19 1743.81 581.218C1743.57 581.246 1743.37 581.307 1743.2 581.4C1743.05 581.484 1742.92 581.61 1742.83 581.778C1742.73 581.937 1742.69 582.156 1742.69 582.436C1742.69 582.744 1742.76 582.987 1742.91 583.164C1743.07 583.341 1743.27 583.472 1743.51 583.556C1743.76 583.631 1744.04 583.682 1744.35 583.71C1744.66 583.729 1744.97 583.738 1745.28 583.738ZM1752.34 587.588C1751.87 587.588 1751.45 587.523 1751.09 587.392C1750.73 587.252 1750.41 587.061 1750.15 586.818C1749.89 586.566 1749.68 586.272 1749.51 585.936C1749.34 585.591 1749.21 585.217 1749.13 584.816C1749.05 584.415 1749 583.99 1749 583.542C1749 582.823 1749.02 582.156 1749.05 581.54C1749.08 580.915 1749.19 580.359 1749.35 579.874C1749.52 579.379 1749.81 578.969 1750.21 578.642C1750.61 578.315 1751.17 578.087 1751.9 577.956C1752.27 577.891 1752.64 577.835 1753.01 577.788C1753.37 577.741 1753.74 577.695 1754.11 577.648C1754.23 577.629 1754.36 577.611 1754.49 577.592C1754.62 577.573 1754.76 577.55 1754.9 577.522C1755.05 577.494 1755.19 577.471 1755.32 577.452V578.544C1755.21 578.581 1755.1 578.614 1754.98 578.642C1754.87 578.661 1754.75 578.679 1754.62 578.698C1754.5 578.717 1754.37 578.731 1754.24 578.74C1754.12 578.749 1754 578.763 1753.88 578.782C1753.75 578.791 1753.64 578.805 1753.53 578.824C1753.2 578.861 1752.85 578.899 1752.49 578.936C1752.13 578.964 1751.78 579.039 1751.45 579.16C1751.14 579.272 1750.87 579.491 1750.64 579.818C1750.53 579.986 1750.43 580.187 1750.35 580.42C1750.27 580.653 1750.22 580.891 1750.18 581.134C1750.15 581.367 1750.13 581.591 1750.12 581.806C1750.31 581.545 1750.54 581.335 1750.81 581.176C1751.08 581.008 1751.37 580.887 1751.68 580.812C1751.99 580.728 1752.28 580.686 1752.56 580.686C1753.23 580.686 1753.8 580.826 1754.27 581.106C1754.73 581.377 1755.09 581.764 1755.33 582.268C1755.57 582.772 1755.7 583.36 1755.7 584.032C1755.7 584.704 1755.56 585.311 1755.3 585.852C1755.04 586.384 1754.66 586.809 1754.16 587.126C1753.66 587.434 1753.05 587.588 1752.34 587.588ZM1752.36 586.538C1752.83 586.538 1753.22 586.426 1753.54 586.202C1753.86 585.978 1754.09 585.679 1754.25 585.306C1754.42 584.933 1754.51 584.522 1754.51 584.074C1754.51 583.635 1754.42 583.243 1754.25 582.898C1754.09 582.543 1753.86 582.263 1753.54 582.058C1753.23 581.853 1752.85 581.75 1752.39 581.75C1751.94 581.75 1751.56 581.857 1751.23 582.072C1750.91 582.287 1750.66 582.576 1750.49 582.94C1750.32 583.295 1750.24 583.682 1750.24 584.102C1750.24 584.531 1750.31 584.933 1750.47 585.306C1750.63 585.679 1750.87 585.978 1751.17 586.202C1751.49 586.426 1751.89 586.538 1752.36 586.538ZM1757.29 590.164V580.126H1758.43L1758.48 581.26C1758.74 580.859 1759.08 580.555 1759.51 580.35C1759.94 580.145 1760.42 580.042 1760.92 580.042C1761.67 580.042 1762.28 580.21 1762.75 580.546C1763.23 580.873 1763.58 581.321 1763.8 581.89C1764.04 582.459 1764.15 583.103 1764.15 583.822C1764.15 584.541 1764.04 585.185 1763.8 585.754C1763.57 586.323 1763.21 586.771 1762.73 587.098C1762.24 587.425 1761.62 587.588 1760.86 587.588C1760.49 587.588 1760.15 587.551 1759.86 587.476C1759.56 587.392 1759.3 587.275 1759.07 587.126C1758.85 586.977 1758.65 586.809 1758.48 586.622V590.164H1757.29ZM1760.77 586.538C1761.31 586.538 1761.74 586.417 1762.05 586.174C1762.37 585.922 1762.6 585.591 1762.74 585.18C1762.89 584.769 1762.96 584.317 1762.96 583.822C1762.96 583.318 1762.89 582.861 1762.74 582.45C1762.6 582.039 1762.37 581.713 1762.04 581.47C1761.71 581.227 1761.28 581.106 1760.74 581.106C1760.25 581.106 1759.84 581.232 1759.49 581.484C1759.16 581.727 1758.9 582.058 1758.72 582.478C1758.54 582.889 1758.46 583.341 1758.46 583.836C1758.46 584.349 1758.54 584.811 1758.71 585.222C1758.88 585.633 1759.13 585.955 1759.48 586.188C1759.82 586.421 1760.25 586.538 1760.77 586.538ZM1765.69 587.504V580.126H1766.91V582.94H1768.53C1768.97 582.94 1769.36 582.977 1769.71 583.052C1770.06 583.117 1770.36 583.234 1770.62 583.402C1770.87 583.57 1771.06 583.799 1771.19 584.088C1771.33 584.368 1771.4 584.727 1771.4 585.166C1771.4 585.567 1771.33 585.917 1771.19 586.216C1771.05 586.505 1770.85 586.748 1770.6 586.944C1770.35 587.131 1770.05 587.271 1769.69 587.364C1769.35 587.457 1768.96 587.504 1768.54 587.504H1765.69ZM1766.91 586.468H1767.61C1767.93 586.468 1768.25 586.459 1768.54 586.44C1768.85 586.421 1769.13 586.375 1769.38 586.3C1769.64 586.225 1769.83 586.104 1769.97 585.936C1770.12 585.759 1770.2 585.516 1770.2 585.208C1770.2 584.909 1770.14 584.681 1770.01 584.522C1769.9 584.354 1769.75 584.233 1769.57 584.158C1769.38 584.074 1769.17 584.023 1768.95 584.004C1768.74 583.985 1768.52 583.976 1768.31 583.976H1766.91V586.468Z" fill="#1C2750" fill-opacity="0.5"/>
<path d="M1396.79 587.616C1395.77 587.616 1394.93 587.401 1394.24 586.972C1393.57 586.533 1393.07 585.936 1392.73 585.18C1392.41 584.415 1392.24 583.542 1392.24 582.562C1392.24 581.591 1392.41 580.728 1392.75 579.972C1393.08 579.207 1393.59 578.605 1394.26 578.166C1394.94 577.718 1395.79 577.494 1396.82 577.494C1397.55 577.494 1398.17 577.611 1398.7 577.844C1399.23 578.068 1399.66 578.381 1399.98 578.782C1400.31 579.183 1400.53 579.655 1400.66 580.196H1399.42C1399.28 579.711 1398.98 579.323 1398.51 579.034C1398.06 578.745 1397.48 578.6 1396.78 578.6C1395.99 578.6 1395.36 578.787 1394.87 579.16C1394.4 579.524 1394.05 580.005 1393.82 580.602C1393.6 581.19 1393.49 581.829 1393.49 582.52C1393.49 583.248 1393.6 583.915 1393.84 584.522C1394.07 585.129 1394.44 585.614 1394.93 585.978C1395.42 586.333 1396.05 586.51 1396.82 586.51C1397.29 586.51 1397.7 586.445 1398.07 586.314C1398.44 586.183 1398.75 585.997 1398.99 585.754C1399.24 585.511 1399.41 585.231 1399.51 584.914H1400.84C1400.7 585.455 1400.45 585.931 1400.08 586.342C1399.73 586.743 1399.27 587.056 1398.72 587.28C1398.17 587.504 1397.53 587.616 1396.79 587.616ZM1405.64 587.588C1404.86 587.588 1404.21 587.429 1403.69 587.112C1403.18 586.785 1402.8 586.337 1402.55 585.768C1402.29 585.199 1402.17 584.55 1402.17 583.822C1402.17 583.085 1402.3 582.436 1402.56 581.876C1402.83 581.307 1403.22 580.859 1403.74 580.532C1404.25 580.205 1404.88 580.042 1405.63 580.042C1406.18 580.042 1406.66 580.149 1407.07 580.364C1407.49 580.569 1407.83 580.849 1408.1 581.204C1408.38 581.559 1408.58 581.955 1408.71 582.394C1408.84 582.833 1408.89 583.285 1408.87 583.752C1408.86 583.836 1408.86 583.92 1408.86 584.004C1408.86 584.088 1408.86 584.172 1408.85 584.256H1403.37C1403.41 584.685 1403.52 585.073 1403.69 585.418C1403.87 585.763 1404.12 586.039 1404.45 586.244C1404.78 586.44 1405.18 586.538 1405.67 586.538C1405.91 586.538 1406.15 586.51 1406.4 586.454C1406.65 586.389 1406.87 586.281 1407.07 586.132C1407.27 585.983 1407.42 585.782 1407.5 585.53H1408.72C1408.61 586.006 1408.4 586.398 1408.09 586.706C1407.78 587.005 1407.41 587.229 1406.98 587.378C1406.55 587.518 1406.11 587.588 1405.64 587.588ZM1403.4 583.22H1407.67C1407.66 582.8 1407.57 582.431 1407.39 582.114C1407.21 581.797 1406.97 581.549 1406.66 581.372C1406.36 581.195 1406 581.106 1405.58 581.106C1405.13 581.106 1404.74 581.204 1404.42 581.4C1404.11 581.596 1403.88 581.853 1403.71 582.17C1403.54 582.487 1403.44 582.837 1403.4 583.22ZM1410.47 587.504V580.126H1411.66V583.36H1415.36V580.126H1416.55V587.504H1415.36V584.41H1411.66V587.504H1410.47ZM1420.15 587.504V581.176H1417.62V580.126H1423.88V581.176H1421.34V587.504H1420.15ZM1424.48 587.504L1426.39 584.592C1425.86 584.443 1425.44 584.2 1425.13 583.864C1424.83 583.519 1424.67 583.061 1424.67 582.492C1424.67 582.044 1424.74 581.671 1424.87 581.372C1425 581.064 1425.19 580.821 1425.44 580.644C1425.69 580.457 1426 580.327 1426.35 580.252C1426.71 580.168 1427.11 580.126 1427.57 580.126H1430.54V587.504H1429.35V584.774H1427.65L1425.86 587.504H1424.48ZM1428.47 583.738H1429.35V581.176H1427.77C1427.49 581.176 1427.23 581.19 1427 581.218C1426.76 581.246 1426.56 581.307 1426.39 581.4C1426.24 581.484 1426.11 581.61 1426.02 581.778C1425.92 581.937 1425.88 582.156 1425.88 582.436C1425.88 582.744 1425.95 582.987 1426.1 583.164C1426.26 583.341 1426.46 583.472 1426.7 583.556C1426.95 583.631 1427.23 583.682 1427.54 583.71C1427.85 583.729 1428.16 583.738 1428.47 583.738ZM1435.52 587.588C1435.06 587.588 1434.64 587.523 1434.28 587.392C1433.91 587.252 1433.6 587.061 1433.34 586.818C1433.08 586.566 1432.86 586.272 1432.7 585.936C1432.53 585.591 1432.4 585.217 1432.32 584.816C1432.23 584.415 1432.19 583.99 1432.19 583.542C1432.19 582.823 1432.21 582.156 1432.23 581.54C1432.27 580.915 1432.37 580.359 1432.54 579.874C1432.71 579.379 1433 578.969 1433.4 578.642C1433.8 578.315 1434.36 578.087 1435.09 577.956C1435.46 577.891 1435.83 577.835 1436.2 577.788C1436.56 577.741 1436.93 577.695 1437.3 577.648C1437.42 577.629 1437.55 577.611 1437.68 577.592C1437.81 577.573 1437.95 577.55 1438.09 577.522C1438.24 577.494 1438.38 577.471 1438.51 577.452V578.544C1438.4 578.581 1438.29 578.614 1438.17 578.642C1438.06 578.661 1437.94 578.679 1437.81 578.698C1437.69 578.717 1437.56 578.731 1437.43 578.74C1437.31 578.749 1437.19 578.763 1437.06 578.782C1436.94 578.791 1436.83 578.805 1436.71 578.824C1436.39 578.861 1436.04 578.899 1435.68 578.936C1435.31 578.964 1434.97 579.039 1434.64 579.16C1434.33 579.272 1434.05 579.491 1433.83 579.818C1433.72 579.986 1433.62 580.187 1433.54 580.42C1433.46 580.653 1433.41 580.891 1433.37 581.134C1433.34 581.367 1433.32 581.591 1433.31 581.806C1433.5 581.545 1433.73 581.335 1434 581.176C1434.27 581.008 1434.56 580.887 1434.87 580.812C1435.17 580.728 1435.47 580.686 1435.75 580.686C1436.42 580.686 1436.99 580.826 1437.46 581.106C1437.92 581.377 1438.28 581.764 1438.52 582.268C1438.76 582.772 1438.88 583.36 1438.88 584.032C1438.88 584.704 1438.75 585.311 1438.49 585.852C1438.23 586.384 1437.85 586.809 1437.34 587.126C1436.85 587.434 1436.24 587.588 1435.52 587.588ZM1435.55 586.538C1436.02 586.538 1436.41 586.426 1436.73 586.202C1437.05 585.978 1437.28 585.679 1437.44 585.306C1437.61 584.933 1437.69 584.522 1437.69 584.074C1437.69 583.635 1437.61 583.243 1437.44 582.898C1437.28 582.543 1437.05 582.263 1436.73 582.058C1436.42 581.853 1436.04 581.75 1435.58 581.75C1435.13 581.75 1434.75 581.857 1434.42 582.072C1434.1 582.287 1433.85 582.576 1433.68 582.94C1433.51 583.295 1433.42 583.682 1433.42 584.102C1433.42 584.531 1433.5 584.933 1433.66 585.306C1433.82 585.679 1434.05 585.978 1434.36 586.202C1434.68 586.426 1435.08 586.538 1435.55 586.538ZM1440.48 590.164V580.126H1441.62L1441.67 581.26C1441.92 580.859 1442.27 580.555 1442.69 580.35C1443.13 580.145 1443.6 580.042 1444.11 580.042C1444.86 580.042 1445.47 580.21 1445.94 580.546C1446.42 580.873 1446.77 581.321 1446.99 581.89C1447.23 582.459 1447.34 583.103 1447.34 583.822C1447.34 584.541 1447.23 585.185 1446.99 585.754C1446.76 586.323 1446.4 586.771 1445.91 587.098C1445.43 587.425 1444.81 587.588 1444.05 587.588C1443.68 587.588 1443.34 587.551 1443.04 587.476C1442.75 587.392 1442.48 587.275 1442.26 587.126C1442.04 586.977 1441.84 586.809 1441.67 586.622V590.164H1440.48ZM1443.95 586.538C1444.5 586.538 1444.93 586.417 1445.24 586.174C1445.56 585.922 1445.79 585.591 1445.93 585.18C1446.08 584.769 1446.15 584.317 1446.15 583.822C1446.15 583.318 1446.08 582.861 1445.93 582.45C1445.79 582.039 1445.56 581.713 1445.23 581.47C1444.9 581.227 1444.47 581.106 1443.93 581.106C1443.44 581.106 1443.03 581.232 1442.68 581.484C1442.34 581.727 1442.09 582.058 1441.91 582.478C1441.73 582.889 1441.64 583.341 1441.64 583.836C1441.64 584.349 1441.73 584.811 1441.9 585.222C1442.06 585.633 1442.32 585.955 1442.67 586.188C1443.01 586.421 1443.44 586.538 1443.95 586.538ZM1448.88 587.504V580.126H1450.1V582.94H1451.72C1452.16 582.94 1452.55 582.977 1452.9 583.052C1453.25 583.117 1453.55 583.234 1453.81 583.402C1454.06 583.57 1454.25 583.799 1454.38 584.088C1454.52 584.368 1454.59 584.727 1454.59 585.166C1454.59 585.567 1454.52 585.917 1454.38 586.216C1454.24 586.505 1454.04 586.748 1453.79 586.944C1453.54 587.131 1453.24 587.271 1452.88 587.364C1452.54 587.457 1452.15 587.504 1451.73 587.504H1448.88ZM1450.1 586.468H1450.8C1451.12 586.468 1451.43 586.459 1451.73 586.44C1452.04 586.421 1452.32 586.375 1452.57 586.3C1452.83 586.225 1453.02 586.104 1453.16 585.936C1453.31 585.759 1453.39 585.516 1453.39 585.208C1453.39 584.909 1453.32 584.681 1453.2 584.522C1453.09 584.354 1452.94 584.233 1452.76 584.158C1452.57 584.074 1452.36 584.023 1452.14 584.004C1451.92 583.985 1451.71 583.976 1451.5 583.976H1450.1V586.468Z" fill="#1C2750" fill-opacity="0.5"/>
<path d="M1065.12 587.504V577.606H1066.34V585.6L1071.65 577.606H1072.94V587.504H1071.72V579.58L1066.4 587.504H1065.12ZM1081.08 587.588C1079.99 587.588 1079.18 587.289 1078.63 586.692C1078.08 586.085 1077.76 585.301 1077.69 584.34H1076.29V587.504H1075.1V580.126H1076.29V583.304H1077.69C1077.74 582.66 1077.9 582.095 1078.15 581.61C1078.41 581.115 1078.78 580.733 1079.27 580.462C1079.76 580.182 1080.36 580.042 1081.08 580.042C1081.86 580.042 1082.51 580.205 1083.02 580.532C1083.54 580.859 1083.92 581.307 1084.17 581.876C1084.42 582.436 1084.55 583.085 1084.55 583.822C1084.55 584.55 1084.42 585.199 1084.17 585.768C1083.92 586.337 1083.54 586.785 1083.02 587.112C1082.51 587.429 1081.86 587.588 1081.08 587.588ZM1081.08 586.538C1081.62 586.538 1082.05 586.417 1082.38 586.174C1082.71 585.931 1082.96 585.605 1083.12 585.194C1083.28 584.783 1083.36 584.326 1083.36 583.822C1083.36 583.318 1083.28 582.861 1083.12 582.45C1082.96 582.039 1082.71 581.713 1082.38 581.47C1082.05 581.227 1081.62 581.106 1081.08 581.106C1080.54 581.106 1080.11 581.227 1079.77 581.47C1079.45 581.713 1079.21 582.039 1079.06 582.45C1078.91 582.861 1078.84 583.318 1078.84 583.822C1078.84 584.326 1078.91 584.783 1079.06 585.194C1079.21 585.605 1079.45 585.931 1079.77 586.174C1080.11 586.417 1080.54 586.538 1081.08 586.538ZM1085.35 587.518V586.482C1085.54 586.482 1085.7 586.445 1085.85 586.37C1086 586.286 1086.13 586.165 1086.25 586.006C1086.38 585.819 1086.48 585.549 1086.55 585.194C1086.63 584.839 1086.68 584.461 1086.71 584.06C1086.75 583.612 1086.77 583.173 1086.79 582.744C1086.81 582.305 1086.82 581.871 1086.83 581.442C1086.85 581.013 1086.86 580.574 1086.86 580.126H1091.99V587.504H1090.8V581.176H1088.02C1088.01 581.493 1088 581.815 1087.98 582.142C1087.97 582.459 1087.96 582.781 1087.94 583.108C1087.93 583.425 1087.92 583.747 1087.9 584.074C1087.89 584.447 1087.85 584.867 1087.79 585.334C1087.72 585.801 1087.58 586.225 1087.37 586.608C1087.16 586.972 1086.91 587.215 1086.61 587.336C1086.32 587.457 1085.9 587.518 1085.35 587.518ZM1093.86 587.504V580.126H1095.07V582.94H1096.7C1097.14 582.94 1097.53 582.977 1097.87 583.052C1098.23 583.117 1098.53 583.234 1098.78 583.402C1099.04 583.57 1099.23 583.799 1099.36 584.088C1099.5 584.368 1099.57 584.727 1099.57 585.166C1099.57 585.567 1099.5 585.917 1099.36 586.216C1099.22 586.505 1099.02 586.748 1098.77 586.944C1098.52 587.131 1098.21 587.271 1097.86 587.364C1097.51 587.457 1097.13 587.504 1096.71 587.504H1093.86ZM1095.07 586.468H1095.77C1096.1 586.468 1096.41 586.459 1096.71 586.44C1097.02 586.421 1097.3 586.375 1097.55 586.3C1097.8 586.225 1098 586.104 1098.14 585.936C1098.29 585.759 1098.36 585.516 1098.36 585.208C1098.36 584.909 1098.3 584.681 1098.18 584.522C1098.07 584.354 1097.92 584.233 1097.73 584.158C1097.55 584.074 1097.34 584.023 1097.12 584.004C1096.9 583.985 1096.69 583.976 1096.47 583.976H1095.07V586.468Z" fill="#1C2750" fill-opacity="0.5"/>
<path d="M728.898 587.898V578H730.718L733.742 583.446L736.724 578H738.502V587.898H737.284V579.232L733.994 585.322H733.434L730.116 579.232V587.898H728.898ZM743.589 587.982C743.038 587.982 742.557 587.889 742.147 587.702C741.745 587.506 741.414 587.24 741.153 586.904C740.891 586.568 740.695 586.172 740.565 585.714C740.443 585.257 740.383 584.762 740.383 584.23C740.383 583.521 740.495 582.882 740.719 582.312C740.952 581.734 741.321 581.276 741.825 580.94C742.329 580.604 742.987 580.436 743.799 580.436C744.228 580.436 744.639 580.516 745.031 580.674C745.432 580.833 745.773 581.08 746.053 581.416V580.52H747.243V587.898H746.053V586.904C745.791 587.25 745.446 587.516 745.017 587.702C744.587 587.889 744.111 587.982 743.589 587.982ZM743.785 586.932C744.27 586.932 744.681 586.806 745.017 586.554C745.353 586.302 745.609 585.966 745.787 585.546C745.973 585.126 746.067 584.669 746.067 584.174C746.067 583.661 745.978 583.204 745.801 582.802C745.633 582.401 745.381 582.084 745.045 581.85C744.709 581.617 744.284 581.5 743.771 581.5C743.239 581.5 742.809 581.622 742.483 581.864C742.165 582.107 741.932 582.434 741.783 582.844C741.643 583.255 741.573 583.712 741.573 584.216C741.573 584.739 741.647 585.206 741.797 585.616C741.946 586.027 742.184 586.349 742.511 586.582C742.837 586.816 743.262 586.932 743.785 586.932ZM749.112 587.898V580.52H750.302V586.176C750.367 586.046 750.456 585.906 750.568 585.756C750.68 585.598 750.768 585.476 750.834 585.392L754.404 580.52H755.58V587.898H754.39V582.242C754.315 582.382 754.231 582.513 754.138 582.634C754.054 582.756 753.974 582.868 753.9 582.97L750.274 587.898H749.112ZM752.444 579.484C751.706 579.484 751.128 579.326 750.708 579.008C750.297 578.691 750.082 578.229 750.064 577.622H751.156C751.174 577.949 751.296 578.187 751.52 578.336C751.753 578.486 752.066 578.56 752.458 578.56C752.85 578.56 753.158 578.486 753.382 578.336C753.615 578.187 753.741 577.949 753.76 577.622H754.852C754.842 578.024 754.74 578.364 754.544 578.644C754.348 578.924 754.072 579.134 753.718 579.274C753.363 579.414 752.938 579.484 752.444 579.484Z" fill="#1C2750" fill-opacity="0.5"/>
<path d="M397.616 587.898V578H399.436L402.46 583.446L405.442 578H407.22V587.898H406.002V579.232L402.712 585.322H402.152L398.834 579.232V587.898H397.616ZM412.307 587.982C411.757 587.982 411.276 587.889 410.865 587.702C410.464 587.506 410.133 587.24 409.871 586.904C409.61 586.568 409.414 586.172 409.283 585.714C409.162 585.257 409.101 584.762 409.101 584.23C409.101 583.521 409.213 582.882 409.437 582.312C409.671 581.734 410.039 581.276 410.543 580.94C411.047 580.604 411.705 580.436 412.517 580.436C412.947 580.436 413.357 580.516 413.749 580.674C414.151 580.833 414.491 581.08 414.771 581.416V580.52H415.961V587.898H414.771V586.904C414.51 587.25 414.165 587.516 413.735 587.702C413.306 587.889 412.83 587.982 412.307 587.982ZM412.503 586.932C412.989 586.932 413.399 586.806 413.735 586.554C414.071 586.302 414.328 585.966 414.505 585.546C414.692 585.126 414.785 584.669 414.785 584.174C414.785 583.661 414.697 583.204 414.519 582.802C414.351 582.401 414.099 582.084 413.763 581.85C413.427 581.617 413.003 581.5 412.489 581.5C411.957 581.5 411.528 581.622 411.201 581.864C410.884 582.107 410.651 582.434 410.501 582.844C410.361 583.255 410.291 583.712 410.291 584.216C410.291 584.739 410.366 585.206 410.515 585.616C410.665 586.027 410.903 586.349 411.229 586.582C411.556 586.816 411.981 586.932 412.503 586.932ZM417.831 590.558V580.52H418.965L419.021 581.654C419.273 581.253 419.613 580.95 420.043 580.744C420.481 580.539 420.953 580.436 421.457 580.436C422.203 580.436 422.815 580.604 423.291 580.94C423.767 581.267 424.117 581.715 424.341 582.284C424.574 582.854 424.691 583.498 424.691 584.216C424.691 584.935 424.574 585.579 424.341 586.148C424.107 586.718 423.748 587.166 423.263 587.492C422.777 587.819 422.157 587.982 421.401 587.982C421.027 587.982 420.691 587.945 420.393 587.87C420.094 587.786 419.833 587.67 419.609 587.52C419.385 587.371 419.189 587.203 419.021 587.016V590.558H417.831ZM421.303 586.932C421.844 586.932 422.273 586.811 422.591 586.568C422.908 586.316 423.137 585.985 423.277 585.574C423.426 585.164 423.501 584.711 423.501 584.216C423.501 583.712 423.426 583.255 423.277 582.844C423.137 582.434 422.903 582.107 422.577 581.864C422.25 581.622 421.816 581.5 421.275 581.5C420.789 581.5 420.374 581.626 420.029 581.878C419.693 582.121 419.436 582.452 419.259 582.872C419.081 583.283 418.993 583.736 418.993 584.23C418.993 584.744 419.077 585.206 419.245 585.616C419.413 586.027 419.669 586.349 420.015 586.582C420.36 586.816 420.789 586.932 421.303 586.932ZM427.947 587.898V581.57H425.413V580.52H431.671V581.57H429.137V587.898H427.947Z" fill="#1C2750" fill-opacity="0.5"/>
<path d="M66.3166 587.504L68.4306 583.57C67.8146 583.421 67.2966 583.117 66.8766 582.66C66.4566 582.193 66.2466 581.549 66.2466 580.728C66.2466 580.168 66.3306 579.692 66.4986 579.3C66.6666 578.908 66.9046 578.586 67.2126 578.334C67.5299 578.082 67.9079 577.9 68.3466 577.788C68.7946 577.667 69.2892 577.606 69.8306 577.606H73.4986V587.504H72.2806V583.794H69.6486L67.6746 587.504H66.3166ZM70.1946 582.688H72.2806V578.712H69.8166C69.2846 578.712 68.8459 578.787 68.5006 578.936C68.1552 579.076 67.8986 579.291 67.7306 579.58C67.5626 579.869 67.4786 580.238 67.4786 580.686C67.4786 581.227 67.6046 581.643 67.8566 581.932C68.1086 582.221 68.4399 582.422 68.8506 582.534C69.2706 582.637 69.7186 582.688 70.1946 582.688ZM75.6568 587.504V580.126H76.8468V583.36H80.5428V580.126H81.7328V587.504H80.5428V584.41H76.8468V587.504H75.6568ZM83.6138 587.504V580.126H86.4698C86.7964 580.126 87.1184 580.149 87.4358 580.196C87.7624 580.233 88.0564 580.317 88.3178 580.448C88.5884 580.569 88.8031 580.751 88.9618 580.994C89.1298 581.237 89.2138 581.559 89.2138 581.96C89.2138 582.203 89.1764 582.427 89.1018 582.632C89.0271 582.828 88.9151 583.001 88.7658 583.15C88.6258 583.299 88.4438 583.43 88.2198 583.542C88.7238 583.654 89.0878 583.873 89.3118 584.2C89.5358 584.527 89.6478 584.9 89.6478 585.32C89.6478 585.693 89.5778 586.02 89.4378 586.3C89.3071 586.571 89.1204 586.795 88.8778 586.972C88.6444 587.149 88.3691 587.285 88.0518 587.378C87.7438 587.462 87.4124 587.504 87.0578 587.504H83.6138ZM84.8318 586.468H86.7778C87.0671 586.468 87.3378 586.44 87.5898 586.384C87.8418 586.328 88.0471 586.225 88.2058 586.076C88.3644 585.917 88.4438 585.693 88.4438 585.404C88.4438 585.105 88.3738 584.881 88.2338 584.732C88.1031 584.573 87.9304 584.466 87.7158 584.41C87.5104 584.345 87.2864 584.307 87.0438 584.298C86.8011 584.289 86.5724 584.284 86.3578 584.284H84.8318V586.468ZM84.8318 583.276H85.8538C86.0404 583.276 86.2551 583.267 86.4978 583.248C86.7498 583.229 86.9924 583.187 87.2258 583.122C87.4684 583.047 87.6644 582.935 87.8138 582.786C87.9724 582.637 88.0518 582.431 88.0518 582.17C88.0518 581.825 87.9538 581.587 87.7578 581.456C87.5711 581.316 87.3471 581.237 87.0858 581.218C86.8244 581.19 86.5818 581.176 86.3578 581.176H84.8318V583.276ZM94.196 587.588C93.6454 587.588 93.1647 587.495 92.754 587.308C92.3527 587.112 92.0214 586.846 91.76 586.51C91.4987 586.174 91.3027 585.777 91.172 585.32C91.0507 584.863 90.99 584.368 90.99 583.836C90.99 583.127 91.102 582.487 91.326 581.918C91.5594 581.339 91.928 580.882 92.432 580.546C92.936 580.21 93.594 580.042 94.406 580.042C94.8354 580.042 95.246 580.121 95.638 580.28C96.0394 580.439 96.38 580.686 96.66 581.022V580.126H97.85V587.504H96.66V586.51C96.3987 586.855 96.0534 587.121 95.624 587.308C95.1947 587.495 94.7187 587.588 94.196 587.588ZM94.392 586.538C94.8774 586.538 95.288 586.412 95.624 586.16C95.96 585.908 96.2167 585.572 96.394 585.152C96.5807 584.732 96.674 584.275 96.674 583.78C96.674 583.267 96.5854 582.809 96.408 582.408C96.24 582.007 95.988 581.689 95.652 581.456C95.316 581.223 94.8914 581.106 94.378 581.106C93.846 581.106 93.4167 581.227 93.09 581.47C92.7727 581.713 92.5394 582.039 92.39 582.45C92.25 582.861 92.18 583.318 92.18 583.822C92.18 584.345 92.2547 584.811 92.404 585.222C92.5534 585.633 92.7914 585.955 93.118 586.188C93.4447 586.421 93.8694 586.538 94.392 586.538ZM99.7193 590.164V580.126H100.853L100.909 581.26C101.161 580.859 101.502 580.555 101.931 580.35C102.37 580.145 102.841 580.042 103.345 580.042C104.092 580.042 104.703 580.21 105.179 580.546C105.655 580.873 106.005 581.321 106.229 581.89C106.463 582.459 106.579 583.103 106.579 583.822C106.579 584.541 106.463 585.185 106.229 585.754C105.996 586.323 105.637 586.771 105.151 587.098C104.666 587.425 104.045 587.588 103.289 587.588C102.916 587.588 102.58 587.551 102.281 587.476C101.983 587.392 101.721 587.275 101.497 587.126C101.273 586.977 101.077 586.809 100.909 586.622V590.164H99.7193ZM103.191 586.538C103.733 586.538 104.162 586.417 104.479 586.174C104.797 585.922 105.025 585.591 105.165 585.18C105.315 584.769 105.389 584.317 105.389 583.822C105.389 583.318 105.315 582.861 105.165 582.45C105.025 582.039 104.792 581.713 104.465 581.47C104.139 581.227 103.705 581.106 103.163 581.106C102.678 581.106 102.263 581.232 101.917 581.484C101.581 581.727 101.325 582.058 101.147 582.478C100.97 582.889 100.881 583.341 100.881 583.836C100.881 584.349 100.965 584.811 101.133 585.222C101.301 585.633 101.558 585.955 101.903 586.188C102.249 586.421 102.678 586.538 103.191 586.538ZM108.114 587.504V580.126H109.332V582.94H110.956C111.394 582.94 111.786 582.977 112.132 583.052C112.486 583.117 112.79 583.234 113.042 583.402C113.294 583.57 113.485 583.799 113.616 584.088C113.756 584.368 113.826 584.727 113.826 585.166C113.826 585.567 113.756 585.917 113.616 586.216C113.476 586.505 113.28 586.748 113.028 586.944C112.776 587.131 112.472 587.271 112.118 587.364C111.772 587.457 111.39 587.504 110.97 587.504H108.114ZM109.332 586.468H110.032C110.358 586.468 110.671 586.459 110.97 586.44C111.278 586.421 111.558 586.375 111.81 586.3C112.062 586.225 112.258 586.104 112.398 585.936C112.547 585.759 112.622 585.516 112.622 585.208C112.622 584.909 112.561 584.681 112.44 584.522C112.328 584.354 112.178 584.233 111.992 584.158C111.805 584.074 111.6 584.023 111.376 584.004C111.161 583.985 110.946 583.976 110.732 583.976H109.332V586.468Z" fill="#1C2750" fill-opacity="0.5"/>
</g>
<line opacity="0.5" x1="1.72355" y1="544.155" x2="1841.42" y2="543.891" stroke="#DDEBFF" stroke-width="1.43167" stroke-linecap="round" stroke-linejoin="round" stroke-dasharray="5.01 5.01"/>
<line opacity="0.5" x1="54.6924" y1="236.347" x2="1788.45" y2="236.347" stroke="#1C2750" stroke-opacity="0.5" stroke-width="1.43167" stroke-linecap="round" stroke-linejoin="round" stroke-dasharray="5.01 5.01"/>
<line opacity="0.5" x1="54.6924" y1="133.265" x2="1788.45" y2="133.264" stroke="#1C2750" stroke-opacity="0.5" stroke-width="1.43167" stroke-linecap="round" stroke-linejoin="round" stroke-dasharray="5.01 5.01"/>
<line opacity="0.5" x1="54.6924" y1="30.1826" x2="1788.45" y2="30.1827" stroke="#1C2750" stroke-opacity="0.5" stroke-width="1.43167" stroke-linecap="round" stroke-linejoin="round" stroke-dasharray="5.01 5.01"/>
<path d="M24.568 441.582V433.464H22.5064V432.62C22.8881 432.591 23.227 432.548 23.5228 432.491C23.8187 432.424 24.0812 432.314 24.3103 432.162C24.5489 431.999 24.7589 431.766 24.9402 431.46H25.8135V441.582H24.568ZM32.1169 441.697C31.4106 441.697 30.8046 441.568 30.2987 441.31C29.8024 441.043 29.3967 440.675 29.0818 440.208C28.7668 439.73 28.533 439.182 28.3802 438.561C28.2371 437.931 28.1655 437.254 28.1655 436.528C28.1655 435.803 28.2371 435.13 28.3802 434.51C28.5234 433.88 28.7525 433.331 29.0675 432.863C29.3824 432.386 29.7881 432.014 30.2844 431.746C30.7902 431.479 31.4011 431.346 32.1169 431.346C32.8709 431.346 33.5009 431.493 34.0067 431.789C34.5221 432.076 34.9278 432.467 35.2237 432.963C35.5291 433.46 35.7438 434.018 35.8679 434.638C36.0015 435.249 36.0683 435.879 36.0683 436.528C36.0683 437.177 36.0015 437.812 35.8679 438.432C35.7438 439.043 35.5291 439.597 35.2237 440.093C34.9278 440.58 34.5221 440.971 34.0067 441.267C33.5009 441.553 32.8709 441.697 32.1169 441.697ZM32.1169 440.566C32.68 440.566 33.1334 440.446 33.477 440.208C33.8302 439.959 34.1022 439.635 34.2931 439.234C34.484 438.833 34.6128 438.399 34.6796 437.931C34.7464 437.454 34.7798 436.986 34.7798 436.528C34.7798 436.08 34.7464 435.621 34.6796 435.154C34.6128 434.677 34.484 434.238 34.2931 433.837C34.1022 433.426 33.8302 433.097 33.477 432.849C33.1334 432.601 32.68 432.477 32.1169 432.477C31.5442 432.477 31.0813 432.601 30.7282 432.849C30.375 433.097 30.103 433.426 29.9121 433.837C29.7308 434.238 29.6067 434.677 29.5399 435.154C29.4731 435.621 29.4397 436.08 29.4397 436.528C29.4397 436.986 29.4731 437.454 29.5399 437.931C29.6067 438.399 29.7308 438.833 29.9121 439.234C30.103 439.635 30.375 439.959 30.7282 440.208C31.0813 440.446 31.5442 440.566 32.1169 440.566ZM41.6381 441.697C40.9318 441.697 40.3257 441.568 39.8199 441.31C39.3236 441.043 38.9179 440.675 38.603 440.208C38.288 439.73 38.0542 439.182 37.9014 438.561C37.7583 437.931 37.6867 437.254 37.6867 436.528C37.6867 435.803 37.7583 435.13 37.9014 434.51C38.0446 433.88 38.2737 433.331 38.5886 432.863C38.9036 432.386 39.3093 432.014 39.8056 431.746C40.3114 431.479 40.9223 431.346 41.6381 431.346C42.3921 431.346 43.0221 431.493 43.5279 431.789C44.0433 432.076 44.449 432.467 44.7448 432.963C45.0503 433.46 45.265 434.018 45.3891 434.638C45.5227 435.249 45.5895 435.879 45.5895 436.528C45.5895 437.177 45.5227 437.812 45.3891 438.432C45.265 439.043 45.0503 439.597 44.7448 440.093C44.449 440.58 44.0433 440.971 43.5279 441.267C43.0221 441.553 42.3921 441.697 41.6381 441.697ZM41.6381 440.566C42.2012 440.566 42.6546 440.446 42.9982 440.208C43.3514 439.959 43.6234 439.635 43.8143 439.234C44.0051 438.833 44.134 438.399 44.2008 437.931C44.2676 437.454 44.301 436.986 44.301 436.528C44.301 436.08 44.2676 435.621 44.2008 435.154C44.134 434.677 44.0051 434.238 43.8143 433.837C43.6234 433.426 43.3514 433.097 42.9982 432.849C42.6546 432.601 42.2012 432.477 41.6381 432.477C41.0654 432.477 40.6025 432.601 40.2494 432.849C39.8962 433.097 39.6242 433.426 39.4333 433.837C39.252 434.238 39.1279 434.677 39.0611 435.154C38.9943 435.621 38.9609 436.08 38.9609 436.528C38.9609 436.986 38.9943 437.454 39.0611 437.931C39.1279 438.399 39.252 438.833 39.4333 439.234C39.6242 439.635 39.8962 439.959 40.2494 440.208C40.6025 440.446 41.0654 440.566 41.6381 440.566Z" fill="#003990"/>
<path opacity="0.5" d="M26.4604 235.439C26.0498 235.439 25.6531 235.392 25.2704 235.298C24.8971 235.205 24.5564 235.065 24.2484 234.878C23.9404 234.682 23.6791 234.435 23.4644 234.136C23.2498 233.838 23.1004 233.483 23.0164 233.072H24.2484C24.3511 233.334 24.5144 233.558 24.7384 233.744C24.9624 233.931 25.2144 234.076 25.4944 234.178C25.7838 234.272 26.0684 234.318 26.3484 234.318C26.8058 234.318 27.2118 234.244 27.5664 234.094C27.9304 233.945 28.2198 233.716 28.4344 233.408C28.6491 233.091 28.7564 232.685 28.7564 232.19C28.7564 231.509 28.5511 230.986 28.1404 230.622C27.7298 230.258 27.1978 230.076 26.5444 230.076C26.1524 230.076 25.7884 230.146 25.4524 230.286C25.1258 230.426 24.8271 230.618 24.5564 230.86H23.2964L23.7444 225.414H29.6664V226.534H24.8364L24.5564 229.642C24.8084 229.437 25.1164 229.274 25.4804 229.152C25.8444 229.022 26.2924 228.956 26.8244 228.956C27.4591 228.956 28.0144 229.087 28.4904 229.348C28.9758 229.61 29.3491 229.978 29.6104 230.454C29.8811 230.921 30.0164 231.476 30.0164 232.12C30.0164 232.811 29.8578 233.404 29.5404 233.898C29.2324 234.393 28.8078 234.776 28.2664 235.046C27.7344 235.308 27.1324 235.439 26.4604 235.439ZM35.4374 235.425C34.7467 235.425 34.1541 235.298 33.6594 235.046C33.1741 234.785 32.7774 234.426 32.4694 233.968C32.1614 233.502 31.9327 232.965 31.7834 232.358C31.6434 231.742 31.5734 231.08 31.5734 230.37C31.5734 229.661 31.6434 229.003 31.7834 228.396C31.9234 227.78 32.1474 227.244 32.4554 226.786C32.7634 226.32 33.1601 225.956 33.6454 225.694C34.1401 225.433 34.7374 225.302 35.4374 225.302C36.1747 225.302 36.7907 225.447 37.2854 225.736C37.7894 226.016 38.1861 226.399 38.4754 226.884C38.7741 227.37 38.9841 227.916 39.1054 228.522C39.2361 229.12 39.3014 229.736 39.3014 230.37C39.3014 231.005 39.2361 231.626 39.1054 232.232C38.9841 232.83 38.7741 233.371 38.4754 233.856C38.1861 234.332 37.7894 234.715 37.2854 235.004C36.7907 235.284 36.1747 235.425 35.4374 235.425ZM35.4374 234.318C35.9881 234.318 36.4314 234.202 36.7674 233.968C37.1127 233.726 37.3787 233.408 37.5654 233.016C37.7521 232.624 37.8781 232.2 37.9434 231.742C38.0087 231.276 38.0414 230.818 38.0414 230.37C38.0414 229.932 38.0087 229.484 37.9434 229.026C37.8781 228.56 37.7521 228.13 37.5654 227.738C37.3787 227.337 37.1127 227.015 36.7674 226.772C36.4314 226.53 35.9881 226.408 35.4374 226.408C34.8774 226.408 34.4247 226.53 34.0794 226.772C33.7341 227.015 33.4681 227.337 33.2814 227.738C33.1041 228.13 32.9827 228.56 32.9174 229.026C32.8521 229.484 32.8194 229.932 32.8194 230.37C32.8194 230.818 32.8521 231.276 32.9174 231.742C32.9827 232.2 33.1041 232.624 33.2814 233.016C33.4681 233.408 33.7341 233.726 34.0794 233.968C34.4247 234.202 34.8774 234.318 35.4374 234.318Z" fill="#1C2750" fill-opacity="0.5"/>
<path opacity="0.5" d="M23.5484 132.676L27.5524 123.898H22.3164V122.778H28.8964V123.786L24.8924 132.676H23.5484ZM33.5288 132.802C33.1181 132.802 32.7215 132.755 32.3388 132.662C31.9655 132.568 31.6248 132.428 31.3168 132.242C31.0088 132.046 30.7475 131.798 30.5328 131.5C30.3181 131.201 30.1688 130.846 30.0848 130.436H31.3168C31.4195 130.697 31.5828 130.921 31.8068 131.108C32.0308 131.294 32.2828 131.439 32.5628 131.542C32.8521 131.635 33.1368 131.682 33.4168 131.682C33.8741 131.682 34.2801 131.607 34.6348 131.458C34.9988 131.308 35.2881 131.08 35.5028 130.772C35.7175 130.454 35.8248 130.048 35.8248 129.554C35.8248 128.872 35.6195 128.35 35.2088 127.986C34.7981 127.622 34.2661 127.44 33.6128 127.44C33.2208 127.44 32.8568 127.51 32.5208 127.65C32.1941 127.79 31.8955 127.981 31.6248 128.224H30.3648L30.8128 122.778H36.7348V123.898H31.9048L31.6248 127.006C31.8768 126.8 32.1848 126.637 32.5488 126.516C32.9128 126.385 33.3608 126.32 33.8928 126.32C34.5275 126.32 35.0828 126.45 35.5588 126.712C36.0441 126.973 36.4175 127.342 36.6788 127.818C36.9495 128.284 37.0848 128.84 37.0848 129.484C37.0848 130.174 36.9261 130.767 36.6088 131.262C36.3008 131.756 35.8761 132.139 35.3348 132.41C34.8028 132.671 34.2008 132.802 33.5288 132.802Z" fill="#1C2750" fill-opacity="0.5"/>
<path opacity="0.5" d="M24.5144 30.0391V22.1011H22.4984V21.2751C22.8718 21.2471 23.2031 21.2051 23.4924 21.1491C23.7818 21.0837 24.0384 20.9764 24.2624 20.8271C24.4958 20.6684 24.7011 20.4397 24.8784 20.1411H25.7324V30.0391H24.5144ZM31.8964 30.1511C31.2057 30.1511 30.613 30.0251 30.1184 29.7731C29.633 29.5117 29.2364 29.1524 28.9284 28.6951C28.6204 28.2284 28.3917 27.6917 28.2424 27.0851C28.1024 26.4691 28.0324 25.8064 28.0324 25.0971C28.0324 24.3877 28.1024 23.7297 28.2424 23.1231C28.3824 22.5071 28.6064 21.9704 28.9144 21.5131C29.2224 21.0464 29.619 20.6824 30.1044 20.4211C30.599 20.1597 31.1964 20.0291 31.8964 20.0291C32.6337 20.0291 33.2497 20.1737 33.7444 20.4631C34.2484 20.7431 34.645 21.1257 34.9344 21.6111C35.233 22.0964 35.443 22.6424 35.5644 23.2491C35.695 23.8464 35.7604 24.4624 35.7604 25.0971C35.7604 25.7317 35.695 26.3524 35.5644 26.9591C35.443 27.5564 35.233 28.0977 34.9344 28.5831C34.645 29.0591 34.2484 29.4417 33.7444 29.7311C33.2497 30.0111 32.6337 30.1511 31.8964 30.1511ZM31.8964 29.0451C32.447 29.0451 32.8904 28.9284 33.2264 28.6951C33.5717 28.4524 33.8377 28.1351 34.0244 27.7431C34.211 27.3511 34.337 26.9264 34.4024 26.4691C34.4677 26.0024 34.5004 25.5451 34.5004 25.0971C34.5004 24.6584 34.4677 24.2104 34.4024 23.7531C34.337 23.2864 34.211 22.8571 34.0244 22.4651C33.8377 22.0637 33.5717 21.7417 33.2264 21.4991C32.8904 21.2564 32.447 21.1351 31.8964 21.1351C31.3364 21.1351 30.8837 21.2564 30.5384 21.4991C30.193 21.7417 29.927 22.0637 29.7404 22.4651C29.563 22.8571 29.4417 23.2864 29.3764 23.7531C29.311 24.2104 29.2784 24.6584 29.2784 25.0971C29.2784 25.5451 29.311 26.0024 29.3764 26.4691C29.4417 26.9264 29.563 27.3511 29.7404 27.7431C29.927 28.1351 30.193 28.4524 30.5384 28.6951C30.8837 28.9284 31.3364 29.0451 31.8964 29.0451ZM41.2069 30.1511C40.5163 30.1511 39.9236 30.0251 39.4289 29.7731C38.9436 29.5117 38.5469 29.1524 38.2389 28.6951C37.9309 28.2284 37.7023 27.6917 37.5529 27.0851C37.4129 26.4691 37.3429 25.8064 37.3429 25.0971C37.3429 24.3877 37.4129 23.7297 37.5529 23.1231C37.6929 22.5071 37.9169 21.9704 38.2249 21.5131C38.5329 21.0464 38.9296 20.6824 39.4149 20.4211C39.9096 20.1597 40.5069 20.0291 41.2069 20.0291C41.9443 20.0291 42.5603 20.1737 43.0549 20.4631C43.5589 20.7431 43.9556 21.1257 44.2449 21.6111C44.5436 22.0964 44.7536 22.6424 44.8749 23.2491C45.0056 23.8464 45.0709 24.4624 45.0709 25.0971C45.0709 25.7317 45.0056 26.3524 44.8749 26.9591C44.7536 27.5564 44.5436 28.0977 44.2449 28.5831C43.9556 29.0591 43.5589 29.4417 43.0549 29.7311C42.5603 30.0111 41.9443 30.1511 41.2069 30.1511ZM41.2069 29.0451C41.7576 29.0451 42.2009 28.9284 42.5369 28.6951C42.8823 28.4524 43.1483 28.1351 43.3349 27.7431C43.5216 27.3511 43.6476 26.9264 43.7129 26.4691C43.7783 26.0024 43.8109 25.5451 43.8109 25.0971C43.8109 24.6584 43.7783 24.2104 43.7129 23.7531C43.6476 23.2864 43.5216 22.8571 43.3349 22.4651C43.1483 22.0637 42.8823 21.7417 42.5369 21.4991C42.2009 21.2564 41.7576 21.1351 41.2069 21.1351C40.6469 21.1351 40.1943 21.2564 39.8489 21.4991C39.5036 21.7417 39.2376 22.0637 39.0509 22.4651C38.8736 22.8571 38.7523 23.2864 38.6869 23.7531C38.6216 24.2104 38.5889 24.6584 38.5889 25.0971C38.5889 25.5451 38.6216 26.0024 38.6869 26.4691C38.7523 26.9264 38.8736 27.3511 39.0509 27.7431C39.2376 28.1351 39.5036 28.4524 39.8489 28.6951C40.1943 28.9284 40.6469 29.0451 41.2069 29.0451Z" fill="#1C2750" fill-opacity="0.5"/>
<path d="M250.985 323.921C156.026 297.024 44.7674 335.129 1.00781 357.543V543.913H1842.14V1.53516C1812.24 11.525 1786.75 21.4501 1766.16 32.7617C1652.61 95.1342 1666.79 173.821 1647.36 215.681C1624.4 265.133 1593.56 267.383 1573.13 273.733C1513.68 292.205 1479.09 253.903 1414.54 194.637C1362.91 147.224 1275.94 208.921 1243.85 228.676C1186.96 263.058 1057.64 188.042 1001.6 129.074C921.572 44.8737 816.333 37.1725 736.852 129.074C657.371 220.975 578.533 145.629 479.527 194.637C380.521 243.646 369.683 357.543 250.985 323.921Z" fill="url(#paint0_linear_3682_8851)"/>
<path d="M1.00781 357.923C44.7674 335.48 156.026 297.326 250.985 324.258C369.683 357.923 380.521 243.88 479.527 194.808C578.533 145.737 657.371 221.18 736.852 129.161C816.333 37.142 921.572 44.8531 1001.6 129.161C1057.64 188.205 1186.96 263.317 1243.85 228.891C1275.94 209.11 1362.91 147.335 1414.54 194.808C1479.09 254.15 1503.43 287.503 1567.77 273.736C1621.34 262.273 1645.26 239.017 1657.31 173.398C1672.08 92.9443 1750.24 19.3006 1842.14 3.89453" stroke="#B4D0FA" stroke-width="4.29502"/>
<path d="M1590.52 379.19C1686.1 352.368 1798.09 390.365 1842.13 412.717V543.439H1.00977V380.669C84.7562 358.753 72.4144 340.576 121.264 334.414C200.722 324.393 193.684 365.548 258.101 379.186C322.863 392.897 386.459 349.271 451.427 290.172C503.402 242.892 580.996 270.472 613.296 290.172C670.556 324.457 764.878 347.708 840.637 312.703C935.336 268.947 987.64 281.449 1107.12 312.703C1226.59 343.958 1214.48 363.847 1314.13 412.717C1413.79 461.588 1471.05 412.717 1590.52 379.19Z" fill="#FAFCFF" fill-opacity="0.3"/>
<path d="M1842.13 412.717C1798.09 390.365 1686.1 352.368 1590.52 379.19C1471.05 412.717 1413.79 461.588 1314.13 412.717C1214.48 363.847 1226.59 343.958 1107.12 312.703C987.64 281.449 935.336 268.947 840.637 312.703C764.878 347.708 670.556 324.457 613.296 290.172C580.996 270.472 503.402 242.892 451.427 290.172C386.46 349.271 320.094 400.431 257.989 378.796C200.633 358.816 186.644 335.822 149.897 331.551C106.565 326.514 92.9722 353.141 1.00357 381.66" stroke="#B4D0FA" stroke-width="4.29502"/>
<line x1="1758.5" y1="48.9688" x2="1758.5" y2="327.102" stroke="url(#paint1_linear_3682_8851)" stroke-width="1.00773" stroke-dasharray="2.02 2.02"/>
<g filter="url(#filter0_bd_3682_8851)">
<circle cx="1758" cy="30.9688" r="23" fill="#81E062"/>
<circle cx="1758" cy="30.9688" r="22.4961" stroke="#B4D0FA" stroke-width="1.00773"/>
</g>
<defs>
<filter id="filter0_bd_3682_8851" x="1705" y="-22.0312" width="106" height="106" filterUnits="userSpaceOnUse" color-interpolation-filters="sRGB">
<feFlood flood-opacity="0" result="BackgroundImageFix"/>
<feGaussianBlur in="BackgroundImageFix" stdDeviation="15"/>
<feComposite in2="SourceAlpha" operator="in" result="effect1_backgroundBlur_3682_8851"/>
<feColorMatrix in="SourceAlpha" type="matrix" values="0 0 0 0 0 0 0 0 0 0 0 0 0 0 0 0 0 0 127 0" result="hardAlpha"/>
<feOffset dy="3"/>
<feGaussianBlur stdDeviation="5"/>
<feComposite in2="hardAlpha" operator="out"/>
<feColorMatrix type="matrix" values="0 0 0 0 0.505882 0 0 0 0 0.878431 0 0 0 0 0.384314 0 0 0 0.3 0"/>
<feBlend mode="normal" in2="effect1_backgroundBlur_3682_8851" result="effect2_dropShadow_3682_8851"/>
<feBlend mode="normal" in="SourceGraphic" in2="effect2_dropShadow_3682_8851" result="shape"/>
</filter>
<linearGradient id="paint0_linear_3682_8851" x1="921.572" y1="63.0043" x2="921.572" y2="543.913" gradientUnits="userSpaceOnUse">
<stop stop-color="#0166FF"/>
<stop offset="1" stop-color="#8DB8FF"/>
</linearGradient>
<linearGradient id="paint1_linear_3682_8851" x1="1757.5" y1="327.102" x2="1757.5" y2="48.9688" gradientUnits="userSpaceOnUse">
<stop stop-color="#3F8AFF"/>
<stop offset="1" stop-color="#FAFCFF"/>
</linearGradient>
</defs>
</svg>
