<svg width="363" height="374" viewBox="0 0 363 374" fill="none" xmlns="http://www.w3.org/2000/svg">
<path d="M23.72 370L25.532 366.628C25.004 366.5 24.56 366.24 24.2 365.848C23.84 365.448 23.66 364.896 23.66 364.192C23.66 363.712 23.732 363.304 23.876 362.968C24.02 362.632 24.224 362.356 24.488 362.14C24.76 361.924 25.084 361.768 25.46 361.672C25.844 361.568 26.268 361.516 26.732 361.516H29.876V370H28.832V366.82H26.576L24.884 370H23.72ZM27.044 365.872H28.832V362.464H26.72C26.264 362.464 25.888 362.528 25.592 362.656C25.296 362.776 25.076 362.96 24.932 363.208C24.788 363.456 24.716 363.772 24.716 364.156C24.716 364.62 24.824 364.976 25.04 365.224C25.256 365.472 25.54 365.644 25.892 365.74C26.252 365.828 26.636 365.872 27.044 365.872ZM31.7259 370V363.676H32.7459V366.448H35.9139V363.676H36.9339V370H35.9139V367.348H32.7459V370H31.7259ZM38.5462 370V363.676H40.9942C41.2742 363.676 41.5502 363.696 41.8222 363.736C42.1022 363.768 42.3542 363.84 42.5782 363.952C42.8102 364.056 42.9942 364.212 43.1302 364.42C43.2742 364.628 43.3462 364.904 43.3462 365.248C43.3462 365.456 43.3142 365.648 43.2502 365.824C43.1862 365.992 43.0902 366.14 42.9622 366.268C42.8422 366.396 42.6862 366.508 42.4942 366.604C42.9262 366.7 43.2382 366.888 43.4302 367.168C43.6222 367.448 43.7182 367.768 43.7182 368.128C43.7182 368.448 43.6582 368.728 43.5382 368.968C43.4262 369.2 43.2662 369.392 43.0582 369.544C42.8582 369.696 42.6222 369.812 42.3502 369.892C42.0862 369.964 41.8022 370 41.4982 370H38.5462ZM39.5902 369.112H41.2582C41.5062 369.112 41.7382 369.088 41.9542 369.04C42.1702 368.992 42.3462 368.904 42.4822 368.776C42.6182 368.64 42.6862 368.448 42.6862 368.2C42.6862 367.944 42.6262 367.752 42.5062 367.624C42.3942 367.488 42.2462 367.396 42.0622 367.348C41.8862 367.292 41.6942 367.26 41.4862 367.252C41.2782 367.244 41.0822 367.24 40.8982 367.24H39.5902V369.112ZM39.5902 366.376H40.4662C40.6262 366.376 40.8102 366.368 41.0182 366.352C41.2342 366.336 41.4422 366.3 41.6422 366.244C41.8502 366.18 42.0182 366.084 42.1462 365.956C42.2822 365.828 42.3502 365.652 42.3502 365.428C42.3502 365.132 42.2662 364.928 42.0982 364.816C41.9382 364.696 41.7462 364.628 41.5222 364.612C41.2982 364.588 41.0902 364.576 40.8982 364.576H39.5902V366.376Z" fill="#1C2750" fill-opacity="0.5"/>
<path d="M80.2471 370V361.516H81.8071L84.3991 366.184L86.9551 361.516H88.4791V370H87.4351V362.572L84.6151 367.792H84.1351L81.2911 362.572V370H80.2471ZM92.8393 370.072C92.3673 370.072 91.9553 369.992 91.6033 369.832C91.2593 369.664 90.9753 369.436 90.7513 369.148C90.5273 368.86 90.3593 368.52 90.2473 368.128C90.1433 367.736 90.0913 367.312 90.0913 366.856C90.0913 366.248 90.1873 365.7 90.3793 365.212C90.5793 364.716 90.8953 364.324 91.3273 364.036C91.7593 363.748 92.3233 363.604 93.0193 363.604C93.3873 363.604 93.7393 363.672 94.0753 363.808C94.4193 363.944 94.7113 364.156 94.9513 364.444V363.676H95.9713V370H94.9513V369.148C94.7273 369.444 94.4313 369.672 94.0633 369.832C93.6953 369.992 93.2873 370.072 92.8393 370.072ZM93.0073 369.172C93.4233 369.172 93.7753 369.064 94.0633 368.848C94.3513 368.632 94.5713 368.344 94.7233 367.984C94.8833 367.624 94.9633 367.232 94.9633 366.808C94.9633 366.368 94.8873 365.976 94.7353 365.632C94.5913 365.288 94.3753 365.016 94.0873 364.816C93.7993 364.616 93.4353 364.516 92.9953 364.516C92.5393 364.516 92.1713 364.62 91.8913 364.828C91.6193 365.036 91.4193 365.316 91.2913 365.668C91.1713 366.02 91.1113 366.412 91.1113 366.844C91.1113 367.292 91.1753 367.692 91.3033 368.044C91.4313 368.396 91.6353 368.672 91.9153 368.872C92.1953 369.072 92.5593 369.172 93.0073 369.172ZM97.5735 372.28V363.676H98.5455L98.5935 364.648C98.8095 364.304 99.1015 364.044 99.4695 363.868C99.8455 363.692 100.25 363.604 100.682 363.604C101.322 363.604 101.846 363.748 102.254 364.036C102.662 364.316 102.962 364.7 103.154 365.188C103.354 365.676 103.454 366.228 103.454 366.844C103.454 367.46 103.354 368.012 103.154 368.5C102.954 368.988 102.646 369.372 102.23 369.652C101.814 369.932 101.282 370.072 100.634 370.072C100.314 370.072 100.026 370.04 99.7695 369.976C99.5135 369.904 99.2895 369.804 99.0975 369.676C98.9055 369.548 98.7375 369.404 98.5935 369.244V372.28H97.5735ZM100.55 369.172C101.014 369.172 101.382 369.068 101.654 368.86C101.926 368.644 102.122 368.36 102.242 368.008C102.37 367.656 102.434 367.268 102.434 366.844C102.434 366.412 102.37 366.02 102.242 365.668C102.122 365.316 101.922 365.036 101.642 364.828C101.362 364.62 100.99 364.516 100.526 364.516C100.11 364.516 99.7535 364.624 99.4575 364.84C99.1695 365.048 98.9495 365.332 98.7975 365.692C98.6455 366.044 98.5695 366.432 98.5695 366.856C98.5695 367.296 98.6415 367.692 98.7855 368.044C98.9295 368.396 99.1495 368.672 99.4455 368.872C99.7415 369.072 100.11 369.172 100.55 369.172ZM106.245 370V364.576H104.073V363.676H109.437V364.576H107.265V370H106.245Z" fill="#1C2750" fill-opacity="0.5"/>
<path d="M147.419 370V361.516H148.979L151.571 366.184L154.127 361.516H155.651V370H154.607V362.572L151.787 367.792H151.307L148.463 362.572V370H147.419ZM160.011 370.072C159.539 370.072 159.127 369.992 158.775 369.832C158.431 369.664 158.147 369.436 157.923 369.148C157.699 368.86 157.531 368.52 157.419 368.128C157.315 367.736 157.263 367.312 157.263 366.856C157.263 366.248 157.359 365.7 157.551 365.212C157.751 364.716 158.067 364.324 158.499 364.036C158.931 363.748 159.495 363.604 160.191 363.604C160.559 363.604 160.911 363.672 161.247 363.808C161.591 363.944 161.883 364.156 162.123 364.444V363.676H163.143V370H162.123V369.148C161.899 369.444 161.603 369.672 161.235 369.832C160.867 369.992 160.459 370.072 160.011 370.072ZM160.179 369.172C160.595 369.172 160.947 369.064 161.235 368.848C161.523 368.632 161.743 368.344 161.895 367.984C162.055 367.624 162.135 367.232 162.135 366.808C162.135 366.368 162.059 365.976 161.907 365.632C161.763 365.288 161.547 365.016 161.259 364.816C160.971 364.616 160.607 364.516 160.167 364.516C159.711 364.516 159.343 364.62 159.063 364.828C158.791 365.036 158.591 365.316 158.463 365.668C158.343 366.02 158.283 366.412 158.283 366.844C158.283 367.292 158.347 367.692 158.475 368.044C158.603 368.396 158.807 368.672 159.087 368.872C159.367 369.072 159.731 369.172 160.179 369.172ZM164.745 370V363.676H165.765V368.524C165.821 368.412 165.897 368.292 165.993 368.164C166.089 368.028 166.165 367.924 166.221 367.852L169.281 363.676H170.289V370H169.269V365.152C169.205 365.272 169.133 365.384 169.053 365.488C168.981 365.592 168.913 365.688 168.849 365.776L165.741 370H164.745ZM167.601 362.788C166.969 362.788 166.473 362.652 166.113 362.38C165.761 362.108 165.577 361.712 165.561 361.192H166.497C166.513 361.472 166.617 361.676 166.809 361.804C167.009 361.932 167.277 361.996 167.613 361.996C167.949 361.996 168.213 361.932 168.405 361.804C168.605 361.676 168.713 361.472 168.729 361.192H169.665C169.657 361.536 169.569 361.828 169.401 362.068C169.233 362.308 168.997 362.488 168.693 362.608C168.389 362.728 168.025 362.788 167.601 362.788Z" fill="#1C2750" fill-opacity="0.5"/>
<path d="M210.599 370V361.516H211.643V368.368L216.191 361.516H217.295V370H216.251V363.208L211.691 370H210.599ZM224.272 370.072C223.344 370.072 222.644 369.816 222.172 369.304C221.7 368.784 221.432 368.112 221.368 367.288H220.168V370H219.148V363.676H220.168V366.4H221.368C221.416 365.848 221.548 365.364 221.764 364.948C221.988 364.524 222.308 364.196 222.724 363.964C223.14 363.724 223.656 363.604 224.272 363.604C224.944 363.604 225.5 363.744 225.94 364.024C226.38 364.304 226.708 364.688 226.924 365.176C227.14 365.656 227.248 366.212 227.248 366.844C227.248 367.468 227.14 368.024 226.924 368.512C226.708 369 226.38 369.384 225.94 369.664C225.5 369.936 224.944 370.072 224.272 370.072ZM224.272 369.172C224.736 369.172 225.108 369.068 225.388 368.86C225.676 368.652 225.888 368.372 226.024 368.02C226.16 367.668 226.228 367.276 226.228 366.844C226.228 366.412 226.16 366.02 226.024 365.668C225.888 365.316 225.676 365.036 225.388 364.828C225.108 364.62 224.736 364.516 224.272 364.516C223.816 364.516 223.444 364.62 223.156 364.828C222.876 365.036 222.672 365.316 222.544 365.668C222.416 366.02 222.352 366.412 222.352 366.844C222.352 367.276 222.416 367.668 222.544 368.02C222.672 368.372 222.876 368.652 223.156 368.86C223.444 369.068 223.816 369.172 224.272 369.172ZM227.935 370.012V369.124C228.095 369.124 228.239 369.092 228.367 369.028C228.495 368.956 228.607 368.852 228.703 368.716C228.815 368.556 228.903 368.324 228.967 368.02C229.031 367.716 229.075 367.392 229.099 367.048C229.131 366.664 229.155 366.288 229.171 365.92C229.187 365.544 229.199 365.172 229.207 364.804C229.223 364.436 229.231 364.06 229.231 363.676H233.623V370H232.603V364.576H230.227C230.219 364.848 230.207 365.124 230.191 365.404C230.183 365.676 230.171 365.952 230.155 366.232C230.147 366.504 230.135 366.78 230.119 367.06C230.111 367.38 230.079 367.74 230.023 368.14C229.967 368.54 229.847 368.904 229.663 369.232C229.487 369.544 229.271 369.752 229.015 369.856C228.767 369.96 228.407 370.012 227.935 370.012ZM235.226 370V363.676H236.27V366.088H237.662C238.038 366.088 238.374 366.12 238.67 366.184C238.974 366.24 239.234 366.34 239.45 366.484C239.666 366.628 239.83 366.824 239.942 367.072C240.062 367.312 240.122 367.62 240.122 367.996C240.122 368.34 240.062 368.64 239.942 368.896C239.822 369.144 239.654 369.352 239.438 369.52C239.222 369.68 238.962 369.8 238.658 369.88C238.362 369.96 238.034 370 237.674 370H235.226ZM236.27 369.112H236.87C237.15 369.112 237.418 369.104 237.674 369.088C237.938 369.072 238.178 369.032 238.394 368.968C238.61 368.904 238.778 368.8 238.898 368.656C239.026 368.504 239.09 368.296 239.09 368.032C239.09 367.776 239.038 367.58 238.934 367.444C238.838 367.3 238.71 367.196 238.55 367.132C238.39 367.06 238.214 367.016 238.022 367C237.838 366.984 237.654 366.976 237.47 366.976H236.27V369.112Z" fill="#1C2750" fill-opacity="0.5"/>
<path d="M284.195 370.096C283.323 370.096 282.595 369.912 282.011 369.544C281.435 369.168 281.003 368.656 280.715 368.008C280.435 367.352 280.295 366.604 280.295 365.764C280.295 364.932 280.439 364.192 280.727 363.544C281.015 362.888 281.447 362.372 282.023 361.996C282.607 361.612 283.339 361.42 284.219 361.42C284.843 361.42 285.379 361.52 285.827 361.72C286.283 361.912 286.651 362.18 286.931 362.524C287.211 362.868 287.403 363.272 287.507 363.736H286.451C286.331 363.32 286.071 362.988 285.671 362.74C285.279 362.492 284.783 362.368 284.183 362.368C283.511 362.368 282.967 362.528 282.551 362.848C282.143 363.16 281.843 363.572 281.651 364.084C281.459 364.588 281.363 365.136 281.363 365.728C281.363 366.352 281.463 366.924 281.663 367.444C281.863 367.964 282.175 368.38 282.599 368.692C283.023 368.996 283.563 369.148 284.219 369.148C284.619 369.148 284.975 369.092 285.287 368.98C285.607 368.868 285.871 368.708 286.079 368.5C286.295 368.292 286.443 368.052 286.523 367.78H287.663C287.543 368.244 287.327 368.652 287.015 369.004C286.711 369.348 286.323 369.616 285.851 369.808C285.379 370 284.827 370.096 284.195 370.096ZM291.778 370.072C291.106 370.072 290.55 369.936 290.11 369.664C289.67 369.384 289.342 369 289.126 368.512C288.91 368.024 288.802 367.468 288.802 366.844C288.802 366.212 288.914 365.656 289.138 365.176C289.37 364.688 289.706 364.304 290.146 364.024C290.586 363.744 291.126 363.604 291.766 363.604C292.238 363.604 292.65 363.696 293.002 363.88C293.362 364.056 293.658 364.296 293.89 364.6C294.13 364.904 294.302 365.244 294.406 365.62C294.518 365.996 294.566 366.384 294.55 366.784C294.542 366.856 294.538 366.928 294.538 367C294.538 367.072 294.534 367.144 294.526 367.216H289.834C289.866 367.584 289.958 367.916 290.11 368.212C290.262 368.508 290.478 368.744 290.758 368.92C291.038 369.088 291.386 369.172 291.802 369.172C292.01 369.172 292.218 369.148 292.426 369.1C292.642 369.044 292.834 368.952 293.002 368.824C293.178 368.696 293.302 368.524 293.374 368.308H294.418C294.322 368.716 294.142 369.052 293.878 369.316C293.614 369.572 293.298 369.764 292.93 369.892C292.562 370.012 292.178 370.072 291.778 370.072ZM289.858 366.328H293.518C293.51 365.968 293.43 365.652 293.278 365.38C293.126 365.108 292.918 364.896 292.654 364.744C292.398 364.592 292.09 364.516 291.73 364.516C291.338 364.516 291.006 364.6 290.734 364.768C290.47 364.936 290.266 365.156 290.122 365.428C289.978 365.7 289.89 366 289.858 366.328ZM295.921 370V363.676H296.941V366.448H300.109V363.676H301.129V370H300.109V367.348H296.941V370H295.921Z" fill="#1C2750" fill-opacity="0.5"/>
<path d="M332.044 370V361.516H333.088V365.356H337.636V361.516H338.68V370H337.636V366.316H333.088V370H332.044ZM343.283 370.072C342.619 370.072 342.063 369.936 341.615 369.664C341.167 369.384 340.831 369 340.607 368.512C340.391 368.024 340.283 367.468 340.283 366.844C340.283 366.212 340.391 365.656 340.607 365.176C340.831 364.688 341.167 364.304 341.615 364.024C342.063 363.744 342.627 363.604 343.307 363.604C343.971 363.604 344.523 363.744 344.963 364.024C345.411 364.304 345.743 364.688 345.959 365.176C346.183 365.656 346.295 366.212 346.295 366.844C346.295 367.468 346.183 368.024 345.959 368.512C345.735 369 345.399 369.384 344.951 369.664C344.511 369.936 343.955 370.072 343.283 370.072ZM343.283 369.172C343.747 369.172 344.123 369.068 344.411 368.86C344.707 368.652 344.923 368.372 345.059 368.02C345.203 367.668 345.275 367.276 345.275 366.844C345.275 366.412 345.203 366.02 345.059 365.668C344.923 365.316 344.707 365.036 344.411 364.828C344.123 364.62 343.747 364.516 343.283 364.516C342.827 364.516 342.451 364.62 342.155 364.828C341.867 365.036 341.651 365.316 341.507 365.668C341.371 366.02 341.303 366.412 341.303 366.844C341.303 367.276 341.371 367.668 341.507 368.02C341.651 368.372 341.867 368.652 342.155 368.86C342.451 369.068 342.827 369.172 343.283 369.172ZM347.263 370L348.907 367.504C348.451 367.376 348.091 367.168 347.827 366.88C347.563 366.584 347.431 366.192 347.431 365.704C347.431 365.32 347.487 365 347.599 364.744C347.711 364.48 347.875 364.272 348.091 364.12C348.307 363.96 348.567 363.848 348.871 363.784C349.175 363.712 349.523 363.676 349.915 363.676H352.459V370H351.439V367.66H349.987L348.451 370H347.263ZM350.683 366.772H351.439V364.576H350.083C349.843 364.576 349.623 364.588 349.423 364.612C349.223 364.636 349.051 364.688 348.907 364.768C348.771 364.84 348.663 364.948 348.583 365.092C348.503 365.228 348.463 365.416 348.463 365.656C348.463 365.92 348.527 366.128 348.655 366.28C348.791 366.432 348.963 366.544 349.171 366.616C349.387 366.68 349.627 366.724 349.891 366.748C350.155 366.764 350.419 366.772 350.683 366.772ZM356.734 370.072C356.334 370.072 355.978 370.016 355.666 369.904C355.354 369.784 355.086 369.62 354.862 369.412C354.638 369.196 354.454 368.944 354.31 368.656C354.166 368.36 354.058 368.04 353.986 367.696C353.914 367.352 353.878 366.988 353.878 366.604C353.878 365.988 353.89 365.416 353.914 364.888C353.946 364.352 354.034 363.876 354.178 363.46C354.322 363.036 354.566 362.684 354.91 362.404C355.254 362.124 355.738 361.928 356.362 361.816C356.682 361.76 356.998 361.712 357.31 361.672C357.622 361.632 357.938 361.592 358.258 361.552C358.362 361.536 358.47 361.52 358.582 361.504C358.694 361.488 358.81 361.468 358.93 361.444C359.058 361.42 359.178 361.4 359.29 361.384V362.32C359.202 362.352 359.106 362.38 359.002 362.404C358.906 362.42 358.802 362.436 358.69 362.452C358.586 362.468 358.478 362.48 358.366 362.488C358.262 362.496 358.158 362.508 358.054 362.524C357.95 362.532 357.85 362.544 357.754 362.56C357.474 362.592 357.178 362.624 356.866 362.656C356.554 362.68 356.258 362.744 355.978 362.848C355.706 362.944 355.474 363.132 355.282 363.412C355.186 363.556 355.102 363.728 355.03 363.928C354.966 364.128 354.918 364.332 354.886 364.54C354.862 364.74 354.846 364.932 354.838 365.116C354.998 364.892 355.194 364.712 355.426 364.576C355.658 364.432 355.906 364.328 356.17 364.264C356.434 364.192 356.686 364.156 356.926 364.156C357.502 364.156 357.99 364.276 358.39 364.516C358.79 364.748 359.094 365.08 359.302 365.512C359.51 365.944 359.614 366.448 359.614 367.024C359.614 367.6 359.502 368.12 359.278 368.584C359.054 369.04 358.726 369.404 358.294 369.676C357.87 369.94 357.35 370.072 356.734 370.072ZM356.758 369.172C357.158 369.172 357.494 369.076 357.766 368.884C358.038 368.692 358.242 368.436 358.378 368.116C358.522 367.796 358.594 367.444 358.594 367.06C358.594 366.684 358.522 366.348 358.378 366.052C358.242 365.748 358.038 365.508 357.766 365.332C357.502 365.156 357.174 365.068 356.782 365.068C356.398 365.068 356.066 365.16 355.786 365.344C355.514 365.528 355.302 365.776 355.15 366.088C355.006 366.392 354.934 366.724 354.934 367.084C354.934 367.452 355.002 367.796 355.138 368.116C355.274 368.436 355.474 368.692 355.738 368.884C356.01 369.076 356.35 369.172 356.758 369.172Z" fill="#1C2750" fill-opacity="0.5"/>
<path d="M11.7642 344.83C11.7642 345.478 11.6962 346.07 11.5602 346.606C11.4322 347.134 11.2282 347.586 10.9482 347.962C10.6762 348.338 10.3322 348.63 9.91619 348.838C9.50019 349.046 9.00819 349.15 8.44019 349.15C7.87219 349.15 7.38019 349.05 6.96419 348.85C6.54819 348.642 6.20419 348.354 5.93219 347.986C5.66019 347.618 5.45619 347.174 5.32019 346.654C5.18419 346.134 5.11619 345.554 5.11619 344.914C5.11619 344.258 5.18019 343.658 5.30819 343.114C5.43619 342.57 5.63619 342.102 5.90819 341.71C6.18019 341.318 6.52419 341.018 6.94019 340.81C7.36419 340.594 7.86419 340.486 8.44019 340.486C9.00019 340.486 9.48819 340.59 9.90419 340.798C10.3202 341.006 10.6642 341.302 10.9362 341.686C11.2162 342.07 11.4242 342.53 11.5602 343.066C11.6962 343.594 11.7642 344.182 11.7642 344.83ZM6.49619 344.83C6.49619 345.27 6.52819 345.678 6.59219 346.054C6.65619 346.43 6.76419 346.758 6.91619 347.038C7.06819 347.31 7.26819 347.526 7.51619 347.686C7.76419 347.838 8.07219 347.914 8.44019 347.914C8.80019 347.914 9.10419 347.838 9.35219 347.686C9.60019 347.526 9.80019 347.31 9.95219 347.038C10.1042 346.758 10.2122 346.43 10.2762 346.054C10.3402 345.678 10.3722 345.27 10.3722 344.83C10.3722 344.398 10.3402 343.994 10.2762 343.618C10.2122 343.234 10.1042 342.906 9.95219 342.634C9.80019 342.354 9.60019 342.134 9.35219 341.974C9.10419 341.814 8.80019 341.734 8.44019 341.734C8.07219 341.734 7.76419 341.814 7.51619 341.974C7.26819 342.134 7.06819 342.354 6.91619 342.634C6.76419 342.906 6.65619 343.234 6.59219 343.618C6.52819 343.994 6.49619 344.398 6.49619 344.83Z" fill="#1C2750" fill-opacity="0.5"/>
<path d="M2.64 281.895C2.832 281.726 3.044 281.542 3.276 281.342C3.516 281.142 3.74 280.934 3.948 280.718C4.164 280.494 4.34 280.254 4.476 279.998C4.62 279.742 4.692 279.466 4.692 279.17C4.692 278.738 4.564 278.39 4.308 278.126C4.052 277.862 3.684 277.73 3.204 277.73C2.82 277.73 2.496 277.818 2.232 277.994C1.968 278.17 1.804 278.406 1.74 278.702H0.372C0.404 278.334 0.504 278.006 0.672 277.718C0.848 277.43 1.068 277.194 1.332 277.01C1.596 276.826 1.884 276.694 2.196 276.614C2.516 276.526 2.88 276.482 3.288 276.482C3.672 276.482 4.032 276.534 4.368 276.638C4.704 276.742 4.996 276.898 5.244 277.106C5.5 277.314 5.7 277.578 5.844 277.898C5.996 278.21 6.072 278.578 6.072 279.003C6.072 279.338 6.028 279.646 5.94 279.926C5.852 280.206 5.732 280.466 5.58 280.706C5.428 280.946 5.252 281.17 5.052 281.378C4.86 281.586 4.656 281.782 4.44 281.966C4.152 282.214 3.896 282.43 3.672 282.614C3.456 282.79 3.26 282.95 3.084 283.094C2.908 283.238 2.748 283.37 2.604 283.49C2.46 283.602 2.324 283.714 2.196 283.826H6.072V285.062H0.3V283.922L2.64 281.895ZM7.48538 281.33L7.94138 276.578H13.0534V277.814H9.10538L8.86538 280.022C9.09738 279.87 9.34538 279.754 9.60938 279.674C9.88138 279.586 10.2054 279.542 10.5814 279.542C11.0054 279.542 11.3894 279.606 11.7334 279.734C12.0774 279.854 12.3734 280.03 12.6214 280.262C12.8694 280.494 13.0574 280.778 13.1854 281.114C13.3214 281.45 13.3894 281.83 13.3894 282.254C13.3894 282.71 13.3094 283.118 13.1494 283.479C12.9894 283.838 12.7694 284.142 12.4894 284.39C12.2094 284.638 11.8814 284.83 11.5054 284.966C11.1294 285.095 10.7214 285.159 10.2814 285.159C9.90538 285.159 9.54938 285.115 9.21338 285.026C8.88538 284.938 8.58538 284.802 8.31338 284.618C8.04938 284.434 7.82538 284.198 7.64138 283.91C7.46538 283.614 7.34938 283.266 7.29338 282.866H8.67338C8.72138 283.034 8.79738 283.182 8.90138 283.31C9.01338 283.438 9.14138 283.546 9.28538 283.634C9.42938 283.722 9.58538 283.79 9.75338 283.838C9.92138 283.878 10.0894 283.898 10.2574 283.898C10.4974 283.898 10.7214 283.87 10.9294 283.814C11.1374 283.75 11.3174 283.654 11.4694 283.526C11.6294 283.398 11.7534 283.238 11.8414 283.046C11.9294 282.846 11.9734 282.606 11.9734 282.326C11.9734 281.814 11.8214 281.422 11.5174 281.15C11.2214 280.878 10.8294 280.742 10.3414 280.742C10.0374 280.742 9.76138 280.794 9.51338 280.898C9.26538 281.002 9.04138 281.146 8.84138 281.33H7.48538Z" fill="#1C2750" fill-opacity="0.5"/>
<path d="M0.876 153.299L1.332 148.547H6.444V149.783H2.496L2.256 151.991C2.488 151.839 2.736 151.723 3 151.643C3.272 151.555 3.596 151.511 3.972 151.511C4.396 151.511 4.78 151.575 5.124 151.703C5.468 151.823 5.764 151.999 6.012 152.231C6.26 152.463 6.448 152.747 6.576 153.083C6.712 153.419 6.78 153.799 6.78 154.223C6.78 154.679 6.7 155.087 6.54 155.447C6.38 155.807 6.16 156.111 5.88 156.359C5.6 156.607 5.272 156.799 4.896 156.935C4.52 157.063 4.112 157.127 3.672 157.127C3.296 157.127 2.94 157.083 2.604 156.995C2.276 156.907 1.976 156.771 1.704 156.587C1.44 156.403 1.216 156.167 1.032 155.879C0.856 155.583 0.74 155.235 0.684 154.835H2.064C2.112 155.003 2.188 155.151 2.292 155.279C2.404 155.407 2.532 155.515 2.676 155.603C2.82 155.691 2.976 155.759 3.144 155.807C3.312 155.847 3.48 155.867 3.648 155.867C3.888 155.867 4.112 155.839 4.32 155.783C4.528 155.719 4.708 155.623 4.86 155.495C5.02 155.367 5.144 155.207 5.232 155.015C5.32 154.815 5.364 154.575 5.364 154.295C5.364 153.783 5.212 153.391 4.908 153.119C4.612 152.847 4.22 152.711 3.732 152.711C3.428 152.711 3.152 152.763 2.904 152.867C2.656 152.971 2.432 153.115 2.232 153.299H0.876ZM14.6431 152.783C14.6431 153.431 14.5751 154.023 14.4391 154.559C14.3111 155.087 14.1071 155.539 13.8271 155.915C13.5551 156.291 13.2111 156.583 12.7951 156.791C12.3791 156.999 11.8871 157.103 11.3191 157.103C10.7511 157.103 10.2591 157.003 9.84309 156.803C9.42709 156.595 9.08309 156.307 8.81109 155.939C8.53909 155.571 8.33509 155.127 8.19909 154.607C8.06309 154.087 7.99509 153.507 7.99509 152.867C7.99509 152.211 8.05909 151.611 8.18709 151.067C8.31509 150.523 8.51509 150.055 8.78709 149.663C9.05909 149.271 9.40309 148.971 9.81909 148.763C10.2431 148.547 10.7431 148.439 11.3191 148.439C11.8791 148.439 12.3671 148.543 12.7831 148.751C13.1991 148.959 13.5431 149.255 13.8151 149.639C14.0951 150.023 14.3031 150.483 14.4391 151.019C14.5751 151.547 14.6431 152.135 14.6431 152.783ZM9.37509 152.783C9.37509 153.223 9.40709 153.631 9.47109 154.007C9.53509 154.383 9.64309 154.711 9.79509 154.991C9.94709 155.263 10.1471 155.479 10.3951 155.639C10.6431 155.791 10.9511 155.867 11.3191 155.867C11.6791 155.867 11.9831 155.791 12.2311 155.639C12.4791 155.479 12.6791 155.263 12.8311 154.991C12.9831 154.711 13.0911 154.383 13.1551 154.007C13.2191 153.631 13.2511 153.223 13.2511 152.783C13.2511 152.351 13.2191 151.947 13.1551 151.571C13.0911 151.187 12.9831 150.859 12.8311 150.587C12.6791 150.307 12.4791 150.087 12.2311 149.927C11.9831 149.767 11.6791 149.687 11.3191 149.687C10.9511 149.687 10.6431 149.767 10.3951 149.927C10.1471 150.087 9.94709 150.307 9.79509 150.587C9.64309 150.859 9.53509 151.187 9.47109 151.571C9.40709 151.947 9.37509 152.351 9.37509 152.783Z" fill="#1C2750" fill-opacity="0.5"/>
<path d="M3.36 29H1.968V22.472H0.24V21.524C0.712 21.508 1.128 21.432 1.488 21.296C1.848 21.152 2.132 20.892 2.34 20.516H3.36V29ZM11.854 24.752C11.854 25.4 11.786 25.992 11.65 26.528C11.522 27.056 11.318 27.508 11.038 27.884C10.766 28.26 10.422 28.552 10.006 28.76C9.59003 28.968 9.09803 29.072 8.53003 29.072C7.96203 29.072 7.47003 28.972 7.05403 28.772C6.63803 28.564 6.29403 28.276 6.02203 27.908C5.75003 27.54 5.54603 27.096 5.41003 26.576C5.27403 26.056 5.20603 25.476 5.20603 24.836C5.20603 24.18 5.27003 23.58 5.39803 23.036C5.52603 22.492 5.72603 22.024 5.99803 21.632C6.27003 21.24 6.61403 20.94 7.03003 20.732C7.45403 20.516 7.95403 20.408 8.53003 20.408C9.09003 20.408 9.57803 20.512 9.99403 20.72C10.41 20.928 10.754 21.224 11.026 21.608C11.306 21.992 11.514 22.452 11.65 22.988C11.786 23.516 11.854 24.104 11.854 24.752ZM6.58603 24.752C6.58603 25.192 6.61803 25.6 6.68203 25.976C6.74603 26.352 6.85403 26.68 7.00603 26.96C7.15803 27.232 7.35803 27.448 7.60603 27.608C7.85403 27.76 8.16203 27.836 8.53003 27.836C8.89003 27.836 9.19403 27.76 9.44203 27.608C9.69003 27.448 9.89003 27.232 10.042 26.96C10.194 26.68 10.302 26.352 10.366 25.976C10.43 25.6 10.462 25.192 10.462 24.752C10.462 24.32 10.43 23.916 10.366 23.54C10.302 23.156 10.194 22.828 10.042 22.556C9.89003 22.276 9.69003 22.056 9.44203 21.896C9.19403 21.736 8.89003 21.656 8.53003 21.656C8.16203 21.656 7.85403 21.736 7.60603 21.896C7.35803 22.056 7.15803 22.276 7.00603 22.556C6.85403 22.828 6.74603 23.156 6.68203 23.54C6.61803 23.916 6.58603 24.32 6.58603 24.752ZM19.7408 24.752C19.7408 25.4 19.6728 25.992 19.5368 26.528C19.4088 27.056 19.2048 27.508 18.9248 27.884C18.6528 28.26 18.3088 28.552 17.8928 28.76C17.4768 28.968 16.9848 29.072 16.4168 29.072C15.8488 29.072 15.3568 28.972 14.9408 28.772C14.5248 28.564 14.1808 28.276 13.9088 27.908C13.6368 27.54 13.4328 27.096 13.2968 26.576C13.1608 26.056 13.0928 25.476 13.0928 24.836C13.0928 24.18 13.1568 23.58 13.2848 23.036C13.4128 22.492 13.6128 22.024 13.8848 21.632C14.1568 21.24 14.5008 20.94 14.9168 20.732C15.3408 20.516 15.8408 20.408 16.4168 20.408C16.9768 20.408 17.4648 20.512 17.8808 20.72C18.2968 20.928 18.6408 21.224 18.9128 21.608C19.1928 21.992 19.4008 22.452 19.5368 22.988C19.6728 23.516 19.7408 24.104 19.7408 24.752ZM14.4728 24.752C14.4728 25.192 14.5048 25.6 14.5688 25.976C14.6328 26.352 14.7408 26.68 14.8928 26.96C15.0448 27.232 15.2448 27.448 15.4928 27.608C15.7408 27.76 16.0488 27.836 16.4168 27.836C16.7768 27.836 17.0808 27.76 17.3288 27.608C17.5768 27.448 17.7768 27.232 17.9288 26.96C18.0808 26.68 18.1888 26.352 18.2528 25.976C18.3168 25.6 18.3488 25.192 18.3488 24.752C18.3488 24.32 18.3168 23.916 18.2528 23.54C18.1888 23.156 18.0808 22.828 17.9288 22.556C17.7768 22.276 17.5768 22.056 17.3288 21.896C17.0808 21.736 16.7768 21.656 16.4168 21.656C16.0488 21.656 15.7408 21.736 15.4928 21.896C15.2448 22.056 15.0448 22.276 14.8928 22.556C14.7408 22.828 14.6328 23.156 14.5688 23.54C14.5048 23.916 14.4728 24.32 14.4728 24.752Z" fill="#1C2750" fill-opacity="0.5"/>
<line x1="12.1508" y1="355.849" x2="360.849" y2="355.849" stroke="#1C2750" stroke-opacity="0.5" stroke-width="0.301543" stroke-linecap="round" stroke-linejoin="round" stroke-dasharray="1.06 1.06"/>
<line x1="12.1508" y1="291.849" x2="360.849" y2="291.849" stroke="#1C2750" stroke-opacity="0.5" stroke-width="0.301543" stroke-linecap="round" stroke-linejoin="round" stroke-dasharray="1.06 1.06"/>
<line x1="12.1508" y1="226.849" x2="360.849" y2="226.849" stroke="#1C2750" stroke-opacity="0.5" stroke-width="0.301543" stroke-linecap="round" stroke-linejoin="round" stroke-dasharray="1.06 1.06"/>
<line x1="12.1508" y1="162.849" x2="360.849" y2="162.849" stroke="#1C2750" stroke-opacity="0.5" stroke-width="0.301543" stroke-linecap="round" stroke-linejoin="round" stroke-dasharray="1.06 1.06"/>
<line x1="12.1508" y1="98.8492" x2="360.849" y2="98.8493" stroke="#1C2750" stroke-opacity="0.5" stroke-width="0.301543" stroke-linecap="round" stroke-linejoin="round" stroke-dasharray="1.06 1.06"/>
<line x1="12.1508" y1="34.8492" x2="360.849" y2="34.8492" stroke="#1C2750" stroke-opacity="0.5" stroke-width="0.301543" stroke-linecap="round" stroke-linejoin="round" stroke-dasharray="1.06 1.06"/>
<path d="M74.0066 163C39.5023 171.689 34.6414 205.07 23 238.858V355H361V17C344.13 26.5885 298.5 36.5 273.463 123C266.239 147.959 242.902 157.86 223.723 156.5C199.589 154.788 195.498 119.935 171.497 123C146.206 126.23 153.569 165.414 129.218 173C108.291 179.519 95.2584 157.648 74.0066 163Z" fill="url(#paint0_linear_5498_23049)"/>
<line y1="-0.207532" x2="114.557" y2="-0.207532" transform="matrix(0 1 1 0 328.062 41.1094)" stroke="url(#paint1_linear_5498_23049)" stroke-width="0.415063" stroke-dasharray="0.83 0.83"/>
<path d="M23 239C23 239 27.5 208 46.5 181C55.0025 168.918 64.9092 164.821 79.5 162.5C96.6668 159.769 105.248 176.13 122.5 174C155.5 169.925 145.865 122.133 174 123.5C194.949 124.518 198.379 147.885 217.5 155C239 163 253.588 151 261 142C283.949 114.133 283.397 73.7228 316 45C331.282 31.5363 342.331 25.1419 361 17" stroke="#7EB2FF" stroke-width="3" stroke-linecap="round"/>
<circle cx="10" cy="10" r="10" transform="matrix(-1 0 0 1 338 23)" fill="#81E062"/>
<path d="M314.808 252.114C332.355 235.312 352.914 259.114 361 273.115V355H23V263.739C28.7778 262.235 27.3333 244.183 41.2963 233.152C55.1056 222.242 60.2852 238.649 72.1111 247.192C84.0003 255.78 93.7622 233.372 105.689 196.352C115.231 166.737 129.476 184.013 135.406 196.352C145.918 217.829 163.234 232.393 177.142 210.466C194.527 183.057 204.129 190.888 226.063 210.466C247.996 230.044 245.773 242.503 264.068 273.115C282.362 303.728 292.874 273.115 314.808 252.114Z" fill="#FAFCFF" fill-opacity="0.3"/>
<path d="M361 272.384C352.92 258.257 333.136 235.808 315.602 252.76C293.684 273.95 283.179 304.837 264.897 273.95C246.615 243.063 248.837 230.493 226.919 210.739C205.001 190.986 195.406 183.085 178.033 210.739C164.134 232.863 146.831 218.168 136.326 196.499C130.401 184.048 116.166 166.618 106.631 196.499C94.7122 233.851 84.9572 256.36 73.0764 247.695C61.2588 239.075 61.529 229.554 49.9816 229.554C35.0663 229.554 29.7737 259.788 24 263.819" stroke="#B4D0FA" stroke-width="3" stroke-linecap="round"/>
<defs>
<linearGradient id="paint0_linear_5498_23049" x1="191.735" y1="55.021" x2="191.735" y2="355" gradientUnits="userSpaceOnUse">
<stop stop-color="#0166FF"/>
<stop offset="1" stop-color="#8DB8FF"/>
</linearGradient>
<linearGradient id="paint1_linear_5498_23049" x1="114.557" y1="0.5" x2="0" y2="0.5" gradientUnits="userSpaceOnUse">
<stop stop-color="#3F8AFF"/>
<stop offset="1" stop-color="#FAFCFF"/>
</linearGradient>
</defs>
</svg>
