<svg width="70" height="20" viewBox="0 0 70 20" fill="none" xmlns="http://www.w3.org/2000/svg">
<path d="M13.9588 10.6277C13.9362 8.12988 16.0171 6.91468 16.1122 6.85811C14.9337 5.15078 13.1071 4.91751 12.4652 4.89891C10.931 4.73848 9.44286 5.81108 8.66136 5.81108C7.86425 5.81108 6.66079 4.91441 5.36373 4.94076C3.69464 4.96633 2.13318 5.92656 1.2768 7.41766C-0.490565 10.458 0.827549 14.9259 2.52082 17.3834C3.36784 18.587 4.3576 19.9308 5.65309 19.8835C6.92051 19.8316 7.39394 19.0806 8.92342 19.0806C10.4389 19.0806 10.8834 19.8835 12.2047 19.8533C13.5649 19.8316 14.4213 18.6443 15.2387 17.4299C16.2175 16.0504 16.6106 14.6918 16.6262 14.6221C16.5942 14.6112 13.9845 13.6215 13.9588 10.6277Z" fill="#FAFCFF"/>
<path d="M11.4629 3.28226C12.1446 2.43518 12.611 1.28276 12.4815 0.113281C11.4949 0.156681 10.261 0.791406 9.5505 1.61988C8.92186 2.34993 8.3603 3.54653 8.50537 4.67183C9.61367 4.75398 10.7516 4.11616 11.4629 3.28226Z" fill="#FAFCFF"/>
<path d="M5.65309 19.8835C6.24077 19.8595 6.65774 19.6851 7.08844 19.505C7.5866 19.2966 8.10313 19.0806 8.92342 19.0806C9.69714 19.0806 10.1917 19.2899 10.6663 19.4908C11.1213 19.6833 11.558 19.8681 12.2047 19.8533C13.5649 19.8316 14.4213 18.6443 15.2387 17.4299C16.2175 16.0504 16.6106 14.6918 16.6262 14.6221M5.65309 19.8835L5.64931 19.7798C5.64917 19.7798 5.64904 19.7798 5.6489 19.7798M5.65309 19.8835L5.64884 19.7798C5.64886 19.7798 5.64888 19.7798 5.6489 19.7798M5.65309 19.8835C4.3576 19.9308 3.36784 18.587 2.52082 17.3834C0.827549 14.9259 -0.490565 10.458 1.2768 7.41766L15.9636 6.82798M5.6489 19.7798C6.21736 19.7565 6.61857 19.5888 7.05006 19.4084C7.08322 19.3946 7.11656 19.3806 7.15017 19.3667C7.62294 19.1705 8.13853 18.9768 8.92342 18.9768C9.70275 18.9768 10.2086 19.1845 10.6773 19.3827L10.7034 19.3937C11.159 19.5865 11.5781 19.7638 12.2023 19.7495L12.203 19.7495C12.8497 19.7392 13.3805 19.4528 13.8546 19.0127C14.3308 18.5707 14.7431 17.9801 15.1525 17.3719L15.1539 17.3698L15.154 17.3698C15.6381 16.6875 15.9777 16.0099 16.1981 15.494C16.3083 15.2362 16.3886 15.0191 16.4422 14.8626C16.4677 14.7881 16.4871 14.7274 16.5008 14.6827M5.6489 19.7798C5.0409 19.8018 4.49548 19.4983 3.9896 19.0266C3.48353 18.5546 3.0302 17.9267 2.60602 17.324C1.76788 16.1074 1.02093 14.3902 0.703321 12.6009C0.385538 10.8107 0.499602 8.96127 1.36658 7.46985L1.36685 7.46938C2.20614 6.00803 3.73509 5.06957 5.36532 5.04459L5.36584 5.04458C5.99177 5.03187 6.59984 5.24199 7.16208 5.4627C7.23562 5.49158 7.30863 5.52073 7.38082 5.54955C7.58163 5.62973 7.77616 5.7074 7.95869 5.76967C8.20682 5.85433 8.4446 5.91493 8.66136 5.91493C8.87636 5.91493 9.13083 5.84198 9.40472 5.74374C9.55577 5.68957 9.72103 5.62443 9.89349 5.55645C10.0314 5.50209 10.1739 5.44591 10.3175 5.39207C10.9767 5.14483 11.7129 4.92465 12.4544 5.00219L12.4543 5.00248L12.4622 5.00271C13.0798 5.02061 14.8119 5.24192 15.9636 6.82798M16.5008 14.6827C16.5549 14.7064 16.5875 14.7186 16.5928 14.7204L16.6262 14.6221M16.5008 14.6827C16.5015 14.6804 16.5022 14.6781 16.5029 14.6759C16.5098 14.6532 16.5151 14.6351 16.5188 14.6218L16.5232 14.6058L16.5244 14.6011C16.5248 14.5998 16.5249 14.5993 16.5249 14.5994L16.6262 14.6221M16.5008 14.6827C16.2905 14.5905 15.7542 14.3246 15.2188 13.819C14.5432 13.1809 13.8681 12.1595 13.8549 10.6286M16.6262 14.6221C16.5942 14.6112 13.9845 13.6215 13.9588 10.6277M13.9588 10.6277L13.8549 10.6286M13.9588 10.6277L13.8549 10.6286C13.8549 10.6286 13.8549 10.6286 13.8549 10.6286M13.9588 10.6277L15.9636 6.82798M13.8549 10.6286C13.8342 8.34211 15.5319 7.10674 15.9636 6.82798M9.62919 1.68764L9.62932 1.68749C10.2998 0.905765 11.4498 0.301384 12.3878 0.223305C12.4776 1.32449 12.0321 2.40879 11.383 3.21598C10.7049 4.01036 9.63758 4.61414 8.59876 4.57313C8.49683 3.51139 9.02844 2.3853 9.62919 1.68764Z" stroke="#1C2750" stroke-opacity="0.3" stroke-width="0.207696"/>
<path d="M25.2219 6.11525H24.6875V4.57683H25.1455C25.5273 4.26914 25.7563 3.65377 25.7563 2.80764V0.5H28.8099V4.57683H29.3443V6.11525H28.8099V5.11528H25.2982V6.11525H25.2219ZM26.2143 2.80764C26.2143 3.49993 26.0616 4.1153 25.7563 4.57683H28.0465V1.11537H26.138V2.80764H26.2143Z" fill="#FAFCFF" stroke="#FAFCFF" stroke-width="0.251884" stroke-miterlimit="10"/>
<path d="M33.8508 4.57683C33.3927 5.03835 32.8583 5.26912 32.1713 5.26912C31.4842 5.26912 30.9498 5.03835 30.4918 4.57683C30.0337 4.1153 29.8047 3.57685 29.8047 2.88456C29.8047 2.19227 30.0337 1.65382 30.4918 1.19229C30.9498 0.730763 31.4842 0.5 32.1713 0.5C32.8583 0.5 33.3927 0.730763 33.8508 1.19229C34.2325 1.5769 34.4615 2.19227 34.4615 2.80764C34.4615 3.49993 34.2325 4.03838 33.8508 4.57683ZM30.8735 4.1153C31.1788 4.42298 31.6369 4.65375 32.0949 4.65375C32.553 4.65375 33.011 4.4999 33.3164 4.1153C33.6218 3.80761 33.8508 3.34609 33.8508 2.80764C33.8508 2.26919 33.6981 1.88458 33.3927 1.49998C33.0874 1.19229 32.6293 0.961528 32.1713 0.961528C31.7132 0.961528 31.2552 1.11537 30.9498 1.49998C30.6444 1.80766 30.4154 2.26919 30.4154 2.80764C30.4154 3.34609 30.5681 3.80761 30.8735 4.1153Z" fill="#FAFCFF" stroke="#FAFCFF" stroke-width="0.251884" stroke-miterlimit="10"/>
<path d="M37.4369 5.26912C36.7498 5.26912 36.2154 5.03835 35.7574 4.57683C35.2993 4.1153 35.0703 3.57685 35.0703 2.88456C35.0703 2.19227 35.2993 1.65382 35.7574 1.19229C36.2154 0.730763 36.7498 0.5 37.4369 0.5C38.124 0.5 38.6584 0.730764 39.1164 1.26921L38.7347 1.65382C38.4293 1.26921 37.9713 1.03845 37.4369 1.03845C36.9025 1.03845 36.5208 1.19229 36.1391 1.5769C35.7574 1.88458 35.6047 2.34611 35.6047 2.88456C35.6047 3.42301 35.7574 3.88453 36.1391 4.19222C36.4445 4.4999 36.9025 4.73067 37.4369 4.73067C37.9713 4.73067 38.4293 4.4999 38.811 4.03838L39.1928 4.42298C38.9637 4.65375 38.7347 4.88451 38.4293 5.03835C38.2003 5.19219 37.8186 5.26912 37.4369 5.26912Z" fill="#FAFCFF" stroke="#FAFCFF" stroke-width="0.251884" stroke-miterlimit="10"/>
<path d="M41.6369 5.11527H41.0262V1.11537H39.8047V0.5H42.9347V1.03845H41.6369V5.11527Z" fill="#FAFCFF" stroke="#FAFCFF" stroke-width="0.251884" stroke-miterlimit="10"/>
<path d="M46.9769 0.5L45.221 4.42298C44.992 4.96143 44.6103 5.26912 44.1523 5.26912C43.9996 5.26912 43.8469 5.26912 43.6942 5.1922L43.8469 4.65375C43.9232 4.73067 44.0759 4.73067 44.1523 4.73067C44.3049 4.73067 44.3813 4.73067 44.4576 4.65375C44.534 4.57683 44.6103 4.4999 44.6866 4.34606L44.8393 3.96146L43.3125 0.576922H43.9996L45.1447 3.19224L46.2898 0.5H46.9769Z" fill="#FAFCFF" stroke="#FAFCFF" stroke-width="0.251884" stroke-miterlimit="10"/>
<path d="M47.6641 5.11527V0.5H50.9467V5.11527H50.336V1.11537H48.1985V5.11527H47.6641Z" fill="#FAFCFF" stroke="#FAFCFF" stroke-width="0.251884" stroke-miterlimit="10"/>
<path d="M52.0234 5.11527V0.5H52.6342V2.49995H54.9244V0.5H55.5351V5.11527H54.9244V3.0384H52.6342V5.11527H52.0234Z" fill="#FAFCFF" stroke="#FAFCFF" stroke-width="0.251884" stroke-miterlimit="10"/>
<path d="M60.2649 4.57683C59.8068 5.03835 59.2724 5.26912 58.5853 5.26912C57.8983 5.26912 57.3639 5.03835 56.9058 4.57683C56.4478 4.1153 56.2188 3.57685 56.2188 2.88456C56.2188 2.19227 56.4478 1.65382 56.9058 1.19229C57.3639 0.730763 57.8983 0.5 58.5853 0.5C59.2724 0.5 59.8068 0.730763 60.2649 1.19229C60.7229 1.65382 60.9519 2.19227 60.9519 2.88456C60.9519 3.49993 60.7229 4.03838 60.2649 4.57683ZM57.3639 4.1153C57.6692 4.42298 58.1273 4.65375 58.5853 4.65375C59.0434 4.65375 59.5014 4.4999 59.8068 4.1153C60.1122 3.80761 60.3412 3.34609 60.3412 2.80764C60.3412 2.26919 60.1885 1.80766 59.8068 1.49998C59.5014 1.19229 59.0434 0.961528 58.5853 0.961528C58.1273 0.961528 57.6692 1.19229 57.3639 1.49998C57.0585 1.80766 56.8295 2.26919 56.8295 2.80764C56.8295 3.34609 56.9822 3.80761 57.3639 4.1153Z" fill="#FAFCFF" stroke="#FAFCFF" stroke-width="0.251884" stroke-miterlimit="10"/>
<path d="M63.3125 5.11527V0.5H64.992C65.3737 0.5 65.6791 0.653842 65.9081 0.884606C66.1371 1.11537 66.2898 1.42305 66.2898 1.80766C66.2898 2.03842 66.2135 2.19227 66.1371 2.42303C66.0608 2.57687 65.9081 2.73072 65.6791 2.80764C65.9081 2.88456 66.0608 3.0384 66.2135 3.19224C66.3662 3.34609 66.4425 3.57685 66.4425 3.88453C66.4425 4.26914 66.2898 4.57683 66.0608 4.80759C65.7554 5.03835 65.4501 5.11527 65.0684 5.11527H63.3125ZM63.9232 2.49995H64.992C65.221 2.49995 65.3737 2.42303 65.5264 2.26919C65.6791 2.11535 65.7554 1.9615 65.7554 1.80766C65.7554 1.65382 65.6791 1.42305 65.5264 1.26921C65.3737 1.11537 65.221 1.03845 64.992 1.03845H63.9232V2.49995ZM63.9232 4.57683H65.1447C65.3737 4.57683 65.5264 4.4999 65.6791 4.34606C65.8318 4.19222 65.9081 4.03838 65.9081 3.80761C65.9081 3.65377 65.8318 3.42301 65.6791 3.26916C65.5264 3.11532 65.3737 3.0384 65.1447 3.0384H63.9996V4.57683H63.9232Z" fill="#FAFCFF" stroke="#FAFCFF" stroke-width="0.251884" stroke-miterlimit="10"/>
<path d="M27.3733 8.95703L24.625 17.1107H25.8465L26.6862 14.6492H29.3582L30.1979 17.1107H31.4957L28.7474 8.95703H27.3733ZM28.0604 10.3416C28.1367 10.7262 28.2894 11.1108 28.3657 11.4954L29.1291 13.6492H26.9916L27.755 11.4954C27.8313 11.1108 27.9077 10.7262 28.0604 10.3416Z" fill="#FAFCFF"/>
<path d="M35.0831 11.1172C34.2434 11.1172 33.5563 11.4249 33.1746 12.0402L33.0982 11.1941H31.9531V11.271C31.9531 11.8095 32.0295 12.3479 32.0295 13.1171V19.5016H33.2509V16.5786C33.6326 17.0401 34.2434 17.2709 34.9304 17.2709C35.6175 17.2709 36.3046 16.9632 36.7626 16.5017C37.297 15.9632 37.6024 15.1171 37.6024 14.1171C37.6024 13.271 37.3734 12.5018 36.9153 11.9633C36.3809 11.4249 35.7702 11.1172 35.0831 11.1172ZM34.7778 12.1172C35.8465 12.1172 36.3809 13.1171 36.3809 14.1171C36.3809 15.4248 35.7702 16.194 34.7778 16.194C34.0907 16.194 33.48 15.7325 33.3273 15.0402C33.3273 14.9633 33.2509 14.8094 33.2509 14.6556V13.6556C33.2509 13.5787 33.2509 13.4248 33.3273 13.3479V13.271C33.48 12.6556 34.0907 12.1172 34.7778 12.1172Z" fill="#FAFCFF"/>
<path d="M41.3487 11.1172C40.509 11.1172 39.8219 11.4249 39.4402 12.0402L39.3639 11.1941H38.2188V11.271C38.2188 11.8095 38.2951 12.3479 38.2951 13.1171V19.5016H39.5166V16.5786C39.8983 17.0401 40.509 17.2709 41.1961 17.2709C41.8831 17.2709 42.5702 16.9632 43.0283 16.5017C43.5627 15.9632 43.868 15.1171 43.868 14.1171C43.868 13.271 43.639 12.5018 43.1809 11.9633C42.6466 11.4249 42.0358 11.1172 41.3487 11.1172ZM41.0434 12.1172C42.1122 12.1172 42.6466 13.1171 42.6466 14.1171C42.6466 15.4248 42.0358 16.194 41.0434 16.194C40.3563 16.194 39.7456 15.7325 39.5929 15.0402C39.5929 14.9633 39.5166 14.8094 39.5166 14.6556V13.6556C39.5166 13.5787 39.5166 13.4248 39.5929 13.3479V13.271C39.7456 12.6556 40.3563 12.1172 41.0434 12.1172Z" fill="#FAFCFF"/>
<path d="M49.2057 12.4212C48.0605 11.9597 47.6788 11.652 47.6788 10.9597C47.6788 10.4212 48.1369 9.88279 49.053 9.88279C49.8164 9.88279 50.3508 10.1905 50.5035 10.2674L50.5798 10.3443L50.9615 9.34434L50.8852 9.26742C50.6562 9.11358 50.1218 8.88281 49.1293 8.88281C47.6025 8.88281 46.4574 9.80587 46.4574 11.1135C46.4574 12.1904 47.1444 12.9596 48.5949 13.4981C49.6637 13.8827 50.0454 14.2673 50.0454 14.9596C50.0454 15.7288 49.4347 16.1903 48.5186 16.1903C47.9079 16.1903 47.2208 16.0365 46.7627 15.6519H46.6101L46.3047 16.7288L46.381 16.8057C46.8391 17.1134 47.6788 17.3441 48.4423 17.3441C50.5035 17.3441 51.2669 16.0365 51.2669 14.9596C51.2669 13.7289 50.6562 13.0366 49.2057 12.4212Z" fill="#FAFCFF"/>
<path d="M53.4753 9.80469L52.2538 10.1893V11.1893H51.4141V12.1892H52.2538V15.1892C52.2538 15.8815 52.4065 16.4199 52.7119 16.7276C53.0172 17.0353 53.3989 17.1891 53.857 17.1891C54.315 17.1891 54.6204 17.1122 54.7731 17.0353H54.8494L54.7731 16.0353H54.6204C54.4677 16.1122 54.315 16.1122 54.086 16.1122C53.628 16.1122 53.3989 15.8045 53.3989 15.1123V12.1123H54.8494V11.1123H53.3989V9.80469H53.4753Z" fill="#FAFCFF"/>
<path d="M57.9869 11.1172C56.3074 11.1172 55.0859 12.4248 55.0859 14.271C55.0859 16.0401 56.2311 17.2709 57.9106 17.2709C59.2847 17.2709 60.8115 16.2709 60.8115 14.1171C60.8115 13.271 60.5062 12.5018 60.0481 11.9633C59.5137 11.4249 58.8267 11.1172 57.9869 11.1172ZM57.9106 12.1172C58.9794 12.1172 59.5137 13.1941 59.5137 14.194C59.5137 15.4248 58.8267 16.3478 57.9106 16.3478C56.9945 16.3478 56.3074 15.5017 56.3074 14.271C56.3074 13.1171 56.8418 12.1172 57.9106 12.1172Z" fill="#FAFCFF"/>
<path d="M64.5476 11.1941C64.3949 11.1172 64.2423 11.1172 64.1659 11.1172C63.5552 11.1172 62.9445 11.5018 62.6391 12.1172V11.271H61.5703V11.348C61.5703 11.8095 61.6467 12.3479 61.6467 13.1171V17.117H62.8681V13.9633C62.8681 13.8094 62.8681 13.6556 62.8681 13.5017C63.0208 12.7325 63.4789 12.271 64.1659 12.271C64.3186 12.271 64.395 12.271 64.4713 12.271H64.624V11.1941H64.5476Z" fill="#FAFCFF"/>
<path d="M67.303 11.1172C65.6998 11.1172 64.5547 12.4248 64.5547 14.271C64.5547 16.0401 65.6998 17.2709 67.4557 17.2709C68.3718 17.2709 68.9825 17.0401 69.3642 16.8863H69.4405L69.2115 15.9632L69.1352 16.0401C68.8298 16.194 68.3718 16.3478 67.6083 16.3478C67.074 16.3478 65.8525 16.194 65.7762 14.5786H69.7459V14.5017C69.7459 14.3479 69.7459 14.194 69.7459 13.9633C69.6696 12.5787 69.0588 11.1172 67.303 11.1172ZM67.2266 12.0402C67.6083 12.0402 67.9137 12.1941 68.1427 12.3479C68.5244 12.7325 68.5244 13.271 68.6008 13.5017H65.8525C65.8525 12.8095 66.3105 12.0402 67.2266 12.0402Z" fill="#FAFCFF"/>
</svg>
