<svg width="79" height="24" viewBox="0 0 79 24" fill="none" xmlns="http://www.w3.org/2000/svg">
<path d="M15.4414 12.6903C15.4159 9.8825 17.7551 8.5165 17.862 8.45291C16.5373 6.53371 14.484 6.27149 13.7624 6.25058C12.0379 6.07025 10.3651 7.27595 9.48657 7.27595C8.59055 7.27595 7.23774 6.26801 5.77973 6.29763C3.90352 6.32638 2.14829 7.40576 1.18564 9.08189C-0.801044 12.4995 0.680639 17.5218 2.58403 20.2843C3.53617 21.6372 4.64874 23.1478 6.105 23.0947C7.5297 23.0363 8.06188 22.1922 9.78115 22.1922C11.4847 22.1922 11.9844 23.0947 13.4696 23.0607C14.9986 23.0363 15.9613 21.7017 16.8801 20.3366C17.9804 18.7859 18.4223 17.2587 18.4398 17.1803C18.4038 17.1681 15.4703 16.0556 15.4414 12.6903Z" fill="#FAFCFF"/>
<path d="M12.6358 4.43332C13.4021 3.48113 13.9264 2.18569 13.7808 0.871094C12.6718 0.919879 11.2848 1.63337 10.486 2.56465C9.7794 3.3853 9.14815 4.73039 9.31122 5.99533C10.5571 6.08767 11.8362 5.3707 12.6358 4.43332Z" fill="#FAFCFF"/>
<path d="M6.105 23.0947C6.76561 23.0676 7.23432 22.8716 7.71847 22.6692C8.27845 22.435 8.85908 22.1922 9.78115 22.1922C10.6509 22.1922 11.2068 22.4274 11.7404 22.6532C12.2518 22.8696 12.7427 23.0774 13.4696 23.0607C14.9986 23.0363 15.9613 21.7017 16.8801 20.3366C17.9804 18.7859 18.4223 17.2587 18.4398 17.1803M6.105 23.0947L6.10074 22.978C6.10072 22.978 6.10069 22.978 6.10066 22.978M6.105 23.0947C4.64874 23.1478 3.53617 21.6372 2.58403 20.2843L2.68016 20.2181C2.68006 20.2179 2.67997 20.2178 2.67987 20.2177M6.105 23.0947L6.10022 22.9781C6.10037 22.9781 6.10052 22.9781 6.10066 22.978M6.10066 22.978C6.73947 22.9518 7.19038 22.7633 7.67534 22.5606C7.71261 22.5451 7.75009 22.5294 7.78786 22.5137C8.31929 22.2932 8.89887 22.0754 9.78115 22.0754C10.6572 22.0754 11.2258 22.3089 11.7527 22.5317L11.782 22.5441C12.2942 22.7608 12.7652 22.9601 13.4669 22.944L13.4677 22.944C14.1947 22.9324 14.7913 22.6105 15.3242 22.1159C15.8596 21.619 16.3231 20.9551 16.7832 20.2714L16.7849 20.269C17.329 19.5021 17.7108 18.7404 17.9586 18.1605C18.0825 17.8706 18.1727 17.6266 18.233 17.4507C18.2616 17.367 18.2835 17.2988 18.2989 17.2484M6.10066 22.978C5.41706 23.003 4.80384 22.6618 4.23509 22.1314C3.66624 21.6009 3.15667 20.8951 2.67987 20.2177M18.2989 17.2484C18.3597 17.2751 18.3963 17.2888 18.4023 17.2909L18.4398 17.1803M18.2989 17.2484C18.2997 17.2459 18.3004 17.2433 18.3012 17.2409C18.3089 17.2154 18.3149 17.195 18.3191 17.18L18.324 17.162L18.3254 17.1567C18.3257 17.1556 18.3258 17.155 18.3259 17.1549L18.3259 17.1548L18.4398 17.1803M18.2989 17.2484C18.0625 17.1449 17.4596 16.846 16.8578 16.2776C16.0983 15.5603 15.3394 14.4121 15.3246 12.6913M18.4398 17.1803C18.4038 17.1681 15.4703 16.0556 15.4414 12.6903L15.3246 12.6913M15.3246 12.6913C15.3014 10.121 17.2097 8.73239 17.695 8.41904C16.4003 6.63617 14.4533 6.38739 13.759 6.36727L13.7502 6.36701L13.7503 6.36669C12.9167 6.27952 12.0892 6.52703 11.3482 6.80494C11.1869 6.86546 11.0266 6.92861 10.8716 6.98972C10.6777 7.06614 10.492 7.13936 10.3222 7.20026C10.0143 7.31068 9.72826 7.39269 9.48657 7.39269C9.24292 7.39269 8.97563 7.32457 8.69671 7.22941C8.49153 7.15941 8.27286 7.0721 8.04715 6.98197C7.96599 6.94957 7.88392 6.9168 7.80124 6.88434C7.16924 6.63624 6.48571 6.40004 5.7821 6.41434L5.78152 6.41435C3.94898 6.44243 2.23031 7.49735 1.28687 9.14003L1.28656 9.14056C0.311996 10.8171 0.183777 12.896 0.540995 14.9084C0.898026 16.9197 1.73769 18.8501 2.67987 20.2177M15.3246 12.6913C15.3246 12.6913 15.3246 12.6913 15.3246 12.6913L2.67987 20.2177M10.5745 2.64082L10.5747 2.64065C11.3283 1.76192 12.621 1.08254 13.6754 0.994773C13.7763 2.23261 13.2756 3.45147 12.5459 4.35883C11.7836 5.25177 10.5839 5.93048 9.41621 5.88438C9.30163 4.69089 9.89921 3.42506 10.5745 2.64082Z" stroke="#1C2750" stroke-opacity="0.3" stroke-width="0.233469"/>
<path d="M28.1007 7.61676H27.5V5.88742H28.0149C28.444 5.54156 28.7014 4.84982 28.7014 3.89869V1.30469H32.134V5.88742H32.7347V7.61676H32.134V6.49269H28.1865V7.61676H28.1007ZM29.2163 3.89869C29.2163 4.67689 29.0447 5.36862 28.7014 5.88742H31.2759V1.99642H29.1305V3.89869H29.2163Z" fill="#FAFCFF" stroke="#FAFCFF" stroke-width="0.283141" stroke-miterlimit="10"/>
<path d="M37.806 5.88742C37.2911 6.40622 36.6904 6.66562 35.9181 6.66562C35.1457 6.66562 34.545 6.40622 34.0301 5.88742C33.5153 5.36862 33.2578 4.76335 33.2578 3.98515C33.2578 3.20695 33.5153 2.60169 34.0301 2.08289C34.545 1.56409 35.1457 1.30469 35.9181 1.30469C36.6904 1.30469 37.2911 1.56409 37.806 2.08289C38.2351 2.51522 38.4925 3.20695 38.4925 3.89869C38.4925 4.67689 38.2351 5.28215 37.806 5.88742ZM34.4592 5.36862C34.8025 5.71449 35.3174 5.97389 35.8323 5.97389C36.3472 5.97389 36.862 5.80095 37.2053 5.36862C37.5486 5.02275 37.806 4.50395 37.806 3.89869C37.806 3.29342 37.6344 2.86109 37.2911 2.42875C36.9479 2.08289 36.433 1.82349 35.9181 1.82349C35.4032 1.82349 34.8883 1.99642 34.545 2.42875C34.2018 2.77462 33.9443 3.29342 33.9443 3.89869C33.9443 4.50395 34.116 5.02275 34.4592 5.36862Z" fill="#FAFCFF" stroke="#FAFCFF" stroke-width="0.283141" stroke-miterlimit="10"/>
<path d="M41.84 6.66562C41.0676 6.66562 40.4669 6.40622 39.952 5.88742C39.4371 5.36862 39.1797 4.76335 39.1797 3.98515C39.1797 3.20695 39.4371 2.60169 39.952 2.08289C40.4669 1.56409 41.0676 1.30469 41.84 1.30469C42.6123 1.30469 43.213 1.56409 43.7279 2.16935L43.2988 2.60169C42.9555 2.16935 42.4407 1.90995 41.84 1.90995C41.2392 1.90995 40.8102 2.08289 40.3811 2.51522C39.952 2.86109 39.7804 3.37989 39.7804 3.98515C39.7804 4.59042 39.952 5.10922 40.3811 5.45509C40.7244 5.80095 41.2392 6.06035 41.84 6.06035C42.4407 6.06035 42.9555 5.80095 43.3846 5.28216L43.8137 5.71449C43.5563 5.97389 43.2988 6.23329 42.9555 6.40622C42.6981 6.57915 42.269 6.66562 41.84 6.66562Z" fill="#FAFCFF" stroke="#FAFCFF" stroke-width="0.283141" stroke-miterlimit="10"/>
<path d="M46.5439 6.49269H45.8574V1.99642H44.4844V1.30469H48.0028V1.90995H46.5439V6.49269Z" fill="#FAFCFF" stroke="#FAFCFF" stroke-width="0.283141" stroke-miterlimit="10"/>
<path d="M52.5566 1.30469L50.5829 5.71449C50.3254 6.31976 49.8964 6.66562 49.3815 6.66562C49.2098 6.66562 49.0382 6.66562 48.8666 6.57915L49.0382 5.97389C49.124 6.06035 49.2956 6.06035 49.3815 6.06035C49.5531 6.06035 49.6389 6.06035 49.7247 5.97389C49.8105 5.88742 49.8964 5.80095 49.9822 5.62802L50.1538 5.19569L48.4375 1.39115H49.2098L50.4971 4.33102L51.7843 1.30469H52.5566Z" fill="#FAFCFF" stroke="#FAFCFF" stroke-width="0.283141" stroke-miterlimit="10"/>
<path d="M53.3281 6.49269V1.30469H57.0182V6.49269H56.3317V1.99642H53.9288V6.49269H53.3281Z" fill="#FAFCFF" stroke="#FAFCFF" stroke-width="0.283141" stroke-miterlimit="10"/>
<path d="M58.2266 6.49269V1.30469H58.9131V3.55282H61.4875V1.30469H62.1741V6.49269H61.4875V4.15809H58.9131V6.49269H58.2266Z" fill="#FAFCFF" stroke="#FAFCFF" stroke-width="0.283141" stroke-miterlimit="10"/>
<path d="M67.4857 5.88742C66.9708 6.40622 66.3701 6.66562 65.5978 6.66562C64.8254 6.66562 64.2247 6.40622 63.7098 5.88742C63.1949 5.36862 62.9375 4.76335 62.9375 3.98515C62.9375 3.20695 63.1949 2.60169 63.7098 2.08289C64.2247 1.56409 64.8254 1.30469 65.5978 1.30469C66.3701 1.30469 66.9708 1.56409 67.4857 2.08289C68.0006 2.60169 68.258 3.20695 68.258 3.98515C68.258 4.67689 68.0006 5.28215 67.4857 5.88742ZM64.2247 5.36862C64.568 5.71449 65.0829 5.97389 65.5978 5.97389C66.1127 5.97389 66.6275 5.80095 66.9708 5.36862C67.3141 5.02275 67.5715 4.50395 67.5715 3.89869C67.5715 3.29342 67.3999 2.77462 66.9708 2.42875C66.6275 2.08289 66.1127 1.82349 65.5978 1.82349C65.0829 1.82349 64.568 2.08289 64.2247 2.42875C63.8815 2.77462 63.624 3.29342 63.624 3.89869C63.624 4.50395 63.7957 5.02275 64.2247 5.36862Z" fill="#FAFCFF" stroke="#FAFCFF" stroke-width="0.283141" stroke-miterlimit="10"/>
<path d="M70.9219 6.49269V1.30469H72.8098C73.2389 1.30469 73.5821 1.47762 73.8396 1.73702C74.097 1.99642 74.2687 2.34229 74.2687 2.77462C74.2687 3.03402 74.1828 3.20695 74.097 3.46635C74.0112 3.63929 73.8396 3.81222 73.5821 3.89869C73.8396 3.98515 74.0112 4.15809 74.1828 4.33102C74.3545 4.50395 74.4403 4.76335 74.4403 5.10922C74.4403 5.54155 74.2687 5.88742 74.0112 6.14682C73.668 6.40622 73.3247 6.49269 72.8956 6.49269H70.9219ZM71.6084 3.55282H72.8098C73.0672 3.55282 73.2389 3.46635 73.4105 3.29342C73.5821 3.12049 73.668 2.94755 73.668 2.77462C73.668 2.60169 73.5821 2.34229 73.4105 2.16935C73.2389 1.99642 73.0672 1.90995 72.8098 1.90995H71.6084V3.55282ZM71.6084 5.88742H72.9814C73.2389 5.88742 73.4105 5.80095 73.5821 5.62802C73.7538 5.45509 73.8396 5.28215 73.8396 5.02275C73.8396 4.84982 73.7538 4.59042 73.5821 4.41749C73.4105 4.24455 73.2389 4.15809 72.9814 4.15809H71.6942V5.88742H71.6084Z" fill="#FAFCFF" stroke="#FAFCFF" stroke-width="0.283141" stroke-miterlimit="10"/>
<path d="M30.519 10.8125L27.4297 19.978H28.8027L29.7467 17.211H32.7502L33.6942 19.978H35.153L32.0637 10.8125H30.519ZM31.2914 12.3689C31.3772 12.8012 31.5488 13.2336 31.6346 13.6659L32.4928 16.087H30.09L30.9481 13.6659C31.0339 13.2336 31.1197 12.8012 31.2914 12.3689Z" fill="#FAFCFF"/>
<path d="M39.1903 13.2422C38.2463 13.2422 37.474 13.5881 37.0449 14.2798L36.9591 13.3287H35.6719V13.4151C35.6719 14.0204 35.7577 14.6257 35.7577 15.4903V22.6671H37.1307V19.3813C37.5598 19.9001 38.2463 20.1595 39.0187 20.1595C39.791 20.1595 40.5633 19.8137 41.0782 19.2949C41.6789 18.6896 42.0222 17.7385 42.0222 16.6144C42.0222 15.6633 41.7647 14.7986 41.2498 14.1933C40.6491 13.5881 39.9626 13.2422 39.1903 13.2422ZM38.847 14.3663C40.0484 14.3663 40.6491 15.4903 40.6491 16.6144C40.6491 18.0843 39.9626 18.949 38.847 18.949C38.0747 18.949 37.3882 18.4302 37.2165 17.652C37.2165 17.5655 37.1307 17.3926 37.1307 17.2197V16.0956C37.1307 16.0091 37.1307 15.8362 37.2165 15.7497V15.6633C37.3882 14.9715 38.0747 14.3663 38.847 14.3663Z" fill="#FAFCFF"/>
<path d="M46.2294 13.2422C45.2854 13.2422 44.5131 13.5881 44.084 14.2798L43.9982 13.3287H42.7109V13.4151C42.7109 14.0204 42.7968 14.6257 42.7968 15.4903V22.6671H44.1698V19.3813C44.5989 19.9001 45.2854 20.1595 46.0577 20.1595C46.8301 20.1595 47.6024 19.8137 48.1173 19.2949C48.718 18.6896 49.0612 17.7385 49.0612 16.6144C49.0612 15.6633 48.8038 14.7986 48.2889 14.1933C47.6882 13.5881 47.0017 13.2422 46.2294 13.2422ZM45.8861 14.3663C47.0875 14.3663 47.6882 15.4903 47.6882 16.6144C47.6882 18.0843 47.0017 18.949 45.8861 18.949C45.1138 18.949 44.4272 18.4302 44.2556 17.652C44.2556 17.5655 44.1698 17.3926 44.1698 17.2197V16.0956C44.1698 16.0091 44.1698 15.8362 44.2556 15.7497V15.6633C44.4272 14.9715 45.1138 14.3663 45.8861 14.3663Z" fill="#FAFCFF"/>
<path d="M55.0578 14.7079C53.7706 14.1891 53.3415 13.8433 53.3415 13.0651C53.3415 12.4598 53.8564 11.8545 54.8862 11.8545C55.7444 11.8545 56.3451 12.2004 56.5167 12.2869L56.6025 12.3733L57.0316 11.2493L56.9458 11.1628C56.6883 10.9899 56.0876 10.7305 54.972 10.7305C53.2557 10.7305 51.9685 11.7681 51.9685 13.238C51.9685 14.4485 52.7408 15.3132 54.3713 15.9185C55.5727 16.3508 56.0018 16.7831 56.0018 17.5613C56.0018 18.426 55.3153 18.9448 54.2855 18.9448C53.599 18.9448 52.8267 18.7719 52.3118 18.3395H52.1401L51.7969 19.5501L51.8827 19.6365C52.3976 19.9824 53.3415 20.2418 54.1997 20.2418C56.5167 20.2418 57.3748 18.7719 57.3748 17.5613C57.3748 16.1779 56.6883 15.3997 55.0578 14.7079Z" fill="#FAFCFF"/>
<path d="M59.8639 11.7695L58.4908 12.2019V13.3259H57.5469V14.45H58.4908V17.8222C58.4908 18.6004 58.6625 19.2057 59.0057 19.5515C59.349 19.8974 59.7781 20.0703 60.293 20.0703C60.8078 20.0703 61.1511 19.9839 61.3227 19.8974H61.4086L61.3227 18.7733H61.1511C60.9795 18.8598 60.8078 18.8598 60.5504 18.8598C60.0355 18.8598 59.7781 18.5139 59.7781 17.7357V14.3635H61.4086V13.2395H59.7781V11.7695H59.8639Z" fill="#FAFCFF"/>
<path d="M64.9407 13.2422C63.0527 13.2422 61.6797 14.7121 61.6797 16.7873C61.6797 18.7761 62.9669 20.1595 64.8548 20.1595C66.3995 20.1595 68.1158 19.0355 68.1158 16.6144C68.1158 15.6633 67.7726 14.7986 67.2577 14.1933C66.657 13.5881 65.8846 13.2422 64.9407 13.2422ZM64.8548 14.3663C66.0562 14.3663 66.657 15.5768 66.657 16.7009C66.657 18.0843 65.8846 19.1219 64.8548 19.1219C63.8251 19.1219 63.0527 18.1708 63.0527 16.7873C63.0527 15.4903 63.6534 14.3663 64.8548 14.3663Z" fill="#FAFCFF"/>
<path d="M72.3077 13.3287C72.1361 13.2422 71.9645 13.2422 71.8786 13.2422C71.1921 13.2422 70.5056 13.6745 70.1623 14.3663V13.4151H68.9609V13.5016C68.9609 14.0204 69.0468 14.6257 69.0468 15.4903V19.9866H70.4198V16.4415C70.4198 16.2685 70.4198 16.0956 70.4198 15.9227C70.5914 15.058 71.1063 14.5392 71.8786 14.5392C72.0503 14.5392 72.1361 14.5392 72.2219 14.5392H72.3935V13.3287H72.3077Z" fill="#FAFCFF"/>
<path d="M75.4018 13.2422C73.5997 13.2422 72.3125 14.7121 72.3125 16.7873C72.3125 18.7761 73.5997 20.1595 75.5735 20.1595C76.6032 20.1595 77.2898 19.9001 77.7188 19.7272H77.8047L77.5472 18.6896L77.4614 18.7761C77.1181 18.949 76.6032 19.1219 75.7451 19.1219C75.1444 19.1219 73.7714 18.949 73.6855 17.1332H78.1479V17.0467C78.1479 16.8738 78.1479 16.7009 78.1479 16.4415C78.0621 14.8851 77.3756 13.2422 75.4018 13.2422ZM75.316 14.2798C75.7451 14.2798 76.0884 14.4527 76.3458 14.6257C76.7749 15.058 76.7749 15.6633 76.8607 15.9227H73.7714C73.7714 15.1445 74.2862 14.2798 75.316 14.2798Z" fill="#FAFCFF"/>
</svg>
