<svg width="22" height="23" viewBox="0 0 22 23" fill="none" xmlns="http://www.w3.org/2000/svg">
<g clip-path="url(#clip0_5972_32283)">
<path d="M11 0.210938C4.92486 0.210938 0 5.1358 0 11.2109C0 17.286 4.92486 22.2109 11 22.2109C17.0751 22.2109 22 17.286 22 11.2109C21.9935 5.13851 17.0724 0.217429 11 0.210938ZM17.0555 7.83785L9.19833 15.695C8.89149 16.0018 8.39414 16.0018 8.08734 15.695L4.94447 12.5521C4.63234 12.2507 4.62368 11.7533 4.92514 11.4412C5.22659 11.129 5.72399 11.1204 6.03612 11.4218C6.04266 11.4282 6.04911 11.4346 6.05546 11.4412L8.64284 14.0285L15.9445 6.72687C16.2566 6.42541 16.754 6.43407 17.0555 6.74616C17.3496 7.05065 17.3496 7.53336 17.0555 7.83785Z" fill="#0050C8"/>
</g>
<defs>
<clipPath id="clip0_5972_32283">
<rect width="22" height="22" fill="white" transform="translate(0 0.5)"/>
</clipPath>
</defs>
</svg>
