<svg width="89" height="22" viewBox="0 0 89 22" fill="none" xmlns="http://www.w3.org/2000/svg">
<path d="M1.1742 1.77731C0.945091 2.01562 0.8125 2.38665 0.8125 2.86715V20.0063C0.8125 20.4868 0.945091 20.8578 1.1742 21.0961L1.23075 21.1484L10.8963 11.5481V11.3214L1.23075 1.72112L1.1742 1.77731Z" fill="#FAFCFF"/>
<path d="M15.2808 14.75L12.0625 11.5483V11.3216L15.2847 8.11988L15.3568 8.16153L19.1727 10.3189C20.2617 10.9312 20.2617 11.9387 19.1727 12.5548L15.3568 14.7083L15.2808 14.75Z" fill="#FAFCFF"/>
<path d="M14.7742 15.3049L11.4799 12.0315L1.75781 21.6928C2.11951 22.0707 2.70935 22.1162 3.38011 21.7384L14.7742 15.3049Z" fill="#FAFCFF"/>
<path d="M14.7742 7.56644L3.38011 1.13297C2.70935 0.759034 2.11951 0.804564 1.75781 1.18238L11.4799 10.8398L14.7742 7.56644Z" fill="#FAFCFF"/>
<path d="M46.0241 12.9737C44.2369 12.9737 42.822 14.3055 42.822 16.1553C42.822 17.9311 44.2369 19.337 46.0241 19.337C47.8113 19.337 49.2262 18.0051 49.2262 16.1553C49.2262 14.3055 47.8113 12.9737 46.0241 12.9737ZM46.0241 18.0051C45.056 18.0051 44.2369 17.1912 44.2369 16.0813C44.2369 14.9715 45.056 14.1576 46.0241 14.1576C46.9922 14.1576 47.8113 14.8975 47.8113 16.0813C47.8113 17.1912 46.9922 18.0051 46.0241 18.0051ZM39.0986 12.9737C37.3113 12.9737 35.8964 14.3055 35.8964 16.1553C35.8964 17.9311 37.3113 19.337 39.0986 19.337C40.8858 19.337 42.3007 18.0051 42.3007 16.1553C42.3007 14.3055 40.8858 12.9737 39.0986 12.9737ZM39.0986 18.0051C38.1305 18.0051 37.3113 17.1912 37.3113 16.0813C37.3113 14.9715 38.1305 14.1576 39.0986 14.1576C40.0667 14.1576 40.8858 14.8975 40.8858 16.0813C40.8858 17.1912 40.0667 18.0051 39.0986 18.0051ZM30.9071 13.9356V15.2674H34.1092C34.0347 16.0073 33.7369 16.5993 33.3645 16.9692C32.9177 17.4132 32.173 17.9311 30.9071 17.9311C28.8964 17.9311 27.4071 16.3773 27.4071 14.3795C27.4071 12.3818 28.9709 10.8279 30.9071 10.8279C31.9496 10.8279 32.7688 11.2719 33.3645 11.7898L34.3326 10.8279C33.5135 10.088 32.4709 9.49609 30.9815 9.49609C28.3007 9.49609 25.9922 11.7158 25.9922 14.3795C25.9922 17.0432 28.3007 19.263 30.9815 19.263C32.4709 19.263 33.5135 18.819 34.4071 17.8571C35.3007 16.9692 35.5986 15.7114 35.5986 14.7495C35.5986 14.4535 35.5986 14.1576 35.5241 13.9356H30.9071ZM64.6411 14.9715C64.3432 14.2315 63.5986 12.9737 61.9603 12.9737C60.322 12.9737 58.9815 14.2315 58.9815 16.1553C58.9815 17.9311 60.322 19.337 62.1092 19.337C63.5241 19.337 64.4177 18.4491 64.7156 17.9311L63.673 17.1912C63.3007 17.7091 62.8539 18.0791 62.1092 18.0791C61.3645 18.0791 60.9177 17.7831 60.5454 17.1172L64.7901 15.3414L64.6411 14.9715ZM60.322 16.0073C60.322 14.8235 61.2901 14.1576 61.9603 14.1576C62.4815 14.1576 63.0028 14.4535 63.1518 14.8235L60.322 16.0073ZM56.822 19.041H58.2369V9.79206H56.822V19.041ZM54.5879 13.6396C54.2156 13.2697 53.6198 12.8997 52.8752 12.8997C51.3113 12.8997 49.822 14.3055 49.822 16.0813C49.822 17.8571 51.2369 19.189 52.8752 19.189C53.6198 19.189 54.2156 18.819 54.5135 18.4491H54.5879V18.893C54.5879 20.0769 53.9177 20.7428 52.8752 20.7428C52.056 20.7428 51.4603 20.1509 51.3113 19.6329L50.1198 20.1509C50.4922 20.9648 51.3858 22.0006 52.9496 22.0006C54.5879 22.0006 55.9284 21.0388 55.9284 18.745V13.1217H54.5879V13.6396ZM52.9496 18.0051C51.9815 18.0051 51.1624 17.1912 51.1624 16.0813C51.1624 14.9715 51.9815 14.1576 52.9496 14.1576C53.9177 14.1576 54.6624 14.9715 54.6624 16.0813C54.6624 17.1912 53.9177 18.0051 52.9496 18.0051ZM71.1198 9.79206H67.7688V19.041H69.1837V15.5634H71.1198C72.6837 15.5634 74.173 14.4535 74.173 12.6777C74.173 10.9019 72.6837 9.79206 71.1198 9.79206ZM71.1943 14.3055H69.1837V11.1239H71.1943C72.2369 11.1239 72.8326 12.0118 72.8326 12.6777C72.8326 13.4176 72.2369 14.3055 71.1943 14.3055ZM79.7581 12.9737C78.7156 12.9737 77.673 13.4176 77.3007 14.3795L78.5667 14.8975C78.8645 14.3795 79.3113 14.2315 79.8326 14.2315C80.5773 14.2315 81.2475 14.6755 81.322 15.4154V15.4894C81.0986 15.3414 80.5028 15.1194 79.9071 15.1194C78.5667 15.1194 77.2262 15.8594 77.2262 17.1912C77.2262 18.4491 78.3432 19.263 79.5347 19.263C80.5028 19.263 80.9496 18.819 81.322 18.3751H81.3964V19.115H82.7369V15.5634C82.5879 13.8616 81.322 12.9737 79.7581 12.9737ZM79.6092 18.0051C79.1624 18.0051 78.4922 17.7831 78.4922 17.1912C78.4922 16.4513 79.3113 16.2293 79.9815 16.2293C80.5773 16.2293 80.8752 16.3773 81.2475 16.5253C81.0986 17.4132 80.3539 18.0051 79.6092 18.0051ZM87.5028 13.1217L85.939 17.1172H85.8645L84.2262 13.1217H82.7369L85.1943 18.745L83.7794 21.8527H85.1943L88.9922 13.1217H87.5028ZM74.9177 19.041H76.3326V9.79206H74.9177V19.041Z" fill="#FAFCFF"/>
<path d="M26.6619 7.42091H26.1406V5.94108H26.5874C26.9598 5.64511 27.1832 5.05318 27.1832 4.23928V2.01953H30.1619V5.94108H30.6832V7.42091H30.1619V6.45902H26.7364V7.42091H26.6619ZM27.7045 4.23928C27.7045 4.9052 27.5555 5.49713 27.2576 5.94108H29.4917V2.61146H27.63V4.23928H27.7045Z" fill="#FAFCFF" stroke="#FAFCFF" stroke-width="0.24229" stroke-miterlimit="10"/>
<path d="M35.0796 5.94108C34.6328 6.38503 34.1115 6.607 33.4413 6.607C32.7711 6.607 32.2498 6.38503 31.803 5.94108C31.3562 5.49713 31.1328 4.97919 31.1328 4.31327C31.1328 3.64734 31.3562 3.1294 31.803 2.68545C32.2498 2.24151 32.7711 2.01953 33.4413 2.01953C34.1115 2.01953 34.6328 2.24151 35.0796 2.68545C35.5264 3.1294 35.7498 3.64734 35.7498 4.31327C35.7498 4.9052 35.5264 5.42314 35.0796 5.94108ZM32.2498 5.49713C32.5477 5.7931 32.9945 6.01507 33.4413 6.01507C33.8881 6.01507 34.3349 5.86709 34.6328 5.49713C34.9307 5.20116 35.1541 4.75722 35.1541 4.23927C35.1541 3.72133 35.0052 3.35138 34.7073 2.98142C34.4094 2.68545 33.9626 2.46348 33.5158 2.46348C33.069 2.46348 32.6222 2.61146 32.3243 2.98142C32.0264 3.27739 31.803 3.72133 31.803 4.23927C31.803 4.75722 31.952 5.20116 32.2498 5.49713Z" fill="#FAFCFF" stroke="#FAFCFF" stroke-width="0.24229" stroke-miterlimit="10"/>
<path d="M38.6444 6.607C37.9742 6.607 37.453 6.38503 37.0061 5.94108C36.5593 5.49713 36.3359 4.97919 36.3359 4.31327C36.3359 3.64734 36.5593 3.1294 37.0061 2.68545C37.453 2.24151 37.9742 2.01953 38.6444 2.01953C39.3147 2.01953 39.8359 2.24151 40.2827 2.75945L39.9104 3.05541C39.6125 2.68545 39.1657 2.46348 38.6444 2.46348C38.1232 2.46348 37.7508 2.61146 37.3785 2.98142C37.0061 3.27739 36.8572 3.72133 36.8572 4.23927C36.8572 4.75722 37.0061 5.20116 37.3785 5.49713C37.6764 5.7931 38.1232 6.01507 38.6444 6.01507C39.1657 6.01507 39.6125 5.7931 39.9849 5.34915L40.3572 5.7191C40.1338 5.94108 39.9104 6.16305 39.6125 6.31104C39.3147 6.53301 39.0168 6.607 38.6444 6.607Z" fill="#FAFCFF" stroke="#FAFCFF" stroke-width="0.24229" stroke-miterlimit="10"/>
<path d="M42.7445 6.45902H42.1488V2.61146H40.8828V2.01953H43.936V2.53747H42.67V6.45902H42.7445Z" fill="#FAFCFF" stroke="#FAFCFF" stroke-width="0.24229" stroke-miterlimit="10"/>
<path d="M47.9573 2.01953L46.2445 5.7931C46.0211 6.31104 45.6488 6.607 45.202 6.607C45.053 6.607 44.9041 6.607 44.7552 6.53301L44.9041 6.01507C44.9786 6.08906 45.1275 6.08906 45.202 6.08906C45.3509 6.08906 45.4254 6.08906 45.4998 6.01507C45.5743 5.94108 45.6488 5.86709 45.7232 5.7191L45.8722 5.34915L44.3828 2.01953H45.053L46.17 4.53524L47.2871 2.01953H47.9573Z" fill="#FAFCFF" stroke="#FAFCFF" stroke-width="0.24229" stroke-miterlimit="10"/>
<path d="M48.5547 6.45902V2.01953H51.8313V6.45902H51.2355V2.61146H49.1504V6.45902H48.5547Z" fill="#FAFCFF" stroke="#FAFCFF" stroke-width="0.24229" stroke-miterlimit="10"/>
<path d="M52.7969 6.45902V2.01953H53.3926V3.94331H55.6267V2.01953H56.2224V6.45902H55.6267V4.46125H53.3926V6.45902H52.7969Z" fill="#FAFCFF" stroke="#FAFCFF" stroke-width="0.24229" stroke-miterlimit="10"/>
<path d="M60.9156 5.94108C60.4687 6.38503 59.9475 6.607 59.2773 6.607C58.607 6.607 58.0858 6.38503 57.639 5.94108C57.1922 5.49713 56.9688 4.97919 56.9688 4.31327C56.9688 3.64734 57.1922 3.1294 57.639 2.68545C58.0858 2.24151 58.607 2.01953 59.2773 2.01953C59.9475 2.01953 60.4687 2.24151 60.9156 2.68545C61.3624 3.1294 61.5858 3.64734 61.5858 4.31327C61.5858 4.9052 61.3624 5.42314 60.9156 5.94108ZM58.0113 5.49713C58.3092 5.7931 58.756 6.01507 59.2028 6.01507C59.6496 6.01507 60.0964 5.86709 60.3943 5.49713C60.6922 5.20116 60.9156 4.75722 60.9156 4.23927C60.9156 3.72133 60.7666 3.35138 60.4687 2.98142C60.1709 2.68545 59.7241 2.46348 59.2773 2.46348C58.8305 2.46348 58.3836 2.61146 58.0858 2.98142C57.7879 3.27739 57.5645 3.72133 57.5645 4.23927C57.5645 4.75722 57.7134 5.20116 58.0113 5.49713Z" fill="#FAFCFF" stroke="#FAFCFF" stroke-width="0.24229" stroke-miterlimit="10"/>
<path d="M63.8984 6.45902V2.01953H65.5367C65.9091 2.01953 66.2069 2.16751 66.4304 2.38949C66.6538 2.61146 66.8027 2.90743 66.8027 3.27739C66.8027 3.49936 66.7282 3.64734 66.6538 3.86932C66.5793 4.0173 66.4304 4.16528 66.207 4.23927C66.4304 4.31327 66.5793 4.46125 66.7282 4.60923C66.8772 4.75721 66.9516 4.97919 66.9516 5.27515C66.9516 5.64511 66.8027 5.94108 66.5793 6.16305C66.2814 6.38503 65.9835 6.45902 65.6112 6.45902H63.8984ZM64.4942 3.94331H65.5367C65.7601 3.94331 65.9091 3.86932 66.058 3.72133C66.2069 3.57335 66.2814 3.42537 66.2814 3.27739C66.2814 3.1294 66.2069 2.90743 66.058 2.75945C65.9091 2.61146 65.7601 2.53747 65.5367 2.53747H64.4942V3.94331ZM64.4942 5.94108H65.6857C65.9091 5.94108 66.058 5.86709 66.207 5.7191C66.3559 5.57112 66.4304 5.42314 66.4304 5.20116C66.4304 5.05318 66.3559 4.83121 66.207 4.68322C66.058 4.53524 65.9091 4.46125 65.6857 4.46125H64.4942V5.94108Z" fill="#FAFCFF" stroke="#FAFCFF" stroke-width="0.24229" stroke-miterlimit="10"/>
</svg>
