<svg width="101" height="25" viewBox="0 0 101 25" fill="none" xmlns="http://www.w3.org/2000/svg">
<path d="M1.33627 1.61957C1.07873 1.88746 0.929688 2.30453 0.929688 2.84466V22.1106C0.929688 22.6508 1.07873 23.0678 1.33627 23.3357L1.39984 23.3945L12.2648 12.6029V12.3481L1.39984 1.55641L1.33627 1.61957Z" fill="#FAFCFF"/>
<path d="M17.1958 16.2031L13.5781 12.6041V12.3493L17.2001 8.75024L17.2812 8.79707L21.5707 11.2222C22.7948 11.9104 22.7948 13.0429 21.5707 13.7355L17.2812 16.1563L17.1958 16.2031Z" fill="#FAFCFF"/>
<path d="M16.6316 16.8257L12.9285 13.146L2 24.0063C2.40659 24.431 3.06962 24.4822 3.82361 24.0575L16.6316 16.8257Z" fill="#FAFCFF"/>
<path d="M16.6316 8.12507L3.82361 0.893255C3.06962 0.472914 2.40659 0.524094 2 0.94879L12.9285 11.8047L16.6316 8.12507Z" fill="#FAFCFF"/>
<path d="M51.7521 14.206C49.7431 14.206 48.1526 15.7031 48.1526 17.7825C48.1526 19.7786 49.7431 21.3589 51.7521 21.3589C53.7611 21.3589 55.3516 19.8618 55.3516 17.7825C55.3516 15.7031 53.7611 14.206 51.7521 14.206ZM51.7521 19.8618C50.6639 19.8618 49.7431 18.9469 49.7431 17.6993C49.7431 16.4517 50.6639 15.5368 51.7521 15.5368C52.8403 15.5368 53.7611 16.3685 53.7611 17.6993C53.7611 18.9469 52.8403 19.8618 51.7521 19.8618ZM43.9672 14.206C41.9582 14.206 40.3677 15.7031 40.3677 17.7825C40.3677 19.7786 41.9582 21.3589 43.9672 21.3589C45.9762 21.3589 47.5667 19.8618 47.5667 17.7825C47.5667 15.7031 45.9762 14.206 43.9672 14.206ZM43.9672 19.8618C42.879 19.8618 41.9582 18.9469 41.9582 17.6993C41.9582 16.4517 42.879 15.5368 43.9672 15.5368C45.0554 15.5368 45.9762 16.3685 45.9762 17.6993C45.9762 18.9469 45.0554 19.8618 43.9672 19.8618ZM34.7592 15.2873V16.7844H38.3587C38.275 17.6161 37.9401 18.2815 37.5216 18.6974C37.0193 19.1964 36.1822 19.7786 34.7592 19.7786C32.499 19.7786 30.8248 18.032 30.8248 15.7863C30.8248 13.5406 32.5827 11.794 34.7592 11.794C35.9311 11.794 36.8519 12.293 37.5216 12.8752L38.6098 11.794C37.689 10.9623 36.5171 10.2969 34.8429 10.2969C31.8294 10.2969 29.2344 12.7921 29.2344 15.7863C29.2344 18.7806 31.8294 21.2758 34.8429 21.2758C36.5171 21.2758 37.689 20.7767 38.6935 19.6955C39.698 18.6974 40.0328 17.2834 40.0328 16.2022C40.0328 15.8695 40.0328 15.5368 39.9491 15.2873H34.7592ZM72.6794 16.4517C72.3446 15.62 71.5075 14.206 69.6659 14.206C67.8243 14.206 66.3175 15.62 66.3175 17.7825C66.3175 19.7786 67.8243 21.3589 69.8333 21.3589C71.4238 21.3589 72.4283 20.3608 72.7631 19.7786L71.5912 18.9469C71.1726 19.5291 70.6704 19.945 69.8333 19.945C68.9962 19.945 68.4939 19.6123 68.0754 18.8637L72.8468 16.8676L72.6794 16.4517ZM67.8243 17.6161C67.8243 16.2854 68.9125 15.5368 69.6659 15.5368C70.2518 15.5368 70.8378 15.8695 71.0052 16.2854L67.8243 17.6161ZM63.8899 21.0262H65.4804V10.6296H63.8899V21.0262ZM61.3787 14.9546C60.9601 14.5387 60.2905 14.1228 59.4534 14.1228C57.6955 14.1228 56.0213 15.7031 56.0213 17.6993C56.0213 19.6955 57.6118 21.1926 59.4534 21.1926C60.2905 21.1926 60.9601 20.7767 61.295 20.3608H61.3787V20.8599C61.3787 22.1907 60.6253 22.9392 59.4534 22.9392C58.5326 22.9392 57.8629 22.2738 57.6955 21.6916L56.3561 22.2738C56.7747 23.1887 57.7792 24.3532 59.5371 24.3532C61.3787 24.3532 62.8854 23.2719 62.8854 20.6935V14.3724H61.3787V14.9546ZM59.5371 19.8618C58.4489 19.8618 57.528 18.9469 57.528 17.6993C57.528 16.4517 58.4489 15.5368 59.5371 15.5368C60.6253 15.5368 61.4624 16.4517 61.4624 17.6993C61.4624 18.9469 60.6253 19.8618 59.5371 19.8618ZM79.9621 10.6296H76.1952V21.0262H77.7857V17.1171H79.9621C81.72 17.1171 83.3942 15.8695 83.3942 13.8733C83.3942 11.8772 81.72 10.6296 79.9621 10.6296ZM80.0458 15.7031H77.7857V12.1267H80.0458C81.2177 12.1267 81.8874 13.1248 81.8874 13.8733C81.8874 14.7051 81.2177 15.7031 80.0458 15.7031ZM89.6723 14.206C88.5004 14.206 87.3285 14.7051 86.9099 15.7863L88.333 16.3685C88.6678 15.7863 89.1701 15.62 89.7561 15.62C90.5931 15.62 91.3465 16.119 91.4302 16.9507V17.0339C91.1791 16.8676 90.5094 16.618 89.8398 16.618C88.333 16.618 86.8262 17.4498 86.8262 18.9469C86.8262 20.3608 88.0819 21.2758 89.4212 21.2758C90.5094 21.2758 91.0117 20.7767 91.4302 20.2777H91.5139V21.1094H93.0207V17.1171C92.8533 15.2041 91.4302 14.206 89.6723 14.206ZM89.5049 19.8618C89.0027 19.8618 88.2493 19.6123 88.2493 18.9469C88.2493 18.1152 89.1701 17.8656 89.9235 17.8656C90.5931 17.8656 90.928 18.032 91.3465 18.1983C91.1791 19.1964 90.342 19.8618 89.5049 19.8618ZM98.3781 14.3724L96.6202 18.8637H96.5365L94.6949 14.3724H93.0207L95.7831 20.6935L94.1926 24.1868H95.7831L100.052 14.3724H98.3781ZM84.2313 21.0262H85.8217V10.6296H84.2313V21.0262Z" fill="#FAFCFF"/>
<path d="M29.9844 7.95837H29.3984V6.29491H29.9007C30.3192 5.96221 30.5704 5.29683 30.5704 4.38192V1.88672H33.9187V6.29491H34.5047V7.95837H33.9187V6.87712H30.0681V7.95837H29.9844ZM31.1563 4.38192C31.1563 5.13048 30.9889 5.79587 30.6541 6.29491H33.1653V2.55211H31.0726V4.38192H31.1563Z" fill="#FAFCFF" stroke="#FAFCFF" stroke-width="0.272357" stroke-miterlimit="10"/>
<path d="M39.4522 6.29491C38.95 6.79395 38.364 7.04347 37.6106 7.04347C36.8572 7.04347 36.2713 6.79395 35.769 6.29491C35.2668 5.79587 35.0156 5.21365 35.0156 4.46509C35.0156 3.71653 35.2668 3.13432 35.769 2.63528C36.2713 2.13624 36.8572 1.88672 37.6106 1.88672C38.364 1.88672 38.95 2.13624 39.4522 2.63528C39.9545 3.13432 40.2056 3.71653 40.2056 4.46509C40.2056 5.13048 39.9545 5.71269 39.4522 6.29491ZM36.2713 5.79587C36.6061 6.12856 37.1084 6.37808 37.6106 6.37808C38.1129 6.37808 38.6151 6.21173 38.95 5.79587C39.2848 5.46317 39.5359 4.96413 39.5359 4.38192C39.5359 3.79971 39.3685 3.38384 39.0337 2.96797C38.6988 2.63528 38.1966 2.38576 37.6943 2.38576C37.1921 2.38576 36.6898 2.55211 36.355 2.96797C36.0201 3.30067 35.769 3.79971 35.769 4.38192C35.769 4.96413 35.9364 5.46317 36.2713 5.79587Z" fill="#FAFCFF" stroke="#FAFCFF" stroke-width="0.272357" stroke-miterlimit="10"/>
<path d="M43.4622 7.04347C42.7088 7.04347 42.1228 6.79395 41.6206 6.29491C41.1183 5.79587 40.8672 5.21365 40.8672 4.46509C40.8672 3.71653 41.1183 3.13432 41.6206 2.63528C42.1228 2.13624 42.7088 1.88672 43.4622 1.88672C44.2155 1.88672 44.8015 2.13624 45.3038 2.71845L44.8852 3.05115C44.5504 2.63528 44.0481 2.38576 43.4622 2.38576C42.8762 2.38576 42.4577 2.55211 42.0391 2.96797C41.6206 3.30067 41.4532 3.79971 41.4532 4.38192C41.4532 4.96413 41.6206 5.46317 42.0391 5.79587C42.3739 6.12856 42.8762 6.37808 43.4622 6.37808C44.0481 6.37808 44.5504 6.12856 44.9689 5.62952L45.3875 6.04539C45.1363 6.29491 44.8852 6.54443 44.5504 6.71077C44.2155 6.96029 43.8807 7.04347 43.4622 7.04347Z" fill="#FAFCFF" stroke="#FAFCFF" stroke-width="0.272357" stroke-miterlimit="10"/>
<path d="M48.0693 6.87712H47.3996V2.55211H45.9766V1.88672H49.4086V2.46893H47.9856V6.87712H48.0693Z" fill="#FAFCFF" stroke="#FAFCFF" stroke-width="0.272357" stroke-miterlimit="10"/>
<path d="M53.9243 1.88672L51.999 6.12856C51.7479 6.71077 51.3293 7.04347 50.827 7.04347C50.6596 7.04347 50.4922 7.04347 50.3248 6.96029L50.4922 6.37808C50.5759 6.46125 50.7433 6.46125 50.827 6.46125C50.9945 6.46125 51.0782 6.46125 51.1619 6.37808C51.2456 6.29491 51.3293 6.21173 51.413 6.04539L51.5804 5.62952L49.9062 1.88672H50.6596L51.9153 4.71461L53.1709 1.88672H53.9243Z" fill="#FAFCFF" stroke="#FAFCFF" stroke-width="0.272357" stroke-miterlimit="10"/>
<path d="M54.5938 6.87712V1.88672H58.277V6.87712H57.6073V2.55211H55.2634V6.87712H54.5938Z" fill="#FAFCFF" stroke="#FAFCFF" stroke-width="0.272357" stroke-miterlimit="10"/>
<path d="M59.3594 6.87712V1.88672H60.029V4.04923H62.5403V1.88672H63.21V6.87712H62.5403V4.63144H60.029V6.87712H59.3594Z" fill="#FAFCFF" stroke="#FAFCFF" stroke-width="0.272357" stroke-miterlimit="10"/>
<path d="M68.4913 6.29491C67.989 6.79395 67.4031 7.04347 66.6497 7.04347C65.8963 7.04347 65.3103 6.79395 64.8081 6.29491C64.3058 5.79587 64.0547 5.21365 64.0547 4.46509C64.0547 3.71653 64.3058 3.13432 64.8081 2.63528C65.3103 2.13624 65.8963 1.88672 66.6497 1.88672C67.4031 1.88672 67.989 2.13624 68.4913 2.63528C68.9935 3.13432 69.2446 3.71653 69.2446 4.46509C69.2446 5.13048 68.9935 5.71269 68.4913 6.29491ZM65.2266 5.79587C65.5615 6.12856 66.0637 6.37808 66.566 6.37808C67.0682 6.37808 67.5705 6.21173 67.9053 5.79587C68.2401 5.46317 68.4913 4.96413 68.4913 4.38192C68.4913 3.79971 68.3238 3.38384 67.989 2.96797C67.6542 2.63528 67.1519 2.38576 66.6497 2.38576C66.1474 2.38576 65.6452 2.55211 65.3103 2.96797C64.9755 3.30067 64.7244 3.79971 64.7244 4.38192C64.7244 4.96413 64.8918 5.46317 65.2266 5.79587Z" fill="#FAFCFF" stroke="#FAFCFF" stroke-width="0.272357" stroke-miterlimit="10"/>
<path d="M71.8359 6.87712V1.88672H73.6775C74.0961 1.88672 74.4309 2.05307 74.682 2.30259C74.9332 2.55211 75.1006 2.8848 75.1006 3.30067C75.1006 3.55018 75.0169 3.71653 74.9332 3.96605C74.8495 4.1324 74.6821 4.29874 74.4309 4.38192C74.6821 4.46509 74.8495 4.63144 75.0169 4.79778C75.1843 4.96413 75.268 5.21365 75.268 5.54634C75.268 5.96221 75.1006 6.2949 74.8495 6.54443C74.5146 6.79394 74.1798 6.87712 73.7612 6.87712H71.8359ZM72.5056 4.04923H73.6775C73.9287 4.04923 74.0961 3.96605 74.2635 3.79971C74.4309 3.63336 74.5146 3.46701 74.5146 3.30067C74.5146 3.13432 74.4309 2.8848 74.2635 2.71845C74.0961 2.55211 73.9287 2.46893 73.6775 2.46893H72.5056V4.04923ZM72.5056 6.2949H73.845C74.0961 6.2949 74.2635 6.21173 74.4309 6.04538C74.5983 5.87904 74.682 5.71269 74.682 5.46317C74.682 5.29682 74.5983 5.04731 74.4309 4.88096C74.2635 4.71461 74.0961 4.63144 73.845 4.63144H72.5056V6.2949Z" fill="#FAFCFF" stroke="#FAFCFF" stroke-width="0.272357" stroke-miterlimit="10"/>
</svg>
