<svg width="180" height="42" viewBox="0 0 180 42" fill="none" xmlns="http://www.w3.org/2000/svg">
<path d="M6.72706 27.708C6.23592 27.708 5.77366 27.7947 5.34029 27.9681C4.91655 28.1414 4.54579 28.4062 4.22798 28.7626C3.91018 29.1189 3.65498 29.5715 3.46237 30.1205C3.27939 30.6598 3.1879 31.3002 3.1879 32.0417C3.1879 32.7832 3.27939 33.4285 3.46237 33.9774C3.65498 34.5167 3.91018 34.9645 4.22798 35.3209C4.54579 35.6772 4.91655 35.942 5.34029 36.1154C5.77366 36.2887 6.23592 36.3754 6.72706 36.3754C7.21821 36.3754 7.67566 36.2887 8.09939 36.1154C8.53276 35.942 8.90834 35.6772 9.22615 35.3209C9.54395 34.9645 9.79434 34.5167 9.97732 33.9774C10.1699 33.4285 10.2662 32.7832 10.2662 32.0417C10.2662 31.3002 10.1699 30.6598 9.97732 30.1205C9.79434 29.5715 9.54395 29.1189 9.22615 28.7626C8.90834 28.4062 8.53276 28.1414 8.09939 27.9681C7.67566 27.7947 7.21821 27.708 6.72706 27.708ZM6.72706 26.6969C7.5938 26.6969 8.37867 26.8124 9.08169 27.0435C9.79434 27.2747 10.4011 27.6166 10.9018 28.0692C11.4122 28.5218 11.8071 29.0804 12.0864 29.7449C12.3656 30.4094 12.5053 31.175 12.5053 32.0417C12.5053 32.9084 12.3656 33.6741 12.0864 34.3386C11.8071 35.003 11.4122 35.5616 10.9018 36.0142C10.4011 36.4669 9.79434 36.8087 9.08169 37.0399C8.37867 37.271 7.5938 37.3866 6.72706 37.3866C5.86033 37.3866 5.07064 37.271 4.35799 37.0399C3.64535 36.8087 3.03382 36.4669 2.52341 36.0142C2.02263 35.5616 1.6326 35.003 1.35332 34.3386C1.08367 33.6741 0.948841 32.9084 0.948841 32.0417C0.948841 31.175 1.08367 30.4094 1.35332 29.7449C1.6326 29.0804 2.02263 28.5218 2.52341 28.0692C3.03382 27.6166 3.64535 27.2747 4.35799 27.0435C5.07064 26.8124 5.86033 26.6969 6.72706 26.6969ZM25.8008 26.9858V37.0977H23.7062V32.6918H17.7836V37.0977H15.689V26.9858H17.7836V31.6083H23.7062V26.9858H25.8008ZM28.5432 36.2309H28.9766C29.2655 36.2309 29.5207 36.1105 29.7422 35.8698C29.9637 35.629 30.0937 35.2197 30.1323 34.6419L30.6379 26.9858H39.233V37.0977H37.1384V28.0692H32.588L32.1546 34.6419C32.0872 35.5857 31.8224 36.2694 31.3601 36.6932C30.9075 37.1073 30.2815 37.3143 29.4822 37.3143C29.2318 37.3143 29.0103 37.2903 28.8177 37.2421C28.7118 37.2229 28.6203 37.1988 28.5432 37.1699V36.2309ZM45.3735 33.5585H49.8516L47.6847 28.2136H47.5403L45.3735 33.5585ZM49.2738 26.9858L53.3907 37.0977H51.3106L50.3572 34.6419H44.8679L43.9145 37.0977H41.8343L45.9513 26.9858H49.2738ZM64.3017 37.0977V28.8637H64.1572L58.7401 37.0977H55.9955V26.9858H58.0901V35.2197H58.2345L63.6516 26.9858H66.3963V37.0977H64.3017ZM61.0514 26.1913C60.0402 26.1913 59.3179 25.9746 58.8846 25.5412C58.4512 25.1078 58.2345 24.53 58.2345 23.8077H59.8958C59.8958 24.2411 60.0065 24.5541 60.228 24.7467C60.4495 24.9393 60.724 25.0356 61.0514 25.0356C61.3788 25.0356 61.6533 24.9393 61.8748 24.7467C62.0963 24.5541 62.207 24.2411 62.207 23.8077H63.8683C63.8683 24.53 63.6516 25.1078 63.2182 25.5412C62.7849 25.9746 62.0626 26.1913 61.0514 26.1913ZM79.9802 26.9858V37.0977H77.8856V32.6918H71.9629V37.0977H69.8683V26.9858H71.9629V31.6083H77.8856V26.9858H79.9802Z" fill="#0050C8"/>
<path d="M11.5971 13.0827L17.5072 21H13.8273L8.69783 14.0863H4.79496V21H1.56115V5.38851H4.79496V12.4137H8.47481L13.6043 5.38851H17.1726L11.5971 13.0827ZM19.2896 5.38851H26.8723C28.0172 5.38851 29.0059 5.49259 29.8385 5.70074C30.686 5.89403 31.3848 6.17652 31.9349 6.54822C32.485 6.90506 32.8939 7.33623 33.1615 7.84175C33.4291 8.34726 33.563 8.90481 33.563 9.51441C33.563 10.3024 33.3399 10.9863 32.8939 11.5662C32.4478 12.1461 31.7788 12.5772 30.8867 12.8597C32.0018 13.0827 32.8716 13.5214 33.496 14.1756C34.1354 14.8149 34.455 15.6401 34.455 16.6511C34.455 17.9892 33.8975 19.0523 32.7824 19.8403C31.6821 20.6134 29.9351 21 27.5414 21H19.2896V5.38851ZM22.5234 13.8633V19.3273H27.5414C28.6565 19.3273 29.5114 19.1043 30.1061 18.6583C30.7008 18.2122 30.9982 17.5432 30.9982 16.6511C30.9982 15.6995 30.7008 15.0007 30.1061 14.5547C29.5114 14.0938 28.6565 13.8633 27.5414 13.8633H22.5234ZM26.8723 12.1907C29.0282 12.1907 30.1061 11.2986 30.1061 9.51441C30.1061 8.7264 29.8311 8.12424 29.2809 7.70793C28.7457 7.27676 27.9428 7.06117 26.8723 7.06117H22.5234V12.1907H26.8723ZM40.8172 15.536H47.7309L44.3856 7.28419H44.1626L40.8172 15.536ZM46.8388 5.38851L53.1949 21H49.9834L48.5115 17.2086H40.0367L38.5647 21H35.3532L41.7093 5.38851H46.8388ZM63.0148 5.38851C64.1299 5.38851 65.1261 5.51489 66.0033 5.76765C66.8954 6.00554 67.6462 6.36237 68.2558 6.83815C68.8654 7.29906 69.3338 7.87148 69.6609 8.55542C69.988 9.22448 70.1515 9.99019 70.1515 10.8525C70.1515 11.7149 69.988 12.488 69.6609 13.172C69.3338 13.841 68.8654 14.4134 68.2558 14.8892C67.6462 15.3501 66.8954 15.707 66.0033 15.9597C65.1261 16.1976 64.1299 16.3166 63.0148 16.3166H58.2199V21H54.9861V5.38851H63.0148ZM58.2199 7.06117V14.6439H63.0148C64.1894 14.6439 65.0964 14.3391 65.7357 13.7295C66.3899 13.105 66.717 12.1461 66.717 10.8525C66.717 9.55901 66.3899 8.60745 65.7357 7.99786C65.0964 7.3734 64.1894 7.06117 63.0148 7.06117H58.2199ZM85.6515 7.06117H79.6299V21H76.3961V7.06117H70.3745V5.38851H85.6515V7.06117ZM103.049 5.38851V21H99.8151V7.06117H90.6712V21H87.4374V5.38851H103.049ZM105.053 19.6619H105.722C106.168 19.6619 106.562 19.476 106.904 19.1043C107.246 18.7326 107.446 18.1007 107.506 17.2086L108.286 5.38851H121.556V21H118.322V7.06117H111.297L110.628 17.2086C110.524 18.6657 110.115 19.7213 109.401 20.3755C108.703 21.0149 107.736 21.3345 106.502 21.3345C106.116 21.3345 105.774 21.2974 105.476 21.223C105.313 21.1933 105.172 21.1561 105.053 21.1115V19.6619ZM128.806 15.536H135.72L132.374 7.28419H132.151L128.806 15.536ZM134.828 5.38851L141.184 21H137.972L136.5 17.2086H128.026L126.554 21H123.342L129.698 5.38851H134.828ZM155.128 7.06117H149.106V21H145.872V7.06117H139.851V5.38851H155.128V7.06117ZM159.254 15.536H166.167L162.822 7.28419H162.599L159.254 15.536ZM165.275 5.38851L171.631 21H168.42L166.948 17.2086H158.473L157.001 21H153.79L160.146 5.38851H165.275Z" fill="#0050C8"/>
</svg>
