<svg width="1255" height="539" viewBox="0 0 1255 539" fill="none" xmlns="http://www.w3.org/2000/svg">
<path d="M269.71 282.943C186.521 288.527 137.932 316.054 1 329.298V539H1254V21C1187.85 33.2589 1084.5 51.079 1009.58 79.2467C971.844 93.4363 931.044 116.505 915.351 128.426C845.678 181.353 824.342 184.761 722.167 201.083L720.996 201.27C641.879 219.426 574.119 225.715 513.39 252.776C496.666 260.228 482.938 272.052 469.955 279.264C451.515 289.507 441.216 291.721 426.519 291.773C401.816 291.86 363.258 292.78 333.759 288.527C312.191 286.395 295.029 281.244 269.71 282.943Z" fill="url(#paint0_linear_5688_1106)"/>
<path d="M269.71 282.943C186.521 288.527 137.932 316.054 1 329.298V539H1254V21C1187.85 33.2589 1084.5 51.079 1009.58 79.2467C971.844 93.4363 931.044 116.505 915.351 128.426C845.678 181.353 824.342 184.761 722.167 201.083L720.996 201.27C641.879 219.426 574.119 225.715 513.39 252.776C496.666 260.228 482.938 272.052 469.955 279.264C451.515 289.507 441.216 291.721 426.519 291.773C401.816 291.86 363.258 292.78 333.759 288.527C312.191 286.395 295.029 281.244 269.71 282.943Z" fill="url(#paint1_linear_5688_1106)"/>
<path d="M909.352 405.502C906.113 405.502 902.983 405.134 899.965 404.397C897.02 403.661 894.332 402.557 891.902 401.084C889.473 399.538 887.411 397.587 885.718 395.231C884.024 392.875 882.846 390.077 882.183 386.837H891.902C892.712 388.899 894.001 390.666 895.768 392.138C897.535 393.611 899.523 394.752 901.732 395.562C904.014 396.298 906.26 396.666 908.469 396.666C912.077 396.666 915.279 396.077 918.077 394.899C920.949 393.721 923.231 391.917 924.925 389.488C926.618 386.984 927.465 383.781 927.465 379.879C927.465 374.504 925.845 370.381 922.605 367.509C919.366 364.638 915.169 363.202 910.015 363.202C906.923 363.202 904.051 363.754 901.4 364.859C898.823 365.963 896.467 367.473 894.332 369.387H884.392L887.926 326.425H934.644V335.26H896.541L894.332 359.778C896.32 358.159 898.75 356.87 901.621 355.913C904.493 354.882 908.027 354.367 912.224 354.367C917.231 354.367 921.611 355.398 925.367 357.459C929.195 359.521 932.14 362.429 934.202 366.184C936.337 369.866 937.405 374.246 937.405 379.327C937.405 384.775 936.153 389.451 933.65 393.353C931.22 397.255 927.87 400.274 923.599 402.409C919.403 404.471 914.654 405.502 909.352 405.502ZM977.408 405.502C974.169 405.502 971.04 405.134 968.021 404.397C965.076 403.661 962.388 402.557 959.958 401.084C957.529 399.538 955.467 397.587 953.774 395.231C952.08 392.875 950.902 390.077 950.239 386.837H959.958C960.768 388.899 962.057 390.666 963.824 392.138C965.591 393.611 967.579 394.752 969.788 395.562C972.07 396.298 974.316 396.666 976.525 396.666C980.133 396.666 983.335 396.077 986.133 394.899C989.005 393.721 991.287 391.917 992.981 389.488C994.674 386.984 995.521 383.781 995.521 379.879C995.521 374.504 993.901 370.381 990.662 367.509C987.422 364.638 983.225 363.202 978.071 363.202C974.979 363.202 972.107 363.754 969.457 364.859C966.88 365.963 964.523 367.473 962.388 369.387H952.448L955.982 326.425H1002.7V335.26H964.597L962.388 359.778C964.376 358.159 966.806 356.87 969.677 355.913C972.549 354.882 976.083 354.367 980.28 354.367C985.287 354.367 989.668 355.398 993.423 357.459C997.251 359.521 1000.2 362.429 1002.26 366.184C1004.39 369.866 1005.46 374.246 1005.46 379.327C1005.46 384.775 1004.21 389.451 1001.71 393.353C999.276 397.255 995.926 400.274 991.656 402.409C987.459 404.471 982.71 405.502 977.408 405.502ZM1026.8 404.508L1074.84 326.425H1084.56L1036.63 404.508H1026.8ZM1077.82 405.17C1074.29 405.17 1071.31 404.397 1068.88 402.851C1066.52 401.305 1064.72 399.243 1063.47 396.666C1062.21 394.016 1061.59 391.071 1061.59 387.831C1061.59 384.444 1062.21 381.462 1063.47 378.885C1064.72 376.308 1066.56 374.283 1068.99 372.811C1071.42 371.338 1074.36 370.602 1077.82 370.602C1081.21 370.602 1084.08 371.338 1086.44 372.811C1088.79 374.283 1090.6 376.308 1091.85 378.885C1093.1 381.462 1093.73 384.444 1093.73 387.831C1093.73 391.071 1093.1 394.016 1091.85 396.666C1090.6 399.243 1088.79 401.305 1086.44 402.851C1084.08 404.397 1081.21 405.17 1077.82 405.17ZM1077.71 397.329C1079.63 397.329 1081.14 396.887 1082.24 396.004C1083.42 395.12 1084.23 393.942 1084.67 392.47C1085.19 390.997 1085.44 389.451 1085.44 387.831C1085.44 386.211 1085.19 384.702 1084.67 383.303C1084.23 381.83 1083.42 380.652 1082.24 379.769C1081.14 378.885 1079.63 378.443 1077.71 378.443C1074.77 378.443 1072.67 379.4 1071.42 381.315C1070.24 383.229 1069.65 385.401 1069.65 387.831C1069.65 390.408 1070.28 392.654 1071.53 394.568C1072.78 396.409 1074.84 397.329 1077.71 397.329ZM1034.09 360.11C1030.55 360.11 1027.57 359.337 1025.14 357.791C1022.79 356.244 1020.98 354.183 1019.73 351.606C1018.55 348.955 1017.96 346.01 1017.96 342.77C1017.96 339.383 1018.55 336.401 1019.73 333.824C1020.98 331.247 1022.82 329.223 1025.25 327.75C1027.68 326.277 1030.63 325.541 1034.09 325.541C1037.55 325.541 1040.46 326.277 1042.81 327.75C1045.17 329.223 1046.94 331.247 1048.12 333.824C1049.37 336.401 1049.99 339.383 1049.99 342.77C1049.99 346.01 1049.37 348.955 1048.12 351.606C1046.94 354.183 1045.17 356.244 1042.81 357.791C1040.46 359.337 1037.55 360.11 1034.09 360.11ZM1034.09 352.268C1036 352.268 1037.51 351.827 1038.62 350.943C1039.72 350.06 1040.53 348.881 1041.05 347.409C1041.56 345.936 1041.82 344.39 1041.82 342.77C1041.82 341.15 1041.56 339.641 1041.05 338.242C1040.53 336.77 1039.72 335.591 1038.62 334.708C1037.51 333.824 1036 333.383 1034.09 333.383C1031.14 333.383 1029.05 334.34 1027.79 336.254C1026.54 338.168 1025.92 340.341 1025.92 342.77C1025.92 345.347 1026.54 347.593 1027.79 349.507C1029.05 351.348 1031.14 352.268 1034.09 352.268Z" fill="#0050C8"/>
<path d="M1 328.556C143.809 319.595 221.88 276.071 292.293 284.608C523.439 312.635 440.882 264.282 562.567 234.742C826.539 170.659 814.347 203.181 901.642 136.954C994.753 66.3159 1081.64 52.9134 1254 21.4688" stroke="url(#paint2_linear_5688_1106)" stroke-width="3.50512"/>
<path d="M1 483.596L1254 483.968" stroke="#003990" stroke-opacity="0.5" stroke-width="1.44357"/>
<line x1="1123.62" y1="59.4336" x2="1123.62" y2="247.761" stroke="url(#paint3_linear_5688_1106)" stroke-width="1.3148" stroke-dasharray="2.94 2.94"/>
<g filter="url(#filter0_bd_5688_1106)">
<path d="M1149.46 41.0248C1149.46 54.4422 1138.58 65.3192 1125.16 65.3192C1111.74 65.3192 1100.87 54.4422 1100.87 41.0248C1100.87 27.6074 1111.74 16.7305 1125.16 16.7305C1138.58 16.7305 1149.46 27.6074 1149.46 41.0248Z" fill="#0050C8"/>
</g>
<path d="M25.1818 516.043V501.17H27.9165L32.4605 509.353L36.9413 501.17H39.613V516.043H37.7828V503.021L32.8391 512.172H31.9977L27.012 503.021V516.043H25.1818ZM47.2567 516.169C46.4292 516.169 45.707 516.029 45.0899 515.748C44.4868 515.454 43.989 515.054 43.5963 514.549C43.2036 514.044 42.9091 513.448 42.7127 512.761C42.5304 512.074 42.4393 511.331 42.4393 510.531C42.4393 509.465 42.6076 508.505 42.9442 507.649C43.2948 506.78 43.8487 506.093 44.6061 505.588C45.3634 505.083 46.3521 504.83 47.5722 504.83C48.2174 504.83 48.8344 504.95 49.4235 505.188C50.0265 505.426 50.5384 505.798 50.9591 506.303V504.957H52.7473V516.043H50.9591V514.549C50.5665 515.068 50.0476 515.468 49.4024 515.748C48.7573 516.029 48.0421 516.169 47.2567 516.169ZM47.5512 514.591C48.2805 514.591 48.8975 514.402 49.4024 514.023C49.9073 513.645 50.293 513.14 50.5594 512.509C50.8399 511.878 50.9802 511.19 50.9802 510.447C50.9802 509.676 50.8469 508.989 50.5805 508.386C50.328 507.783 49.9494 507.306 49.4445 506.955C48.9396 506.604 48.3015 506.429 47.5302 506.429C46.7308 506.429 46.0856 506.612 45.5948 506.976C45.1179 507.341 44.7673 507.832 44.5429 508.449C44.3326 509.066 44.2274 509.753 44.2274 510.51C44.2274 511.296 44.3396 511.997 44.564 512.614C44.7884 513.231 45.146 513.715 45.6369 514.066C46.1277 514.416 46.7658 514.591 47.5512 514.591ZM55.556 516.043V504.957H57.3441V513.455C57.4423 513.259 57.5755 513.049 57.7438 512.824C57.9121 512.586 58.0453 512.404 58.1435 512.277L63.5079 504.957H65.275V516.043H63.4868V507.544C63.3746 507.754 63.2484 507.951 63.1082 508.133C62.982 508.315 62.8628 508.484 62.7506 508.638L57.302 516.043H55.556ZM60.5627 503.4C59.4548 503.4 58.5853 503.161 57.9542 502.685C57.3371 502.208 57.0145 501.514 56.9865 500.602H58.6274C58.6554 501.093 58.8377 501.45 59.1743 501.675C59.5249 501.899 59.9947 502.011 60.5838 502.011C61.1728 502.011 61.6356 501.899 61.9722 501.675C62.3228 501.45 62.5121 501.093 62.5402 500.602H64.1811C64.167 501.205 64.0128 501.717 63.7182 502.138C63.4237 502.558 63.01 502.874 62.4771 503.084C61.9441 503.295 61.306 503.4 60.5627 503.4Z" fill="#003990" fill-opacity="0.5"/>
<path d="M423.565 516.043V501.17H425.395V513.182L433.368 501.17H435.303V516.043H433.473V504.136L425.479 516.043H423.565ZM447.534 516.169C445.907 516.169 444.68 515.72 443.853 514.823C443.025 513.911 442.556 512.733 442.443 511.289H440.34V516.043H438.552V504.957H440.34V509.732H442.443C442.528 508.764 442.759 507.916 443.138 507.187C443.53 506.443 444.091 505.868 444.821 505.461C445.55 505.041 446.454 504.83 447.534 504.83C448.712 504.83 449.687 505.076 450.458 505.567C451.23 506.058 451.805 506.731 452.183 507.586C452.562 508.428 452.751 509.402 452.751 510.51C452.751 511.604 452.562 512.579 452.183 513.434C451.805 514.29 451.23 514.963 450.458 515.454C449.687 515.931 448.712 516.169 447.534 516.169ZM447.534 514.591C448.348 514.591 449 514.409 449.491 514.044C449.996 513.68 450.367 513.189 450.606 512.572C450.844 511.955 450.963 511.268 450.963 510.51C450.963 509.753 450.844 509.066 450.606 508.449C450.367 507.832 449.996 507.341 449.491 506.976C449 506.612 448.348 506.429 447.534 506.429C446.735 506.429 446.083 506.612 445.578 506.976C445.087 507.341 444.729 507.832 444.505 508.449C444.281 509.066 444.168 509.753 444.168 510.51C444.168 511.268 444.281 511.955 444.505 512.572C444.729 513.189 445.087 513.68 445.578 514.044C446.083 514.409 446.735 514.591 447.534 514.591ZM453.956 516.064V514.507C454.237 514.507 454.489 514.451 454.714 514.339C454.938 514.213 455.134 514.03 455.303 513.792C455.499 513.512 455.653 513.105 455.765 512.572C455.878 512.039 455.955 511.471 455.997 510.868C456.053 510.195 456.095 509.536 456.123 508.89C456.151 508.231 456.172 507.579 456.186 506.934C456.214 506.289 456.228 505.63 456.228 504.957H463.928V516.043H462.14V506.534H457.974C457.96 507.011 457.939 507.495 457.911 507.986C457.897 508.463 457.876 508.947 457.848 509.437C457.834 509.914 457.813 510.398 457.785 510.889C457.771 511.45 457.715 512.081 457.617 512.782C457.518 513.484 457.308 514.122 456.986 514.697C456.677 515.244 456.298 515.608 455.85 515.791C455.415 515.973 454.784 516.064 453.956 516.064ZM466.738 516.043V504.957H468.568V509.185H471.008C471.667 509.185 472.256 509.241 472.775 509.353C473.308 509.451 473.764 509.627 474.142 509.879C474.521 510.132 474.809 510.475 475.005 510.91C475.215 511.331 475.321 511.871 475.321 512.53C475.321 513.133 475.215 513.659 475.005 514.108C474.795 514.542 474.5 514.907 474.121 515.201C473.743 515.482 473.287 515.692 472.754 515.833C472.235 515.973 471.66 516.043 471.029 516.043H466.738ZM468.568 514.486H469.62C470.11 514.486 470.58 514.472 471.029 514.444C471.492 514.416 471.913 514.346 472.291 514.234C472.67 514.122 472.964 513.939 473.175 513.687C473.399 513.42 473.511 513.056 473.511 512.593C473.511 512.144 473.42 511.801 473.238 511.562C473.07 511.31 472.845 511.127 472.565 511.015C472.284 510.889 471.976 510.812 471.639 510.784C471.317 510.756 470.994 510.742 470.671 510.742H468.568V514.486Z" fill="#003990" fill-opacity="0.5"/>
<path d="M797.722 516.211C796.193 516.211 794.917 515.889 793.893 515.244C792.883 514.584 792.126 513.687 791.621 512.551C791.13 511.401 790.885 510.09 790.885 508.617C790.885 507.158 791.137 505.861 791.642 504.725C792.147 503.575 792.904 502.671 793.914 502.011C794.938 501.338 796.221 501.002 797.764 501.002C798.858 501.002 799.797 501.177 800.583 501.528C801.382 501.864 802.027 502.334 802.518 502.937C803.009 503.54 803.346 504.248 803.528 505.062H801.677C801.466 504.333 801.01 503.751 800.309 503.316C799.622 502.881 798.752 502.664 797.701 502.664C796.523 502.664 795.569 502.944 794.84 503.505C794.124 504.052 793.599 504.774 793.262 505.672C792.925 506.555 792.757 507.516 792.757 508.554C792.757 509.648 792.932 510.651 793.283 511.562C793.634 512.474 794.181 513.203 794.924 513.75C795.667 514.283 796.614 514.549 797.764 514.549C798.465 514.549 799.089 514.451 799.636 514.255C800.197 514.059 800.66 513.778 801.024 513.413C801.403 513.049 801.663 512.628 801.803 512.151H803.801C803.591 512.965 803.212 513.68 802.665 514.297C802.132 514.9 801.452 515.37 800.625 515.706C799.797 516.043 798.83 516.211 797.722 516.211ZM811.016 516.169C809.838 516.169 808.863 515.931 808.092 515.454C807.321 514.963 806.746 514.29 806.367 513.434C805.988 512.579 805.799 511.604 805.799 510.51C805.799 509.402 805.995 508.428 806.388 507.586C806.795 506.731 807.384 506.058 808.155 505.567C808.926 505.076 809.873 504.83 810.995 504.83C811.822 504.83 812.545 504.992 813.162 505.314C813.793 505.623 814.312 506.044 814.719 506.576C815.139 507.109 815.441 507.705 815.623 508.365C815.819 509.024 815.904 509.704 815.876 510.405C815.862 510.531 815.855 510.658 815.855 510.784C815.855 510.91 815.848 511.036 815.833 511.162H807.608C807.664 511.808 807.826 512.39 808.092 512.908C808.358 513.427 808.737 513.841 809.228 514.15C809.719 514.444 810.329 514.591 811.058 514.591C811.423 514.591 811.787 514.549 812.152 514.465C812.531 514.367 812.867 514.206 813.162 513.981C813.47 513.757 813.688 513.455 813.814 513.077H815.644C815.476 513.792 815.16 514.381 814.698 514.844C814.235 515.293 813.681 515.629 813.036 515.854C812.39 516.064 811.717 516.169 811.016 516.169ZM807.65 509.606H814.066C814.052 508.975 813.912 508.421 813.646 507.944C813.379 507.467 813.015 507.095 812.552 506.829C812.103 506.562 811.563 506.429 810.932 506.429C810.245 506.429 809.663 506.576 809.186 506.871C808.723 507.165 808.365 507.551 808.113 508.028C807.861 508.505 807.706 509.031 807.65 509.606ZM818.279 516.043V504.957H820.067V509.816H825.621V504.957H827.409V516.043H825.621V511.394H820.067V516.043H818.279ZM832.823 516.043V506.534H829.015V504.957H838.419V506.534H834.611V516.043H832.823ZM839.32 516.043L842.202 511.667C841.402 511.443 840.771 511.078 840.309 510.573C839.846 510.055 839.614 509.367 839.614 508.512C839.614 507.839 839.713 507.278 839.909 506.829C840.105 506.366 840.393 506.001 840.771 505.735C841.15 505.454 841.606 505.258 842.139 505.146C842.672 505.02 843.282 504.957 843.969 504.957H848.429V516.043H846.641V511.941H844.095L841.402 516.043H839.32ZM845.315 510.384H846.641V506.534H844.263C843.843 506.534 843.457 506.555 843.106 506.597C842.756 506.64 842.454 506.731 842.202 506.871C841.963 506.997 841.774 507.187 841.634 507.439C841.494 507.677 841.424 508.007 841.424 508.428C841.424 508.89 841.536 509.255 841.76 509.522C841.999 509.788 842.3 509.984 842.665 510.111C843.043 510.223 843.464 510.3 843.927 510.342C844.39 510.37 844.853 510.384 845.315 510.384ZM855.922 516.169C855.22 516.169 854.596 516.071 854.049 515.875C853.502 515.664 853.033 515.377 852.64 515.012C852.247 514.634 851.925 514.192 851.672 513.687C851.42 513.168 851.23 512.607 851.104 512.004C850.978 511.401 850.915 510.763 850.915 510.09C850.915 509.01 850.936 508.007 850.978 507.081C851.034 506.142 851.188 505.307 851.441 504.578C851.693 503.835 852.121 503.218 852.724 502.727C853.327 502.236 854.176 501.892 855.269 501.696C855.83 501.598 856.384 501.514 856.931 501.443C857.478 501.373 858.032 501.303 858.593 501.233C858.776 501.205 858.965 501.177 859.161 501.149C859.358 501.121 859.561 501.086 859.771 501.044C859.996 501.002 860.206 500.967 860.402 500.939V502.579C860.248 502.636 860.08 502.685 859.898 502.727C859.729 502.755 859.547 502.783 859.351 502.811C859.168 502.839 858.979 502.86 858.783 502.874C858.6 502.888 858.418 502.909 858.236 502.937C858.053 502.951 857.878 502.972 857.71 503C857.219 503.056 856.7 503.112 856.153 503.168C855.606 503.211 855.087 503.323 854.596 503.505C854.119 503.673 853.713 504.003 853.376 504.494C853.208 504.746 853.061 505.048 852.934 505.398C852.822 505.749 852.738 506.107 852.682 506.471C852.64 506.822 852.612 507.158 852.598 507.481C852.878 507.088 853.222 506.773 853.629 506.534C854.035 506.282 854.47 506.1 854.933 505.987C855.396 505.861 855.837 505.798 856.258 505.798C857.268 505.798 858.123 506.008 858.825 506.429C859.526 506.836 860.059 507.418 860.423 508.175C860.788 508.933 860.97 509.816 860.97 510.826C860.97 511.836 860.774 512.747 860.381 513.561C859.989 514.36 859.414 514.998 858.656 515.475C857.913 515.938 857.001 516.169 855.922 516.169ZM855.964 514.591C856.665 514.591 857.254 514.423 857.731 514.087C858.208 513.75 858.565 513.301 858.804 512.74C859.056 512.179 859.182 511.562 859.182 510.889C859.182 510.23 859.056 509.641 858.804 509.122C858.565 508.589 858.208 508.168 857.731 507.86C857.268 507.551 856.693 507.397 856.006 507.397C855.333 507.397 854.751 507.558 854.26 507.881C853.783 508.203 853.411 508.638 853.145 509.185C852.892 509.718 852.766 510.3 852.766 510.931C852.766 511.576 852.885 512.179 853.124 512.74C853.362 513.301 853.713 513.75 854.176 514.087C854.652 514.423 855.248 514.591 855.964 514.591ZM863.372 520.04V504.957H865.076L865.16 506.661C865.539 506.058 866.051 505.602 866.696 505.293C867.355 504.985 868.063 504.83 868.821 504.83C869.943 504.83 870.861 505.083 871.577 505.588C872.292 506.079 872.818 506.752 873.154 507.607C873.505 508.463 873.68 509.43 873.68 510.51C873.68 511.59 873.505 512.558 873.154 513.413C872.804 514.269 872.264 514.942 871.534 515.433C870.805 515.924 869.873 516.169 868.737 516.169C868.176 516.169 867.671 516.113 867.222 516.001C866.773 515.875 866.38 515.699 866.044 515.475C865.707 515.251 865.413 514.998 865.16 514.718V520.04H863.372ZM868.589 514.591C869.403 514.591 870.048 514.409 870.525 514.044C871.002 513.666 871.345 513.168 871.556 512.551C871.78 511.934 871.892 511.254 871.892 510.51C871.892 509.753 871.78 509.066 871.556 508.449C871.345 507.832 870.995 507.341 870.504 506.976C870.013 506.612 869.361 506.429 868.547 506.429C867.818 506.429 867.194 506.619 866.675 506.997C866.17 507.362 865.784 507.86 865.518 508.491C865.252 509.108 865.118 509.788 865.118 510.531C865.118 511.303 865.244 511.997 865.497 512.614C865.749 513.231 866.135 513.715 866.654 514.066C867.173 514.416 867.818 514.591 868.589 514.591ZM875.986 516.043V504.957H877.816V509.185H880.257C880.916 509.185 881.505 509.241 882.024 509.353C882.557 509.451 883.012 509.627 883.391 509.879C883.77 510.132 884.057 510.475 884.253 510.91C884.464 511.331 884.569 511.871 884.569 512.53C884.569 513.133 884.464 513.659 884.253 514.108C884.043 514.542 883.749 514.907 883.37 515.201C882.991 515.482 882.535 515.692 882.003 515.833C881.484 515.973 880.909 516.043 880.278 516.043H875.986ZM877.816 514.486H878.868C879.359 514.486 879.829 514.472 880.278 514.444C880.74 514.416 881.161 514.346 881.54 514.234C881.918 514.122 882.213 513.939 882.423 513.687C882.648 513.42 882.76 513.056 882.76 512.593C882.76 512.144 882.669 511.801 882.486 511.562C882.318 511.31 882.094 511.127 881.813 511.015C881.533 510.889 881.224 510.812 880.888 510.784C880.565 510.756 880.242 510.742 879.92 510.742H877.816V514.486Z" fill="#003990" fill-opacity="0.5"/>
<path d="M1138.81 516.043V501.17H1140.64V507.902H1148.62V501.17H1150.45V516.043H1148.62V509.585H1140.64V516.043H1138.81ZM1158.52 516.169C1157.35 516.169 1156.38 515.931 1155.59 515.454C1154.81 514.963 1154.22 514.29 1153.83 513.434C1153.45 512.579 1153.26 511.604 1153.26 510.51C1153.26 509.402 1153.45 508.428 1153.83 507.586C1154.22 506.731 1154.81 506.058 1155.59 505.567C1156.38 505.076 1157.37 504.83 1158.56 504.83C1159.72 504.83 1160.69 505.076 1161.46 505.567C1162.25 506.058 1162.83 506.731 1163.21 507.586C1163.6 508.428 1163.8 509.402 1163.8 510.51C1163.8 511.604 1163.6 512.579 1163.21 513.434C1162.82 514.29 1162.23 514.963 1161.44 515.454C1160.67 515.931 1159.69 516.169 1158.52 516.169ZM1158.52 514.591C1159.33 514.591 1159.99 514.409 1160.49 514.044C1161.01 513.68 1161.39 513.189 1161.63 512.572C1161.88 511.955 1162.01 511.268 1162.01 510.51C1162.01 509.753 1161.88 509.066 1161.63 508.449C1161.39 507.832 1161.01 507.341 1160.49 506.976C1159.99 506.612 1159.33 506.429 1158.52 506.429C1157.72 506.429 1157.06 506.612 1156.54 506.976C1156.03 507.341 1155.66 507.832 1155.4 508.449C1155.16 509.066 1155.05 509.753 1155.05 510.51C1155.05 511.268 1155.16 511.955 1155.4 512.572C1155.66 513.189 1156.03 513.68 1156.54 514.044C1157.06 514.409 1157.72 514.591 1158.52 514.591ZM1165.5 516.043L1168.38 511.667C1167.58 511.443 1166.95 511.078 1166.48 510.573C1166.02 510.055 1165.79 509.367 1165.79 508.512C1165.79 507.839 1165.89 507.278 1166.08 506.829C1166.28 506.366 1166.57 506.001 1166.95 505.735C1167.33 505.454 1167.78 505.258 1168.31 505.146C1168.85 505.02 1169.46 504.957 1170.14 504.957H1174.6V516.043H1172.82V511.941H1170.27L1167.58 516.043H1165.5ZM1171.49 510.384H1172.82V506.534H1170.44C1170.02 506.534 1169.63 506.555 1169.28 506.597C1168.93 506.64 1168.63 506.731 1168.38 506.871C1168.14 506.997 1167.95 507.187 1167.81 507.439C1167.67 507.677 1167.6 508.007 1167.6 508.428C1167.6 508.89 1167.71 509.255 1167.94 509.522C1168.17 509.788 1168.48 509.984 1168.84 510.111C1169.22 510.223 1169.64 510.3 1170.1 510.342C1170.57 510.37 1171.03 510.384 1171.49 510.384ZM1182.1 516.169C1181.4 516.169 1180.77 516.071 1180.22 515.875C1179.68 515.664 1179.21 515.377 1178.82 515.012C1178.42 514.634 1178.1 514.192 1177.85 513.687C1177.6 513.168 1177.41 512.607 1177.28 512.004C1177.15 511.401 1177.09 510.763 1177.09 510.09C1177.09 509.01 1177.11 508.007 1177.15 507.081C1177.21 506.142 1177.36 505.307 1177.62 504.578C1177.87 503.835 1178.3 503.218 1178.9 502.727C1179.5 502.236 1180.35 501.892 1181.44 501.696C1182.01 501.598 1182.56 501.514 1183.11 501.443C1183.65 501.373 1184.21 501.303 1184.77 501.233C1184.95 501.205 1185.14 501.177 1185.34 501.149C1185.53 501.121 1185.74 501.086 1185.95 501.044C1186.17 501.002 1186.38 500.967 1186.58 500.939V502.579C1186.42 502.636 1186.26 502.685 1186.07 502.727C1185.9 502.755 1185.72 502.783 1185.53 502.811C1185.34 502.839 1185.15 502.86 1184.96 502.874C1184.78 502.888 1184.59 502.909 1184.41 502.937C1184.23 502.951 1184.05 502.972 1183.89 503C1183.39 503.056 1182.88 503.112 1182.33 503.168C1181.78 503.211 1181.26 503.323 1180.77 503.505C1180.29 503.673 1179.89 504.003 1179.55 504.494C1179.38 504.746 1179.24 505.048 1179.11 505.398C1179 505.749 1178.91 506.107 1178.86 506.471C1178.82 506.822 1178.79 507.158 1178.77 507.481C1179.05 507.088 1179.4 506.773 1179.8 506.534C1180.21 506.282 1180.65 506.1 1181.11 505.987C1181.57 505.861 1182.01 505.798 1182.43 505.798C1183.44 505.798 1184.3 506.008 1185 506.429C1185.7 506.836 1186.23 507.418 1186.6 508.175C1186.96 508.933 1187.15 509.816 1187.15 510.826C1187.15 511.836 1186.95 512.747 1186.56 513.561C1186.16 514.36 1185.59 514.998 1184.83 515.475C1184.09 515.938 1183.18 516.169 1182.1 516.169ZM1182.14 514.591C1182.84 514.591 1183.43 514.423 1183.91 514.087C1184.38 513.75 1184.74 513.301 1184.98 512.74C1185.23 512.179 1185.36 511.562 1185.36 510.889C1185.36 510.23 1185.23 509.641 1184.98 509.122C1184.74 508.589 1184.38 508.168 1183.91 507.86C1183.44 507.551 1182.87 507.397 1182.18 507.397C1181.51 507.397 1180.93 507.558 1180.44 507.881C1179.96 508.203 1179.59 508.638 1179.32 509.185C1179.07 509.718 1178.94 510.3 1178.94 510.931C1178.94 511.576 1179.06 512.179 1179.3 512.74C1179.54 513.301 1179.89 513.75 1180.35 514.087C1180.83 514.423 1181.42 514.591 1182.14 514.591ZM1189.55 520.04V504.957H1191.25L1191.34 506.661C1191.71 506.058 1192.23 505.602 1192.87 505.293C1193.53 504.985 1194.24 504.83 1195 504.83C1196.12 504.83 1197.04 505.083 1197.75 505.588C1198.47 506.079 1198.99 506.752 1199.33 507.607C1199.68 508.463 1199.86 509.43 1199.86 510.51C1199.86 511.59 1199.68 512.558 1199.33 513.413C1198.98 514.269 1198.44 514.942 1197.71 515.433C1196.98 515.924 1196.05 516.169 1194.91 516.169C1194.35 516.169 1193.85 516.113 1193.4 516.001C1192.95 515.875 1192.56 515.699 1192.22 515.475C1191.88 515.251 1191.59 514.998 1191.34 514.718V520.04H1189.55ZM1194.76 514.591C1195.58 514.591 1196.22 514.409 1196.7 514.044C1197.18 513.666 1197.52 513.168 1197.73 512.551C1197.96 511.934 1198.07 511.254 1198.07 510.51C1198.07 509.753 1197.96 509.066 1197.73 508.449C1197.52 507.832 1197.17 507.341 1196.68 506.976C1196.19 506.612 1195.54 506.429 1194.72 506.429C1193.99 506.429 1193.37 506.619 1192.85 506.997C1192.35 507.362 1191.96 507.86 1191.69 508.491C1191.43 509.108 1191.29 509.788 1191.29 510.531C1191.29 511.303 1191.42 511.997 1191.67 512.614C1191.92 513.231 1192.31 513.715 1192.83 514.066C1193.35 514.416 1193.99 514.591 1194.76 514.591ZM1202.16 516.043V504.957H1203.99V509.185H1206.43C1207.09 509.185 1207.68 509.241 1208.2 509.353C1208.73 509.451 1209.19 509.627 1209.57 509.879C1209.94 510.132 1210.23 510.475 1210.43 510.91C1210.64 511.331 1210.74 511.871 1210.74 512.53C1210.74 513.133 1210.64 513.659 1210.43 514.108C1210.22 514.542 1209.92 514.907 1209.55 515.201C1209.17 515.482 1208.71 515.692 1208.18 515.833C1207.66 515.973 1207.08 516.043 1206.45 516.043H1202.16ZM1203.99 514.486H1205.04C1205.53 514.486 1206 514.472 1206.45 514.444C1206.92 514.416 1207.34 514.346 1207.72 514.234C1208.09 514.122 1208.39 513.939 1208.6 513.687C1208.82 513.42 1208.94 513.056 1208.94 512.593C1208.94 512.144 1208.84 511.801 1208.66 511.562C1208.49 511.31 1208.27 511.127 1207.99 511.015C1207.71 510.889 1207.4 510.812 1207.06 510.784C1206.74 510.756 1206.42 510.742 1206.1 510.742H1203.99V514.486Z" fill="#003990" fill-opacity="0.5"/>
<path d="M849.287 297.26C848.425 296.398 847.028 296.398 846.166 297.26L832.121 311.305C831.259 312.167 831.259 313.564 832.121 314.426C832.983 315.288 834.38 315.288 835.242 314.426L847.727 301.941L860.211 314.426C861.073 315.288 862.47 315.288 863.332 314.426C864.194 313.564 864.194 312.167 863.332 311.305L849.287 297.26ZM845.52 330.361V332.568H849.934V330.361H845.52ZM845.52 298.82V330.361H849.934V298.82H845.52Z" fill="#0050C8"/>
<path d="M641.822 45.3438V30.4708H653.519V45.3438H651.689V32.1327H643.653V45.3438H641.822ZM656.768 49.3407V34.2574H658.472L658.556 35.9614C658.935 35.3583 659.447 34.9025 660.092 34.594C660.751 34.2854 661.46 34.1312 662.217 34.1312C663.339 34.1312 664.257 34.3836 664.973 34.8885C665.688 35.3794 666.214 36.0525 666.55 36.908C666.901 37.7635 667.076 38.7312 667.076 39.8111C667.076 40.891 666.901 41.8587 666.55 42.7142C666.2 43.5697 665.66 44.2428 664.931 44.7337C664.201 45.2245 663.269 45.47 662.133 45.47C661.572 45.47 661.067 45.4139 660.618 45.3017C660.169 45.1755 659.777 45.0002 659.44 44.7758C659.103 44.5514 658.809 44.2989 658.556 44.0184V49.3407H656.768ZM661.985 43.8922C662.799 43.8922 663.444 43.7099 663.921 43.3453C664.398 42.9666 664.741 42.4687 664.952 41.8517C665.176 41.2346 665.288 40.5544 665.288 39.8111C665.288 39.0538 665.176 38.3666 664.952 37.7495C664.741 37.1324 664.391 36.6416 663.9 36.2769C663.409 35.9123 662.757 35.73 661.943 35.73C661.214 35.73 660.59 35.9193 660.071 36.298C659.566 36.6626 659.181 37.1605 658.914 37.7916C658.648 38.4086 658.514 39.0888 658.514 39.8321C658.514 40.6035 658.641 41.2977 658.893 41.9148C659.145 42.5318 659.531 43.0157 660.05 43.3663C660.569 43.7169 661.214 43.8922 661.985 43.8922ZM669.382 45.3438V34.2574H671.17V42.7562C671.268 42.5599 671.402 42.3495 671.57 42.1251C671.738 41.8867 671.871 41.7044 671.97 41.5782L677.334 34.2574H679.101V45.3438H677.313V36.8449C677.201 37.0553 677.075 37.2516 676.934 37.4339C676.808 37.6163 676.689 37.7846 676.577 37.9388L671.128 45.3438H669.382ZM681.914 49.3407V34.2574H683.618L683.702 35.9614C684.081 35.3583 684.592 34.9025 685.238 34.594C685.897 34.2854 686.605 34.1312 687.362 34.1312C688.484 34.1312 689.403 34.3836 690.118 34.8885C690.833 35.3794 691.359 36.0525 691.696 36.908C692.046 37.7635 692.222 38.7312 692.222 39.8111C692.222 40.891 692.046 41.8587 691.696 42.7142C691.345 43.5697 690.805 44.2428 690.076 44.7337C689.347 45.2245 688.414 45.47 687.278 45.47C686.717 45.47 686.212 45.4139 685.763 45.3017C685.315 45.1755 684.922 45.0002 684.585 44.7758C684.249 44.5514 683.954 44.2989 683.702 44.0184V49.3407H681.914ZM687.131 43.8922C687.944 43.8922 688.589 43.7099 689.066 43.3453C689.543 42.9666 689.887 42.4687 690.097 41.8517C690.321 41.2346 690.434 40.5544 690.434 39.8111C690.434 39.0538 690.321 38.3666 690.097 37.7495C689.887 37.1324 689.536 36.6416 689.045 36.2769C688.554 35.9123 687.902 35.73 687.089 35.73C686.36 35.73 685.735 35.9193 685.217 36.298C684.712 36.6626 684.326 37.1605 684.06 37.7916C683.793 38.4086 683.66 39.0888 683.66 39.8321C683.66 40.6035 683.786 41.2977 684.038 41.9148C684.291 42.5318 684.677 43.0157 685.196 43.3663C685.714 43.7169 686.36 43.8922 687.131 43.8922ZM699.366 45.47C698.202 45.47 697.227 45.2316 696.442 44.7547C695.657 44.2639 695.068 43.5907 694.675 42.7352C694.296 41.8797 694.107 40.905 694.107 39.8111C694.107 38.7032 694.296 37.7285 694.675 36.887C695.068 36.0315 695.657 35.3583 696.442 34.8675C697.227 34.3766 698.216 34.1312 699.408 34.1312C700.572 34.1312 701.54 34.3766 702.311 34.8675C703.097 35.3583 703.679 36.0315 704.057 36.887C704.45 37.7285 704.646 38.7032 704.646 39.8111C704.646 40.905 704.45 41.8797 704.057 42.7352C703.665 43.5907 703.076 44.2639 702.29 44.7547C701.519 45.2316 700.544 45.47 699.366 45.47ZM699.366 43.8922C700.179 43.8922 700.839 43.7099 701.343 43.3453C701.862 42.9806 702.241 42.4898 702.479 41.8727C702.732 41.2556 702.858 40.5684 702.858 39.8111C702.858 39.0538 702.732 38.3666 702.479 37.7495C702.241 37.1324 701.862 36.6416 701.343 36.2769C700.839 35.9123 700.179 35.73 699.366 35.73C698.567 35.73 697.907 35.9123 697.389 36.2769C696.884 36.6416 696.505 37.1324 696.253 37.7495C696.014 38.3666 695.895 39.0538 695.895 39.8111C695.895 40.5684 696.014 41.2556 696.253 41.8727C696.505 42.4898 696.884 42.9806 697.389 43.3453C697.907 43.7099 698.567 43.8922 699.366 43.8922ZM711.772 45.47C710.608 45.47 709.64 45.2316 708.869 44.7547C708.112 44.2639 707.544 43.5907 707.165 42.7352C706.8 41.8797 706.618 40.912 706.618 39.8321C706.618 38.7803 706.807 37.8266 707.186 36.9711C707.579 36.1016 708.168 35.4144 708.953 34.9095C709.752 34.3906 710.762 34.1312 711.982 34.1312C712.74 34.1312 713.413 34.2574 714.002 34.5098C714.605 34.7623 715.103 35.1339 715.495 35.6248C715.888 36.1016 716.162 36.7047 716.316 37.4339H714.486C714.275 36.8169 713.939 36.3821 713.476 36.1297C713.027 35.8632 712.494 35.73 711.877 35.73C711.036 35.73 710.363 35.9263 709.858 36.319C709.353 36.7117 708.981 37.2236 708.743 37.8547C708.518 38.4718 708.406 39.1309 708.406 39.8321C708.406 40.5614 708.525 41.2346 708.764 41.8517C709.002 42.4687 709.374 42.9666 709.879 43.3453C710.384 43.7099 711.036 43.8922 711.835 43.8922C712.424 43.8922 712.978 43.766 713.497 43.5136C714.03 43.2611 714.381 42.8123 714.549 42.1672H716.4C716.26 42.9245 715.958 43.5486 715.495 44.0395C715.047 44.5303 714.493 44.895 713.834 45.1334C713.188 45.3578 712.501 45.47 711.772 45.47ZM721.254 45.3438V35.8351H717.446V34.2574H726.85V35.8351H723.042V45.3438H721.254ZM646.135 72.47C644.971 72.47 644.003 72.2316 643.232 71.7547C642.475 71.2639 641.907 70.5907 641.528 69.7352C641.163 68.8797 640.981 67.912 640.981 66.8321C640.981 65.7803 641.17 64.8266 641.549 63.9711C641.942 63.1016 642.531 62.4144 643.316 61.9095C644.115 61.3906 645.125 61.1312 646.345 61.1312C647.103 61.1312 647.776 61.2574 648.365 61.5098C648.968 61.7623 649.466 62.1339 649.858 62.6248C650.251 63.1016 650.525 63.7047 650.679 64.4339H648.849C648.638 63.8169 648.302 63.3821 647.839 63.1297C647.39 62.8632 646.857 62.73 646.24 62.73C645.399 62.73 644.725 62.9263 644.221 63.319C643.716 63.7117 643.344 64.2236 643.106 64.8547C642.881 65.4718 642.769 66.1309 642.769 66.8321C642.769 67.5614 642.888 68.2346 643.127 68.8517C643.365 69.4687 643.737 69.9666 644.242 70.3453C644.746 70.7099 645.399 70.8922 646.198 70.8922C646.787 70.8922 647.341 70.766 647.86 70.5136C648.393 70.2611 648.743 69.8123 648.912 69.1672H650.763C650.623 69.9245 650.321 70.5486 649.858 71.0395C649.41 71.5303 648.856 71.895 648.197 72.1334C647.551 72.3578 646.864 72.47 646.135 72.47ZM657.868 72.47C656.704 72.47 655.729 72.2316 654.944 71.7547C654.158 71.2639 653.569 70.5907 653.177 69.7352C652.798 68.8797 652.609 67.905 652.609 66.8111C652.609 65.7032 652.798 64.7285 653.177 63.887C653.569 63.0315 654.158 62.3583 654.944 61.8675C655.729 61.3766 656.718 61.1312 657.91 61.1312C659.074 61.1312 660.042 61.3766 660.813 61.8675C661.598 62.3583 662.18 63.0315 662.559 63.887C662.952 64.7285 663.148 65.7032 663.148 66.8111C663.148 67.905 662.952 68.8797 662.559 69.7352C662.166 70.5907 661.577 71.2639 660.792 71.7547C660.021 72.2316 659.046 72.47 657.868 72.47ZM657.868 70.8922C658.681 70.8922 659.34 70.7099 659.845 70.3453C660.364 69.9806 660.743 69.4898 660.981 68.8727C661.234 68.2556 661.36 67.5684 661.36 66.8111C661.36 66.0538 661.234 65.3666 660.981 64.7495C660.743 64.1324 660.364 63.6416 659.845 63.2769C659.34 62.9123 658.681 62.73 657.868 62.73C657.068 62.73 656.409 62.9123 655.89 63.2769C655.385 63.6416 655.007 64.1324 654.754 64.7495C654.516 65.3666 654.397 66.0538 654.397 66.8111C654.397 67.5684 654.516 68.2556 654.754 68.8727C655.007 69.4898 655.385 69.9806 655.89 70.3453C656.409 70.7099 657.068 70.8922 657.868 70.8922ZM670.416 72.47C669.715 72.47 669.091 72.3718 668.544 72.1755C667.997 71.9651 667.527 71.6776 667.134 71.313C666.742 70.9343 666.419 70.4925 666.167 69.9876C665.914 69.4687 665.725 68.9078 665.599 68.3047C665.472 67.7016 665.409 67.0635 665.409 66.3904C665.409 65.3105 665.43 64.3077 665.472 63.3821C665.529 62.4425 665.683 61.608 665.935 60.8787C666.188 60.1354 666.615 59.5184 667.218 59.0275C667.822 58.5366 668.67 58.193 669.764 57.9967C670.325 57.8985 670.879 57.8144 671.426 57.7443C671.973 57.6741 672.527 57.604 673.088 57.5339C673.27 57.5058 673.459 57.4778 673.656 57.4497C673.852 57.4217 674.055 57.3866 674.266 57.3446C674.49 57.3025 674.701 57.2674 674.897 57.2394V58.8802C674.743 58.9363 674.574 58.9854 674.392 59.0275C674.224 59.0556 674.041 59.0836 673.845 59.1116C673.663 59.1397 673.473 59.1607 673.277 59.1748C673.095 59.1888 672.912 59.2098 672.73 59.2379C672.548 59.2519 672.372 59.2729 672.204 59.301C671.713 59.3571 671.194 59.4132 670.647 59.4693C670.101 59.5113 669.582 59.6235 669.091 59.8059C668.614 59.9742 668.207 60.3037 667.871 60.7946C667.702 61.047 667.555 61.3486 667.429 61.6992C667.317 62.0498 667.233 62.4074 667.176 62.772C667.134 63.1227 667.106 63.4592 667.092 63.7818C667.373 63.3891 667.716 63.0736 668.123 62.8351C668.53 62.5827 668.965 62.4004 669.427 62.2882C669.89 62.162 670.332 62.0989 670.753 62.0989C671.762 62.0989 672.618 62.3092 673.319 62.73C674.02 63.1367 674.553 63.7187 674.918 64.476C675.283 65.2333 675.465 66.1169 675.465 67.1266C675.465 68.1364 675.269 69.048 674.876 69.8614C674.483 70.6608 673.908 71.2989 673.151 71.7758C672.408 72.2386 671.496 72.47 670.416 72.47ZM670.458 70.8922C671.159 70.8922 671.748 70.7239 672.225 70.3873C672.702 70.0507 673.06 69.602 673.298 69.041C673.551 68.48 673.677 67.8629 673.677 67.1898C673.677 66.5306 673.551 65.9416 673.298 65.4227C673.06 64.8897 672.702 64.469 672.225 64.1605C671.762 63.8519 671.187 63.6977 670.5 63.6977C669.827 63.6977 669.245 63.8589 668.754 64.1815C668.277 64.5041 667.906 64.9388 667.639 65.4858C667.387 66.0187 667.261 66.6007 667.261 67.2318C667.261 67.877 667.38 68.48 667.618 69.041C667.857 69.602 668.207 70.0507 668.67 70.3873C669.147 70.7239 669.743 70.8922 670.458 70.8922ZM677.867 72.3438V61.2574H679.655V69.7562C679.753 69.5599 679.886 69.3495 680.054 69.1251C680.223 68.8867 680.356 68.7044 680.454 68.5782L685.819 61.2574H687.586V72.3438H685.798V63.8449C685.685 64.0553 685.559 64.2516 685.419 64.4339C685.293 64.6163 685.173 64.7846 685.061 64.9388L679.613 72.3438H677.867ZM690.398 76.3407V61.2574H692.102L692.186 62.9614C692.565 62.3583 693.077 61.9025 693.722 61.594C694.381 61.2854 695.09 61.1312 695.847 61.1312C696.969 61.1312 697.887 61.3836 698.603 61.8885C699.318 62.3794 699.844 63.0525 700.18 63.908C700.531 64.7635 700.706 65.7312 700.706 66.8111C700.706 67.891 700.531 68.8587 700.18 69.7142C699.83 70.5697 699.29 71.2428 698.561 71.7337C697.831 72.2245 696.899 72.47 695.763 72.47C695.202 72.47 694.697 72.4139 694.248 72.3017C693.799 72.1755 693.407 72.0002 693.07 71.7758C692.733 71.5514 692.439 71.2989 692.186 71.0184V76.3407H690.398ZM695.615 70.8922C696.429 70.8922 697.074 70.7099 697.551 70.3453C698.028 69.9666 698.371 69.4687 698.582 68.8517C698.806 68.2346 698.918 67.5544 698.918 66.8111C698.918 66.0538 698.806 65.3666 698.582 64.7495C698.371 64.1324 698.021 63.6416 697.53 63.2769C697.039 62.9123 696.387 62.73 695.573 62.73C694.844 62.73 694.22 62.9193 693.701 63.298C693.196 63.6626 692.811 64.1605 692.544 64.7916C692.278 65.4086 692.144 66.0888 692.144 66.8321C692.144 67.6035 692.271 68.2977 692.523 68.9148C692.775 69.5318 693.161 70.0157 693.68 70.3663C694.199 70.7169 694.844 70.8922 695.615 70.8922ZM707.409 72.47C706.581 72.47 705.859 72.3297 705.242 72.0492C704.639 71.7547 704.141 71.355 703.748 70.8501C703.356 70.3453 703.061 69.7492 702.865 69.062C702.683 68.3748 702.591 67.6315 702.591 66.8321C702.591 65.7663 702.76 64.8056 703.096 63.9501C703.447 63.0806 704.001 62.3934 704.758 61.8885C705.516 61.3836 706.504 61.1312 707.724 61.1312C708.369 61.1312 708.987 61.2504 709.576 61.4888C710.179 61.7272 710.691 62.0989 711.111 62.6037V61.2574H712.899V72.3438H711.111V70.8501C710.719 71.369 710.2 71.7687 709.555 72.0492C708.909 72.3297 708.194 72.47 707.409 72.47ZM707.703 70.8922C708.433 70.8922 709.05 70.7029 709.555 70.3242C710.059 69.9456 710.445 69.4407 710.712 68.8096C710.992 68.1785 711.132 67.4913 711.132 66.748C711.132 65.9766 710.999 65.2894 710.733 64.6864C710.48 64.0833 710.102 63.6065 709.597 63.2559C709.092 62.9053 708.454 62.73 707.682 62.73C706.883 62.73 706.238 62.9123 705.747 63.2769C705.27 63.6416 704.919 64.1324 704.695 64.7495C704.485 65.3666 704.38 66.0538 704.38 66.8111C704.38 67.5965 704.492 68.2977 704.716 68.9148C704.941 69.5318 705.298 70.0157 705.789 70.3663C706.28 70.7169 706.918 70.8922 707.703 70.8922ZM720.505 72.47C719.326 72.47 718.352 72.2316 717.58 71.7547C716.809 71.2639 716.234 70.5907 715.855 69.7352C715.477 68.8797 715.287 67.905 715.287 66.8111C715.287 65.7032 715.484 64.7285 715.876 63.887C716.283 63.0315 716.872 62.3583 717.644 61.8675C718.415 61.3766 719.362 61.1312 720.483 61.1312C721.311 61.1312 722.033 61.2925 722.65 61.615C723.281 61.9236 723.8 62.3443 724.207 62.8772C724.628 63.4102 724.929 64.0062 725.112 64.6653C725.308 65.3245 725.392 66.0047 725.364 66.7059C725.35 66.8321 725.343 66.9583 725.343 67.0846C725.343 67.2108 725.336 67.337 725.322 67.4632H717.097C717.153 68.1084 717.314 68.6904 717.58 69.2093C717.847 69.7282 718.226 70.1419 718.716 70.4504C719.207 70.745 719.817 70.8922 720.547 70.8922C720.911 70.8922 721.276 70.8501 721.64 70.766C722.019 70.6678 722.356 70.5065 722.65 70.2822C722.959 70.0578 723.176 69.7562 723.302 69.3776H725.133C724.964 70.0928 724.649 70.6818 724.186 71.1447C723.723 71.5934 723.169 71.93 722.524 72.1544C721.879 72.3648 721.206 72.47 720.505 72.47ZM717.139 65.9065H723.555C723.541 65.2754 723.401 64.7214 723.134 64.2446C722.868 63.7678 722.503 63.3961 722.04 63.1297C721.591 62.8632 721.051 62.73 720.42 62.73C719.733 62.73 719.151 62.8772 718.674 63.1717C718.211 63.4663 717.854 63.8519 717.601 64.3288C717.349 64.8056 717.195 65.3315 717.139 65.9065ZM727.767 72.3438V61.2574H730.165L733.763 66.8111L737.297 61.2574H739.653V72.3438H737.886V63.2348L733.973 69.5038H733.468L729.534 63.2348V72.3438H727.767ZM747.315 72.47C746.151 72.47 745.176 72.2316 744.391 71.7547C743.606 71.2639 743.016 70.5907 742.624 69.7352C742.245 68.8797 742.056 67.905 742.056 66.8111C742.056 65.7032 742.245 64.7285 742.624 63.887C743.016 63.0315 743.606 62.3583 744.391 61.8675C745.176 61.3766 746.165 61.1312 747.357 61.1312C748.521 61.1312 749.489 61.3766 750.26 61.8675C751.046 62.3583 751.628 63.0315 752.006 63.887C752.399 64.7285 752.595 65.7032 752.595 66.8111C752.595 67.905 752.399 68.8797 752.006 69.7352C751.613 70.5907 751.024 71.2639 750.239 71.7547C749.468 72.2316 748.493 72.47 747.315 72.47ZM747.315 70.8922C748.128 70.8922 748.788 70.7099 749.292 70.3453C749.811 69.9806 750.19 69.4898 750.428 68.8727C750.681 68.2556 750.807 67.5684 750.807 66.8111C750.807 66.0538 750.681 65.3666 750.428 64.7495C750.19 64.1324 749.811 63.6416 749.292 63.2769C748.788 62.9123 748.128 62.73 747.315 62.73C746.516 62.73 745.856 62.9123 745.338 63.2769C744.833 63.6416 744.454 64.1324 744.202 64.7495C743.963 65.3666 743.844 66.0538 743.844 66.8111C743.844 67.5684 743.963 68.2556 744.202 68.8727C744.454 69.4898 744.833 69.9806 745.338 70.3453C745.856 70.7099 746.516 70.8922 747.315 70.8922ZM759.721 72.47C758.557 72.47 757.589 72.2316 756.818 71.7547C756.061 71.2639 755.493 70.5907 755.114 69.7352C754.749 68.8797 754.567 67.912 754.567 66.8321C754.567 65.7803 754.756 64.8266 755.135 63.9711C755.528 63.1016 756.117 62.4144 756.902 61.9095C757.701 61.3906 758.711 61.1312 759.931 61.1312C760.689 61.1312 761.362 61.2574 761.951 61.5098C762.554 61.7623 763.052 62.1339 763.444 62.6248C763.837 63.1016 764.111 63.7047 764.265 64.4339H762.435C762.224 63.8169 761.888 63.3821 761.425 63.1297C760.976 62.8632 760.443 62.73 759.826 62.73C758.985 62.73 758.311 62.9263 757.807 63.319C757.302 63.7117 756.93 64.2236 756.692 64.8547C756.467 65.4718 756.355 66.1309 756.355 66.8321C756.355 67.5614 756.474 68.2346 756.713 68.8517C756.951 69.4687 757.323 69.9666 757.828 70.3453C758.332 70.7099 758.985 70.8922 759.784 70.8922C760.373 70.8922 760.927 70.766 761.446 70.5136C761.979 70.2611 762.329 69.8123 762.498 69.1672H764.349C764.209 69.9245 763.907 70.5486 763.444 71.0395C762.996 71.5303 762.442 71.895 761.783 72.1334C761.137 72.3578 760.45 72.47 759.721 72.47ZM769.203 72.3438V62.8351H765.395V61.2574H774.799V62.8351H770.991V72.3438H769.203ZM776.394 72.3438V61.2574H778.182V69.7562C778.28 69.5599 778.414 69.3495 778.582 69.1251C778.75 68.8867 778.884 68.7044 778.982 68.5782L784.346 61.2574H786.113V72.3438H784.325V63.8449C784.213 64.0553 784.087 64.2516 783.946 64.4339C783.82 64.6163 783.701 64.7846 783.589 64.9388L778.14 72.3438H776.394ZM794.596 72.3438V61.2574H803.789V72.3438H802.001V62.8351H796.384V72.3438H794.596ZM805.604 72.3648V70.8081C805.885 70.8081 806.137 70.752 806.361 70.6398C806.586 70.5136 806.782 70.3312 806.95 70.0928C807.147 69.8123 807.301 69.4056 807.413 68.8727C807.525 68.3398 807.603 67.7718 807.645 67.1687C807.701 66.4955 807.743 65.8364 807.771 65.1913C807.799 64.5321 807.82 63.88 807.834 63.2348C807.862 62.5897 807.876 61.9306 807.876 61.2574H815.576V72.3438H813.787V62.8351H809.622C809.608 63.312 809.587 63.7958 809.559 64.2867C809.545 64.7635 809.524 65.2474 809.496 65.7382C809.482 66.2151 809.461 66.6989 809.433 67.1898C809.419 67.7507 809.363 68.3818 809.265 69.0831C809.166 69.7843 808.956 70.4224 808.633 70.9974C808.325 71.5444 807.946 71.909 807.497 72.0913C807.063 72.2736 806.432 72.3648 805.604 72.3648ZM822.782 72.47C821.955 72.47 821.232 72.3297 820.615 72.0492C820.012 71.7547 819.514 71.355 819.122 70.8501C818.729 70.3453 818.435 69.7492 818.238 69.062C818.056 68.3748 817.965 67.6315 817.965 66.8321C817.965 65.7663 818.133 64.8056 818.47 63.9501C818.82 63.0806 819.374 62.3934 820.131 61.8885C820.889 61.3836 821.878 61.1312 823.098 61.1312C823.743 61.1312 824.36 61.2504 824.949 61.4888C825.552 61.7272 826.064 62.0989 826.485 62.6037V61.2574H828.273V72.3438H826.485V70.8501C826.092 71.369 825.573 71.7687 824.928 72.0492C824.283 72.3297 823.567 72.47 822.782 72.47ZM823.077 70.8922C823.806 70.8922 824.423 70.7029 824.928 70.3242C825.433 69.9456 825.818 69.4407 826.085 68.8096C826.365 68.1785 826.506 67.4913 826.506 66.748C826.506 65.9766 826.372 65.2894 826.106 64.6864C825.853 64.0833 825.475 63.6065 824.97 63.2559C824.465 62.9053 823.827 62.73 823.056 62.73C822.256 62.73 821.611 62.9123 821.12 63.2769C820.643 63.6416 820.293 64.1324 820.068 64.7495C819.858 65.3666 819.753 66.0538 819.753 66.8111C819.753 67.5965 819.865 68.2977 820.089 68.9148C820.314 69.5318 820.671 70.0157 821.162 70.3663C821.653 70.7169 822.291 70.8922 823.077 70.8922ZM833.669 72.3438V62.8351H829.861V61.2574H839.265V62.8351H835.457V72.3438H833.669ZM845.657 72.47C844.479 72.47 843.504 72.2316 842.732 71.7547C841.961 71.2639 841.386 70.5907 841.007 69.7352C840.629 68.8797 840.439 67.905 840.439 66.8111C840.439 65.7032 840.636 64.7285 841.029 63.887C841.435 63.0315 842.024 62.3583 842.796 61.8675C843.567 61.3766 844.514 61.1312 845.636 61.1312C846.463 61.1312 847.185 61.2925 847.802 61.615C848.433 61.9236 848.952 62.3443 849.359 62.8772C849.78 63.4102 850.081 64.0062 850.264 64.6653C850.46 65.3245 850.544 66.0047 850.516 66.7059C850.502 66.8321 850.495 66.9583 850.495 67.0846C850.495 67.2108 850.488 67.337 850.474 67.4632H842.249C842.305 68.1084 842.466 68.6904 842.732 69.2093C842.999 69.7282 843.378 70.1419 843.868 70.4504C844.359 70.745 844.969 70.8922 845.699 70.8922C846.063 70.8922 846.428 70.8501 846.793 70.766C847.171 70.6678 847.508 70.5065 847.802 70.2822C848.111 70.0578 848.328 69.7562 848.454 69.3776H850.285C850.116 70.0928 849.801 70.6818 849.338 71.1447C848.875 71.5934 848.321 71.93 847.676 72.1544C847.031 72.3648 846.358 72.47 845.657 72.47ZM842.291 65.9065H848.707C848.693 65.2754 848.553 64.7214 848.286 64.2446C848.02 63.7678 847.655 63.3961 847.192 63.1297C846.743 62.8632 846.204 62.73 845.572 62.73C844.885 62.73 844.303 62.8772 843.826 63.1717C843.364 63.4663 843.006 63.8519 842.754 64.3288C842.501 64.8056 842.347 65.3315 842.291 65.9065ZM851.599 72.3438L855.196 66.5376L851.915 61.2574H853.829L856.753 66.0538H858.415V61.2574H860.203V66.0538H861.865L864.789 61.2574H866.703L863.422 66.5376L867.019 72.3438H864.936L862.054 67.5684H860.203V72.3438H858.415V67.5684H856.564L853.682 72.3438H851.599ZM873.308 72.47C872.13 72.47 871.156 72.2316 870.384 71.7547C869.613 71.2639 869.038 70.5907 868.659 69.7352C868.281 68.8797 868.091 67.905 868.091 66.8111C868.091 65.7032 868.288 64.7285 868.68 63.887C869.087 63.0315 869.676 62.3583 870.447 61.8675C871.219 61.3766 872.165 61.1312 873.287 61.1312C874.115 61.1312 874.837 61.2925 875.454 61.615C876.085 61.9236 876.604 62.3443 877.011 62.8772C877.432 63.4102 877.733 64.0062 877.915 64.6653C878.112 65.3245 878.196 66.0047 878.168 66.7059C878.154 66.8321 878.147 66.9583 878.147 67.0846C878.147 67.2108 878.14 67.337 878.126 67.4632H869.9C869.957 68.1084 870.118 68.6904 870.384 69.2093C870.651 69.7282 871.029 70.1419 871.52 70.4504C872.011 70.745 872.621 70.8922 873.35 70.8922C873.715 70.8922 874.08 70.8501 874.444 70.766C874.823 70.6678 875.16 70.5065 875.454 70.2822C875.763 70.0578 875.98 69.7562 876.106 69.3776H877.936C877.768 70.0928 877.453 70.6818 876.99 71.1447C876.527 71.5934 875.973 71.93 875.328 72.1544C874.683 72.3648 874.01 72.47 873.308 72.47ZM869.942 65.9065H876.359C876.345 65.2754 876.204 64.7214 875.938 64.2446C875.671 63.7678 875.307 63.3961 874.844 63.1297C874.395 62.8632 873.855 62.73 873.224 62.73C872.537 62.73 871.955 62.8772 871.478 63.1717C871.015 63.4663 870.658 63.8519 870.405 64.3288C870.153 64.8056 869.999 65.3315 869.942 65.9065ZM880.571 72.3438V61.2574H882.359V69.7562C882.457 69.5599 882.591 69.3495 882.759 69.1251C882.927 68.8867 883.06 68.7044 883.159 68.5782L888.523 61.2574H890.29V72.3438H888.502V63.8449C888.39 64.0553 888.264 64.2516 888.123 64.4339C887.997 64.6163 887.878 64.7846 887.766 64.9388L882.317 72.3438H880.571ZM885.578 59.7007C884.47 59.7007 883.6 59.4623 882.969 58.9854C882.352 58.5086 882.03 57.8144 882.002 56.9028H883.643C883.671 57.3936 883.853 57.7513 884.189 57.9757C884.54 58.2001 885.01 58.3123 885.599 58.3123C886.188 58.3123 886.651 58.2001 886.987 57.9757C887.338 57.7513 887.527 57.3936 887.555 56.9028H889.196C889.182 57.5058 889.028 58.0177 888.733 58.4385C888.439 58.8592 888.025 59.1748 887.492 59.3851C886.959 59.5955 886.321 59.7007 885.578 59.7007Z" fill="#0050C8"/>
<defs>
<filter id="filter0_bd_5688_1106" x="1049.89" y="-34.2463" width="150.539" height="150.543" filterUnits="userSpaceOnUse" color-interpolation-filters="sRGB">
<feFlood flood-opacity="0" result="BackgroundImageFix"/>
<feGaussianBlur in="BackgroundImageFix" stdDeviation="25.4884"/>
<feComposite in2="SourceAlpha" operator="in" result="effect1_backgroundBlur_5688_1106"/>
<feColorMatrix in="SourceAlpha" type="matrix" values="0 0 0 0 0 0 0 0 0 0 0 0 0 0 0 0 0 0 127 0" result="hardAlpha"/>
<feOffset dy="2.54884"/>
<feGaussianBlur stdDeviation="9.3428"/>
<feComposite in2="hardAlpha" operator="out"/>
<feColorMatrix type="matrix" values="0 0 0 0 0 0 0 0 0 0.313726 0 0 0 0 0.784314 0 0 0 0.4 0"/>
<feBlend mode="normal" in2="effect1_backgroundBlur_5688_1106" result="effect2_dropShadow_5688_1106"/>
<feBlend mode="normal" in="SourceGraphic" in2="effect2_dropShadow_5688_1106" result="shape"/>
</filter>
<linearGradient id="paint0_linear_5688_1106" x1="938.635" y1="356.15" x2="323.727" y2="356.15" gradientUnits="userSpaceOnUse">
<stop stop-color="#FAFCFF"/>
<stop offset="1" stop-color="#BAD6FF" stop-opacity="0.5"/>
</linearGradient>
<linearGradient id="paint1_linear_5688_1106" x1="587.462" y1="284.816" x2="1249.36" y2="-14.4758" gradientUnits="userSpaceOnUse">
<stop stop-color="#81E062" stop-opacity="0"/>
<stop offset="1" stop-color="#81E062" stop-opacity="0.5"/>
</linearGradient>
<linearGradient id="paint2_linear_5688_1106" x1="1068.96" y1="4.95563" x2="190.528" y2="502.564" gradientUnits="userSpaceOnUse">
<stop stop-color="#81E062"/>
<stop offset="0.615" stop-color="#81E062"/>
<stop offset="1" stop-color="#0050C8"/>
</linearGradient>
<linearGradient id="paint3_linear_5688_1106" x1="1122.46" y1="59.4336" x2="1122.46" y2="247.761" gradientUnits="userSpaceOnUse">
<stop stop-color="#2F70D2"/>
<stop offset="1" stop-color="#FAFCFF"/>
</linearGradient>
</defs>
</svg>
