<svg width="730" height="294" viewBox="0 0 730 294" fill="none" xmlns="http://www.w3.org/2000/svg">
<path d="M194.084 154.822C148.874 157.857 75.4161 172.819 1 180.017V293.998H729V12.4453C693.049 19.1085 636.885 28.7944 596.171 44.1047C575.661 51.8173 553.489 64.356 544.96 70.8356C507.096 99.6034 495.501 101.456 439.973 110.327L439.337 110.429C396.34 120.298 359.516 123.716 326.513 138.424C317.424 142.475 309.964 148.902 302.908 152.822C292.887 158.39 287.29 159.593 279.303 159.621C265.878 159.668 244.923 160.168 228.892 157.857C217.17 156.698 207.844 153.898 194.084 154.822Z" fill="url(#paint0_linear_5310_21899)"/>
<path d="M194.084 154.822C148.874 157.857 75.4161 172.819 1 180.017V293.998H729V12.4453C693.049 19.1085 636.885 28.7944 596.171 44.1047C575.661 51.8173 553.489 64.356 544.96 70.8356C507.096 99.6034 495.501 101.456 439.973 110.327L439.337 110.429C396.34 120.298 359.516 123.716 326.513 138.424C317.424 142.475 309.964 148.902 302.908 152.822C292.887 158.39 287.29 159.593 279.303 159.621C265.878 159.668 244.923 160.168 228.892 157.857C217.17 156.698 207.844 153.898 194.084 154.822Z" fill="url(#paint1_linear_5310_21899)"/>
<path d="M539.235 212.788C537.709 212.788 536.236 212.615 534.815 212.268C533.428 211.922 532.163 211.402 531.019 210.708C529.875 209.98 528.904 209.062 528.107 207.952C527.309 206.843 526.755 205.526 526.443 204H531.019C531.4 204.971 532.007 205.803 532.839 206.496C533.671 207.19 534.607 207.727 535.647 208.108C536.721 208.455 537.779 208.628 538.819 208.628C540.517 208.628 542.025 208.351 543.343 207.796C544.695 207.242 545.769 206.392 546.567 205.248C547.364 204.07 547.763 202.562 547.763 200.724C547.763 198.194 547 196.252 545.475 194.9C543.949 193.548 541.973 192.872 539.547 192.872C538.091 192.872 536.739 193.132 535.491 193.652C534.277 194.172 533.168 194.883 532.163 195.784H527.483L529.147 175.556H551.143V179.716H533.203L532.163 191.26C533.099 190.498 534.243 189.891 535.595 189.44C536.947 188.955 538.611 188.712 540.587 188.712C542.944 188.712 545.007 189.198 546.775 190.168C548.577 191.139 549.964 192.508 550.935 194.276C551.94 196.01 552.443 198.072 552.443 200.464C552.443 203.03 551.853 205.231 550.675 207.068C549.531 208.906 547.953 210.327 545.943 211.332C543.967 212.303 541.731 212.788 539.235 212.788ZM571.278 212.788C569.752 212.788 568.279 212.615 566.858 212.268C565.471 211.922 564.206 211.402 563.062 210.708C561.918 209.98 560.947 209.062 560.15 207.952C559.352 206.843 558.798 205.526 558.486 204H563.062C563.443 204.971 564.05 205.803 564.882 206.496C565.714 207.19 566.65 207.727 567.69 208.108C568.764 208.455 569.822 208.628 570.862 208.628C572.56 208.628 574.068 208.351 575.386 207.796C576.738 207.242 577.812 206.392 578.61 205.248C579.407 204.07 579.806 202.562 579.806 200.724C579.806 198.194 579.043 196.252 577.518 194.9C575.992 193.548 574.016 192.872 571.59 192.872C570.134 192.872 568.782 193.132 567.534 193.652C566.32 194.172 565.211 194.883 564.206 195.784H559.526L561.19 175.556H583.186V179.716H565.246L564.206 191.26C565.142 190.498 566.286 189.891 567.638 189.44C568.99 188.955 570.654 188.712 572.63 188.712C574.987 188.712 577.05 189.198 578.818 190.168C580.62 191.139 582.007 192.508 582.978 194.276C583.983 196.01 584.486 198.072 584.486 200.464C584.486 203.03 583.896 205.231 582.718 207.068C581.574 208.906 579.996 210.327 577.986 211.332C576.01 212.303 573.774 212.788 571.278 212.788ZM594.533 212.32L617.153 175.556H621.729L599.161 212.32H594.533ZM618.557 212.632C616.893 212.632 615.489 212.268 614.345 211.54C613.235 210.812 612.386 209.842 611.797 208.628C611.207 207.38 610.913 205.994 610.913 204.468C610.913 202.874 611.207 201.47 611.797 200.256C612.386 199.043 613.253 198.09 614.397 197.396C615.541 196.703 616.927 196.356 618.557 196.356C620.151 196.356 621.503 196.703 622.613 197.396C623.722 198.09 624.571 199.043 625.161 200.256C625.75 201.47 626.045 202.874 626.045 204.468C626.045 205.994 625.75 207.38 625.161 208.628C624.571 209.842 623.722 210.812 622.613 211.54C621.503 212.268 620.151 212.632 618.557 212.632ZM618.505 208.94C619.406 208.94 620.117 208.732 620.637 208.316C621.191 207.9 621.573 207.346 621.781 206.652C622.023 205.959 622.145 205.231 622.145 204.468C622.145 203.706 622.023 202.995 621.781 202.336C621.573 201.643 621.191 201.088 620.637 200.672C620.117 200.256 619.406 200.048 618.505 200.048C617.118 200.048 616.13 200.499 615.541 201.4C614.986 202.302 614.709 203.324 614.709 204.468C614.709 205.682 615.003 206.739 615.593 207.64C616.182 208.507 617.153 208.94 618.505 208.94ZM597.965 191.416C596.301 191.416 594.897 191.052 593.753 190.324C592.643 189.596 591.794 188.626 591.205 187.412C590.65 186.164 590.373 184.778 590.373 183.252C590.373 181.658 590.65 180.254 591.205 179.04C591.794 177.827 592.661 176.874 593.805 176.18C594.949 175.487 596.335 175.14 597.965 175.14C599.594 175.14 600.963 175.487 602.073 176.18C603.182 176.874 604.014 177.827 604.569 179.04C605.158 180.254 605.453 181.658 605.453 183.252C605.453 184.778 605.158 186.164 604.569 187.412C604.014 188.626 603.182 189.596 602.073 190.324C600.963 191.052 599.594 191.416 597.965 191.416ZM597.965 187.724C598.866 187.724 599.577 187.516 600.097 187.1C600.617 186.684 600.998 186.13 601.241 185.436C601.483 184.743 601.605 184.015 601.605 183.252C601.605 182.49 601.483 181.779 601.241 181.12C600.998 180.427 600.617 179.872 600.097 179.456C599.577 179.04 598.866 178.832 597.965 178.832C596.578 178.832 595.59 179.283 595.001 180.184C594.411 181.086 594.117 182.108 594.117 183.252C594.117 184.466 594.411 185.523 595.001 186.424C595.59 187.291 596.578 187.724 597.965 187.724Z" fill="#0050C8"/>
<path d="M1 179.774C78.6102 174.904 168.092 150.669 206.358 155.309C331.975 170.54 287.109 144.262 353.239 128.208C496.695 93.3823 490.069 111.056 537.51 75.0656C588.112 36.677 635.332 29.3934 729 12.3047" stroke="url(#paint2_linear_5310_21899)" stroke-width="1.90487"/>
<path d="M1 263.447L729 263.663" stroke="#003990" stroke-opacity="0.5" stroke-width="0.838722"/>
<line x1="659.367" y1="33.2852" x2="659.367" y2="135.632" stroke="url(#paint3_linear_5310_21899)" stroke-dasharray="2 2"/>
<g filter="url(#filter0_bd_5310_21899)">
<path d="M672.415 23.0475C672.415 30.4024 666.453 36.3646 659.098 36.3646C651.744 36.3646 645.781 30.4024 645.781 23.0475C645.781 15.6927 651.744 9.73047 659.098 9.73047C666.453 9.73047 672.415 15.6927 672.415 23.0475Z" fill="#0050C8"/>
</g>
<path d="M23.2806 282.219V274.288H24.7388L27.1618 278.652L29.551 274.288H30.9756V282.219H29.9997V275.275L27.3637 280.155H26.915L24.2565 275.275V282.219H23.2806ZM35.0514 282.286C34.6102 282.286 34.2251 282.211 33.8961 282.062C33.5745 281.905 33.309 281.692 33.0996 281.422C32.8902 281.153 32.7332 280.835 32.6285 280.469C32.5313 280.102 32.4827 279.706 32.4827 279.28C32.4827 278.711 32.5724 278.199 32.7519 277.743C32.9389 277.279 33.2342 276.913 33.6381 276.644C34.0419 276.375 34.5691 276.24 35.2197 276.24C35.5637 276.24 35.8927 276.304 36.2068 276.431C36.5284 276.558 36.8013 276.756 37.0257 277.025V276.307H37.9791V282.219H37.0257V281.422C36.8163 281.699 36.5396 281.912 36.1956 282.062C35.8516 282.211 35.4702 282.286 35.0514 282.286ZM35.2085 281.445C35.5973 281.445 35.9264 281.344 36.1956 281.142C36.4648 280.94 36.6705 280.671 36.8125 280.334C36.9621 279.998 37.0369 279.631 37.0369 279.235C37.0369 278.824 36.9658 278.457 36.8238 278.136C36.6892 277.814 36.4872 277.56 36.218 277.373C35.9488 277.186 35.6086 277.092 35.1973 277.092C34.771 277.092 34.427 277.19 34.1653 277.384C33.911 277.579 33.7241 277.84 33.6044 278.169C33.4922 278.498 33.4361 278.865 33.4361 279.269C33.4361 279.687 33.496 280.061 33.6156 280.39C33.7353 280.719 33.926 280.977 34.1877 281.164C34.4494 281.351 34.7897 281.445 35.2085 281.445ZM39.4768 282.219V276.307H40.4303V280.839C40.4826 280.734 40.5537 280.622 40.6434 280.503C40.7332 280.375 40.8042 280.278 40.8565 280.211L43.7169 276.307H44.6592V282.219H43.7057V277.687C43.6459 277.799 43.5786 277.904 43.5038 278.001C43.4365 278.098 43.3729 278.188 43.3131 278.27L40.4079 282.219H39.4768ZM42.1465 275.477C41.5557 275.477 41.0921 275.35 40.7556 275.096C40.4265 274.842 40.2545 274.471 40.2396 273.985H41.1145C41.1295 274.247 41.2267 274.438 41.4062 274.557C41.5931 274.677 41.8437 274.737 42.1577 274.737C42.4718 274.737 42.7186 274.677 42.8981 274.557C43.085 274.438 43.186 274.247 43.2009 273.985H44.0759C44.0684 274.307 43.9862 274.58 43.8291 274.804C43.6721 275.028 43.4515 275.197 43.1673 275.309C42.8831 275.421 42.5429 275.477 42.1465 275.477Z" fill="#003990" fill-opacity="0.5"/>
<path d="M227.406 282.219V274.288H228.381V280.693L232.633 274.288H233.665V282.219H232.689V275.87L228.426 282.219H227.406ZM240.187 282.286C239.319 282.286 238.665 282.047 238.224 281.568C237.783 281.082 237.532 280.454 237.472 279.684H236.35V282.219H235.397V276.307H236.35V278.854H237.472C237.517 278.338 237.64 277.885 237.842 277.496C238.052 277.1 238.351 276.793 238.74 276.576C239.129 276.352 239.611 276.24 240.187 276.24C240.815 276.24 241.335 276.371 241.746 276.633C242.157 276.894 242.464 277.253 242.666 277.709C242.868 278.158 242.969 278.678 242.969 279.269C242.969 279.852 242.868 280.372 242.666 280.828C242.464 281.284 242.157 281.643 241.746 281.905C241.335 282.159 240.815 282.286 240.187 282.286ZM240.187 281.445C240.621 281.445 240.968 281.348 241.23 281.153C241.499 280.959 241.697 280.697 241.824 280.368C241.952 280.039 242.015 279.672 242.015 279.269C242.015 278.865 241.952 278.498 241.824 278.169C241.697 277.84 241.499 277.579 241.23 277.384C240.968 277.19 240.621 277.092 240.187 277.092C239.761 277.092 239.413 277.19 239.144 277.384C238.882 277.579 238.691 277.84 238.571 278.169C238.452 278.498 238.392 278.865 238.392 279.269C238.392 279.672 238.452 280.039 238.571 280.368C238.691 280.697 238.882 280.959 239.144 281.153C239.413 281.348 239.761 281.445 240.187 281.445ZM243.611 282.23V281.4C243.761 281.4 243.895 281.37 244.015 281.31C244.135 281.243 244.239 281.146 244.329 281.019C244.434 280.869 244.516 280.652 244.576 280.368C244.636 280.084 244.677 279.781 244.699 279.459C244.729 279.1 244.752 278.749 244.766 278.405C244.781 278.053 244.793 277.706 244.8 277.362C244.815 277.018 244.823 276.666 244.823 276.307H248.928V282.219H247.975V277.149H245.754C245.746 277.403 245.735 277.661 245.72 277.923C245.712 278.177 245.701 278.435 245.686 278.697C245.679 278.951 245.668 279.209 245.653 279.471C245.645 279.77 245.615 280.106 245.563 280.48C245.511 280.854 245.398 281.194 245.226 281.501C245.062 281.792 244.86 281.987 244.621 282.084C244.389 282.181 244.052 282.23 243.611 282.23ZM250.426 282.219V276.307H251.402V278.562H252.703C253.055 278.562 253.369 278.592 253.646 278.652C253.93 278.704 254.173 278.797 254.375 278.932C254.577 279.067 254.73 279.25 254.835 279.482C254.947 279.706 255.003 279.994 255.003 280.345C255.003 280.667 254.947 280.947 254.835 281.187C254.723 281.419 254.566 281.613 254.364 281.77C254.162 281.92 253.919 282.032 253.635 282.107C253.358 282.181 253.051 282.219 252.715 282.219H250.426ZM251.402 281.389H251.963C252.225 281.389 252.475 281.381 252.715 281.366C252.961 281.351 253.186 281.314 253.388 281.254C253.59 281.194 253.747 281.097 253.859 280.962C253.979 280.82 254.038 280.626 254.038 280.379C254.038 280.14 253.99 279.957 253.893 279.829C253.803 279.695 253.683 279.598 253.534 279.538C253.384 279.471 253.219 279.429 253.04 279.414C252.868 279.399 252.696 279.392 252.524 279.392H251.402V281.389Z" fill="#003990" fill-opacity="0.5"/>
<path d="M440.747 282.308C439.931 282.308 439.251 282.136 438.705 281.792C438.167 281.441 437.763 280.962 437.494 280.357C437.232 279.743 437.101 279.044 437.101 278.259C437.101 277.481 437.236 276.79 437.505 276.184C437.774 275.571 438.178 275.088 438.716 274.737C439.262 274.378 439.946 274.198 440.769 274.198C441.352 274.198 441.853 274.292 442.272 274.479C442.698 274.658 443.042 274.909 443.304 275.23C443.566 275.552 443.745 275.93 443.843 276.363H442.855C442.743 275.974 442.5 275.664 442.126 275.432C441.76 275.2 441.296 275.085 440.735 275.085C440.107 275.085 439.599 275.234 439.21 275.533C438.828 275.825 438.548 276.21 438.368 276.689C438.189 277.16 438.099 277.672 438.099 278.225C438.099 278.809 438.193 279.343 438.38 279.829C438.567 280.316 438.858 280.704 439.255 280.996C439.651 281.28 440.156 281.422 440.769 281.422C441.143 281.422 441.476 281.37 441.767 281.265C442.066 281.161 442.313 281.011 442.508 280.817C442.71 280.622 442.848 280.398 442.923 280.144H443.988C443.876 280.577 443.674 280.959 443.383 281.288C443.098 281.609 442.736 281.86 442.295 282.039C441.853 282.219 441.337 282.308 440.747 282.308ZM447.835 282.286C447.207 282.286 446.688 282.159 446.276 281.905C445.865 281.643 445.558 281.284 445.356 280.828C445.154 280.372 445.054 279.852 445.054 279.269C445.054 278.678 445.158 278.158 445.368 277.709C445.584 277.253 445.899 276.894 446.31 276.633C446.721 276.371 447.226 276.24 447.824 276.24C448.265 276.24 448.651 276.326 448.98 276.498C449.316 276.662 449.593 276.887 449.81 277.171C450.034 277.455 450.195 277.773 450.292 278.124C450.397 278.476 450.442 278.839 450.427 279.213C450.419 279.28 450.415 279.347 450.415 279.414C450.415 279.482 450.412 279.549 450.404 279.616H446.018C446.048 279.96 446.134 280.271 446.276 280.547C446.418 280.824 446.62 281.045 446.882 281.209C447.144 281.366 447.469 281.445 447.858 281.445C448.052 281.445 448.247 281.422 448.441 281.377C448.643 281.325 448.823 281.239 448.98 281.119C449.144 281 449.26 280.839 449.327 280.637H450.303C450.213 281.019 450.045 281.333 449.798 281.579C449.552 281.819 449.256 281.998 448.912 282.118C448.568 282.23 448.209 282.286 447.835 282.286ZM446.041 278.786H449.462C449.454 278.45 449.38 278.154 449.238 277.9C449.095 277.646 448.901 277.448 448.654 277.306C448.415 277.164 448.127 277.092 447.791 277.092C447.424 277.092 447.114 277.171 446.86 277.328C446.613 277.485 446.422 277.691 446.287 277.945C446.153 278.199 446.071 278.48 446.041 278.786ZM451.708 282.219V276.307H452.662V278.898H455.623V276.307H456.576V282.219H455.623V279.74H452.662V282.219H451.708ZM459.463 282.219V277.149H457.433V276.307H462.447V277.149H460.417V282.219H459.463ZM462.928 282.219L464.464 279.886C464.038 279.766 463.702 279.571 463.455 279.302C463.208 279.026 463.085 278.659 463.085 278.203C463.085 277.844 463.137 277.545 463.242 277.306C463.346 277.059 463.5 276.864 463.702 276.722C463.904 276.573 464.147 276.468 464.431 276.408C464.715 276.341 465.04 276.307 465.407 276.307H467.785V282.219H466.831V280.031H465.474L464.038 282.219H462.928ZM466.125 279.201H466.831V277.149H465.564C465.339 277.149 465.134 277.16 464.947 277.182C464.76 277.205 464.599 277.253 464.464 277.328C464.337 277.395 464.236 277.496 464.162 277.631C464.087 277.758 464.049 277.934 464.049 278.158C464.049 278.405 464.109 278.599 464.229 278.741C464.356 278.883 464.517 278.988 464.711 279.055C464.913 279.115 465.137 279.156 465.384 279.179C465.631 279.194 465.878 279.201 466.125 279.201ZM471.78 282.286C471.406 282.286 471.073 282.234 470.782 282.129C470.49 282.017 470.24 281.864 470.03 281.669C469.821 281.467 469.649 281.232 469.514 280.962C469.38 280.686 469.279 280.387 469.211 280.065C469.144 279.743 469.11 279.403 469.11 279.044C469.11 278.468 469.122 277.934 469.144 277.44C469.174 276.939 469.256 276.494 469.391 276.105C469.525 275.709 469.753 275.38 470.075 275.118C470.397 274.856 470.849 274.673 471.432 274.569C471.731 274.516 472.027 274.471 472.318 274.434C472.61 274.397 472.906 274.359 473.205 274.322C473.302 274.307 473.403 274.292 473.507 274.277C473.612 274.262 473.721 274.243 473.833 274.221C473.952 274.198 474.065 274.18 474.169 274.165V275.04C474.087 275.07 473.997 275.096 473.9 275.118C473.81 275.133 473.713 275.148 473.608 275.163C473.511 275.178 473.41 275.189 473.306 275.197C473.208 275.204 473.111 275.215 473.014 275.23C472.917 275.238 472.823 275.249 472.734 275.264C472.472 275.294 472.195 275.324 471.903 275.354C471.612 275.376 471.335 275.436 471.073 275.533C470.819 275.623 470.602 275.799 470.423 276.06C470.333 276.195 470.254 276.356 470.187 276.543C470.127 276.73 470.082 276.92 470.053 277.115C470.03 277.302 470.015 277.481 470.008 277.653C470.157 277.444 470.34 277.276 470.557 277.149C470.774 277.014 471.006 276.917 471.253 276.857C471.5 276.79 471.735 276.756 471.96 276.756C472.498 276.756 472.954 276.868 473.328 277.092C473.702 277.309 473.986 277.62 474.181 278.023C474.375 278.427 474.472 278.898 474.472 279.437C474.472 279.975 474.367 280.461 474.158 280.895C473.949 281.321 473.642 281.662 473.238 281.916C472.842 282.163 472.356 282.286 471.78 282.286ZM471.802 281.445C472.176 281.445 472.49 281.355 472.745 281.176C472.999 280.996 473.19 280.757 473.317 280.458C473.451 280.159 473.519 279.829 473.519 279.471C473.519 279.119 473.451 278.805 473.317 278.528C473.19 278.244 472.999 278.02 472.745 277.855C472.498 277.691 472.191 277.608 471.825 277.608C471.466 277.608 471.156 277.694 470.894 277.866C470.64 278.038 470.441 278.27 470.299 278.562C470.165 278.846 470.097 279.156 470.097 279.493C470.097 279.837 470.161 280.159 470.288 280.458C470.415 280.757 470.602 280.996 470.849 281.176C471.103 281.355 471.421 281.445 471.802 281.445ZM475.753 284.35V276.307H476.661L476.706 277.216C476.908 276.894 477.181 276.651 477.525 276.487C477.877 276.322 478.254 276.24 478.658 276.24C479.256 276.24 479.746 276.375 480.128 276.644C480.509 276.906 480.789 277.264 480.969 277.721C481.156 278.177 481.249 278.693 481.249 279.269C481.249 279.844 481.156 280.36 480.969 280.817C480.782 281.273 480.494 281.632 480.105 281.893C479.716 282.155 479.219 282.286 478.613 282.286C478.314 282.286 478.045 282.256 477.806 282.196C477.566 282.129 477.357 282.036 477.177 281.916C476.998 281.796 476.841 281.662 476.706 281.512V284.35H475.753ZM478.535 281.445C478.968 281.445 479.312 281.348 479.567 281.153C479.821 280.951 480.004 280.686 480.116 280.357C480.236 280.028 480.296 279.665 480.296 279.269C480.296 278.865 480.236 278.498 480.116 278.169C480.004 277.84 479.817 277.579 479.556 277.384C479.294 277.19 478.946 277.092 478.512 277.092C478.123 277.092 477.791 277.193 477.514 277.395C477.245 277.59 477.039 277.855 476.897 278.192C476.755 278.521 476.684 278.883 476.684 279.28C476.684 279.691 476.751 280.061 476.886 280.39C477.02 280.719 477.226 280.977 477.503 281.164C477.779 281.351 478.123 281.445 478.535 281.445ZM482.479 282.219V276.307H483.455V278.562H484.756C485.107 278.562 485.422 278.592 485.698 278.652C485.982 278.704 486.225 278.797 486.427 278.932C486.629 279.067 486.783 279.25 486.887 279.482C486.999 279.706 487.055 279.994 487.055 280.345C487.055 280.667 486.999 280.947 486.887 281.187C486.775 281.419 486.618 281.613 486.416 281.77C486.214 281.92 485.971 282.032 485.687 282.107C485.41 282.181 485.104 282.219 484.767 282.219H482.479ZM483.455 281.389H484.016C484.277 281.389 484.528 281.381 484.767 281.366C485.014 281.351 485.238 281.314 485.44 281.254C485.642 281.194 485.799 281.097 485.911 280.962C486.031 280.82 486.091 280.626 486.091 280.379C486.091 280.14 486.042 279.957 485.945 279.829C485.855 279.695 485.736 279.598 485.586 279.538C485.436 279.471 485.272 279.429 485.092 279.414C484.92 279.399 484.748 279.392 484.576 279.392H483.455V281.389Z" fill="#003990" fill-opacity="0.5"/>
<path d="M668.663 282.219V274.288H669.639V277.878H673.891V274.288H674.867V282.219H673.891V278.775H669.639V282.219H668.663ZM679.169 282.286C678.548 282.286 678.029 282.159 677.61 281.905C677.191 281.643 676.877 281.284 676.668 280.828C676.466 280.372 676.365 279.852 676.365 279.269C676.365 278.678 676.466 278.158 676.668 277.709C676.877 277.253 677.191 276.894 677.61 276.633C678.029 276.371 678.556 276.24 679.191 276.24C679.812 276.24 680.328 276.371 680.739 276.633C681.158 276.894 681.469 277.253 681.671 277.709C681.88 278.158 681.985 278.678 681.985 279.269C681.985 279.852 681.88 280.372 681.671 280.828C681.461 281.284 681.147 281.643 680.728 281.905C680.317 282.159 679.797 282.286 679.169 282.286ZM679.169 281.445C679.603 281.445 679.954 281.348 680.223 281.153C680.5 280.959 680.702 280.697 680.829 280.368C680.964 280.039 681.031 279.672 681.031 279.269C681.031 278.865 680.964 278.498 680.829 278.169C680.702 277.84 680.5 277.579 680.223 277.384C679.954 277.19 679.603 277.092 679.169 277.092C678.743 277.092 678.391 277.19 678.115 277.384C677.845 277.579 677.644 277.84 677.509 278.169C677.382 278.498 677.318 278.865 677.318 279.269C677.318 279.672 677.382 280.039 677.509 280.368C677.644 280.697 677.845 280.959 678.115 281.153C678.391 281.348 678.743 281.445 679.169 281.445ZM682.89 282.219L684.427 279.886C684.001 279.766 683.664 279.571 683.417 279.302C683.171 279.026 683.047 278.659 683.047 278.203C683.047 277.844 683.1 277.545 683.204 277.306C683.309 277.059 683.462 276.864 683.664 276.722C683.866 276.573 684.109 276.468 684.393 276.408C684.677 276.341 685.003 276.307 685.369 276.307H687.747V282.219H686.794V280.031H685.436L684.001 282.219H682.89ZM686.087 279.201H686.794V277.149H685.526C685.302 277.149 685.096 277.16 684.909 277.182C684.722 277.205 684.561 277.253 684.427 277.328C684.3 277.395 684.199 277.496 684.124 277.631C684.049 277.758 684.012 277.934 684.012 278.158C684.012 278.405 684.072 278.599 684.191 278.741C684.318 278.883 684.479 278.988 684.674 279.055C684.876 279.115 685.1 279.156 685.347 279.179C685.593 279.194 685.84 279.201 686.087 279.201ZM691.743 282.286C691.369 282.286 691.036 282.234 690.744 282.129C690.453 282.017 690.202 281.864 689.993 281.669C689.783 281.467 689.611 281.232 689.477 280.962C689.342 280.686 689.241 280.387 689.174 280.065C689.107 279.743 689.073 279.403 689.073 279.044C689.073 278.468 689.084 277.934 689.107 277.44C689.136 276.939 689.219 276.494 689.353 276.105C689.488 275.709 689.716 275.38 690.038 275.118C690.359 274.856 690.812 274.673 691.395 274.569C691.694 274.516 691.989 274.471 692.281 274.434C692.573 274.397 692.868 274.359 693.167 274.322C693.264 274.307 693.365 274.292 693.47 274.277C693.575 274.262 693.683 274.243 693.795 274.221C693.915 274.198 694.027 274.18 694.132 274.165V275.04C694.05 275.07 693.96 275.096 693.863 275.118C693.773 275.133 693.676 275.148 693.571 275.163C693.474 275.178 693.373 275.189 693.268 275.197C693.171 275.204 693.074 275.215 692.976 275.23C692.879 275.238 692.786 275.249 692.696 275.264C692.434 275.294 692.158 275.324 691.866 275.354C691.574 275.376 691.298 275.436 691.036 275.533C690.782 275.623 690.565 275.799 690.385 276.06C690.296 276.195 690.217 276.356 690.15 276.543C690.09 276.73 690.045 276.92 690.015 277.115C689.993 277.302 689.978 277.481 689.97 277.653C690.12 277.444 690.303 277.276 690.52 277.149C690.737 277.014 690.969 276.917 691.215 276.857C691.462 276.79 691.698 276.756 691.922 276.756C692.46 276.756 692.917 276.868 693.291 277.092C693.664 277.309 693.949 277.62 694.143 278.023C694.337 278.427 694.435 278.898 694.435 279.437C694.435 279.975 694.33 280.461 694.121 280.895C693.911 281.321 693.605 281.662 693.201 281.916C692.804 282.163 692.318 282.286 691.743 282.286ZM691.765 281.445C692.139 281.445 692.453 281.355 692.707 281.176C692.961 280.996 693.152 280.757 693.279 280.458C693.414 280.159 693.481 279.829 693.481 279.471C693.481 279.119 693.414 278.805 693.279 278.528C693.152 278.244 692.961 278.02 692.707 277.855C692.46 277.691 692.154 277.608 691.787 277.608C691.428 277.608 691.118 277.694 690.856 277.866C690.602 278.038 690.404 278.27 690.262 278.562C690.127 278.846 690.06 279.156 690.06 279.493C690.06 279.837 690.124 280.159 690.251 280.458C690.378 280.757 690.565 280.996 690.812 281.176C691.066 281.355 691.384 281.445 691.765 281.445ZM695.715 284.35V276.307H696.624L696.669 277.216C696.871 276.894 697.144 276.651 697.488 276.487C697.839 276.322 698.217 276.24 698.621 276.24C699.219 276.24 699.709 276.375 700.09 276.644C700.472 276.906 700.752 277.264 700.931 277.721C701.118 278.177 701.212 278.693 701.212 279.269C701.212 279.844 701.118 280.36 700.931 280.817C700.744 281.273 700.457 281.632 700.068 281.893C699.679 282.155 699.182 282.286 698.576 282.286C698.277 282.286 698.007 282.256 697.768 282.196C697.529 282.129 697.319 282.036 697.14 281.916C696.961 281.796 696.803 281.662 696.669 281.512V284.35H695.715ZM698.497 281.445C698.931 281.445 699.275 281.348 699.529 281.153C699.784 280.951 699.967 280.686 700.079 280.357C700.199 280.028 700.258 279.665 700.258 279.269C700.258 278.865 700.199 278.498 700.079 278.169C699.967 277.84 699.78 277.579 699.518 277.384C699.256 277.19 698.909 277.092 698.475 277.092C698.086 277.092 697.753 277.193 697.477 277.395C697.207 277.59 697.002 277.855 696.86 278.192C696.717 278.521 696.646 278.883 696.646 279.28C696.646 279.691 696.714 280.061 696.848 280.39C696.983 280.719 697.189 280.977 697.465 281.164C697.742 281.351 698.086 281.445 698.497 281.445ZM702.441 282.219V276.307H703.417V278.562H704.718C705.07 278.562 705.384 278.592 705.661 278.652C705.945 278.704 706.188 278.797 706.39 278.932C706.592 279.067 706.745 279.25 706.85 279.482C706.962 279.706 707.018 279.994 707.018 280.345C707.018 280.667 706.962 280.947 706.85 281.187C706.738 281.419 706.581 281.613 706.379 281.77C706.177 281.92 705.934 282.032 705.649 282.107C705.373 282.181 705.066 282.219 704.73 282.219H702.441ZM703.417 281.389H703.978C704.24 281.389 704.49 281.381 704.73 281.366C704.976 281.351 705.201 281.314 705.403 281.254C705.605 281.194 705.762 281.097 705.874 280.962C705.993 280.82 706.053 280.626 706.053 280.379C706.053 280.14 706.005 279.957 705.907 279.829C705.818 279.695 705.698 279.598 705.549 279.538C705.399 279.471 705.234 279.429 705.055 279.414C704.883 279.399 704.711 279.392 704.539 279.392H703.417V281.389Z" fill="#003990" fill-opacity="0.5"/>
<path d="M509.778 172.191C509.309 171.723 508.55 171.723 508.082 172.191L500.449 179.824C499.98 180.292 499.98 181.052 500.449 181.52C500.917 181.988 501.677 181.988 502.145 181.52L508.93 174.735L515.714 181.52C516.183 181.988 516.942 181.988 517.411 181.52C517.879 181.052 517.879 180.292 517.411 179.824L509.778 172.191ZM507.73 190.18V191.379H510.129V190.18H507.73ZM507.73 173.039V190.18H510.129V173.039H507.73Z" fill="#0050C8"/>
<path d="M3.044 21V12.516H9.716V21H8.672V13.464H4.088V21H3.044ZM11.5696 23.28V14.676H12.5416L12.5896 15.648C12.8056 15.304 13.0976 15.044 13.4656 14.868C13.8416 14.692 14.2456 14.604 14.6776 14.604C15.3176 14.604 15.8416 14.748 16.2496 15.036C16.6576 15.316 16.9576 15.7 17.1496 16.188C17.3496 16.676 17.4496 17.228 17.4496 17.844C17.4496 18.46 17.3496 19.012 17.1496 19.5C16.9496 19.988 16.6416 20.372 16.2256 20.652C15.8096 20.932 15.2776 21.072 14.6296 21.072C14.3096 21.072 14.0216 21.04 13.7656 20.976C13.5096 20.904 13.2856 20.804 13.0936 20.676C12.9016 20.548 12.7336 20.404 12.5896 20.244V23.28H11.5696ZM14.5456 20.172C15.0096 20.172 15.3776 20.068 15.6496 19.86C15.9216 19.644 16.1176 19.36 16.2376 19.008C16.3656 18.656 16.4296 18.268 16.4296 17.844C16.4296 17.412 16.3656 17.02 16.2376 16.668C16.1176 16.316 15.9176 16.036 15.6376 15.828C15.3576 15.62 14.9856 15.516 14.5216 15.516C14.1056 15.516 13.7496 15.624 13.4536 15.84C13.1656 16.048 12.9456 16.332 12.7936 16.692C12.6416 17.044 12.5656 17.432 12.5656 17.856C12.5656 18.296 12.6376 18.692 12.7816 19.044C12.9256 19.396 13.1456 19.672 13.4416 19.872C13.7376 20.072 14.1056 20.172 14.5456 20.172ZM18.7649 21V14.676H19.7849V19.524C19.8409 19.412 19.9169 19.292 20.0129 19.164C20.1089 19.028 20.1849 18.924 20.2409 18.852L23.3009 14.676H24.3089V21H23.2889V16.152C23.2249 16.272 23.1529 16.384 23.0729 16.488C23.0009 16.592 22.9329 16.688 22.8689 16.776L19.7609 21H18.7649ZM25.9134 23.28V14.676H26.8854L26.9334 15.648C27.1494 15.304 27.4414 15.044 27.8094 14.868C28.1854 14.692 28.5894 14.604 29.0214 14.604C29.6614 14.604 30.1854 14.748 30.5934 15.036C31.0014 15.316 31.3014 15.7 31.4934 16.188C31.6934 16.676 31.7934 17.228 31.7934 17.844C31.7934 18.46 31.6934 19.012 31.4934 19.5C31.2934 19.988 30.9854 20.372 30.5694 20.652C30.1534 20.932 29.6214 21.072 28.9734 21.072C28.6534 21.072 28.3654 21.04 28.1094 20.976C27.8534 20.904 27.6294 20.804 27.4374 20.676C27.2454 20.548 27.0774 20.404 26.9334 20.244V23.28H25.9134ZM28.8894 20.172C29.3534 20.172 29.7214 20.068 29.9934 19.86C30.2654 19.644 30.4614 19.36 30.5814 19.008C30.7094 18.656 30.7734 18.268 30.7734 17.844C30.7734 17.412 30.7094 17.02 30.5814 16.668C30.4614 16.316 30.2614 16.036 29.9814 15.828C29.7014 15.62 29.3294 15.516 28.8654 15.516C28.4494 15.516 28.0934 15.624 27.7974 15.84C27.5094 16.048 27.2894 16.332 27.1374 16.692C26.9854 17.044 26.9094 17.432 26.9094 17.856C26.9094 18.296 26.9814 18.692 27.1254 19.044C27.2694 19.396 27.4894 19.672 27.7854 19.872C28.0814 20.072 28.4494 20.172 28.8894 20.172ZM35.8687 21.072C35.2047 21.072 34.6487 20.936 34.2007 20.664C33.7527 20.384 33.4167 20 33.1927 19.512C32.9767 19.024 32.8687 18.468 32.8687 17.844C32.8687 17.212 32.9767 16.656 33.1927 16.176C33.4167 15.688 33.7527 15.304 34.2007 15.024C34.6487 14.744 35.2127 14.604 35.8927 14.604C36.5567 14.604 37.1087 14.744 37.5487 15.024C37.9967 15.304 38.3287 15.688 38.5447 16.176C38.7687 16.656 38.8807 17.212 38.8807 17.844C38.8807 18.468 38.7687 19.024 38.5447 19.512C38.3207 20 37.9847 20.384 37.5367 20.664C37.0967 20.936 36.5407 21.072 35.8687 21.072ZM35.8687 20.172C36.3327 20.172 36.7087 20.068 36.9967 19.86C37.2927 19.652 37.5087 19.372 37.6447 19.02C37.7887 18.668 37.8607 18.276 37.8607 17.844C37.8607 17.412 37.7887 17.02 37.6447 16.668C37.5087 16.316 37.2927 16.036 36.9967 15.828C36.7087 15.62 36.3327 15.516 35.8687 15.516C35.4127 15.516 35.0367 15.62 34.7407 15.828C34.4527 16.036 34.2367 16.316 34.0927 16.668C33.9567 17.02 33.8887 17.412 33.8887 17.844C33.8887 18.276 33.9567 18.668 34.0927 19.02C34.2367 19.372 34.4527 19.652 34.7407 19.86C35.0367 20.068 35.4127 20.172 35.8687 20.172ZM42.9454 21.072C42.2814 21.072 41.7294 20.936 41.2894 20.664C40.8574 20.384 40.5334 20 40.3174 19.512C40.1094 19.024 40.0054 18.472 40.0054 17.856C40.0054 17.256 40.1134 16.712 40.3294 16.224C40.5534 15.728 40.8894 15.336 41.3374 15.048C41.7934 14.752 42.3694 14.604 43.0654 14.604C43.4974 14.604 43.8814 14.676 44.2174 14.82C44.5614 14.964 44.8454 15.176 45.0694 15.456C45.2934 15.728 45.4494 16.072 45.5374 16.488H44.4934C44.3734 16.136 44.1814 15.888 43.9174 15.744C43.6614 15.592 43.3574 15.516 43.0054 15.516C42.5254 15.516 42.1414 15.628 41.8534 15.852C41.5654 16.076 41.3534 16.368 41.2174 16.728C41.0894 17.08 41.0254 17.456 41.0254 17.856C41.0254 18.272 41.0934 18.656 41.2294 19.008C41.3654 19.36 41.5774 19.644 41.8654 19.86C42.1534 20.068 42.5254 20.172 42.9814 20.172C43.3174 20.172 43.6334 20.1 43.9294 19.956C44.2334 19.812 44.4334 19.556 44.5294 19.188H45.5854C45.5054 19.62 45.3334 19.976 45.0694 20.256C44.8134 20.536 44.4974 20.744 44.1214 20.88C43.7534 21.008 43.3614 21.072 42.9454 21.072ZM48.3542 21V15.576H46.1822V14.676H51.5462V15.576H49.3742V21H48.3542ZM5.504 36.072C4.84 36.072 4.288 35.936 3.848 35.664C3.416 35.384 3.092 35 2.876 34.512C2.668 34.024 2.564 33.472 2.564 32.856C2.564 32.256 2.672 31.712 2.888 31.224C3.112 30.728 3.448 30.336 3.896 30.048C4.352 29.752 4.928 29.604 5.624 29.604C6.056 29.604 6.44 29.676 6.776 29.82C7.12 29.964 7.404 30.176 7.628 30.456C7.852 30.728 8.008 31.072 8.096 31.488H7.052C6.932 31.136 6.74 30.888 6.476 30.744C6.22 30.592 5.916 30.516 5.564 30.516C5.084 30.516 4.7 30.628 4.412 30.852C4.124 31.076 3.912 31.368 3.776 31.728C3.648 32.08 3.584 32.456 3.584 32.856C3.584 33.272 3.652 33.656 3.788 34.008C3.924 34.36 4.136 34.644 4.424 34.86C4.712 35.068 5.084 35.172 5.54 35.172C5.876 35.172 6.192 35.1 6.488 34.956C6.792 34.812 6.992 34.556 7.088 34.188H8.144C8.064 34.62 7.892 34.976 7.628 35.256C7.372 35.536 7.056 35.744 6.68 35.88C6.312 36.008 5.92 36.072 5.504 36.072ZM12.1968 36.072C11.5328 36.072 10.9768 35.936 10.5288 35.664C10.0808 35.384 9.74481 35 9.52081 34.512C9.30481 34.024 9.19681 33.468 9.19681 32.844C9.19681 32.212 9.30481 31.656 9.52081 31.176C9.74481 30.688 10.0808 30.304 10.5288 30.024C10.9768 29.744 11.5408 29.604 12.2208 29.604C12.8848 29.604 13.4368 29.744 13.8768 30.024C14.3248 30.304 14.6568 30.688 14.8728 31.176C15.0968 31.656 15.2088 32.212 15.2088 32.844C15.2088 33.468 15.0968 34.024 14.8728 34.512C14.6488 35 14.3128 35.384 13.8648 35.664C13.4248 35.936 12.8688 36.072 12.1968 36.072ZM12.1968 35.172C12.6608 35.172 13.0368 35.068 13.3248 34.86C13.6208 34.652 13.8368 34.372 13.9728 34.02C14.1168 33.668 14.1888 33.276 14.1888 32.844C14.1888 32.412 14.1168 32.02 13.9728 31.668C13.8368 31.316 13.6208 31.036 13.3248 30.828C13.0368 30.62 12.6608 30.516 12.1968 30.516C11.7408 30.516 11.3648 30.62 11.0688 30.828C10.7808 31.036 10.5648 31.316 10.4208 31.668C10.2848 32.02 10.2168 32.412 10.2168 32.844C10.2168 33.276 10.2848 33.668 10.4208 34.02C10.5648 34.372 10.7808 34.652 11.0688 34.86C11.3648 35.068 11.7408 35.172 12.1968 35.172ZM19.3547 36.072C18.9547 36.072 18.5987 36.016 18.2867 35.904C17.9747 35.784 17.7067 35.62 17.4827 35.412C17.2587 35.196 17.0747 34.944 16.9307 34.656C16.7867 34.36 16.6787 34.04 16.6067 33.696C16.5347 33.352 16.4987 32.988 16.4987 32.604C16.4987 31.988 16.5107 31.416 16.5347 30.888C16.5667 30.352 16.6547 29.876 16.7987 29.46C16.9427 29.036 17.1867 28.684 17.5307 28.404C17.8747 28.124 18.3587 27.928 18.9827 27.816C19.3027 27.76 19.6187 27.712 19.9307 27.672C20.2427 27.632 20.5587 27.592 20.8787 27.552C20.9827 27.536 21.0907 27.52 21.2027 27.504C21.3147 27.488 21.4307 27.468 21.5507 27.444C21.6787 27.42 21.7987 27.4 21.9107 27.384V28.32C21.8227 28.352 21.7267 28.38 21.6227 28.404C21.5267 28.42 21.4227 28.436 21.3107 28.452C21.2067 28.468 21.0987 28.48 20.9867 28.488C20.8827 28.496 20.7787 28.508 20.6747 28.524C20.5707 28.532 20.4707 28.544 20.3747 28.56C20.0947 28.592 19.7987 28.624 19.4867 28.656C19.1747 28.68 18.8787 28.744 18.5987 28.848C18.3267 28.944 18.0947 29.132 17.9027 29.412C17.8067 29.556 17.7227 29.728 17.6507 29.928C17.5867 30.128 17.5387 30.332 17.5067 30.54C17.4827 30.74 17.4667 30.932 17.4587 31.116C17.6187 30.892 17.8147 30.712 18.0467 30.576C18.2787 30.432 18.5267 30.328 18.7907 30.264C19.0547 30.192 19.3067 30.156 19.5467 30.156C20.1227 30.156 20.6107 30.276 21.0107 30.516C21.4107 30.748 21.7147 31.08 21.9227 31.512C22.1307 31.944 22.2347 32.448 22.2347 33.024C22.2347 33.6 22.1227 34.12 21.8987 34.584C21.6747 35.04 21.3467 35.404 20.9147 35.676C20.4907 35.94 19.9707 36.072 19.3547 36.072ZM19.3787 35.172C19.7787 35.172 20.1147 35.076 20.3867 34.884C20.6587 34.692 20.8627 34.436 20.9987 34.116C21.1427 33.796 21.2147 33.444 21.2147 33.06C21.2147 32.684 21.1427 32.348 20.9987 32.052C20.8627 31.748 20.6587 31.508 20.3867 31.332C20.1227 31.156 19.7947 31.068 19.4027 31.068C19.0187 31.068 18.6867 31.16 18.4067 31.344C18.1347 31.528 17.9227 31.776 17.7707 32.088C17.6267 32.392 17.5547 32.724 17.5547 33.084C17.5547 33.452 17.6227 33.796 17.7587 34.116C17.8947 34.436 18.0947 34.692 18.3587 34.884C18.6307 35.076 18.9707 35.172 19.3787 35.172ZM23.6048 36V29.676H24.6248V34.524C24.6808 34.412 24.7568 34.292 24.8528 34.164C24.9488 34.028 25.0248 33.924 25.0808 33.852L28.1408 29.676H29.1488V36H28.1288V31.152C28.0648 31.272 27.9928 31.384 27.9128 31.488C27.8408 31.592 27.7728 31.688 27.7088 31.776L24.6008 36H23.6048ZM30.7532 38.28V29.676H31.7252L31.7732 30.648C31.9892 30.304 32.2812 30.044 32.6492 29.868C33.0252 29.692 33.4292 29.604 33.8612 29.604C34.5012 29.604 35.0252 29.748 35.4332 30.036C35.8412 30.316 36.1412 30.7 36.3332 31.188C36.5332 31.676 36.6332 32.228 36.6332 32.844C36.6332 33.46 36.5332 34.012 36.3332 34.5C36.1332 34.988 35.8252 35.372 35.4092 35.652C34.9932 35.932 34.4612 36.072 33.8132 36.072C33.4932 36.072 33.2052 36.04 32.9492 35.976C32.6932 35.904 32.4692 35.804 32.2772 35.676C32.0852 35.548 31.9172 35.404 31.7732 35.244V38.28H30.7532ZM33.7292 35.172C34.1932 35.172 34.5612 35.068 34.8332 34.86C35.1052 34.644 35.3012 34.36 35.4212 34.008C35.5492 33.656 35.6132 33.268 35.6132 32.844C35.6132 32.412 35.5492 32.02 35.4212 31.668C35.3012 31.316 35.1012 31.036 34.8212 30.828C34.5412 30.62 34.1692 30.516 33.7052 30.516C33.2892 30.516 32.9332 30.624 32.6372 30.84C32.3492 31.048 32.1292 31.332 31.9772 31.692C31.8252 32.044 31.7492 32.432 31.7492 32.856C31.7492 33.296 31.8212 33.692 31.9652 34.044C32.1092 34.396 32.3292 34.672 32.6252 34.872C32.9212 35.072 33.2892 35.172 33.7292 35.172ZM40.4565 36.072C39.9845 36.072 39.5725 35.992 39.2205 35.832C38.8765 35.664 38.5925 35.436 38.3685 35.148C38.1445 34.86 37.9765 34.52 37.8645 34.128C37.7605 33.736 37.7085 33.312 37.7085 32.856C37.7085 32.248 37.8045 31.7 37.9965 31.212C38.1965 30.716 38.5125 30.324 38.9445 30.036C39.3765 29.748 39.9405 29.604 40.6365 29.604C41.0045 29.604 41.3565 29.672 41.6925 29.808C42.0365 29.944 42.3285 30.156 42.5685 30.444V29.676H43.5885V36H42.5685V35.148C42.3445 35.444 42.0485 35.672 41.6805 35.832C41.3125 35.992 40.9045 36.072 40.4565 36.072ZM40.6245 35.172C41.0405 35.172 41.3925 35.064 41.6805 34.848C41.9685 34.632 42.1885 34.344 42.3405 33.984C42.5005 33.624 42.5805 33.232 42.5805 32.808C42.5805 32.368 42.5045 31.976 42.3525 31.632C42.2085 31.288 41.9925 31.016 41.7045 30.816C41.4165 30.616 41.0525 30.516 40.6125 30.516C40.1565 30.516 39.7885 30.62 39.5085 30.828C39.2365 31.036 39.0365 31.316 38.9085 31.668C38.7885 32.02 38.7285 32.412 38.7285 32.844C38.7285 33.292 38.7925 33.692 38.9205 34.044C39.0485 34.396 39.2525 34.672 39.5325 34.872C39.8125 35.072 40.1765 35.172 40.6245 35.172ZM47.9267 36.072C47.2547 36.072 46.6987 35.936 46.2587 35.664C45.8187 35.384 45.4907 35 45.2747 34.512C45.0587 34.024 44.9507 33.468 44.9507 32.844C44.9507 32.212 45.0627 31.656 45.2867 31.176C45.5187 30.688 45.8547 30.304 46.2947 30.024C46.7347 29.744 47.2747 29.604 47.9147 29.604C48.3867 29.604 48.7987 29.696 49.1507 29.88C49.5107 30.056 49.8067 30.296 50.0387 30.6C50.2787 30.904 50.4507 31.244 50.5547 31.62C50.6667 31.996 50.7147 32.384 50.6987 32.784C50.6907 32.856 50.6867 32.928 50.6867 33C50.6867 33.072 50.6827 33.144 50.6747 33.216H45.9827C46.0147 33.584 46.1067 33.916 46.2587 34.212C46.4107 34.508 46.6267 34.744 46.9067 34.92C47.1867 35.088 47.5347 35.172 47.9507 35.172C48.1587 35.172 48.3667 35.148 48.5747 35.1C48.7907 35.044 48.9827 34.952 49.1507 34.824C49.3267 34.696 49.4507 34.524 49.5227 34.308H50.5667C50.4707 34.716 50.2907 35.052 50.0267 35.316C49.7627 35.572 49.4467 35.764 49.0787 35.892C48.7107 36.012 48.3267 36.072 47.9267 36.072ZM46.0067 32.328H49.6667C49.6587 31.968 49.5787 31.652 49.4267 31.38C49.2747 31.108 49.0667 30.896 48.8027 30.744C48.5467 30.592 48.2387 30.516 47.8787 30.516C47.4867 30.516 47.1547 30.6 46.8827 30.768C46.6187 30.936 46.4147 31.156 46.2707 31.428C46.1267 31.7 46.0387 32 46.0067 32.328ZM52.0696 36V29.676H53.4376L55.4896 32.844L57.5056 29.676H58.8496V36H57.8416V30.804L55.6096 34.38H55.3216L53.0776 30.804V36H52.0696ZM63.2203 36.072C62.5563 36.072 62.0003 35.936 61.5523 35.664C61.1043 35.384 60.7683 35 60.5443 34.512C60.3283 34.024 60.2203 33.468 60.2203 32.844C60.2203 32.212 60.3283 31.656 60.5443 31.176C60.7683 30.688 61.1043 30.304 61.5523 30.024C62.0003 29.744 62.5643 29.604 63.2443 29.604C63.9083 29.604 64.4603 29.744 64.9003 30.024C65.3483 30.304 65.6803 30.688 65.8963 31.176C66.1203 31.656 66.2323 32.212 66.2323 32.844C66.2323 33.468 66.1203 34.024 65.8963 34.512C65.6723 35 65.3363 35.384 64.8883 35.664C64.4483 35.936 63.8923 36.072 63.2203 36.072ZM63.2203 35.172C63.6843 35.172 64.0603 35.068 64.3483 34.86C64.6443 34.652 64.8603 34.372 64.9963 34.02C65.1403 33.668 65.2123 33.276 65.2123 32.844C65.2123 32.412 65.1403 32.02 64.9963 31.668C64.8603 31.316 64.6443 31.036 64.3483 30.828C64.0603 30.62 63.6843 30.516 63.2203 30.516C62.7643 30.516 62.3883 30.62 62.0923 30.828C61.8043 31.036 61.5883 31.316 61.4443 31.668C61.3083 32.02 61.2402 32.412 61.2402 32.844C61.2402 33.276 61.3083 33.668 61.4443 34.02C61.5883 34.372 61.8043 34.652 62.0923 34.86C62.3883 35.068 62.7643 35.172 63.2203 35.172ZM70.297 36.072C69.633 36.072 69.081 35.936 68.641 35.664C68.209 35.384 67.885 35 67.669 34.512C67.461 34.024 67.357 33.472 67.357 32.856C67.357 32.256 67.465 31.712 67.681 31.224C67.905 30.728 68.241 30.336 68.689 30.048C69.145 29.752 69.721 29.604 70.417 29.604C70.849 29.604 71.233 29.676 71.569 29.82C71.913 29.964 72.197 30.176 72.421 30.456C72.645 30.728 72.801 31.072 72.889 31.488H71.845C71.725 31.136 71.533 30.888 71.269 30.744C71.013 30.592 70.709 30.516 70.357 30.516C69.877 30.516 69.493 30.628 69.205 30.852C68.917 31.076 68.705 31.368 68.569 31.728C68.441 32.08 68.377 32.456 68.377 32.856C68.377 33.272 68.445 33.656 68.581 34.008C68.717 34.36 68.929 34.644 69.217 34.86C69.505 35.068 69.877 35.172 70.333 35.172C70.669 35.172 70.985 35.1 71.281 34.956C71.585 34.812 71.785 34.556 71.881 34.188H72.937C72.857 34.62 72.685 34.976 72.421 35.256C72.165 35.536 71.849 35.744 71.473 35.88C71.105 36.008 70.713 36.072 70.297 36.072ZM75.7058 36V30.576H73.5338V29.676H78.8978V30.576H76.7258V36H75.7058ZM79.8079 36V29.676H80.8279V34.524C80.8839 34.412 80.9599 34.292 81.0559 34.164C81.1519 34.028 81.2279 33.924 81.2839 33.852L84.3439 29.676H85.3519V36H84.3319V31.152C84.2679 31.272 84.1959 31.384 84.1159 31.488C84.0439 31.592 83.9759 31.688 83.9119 31.776L80.8039 36H79.8079ZM90.1907 36V29.676H95.4347V36H94.4147V30.576H91.2107V36H90.1907ZM96.4702 36.012V35.124C96.6302 35.124 96.7742 35.092 96.9022 35.028C97.0302 34.956 97.1422 34.852 97.2382 34.716C97.3502 34.556 97.4382 34.324 97.5022 34.02C97.5662 33.716 97.6102 33.392 97.6342 33.048C97.6662 32.664 97.6902 32.288 97.7062 31.92C97.7222 31.544 97.7342 31.172 97.7422 30.804C97.7582 30.436 97.7662 30.06 97.7662 29.676H102.158V36H101.138V30.576H98.7622C98.7542 30.848 98.7422 31.124 98.7262 31.404C98.7182 31.676 98.7062 31.952 98.6902 32.232C98.6822 32.504 98.6702 32.78 98.6542 33.06C98.6462 33.38 98.6142 33.74 98.5582 34.14C98.5022 34.54 98.3822 34.904 98.1982 35.232C98.0222 35.544 97.8062 35.752 97.5502 35.856C97.3022 35.96 96.9422 36.012 96.4702 36.012ZM106.269 36.072C105.797 36.072 105.385 35.992 105.033 35.832C104.689 35.664 104.405 35.436 104.181 35.148C103.957 34.86 103.789 34.52 103.677 34.128C103.573 33.736 103.521 33.312 103.521 32.856C103.521 32.248 103.617 31.7 103.809 31.212C104.009 30.716 104.325 30.324 104.757 30.036C105.189 29.748 105.753 29.604 106.449 29.604C106.817 29.604 107.169 29.672 107.505 29.808C107.849 29.944 108.141 30.156 108.381 30.444V29.676H109.401V36H108.381V35.148C108.157 35.444 107.861 35.672 107.493 35.832C107.125 35.992 106.717 36.072 106.269 36.072ZM106.437 35.172C106.853 35.172 107.205 35.064 107.493 34.848C107.781 34.632 108.001 34.344 108.153 33.984C108.313 33.624 108.393 33.232 108.393 32.808C108.393 32.368 108.317 31.976 108.165 31.632C108.021 31.288 107.805 31.016 107.517 30.816C107.229 30.616 106.865 30.516 106.425 30.516C105.969 30.516 105.601 30.62 105.321 30.828C105.049 31.036 104.849 31.316 104.721 31.668C104.601 32.02 104.541 32.412 104.541 32.844C104.541 33.292 104.605 33.692 104.733 34.044C104.861 34.396 105.065 34.672 105.345 34.872C105.625 35.072 105.989 35.172 106.437 35.172ZM112.479 36V30.576H110.307V29.676H115.671V30.576H113.499V36H112.479ZM119.317 36.072C118.645 36.072 118.089 35.936 117.649 35.664C117.209 35.384 116.881 35 116.665 34.512C116.449 34.024 116.341 33.468 116.341 32.844C116.341 32.212 116.453 31.656 116.677 31.176C116.909 30.688 117.245 30.304 117.685 30.024C118.125 29.744 118.665 29.604 119.305 29.604C119.777 29.604 120.189 29.696 120.541 29.88C120.901 30.056 121.197 30.296 121.429 30.6C121.669 30.904 121.841 31.244 121.945 31.62C122.057 31.996 122.105 32.384 122.089 32.784C122.081 32.856 122.077 32.928 122.077 33C122.077 33.072 122.073 33.144 122.065 33.216H117.373C117.405 33.584 117.497 33.916 117.649 34.212C117.801 34.508 118.017 34.744 118.297 34.92C118.577 35.088 118.925 35.172 119.341 35.172C119.549 35.172 119.757 35.148 119.965 35.1C120.181 35.044 120.373 34.952 120.541 34.824C120.717 34.696 120.841 34.524 120.913 34.308H121.957C121.861 34.716 121.681 35.052 121.417 35.316C121.153 35.572 120.837 35.764 120.469 35.892C120.101 36.012 119.717 36.072 119.317 36.072ZM117.397 32.328H121.057C121.049 31.968 120.969 31.652 120.817 31.38C120.665 31.108 120.457 30.896 120.193 30.744C119.937 30.592 119.629 30.516 119.269 30.516C118.877 30.516 118.545 30.6 118.273 30.768C118.009 30.936 117.805 31.156 117.661 31.428C117.517 31.7 117.429 32 117.397 32.328ZM122.707 36L124.759 32.688L122.887 29.676H123.979L125.647 32.412H126.595V29.676H127.615V32.412H128.563L130.231 29.676H131.323L129.451 32.688L131.503 36H130.315L128.671 33.276H127.615V36H126.595V33.276H125.539L123.895 36H122.707ZM135.091 36.072C134.419 36.072 133.863 35.936 133.423 35.664C132.983 35.384 132.655 35 132.439 34.512C132.223 34.024 132.115 33.468 132.115 32.844C132.115 32.212 132.227 31.656 132.451 31.176C132.683 30.688 133.019 30.304 133.459 30.024C133.899 29.744 134.439 29.604 135.079 29.604C135.551 29.604 135.963 29.696 136.315 29.88C136.675 30.056 136.971 30.296 137.203 30.6C137.443 30.904 137.615 31.244 137.719 31.62C137.831 31.996 137.879 32.384 137.863 32.784C137.855 32.856 137.851 32.928 137.851 33C137.851 33.072 137.847 33.144 137.839 33.216H133.147C133.179 33.584 133.271 33.916 133.423 34.212C133.575 34.508 133.791 34.744 134.071 34.92C134.351 35.088 134.699 35.172 135.115 35.172C135.323 35.172 135.531 35.148 135.739 35.1C135.955 35.044 136.147 34.952 136.315 34.824C136.491 34.696 136.615 34.524 136.687 34.308H137.731C137.635 34.716 137.455 35.052 137.191 35.316C136.927 35.572 136.611 35.764 136.243 35.892C135.875 36.012 135.491 36.072 135.091 36.072ZM133.171 32.328H136.831C136.823 31.968 136.743 31.652 136.591 31.38C136.439 31.108 136.231 30.896 135.967 30.744C135.711 30.592 135.403 30.516 135.043 30.516C134.651 30.516 134.319 30.6 134.047 30.768C133.783 30.936 133.579 31.156 133.435 31.428C133.291 31.7 133.203 32 133.171 32.328ZM139.234 36V29.676H140.254V34.524C140.31 34.412 140.386 34.292 140.482 34.164C140.578 34.028 140.654 33.924 140.71 33.852L143.77 29.676H144.778V36H143.758V31.152C143.694 31.272 143.622 31.384 143.542 31.488C143.47 31.592 143.402 31.688 143.338 31.776L140.23 36H139.234ZM142.09 28.788C141.458 28.788 140.962 28.652 140.602 28.38C140.25 28.108 140.066 27.712 140.05 27.192H140.986C141.002 27.472 141.106 27.676 141.298 27.804C141.498 27.932 141.766 27.996 142.102 27.996C142.438 27.996 142.702 27.932 142.894 27.804C143.094 27.676 143.202 27.472 143.218 27.192H144.154C144.146 27.536 144.058 27.828 143.89 28.068C143.722 28.308 143.486 28.488 143.182 28.608C142.878 28.728 142.514 28.788 142.09 28.788Z" fill="#0050C8"/>
<defs>
<filter id="filter0_bd_5310_21899" x="618.078" y="-17.973" width="82.0398" height="82.0398" filterUnits="userSpaceOnUse" color-interpolation-filters="sRGB">
<feFlood flood-opacity="0" result="BackgroundImageFix"/>
<feGaussianBlur in="BackgroundImageFix" stdDeviation="13.8517"/>
<feComposite in2="SourceAlpha" operator="in" result="effect1_backgroundBlur_5310_21899"/>
<feColorMatrix in="SourceAlpha" type="matrix" values="0 0 0 0 0 0 0 0 0 0 0 0 0 0 0 0 0 0 127 0" result="hardAlpha"/>
<feOffset dy="1.38517"/>
<feGaussianBlur stdDeviation="5.07737"/>
<feComposite in2="hardAlpha" operator="out"/>
<feColorMatrix type="matrix" values="0 0 0 0 0 0 0 0 0 0.313726 0 0 0 0 0.784314 0 0 0 0.4 0"/>
<feBlend mode="normal" in2="effect1_backgroundBlur_5310_21899" result="effect2_dropShadow_5310_21899"/>
<feBlend mode="normal" in="SourceGraphic" in2="effect2_dropShadow_5310_21899" result="shape"/>
</filter>
<linearGradient id="paint0_linear_5310_21899" x1="557.615" y1="194.613" x2="223.441" y2="194.613" gradientUnits="userSpaceOnUse">
<stop stop-color="#FAFCFF"/>
<stop offset="1" stop-color="#BAD6FF" stop-opacity="0.5"/>
</linearGradient>
<linearGradient id="paint1_linear_5310_21899" x1="366.769" y1="155.84" x2="726.501" y2="-6.79478" gradientUnits="userSpaceOnUse">
<stop stop-color="#81E062" stop-opacity="0"/>
<stop offset="1" stop-color="#81E062" stop-opacity="0.5"/>
</linearGradient>
<linearGradient id="paint2_linear_5310_21899" x1="628.439" y1="3.33065" x2="151.053" y2="273.757" gradientUnits="userSpaceOnUse">
<stop stop-color="#81E062"/>
<stop offset="0.615" stop-color="#81E062"/>
<stop offset="1" stop-color="#0050C8"/>
</linearGradient>
<linearGradient id="paint3_linear_5310_21899" x1="658.367" y1="33.2852" x2="658.367" y2="135.632" gradientUnits="userSpaceOnUse">
<stop stop-color="#2F70D2"/>
<stop offset="1" stop-color="#FAFCFF"/>
</linearGradient>
</defs>
</svg>
