<svg width="363" height="201" viewBox="0 0 363 201" fill="none" xmlns="http://www.w3.org/2000/svg">
<path d="M78.2859 102.5C56.0743 105.559 39.3907 118.996 1 122.101V199H362V2C342.941 6.66216 313.166 13.4393 291.582 24.1517C280.708 29.5482 269.23 38.2981 264.857 43.0775C245.767 63.9389 237.92 65.2293 208.437 72.1114C185.816 77.9302 165.272 82.2513 147.776 92.5426C142.957 95.3767 139.368 100.257 135.627 103C130.315 106.896 125.401 106.98 121.167 107C108.964 107.057 95.7335 100.097 78.2859 102.5Z" fill="url(#paint0_linear_5310_18358)"/>
<path d="M78.2859 102.5C56.0743 105.559 39.3907 118.996 1 122.101V199H362V2C342.941 6.66216 313.166 13.4393 291.582 24.1517C280.708 29.5482 269.23 38.2981 264.857 43.0775C245.767 63.9389 237.92 65.2293 208.437 72.1114C185.816 77.9302 165.272 82.2513 147.776 92.5426C142.957 95.3767 139.368 100.257 135.627 103C130.315 106.896 125.401 106.98 121.167 107C108.964 107.057 95.7335 100.097 78.2859 102.5Z" fill="url(#paint1_linear_5310_18358)"/>
<path d="M1 122.5C39.4971 119.423 55.9336 105.399 78.2068 102.367C95.7028 99.9863 109.146 107.325 121.383 107.269C125.629 107.249 131.37 106.014 136.697 102.154C140.448 99.4365 143.35 94.5208 148.182 91.7126C165.727 81.5157 186.328 77.2342 209.012 71.4687C238.576 64.6497 246.445 63.3711 265.588 42.701C269.973 37.9654 281.483 29.2957 292.387 23.9487C314.031 13.3345 342.888 6.61943 362 2" stroke="url(#paint2_linear_5310_18358)" stroke-width="1.28" stroke-linecap="round"/>
<g filter="url(#filter0_bd_5310_18358)">
<circle cx="328.917" cy="10.9172" r="5.91716" fill="#0050C8"/>
</g>
<path d="M202.578 105.422C202.259 105.102 201.741 105.102 201.422 105.422L196.215 110.628C195.896 110.947 195.896 111.465 196.215 111.785C196.535 112.104 197.053 112.104 197.372 111.785L202 107.157L206.628 111.785C206.947 112.104 207.465 112.104 207.785 111.785C208.104 111.465 208.104 110.947 207.785 110.628L202.578 105.422ZM201.182 118V118.818H202.818V118H201.182ZM201.182 106L201.182 118H202.818L202.818 106L201.182 106Z" fill="#0050C8"/>
<path d="M1 187L363 187" stroke="#003990" stroke-opacity="0.5" stroke-width="0.437133"/>
<path d="M329.5 17V89" stroke="url(#paint3_linear_5310_18358)" stroke-width="0.64" stroke-dasharray="2 2"/>
<path d="M7.696 197V191.344H8.736L10.464 194.456L12.168 191.344H13.184V197H12.488V192.048L10.608 195.528H10.288L8.392 192.048V197H7.696ZM16.0908 197.048C15.7761 197.048 15.5015 196.995 15.2668 196.888C15.0375 196.776 14.8481 196.624 14.6988 196.432C14.5495 196.24 14.4375 196.013 14.3628 195.752C14.2935 195.491 14.2588 195.208 14.2588 194.904C14.2588 194.499 14.3228 194.133 14.4508 193.808C14.5841 193.477 14.7948 193.216 15.0828 193.024C15.3708 192.832 15.7468 192.736 16.2108 192.736C16.4561 192.736 16.6908 192.781 16.9148 192.872C17.1441 192.963 17.3388 193.104 17.4988 193.296V192.784H18.1788V197H17.4988V196.432C17.3495 196.629 17.1521 196.781 16.9068 196.888C16.6615 196.995 16.3895 197.048 16.0908 197.048ZM16.2028 196.448C16.4801 196.448 16.7148 196.376 16.9068 196.232C17.0988 196.088 17.2455 195.896 17.3468 195.656C17.4535 195.416 17.5068 195.155 17.5068 194.872C17.5068 194.579 17.4561 194.317 17.3548 194.088C17.2588 193.859 17.1148 193.677 16.9228 193.544C16.7308 193.411 16.4881 193.344 16.1948 193.344C15.8908 193.344 15.6455 193.413 15.4588 193.552C15.2775 193.691 15.1441 193.877 15.0588 194.112C14.9788 194.347 14.9388 194.608 14.9388 194.896C14.9388 195.195 14.9815 195.461 15.0668 195.696C15.1521 195.931 15.2881 196.115 15.4748 196.248C15.6615 196.381 15.9041 196.448 16.2028 196.448ZM19.2469 197V192.784H19.9269V196.016C19.9643 195.941 20.0149 195.861 20.0789 195.776C20.1429 195.685 20.1936 195.616 20.2309 195.568L22.2709 192.784H22.9429V197H22.2629V193.768C22.2203 193.848 22.1723 193.923 22.1189 193.992C22.0709 194.061 22.0256 194.125 21.9829 194.184L19.9109 197H19.2469ZM21.1509 192.192C20.7296 192.192 20.3989 192.101 20.1589 191.92C19.9243 191.739 19.8016 191.475 19.7909 191.128H20.4149C20.4256 191.315 20.4949 191.451 20.6229 191.536C20.7563 191.621 20.9349 191.664 21.1589 191.664C21.3829 191.664 21.5589 191.621 21.6869 191.536C21.8203 191.451 21.8923 191.315 21.9029 191.128H22.5269C22.5216 191.357 22.4629 191.552 22.3509 191.712C22.2389 191.872 22.0816 191.992 21.8789 192.072C21.6763 192.152 21.4336 192.192 21.1509 192.192Z" fill="#003990" fill-opacity="0.5"/>
<path d="M106.36 197V191.344H107.056V195.912L110.088 191.344H110.824V197H110.128V192.472L107.088 197H106.36ZM115.475 197.048C114.857 197.048 114.39 196.877 114.075 196.536C113.761 196.189 113.582 195.741 113.539 195.192H112.739V197H112.059V192.784H112.739V194.6H113.539C113.571 194.232 113.659 193.909 113.803 193.632C113.953 193.349 114.166 193.131 114.443 192.976C114.721 192.816 115.065 192.736 115.475 192.736C115.923 192.736 116.294 192.829 116.587 193.016C116.881 193.203 117.099 193.459 117.243 193.784C117.387 194.104 117.459 194.475 117.459 194.896C117.459 195.312 117.387 195.683 117.243 196.008C117.099 196.333 116.881 196.589 116.587 196.776C116.294 196.957 115.923 197.048 115.475 197.048ZM115.475 196.448C115.785 196.448 116.033 196.379 116.219 196.24C116.411 196.101 116.553 195.915 116.643 195.68C116.734 195.445 116.779 195.184 116.779 194.896C116.779 194.608 116.734 194.347 116.643 194.112C116.553 193.877 116.411 193.691 116.219 193.552C116.033 193.413 115.785 193.344 115.475 193.344C115.171 193.344 114.923 193.413 114.731 193.552C114.545 193.691 114.409 193.877 114.323 194.112C114.238 194.347 114.195 194.608 114.195 194.896C114.195 195.184 114.238 195.445 114.323 195.68C114.409 195.915 114.545 196.101 114.731 196.24C114.923 196.379 115.171 196.448 115.475 196.448ZM117.918 197.008V196.416C118.024 196.416 118.12 196.395 118.206 196.352C118.291 196.304 118.366 196.235 118.43 196.144C118.504 196.037 118.563 195.883 118.606 195.68C118.648 195.477 118.678 195.261 118.694 195.032C118.715 194.776 118.731 194.525 118.742 194.28C118.752 194.029 118.76 193.781 118.766 193.536C118.776 193.291 118.782 193.04 118.782 192.784H121.71V197H121.03V193.384H119.446C119.44 193.565 119.432 193.749 119.422 193.936C119.416 194.117 119.408 194.301 119.398 194.488C119.392 194.669 119.384 194.853 119.374 195.04C119.368 195.253 119.347 195.493 119.31 195.76C119.272 196.027 119.192 196.269 119.07 196.488C118.952 196.696 118.808 196.835 118.638 196.904C118.472 196.973 118.232 197.008 117.918 197.008ZM122.778 197V192.784H123.474V194.392H124.402C124.653 194.392 124.877 194.413 125.074 194.456C125.277 194.493 125.45 194.56 125.594 194.656C125.738 194.752 125.848 194.883 125.922 195.048C126.002 195.208 126.042 195.413 126.042 195.664C126.042 195.893 126.002 196.093 125.922 196.264C125.842 196.429 125.73 196.568 125.586 196.68C125.442 196.787 125.269 196.867 125.066 196.92C124.869 196.973 124.65 197 124.41 197H122.778ZM123.474 196.408H123.874C124.061 196.408 124.24 196.403 124.41 196.392C124.586 196.381 124.746 196.355 124.89 196.312C125.034 196.269 125.146 196.2 125.226 196.104C125.312 196.003 125.354 195.864 125.354 195.688C125.354 195.517 125.32 195.387 125.25 195.296C125.186 195.2 125.101 195.131 124.994 195.088C124.888 195.04 124.77 195.011 124.642 195C124.52 194.989 124.397 194.984 124.274 194.984H123.474V196.408Z" fill="#003990" fill-opacity="0.5"/>
<path d="M211.32 197.064C210.739 197.064 210.253 196.941 209.864 196.696C209.48 196.445 209.192 196.104 209 195.672C208.813 195.235 208.72 194.736 208.72 194.176C208.72 193.621 208.816 193.128 209.008 192.696C209.2 192.259 209.488 191.915 209.872 191.664C210.261 191.408 210.749 191.28 211.336 191.28C211.752 191.28 212.109 191.347 212.408 191.48C212.712 191.608 212.957 191.787 213.144 192.016C213.331 192.245 213.459 192.515 213.528 192.824H212.824C212.744 192.547 212.571 192.325 212.304 192.16C212.043 191.995 211.712 191.912 211.312 191.912C210.864 191.912 210.501 192.019 210.224 192.232C209.952 192.44 209.752 192.715 209.624 193.056C209.496 193.392 209.432 193.757 209.432 194.152C209.432 194.568 209.499 194.949 209.632 195.296C209.765 195.643 209.973 195.92 210.256 196.128C210.539 196.331 210.899 196.432 211.336 196.432C211.603 196.432 211.84 196.395 212.048 196.32C212.261 196.245 212.437 196.139 212.576 196C212.72 195.861 212.819 195.701 212.872 195.52H213.632C213.552 195.829 213.408 196.101 213.2 196.336C212.997 196.565 212.739 196.744 212.424 196.872C212.109 197 211.741 197.064 211.32 197.064ZM216.376 197.048C215.928 197.048 215.557 196.957 215.264 196.776C214.97 196.589 214.752 196.333 214.608 196.008C214.464 195.683 214.392 195.312 214.392 194.896C214.392 194.475 214.466 194.104 214.616 193.784C214.77 193.459 214.994 193.203 215.288 193.016C215.581 192.829 215.941 192.736 216.368 192.736C216.682 192.736 216.957 192.797 217.192 192.92C217.432 193.037 217.629 193.197 217.784 193.4C217.944 193.603 218.058 193.829 218.128 194.08C218.202 194.331 218.234 194.589 218.224 194.856C218.218 194.904 218.216 194.952 218.216 195C218.216 195.048 218.213 195.096 218.208 195.144H215.08C215.101 195.389 215.162 195.611 215.264 195.808C215.365 196.005 215.509 196.163 215.696 196.28C215.882 196.392 216.114 196.448 216.392 196.448C216.53 196.448 216.669 196.432 216.808 196.4C216.952 196.363 217.08 196.301 217.192 196.216C217.309 196.131 217.392 196.016 217.44 195.872H218.136C218.072 196.144 217.952 196.368 217.776 196.544C217.6 196.715 217.389 196.843 217.144 196.928C216.898 197.008 216.642 197.048 216.376 197.048ZM215.096 194.552H217.536C217.53 194.312 217.477 194.101 217.376 193.92C217.274 193.739 217.136 193.597 216.96 193.496C216.789 193.395 216.584 193.344 216.344 193.344C216.082 193.344 215.861 193.4 215.68 193.512C215.504 193.624 215.368 193.771 215.272 193.952C215.176 194.133 215.117 194.333 215.096 194.552ZM219.138 197V192.784H219.818V194.632H221.93V192.784H222.61V197H221.93V195.232H219.818V197H219.138ZM224.668 197V193.384H223.22V192.784H226.796V193.384H225.348V197H224.668ZM227.139 197L228.235 195.336C227.931 195.251 227.691 195.112 227.515 194.92C227.339 194.723 227.251 194.461 227.251 194.136C227.251 193.88 227.289 193.667 227.363 193.496C227.438 193.32 227.547 193.181 227.691 193.08C227.835 192.973 228.009 192.899 228.211 192.856C228.414 192.808 228.646 192.784 228.907 192.784H230.603V197H229.923V195.44H228.955L227.931 197H227.139ZM229.419 194.848H229.923V193.384H229.019C228.859 193.384 228.713 193.392 228.579 193.408C228.446 193.424 228.331 193.459 228.235 193.512C228.145 193.56 228.073 193.632 228.019 193.728C227.966 193.819 227.939 193.944 227.939 194.104C227.939 194.28 227.982 194.419 228.067 194.52C228.158 194.621 228.273 194.696 228.411 194.744C228.555 194.787 228.715 194.816 228.891 194.832C229.067 194.843 229.243 194.848 229.419 194.848ZM233.453 197.048C233.186 197.048 232.949 197.011 232.741 196.936C232.533 196.856 232.354 196.747 232.205 196.608C232.055 196.464 231.933 196.296 231.837 196.104C231.741 195.907 231.669 195.693 231.621 195.464C231.573 195.235 231.549 194.992 231.549 194.736C231.549 194.325 231.557 193.944 231.573 193.592C231.594 193.235 231.653 192.917 231.749 192.64C231.845 192.357 232.007 192.123 232.237 191.936C232.466 191.749 232.789 191.619 233.205 191.544C233.418 191.507 233.629 191.475 233.837 191.448C234.045 191.421 234.255 191.395 234.469 191.368C234.538 191.357 234.61 191.347 234.685 191.336C234.759 191.325 234.837 191.312 234.917 191.296C235.002 191.28 235.082 191.267 235.157 191.256V191.88C235.098 191.901 235.034 191.92 234.965 191.936C234.901 191.947 234.831 191.957 234.757 191.968C234.687 191.979 234.615 191.987 234.541 191.992C234.471 191.997 234.402 192.005 234.333 192.016C234.263 192.021 234.197 192.029 234.133 192.04C233.946 192.061 233.749 192.083 233.541 192.104C233.333 192.12 233.135 192.163 232.949 192.232C232.767 192.296 232.613 192.421 232.485 192.608C232.421 192.704 232.365 192.819 232.317 192.952C232.274 193.085 232.242 193.221 232.221 193.36C232.205 193.493 232.194 193.621 232.189 193.744C232.295 193.595 232.426 193.475 232.581 193.384C232.735 193.288 232.901 193.219 233.077 193.176C233.253 193.128 233.421 193.104 233.581 193.104C233.965 193.104 234.29 193.184 234.557 193.344C234.823 193.499 235.026 193.72 235.165 194.008C235.303 194.296 235.373 194.632 235.373 195.016C235.373 195.4 235.298 195.747 235.149 196.056C234.999 196.36 234.781 196.603 234.493 196.784C234.21 196.96 233.863 197.048 233.453 197.048ZM233.469 196.448C233.735 196.448 233.959 196.384 234.141 196.256C234.322 196.128 234.458 195.957 234.549 195.744C234.645 195.531 234.693 195.296 234.693 195.04C234.693 194.789 234.645 194.565 234.549 194.368C234.458 194.165 234.322 194.005 234.141 193.888C233.965 193.771 233.746 193.712 233.485 193.712C233.229 193.712 233.007 193.773 232.821 193.896C232.639 194.019 232.498 194.184 232.397 194.392C232.301 194.595 232.253 194.816 232.253 195.056C232.253 195.301 232.298 195.531 232.389 195.744C232.479 195.957 232.613 196.128 232.789 196.256C232.97 196.384 233.197 196.448 233.469 196.448ZM236.286 198.52V192.784H236.934L236.966 193.432C237.11 193.203 237.305 193.029 237.55 192.912C237.801 192.795 238.07 192.736 238.358 192.736C238.785 192.736 239.134 192.832 239.406 193.024C239.678 193.211 239.878 193.467 240.006 193.792C240.139 194.117 240.206 194.485 240.206 194.896C240.206 195.307 240.139 195.675 240.006 196C239.873 196.325 239.667 196.581 239.39 196.768C239.113 196.955 238.758 197.048 238.326 197.048C238.113 197.048 237.921 197.027 237.75 196.984C237.579 196.936 237.43 196.869 237.302 196.784C237.174 196.699 237.062 196.603 236.966 196.496V198.52H236.286ZM238.27 196.448C238.579 196.448 238.825 196.379 239.006 196.24C239.187 196.096 239.318 195.907 239.398 195.672C239.483 195.437 239.526 195.179 239.526 194.896C239.526 194.608 239.483 194.347 239.398 194.112C239.318 193.877 239.185 193.691 238.998 193.552C238.811 193.413 238.563 193.344 238.254 193.344C237.977 193.344 237.739 193.416 237.542 193.56C237.35 193.699 237.203 193.888 237.102 194.128C237.001 194.363 236.95 194.621 236.95 194.904C236.95 195.197 236.998 195.461 237.094 195.696C237.19 195.931 237.337 196.115 237.534 196.248C237.731 196.381 237.977 196.448 238.27 196.448ZM241.083 197V192.784H241.779V194.392H242.707C242.958 194.392 243.182 194.413 243.379 194.456C243.582 194.493 243.755 194.56 243.899 194.656C244.043 194.752 244.152 194.883 244.227 195.048C244.307 195.208 244.347 195.413 244.347 195.664C244.347 195.893 244.307 196.093 244.227 196.264C244.147 196.429 244.035 196.568 243.891 196.68C243.747 196.787 243.574 196.867 243.371 196.92C243.174 196.973 242.955 197 242.715 197H241.083ZM241.779 196.408H242.179C242.366 196.408 242.544 196.403 242.715 196.392C242.891 196.381 243.051 196.355 243.195 196.312C243.339 196.269 243.451 196.2 243.531 196.104C243.616 196.003 243.659 195.864 243.659 195.688C243.659 195.517 243.624 195.387 243.555 195.296C243.491 195.2 243.406 195.131 243.299 195.088C243.192 195.04 243.075 195.011 242.947 195C242.824 194.989 242.702 194.984 242.579 194.984H241.779V196.408Z" fill="#003990" fill-opacity="0.5"/>
<path d="M327.696 197V191.344H328.392V193.904H331.424V191.344H332.12V197H331.424V194.544H328.392V197H327.696ZM335.189 197.048C334.746 197.048 334.375 196.957 334.077 196.776C333.778 196.589 333.554 196.333 333.405 196.008C333.261 195.683 333.189 195.312 333.189 194.896C333.189 194.475 333.261 194.104 333.405 193.784C333.554 193.459 333.778 193.203 334.077 193.016C334.375 192.829 334.751 192.736 335.205 192.736C335.647 192.736 336.015 192.829 336.309 193.016C336.607 193.203 336.829 193.459 336.973 193.784C337.122 194.104 337.197 194.475 337.197 194.896C337.197 195.312 337.122 195.683 336.973 196.008C336.823 196.333 336.599 196.589 336.301 196.776C336.007 196.957 335.637 197.048 335.189 197.048ZM335.189 196.448C335.498 196.448 335.749 196.379 335.941 196.24C336.138 196.101 336.282 195.915 336.373 195.68C336.469 195.445 336.517 195.184 336.517 194.896C336.517 194.608 336.469 194.347 336.373 194.112C336.282 193.877 336.138 193.691 335.941 193.552C335.749 193.413 335.498 193.344 335.189 193.344C334.885 193.344 334.634 193.413 334.437 193.552C334.245 193.691 334.101 193.877 334.005 194.112C333.914 194.347 333.868 194.608 333.868 194.896C333.868 195.184 333.914 195.445 334.005 195.68C334.101 195.915 334.245 196.101 334.437 196.24C334.634 196.379 334.885 196.448 335.189 196.448ZM337.842 197L338.938 195.336C338.634 195.251 338.394 195.112 338.218 194.92C338.042 194.723 337.954 194.461 337.954 194.136C337.954 193.88 337.992 193.667 338.066 193.496C338.141 193.32 338.25 193.181 338.394 193.08C338.538 192.973 338.712 192.899 338.914 192.856C339.117 192.808 339.349 192.784 339.61 192.784H341.306V197H340.626V195.44H339.658L338.634 197H337.842ZM340.122 194.848H340.626V193.384H339.722C339.562 193.384 339.416 193.392 339.282 193.408C339.149 193.424 339.034 193.459 338.938 193.512C338.848 193.56 338.776 193.632 338.722 193.728C338.669 193.819 338.642 193.944 338.642 194.104C338.642 194.28 338.685 194.419 338.77 194.52C338.861 194.621 338.976 194.696 339.114 194.744C339.258 194.787 339.418 194.816 339.594 194.832C339.77 194.843 339.946 194.848 340.122 194.848ZM344.156 197.048C343.889 197.048 343.652 197.011 343.444 196.936C343.236 196.856 343.057 196.747 342.908 196.608C342.758 196.464 342.636 196.296 342.54 196.104C342.444 195.907 342.372 195.693 342.324 195.464C342.276 195.235 342.252 194.992 342.252 194.736C342.252 194.325 342.26 193.944 342.276 193.592C342.297 193.235 342.356 192.917 342.452 192.64C342.548 192.357 342.71 192.123 342.94 191.936C343.169 191.749 343.492 191.619 343.908 191.544C344.121 191.507 344.332 191.475 344.54 191.448C344.748 191.421 344.958 191.395 345.172 191.368C345.241 191.357 345.313 191.347 345.388 191.336C345.462 191.325 345.54 191.312 345.62 191.296C345.705 191.28 345.785 191.267 345.86 191.256V191.88C345.801 191.901 345.737 191.92 345.668 191.936C345.604 191.947 345.534 191.957 345.46 191.968C345.39 191.979 345.318 191.987 345.244 191.992C345.174 191.997 345.105 192.005 345.036 192.016C344.966 192.021 344.9 192.029 344.836 192.04C344.649 192.061 344.452 192.083 344.244 192.104C344.036 192.12 343.838 192.163 343.652 192.232C343.47 192.296 343.316 192.421 343.188 192.608C343.124 192.704 343.068 192.819 343.02 192.952C342.977 193.085 342.945 193.221 342.924 193.36C342.908 193.493 342.897 193.621 342.892 193.744C342.998 193.595 343.129 193.475 343.284 193.384C343.438 193.288 343.604 193.219 343.78 193.176C343.956 193.128 344.124 193.104 344.284 193.104C344.668 193.104 344.993 193.184 345.26 193.344C345.526 193.499 345.729 193.72 345.868 194.008C346.006 194.296 346.076 194.632 346.076 195.016C346.076 195.4 346.001 195.747 345.852 196.056C345.702 196.36 345.484 196.603 345.196 196.784C344.913 196.96 344.566 197.048 344.156 197.048ZM344.172 196.448C344.438 196.448 344.662 196.384 344.844 196.256C345.025 196.128 345.161 195.957 345.252 195.744C345.348 195.531 345.396 195.296 345.396 195.04C345.396 194.789 345.348 194.565 345.252 194.368C345.161 194.165 345.025 194.005 344.844 193.888C344.668 193.771 344.449 193.712 344.188 193.712C343.932 193.712 343.71 193.773 343.524 193.896C343.342 194.019 343.201 194.184 343.1 194.392C343.004 194.595 342.956 194.816 342.956 195.056C342.956 195.301 343.001 195.531 343.092 195.744C343.182 195.957 343.316 196.128 343.492 196.256C343.673 196.384 343.9 196.448 344.172 196.448ZM346.989 198.52V192.784H347.637L347.669 193.432C347.813 193.203 348.008 193.029 348.253 192.912C348.504 192.795 348.773 192.736 349.061 192.736C349.488 192.736 349.837 192.832 350.109 193.024C350.381 193.211 350.581 193.467 350.709 193.792C350.842 194.117 350.909 194.485 350.909 194.896C350.909 195.307 350.842 195.675 350.709 196C350.576 196.325 350.37 196.581 350.093 196.768C349.816 196.955 349.461 197.048 349.029 197.048C348.816 197.048 348.624 197.027 348.453 196.984C348.282 196.936 348.133 196.869 348.005 196.784C347.877 196.699 347.765 196.603 347.669 196.496V198.52H346.989ZM348.973 196.448C349.282 196.448 349.528 196.379 349.709 196.24C349.89 196.096 350.021 195.907 350.101 195.672C350.186 195.437 350.229 195.179 350.229 194.896C350.229 194.608 350.186 194.347 350.101 194.112C350.021 193.877 349.888 193.691 349.701 193.552C349.514 193.413 349.266 193.344 348.957 193.344C348.68 193.344 348.442 193.416 348.245 193.56C348.053 193.699 347.906 193.888 347.805 194.128C347.704 194.363 347.653 194.621 347.653 194.904C347.653 195.197 347.701 195.461 347.797 195.696C347.893 195.931 348.04 196.115 348.237 196.248C348.434 196.381 348.68 196.448 348.973 196.448ZM351.786 197V192.784H352.482V194.392H353.41C353.661 194.392 353.885 194.413 354.082 194.456C354.285 194.493 354.458 194.56 354.602 194.656C354.746 194.752 354.855 194.883 354.93 195.048C355.01 195.208 355.05 195.413 355.05 195.664C355.05 195.893 355.01 196.093 354.93 196.264C354.85 196.429 354.738 196.568 354.594 196.68C354.45 196.787 354.277 196.867 354.074 196.92C353.877 196.973 353.658 197 353.418 197H351.786ZM352.482 196.408H352.882C353.069 196.408 353.247 196.403 353.418 196.392C353.594 196.381 353.754 196.355 353.898 196.312C354.042 196.269 354.154 196.2 354.234 196.104C354.319 196.003 354.362 195.864 354.362 195.688C354.362 195.517 354.327 195.387 354.258 195.296C354.194 195.2 354.109 195.131 354.002 195.088C353.895 195.04 353.778 195.011 353.65 195C353.527 194.989 353.405 194.984 353.282 194.984H352.482V196.408Z" fill="#003990" fill-opacity="0.5"/>
<path d="M224.32 141.36C223.147 141.36 222.013 141.227 220.92 140.96C219.853 140.693 218.88 140.293 218 139.76C217.12 139.2 216.373 138.493 215.76 137.64C215.147 136.787 214.72 135.773 214.48 134.6H218C218.293 135.347 218.76 135.987 219.4 136.52C220.04 137.053 220.76 137.467 221.56 137.76C222.387 138.027 223.2 138.16 224 138.16C225.307 138.16 226.467 137.947 227.48 137.52C228.52 137.093 229.347 136.44 229.96 135.56C230.573 134.653 230.88 133.493 230.88 132.08C230.88 130.133 230.293 128.64 229.12 127.6C227.947 126.56 226.427 126.04 224.56 126.04C223.44 126.04 222.4 126.24 221.44 126.64C220.507 127.04 219.653 127.587 218.88 128.28H215.28L216.56 112.72H233.48V115.92H219.68L218.88 124.8C219.6 124.213 220.48 123.747 221.52 123.4C222.56 123.027 223.84 122.84 225.36 122.84C227.173 122.84 228.76 123.213 230.12 123.96C231.507 124.707 232.573 125.76 233.32 127.12C234.093 128.453 234.48 130.04 234.48 131.88C234.48 133.853 234.027 135.547 233.12 136.96C232.24 138.373 231.027 139.467 229.48 140.24C227.96 140.987 226.24 141.36 224.32 141.36ZM248.968 141.36C247.795 141.36 246.662 141.227 245.568 140.96C244.502 140.693 243.528 140.293 242.648 139.76C241.768 139.2 241.022 138.493 240.408 137.64C239.795 136.787 239.368 135.773 239.128 134.6H242.648C242.942 135.347 243.408 135.987 244.048 136.52C244.688 137.053 245.408 137.467 246.208 137.76C247.035 138.027 247.848 138.16 248.648 138.16C249.955 138.16 251.115 137.947 252.128 137.52C253.168 137.093 253.995 136.44 254.608 135.56C255.222 134.653 255.528 133.493 255.528 132.08C255.528 130.133 254.942 128.64 253.768 127.6C252.595 126.56 251.075 126.04 249.208 126.04C248.088 126.04 247.048 126.24 246.088 126.64C245.155 127.04 244.302 127.587 243.528 128.28H239.928L241.208 112.72H258.128V115.92H244.328L243.528 124.8C244.248 124.213 245.128 123.747 246.168 123.4C247.208 123.027 248.488 122.84 250.008 122.84C251.822 122.84 253.408 123.213 254.768 123.96C256.155 124.707 257.222 125.76 257.968 127.12C258.742 128.453 259.128 130.04 259.128 131.88C259.128 133.853 258.675 135.547 257.768 136.96C256.888 138.373 255.675 139.467 254.128 140.24C252.608 140.987 250.888 141.36 248.968 141.36ZM266.857 141L284.257 112.72H287.777L270.417 141H266.857ZM285.337 141.24C284.057 141.24 282.977 140.96 282.097 140.4C281.244 139.84 280.59 139.093 280.137 138.16C279.684 137.2 279.457 136.133 279.457 134.96C279.457 133.733 279.684 132.653 280.137 131.72C280.59 130.787 281.257 130.053 282.137 129.52C283.017 128.987 284.084 128.72 285.337 128.72C286.564 128.72 287.604 128.987 288.457 129.52C289.31 130.053 289.964 130.787 290.417 131.72C290.87 132.653 291.097 133.733 291.097 134.96C291.097 136.133 290.87 137.2 290.417 138.16C289.964 139.093 289.31 139.84 288.457 140.4C287.604 140.96 286.564 141.24 285.337 141.24ZM285.297 138.4C285.99 138.4 286.537 138.24 286.937 137.92C287.364 137.6 287.657 137.173 287.817 136.64C288.004 136.107 288.097 135.547 288.097 134.96C288.097 134.373 288.004 133.827 287.817 133.32C287.657 132.787 287.364 132.36 286.937 132.04C286.537 131.72 285.99 131.56 285.297 131.56C284.23 131.56 283.47 131.907 283.017 132.6C282.59 133.293 282.377 134.08 282.377 134.96C282.377 135.893 282.604 136.707 283.057 137.4C283.51 138.067 284.257 138.4 285.297 138.4ZM269.497 124.92C268.217 124.92 267.137 124.64 266.257 124.08C265.404 123.52 264.75 122.773 264.297 121.84C263.87 120.88 263.657 119.813 263.657 118.64C263.657 117.413 263.87 116.333 264.297 115.4C264.75 114.467 265.417 113.733 266.297 113.2C267.177 112.667 268.244 112.4 269.497 112.4C270.75 112.4 271.804 112.667 272.657 113.2C273.51 113.733 274.15 114.467 274.577 115.4C275.03 116.333 275.257 117.413 275.257 118.64C275.257 119.813 275.03 120.88 274.577 121.84C274.15 122.773 273.51 123.52 272.657 124.08C271.804 124.64 270.75 124.92 269.497 124.92ZM269.497 122.08C270.19 122.08 270.737 121.92 271.137 121.6C271.537 121.28 271.83 120.853 272.017 120.32C272.204 119.787 272.297 119.227 272.297 118.64C272.297 118.053 272.204 117.507 272.017 117C271.83 116.467 271.537 116.04 271.137 115.72C270.737 115.4 270.19 115.24 269.497 115.24C268.43 115.24 267.67 115.587 267.217 116.28C266.764 116.973 266.537 117.76 266.537 118.64C266.537 119.573 266.764 120.387 267.217 121.08C267.67 121.747 268.43 122.08 269.497 122.08Z" fill="#0050C8"/>
<defs>
<filter id="filter0_bd_5310_18358" x="307.814" y="-10.1862" width="42.2083" height="42.2083" filterUnits="userSpaceOnUse" color-interpolation-filters="sRGB">
<feFlood flood-opacity="0" result="BackgroundImageFix"/>
<feGaussianBlur in="BackgroundImageFix" stdDeviation="7.59308"/>
<feComposite in2="SourceAlpha" operator="in" result="effect1_backgroundBlur_5310_18358"/>
<feColorMatrix in="SourceAlpha" type="matrix" values="0 0 0 0 0 0 0 0 0 0 0 0 0 0 0 0 0 0 127 0" result="hardAlpha"/>
<feOffset dy="0.759308"/>
<feGaussianBlur stdDeviation="2.78325"/>
<feComposite in2="hardAlpha" operator="out"/>
<feColorMatrix type="matrix" values="0 0 0 0 0 0 0 0 0 0.313726 0 0 0 0 0.784314 0 0 0 1 0"/>
<feBlend mode="normal" in2="effect1_backgroundBlur_5310_18358" result="effect2_dropShadow_5310_18358"/>
<feBlend mode="normal" in="SourceGraphic" in2="effect2_dropShadow_5310_18358" result="shape"/>
</filter>
<linearGradient id="paint0_linear_5310_18358" x1="271.141" y1="129.461" x2="93.9804" y2="129.461" gradientUnits="userSpaceOnUse">
<stop stop-color="#FAFCFF"/>
<stop offset="1" stop-color="#BAD6FF" stop-opacity="0.5"/>
</linearGradient>
<linearGradient id="paint1_linear_5310_18358" x1="169.965" y1="102.332" x2="375.533" y2="31.9147" gradientUnits="userSpaceOnUse">
<stop stop-color="#81E062" stop-opacity="0"/>
<stop offset="1" stop-color="#81E062" stop-opacity="0.5"/>
</linearGradient>
<linearGradient id="paint2_linear_5310_18358" x1="309.794" y1="-4.39906" x2="25.1497" y2="115.913" gradientUnits="userSpaceOnUse">
<stop stop-color="#81E062" stop-opacity="0.5"/>
<stop offset="0.615" stop-color="#81E062" stop-opacity="0.5"/>
<stop offset="1" stop-color="#0050C8" stop-opacity="0.5"/>
</linearGradient>
<linearGradient id="paint3_linear_5310_18358" x1="328.5" y1="17" x2="328.5" y2="89" gradientUnits="userSpaceOnUse">
<stop stop-color="#2F70D2"/>
<stop offset="1" stop-color="#FAFCFF"/>
</linearGradient>
</defs>
</svg>
