<svg width="38" height="38" viewBox="0 0 38 38" fill="none" xmlns="http://www.w3.org/2000/svg">
<path d="M14.452 0.503906C13.1498 0.503906 11.9406 0.968972 11.1035 1.80609C10.2664 2.64321 9.80132 3.85238 9.80132 5.15456C9.80132 6.45675 10.6384 7.38688 11.1035 8.50304C11.243 8.78208 11.243 9.24714 11.243 9.80522H0.5V37.7092H11.243C11.243 37.1511 11.1965 36.686 11.1035 36.407C10.6384 35.2908 9.80132 34.3607 9.80132 33.0585C9.80132 31.7563 10.2664 30.5472 11.1035 29.71C11.9406 28.8729 13.1498 28.4079 14.452 28.4079C15.7542 28.4079 16.9633 28.8729 17.8004 29.71C18.6376 30.5472 19.1026 31.7563 19.1026 33.0585C19.1026 34.3607 18.2655 35.2908 17.8004 36.407C17.6609 36.686 17.6609 37.1511 17.6609 37.7092H28.4039V26.9662C28.962 26.9662 29.4271 27.0127 29.7061 27.1057C30.8223 27.5707 31.7524 28.4079 33.0546 28.4079C34.3568 28.4079 35.566 27.9428 36.4031 27.1057C37.2402 26.2686 37.7053 25.0594 37.7053 23.7572C37.7053 22.455 37.2402 21.2458 36.4031 20.4087C35.566 19.5716 34.3568 19.1065 33.0546 19.1065C31.7524 19.1065 30.8223 19.9437 29.7061 20.4087C29.4271 20.5482 28.962 20.5482 28.4039 20.5482V9.80522H17.6609C17.6609 9.24714 17.7074 8.78208 17.8004 8.50304C18.2655 7.38688 19.1026 6.45675 19.1026 5.15456C19.1026 3.85238 18.6376 2.64321 17.8004 1.80609C16.9633 0.968972 15.7542 0.503906 14.452 0.503906Z" fill="#0050C8" fill-opacity="0.5"/>
</svg>
