<svg width="35" height="38" viewBox="0 0 35 38" fill="none" xmlns="http://www.w3.org/2000/svg">
<path d="M20.5034 23.1428H0.1875V18.3824H20.4265C22.1691 18.3824 23.6107 18.1099 24.7511 17.5648C25.8915 17.0076 26.7372 16.2445 27.2882 15.2755C27.8391 14.2943 28.1146 13.1679 28.1146 11.896C28.1146 10.6363 27.8391 9.50978 27.2882 8.51653C26.7372 7.52328 25.8979 6.742 24.7703 6.1727C23.6427 5.59129 22.2204 5.30058 20.5034 5.30058H12.1233V37.7145H6.20346V0.503906H20.5034C23.4889 0.503906 25.9812 1.01264 27.9801 2.03012C29.9918 3.0476 31.4974 4.41634 32.4969 6.13636C33.5091 7.85638 34.0153 9.77021 34.0153 11.8778C34.0153 14.0097 33.5027 15.9296 32.4777 17.6375C31.4654 19.3333 29.9534 20.6778 27.9417 21.671C25.9427 22.6522 23.4633 23.1428 20.5034 23.1428ZM20.7917 26.2679V31.0464H0.1875V26.2679H20.7917Z" fill="#0050C8" fill-opacity="0.5"/>
</svg>
