<svg width="96" height="25" viewBox="0 0 96 25" fill="none" xmlns="http://www.w3.org/2000/svg">
<path fill-rule="evenodd" clip-rule="evenodd" d="M11.9105 25.0011C6.47264 25.0011 3.75368 25.0011 2.06434 23.3118C0.375 21.6224 0.375 18.9034 0.375 13.4655L0.375 12.5042C0.375 7.0663 0.375 4.34734 2.06434 2.65799C3.75368 0.96875 6.47264 0.96875 11.9105 0.96875L12.8718 0.96875C18.3097 0.96875 21.0287 0.96875 22.718 2.65799C24.4073 4.34731 24.4073 7.0663 24.4073 12.5042V13.4655C24.4073 18.9034 24.4073 21.6224 22.718 23.3118C21.0287 25.0011 18.3097 25.0011 12.8718 25.0011H11.9105Z" fill="#FAFCFF"/>
<path d="M14.3906 15.7858C13.7431 15.624 13.2891 15.0448 13.2891 14.3805V6.55418C13.2891 5.79965 14.0021 5.24628 14.7375 5.42999L19.3949 6.59343C20.0424 6.75515 20.4964 7.33436 20.4964 7.99866V15.825C20.4964 16.5795 19.7834 17.1329 19.048 16.9492L14.3906 15.7858Z" fill="#1C2750" fill-opacity="0.3"/>
<path d="M5.62494 19.3756C4.97743 19.2139 4.52344 18.6347 4.52344 17.9704V10.144C4.52344 9.38949 5.23641 8.83612 5.97185 9.01983L10.6292 10.1833C11.2767 10.345 11.7307 10.9242 11.7307 11.5885V19.4148C11.7307 20.1694 11.0177 20.7228 10.2823 20.539L5.62494 19.3756Z" fill="#1C2750" fill-opacity="0.3"/>
<path d="M10.0078 17.5748C9.36024 17.4131 8.90625 16.8339 8.90625 16.1696V8.34327C8.90625 7.58874 9.61925 7.03534 10.3547 7.21905L15.012 8.38249C15.6596 8.54424 16.1136 9.12345 16.1136 9.78775V17.614C16.1136 18.3686 15.4006 18.922 14.6651 18.7383L10.0078 17.5748Z" fill="#1C2750" fill-opacity="0.3"/>
<path d="M13.0543 18.3448C12.8504 18.2929 12.7052 18.1125 12.6981 17.9022L12.4955 11.9253C12.4369 11.1342 11.8497 10.5051 11.2361 10.3198C11.2016 10.3094 11.1648 10.3234 11.1444 10.3531C11.1237 10.3832 11.1317 10.4249 11.1606 10.4473C11.3122 10.5646 11.7292 10.9474 11.7292 11.6076L11.728 18.0087L13.0543 18.3448Z" fill="#FAFCFF"/>
<path d="M17.4372 16.5378C17.2334 16.4868 17.0881 16.307 17.081 16.0971L16.8783 10.1206C16.8197 9.32953 16.2325 8.7004 15.6189 8.51513C15.5844 8.50473 15.5476 8.51874 15.5272 8.54837C15.5065 8.57849 15.5145 8.62019 15.5434 8.64259C15.695 8.75988 16.112 9.14268 16.112 9.80291L16.1108 16.2062L17.4372 16.5378Z" fill="#FAFCFF"/>
<path d="M38.3628 14.7752C40.1827 14.3112 41.3786 12.9193 41.3786 11.0977C41.3786 8.84657 39.5759 7.26562 37.0454 7.26562H32.5391V19.3806H34.619V14.9299H36.0923L39.3159 19.3806H41.7598L38.3628 14.7752ZM37.0454 9.15591C38.3453 9.15591 39.2468 9.94638 39.2468 11.0977C39.2468 12.2491 38.3453 13.0396 37.0454 13.0396H34.619V9.15591H37.0454Z" fill="#FAFCFF"/>
<path d="M46.4423 19.5531C47.5342 19.5531 48.5394 18.986 49.1115 18.0408L49.51 19.3812H51.0008V10.4453H49.0075V15.6178C49.0075 16.8895 48.1582 17.7831 46.997 17.7831C45.853 17.7831 45.0555 16.8895 45.0555 15.6178V10.4453H43.0625V15.8412C43.0625 17.9893 44.5184 19.5531 46.4423 19.5531Z" fill="#FAFCFF"/>
<path d="M57.3551 19.5524C59.6603 19.5524 61.567 18.2464 61.567 16.0812C61.567 13.6582 59.5737 12.9536 57.8578 12.3694C56.5232 11.9226 55.362 11.5102 55.362 10.4275C55.362 9.48237 56.2457 8.98403 57.2857 8.98403C58.3778 8.98403 59.1578 9.55111 59.5912 10.5134L61.567 10.187C60.943 8.29665 59.3656 7.09375 57.2166 7.09375C54.998 7.09375 53.23 8.36539 53.23 10.5306C53.23 12.9708 55.2233 13.641 56.9391 14.2081C58.2565 14.6377 59.435 15.0501 59.435 16.1499C59.435 17.1123 58.5512 17.6622 57.3725 17.6622C56.0204 17.6622 55.2926 17.0263 54.6514 15.875L52.6406 16.2187C53.23 18.2636 55.102 19.5524 57.3551 19.5524Z" fill="#FAFCFF"/>
<path d="M66.9795 17.6623C66.3036 17.6623 65.9742 17.3358 65.9742 16.6656V12.1633H68.6606V10.4448H65.9742V7.86719H64.4837L63.9809 10.4448H62.5078V12.1633H63.9809V16.6656C63.9809 18.4184 65.0036 19.3808 66.9795 19.3808H68.6606L68.8341 17.6623H66.9795Z" fill="#FAFCFF"/>
<path d="M74.545 19.5491C77.3702 19.5491 79.3633 17.6245 79.3633 14.9093C79.3633 12.1942 77.3702 10.2695 74.545 10.2695C71.7199 10.2695 69.7266 12.1942 69.7266 14.9093C69.7266 17.6245 71.7199 19.5491 74.545 19.5491ZM74.545 17.7447C72.9158 17.7447 71.8065 16.5934 71.8065 14.9093C71.8065 13.2252 72.9158 12.0739 74.545 12.0739C76.1743 12.0739 77.2834 13.2252 77.2834 14.9093C77.2834 16.5934 76.1743 17.7447 74.545 17.7447Z" fill="#FAFCFF"/>
<path d="M83.0712 19.3812V14.1056C83.0712 12.9714 83.6258 12.3356 84.8392 12.3356H85.9832L85.8098 10.4453H85.4285C84.3711 10.4453 83.5565 10.7374 82.9499 11.7342L82.5687 10.4453H81.0781V19.3812H83.0712Z" fill="#FAFCFF"/>
<path d="M95.8048 14.8062C95.8048 12.2285 93.8637 10.2695 91.1251 10.2695C88.3867 10.2695 86.4453 12.2114 86.4453 14.9093C86.4453 17.6073 88.3867 19.5491 91.1251 19.5491C92.9971 19.5491 94.7649 18.6727 95.4411 16.9714L93.569 16.6621C93.1359 17.298 92.3038 17.7447 91.2466 17.7447C89.7214 17.7447 88.7161 16.8168 88.5252 15.442H95.7701C95.7876 15.253 95.8048 15.0468 95.8048 14.8062ZM91.1251 11.988C92.3731 11.988 93.309 12.7785 93.6384 13.8954H88.6467C88.9761 12.7441 89.912 11.988 91.1251 11.988Z" fill="#FAFCFF"/>
</svg>
