<svg width="86" height="22" viewBox="0 0 86 22" fill="none" xmlns="http://www.w3.org/2000/svg">
<path fill-rule="evenodd" clip-rule="evenodd" d="M10.4574 21.6879C5.6198 21.6879 3.201 21.6879 1.69816 20.1851C0.195313 18.6822 0.195313 16.2634 0.195313 11.4258L0.195313 10.5706C0.195312 5.73301 0.195312 3.31421 1.69816 1.81135C3.201 0.308594 5.6198 0.308594 10.4574 0.308594L11.3126 0.308594C16.1501 0.308594 18.5689 0.308593 20.0718 1.81135C21.5746 3.31418 21.5746 5.73301 21.5746 10.5706V11.4258C21.5746 16.2634 21.5746 18.6822 20.0718 20.1851C18.5689 21.6879 16.1501 21.6879 11.3126 21.6879H10.4574Z" fill="#FAFCFF"/>
<path d="M12.6518 13.4863C12.0758 13.3424 11.6719 12.8271 11.6719 12.2362V5.27382C11.6719 4.60258 12.3062 4.1103 12.9604 4.27373L17.1036 5.30873C17.6797 5.4526 18.0836 5.96787 18.0836 6.55884V13.5212C18.0836 14.1924 17.4493 14.6847 16.795 14.5213L12.6518 13.4863Z" fill="#1C2750" fill-opacity="0.3"/>
<path d="M4.8549 16.6855C4.27887 16.5416 3.875 16.0263 3.875 15.4354V8.47304C3.875 7.8018 4.50926 7.30952 5.16352 7.47295L9.30675 8.50795C9.88276 8.65182 10.2867 9.16709 10.2867 9.75806V16.7204C10.2867 17.3916 9.65237 17.8839 8.99811 17.7205L4.8549 16.6855Z" fill="#1C2750" fill-opacity="0.3"/>
<path d="M8.76115 15.0839C8.18512 14.9401 7.78125 14.4248 7.78125 13.8338V6.8715C7.78125 6.20026 8.41554 5.70795 9.06979 5.87138L13.213 6.90639C13.789 7.05028 14.1929 7.56555 14.1929 8.15652V15.1188C14.1929 15.7901 13.5586 16.2824 12.9044 16.1189L8.76115 15.0839Z" fill="#1C2750" fill-opacity="0.3"/>
<path d="M11.4672 15.7671C11.2858 15.7209 11.1567 15.5605 11.1503 15.3734L10.9701 10.0562C10.9179 9.35253 10.3956 8.79285 9.84968 8.62804C9.81902 8.61878 9.78629 8.63125 9.76814 8.65761C9.7497 8.6844 9.75682 8.7215 9.78255 8.74142C9.91736 8.84577 10.2884 9.18631 10.2884 9.77365L10.2873 15.4681L11.4672 15.7671Z" fill="#FAFCFF"/>
<path d="M15.3657 14.1596C15.1844 14.1142 15.0551 13.9543 15.0488 13.7675L14.8685 8.45078C14.8164 7.74706 14.294 7.18739 13.7481 7.02257C13.7175 7.01331 13.6847 7.02578 13.6666 7.05214C13.6481 7.07893 13.6553 7.11603 13.681 7.13595C13.8158 7.2403 14.1868 7.58084 14.1868 8.16819L14.1857 13.8646L15.3657 14.1596Z" fill="#FAFCFF"/>
<path d="M33.9855 12.5868C35.6045 12.1741 36.6684 10.9358 36.6684 9.31533C36.6684 7.31267 35.0647 5.90625 32.8136 5.90625H28.8047V16.6838H30.655V12.7244H31.9657L34.8334 16.6838H37.0075L33.9855 12.5868ZM32.8136 7.58785C33.97 7.58785 34.7719 8.29106 34.7719 9.31533C34.7719 10.3396 33.97 11.0428 32.8136 11.0428H30.655V7.58785H32.8136Z" fill="#FAFCFF"/>
<path d="M41.1708 16.8406C42.1421 16.8406 43.0364 16.3361 43.5453 15.4953L43.8998 16.6877H45.226V8.73828H43.4528V13.3398C43.4528 14.471 42.6972 15.266 41.6642 15.266C40.6465 15.266 39.9371 14.471 39.9371 13.3398V8.73828H38.1641V13.5385C38.1641 15.4494 39.4592 16.8406 41.1708 16.8406Z" fill="#FAFCFF"/>
<path d="M50.8815 16.8372C52.9322 16.8372 54.6285 15.6754 54.6285 13.7492C54.6285 11.5937 52.8552 10.9669 51.3288 10.4471C50.1415 10.0497 49.1085 9.68277 49.1085 8.71965C49.1085 7.87884 49.8946 7.43551 50.8198 7.43551C51.7913 7.43551 52.4852 7.93999 52.8707 8.79608L54.6285 8.50564C54.0733 6.82401 52.6701 5.75391 50.7583 5.75391C48.7846 5.75391 47.2118 6.88516 47.2118 8.81139C47.2118 10.9822 48.985 11.5784 50.5115 12.0829C51.6835 12.4651 52.7318 12.8319 52.7318 13.8103C52.7318 14.6664 51.9456 15.1556 50.897 15.1556C49.6942 15.1556 49.0468 14.59 48.4763 13.5657L46.6875 13.8715C47.2118 15.6907 48.8772 16.8372 50.8815 16.8372Z" fill="#FAFCFF"/>
<path d="M59.4468 15.1591C58.8455 15.1591 58.5525 14.8686 58.5525 14.2724V10.2672H60.9423V8.73841H58.5525V6.44531H57.2265L56.7792 8.73841H55.4688V10.2672H56.7792V14.2724C56.7792 15.8318 57.689 16.6878 59.4468 16.6878H60.9423L61.0966 15.1591H59.4468Z" fill="#FAFCFF"/>
<path d="M66.1694 16.8372C68.6826 16.8372 70.4557 15.125 70.4557 12.7096C70.4557 10.2942 68.6826 8.58203 66.1694 8.58203C63.6561 8.58203 61.8828 10.2942 61.8828 12.7096C61.8828 15.125 63.6561 16.8372 66.1694 16.8372ZM66.1694 15.232C64.7199 15.232 63.7331 14.2078 63.7331 12.7096C63.7331 11.2114 64.7199 10.1872 66.1694 10.1872C67.6188 10.1872 68.6054 11.2114 68.6054 12.7096C68.6054 14.2078 67.6188 15.232 66.1694 15.232Z" fill="#FAFCFF"/>
<path d="M73.7652 16.6877V11.9945C73.7652 10.9855 74.2586 10.4199 75.3381 10.4199H76.3558L76.2015 8.73828H75.8623C74.9216 8.73828 74.1969 8.99816 73.6573 9.88484L73.3182 8.73828H71.9922V16.6877H73.7652Z" fill="#FAFCFF"/>
<path d="M85.0841 12.6179C85.0841 10.3248 83.3572 8.58203 80.921 8.58203C78.4849 8.58203 76.7578 10.3095 76.7578 12.7096C76.7578 15.1097 78.4849 16.8372 80.921 16.8372C82.5864 16.8372 84.1589 16.0575 84.7605 14.5441L83.0951 14.2689C82.7098 14.8346 81.9695 15.232 81.0291 15.232C79.6722 15.232 78.7779 14.4065 78.6081 13.1835H85.0532C85.0688 13.0153 85.0841 12.8319 85.0841 12.6179ZM80.921 10.1108C82.0312 10.1108 82.8638 10.814 83.1568 11.8077H78.7162C79.0092 10.7834 79.8418 10.1108 80.921 10.1108Z" fill="#FAFCFF"/>
</svg>
