<svg width="146" height="36" viewBox="0 0 146 36" fill="none" xmlns="http://www.w3.org/2000/svg">
<path d="M44.959 26.9648H36.5625V35.0357H44.959V26.9648Z" fill="#B567DA"/>
<path d="M28.1727 0.0664264V3.40768C25.2702 1.28203 21.6766 0.0221422 17.7951 0C17.0695 0 16.3669 0.0442844 15.6758 0.110711C6.86465 1.09604 0.0115179 8.51367 0 17.5145V17.5588C0.0230357 26.5485 6.86465 33.944 15.6758 34.9293C16.3669 34.9957 17.081 35.04 17.7951 35.04H28.1727V26.9692H36.5577V0.110689L28.1727 0.0664264ZM18.303 26.957C12.8251 26.957 8.385 22.7444 8.385 17.5466C8.385 12.3487 12.8251 8.13614 18.303 8.13614C23.7809 8.13614 28.2211 12.3487 28.2211 17.5466C28.2211 22.7444 23.7809 26.957 18.303 26.957Z" fill="#B567DA"/>
<path d="M73.0811 2.16406H68.12L61.6953 17.5178H64.8007L66.5011 13.3722H74.6978L76.5882 17.5178H79.6936L73.08 2.16406H73.0811ZM67.2579 11.6053L70.4936 3.9279H70.7086L73.9443 11.6053H67.2579Z" fill="#B567DA"/>
<path d="M95.1574 5.11039C94.8415 4.47374 94.3887 3.94146 93.798 3.51251C93.2084 3.06998 92.482 2.73809 91.6199 2.51683C90.7708 2.282 89.8077 2.16406 88.7294 2.16406H80.9648V17.5178H84.092V12.3306H88.7294C89.8077 12.3306 90.7718 12.22 91.6199 11.9987C92.482 11.7639 93.2084 11.432 93.798 11.0031C94.3876 10.5605 94.8404 10.0283 95.1574 9.40517C95.4734 8.76852 95.6319 8.04942 95.6319 7.24682C95.6319 6.44423 95.4745 5.73243 95.1574 5.10935V5.11039ZM91.3614 9.92389C90.7425 10.4906 89.8663 10.7745 88.7294 10.7745H84.092V3.7202H88.7294C89.8663 3.7202 90.7425 4.01035 91.3614 4.59168C91.9945 5.1584 92.3104 6.0445 92.3104 7.24787C92.3104 8.45124 91.9945 9.34359 91.3614 9.92493V9.92389Z" fill="#B567DA"/>
<path d="M106.384 9.34151L112.804 17.5178H109.245L103.815 10.5731H100.041L100.027 17.5178H96.8984V2.16406H100.027L100.016 8.8061H103.574L108.547 2.16406H111.998L106.384 9.34151Z" fill="#B567DA"/>
<path d="M130.352 2.16406L121.94 17.5178H118.594L121.286 12.435H119.558L113.406 2.16406H116.968L122.041 10.6712H122.257L127.006 2.16406H130.352Z" fill="#B567DA"/>
<path d="M139.135 16.21C140.172 16.21 141.165 16.043 142.111 15.7101C143.071 15.3625 143.988 14.8052 144.857 14.0381L146.001 15.3406C145.131 16.1077 144.078 16.7162 142.842 17.165C141.606 17.6148 140.294 17.8382 138.905 17.8382C137.517 17.8382 136.173 17.6649 135.014 17.3174C133.869 16.9698 132.884 16.4553 132.061 15.7748C131.252 15.0943 130.627 14.2552 130.184 13.2564C129.742 12.2576 129.52 11.1064 129.52 9.80384C129.52 8.50132 129.733 7.35013 130.16 6.35132C130.602 5.35251 131.221 4.51234 132.015 3.83186C132.824 3.15137 133.792 2.63788 134.921 2.29033C136.051 1.94278 137.303 1.76953 138.675 1.76953C140.048 1.76953 141.377 1.99392 142.612 2.44271C143.849 2.8915 144.901 3.49997 145.771 4.26708L144.626 5.5696C143.756 4.80249 142.841 4.25247 141.879 3.91953C140.934 3.57198 139.941 3.39873 138.904 3.39873C138.08 3.39873 137.31 3.52919 136.592 3.79011C135.875 4.03642 135.257 4.41946 134.738 4.9413C134.219 5.4621 133.807 6.12797 133.502 6.93892C133.212 7.73525 133.068 8.69023 133.068 9.80489C133.068 10.9195 133.212 11.8829 133.502 12.6928C133.807 13.4891 134.228 14.1477 134.762 14.6685C135.311 15.1903 135.952 15.5807 136.685 15.8405C137.433 16.0868 138.248 16.21 139.134 16.21H139.135Z" fill="#B567DA"/>
<path d="M68.0201 32.2853C68.7031 32.2853 69.3578 32.1716 69.9854 31.9451C70.613 31.7186 71.2135 31.3491 71.7857 30.8377L72.5393 31.7061C71.967 32.2175 71.2743 32.6235 70.461 32.922C69.6478 33.2215 68.7835 33.3708 67.8703 33.3708C66.9571 33.3708 66.0755 33.2549 65.3176 33.0232C64.5597 32.7915 63.9114 32.4492 63.374 31.9952C62.8365 31.5412 62.4228 30.9818 62.1318 30.3159C61.8408 29.65 61.6953 28.8829 61.6953 28.0135C61.6953 27.1441 61.8386 26.377 62.1242 25.7111C62.4109 25.0453 62.817 24.4858 63.3447 24.0318C63.8724 23.5778 64.5065 23.2355 65.2502 23.0038C65.9929 22.7721 66.8171 22.6562 67.7205 22.6562C68.6238 22.6562 69.4979 22.8065 70.3112 23.105C71.1245 23.4046 71.8172 23.8095 72.3894 24.3209L71.6359 25.1893C71.0636 24.6779 70.4632 24.3084 69.8356 24.0819C69.208 23.8554 68.5522 23.7417 67.8703 23.7417C67.3285 23.7417 66.8203 23.8262 66.3491 23.9953C65.8768 24.1644 65.4707 24.4222 65.1286 24.7697C64.7877 25.1173 64.5184 25.5587 64.323 26.0942C64.1275 26.6296 64.0298 27.2694 64.0298 28.0125C64.0298 28.7556 64.1275 29.3953 64.323 29.9308C64.5184 30.4662 64.7953 30.9076 65.1514 31.2552C65.5076 31.6027 65.93 31.8616 66.4164 32.0296C66.9028 32.1987 67.4381 32.2832 68.0201 32.2832V32.2853Z" fill="#B567DA"/>
<path d="M79.1724 23.0596C79.9097 23.0596 80.5699 23.1379 81.154 23.2934C81.7382 23.4489 82.2322 23.6754 82.6351 23.9729C83.0379 24.2703 83.3474 24.6335 83.5634 25.0635C83.7795 25.4935 83.8881 25.982 83.8881 26.5289C83.8881 27.2845 83.6916 27.9222 83.2985 28.4409C82.9054 28.9607 82.3408 29.3573 81.6036 29.6307L84.0347 32.9726H81.6036L79.4374 29.9981H76.0041V32.9726H73.8672V23.0586H79.1713L79.1724 23.0596ZM76.0051 24.1221V28.9377H79.1724C79.9488 28.9377 80.5482 28.7415 80.9705 28.3501C81.3929 27.9587 81.6046 27.3513 81.6046 26.5299C81.6046 25.7085 81.3929 25.1021 80.9705 24.7097C80.5482 24.3183 79.9488 24.1221 79.1724 24.1221H76.0051Z" fill="#B567DA"/>
<path d="M92.6695 31.5761H92.8171L96.6576 23.0586H99.8325V32.9956H97.6913V25.0458H97.5437L93.9996 32.9956H91.4892L87.9451 25.0458H87.7975V32.9956H85.6562V23.0586H88.8311L92.6706 31.5761H92.6695Z" fill="#B567DA"/>
</svg>
