<svg width="120" height="101" viewBox="0 0 120 101" fill="none" xmlns="http://www.w3.org/2000/svg">
<path d="M120 77.7383H97.5859V101H120V77.7383Z" fill="#DDEBFF" fill-opacity="0.5"/>
<path d="M75.2058 0.191453V9.82155C67.4577 3.69505 57.8648 0.0638177 47.5033 0C45.5662 0 43.6907 0.127635 41.8459 0.319089C18.3249 3.15898 0.0307465 24.5379 0 50.4798V50.6075C0.0614929 76.5175 18.3249 97.8326 41.8459 100.672C43.6907 100.864 45.597 100.992 47.5033 100.992H75.2058V77.73H97.5892V-6.20786e-05L75.2058 0.191453ZM48.8592 77.6949C34.2362 77.6949 22.3834 65.5536 22.3834 50.5724C22.3834 35.5912 34.2362 23.4498 48.8592 23.4498C63.4822 23.4498 75.335 35.5912 75.335 50.5724C75.335 65.5536 63.4822 77.6949 48.8592 77.6949Z" fill="#DDEBFF" fill-opacity="0.5"/>
</svg>
