<svg width="320" height="78" viewBox="0 0 320 78" fill="none" xmlns="http://www.w3.org/2000/svg">
<path d="M98.8854 59.9023H80.4141V77.614H98.8854V59.9023Z" fill="#E27E55"/>
<path d="M61.9766 0.860618V8.19311C55.5914 3.5283 47.686 0.763435 39.1471 0.714844C37.5508 0.714844 36.0052 0.812027 34.4849 0.957802C15.1014 3.12013 0.0253379 19.3983 0 39.1509V39.2481C0.0506759 58.9763 15.1014 75.2059 34.4849 77.3682C36.0052 77.514 37.5762 77.6112 39.1471 77.6112H61.9766V59.8995H80.4226V0.714796L61.9766 0.860618ZM40.2645 59.8728C28.2138 59.8728 18.446 50.6282 18.446 39.2213C18.446 27.8144 28.2138 18.5699 40.2645 18.5699C52.3153 18.5699 62.083 27.8144 62.083 39.2213C62.083 50.6282 52.3153 59.8728 40.2645 59.8728Z" fill="#E27E55"/>
<path d="M160.053 4.77734H149.171L135.078 38.3747H141.89L145.62 29.3033H163.6L167.747 38.3747H174.559L160.051 4.77734H160.053ZM147.28 25.4368L154.378 8.63701H154.849L161.947 25.4368H147.28Z" fill="#E27E55"/>
<path d="M208.484 11.2246C207.791 9.83145 206.798 8.6667 205.502 7.72804C204.209 6.7597 202.615 6.03345 200.724 5.54928C198.861 5.03542 196.749 4.77734 194.384 4.77734H177.352V38.3747H184.211V27.0241H194.384C196.749 27.0241 198.864 26.782 200.724 26.2978C202.615 25.784 204.209 25.0577 205.502 24.119C206.795 23.1507 207.788 21.986 208.484 20.6225C209.177 19.2294 209.525 17.6558 209.525 15.8996C209.525 14.1433 209.179 12.5857 208.484 11.2223V11.2246ZM200.157 21.7576C198.8 22.9977 196.877 23.6189 194.384 23.6189H184.211V8.18252H194.384C196.877 8.18252 198.8 8.81743 200.157 10.0895C201.546 11.3296 202.239 13.2686 202.239 15.9018C202.239 18.5351 201.546 20.4878 200.157 21.7599V21.7576Z" fill="#E27E55"/>
<path d="M233.102 20.4832L247.185 38.3747H239.378L227.469 23.1781H219.19L219.159 38.3747H212.297V4.77734H219.159L219.133 19.3116H226.94L237.849 4.77734H245.418L233.102 20.4832Z" fill="#E27E55"/>
<path d="M285.756 4.77734L267.304 38.3747H259.966L265.868 27.2525H262.081L248.586 4.77734H256.398L267.526 23.3928H268L278.418 4.77734H285.756Z" fill="#E27E55"/>
<path d="M304.945 35.517C307.219 35.517 309.396 35.1516 311.471 34.423C313.579 33.6625 315.589 32.4429 317.494 30.7643L320.005 33.6145C318.097 35.2931 315.786 36.6246 313.076 37.6067C310.363 38.591 307.486 39.0797 304.44 39.0797C301.393 39.0797 298.447 38.7006 295.903 37.9401C293.393 37.1796 291.233 36.0537 289.427 34.5646C287.653 33.0756 286.281 31.2394 285.309 29.0537C284.34 26.8681 283.852 24.3491 283.852 21.4988C283.852 18.6486 284.321 16.1296 285.257 13.944C286.226 11.7583 287.584 9.91986 289.325 8.43081C291.099 6.94175 293.224 5.81811 295.701 5.0576C298.178 4.29708 300.924 3.91797 303.935 3.91797C306.945 3.91797 309.861 4.40899 312.571 5.39104C315.284 6.37308 317.592 7.70455 319.5 9.38316L316.989 12.2334C315.079 10.5548 313.074 9.35119 310.963 8.62265C308.889 7.86213 306.712 7.48302 304.437 7.48302C302.63 7.48302 300.941 7.7685 299.366 8.33945C297.792 8.87843 296.437 9.7166 295.298 10.8585C294.16 11.9981 293.257 13.4552 292.588 15.2297C291.952 16.9723 291.635 19.062 291.635 21.5011C291.635 23.9403 291.952 26.0482 292.588 27.8205C293.257 29.563 294.179 31.0041 295.351 32.1438C296.556 33.2857 297.961 34.1398 299.569 34.7085C301.21 35.2475 302.999 35.517 304.942 35.517H304.945Z" fill="#E27E55"/>
<path d="M149.172 59.1737C150.832 59.1737 152.287 59.329 153.54 59.6396C154.79 59.9502 155.836 60.3955 156.677 60.9733C157.517 61.5534 158.149 62.2408 158.568 63.0356C158.989 63.8327 159.199 64.7165 159.199 65.6871C159.199 66.6578 158.989 67.5439 158.568 68.3387C158.146 69.1357 157.517 69.8231 156.677 70.4009C155.836 70.981 154.79 71.4241 153.54 71.7347C152.289 72.0453 150.834 72.2006 149.172 72.2006H137.203V50.4883H156.612V52.8155H141.895V59.1737H149.174H149.172ZM141.893 61.5009V69.8757H149.172C150.725 69.8757 151.949 69.508 152.842 68.7749C153.737 68.0418 154.185 67.0117 154.185 65.6894C154.185 64.3671 153.737 63.3371 152.842 62.604C151.946 61.8709 150.722 61.5032 149.172 61.5032H141.893V61.5009Z" fill="#E27E55"/>
<path d="M181.203 72.2084V54.5293H180.879L168.749 72.2084H162.602V50.4961H167.291V68.1752H167.615L179.746 50.4961H185.893V72.2084H181.203Z" fill="#E27E55"/>
<path d="M188.789 70.3471H189.758C190.406 70.3471 190.976 70.089 191.473 69.5706C191.969 69.0544 192.259 68.1752 192.347 66.9351L193.479 50.4961H212.726V72.2084H208.036V52.8233H197.847L196.878 66.9351C196.728 68.9631 196.139 70.4247 195.115 71.3246C194.091 72.2244 192.683 72.6743 190.895 72.6743C190.332 72.6743 189.837 72.6218 189.406 72.519C189.168 72.4779 188.963 72.4254 188.791 72.3637V70.3471H188.789Z" fill="#E27E55"/>
<path d="M215.648 70.3471H216.618C217.266 70.3471 217.835 70.089 218.333 69.5706C218.828 69.0544 219.119 68.1752 219.207 66.9351L220.338 50.4961H239.585V72.2084H234.896V52.8233H224.706L223.737 66.9351C223.587 68.9631 222.999 70.4247 221.974 71.3246C220.95 72.2244 219.543 72.6743 217.754 72.6743C217.192 72.6743 216.696 72.6218 216.265 72.519C216.027 72.4779 215.822 72.4254 215.651 72.3637V70.3471H215.648Z" fill="#E27E55"/>
<path d="M262.711 72.2084V54.5293H262.387L250.257 72.2084H244.109V50.4961H248.799V68.1752H249.123L261.253 50.4961H267.401V72.2084H262.711Z" fill="#E27E55"/>
<path d="M294.579 50.4961V72.2084H289.889V62.7488H276.627V72.2084H271.938V50.4961H276.627V60.4216H289.889V50.4961H294.579Z" fill="#E27E55"/>
<path d="M303.807 52.8155V72.2006H299.117V50.4883H317.878V52.8155H303.807Z" fill="#E27E55"/>
</svg>
