<svg width="133" height="34" viewBox="0 0 133 34" fill="none" xmlns="http://www.w3.org/2000/svg">
<path d="M41 25.9883H33V33.9883H41V25.9883Z" fill="#DDEBFF" fill-opacity="0.5"/>
<path d="M25.431 0.0781841V3.22491C22.811 1.22302 19.5671 0.0364781 16.0633 0.015625C15.4083 0.015625 14.7741 0.0573312 14.1503 0.11989C6.1966 1.04785 0.010397 8.03363 0 16.5104V16.5521C0.020794 25.0185 6.1966 31.9834 14.1503 32.9114C14.7741 32.9739 15.4187 33.0156 16.0633 33.0156H25.431V25.4147H33V0.0156047L25.431 0.0781841ZM16.5218 25.4032C11.577 25.4032 7.569 21.4359 7.569 16.5406C7.569 11.6454 11.577 7.67809 16.5218 7.67809C21.4666 7.67809 25.4747 11.6454 25.4747 16.5406C25.4747 21.4359 21.4666 25.4032 16.5218 25.4032Z" fill="#DDEBFF" fill-opacity="0.5"/>
<path d="M65.4107 2H61.0005L55.2891 17H58.0497L59.5613 12.95H66.8479L68.5284 17H71.2891L65.4097 2H65.4107ZM60.234 11.2237L63.1105 3.7232H63.3016L66.1781 11.2237H60.234Z" fill="#DDEBFF" fill-opacity="0.5"/>
<path d="M85.8685 4.87846C85.5884 4.25647 85.1871 3.73646 84.6636 3.31738C84.141 2.88505 83.4972 2.5608 82.733 2.34464C81.9804 2.11522 81.1268 2 80.1711 2H73.2891V17H76.0608V11.9324H80.1711C81.1268 11.9324 81.9814 11.8243 82.733 11.6081C83.4972 11.3787 84.141 11.0545 84.6636 10.6354C85.1862 10.203 85.5875 9.68303 85.8685 9.0743C86.1486 8.45231 86.2891 7.74978 86.2891 6.96567C86.2891 6.18156 86.1495 5.48617 85.8685 4.87744V4.87846ZM82.504 9.58106C81.9554 10.1347 81.1788 10.4121 80.1711 10.4121H76.0608V3.52029H80.1711C81.1788 3.52029 81.9554 3.80375 82.504 4.3717C83.0651 4.92536 83.3451 5.79104 83.3451 6.96669C83.3451 8.14234 83.0651 9.01414 82.504 9.58208V9.58106Z" fill="#DDEBFF" fill-opacity="0.5"/>
<path d="M95.6376 9.0121L101.289 17H98.1561L93.3773 10.2153H90.055L90.0426 17H87.2891V2H90.0426L90.0321 8.48902H93.1651L97.5425 2H100.58L95.6376 9.0121Z" fill="#DDEBFF" fill-opacity="0.5"/>
<path d="M117.289 2L109.843 17H106.882L109.263 12.0343H107.735L102.289 2H105.442L109.932 10.3111H110.124L114.328 2H117.289Z" fill="#DDEBFF" fill-opacity="0.5"/>
<path d="M126.041 15.4801C126.984 15.4801 127.888 15.3242 128.748 15.0134C129.623 14.689 130.457 14.1687 131.247 13.4527L132.289 14.6685C131.498 15.3846 130.539 15.9526 129.414 16.3716C128.289 16.7915 127.095 17 125.831 17C124.567 17 123.345 16.8383 122.289 16.5138C121.248 16.1894 120.352 15.7091 119.602 15.0738C118.866 14.4386 118.297 13.6553 117.894 12.7229C117.492 11.7905 117.289 10.7159 117.289 9.5C117.289 8.2841 117.484 7.20947 117.872 6.27708C118.274 5.3447 118.838 4.56041 119.56 3.92518C120.296 3.28995 121.178 2.8106 122.205 2.48617C123.233 2.16173 124.373 2 125.622 2C126.871 2 128.08 2.20947 129.205 2.62841C130.33 3.04735 131.288 3.61535 132.08 4.33145L131.038 5.54735C130.245 4.83125 129.413 4.31781 128.538 4.00701C127.677 3.68258 126.774 3.52085 125.83 3.52085C125.08 3.52085 124.379 3.64263 123.726 3.8862C123.073 4.11613 122.511 4.47369 122.038 4.96083C121.566 5.447 121.191 6.06859 120.914 6.8256C120.65 7.56898 120.519 8.46044 120.519 9.50097C120.519 10.5415 120.65 11.4408 120.914 12.1968C121.191 12.9402 121.574 13.5549 122.06 14.0411C122.56 14.5283 123.143 14.8926 123.81 15.1352C124.491 15.3652 125.233 15.4801 126.04 15.4801H126.041Z" fill="#DDEBFF" fill-opacity="0.5"/>
<path d="M61.1862 25.6002C61.8655 25.6002 62.4609 25.6646 62.9735 25.7933C63.4852 25.9221 63.913 26.1067 64.257 26.3462C64.601 26.5866 64.8593 26.8716 65.0308 27.201C65.2033 27.5314 65.2891 27.8978 65.2891 28.3001C65.2891 28.7024 65.2033 29.0697 65.0308 29.3992C64.8583 29.7296 64.601 30.0145 64.257 30.254C63.913 30.4945 63.4852 30.6781 62.9735 30.8069C62.4619 30.9356 61.8664 31 61.1862 31H56.2891V22H64.2307V22.9647H58.2089V25.6002H61.1872H61.1862ZM58.208 26.5648V30.0363H61.1862C61.8216 30.0363 62.3225 29.8839 62.688 29.58C63.0544 29.2761 63.2376 28.8492 63.2376 28.301C63.2376 27.7529 63.0544 27.326 62.688 27.0221C62.3215 26.7182 61.8206 26.5658 61.1862 26.5658H58.208V26.5648Z" fill="#DDEBFF" fill-opacity="0.5"/>
<path d="M75.2756 31V23.6718H75.1365L69.9284 31H67.2891V22H69.3026V29.3282H69.4416L74.6497 22H77.2891V31H75.2756Z" fill="#DDEBFF" fill-opacity="0.5"/>
<path d="M77.2891 30.9507H77.694C77.9647 30.9507 78.2025 30.8343 78.4105 30.6006C78.6174 30.3678 78.7388 29.9714 78.7756 29.4122L79.2483 22H87.2891V31.7899H85.3299V23.0493H81.0731L80.6682 29.4122C80.6055 30.3266 80.3597 30.9857 79.9319 31.3914C79.504 31.7971 78.9159 32 78.1687 32C77.9338 32 77.7269 31.9763 77.5468 31.93C77.4473 31.9114 77.3617 31.8878 77.2901 31.86V30.9507H77.2891Z" fill="#DDEBFF" fill-opacity="0.5"/>
<path d="M88.2891 30.9507H88.694C88.9647 30.9507 89.2025 30.8343 89.4105 30.6006C89.6174 30.3678 89.7388 29.9714 89.7756 29.4122L90.2483 22H98.2891V31.7899H96.3299V23.0493H92.0731L91.6682 29.4122C91.6055 30.3266 91.3597 30.9857 90.9318 31.3914C90.504 31.7971 89.9159 32 89.1687 32C88.9338 32 88.7269 31.9763 88.5468 31.93C88.4473 31.9114 88.3617 31.8878 88.2901 31.86V30.9507H88.2891Z" fill="#DDEBFF" fill-opacity="0.5"/>
<path d="M108.276 31V23.6718H108.136L102.928 31H100.289V22H102.303V29.3282H102.442L107.65 22H110.289V31H108.276Z" fill="#DDEBFF" fill-opacity="0.5"/>
<path d="M121.289 22V31H119.425V27.0789H114.153V31H112.289V22H114.153V26.1142H119.425V22H121.289Z" fill="#DDEBFF" fill-opacity="0.5"/>
<path d="M125.289 22.9647V31H123.289V22H131.289V22.9647H125.289Z" fill="#DDEBFF" fill-opacity="0.5"/>
<path opacity="0.4" d="M53.2891 22H52.2891V23H53.2891V22Z" fill="#DDEBFF" fill-opacity="0.5"/>
<path d="M52.3822 22.2901C52.4425 22.2901 52.488 22.3365 52.488 22.3978C52.488 22.4591 52.4435 22.5046 52.3832 22.5046C52.3229 22.5046 52.2734 22.4591 52.2734 22.3968C52.2734 22.3345 52.3189 22.2891 52.3822 22.2891V22.2901ZM52.4593 22.3988C52.4593 22.3504 52.4267 22.3158 52.3792 22.3158C52.3318 22.3158 52.3011 22.3514 52.3011 22.3988C52.3011 22.4463 52.3357 22.4799 52.3822 22.4799C52.4287 22.4799 52.4593 22.4463 52.4593 22.3988Z" fill="#DDEBFF" fill-opacity="0.5"/>
<path d="M52.5433 22.4155C52.5463 22.458 52.569 22.4818 52.6046 22.4818C52.6392 22.4818 52.6649 22.4551 52.6649 22.4195C52.6649 22.3789 52.6392 22.3562 52.5927 22.3562H52.5858V22.3315H52.6096C52.6303 22.3315 52.6471 22.3127 52.6471 22.288C52.6471 22.2632 52.6303 22.2445 52.6046 22.2445C52.5779 22.2445 52.5621 22.2623 52.5621 22.2929H52.5344C52.5364 22.2474 52.5631 22.2188 52.6046 22.2188C52.6461 22.2188 52.6748 22.2474 52.6748 22.2889C52.6748 22.3117 52.6659 22.3285 52.6461 22.3423C52.6768 22.3582 52.6926 22.3829 52.6926 22.4175C52.6926 22.4679 52.654 22.5065 52.6056 22.5065C52.5522 22.5065 52.5176 22.4709 52.5156 22.4145H52.5433V22.4155Z" fill="#DDEBFF" fill-opacity="0.5"/>
</svg>
