<svg width="140" height="35" viewBox="0 0 140 35" fill="none" xmlns="http://www.w3.org/2000/svg">
<path d="M43.1632 26.9375H35.1016V34.9991H43.1632V26.9375Z" fill="#E27E55"/>
<path d="M27.049 0.0663505V3.40379C24.2623 1.28057 20.812 0.0221169 17.0853 0C16.3886 0 15.7141 0.0442338 15.0506 0.110585C6.59085 1.09479 0.0110585 8.50395 0 17.4945V17.5387C0.0221169 26.5182 6.59085 33.9052 15.0506 34.8894C15.7141 34.9558 16.3997 35 17.0853 35H27.049V26.9384H35.0996V-2.15142e-05L27.049 0.0663505ZM17.573 26.9262C12.3136 26.9262 8.05056 22.7185 8.05056 17.5265C8.05056 12.3346 12.3136 8.12686 17.573 8.12686C22.8324 8.12686 27.0955 12.3346 27.0955 17.5265C27.0955 22.7185 22.8324 26.9262 17.573 26.9262Z" fill="#E27E55"/>
<path d="M69.8534 1.84375H65.1039L58.9531 17.1358H61.9261L63.554 13.007H71.4012L73.2109 17.1358H76.1839L69.8523 1.84375H69.8534ZM64.2785 11.2471L67.3762 3.60051H67.582L70.6798 11.2471H64.2785Z" fill="#E27E55"/>
<path d="M90.9858 4.77826C90.6833 4.14417 90.2498 3.61402 89.6843 3.18679C89.1199 2.74604 88.4244 2.41548 87.5991 2.1951C86.7862 1.96121 85.8641 1.84375 84.8319 1.84375H77.3984V17.1358H80.3922V11.9695H84.8319C85.8641 11.9695 86.7872 11.8593 87.5991 11.639C88.4244 11.4051 89.1199 11.0745 89.6843 10.6473C90.2488 10.2065 90.6822 9.67639 90.9858 9.05581C91.2883 8.42171 91.44 7.7055 91.44 6.90612C91.44 6.10674 91.2893 5.3978 90.9858 4.77722V4.77826ZM87.3517 9.57244C86.7592 10.1369 85.9203 10.4196 84.8319 10.4196H80.3922V3.39365H84.8319C85.9203 3.39365 86.7592 3.68263 87.3517 4.26163C87.9577 4.82608 88.2602 5.70861 88.2602 6.90716C88.2602 8.1057 87.9577 8.99448 87.3517 9.57348V9.57244Z" fill="#E27E55"/>
<path d="M101.74 8.9924L107.887 17.1358H104.479L99.2818 10.219H95.6685L95.655 17.1358H92.6602V1.84375H95.655L95.6435 8.45913H99.051L103.812 1.84375H107.115L101.74 8.9924Z" fill="#E27E55"/>
<path d="M124.715 1.84375L116.662 17.1358H113.459L116.035 12.0735H114.382L108.492 1.84375H111.902L116.758 10.3167H116.965L121.512 1.84375H124.715Z" fill="#E27E55"/>
<path d="M133.093 15.8357C134.085 15.8357 135.035 15.6693 135.941 15.3377C136.861 14.9916 137.738 14.4365 138.57 13.6725L139.665 14.9698C138.833 15.7338 137.824 16.3398 136.641 16.7868C135.457 17.2348 134.202 17.4573 132.872 17.4573C131.543 17.4573 130.257 17.2847 129.147 16.9386C128.051 16.5924 127.108 16.0799 126.32 15.4022C125.546 14.7244 124.947 13.8887 124.523 12.8939C124.1 11.8991 123.887 10.7525 123.887 9.4552C123.887 8.15791 124.092 7.01134 124.5 6.01653C124.923 5.02173 125.516 4.18493 126.275 3.50718C127.05 2.82942 127.977 2.31799 129.058 1.97184C130.139 1.62568 131.338 1.45312 132.652 1.45312C133.966 1.45312 135.238 1.67662 136.421 2.1236C137.605 2.57059 138.612 3.17662 139.445 3.94065L138.349 5.23795C137.516 4.47391 136.64 3.9261 135.719 3.5945C134.814 3.24834 133.864 3.07579 132.871 3.07579C132.082 3.07579 131.345 3.20572 130.658 3.4656C129.971 3.71092 129.379 4.09242 128.883 4.61217C128.386 5.13088 127.992 5.79408 127.7 6.60177C127.422 7.39491 127.284 8.34606 127.284 9.45624C127.284 10.5664 127.422 11.5259 127.7 12.3325C127.992 13.1257 128.394 13.7816 128.905 14.3003C129.431 14.8201 130.045 15.2088 130.746 15.4677C131.463 15.713 132.243 15.8357 133.092 15.8357H133.093Z" fill="#E27E55"/>
<path d="M65.1102 26.6056C65.8348 26.6056 66.4699 26.6763 67.0167 26.8176C67.5624 26.959 68.0187 27.1617 68.3857 27.4247C68.7526 27.6887 69.0281 28.0016 69.2111 28.3634C69.395 28.7261 69.4865 29.1284 69.4865 29.5702C69.4865 30.012 69.395 30.4153 69.2111 30.7771C69.0271 31.1399 68.7526 31.4528 68.3857 31.7158C68.0187 31.9798 67.5624 32.1814 67.0167 32.3228C66.4709 32.4642 65.8358 32.5349 65.1102 32.5349H59.8867V22.6523H68.3576V23.7116H61.9345V26.6056H65.1113H65.1102ZM61.9335 27.6648V31.4767H65.1102C65.788 31.4767 66.3223 31.3093 66.7121 30.9756C67.1029 30.6419 67.2984 30.1731 67.2984 29.5713C67.2984 28.9694 67.1029 28.5006 66.7121 28.1669C66.3212 27.8332 65.7869 27.6659 65.1102 27.6659H61.9335V27.6648Z" fill="#E27E55"/>
<path d="M79.0873 32.5349V24.4881H78.9459L73.6517 32.5349H70.9688V22.6523H73.0155V30.6991H73.1569L78.4511 22.6523H81.134V32.5349H79.0873Z" fill="#E27E55"/>
<path d="M82.4062 31.6877H82.8293C83.1121 31.6877 83.3605 31.5702 83.5778 31.3343C83.794 31.0993 83.9208 30.6991 83.9593 30.1347L84.453 22.6523H92.8532V32.5349H90.8065V23.7116H86.3595L85.9364 30.1347C85.8709 31.0577 85.6142 31.723 85.1672 32.1326C84.7202 32.5422 84.1058 32.7469 83.3252 32.7469C83.0799 32.7469 82.8636 32.723 82.6755 32.6763C82.5715 32.6575 82.4821 32.6336 82.4073 32.6056V31.6877H82.4062Z" fill="#E27E55"/>
<path d="M94.1211 31.6877H94.5442C94.8269 31.6877 95.0754 31.5702 95.2926 31.3343C95.5088 31.0993 95.6356 30.6991 95.6741 30.1347L96.1679 22.6523H104.568V32.5349H102.521V23.7116H98.0743L97.6512 30.1347C97.5858 31.0577 97.329 31.723 96.882 32.1326C96.435 32.5422 95.8207 32.7469 95.04 32.7469C94.7947 32.7469 94.5785 32.723 94.3903 32.6763C94.2864 32.6575 94.197 32.6336 94.1221 32.6056V31.6877H94.1211Z" fill="#E27E55"/>
<path d="M114.658 32.5349V24.4881H114.516L109.222 32.5349H106.539V22.6523H108.586V30.6991H108.727L114.021 22.6523H116.704V32.5349H114.658Z" fill="#E27E55"/>
<path d="M128.565 22.6523V32.5349H126.518V28.2293H120.73V32.5349H118.684V22.6523H120.73V27.17H126.518V22.6523H128.565Z" fill="#E27E55"/>
<path d="M132.594 23.7116V32.5349H130.547V22.6523H138.735V23.7116H132.594Z" fill="#E27E55"/>
</svg>
