<svg width="832" height="715" viewBox="0 0 832 715" fill="none" xmlns="http://www.w3.org/2000/svg">
<path d="M177.359 708.926C178.061 709.255 178.898 708.952 179.229 708.248C179.559 707.545 179.258 706.708 178.556 706.379L177.359 708.926ZM1169.75 634.66L1169.11 633.411L1169.75 634.66ZM5.95679 517.497C-11.3465 417.09 53.747 311.682 173.839 222.426C293.857 133.225 468.456 60.4538 669.192 25.3376L668.714 22.5673C467.64 57.7429 292.607 130.655 172.167 220.17C51.7998 309.63 -14.3919 415.97 3.18781 517.982L5.95679 517.497ZM669.192 25.3376C869.927 -9.77861 1058.65 -0.566806 1201.49 42.6509C1344.42 85.8949 1440.97 163.025 1458.27 263.433L1461.04 262.948C1443.46 160.936 1345.57 83.3018 1202.31 39.9587C1058.97 -3.41077 869.789 -12.6083 668.714 22.5673L669.192 25.3376ZM178.556 706.379C82.4675 661.335 19.5974 596.651 5.95679 517.497L3.18781 517.982C17.0473 598.405 80.8457 663.683 177.359 708.926L178.556 706.379ZM1458.27 263.433C1469.51 328.62 1446.03 395.897 1395.27 459.539C1344.51 523.183 1266.55 583.084 1169.11 633.411L1170.4 635.91C1268.07 585.461 1346.39 525.334 1397.47 461.29C1448.54 397.246 1472.45 329.175 1461.04 262.948L1458.27 263.433ZM1169.11 633.411C1110.74 663.558 1045.4 690.26 974.757 712.27L975.586 714.955C1046.37 692.901 1111.87 666.138 1170.4 635.91L1169.11 633.411Z" fill="url(#paint0_linear_2661_4904)"/>
<defs>
<linearGradient id="paint0_linear_2661_4904" x1="386.398" y1="690.637" x2="1233.08" y2="-257.967" gradientUnits="userSpaceOnUse">
<stop stop-color="white" stop-opacity="0.4"/>
<stop offset="0.21784" stop-color="white"/>
<stop offset="0.578937" stop-color="white" stop-opacity="0.44"/>
<stop offset="1" stop-color="white" stop-opacity="0"/>
</linearGradient>
</defs>
</svg>
