<svg width="38" height="38" viewBox="0 0 38 38" fill="none" xmlns="http://www.w3.org/2000/svg">
<path d="M31.1719 20.6719C31.1719 22.3288 29.8288 23.6719 28.1719 23.6719H16.1719C14.515 23.6719 13.1719 22.3288 13.1719 20.6719V8.67188C13.1719 7.01498 14.515 5.67188 16.1719 5.67188H28.1719C29.8288 5.67188 31.1719 7.01498 31.1719 8.67188V20.6719Z" fill="#003990"/>
<path opacity="0.3" d="M5.17188 17.6719C5.17188 16.015 6.51498 14.6719 8.17188 14.6719H11.1719V20.6719C11.1719 23.981 13.8635 26.6719 17.1719 26.6719H23.1719V29.6719C23.1719 31.3288 21.8288 32.6719 20.1719 32.6719H8.17188C6.51498 32.6719 5.17188 31.3288 5.17188 29.6719V17.6719Z" fill="#003990"/>
</svg>
