<svg width="132" height="34" viewBox="0 0 132 34" fill="none" xmlns="http://www.w3.org/2000/svg">
<path d="M41 25.9883H33V33.9883H41V25.9883Z" fill="#DDEBFF" fill-opacity="0.5"/>
<path d="M25.431 0.0781841V3.22491C22.811 1.22302 19.5671 0.0364781 16.0633 0.015625C15.4083 0.015625 14.7741 0.0573312 14.1503 0.11989C6.1966 1.04785 0.010397 8.03363 0 16.5104V16.5521C0.020794 25.0185 6.1966 31.9834 14.1503 32.9114C14.7741 32.9739 15.4187 33.0156 16.0633 33.0156H25.431V25.4147H33V0.0156047L25.431 0.0781841ZM16.5218 25.4032C11.577 25.4032 7.569 21.4359 7.569 16.5406C7.569 11.6454 11.577 7.67809 16.5218 7.67809C21.4666 7.67809 25.4747 11.6454 25.4747 16.5406C25.4747 21.4359 21.4666 25.4032 16.5218 25.4032Z" fill="#DDEBFF" fill-opacity="0.5"/>
<path d="M66.1216 2H61.7114L56 17H58.7606L60.2722 12.95H67.5589L69.2394 17H72L66.1207 2H66.1216ZM60.945 11.2237L63.8214 3.7232H64.0125L66.889 11.2237H60.945Z" fill="#DDEBFF" fill-opacity="0.5"/>
<path d="M85.5794 4.87846C85.2994 4.25647 84.8981 3.73646 84.3745 3.31738C83.8519 2.88505 83.2081 2.5608 82.444 2.34464C81.6914 2.11522 80.8377 2 79.8821 2H73V17H75.7717V11.9324H79.8821C80.8377 11.9324 81.6923 11.8243 82.444 11.6081C83.2081 11.3787 83.8519 11.0544 84.3745 10.6354C84.8971 10.203 85.2984 9.68303 85.5794 9.0743C85.8595 8.45232 86 7.74978 86 6.96567C86 6.18156 85.8605 5.48617 85.5794 4.87744V4.87846ZM82.2149 9.58106C81.6663 10.1347 80.8897 10.4121 79.8821 10.4121H75.7717V3.52029H79.8821C80.8897 3.52029 81.6663 3.80375 82.2149 4.37169C82.776 4.92536 83.056 5.79104 83.056 6.96669C83.056 8.14234 82.776 9.01414 82.2149 9.58208V9.58106Z" fill="#DDEBFF" fill-opacity="0.5"/>
<path d="M96.349 9.0121L102 17H98.8672L94.0878 10.2153H90.7658L90.7534 17H88V2H90.7534L90.7438 8.48902H93.8756L98.2527 2H101.29L96.349 9.0121Z" fill="#DDEBFF" fill-opacity="0.5"/>
<path d="M118 2L110.553 17H107.592L109.975 12.0343H108.446L103 2H106.152L110.643 10.3111H110.834L115.038 2H118Z" fill="#DDEBFF" fill-opacity="0.5"/>
<path d="M125.752 15.4801C126.695 15.4801 127.599 15.3242 128.459 15.0134C129.334 14.689 130.168 14.1687 130.958 13.4526L132 14.6685C131.208 15.3846 130.25 15.9527 129.125 16.3716C128 16.7915 126.806 17 125.542 17C124.278 17 123.056 16.8383 122 16.5138C120.959 16.1894 120.062 15.7091 119.313 15.0738C118.577 14.4386 118.008 13.6553 117.605 12.7229C117.203 11.7905 117 10.7159 117 9.5C117 8.2841 117.195 7.20947 117.583 6.27708C117.985 5.3447 118.549 4.56041 119.271 3.92518C120.007 3.28995 120.889 2.8106 121.916 2.48617C122.944 2.16173 124.083 2 125.333 2C126.582 2 127.791 2.20947 128.916 2.62841C130.041 3.04735 130.999 3.61535 131.791 4.33145L130.749 5.54735C129.956 4.83125 129.124 4.31781 128.249 4.00701C127.388 3.68258 126.485 3.52085 125.541 3.52085C124.791 3.52085 124.09 3.64263 123.437 3.8862C122.784 4.11613 122.222 4.47369 121.749 4.96083C121.277 5.447 120.902 6.06859 120.625 6.8256C120.361 7.56898 120.229 8.46044 120.229 9.50097C120.229 10.5415 120.361 11.4408 120.625 12.1968C120.902 12.9402 121.285 13.5549 121.771 14.0411C122.271 14.5283 122.854 14.8926 123.521 15.1352C124.202 15.3652 124.944 15.4801 125.751 15.4801H125.752Z" fill="#DDEBFF" fill-opacity="0.5"/>
<path d="M61.8326 30.9869C62.4624 30.9869 63.0662 30.8808 63.6449 30.6694C64.2237 30.458 64.7774 30.1132 65.3051 29.6359L66 30.4463C65.4723 30.9236 64.8335 31.3026 64.0835 31.5811C63.3335 31.8607 62.5365 32 61.6944 32C60.8523 32 60.0392 31.8919 59.3403 31.6756C58.6414 31.4594 58.0437 31.1399 57.548 30.7162C57.0524 30.2924 56.6709 29.7703 56.4025 29.1488C56.1342 28.5274 56 27.8114 56 27C56 26.1886 56.1322 25.4726 56.3955 24.8512C56.6599 24.2297 57.0343 23.7076 57.521 23.2839C58.0076 22.8601 58.5924 22.5406 59.2783 22.3244C59.9632 22.1081 60.7231 22 61.5562 22C62.3893 22 63.1954 22.1403 63.9453 22.4189C64.6953 22.6984 65.3341 23.0764 65.8618 23.5537L65.1669 24.3641C64.6392 23.8868 64.0855 23.542 63.5068 23.3306C62.928 23.1192 62.3232 23.0131 61.6944 23.0131C61.1948 23.0131 60.7261 23.092 60.2916 23.2498C59.856 23.4076 59.4815 23.6482 59.1661 23.9725C58.8517 24.2969 58.6034 24.7089 58.4231 25.2087C58.2429 25.7084 58.1528 26.3055 58.1528 26.999C58.1528 27.6926 58.2429 28.2897 58.4231 28.7894C58.6034 29.2891 58.8587 29.7012 59.1871 30.0255C59.5156 30.3499 59.9051 30.5915 60.3537 30.7483C60.8022 30.9061 61.2959 30.985 61.8326 30.985V30.9869Z" fill="#DDEBFF" fill-opacity="0.5"/>
<path d="M71.6961 22.0009C72.3487 22.0009 72.933 22.072 73.4501 22.2132C73.9672 22.3544 74.4045 22.56 74.7611 22.83C75.1177 23.1 75.3916 23.4297 75.5829 23.8201C75.7741 24.2104 75.8702 24.6539 75.8702 25.1503C75.8702 25.8363 75.6963 26.4152 75.3484 26.8861C75.0004 27.3579 74.5006 27.718 73.848 27.9662L76 31H73.848L71.9306 28.2997H68.8915V31H67V22H71.6951L71.6961 22.0009ZM68.8925 22.9655V27.3371H71.6961C72.3833 27.3371 72.9138 27.159 73.2877 26.8037C73.6616 26.4484 73.849 25.8969 73.849 25.1513C73.849 24.4056 73.6616 23.8551 73.2877 23.4989C72.9138 23.1436 72.3833 22.9655 71.6961 22.9655H68.8925Z" fill="#DDEBFF" fill-opacity="0.5"/>
<path d="M84.4313 29.7144H84.5667L88.0885 22H91V31H89.0365V23.7998H88.901L85.651 31H83.349L80.099 23.7998H79.9635V31H78V22H80.9115L84.4323 29.7144H84.4313Z" fill="#DDEBFF" fill-opacity="0.5"/>
</svg>
