<svg width="320" height="78" viewBox="0 0 320 78" fill="none" xmlns="http://www.w3.org/2000/svg">
<path d="M98.8236 59.7305H80.3672V77.4709H98.8236V59.7305Z" fill="#B567DA"/>
<path d="M61.9185 0.606949V7.95135C55.5385 3.27897 47.6395 0.509608 39.1075 0.460938C37.5126 0.460938 35.9682 0.558279 34.4492 0.704291C15.0814 2.87014 0.0175049 19.1748 -0.0078125 38.9594V39.0568C0.0428223 58.8171 15.0814 75.0731 34.4492 77.2389C35.9682 77.3849 37.5379 77.4823 39.1075 77.4823H61.9185V59.7418H80.3496V0.704244L61.9185 0.606949ZM40.224 59.7151C28.1831 59.7151 18.4232 50.4555 18.4232 39.03C18.4232 27.6046 28.1831 18.345 40.224 18.345C52.265 18.345 62.0248 27.6046 62.0248 39.03C62.0248 50.4555 52.265 59.7151 40.224 59.7151Z" fill="#B567DA"/>
<path d="M160.174 5.20312H149.3L135.219 38.8551H142.025L145.752 29.769H163.717L167.861 38.8551H174.667L160.171 5.20312H160.174ZM147.411 25.8962L154.503 9.06906H154.974L162.066 25.8962H147.411Z" fill="#B567DA"/>
<path d="M208.56 11.6608C207.868 10.2654 206.875 9.0988 205.581 8.15862C204.288 7.18871 202.696 6.46127 200.807 5.97631C198.946 5.46162 196.835 5.20312 194.471 5.20312H177.453V38.8551H184.307V27.486H194.471C196.835 27.486 198.948 27.2435 200.807 26.7586C202.696 26.2439 204.288 25.5164 205.581 24.5763C206.873 23.6064 207.865 22.4397 208.56 21.074C209.253 19.6787 209.6 18.1025 209.6 16.3434C209.6 14.5843 209.255 13.0242 208.56 11.6586V11.6608ZM200.24 22.211C198.884 23.4531 196.963 24.0753 194.471 24.0753H184.307V8.61384H194.471C196.963 8.61384 198.884 9.24978 200.24 10.5239C201.628 11.7661 202.32 13.7082 202.32 16.3457C202.32 18.9832 201.628 20.9391 200.24 22.2132V22.211Z" fill="#B567DA"/>
<path d="M233.165 20.9345L247.237 38.8551H239.436L227.535 23.6338H219.262L219.231 38.8551H212.375V5.20312H219.231L219.208 19.761H227.006L237.906 5.20312H245.469L233.165 20.9345Z" fill="#B567DA"/>
<path d="M285.697 5.20312L267.258 38.8551H259.926L265.825 27.7148H262.039L248.555 5.20312H256.361L267.479 23.8488H267.953L278.362 5.20312H285.697Z" fill="#B567DA"/>
<path d="M304.951 35.9941C307.224 35.9941 309.399 35.6281 311.472 34.8984C313.578 34.1366 315.586 32.9151 317.49 31.2337L319.999 34.0886C318.092 35.7699 315.784 37.1036 313.076 38.0872C310.365 39.0731 307.49 39.5627 304.446 39.5627C301.403 39.5627 298.459 39.1829 295.917 38.4212C293.409 37.6594 291.25 36.5317 289.446 35.0402C287.673 33.5487 286.302 31.7095 285.331 29.5204C284.363 27.3312 283.875 24.808 283.875 21.9532C283.875 19.0984 284.344 16.5752 285.279 14.386C286.248 12.1969 287.604 10.3554 289.344 8.86392C291.117 7.37245 293.24 6.24698 295.715 5.48523C298.19 4.72348 300.934 4.34375 303.942 4.34375C306.95 4.34375 309.863 4.83557 312.571 5.81921C315.282 6.80285 317.588 8.13648 319.494 9.81782L316.986 12.6727C315.077 10.9913 313.073 9.7858 310.965 9.05607C308.892 8.29432 306.717 7.91459 304.444 7.91459C302.638 7.91459 300.95 8.20054 299.377 8.77242C297.804 9.31228 296.45 10.1518 295.313 11.2956C294.175 12.4371 293.273 13.8965 292.604 15.6739C291.969 17.4193 291.652 19.5124 291.652 21.9555C291.652 24.3986 291.969 26.51 292.604 28.2851C293.273 30.0305 294.194 31.4739 295.365 32.6154C296.569 33.7592 297.973 34.6147 299.58 35.1843C301.219 35.7242 303.007 35.9941 304.949 35.9941H304.951Z" fill="#B567DA"/>
<path d="M149.081 71.2298C150.578 71.2298 152.013 70.9805 153.389 70.4841C154.764 69.9877 156.081 69.1779 157.335 68.057L158.986 69.9602C157.732 71.0811 156.214 71.971 154.431 72.6252C152.649 73.2817 150.754 73.6088 148.753 73.6088C146.751 73.6088 144.819 73.3549 143.158 72.8471C141.497 72.3393 140.076 71.5889 138.898 70.5939C137.72 69.5988 136.813 68.3727 136.175 66.9132C135.538 65.4538 135.219 63.7724 135.219 61.8669C135.219 59.9614 135.533 58.2801 136.159 56.8206C136.787 55.3612 137.677 54.1351 138.834 53.14C139.99 52.1449 141.38 51.3946 143.01 50.8867C144.638 50.3789 146.444 50.125 148.425 50.125C150.405 50.125 152.32 50.4544 154.103 51.1086C155.885 51.7652 157.404 52.6527 158.658 53.7736L157.006 55.6768C155.752 54.556 154.436 53.7462 153.06 53.2498C151.685 52.7534 150.247 52.504 148.753 52.504C147.565 52.504 146.452 52.6893 145.419 53.0599C144.384 53.4305 143.493 53.9955 142.744 54.7573C141.997 55.519 141.406 56.4866 140.978 57.6601C140.55 58.8336 140.335 60.2359 140.335 61.8646C140.335 63.4934 140.55 64.8956 140.978 66.0691C141.406 67.2426 142.013 68.2103 142.794 68.972C143.574 69.7338 144.5 70.3011 145.566 70.6694C146.633 71.0399 147.806 71.2252 149.081 71.2252V71.2298Z" fill="#B567DA"/>
<path d="M173.519 51.0023C175.134 51.0023 176.581 51.1739 177.862 51.5147C179.142 51.8555 180.225 52.3519 181.108 53.0039C181.991 53.6558 182.669 54.4519 183.143 55.3944C183.616 56.3368 183.854 57.4074 183.854 58.6061C183.854 60.2622 183.423 61.6599 182.562 62.7968C181.7 63.936 180.463 64.8053 178.847 65.4046L184.176 72.7293H178.847L174.099 66.2098H166.574V72.7293H161.891V51H173.516L173.519 51.0023ZM166.577 53.331V63.8857H173.519C175.22 63.8857 176.534 63.4556 177.46 62.5978C178.385 61.74 178.849 60.4086 178.849 58.6083C178.849 56.8081 178.385 55.479 177.46 54.6189C176.534 53.7611 175.22 53.331 173.519 53.331H166.577Z" fill="#B567DA"/>
<path d="M203.106 69.6686H203.429L211.847 51H218.806V72.7796H214.113V55.3555H213.789L206.021 72.7796H200.519L192.751 55.3555H192.427V72.7796H187.734V51H194.693L203.108 69.6686H203.106Z" fill="#B567DA"/>
</svg>
