<svg width="197" height="38" viewBox="0 0 197 38" fill="none" xmlns="http://www.w3.org/2000/svg">
<path d="M181.159 34.1371C183.546 34.1371 185.843 33.7473 188.026 32.9539C190.246 32.1365 192.353 30.815 194.358 29.003L197 32.0862C194.996 33.8982 192.571 35.3455 189.712 36.4018C186.865 37.4593 183.841 38 180.636 38C177.431 38 174.33 37.585 171.661 36.7664C169.019 35.9491 166.747 34.7281 164.858 33.1173C162.995 31.5065 161.553 29.5185 160.532 27.1658C159.51 24.8132 159 22.082 159 19C159 15.918 159.497 13.1994 160.481 10.8341C161.501 8.46889 162.931 6.48087 164.756 4.88266C166.619 3.27187 168.854 2.05215 171.459 1.23355C174.062 0.416214 176.946 0 180.113 0C183.279 0 186.342 0.528127 189.189 1.59821C192.035 2.65572 194.474 4.10179 196.477 5.91377L193.835 8.99702C191.831 7.18504 189.712 5.87604 187.503 5.09643C185.321 4.27909 183.036 3.86287 180.637 3.86287C178.735 3.86287 176.96 4.16466 175.3 4.78206C173.64 5.36049 172.225 6.26711 171.025 7.4994C169.826 8.73296 168.88 10.3048 168.178 12.2299C167.515 14.1173 167.169 16.3694 167.169 19.0126C167.169 21.6557 167.502 23.933 168.178 25.8455C168.879 27.733 169.851 29.2809 171.089 30.5132C172.353 31.7467 173.833 32.6647 175.518 33.2808C177.229 33.8467 179.118 34.1359 181.159 34.1359V34.1371Z" fill="#DDEBFF"/>
<path d="M26.5691 0H14.9893L0 38H7.24797L11.2129 27.747H30.3443L34.752 38H42L26.5691 0ZM12.9689 23.3664L20.5205 4.3664H21.0253L28.5769 23.3664H12.9689Z" fill="#DDEBFF"/>
<path d="M77.8956 7.28977C77.1693 5.71802 76.1151 4.39085 74.7481 3.3353C73.3811 2.23984 71.7024 1.41599 69.6946 0.875339C67.7257 0.296071 65.493 0 62.9964 0H45V38H52.2486V25.1699H62.9964C65.493 25.1699 67.7245 24.8995 69.6946 24.346C71.6886 23.7667 73.3811 22.9416 74.7481 21.886C76.1164 20.7906 77.1693 19.4776 77.8956 17.9316C78.6231 16.3598 79 14.5821 79 12.5856C78.9874 10.6019 78.6231 8.83706 77.8956 7.29106V7.28977ZM69.0915 19.2047C67.6616 20.6091 65.6312 21.3042 62.9964 21.3042H52.2486V3.8502H62.9964C65.6312 3.8502 67.6616 4.57107 69.0915 6.00122C70.5591 7.40562 71.2865 9.59526 71.2865 12.5701C71.2991 15.5591 70.5591 17.7617 69.0915 19.2034V19.2047Z" fill="#DDEBFF"/>
<path d="M161 0L141.147 38H133.246L139.6 25.4144H135.522L121 0H129.412L141.377 21.0609H141.889L153.099 0H161Z" fill="#DDEBFF"/>
<path d="M105.069 17.7629L120 38H111.716L99.0898 20.8163H90.3026L90.2774 38H83V0H90.2774L90.2522 16.4371H98.5222L110.092 0H118.123L105.069 17.7629Z" fill="#DDEBFF"/>
</svg>
