<svg width="37" height="37" viewBox="0 0 37 37" fill="none" xmlns="http://www.w3.org/2000/svg">
<path opacity="0.3" d="M33.5233 9.07807H28.1403C27.3807 6.08554 26.2696 3.50781 24.8976 1.51953C28.5114 3.03345 31.5271 5.70826 33.5234 9.07807H33.5233ZM28.1403 27.9612C27.3807 30.9537 26.2696 33.5314 24.8976 35.5195C28.5114 34.0056 31.5271 31.331 33.5234 27.9612H28.1405H28.1403ZM2.52362 9.07807H7.90661C8.66614 6.08554 9.77731 3.50781 11.1492 1.51953C7.53543 3.03345 4.51973 5.70826 2.52344 9.07807H2.52362ZM11.1494 35.5195C9.77749 33.5314 8.66632 30.9537 7.90679 27.9612H2.52362C4.51991 31.331 7.53562 34.0056 11.1494 35.5195ZM26.3385 18.5197C26.3385 16.188 26.136 14.0309 25.7933 12.0597H10.2538C9.91104 14.0309 9.70854 16.188 9.70854 18.5197C9.70854 20.8514 9.91104 23.0085 10.2538 24.9797H25.7929C26.1357 23.0085 26.3382 20.8514 26.3382 18.5197H26.3385Z" fill="#003990"/>
<path d="M36.6719 18.6719C36.6719 20.8997 36.246 23.0252 35.5028 24.9962H29.3588C29.685 23.0081 29.861 20.8857 29.861 18.6719C29.861 16.4581 29.685 14.3357 29.3588 12.3476H35.5028C36.246 14.3186 36.6719 16.444 36.6719 18.6719ZM7.98491 24.9962C7.65875 23.0081 7.48272 20.8857 7.48272 18.6719C7.48272 16.4581 7.65875 14.3357 7.98491 12.3476H1.84097C1.09775 14.3186 0.671875 16.444 0.671875 18.6719C0.671875 20.8997 1.09775 23.0252 1.84097 24.9962H7.98491ZM18.6719 0.671875C15.9764 0.671875 13.157 3.97578 11.6056 9.42869H25.738C24.1865 3.97578 21.3672 0.671875 18.6717 0.671875H18.6719ZM25.7381 27.9151H11.6058C13.1572 33.3678 15.9766 36.6719 18.6721 36.6719C21.3676 36.6719 24.1869 33.3678 25.7383 27.9151H25.7381Z" fill="#003990"/>
</svg>
