<svg width="37" height="37" viewBox="0 0 37 37" fill="none" xmlns="http://www.w3.org/2000/svg">
<path d="M4.63281 32.6719H34.6328C35.7374 32.6719 36.6328 33.5673 36.6328 34.6719C36.6328 35.7764 35.7374 36.6719 34.6328 36.6719H2.63281C1.52824 36.6719 0.632812 35.7764 0.632812 34.6719V2.67188C0.632812 1.56731 1.52824 0.671875 2.63281 0.671875C3.73738 0.671875 4.63281 1.56731 4.63281 2.67188V32.6719Z" fill="#003990"/>
<path opacity="0.5" d="M12.17 24.0398C11.4145 24.8456 10.1489 24.8864 9.34306 24.1309C8.53724 23.3755 8.49641 22.1098 9.25187 21.304L16.7518 13.304C17.4825 12.5247 18.6965 12.4571 19.5091 13.1506L25.4286 18.2018L33.1411 8.43266C33.8255 7.56571 35.0832 7.41775 35.9501 8.10219C36.8171 8.78663 36.9651 10.0443 36.2806 10.9112L27.2807 22.3112C26.5777 23.2016 25.2756 23.3297 24.4127 22.5933L18.3646 17.4322L12.17 24.0398Z" fill="#003990"/>
</svg>
