<svg width="167" height="25" viewBox="0 0 167 25" fill="none" xmlns="http://www.w3.org/2000/svg">
<path d="M152.829 20.7636C154.211 20.7636 155.541 20.5379 156.805 20.0786C158.09 19.6054 159.309 18.8402 160.47 17.7912L162 19.5762C160.84 20.6253 159.436 21.4632 157.781 22.0747C156.132 22.687 154.381 23 152.526 23C150.671 23 148.875 22.7598 147.33 22.2858C145.8 21.8126 144.485 21.1058 143.392 20.1732C142.313 19.2406 141.478 18.0897 140.887 16.7276C140.295 15.3655 140 13.7843 140 12C140 10.2157 140.288 8.64176 140.857 7.2724C141.448 5.90304 142.276 4.75208 143.333 3.8268C144.411 2.89424 145.705 2.18809 147.213 1.71416C148.72 1.24097 150.39 1 152.223 1C154.056 1 155.83 1.30576 157.478 1.92528C159.126 2.53752 160.538 3.37472 161.697 4.42376L160.168 6.2088C159.007 5.15976 157.781 4.40192 156.502 3.95056C155.239 3.47737 153.916 3.2364 152.527 3.2364C151.426 3.2364 150.398 3.41112 149.437 3.76856C148.476 4.10344 147.656 4.62833 146.962 5.34176C146.267 6.05592 145.72 6.96592 145.314 8.08048C144.93 9.1732 144.73 10.477 144.73 12.0073C144.73 13.5375 144.922 14.8559 145.314 15.9632C145.72 17.0559 146.282 17.9521 146.999 18.6655C147.73 19.3797 148.588 19.9111 149.563 20.2678C150.554 20.5954 151.647 20.7629 152.829 20.7629V20.7636Z" fill="#003990"/>
<path d="M60.815 2H53.9222L45 24H49.3143L51.6743 18.064H63.0621L65.6857 24H70L60.815 2ZM52.7196 15.5279L57.2146 4.52791H57.5151L62.0101 15.5279H52.7196Z" fill="#003990"/>
<path d="M91.3503 6.22039C90.9231 5.31043 90.303 4.54207 89.4989 3.93096C88.6947 3.29675 87.7073 2.81978 86.5262 2.50678C85.3681 2.17141 84.0547 2 82.5861 2H72V24H76.2639V16.572H82.5861C84.0547 16.572 85.3673 16.4155 86.5262 16.0951C87.6992 15.7597 88.6947 15.282 89.4989 14.6709C90.3038 14.0367 90.9231 13.2765 91.3503 12.3814C91.7783 11.4715 92 10.4423 92 9.28638C91.9926 8.13794 91.7783 7.11619 91.3503 6.22114V6.22039ZM86.1715 13.1185C85.3304 13.9316 84.136 14.334 82.5861 14.334H76.2639V4.22907H82.5861C84.136 4.22907 85.3304 4.64641 86.1715 5.47439C87.0347 6.28747 87.4627 7.55515 87.4627 9.27744C87.4701 11.0079 87.0347 12.2831 86.1715 13.1178V13.1185Z" fill="#003990"/>
<path d="M141 2L129.088 24H124.348L128.16 16.7136H125.713L117 2H122.047L129.226 14.1932H129.533L136.259 2H141Z" fill="#003990"/>
<path d="M107.122 12.2838L116 24H111.074L103.567 14.0516H98.3421L98.3271 24H94V2H98.3271L98.3121 11.5162H103.229L110.109 2H114.884L107.122 12.2838Z" fill="#003990"/>
<path d="M34 19H28V25H34V19Z" fill="#003990"/>
<path d="M23.0365 0.0473932V2.43128C20.9723 0.914692 18.4165 0.0157978 15.656 0C15.1399 0 14.6402 0.0315956 14.1487 0.0789889C7.88217 0.78199 3.00819 6.07425 3 12.496V12.5276C3.01638 18.9415 7.88217 24.218 14.1487 24.921C14.6402 24.9684 15.1481 25 15.656 25H23.0365V19.2417H29V-1.53673e-05L23.0365 0.0473932ZM16.0172 19.233C12.1213 19.233 8.96345 16.2275 8.96345 12.519C8.96345 8.81043 12.1213 5.8049 16.0172 5.8049C19.9131 5.8049 23.071 8.81043 23.071 12.519C23.071 16.2275 19.9131 19.233 16.0172 19.233Z" fill="#003990"/>
</svg>
