<svg width="38" height="38" viewBox="0 0 38 38" fill="none" xmlns="http://www.w3.org/2000/svg">
<path opacity="0.3" d="M25.1782 10.9219C25.1782 7.96974 24.0285 5.29196 22.1719 3.33369C22.6592 3.23077 23.1624 3.17188 23.6792 3.17188C27.8184 3.17188 31.174 6.64171 31.174 10.9219C31.174 15.202 27.8184 18.6719 23.6792 18.6719C23.1624 18.6719 22.6593 18.613 22.1719 18.5101C24.0285 16.5518 25.1782 13.874 25.1782 10.9219ZM28.1761 24.8719H25.8669C27.2974 26.5192 28.1761 28.6887 28.1761 31.0719V34.1719H32.6729C33.5008 34.1719 34.1719 33.4778 34.1719 32.6219V31.0719C34.1719 27.6476 31.4876 24.8719 28.1761 24.8719Z" fill="#003990"/>
<path d="M9.45759 24.8719H18.8862C22.3578 24.8719 25.1719 27.6476 25.1719 31.0719V32.6219C25.1719 33.4778 24.4683 34.1719 23.6004 34.1719H4.7433C3.8754 34.1719 3.17188 33.4778 3.17188 32.6219V31.0719C3.17188 27.6476 5.98599 24.8719 9.45759 24.8719ZM14.1719 3.17188C9.83253 3.17188 6.31473 6.64171 6.31473 10.9219C6.31473 15.202 9.83253 18.6719 14.1719 18.6719C18.5112 18.6719 22.029 15.202 22.029 10.9219C22.029 6.64171 18.5112 3.17188 14.1719 3.17188Z" fill="#003990"/>
</svg>
