<svg width="320" height="74" viewBox="0 0 320 74" fill="none" xmlns="http://www.w3.org/2000/svg">
<path d="M11.9698 48.383C11.0961 48.383 10.2738 48.5372 9.50292 48.8455C8.74915 49.1539 8.0896 49.625 7.52427 50.2589C6.95894 50.8927 6.50496 51.6979 6.16234 52.6744C5.83684 53.6337 5.6741 54.7729 5.6741 56.0921C5.6741 57.4112 5.83684 58.5589 6.16234 59.5354C6.50496 60.4948 6.95894 61.2914 7.52427 61.9252C8.0896 62.5591 8.74915 63.0302 9.50292 63.3386C10.2738 63.6469 11.0961 63.8011 11.9698 63.8011C12.8435 63.8011 13.6572 63.6469 14.411 63.3386C15.1819 63.0302 15.85 62.5591 16.4154 61.9252C16.9807 61.2914 17.4261 60.4948 17.7516 59.5354C18.0942 58.5589 18.2655 57.4112 18.2655 56.0921C18.2655 54.7729 18.0942 53.6337 17.7516 52.6744C17.4261 51.6979 16.9807 50.8927 16.4154 50.2589C15.85 49.625 15.1819 49.1539 14.411 48.8455C13.6572 48.5372 12.8435 48.383 11.9698 48.383ZM11.9698 46.5842C13.5116 46.5842 14.9078 46.7898 16.1584 47.201C17.4261 47.6121 18.5054 48.2203 19.3962 49.0254C20.3042 49.8306 21.0065 50.8242 21.5033 52.0063C22.0001 53.1883 22.2485 54.5502 22.2485 56.0921C22.2485 57.6339 22.0001 58.9958 21.5033 60.1778C21.0065 61.3599 20.3042 62.3535 19.3962 63.1587C18.5054 63.9638 17.4261 64.572 16.1584 64.9832C14.9078 65.3943 13.5116 65.5999 11.9698 65.5999C10.428 65.5999 9.02325 65.3943 7.75554 64.9832C6.48783 64.572 5.4 63.9638 4.49204 63.1587C3.60122 62.3535 2.90741 61.3599 2.4106 60.1778C1.93093 58.9958 1.69109 57.6339 1.69109 56.0921C1.69109 54.5502 1.93093 53.1883 2.4106 52.0063C2.90741 50.8242 3.60122 49.8306 4.49204 49.0254C5.4 48.2203 6.48783 47.6121 7.75554 47.201C9.02325 46.7898 10.428 46.5842 11.9698 46.5842ZM45.8997 47.0982V65.0859H42.1736V57.2484H31.6379V65.0859H27.9119V47.0982H31.6379V55.3211H42.1736V47.0982H45.8997ZM50.778 63.5441H51.5489C52.0629 63.5441 52.5169 63.33 52.9109 62.9017C53.3049 62.4734 53.5362 61.7454 53.6047 60.7175L54.5041 47.0982H69.7937V65.0859H66.0676V49.0254H57.9731L57.2022 60.7175C57.0823 62.3963 56.6112 63.6127 55.7889 64.3664C54.9837 65.1031 53.8702 65.4714 52.4483 65.4714C52.0029 65.4714 51.6089 65.4286 51.2663 65.3429C51.0778 65.3086 50.9151 65.2658 50.778 65.2144V63.5441ZM80.7168 58.7902H88.6829L84.8283 49.2824H84.5714L80.7168 58.7902ZM87.655 47.0982L94.9786 65.0859H91.2782L89.5822 60.7175H79.8175L78.1215 65.0859H74.4211L81.7447 47.0982H87.655ZM114.388 65.0859V50.4387H114.131L104.494 65.0859H99.612V47.0982H103.338V61.7454H103.595L113.231 47.0982H118.114V65.0859H114.388ZM108.606 45.6848C106.807 45.6848 105.522 45.2994 104.751 44.5285C103.98 43.7576 103.595 42.7297 103.595 41.4449H106.55C106.55 42.2158 106.747 42.7725 107.141 43.1152C107.535 43.4578 108.023 43.6291 108.606 43.6291C109.188 43.6291 109.677 43.4578 110.071 43.1152C110.465 42.7725 110.662 42.2158 110.662 41.4449H113.617C113.617 42.7297 113.231 43.7576 112.46 44.5285C111.69 45.2994 110.405 45.6848 108.606 45.6848ZM142.278 47.0982V65.0859H138.552V57.2484H128.016V65.0859H124.29V47.0982H128.016V55.3211H138.552V47.0982H142.278Z" fill="#0050C8"/>
<path d="M20.6298 22.9162L31.143 37H24.597L15.4723 24.7015H8.52962V37H2.77709V9.22915H8.52962V21.726H15.0756L24.2003 9.22915H30.5479L20.6298 22.9162ZM34.3137 9.22915H47.8024C49.839 9.22915 51.5978 9.41429 53.0789 9.78456C54.5865 10.1284 55.8295 10.6309 56.8081 11.2921C57.7867 11.9269 58.5141 12.6939 58.9901 13.5931C59.4662 14.4924 59.7042 15.4842 59.7042 16.5686C59.7042 17.9704 59.3075 19.187 58.5141 20.2185C57.7206 21.25 56.5304 22.017 54.9435 22.5195C56.9271 22.9162 58.4744 23.6964 59.5852 24.8602C60.7225 25.9975 61.2911 27.4653 61.2911 29.2638C61.2911 31.6442 60.2993 33.5353 58.3157 34.937C56.3585 36.3123 53.2508 37 48.9926 37H34.3137V9.22915ZM40.0663 24.3048V34.0246H48.9926C50.9763 34.0246 52.497 33.6278 53.555 32.8344C54.6129 32.0409 55.1419 30.8507 55.1419 29.2638C55.1419 27.5711 54.6129 26.3281 53.555 25.5346C52.497 24.7147 50.9763 24.3048 48.9926 24.3048H40.0663ZM47.8024 21.3293C51.6375 21.3293 53.555 19.7424 53.555 16.5686C53.555 15.1668 53.0657 14.0957 52.0871 13.3551C51.1349 12.5881 49.7067 12.2046 47.8024 12.2046H40.0663V21.3293H47.8024ZM72.6087 27.2802H84.9072L78.9563 12.6013H78.5596L72.6087 27.2802ZM83.3203 9.22915L94.627 37H88.9141L86.2958 30.2557H71.2201L68.6018 37H62.8889L74.1956 9.22915H83.3203ZM112.095 9.22915C114.079 9.22915 115.851 9.45396 117.412 9.90358C118.998 10.3268 120.334 10.9615 121.418 11.8079C122.503 12.6278 123.336 13.646 123.918 14.8627C124.5 16.0528 124.791 17.4149 124.791 18.9489C124.791 20.483 124.5 21.8583 123.918 23.0749C123.336 24.2651 122.503 25.2833 121.418 26.1297C120.334 26.9496 118.998 27.5844 117.412 28.034C115.851 28.4572 114.079 28.6687 112.095 28.6687H103.566V37H97.8132V9.22915H112.095ZM103.566 12.2046V25.6933H112.095C114.185 25.6933 115.798 25.1511 116.935 24.0667C118.099 22.9559 118.681 21.25 118.681 18.9489C118.681 16.6479 118.099 14.9552 116.935 13.8708C115.798 12.76 114.185 12.2046 112.095 12.2046H103.566ZM152.363 12.2046H141.651V37H135.899V12.2046H125.187V9.22915H152.363V12.2046ZM183.311 9.22915V37H177.558V12.2046H161.293V37H155.54V9.22915H183.311ZM186.875 34.6196H188.065C188.859 34.6196 189.56 34.289 190.168 33.6278C190.776 32.9666 191.133 31.8426 191.239 30.2557L192.628 9.22915H216.233V37H210.48V12.2046H197.984L196.793 30.2557C196.608 32.8476 195.881 34.7254 194.611 35.8892C193.368 37.0264 191.649 37.5951 189.454 37.5951C188.766 37.5951 188.158 37.529 187.629 37.3967C187.338 37.3438 187.087 37.2777 186.875 37.1984V34.6196ZM229.13 27.2802H241.428L235.477 12.6013H235.081L229.13 27.2802ZM239.841 9.22915L251.148 37H245.435L242.817 30.2557H227.741L225.123 37H219.41L230.717 9.22915H239.841ZM275.953 12.2046H265.241V37H259.489V12.2046H248.777V9.22915H275.953V12.2046ZM283.292 27.2802H295.591L289.64 12.6013H289.243L283.292 27.2802ZM294.004 9.22915L305.31 37H299.598L296.979 30.2557H281.904L279.285 37H273.572L284.879 9.22915H294.004Z" fill="#0050C8"/>
</svg>
