<svg width="341" height="60" viewBox="0 0 341 60" fill="none" xmlns="http://www.w3.org/2000/svg">
<g clip-path="url(#clip0_5456_8694)">
<rect y="3.5" width="53" height="53" rx="12.1143" fill="#0050C8"/>
<line x1="26.6928" y1="3.5" x2="26.6928" y2="56.5" stroke="white" stroke-width="0.385655"/>
<line y1="29.8072" x2="53" y2="29.8072" stroke="white" stroke-width="0.385655"/>
<g clip-path="url(#clip1_5456_8694)">
<path d="M22.4721 17.4174C22.4709 16.3796 21.6299 15.5386 20.5921 15.5374H17.0779C15.863 15.5372 14.6544 15.7126 13.4897 16.0581L12.611 16.3187C12.5296 16.3427 12.4418 16.327 12.3738 16.2764C12.306 16.2256 12.266 16.1459 12.266 16.0612V12.8516H7.96875V24.132H12.266V22.2519C12.2683 20.3245 13.8302 18.7626 15.7576 18.7603H22.4721V17.4174Z" fill="#B0E901"/>
<path d="M19.2578 19.2969H21.4065V20.1026H19.2578V19.2969Z" fill="#B0E901"/>
<path d="M20.6004 12.3166C20.7487 12.3166 20.869 12.1964 20.869 12.048V11.9734C20.8682 11.8407 20.7713 11.7282 20.6402 11.7077L10.3751 10.168C9.15202 10.1794 8.12963 11.1013 7.99219 12.3166H20.6004Z" fill="#B0E901"/>
<path d="M7.70608 24.668C7.55776 24.668 7.4375 24.7882 7.4375 24.9365V25.2051H12.8091V24.9365C12.8091 24.7882 12.6889 24.668 12.5405 24.668H7.70608Z" fill="#B0E901"/>
<path d="M20.3321 21.9297C19.8487 22.6748 19.2578 23.7195 19.2578 24.1321C19.2578 24.7254 19.7388 25.2064 20.3321 25.2064C20.9254 25.2064 21.4065 24.7254 21.4065 24.1321C21.4065 23.7193 20.8155 22.6746 20.3321 21.9297Z" fill="#B0E901"/>
</g>
<path d="M43.1235 9.89062H37.4717L35.2109 18.0267H37.4717L35.5563 24.9534H36.2314L42.7781 16.8173H39.4655L43.1235 9.89062Z" fill="#B0E901"/>
<path d="M15.743 36.8235C15.7093 35.5554 14.1896 34.793 14.1896 34.793C14.1896 34.793 13.9588 36.1777 12.8438 36.769C13.7988 36.5375 14.7973 36.5563 15.743 36.8235Z" fill="#B0E901"/>
<path d="M12.6328 47.8047C12.6665 49.0728 14.1874 49.8352 14.1874 49.8352C14.1874 49.8352 14.4182 48.4504 15.5333 47.8591C14.5783 48.0906 13.5797 48.0719 12.6341 47.8047H12.6328Z" fill="#B0E901"/>
<path d="M9.31218 39.3434C9.82376 38.5044 10.5431 37.8116 11.4008 37.3319C10.4802 36.4592 8.86719 36.9945 8.86719 36.9945C8.86719 36.9945 9.68249 38.1381 9.31218 39.3434Z" fill="#B0E901"/>
<path d="M6.66406 42.3151C6.66406 42.3151 8.04884 42.5458 8.64009 43.6609C8.40861 42.7059 8.42737 41.7074 8.69455 40.7617C7.42647 40.7941 6.66406 42.3151 6.66406 42.3151Z" fill="#B0E901"/>
<path d="M9.20295 45.0945C8.33033 46.0151 8.86557 47.6281 8.86557 47.6281C8.86557 47.6281 10.0081 46.812 11.2145 47.1823C10.3755 46.6708 9.68265 45.9514 9.20295 45.0938V45.0945Z" fill="#B0E901"/>
<path d="M9.78126 42.3147C9.778 43.6683 10.3982 44.948 11.4627 45.784C12.5272 46.62 13.9174 46.9193 15.2317 46.5953C15.2645 45.5823 15.7551 44.6388 16.5656 44.0301C16.6994 43.9324 16.779 43.777 16.7803 43.6113V38.7529C16.0295 38.2011 15.1216 37.9043 14.1897 37.9063C11.7561 37.909 9.78398 39.8811 9.78126 42.3147Z" fill="#B0E901"/>
<path d="M20.3151 44.4438C20.0499 44.2482 19.8929 43.9387 19.8916 43.6093V36.9214C19.9061 36.2966 19.4834 35.7461 18.8761 35.5988C18.7827 35.5797 18.6877 35.5701 18.5924 35.5703C18.2079 35.569 17.8431 35.7403 17.5987 36.0371C17.4045 36.27 17.2982 36.5637 17.2984 36.8669V43.6093C17.2975 43.9375 17.1415 44.2459 16.8775 44.4409C15.8985 45.1791 15.5008 46.4604 15.8896 47.6233C16.2785 48.7861 17.367 49.5703 18.5932 49.5711C19.8193 49.5718 20.9088 48.7889 21.2991 47.6265C21.6894 46.4642 21.2932 45.1824 20.3151 44.443V44.4438ZM20.078 48.5234C19.6591 48.8681 19.1331 49.0561 18.5906 49.055C18.4351 49.0549 18.28 49.0398 18.1274 49.0099C17.1336 48.8063 16.3851 47.9842 16.2755 46.9757C16.1659 45.9672 16.7203 45.0034 17.6472 44.5911C17.7467 44.5521 17.8135 44.4576 17.817 44.3507V39.9788C17.8169 39.7497 17.9178 39.5323 18.0927 39.3844C18.2676 39.2366 18.4988 39.1733 18.7246 39.2115C19.1048 39.2845 19.3779 39.6195 19.3729 40.0065V44.3512C19.3768 44.4576 19.4434 44.5516 19.5425 44.5906C20.2818 44.9186 20.7984 45.6062 20.9075 46.4076C21.0166 47.209 20.7027 48.0097 20.078 48.5234Z" fill="#B0E901"/>
<path d="M19.3337 45.0636C19.0477 44.941 18.8606 44.6616 18.856 44.3505V40.0058C18.8609 39.8726 18.7715 39.7542 18.6421 39.7224C18.6271 39.72 18.6119 39.7188 18.5967 39.7188C18.4535 39.7188 18.3374 39.8349 18.3374 39.9781V44.35C18.3329 44.6613 18.1457 44.9409 17.8595 45.0636C17.0931 45.4069 16.6603 46.2291 16.811 47.0552C16.9425 47.7819 17.5044 48.3545 18.2285 48.4996C18.7665 48.6085 19.325 48.4699 19.7499 48.1223C20.2365 47.723 20.4812 47.0998 20.3964 46.4761C20.3116 45.8523 19.9093 45.3172 19.3337 45.0623V45.0636ZM18.5967 45.9425C18.167 45.9425 17.8187 46.2908 17.8187 46.7204C17.8187 46.8636 17.7026 46.9797 17.5594 46.9797C17.4162 46.9797 17.3001 46.8636 17.3001 46.7204C17.301 46.0047 17.881 45.4247 18.5967 45.4238C18.7399 45.4238 18.856 45.5399 18.856 45.6831C18.856 45.8264 18.7399 45.9425 18.5967 45.9425Z" fill="#B0E901"/>
<path d="M26.8906 30H53.005V55.9491C53.005 56.2533 52.7583 56.5 52.454 56.5H26.8906V30Z" fill="#B0E901"/>
<g clip-path="url(#clip2_5456_8694)">
<path d="M48.5942 41.5327C48.5942 41.7286 48.4357 41.8873 48.2399 41.8873H31.9252C31.7293 41.8873 31.5703 41.7286 31.5703 41.5327V37.2767C31.5703 37.0808 31.7293 36.9219 31.9252 36.9219H48.2399C48.4358 36.9219 48.5942 37.0808 48.5942 37.2767V41.5327H48.5942Z" fill="#0050C8"/>
<path d="M46.1089 39.0508H34.0502C33.8543 39.0508 33.6953 39.2097 33.6953 39.4056C33.6953 39.6015 33.8543 39.7602 34.0502 39.7602H46.1089C46.3048 39.7602 46.4633 39.6015 46.4633 39.4056C46.4633 39.2097 46.3048 39.0508 46.1089 39.0508Z" fill="#B0E901"/>
<path d="M34.4095 39.4062C34.2142 39.4062 34.0547 39.5658 34.0547 39.7608V49.337C34.0547 49.5318 34.1342 49.6913 34.2318 49.6913C34.3295 49.6913 34.5519 49.6201 34.7264 49.5329L35.5109 49.1406C35.6849 49.0533 35.9707 49.0533 36.1452 49.1406L36.9292 49.5329C37.1038 49.6201 37.3895 49.6201 37.5641 49.5329L38.348 49.1406C38.5226 49.0533 38.8078 49.0533 38.9824 49.1406L39.7668 49.5329C39.9409 49.6201 40.2267 49.6201 40.4012 49.5329L41.1851 49.1406C41.3597 49.0533 41.6455 49.0533 41.8195 49.1406L42.604 49.5329C42.7786 49.6201 43.0638 49.6201 43.2383 49.5329L44.0228 49.1406C44.1974 49.0533 44.4826 49.0533 44.6572 49.1406L45.4411 49.5329C45.6157 49.6201 45.8381 49.6913 45.9357 49.6913C46.0333 49.6913 46.1134 49.5318 46.1134 49.337V39.7608C46.1134 39.5658 45.9534 39.4062 45.7585 39.4062H34.4095Z" fill="#0050C8"/>
<path d="M44.3356 46.5H42.9173C42.7215 46.5 42.5625 46.659 42.5625 46.8548C42.5625 47.0507 42.7215 47.2097 42.9173 47.2097H44.3356C44.5315 47.2097 44.6905 47.0507 44.6905 46.8548C44.6905 46.659 44.5315 46.5 44.3356 46.5Z" fill="#B0E901"/>
<path d="M37.2419 46.5H35.823C35.6272 46.5 35.4688 46.659 35.4688 46.8548C35.4688 47.0507 35.6272 47.2097 35.823 47.2097H37.2419C37.4378 47.2097 37.5967 47.0507 37.5967 46.8548C37.5967 46.659 37.4378 46.5 37.2419 46.5Z" fill="#B0E901"/>
<path d="M42.9173 42.2404H44.3356C44.5315 42.2404 44.6905 42.0817 44.6905 41.8858C44.6905 41.69 44.5315 41.5312 44.3356 41.5312H42.9173C42.7215 41.5312 42.5625 41.69 42.5625 41.8858C42.5625 42.0817 42.7215 42.2404 42.9173 42.2404Z" fill="#B0E901"/>
<path d="M44.3356 42.9492H42.9173C42.7215 42.9492 42.5625 43.1079 42.5625 43.3038C42.5625 43.4997 42.7215 43.6586 42.9173 43.6586H44.3356C44.5315 43.6586 44.6905 43.4997 44.6905 43.3038C44.6905 43.1079 44.5315 42.9492 44.3356 42.9492Z" fill="#B0E901"/>
<path d="M40.079 41.5312H35.823C35.6272 41.5312 35.4688 41.69 35.4688 41.8858C35.4688 42.0817 35.6272 42.2404 35.823 42.2404H40.079C40.2749 42.2404 40.4339 42.0817 40.4339 41.8858C40.4339 41.69 40.2749 41.5312 40.079 41.5312Z" fill="#B0E901"/>
<path d="M37.9692 42.9502V42.9492H35.823C35.6272 42.9492 35.4688 43.1079 35.4688 43.3038C35.4688 43.4997 35.6272 43.6586 35.823 43.6586H37.9692V43.6576C38.1568 43.6483 38.3059 43.4937 38.3059 43.3038C38.3059 43.1142 38.1567 42.9596 37.9692 42.9502Z" fill="#B0E901"/>
<path d="M35.823 44.7188C35.6272 44.7188 35.4688 44.8773 35.4688 45.0736C35.4688 45.2689 35.6272 45.4279 35.823 45.4279C36.0189 45.4279 36.1779 45.2689 36.1779 45.0736C36.1779 44.8773 36.0189 44.7188 35.823 44.7188Z" fill="#FAFCFF"/>
<path d="M37.2454 44.7188C37.0496 44.7188 36.8906 44.8773 36.8906 45.0736C36.8906 45.2689 37.0496 45.4279 37.2454 45.4279C37.4413 45.4279 37.6003 45.2689 37.6003 45.0736C37.6003 44.8773 37.4413 44.7188 37.2454 44.7188Z" fill="#FAFCFF"/>
<path d="M38.6595 44.7188C38.4637 44.7188 38.3047 44.8773 38.3047 45.0736C38.3047 45.2689 38.4637 45.4279 38.6595 45.4279C38.8554 45.4279 39.0138 45.2689 39.0138 45.0736C39.0138 44.8773 38.8554 44.7188 38.6595 44.7188Z" fill="#FAFCFF"/>
<path d="M40.0809 44.7188C39.885 44.7188 39.7266 44.8773 39.7266 45.0736C39.7266 45.2689 39.885 45.4279 40.0809 45.4279C40.2767 45.4279 40.4357 45.2689 40.4357 45.0736C40.4357 44.8773 40.2767 44.7188 40.0809 44.7188Z" fill="#FAFCFF"/>
<path d="M41.4954 44.7188C41.2996 44.7188 41.1406 44.8773 41.1406 45.0736C41.1406 45.2689 41.2996 45.4279 41.4954 45.4279C41.6913 45.4279 41.8503 45.2689 41.8503 45.0736C41.8503 44.8773 41.6913 44.7188 41.4954 44.7188Z" fill="#FAFCFF"/>
<path d="M42.9173 44.7188C42.7215 44.7188 42.5625 44.8773 42.5625 45.0736C42.5625 45.2689 42.7215 45.4279 42.9173 45.4279C43.1132 45.4279 43.2716 45.2689 43.2716 45.0736C43.2717 44.8773 43.1132 44.7188 42.9173 44.7188Z" fill="#FAFCFF"/>
<path d="M44.3387 44.7188C44.1428 44.7188 43.9844 44.8773 43.9844 45.0736C43.9844 45.2689 44.1428 45.4279 44.3387 45.4279C44.5346 45.4279 44.6935 45.2689 44.6935 45.0736C44.6935 44.8773 44.5345 44.7188 44.3387 44.7188Z" fill="#FAFCFF"/>
</g>
</g>
<path d="M85.9007 40.2255C85.2282 40.2255 84.5953 40.3442 84.0019 40.5815C83.4217 40.8189 82.914 41.1815 82.4789 41.6694C82.0437 42.1573 81.6943 42.777 81.4306 43.5286C81.18 44.2671 81.0548 45.1439 81.0548 46.1593C81.0548 47.1746 81.18 48.0581 81.4306 48.8097C81.6943 49.5481 82.0437 50.1613 82.4789 50.6492C82.914 51.1371 83.4217 51.4997 84.0019 51.737C84.5953 51.9744 85.2282 52.0931 85.9007 52.0931C86.5732 52.0931 87.1995 51.9744 87.7797 51.737C88.3731 51.4997 88.8874 51.1371 89.3225 50.6492C89.7576 50.1613 90.1005 49.5481 90.351 48.8097C90.6148 48.0581 90.7466 47.1746 90.7466 46.1593C90.7466 45.1439 90.6148 44.2671 90.351 43.5286C90.1005 42.777 89.7576 42.1573 89.3225 41.6694C88.8874 41.1815 88.3731 40.8189 87.7797 40.5815C87.1995 40.3442 86.5732 40.2255 85.9007 40.2255ZM85.9007 38.8409C87.0874 38.8409 88.1621 38.9992 89.1247 39.3156C90.1005 39.6321 90.9312 40.1002 91.6169 40.72C92.3158 41.3397 92.8564 42.1045 93.2388 43.0144C93.6212 43.9242 93.8124 44.9725 93.8124 46.1593C93.8124 47.346 93.6212 48.3943 93.2388 49.3042C92.8564 50.214 92.3158 50.9788 91.6169 51.5986C90.9312 52.2183 90.1005 52.6864 89.1247 53.0029C88.1621 53.3194 87.0874 53.4776 85.9007 53.4776C84.7139 53.4776 83.6327 53.3194 82.6569 53.0029C81.6811 52.6864 80.8438 52.2183 80.1449 51.5986C79.4592 50.9788 78.9252 50.214 78.5428 49.3042C78.1736 48.3943 77.989 47.346 77.989 46.1593C77.989 44.9725 78.1736 43.9242 78.5428 43.0144C78.9252 42.1045 79.4592 41.3397 80.1449 40.72C80.8438 40.1002 81.6811 39.6321 82.6569 39.3156C83.6327 38.9992 84.7139 38.8409 85.9007 38.8409ZM110.039 39.2365V53.082H107.171V47.0493H99.0616V53.082H96.1936V39.2365H99.0616V45.5659H107.171V39.2365H110.039ZM111.816 51.8953H112.41C112.805 51.8953 113.155 51.7304 113.458 51.4008C113.761 51.0711 113.939 50.5107 113.992 49.7196L114.684 39.2365H126.453V53.082H123.585V40.72H117.354L116.761 49.7196C116.669 51.0118 116.306 51.948 115.673 52.5282C115.053 53.0952 114.196 53.3787 113.102 53.3787C112.759 53.3787 112.456 53.3458 112.192 53.2798C112.047 53.2535 111.922 53.2205 111.816 53.1809V51.8953ZM132.883 48.2361H139.014L136.047 40.9178H135.85L132.883 48.2361ZM138.223 39.2365L143.86 53.082H141.012L139.707 49.7196H132.19L130.885 53.082H128.037L133.674 39.2365H138.223ZM156.822 53.082V41.8078H156.624L149.207 53.082H145.449V39.2365H148.317V50.5107H148.515L155.932 39.2365H159.69V53.082H156.822ZM152.371 38.1487C150.987 38.1487 149.998 37.852 149.405 37.2586C148.811 36.6652 148.515 35.874 148.515 34.8851H150.789C150.789 35.4785 150.941 35.907 151.244 36.1707C151.547 36.4345 151.923 36.5663 152.371 36.5663C152.82 36.5663 153.196 36.4345 153.499 36.1707C153.802 35.907 153.954 35.4785 153.954 34.8851H156.228C156.228 35.874 155.932 36.6652 155.338 37.2586C154.745 37.852 153.756 38.1487 152.371 38.1487ZM176.311 39.2365V53.082H173.443V47.0493H165.334V53.082H162.466V39.2365H165.334V45.5659H173.443V39.2365H176.311Z" fill="#0050C8"/>
<path d="M94.1421 20.2191L102.878 31.9219H97.4386L89.8565 21.7026H84.0876V31.9219H79.3076V8.84602H84.0876V19.2302H89.5269L97.109 8.84602H102.383L94.1421 20.2191ZM105.513 8.84602H116.721C118.413 8.84602 119.875 8.99986 121.105 9.30754C122.358 9.59324 123.391 10.0108 124.204 10.5602C125.017 11.0877 125.622 11.725 126.017 12.4722C126.413 13.2194 126.611 14.0436 126.611 14.9446C126.611 16.1094 126.281 17.1204 125.622 17.9775C124.962 18.8346 123.973 19.4719 122.655 19.8895C124.303 20.2191 125.589 20.8674 126.512 21.8344C127.457 22.7794 127.929 23.9992 127.929 25.4936C127.929 27.4715 127.105 29.0429 125.457 30.2077C123.83 31.3505 121.248 31.9219 117.71 31.9219H105.513V8.84602ZM110.293 21.3729V29.4495H117.71C119.358 29.4495 120.622 29.1198 121.501 28.4605C122.38 27.8012 122.819 26.8122 122.819 25.4936C122.819 24.0871 122.38 23.0542 121.501 22.3948C120.622 21.7136 119.358 21.3729 117.71 21.3729H110.293ZM116.721 18.9005C119.908 18.9005 121.501 17.5819 121.501 14.9446C121.501 13.7799 121.094 12.8898 120.281 12.2744C119.49 11.6371 118.303 11.3184 116.721 11.3184H110.293V18.9005H116.721ZM137.333 23.8453H147.553L142.608 11.6481H142.278L137.333 23.8453ZM146.234 8.84602L155.629 31.9219H150.882L148.706 26.3177H136.18L134.004 31.9219H129.257L138.652 8.84602H146.234ZM170.144 8.84602C171.793 8.84602 173.265 9.03283 174.562 9.40644C175.88 9.75807 176.99 10.2855 177.891 10.9888C178.792 11.6701 179.484 12.5162 179.968 13.5271C180.451 14.5161 180.693 15.6479 180.693 16.9226C180.693 18.1972 180.451 19.34 179.968 20.351C179.484 21.3399 178.792 22.1861 177.891 22.8893C176.99 23.5706 175.88 24.0981 174.562 24.4717C173.265 24.8233 171.793 24.9991 170.144 24.9991H163.057V31.9219H158.277V8.84602H170.144ZM163.057 11.3184V22.5267H170.144C171.88 22.5267 173.221 22.0762 174.166 21.1751C175.133 20.2521 175.617 18.8346 175.617 16.9226C175.617 15.0106 175.133 13.604 174.166 12.703C173.221 11.78 171.88 11.3184 170.144 11.3184H163.057ZM203.604 11.3184H194.704V31.9219H189.924V11.3184H181.023V8.84602H203.604V11.3184ZM229.32 8.84602V31.9219H224.54V11.3184H211.024V31.9219H206.244V8.84602H229.32ZM232.282 29.9439H233.271C233.93 29.9439 234.512 29.6692 235.018 29.1198C235.523 28.5704 235.82 27.6364 235.908 26.3177L237.062 8.84602H256.676V31.9219H251.896V11.3184H241.512L240.523 26.3177C240.369 28.4715 239.765 30.0319 238.71 30.9988C237.677 31.9439 236.249 32.4164 234.424 32.4164C233.853 32.4164 233.348 32.3614 232.908 32.2515C232.666 32.2076 232.457 32.1526 232.282 32.0867V29.9439ZM267.393 23.8453H277.612L272.667 11.6481H272.337L267.393 23.8453ZM276.293 8.84602L285.688 31.9219H280.941L278.766 26.3177H266.239L264.063 31.9219H259.316L268.711 8.84602H276.293ZM306.3 11.3184H297.399V31.9219H292.619V11.3184H283.718V8.84602H306.3V11.3184ZM312.398 23.8453H322.617L317.673 11.6481H317.343L312.398 23.8453ZM321.299 8.84602L330.694 31.9219H325.947L323.771 26.3177H311.244L309.069 31.9219H304.322L313.717 8.84602H321.299Z" fill="#0050C8"/>
<defs>
<clipPath id="clip0_5456_8694">
<rect y="3.5" width="53" height="53" rx="12.1143" fill="white"/>
</clipPath>
<clipPath id="clip1_5456_8694">
<rect width="15.0405" height="15.0405" fill="white" transform="translate(7.4375 10.168)"/>
</clipPath>
<clipPath id="clip2_5456_8694">
<rect width="17.0239" height="17.0239" fill="white" transform="translate(31.5703 34.793)"/>
</clipPath>
</defs>
</svg>
