<svg width="162" height="42" viewBox="0 0 162 42" fill="none" xmlns="http://www.w3.org/2000/svg">
<path d="M6.74927 29.5679C6.3078 29.5679 5.8923 29.6458 5.50276 29.8016C5.12188 29.9574 4.78861 30.1955 4.50296 30.5158C4.2173 30.836 3.9879 31.2429 3.81478 31.7363C3.65031 32.2211 3.56807 32.7967 3.56807 33.4632C3.56807 34.1298 3.65031 34.7098 3.81478 35.2032C3.9879 35.6879 4.2173 36.0904 4.50296 36.4107C4.78861 36.731 5.12188 36.9691 5.50276 37.1249C5.8923 37.2807 6.3078 37.3586 6.74927 37.3586C7.19075 37.3586 7.60192 37.2807 7.9828 37.1249C8.37233 36.9691 8.70993 36.731 8.99559 36.4107C9.28125 36.0904 9.50631 35.6879 9.67078 35.2032C9.84391 34.7098 9.93047 34.1298 9.93047 33.4632C9.93047 32.7967 9.84391 32.2211 9.67078 31.7363C9.50631 31.2429 9.28125 30.836 8.99559 30.5158C8.70993 30.1955 8.37233 29.9574 7.9828 29.8016C7.60192 29.6458 7.19075 29.5679 6.74927 29.5679ZM6.74927 28.659C7.52834 28.659 8.23383 28.7629 8.86575 28.9706C9.50631 29.1784 10.0517 29.4857 10.5018 29.8925C10.9606 30.2994 11.3155 30.8014 11.5665 31.3987C11.8176 31.996 11.9431 32.6842 11.9431 33.4632C11.9431 34.2423 11.8176 34.9305 11.5665 35.5278C11.3155 36.1251 10.9606 36.6271 10.5018 37.034C10.0517 37.4408 9.50631 37.7481 8.86575 37.9559C8.23383 38.1636 7.52834 38.2675 6.74927 38.2675C5.9702 38.2675 5.26038 38.1636 4.61982 37.9559C3.97925 37.7481 3.42957 37.4408 2.97078 37.034C2.52066 36.6271 2.17007 36.1251 1.91904 35.5278C1.67666 34.9305 1.55547 34.2423 1.55547 33.4632C1.55547 32.6842 1.67666 31.996 1.91904 31.3987C2.17007 30.8014 2.52066 30.2994 2.97078 29.8925C3.42957 29.4857 3.97925 29.1784 4.61982 28.9706C5.26038 28.7629 5.9702 28.659 6.74927 28.659ZM22.5954 28.9187V38.0078H20.7127V34.0475H15.389V38.0078H13.5063V28.9187H15.389V33.0737H20.7127V28.9187H22.5954ZM23.762 37.2287H24.1515C24.4112 37.2287 24.6406 37.1205 24.8397 36.9041C25.0388 36.6877 25.1557 36.3198 25.1903 35.8004L25.6448 28.9187H33.3705V38.0078H31.4878V29.8925H27.3977L27.0081 35.8004C26.9475 36.6488 26.7095 37.2634 26.294 37.6442C25.8871 38.0165 25.3245 38.2026 24.606 38.2026C24.3809 38.2026 24.1818 38.1809 24.0087 38.1377C23.9135 38.1203 23.8313 38.0987 23.762 38.0727V37.2287ZM37.5915 34.8266H41.6167L39.669 30.0223H39.5392L37.5915 34.8266ZM41.0973 28.9187L44.7979 38.0078H42.9281L42.0712 35.8004H37.137L36.2801 38.0078H34.4103L38.1109 28.9187H41.0973ZM53.3068 38.0078V30.6067H53.177L48.3078 38.0078H45.8407V28.9187H47.7235V36.3198H47.8533L52.7225 28.9187H55.1896V38.0078H53.3068ZM50.3853 28.2045C49.4764 28.2045 48.8271 28.0098 48.4376 27.6202C48.0481 27.2307 47.8533 26.7113 47.8533 26.0621H49.3465C49.3465 26.4516 49.4461 26.7329 49.6452 26.9061C49.8443 27.0792 50.091 27.1658 50.3853 27.1658C50.6796 27.1658 50.9263 27.0792 51.1254 26.9061C51.3245 26.7329 51.424 26.4516 51.424 26.0621H52.9173C52.9173 26.7113 52.7225 27.2307 52.333 27.6202C51.9434 28.0098 51.2942 28.2045 50.3853 28.2045ZM66.1011 28.9187V38.0078H64.2183V34.0475H58.8947V38.0078H57.0119V28.9187H58.8947V33.0737H64.2183V28.9187H66.1011Z" fill="#DDEBFF" fill-opacity="0.5"/>
<path d="M11.1351 11.8796L16.4474 18.9961H13.1397L8.52904 12.7817H5.02092V18.9961H2.11419V4.9636H5.02092V11.2782H8.32858L12.9393 4.9636H16.1467L11.1351 11.8796ZM18.0495 4.9636H24.8653C25.8944 4.9636 26.7831 5.05715 27.5315 5.24425C28.2932 5.41798 28.9214 5.67191 29.4158 6.00601C29.9103 6.32676 30.2778 6.71432 30.5184 7.1687C30.759 7.62309 30.8792 8.12425 30.8792 8.67219C30.8792 9.38049 30.6788 9.99525 30.2778 10.5165C29.8769 11.0377 29.2755 11.4252 28.4737 11.6791C29.476 11.8796 30.2578 12.2739 30.8191 12.8619C31.3938 13.4366 31.6811 14.1783 31.6811 15.087C31.6811 16.2898 31.1799 17.2454 30.1776 17.9537C29.1887 18.6486 27.6184 18.9961 25.4667 18.9961H18.0495V4.9636ZM20.9563 12.5812V17.4926H25.4667C26.469 17.4926 27.2375 17.2921 27.772 16.8912C28.3066 16.4903 28.5739 15.8889 28.5739 15.087C28.5739 14.2317 28.3066 13.6036 27.772 13.2027C27.2375 12.7884 26.469 12.5812 25.4667 12.5812H20.9563ZM24.8653 11.0778C26.8031 11.0778 27.772 10.2759 27.772 8.67219C27.772 7.96388 27.5248 7.42263 27.0303 7.04843C26.5492 6.66086 25.8275 6.46708 24.8653 6.46708H20.9563V11.0778H24.8653ZM37.3998 14.0847H43.6142L40.6072 6.66754H40.4068L37.3998 14.0847ZM42.8123 4.9636L48.5256 18.9961H45.6389L44.3158 15.5882H36.6982L35.3751 18.9961H32.4884L38.2017 4.9636H42.8123ZM57.3523 4.9636C58.3546 4.9636 59.25 5.07719 60.0385 5.30439C60.8403 5.51822 61.5152 5.83896 62.0632 6.26662C62.6111 6.68091 63.0321 7.19543 63.3261 7.81019C63.6201 8.41158 63.7671 9.09984 63.7671 9.87497C63.7671 10.6501 63.6201 11.345 63.3261 11.9598C63.0321 12.5612 62.6111 13.0757 62.0632 13.5034C61.5152 13.9177 60.8403 14.2384 60.0385 14.4656C59.25 14.6794 58.3546 14.7863 57.3523 14.7863H53.0423V18.9961H50.1355V4.9636H57.3523ZM53.0423 6.46708V13.2829H57.3523C58.408 13.2829 59.2233 13.0089 59.7979 12.461C60.3859 11.8997 60.68 11.0377 60.68 9.87497C60.68 8.71228 60.3859 7.85697 59.7979 7.30903C59.2233 6.74773 58.408 6.46708 57.3523 6.46708H53.0423ZM77.6994 6.46708H72.2868V18.9961H69.3801V6.46708H63.9676V4.9636H77.6994V6.46708ZM93.3372 4.9636V18.9961H90.4304V6.46708H82.2114V18.9961H79.3047V4.9636H93.3372ZM95.1382 17.7933H95.7396C96.1405 17.7933 96.4947 17.6263 96.802 17.2921C97.1094 16.958 97.2898 16.3901 97.3433 15.5882L98.0449 4.9636H109.973V18.9961H107.066V6.46708H100.751L100.15 15.5882C100.056 16.8979 99.6887 17.8468 99.0472 18.4348C98.4191 19.0095 97.5504 19.2968 96.4412 19.2968C96.0937 19.2968 95.7864 19.2634 95.5191 19.1966C95.3721 19.1698 95.2451 19.1364 95.1382 19.0963V17.7933ZM116.489 14.0847H122.704L119.697 6.66754H119.496L116.489 14.0847ZM121.902 4.9636L127.615 18.9961H124.728L123.405 15.5882H115.788L114.465 18.9961H111.578L117.291 4.9636H121.902ZM140.149 6.46708H134.736V18.9961H131.829V6.46708H126.417V4.9636H140.149V6.46708ZM143.857 14.0847H150.072L147.065 6.66754H146.864L143.857 14.0847ZM149.27 4.9636L154.983 18.9961H152.096L150.773 15.5882H143.156L141.833 18.9961H138.946L144.659 4.9636H149.27Z" fill="#DDEBFF" fill-opacity="0.5"/>
</svg>
