<svg width="197" height="32" viewBox="0 0 197 32" fill="none" xmlns="http://www.w3.org/2000/svg">
<path d="M38.6135 24.1113H31.4023V31.042H38.6135V24.1113Z" fill="#81E062"/>
<path d="M24.1953 1.01212V3.88137C21.7026 2.056 18.6163 0.974092 15.2828 0.955078C14.6596 0.955078 14.0562 0.993107 13.4627 1.05015C5.8955 1.89628 0.00989178 8.26604 0 15.9953V16.0334C0.0197836 23.7531 5.8955 30.1039 13.4627 30.95C14.0562 31.007 14.6695 31.0451 15.2828 31.0451H24.1953V24.1144H31.3965V0.95506L24.1953 1.01212ZM15.719 24.1039C11.0145 24.1039 7.20122 20.4865 7.20122 16.0229C7.20122 11.5593 11.0145 7.94185 15.719 7.94185C20.4236 7.94185 24.2369 11.5593 24.2369 16.0229C24.2369 20.4865 20.4236 24.1039 15.719 24.1039Z" fill="#81E062"/>
<path d="M55.0666 21.1118C54.7303 21.1118 54.4138 21.1711 54.1171 21.2898C53.8271 21.4085 53.5732 21.5898 53.3556 21.8337C53.1381 22.0777 52.9634 22.3875 52.8315 22.7633C52.7062 23.1326 52.6436 23.571 52.6436 24.0787C52.6436 24.5863 52.7062 25.0281 52.8315 25.4039C52.9634 25.7731 53.1381 26.0797 53.3556 26.3236C53.5732 26.5676 53.8271 26.7489 54.1171 26.8675C54.4138 26.9862 54.7303 27.0456 55.0666 27.0456C55.4028 27.0456 55.716 26.9862 56.0061 26.8675C56.3028 26.7489 56.5599 26.5676 56.7775 26.3236C56.995 26.0797 57.1665 25.7731 57.2917 25.4039C57.4236 25.0281 57.4895 24.5863 57.4895 24.0787C57.4895 23.571 57.4236 23.1326 57.2917 22.7633C57.1665 22.3875 56.995 22.0777 56.7775 21.8337C56.5599 21.5898 56.3028 21.4085 56.0061 21.2898C55.716 21.1711 55.4028 21.1118 55.0666 21.1118ZM55.0666 20.4195C55.6599 20.4195 56.1973 20.4986 56.6786 20.6568C57.1665 20.8151 57.5818 21.0491 57.9247 21.359C58.2741 21.6689 58.5444 22.0513 58.7356 22.5062C58.9268 22.9611 59.0224 23.4853 59.0224 24.0787C59.0224 24.672 58.9268 25.1962 58.7356 25.6511C58.5444 26.106 58.2741 26.4884 57.9247 26.7983C57.5818 27.1082 57.1665 27.3422 56.6786 27.5005C56.1973 27.6587 55.6599 27.7378 55.0666 27.7378C54.4732 27.7378 53.9325 27.6587 53.4447 27.5005C52.9568 27.3422 52.5381 27.1082 52.1887 26.7983C51.8458 26.4884 51.5788 26.106 51.3876 25.6511C51.203 25.1962 51.1107 24.672 51.1107 24.0787C51.1107 23.4853 51.203 22.9611 51.3876 22.5062C51.5788 22.0513 51.8458 21.6689 52.1887 21.359C52.5381 21.0491 52.9568 20.8151 53.4447 20.6568C53.9325 20.4986 54.4732 20.4195 55.0666 20.4195ZM67.1358 20.6173V27.54H65.7018V24.5237H61.647V27.54H60.213V20.6173H61.647V23.782H65.7018V20.6173H67.1358ZM68.0243 26.9467H68.321C68.5188 26.9467 68.6935 26.8642 68.8452 26.6994C68.9968 26.5346 69.0858 26.2544 69.1122 25.8588L69.4583 20.6173H75.3427V27.54H73.9087V21.359H70.7934L70.4967 25.8588C70.4506 26.5049 70.2693 26.973 69.9528 27.2631C69.6429 27.5466 69.2144 27.6884 68.6671 27.6884C68.4957 27.6884 68.3441 27.6719 68.2122 27.6389C68.1397 27.6257 68.0771 27.6093 68.0243 27.5895V26.9467ZM78.5576 25.1171H81.6233L80.1399 21.4579H80.041L78.5576 25.1171ZM81.2278 20.6173L84.0463 27.54H82.6222L81.9695 25.8588H78.2114L77.5587 27.54H76.1346L78.9531 20.6173H81.2278ZM90.5271 27.54V21.9029H90.4282L86.7196 27.54H84.8406V20.6173H86.2746V26.2544H86.3735L90.0821 20.6173H91.9611V27.54H90.5271ZM88.302 20.0734C87.6097 20.0734 87.1152 19.925 86.8185 19.6283C86.5218 19.3316 86.3735 18.936 86.3735 18.4416H87.5108C87.5108 18.7383 87.5866 18.9525 87.7382 19.0844C87.8899 19.2163 88.0778 19.2822 88.302 19.2822C88.5261 19.2822 88.714 19.2163 88.8657 19.0844C89.0173 18.9525 89.0931 18.7383 89.0931 18.4416H90.2304C90.2304 18.936 90.0821 19.3316 89.7854 19.6283C89.4887 19.925 88.9942 20.0734 88.302 20.0734ZM100.272 20.6173V27.54H98.8379V24.5237H94.7832V27.54H93.3492V20.6173H94.7832V23.782H98.8379V20.6173H100.272Z" fill="#0050C8"/>
<path d="M59.1843 10.6086L63.5522 16.46H60.8326L57.0416 11.3503H54.1571V16.46H51.7671V4.92204H54.1571V10.1141H56.8767L60.6678 4.92204H63.305L59.1843 10.6086ZM64.8696 4.92204H70.4737C71.3198 4.92204 72.0506 4.99895 72.6659 5.15279C73.2923 5.29564 73.8087 5.50443 74.2153 5.77914C74.6219 6.04286 74.924 6.36153 75.1218 6.73514C75.3196 7.10875 75.4185 7.52082 75.4185 7.97134C75.4185 8.55373 75.2537 9.05921 74.924 9.48776C74.5944 9.91631 74.0999 10.235 73.4406 10.4438C74.2647 10.6086 74.9076 10.9327 75.3691 11.4162C75.8416 11.8887 76.0778 12.4986 76.0778 13.2458C76.0778 14.2348 75.6658 15.0205 74.8416 15.6029C74.0285 16.1743 72.7373 16.46 70.9682 16.46H64.8696V4.92204ZM67.2596 11.1855V15.2238H70.9682C71.7923 15.2238 72.4242 15.0589 72.8637 14.7293C73.3032 14.3996 73.523 13.9051 73.523 13.2458C73.523 12.5426 73.3032 12.0261 72.8637 11.6964C72.4242 11.3558 71.7923 11.1855 70.9682 11.1855H67.2596ZM70.4737 9.94927C72.067 9.94927 72.8637 9.28996 72.8637 7.97134C72.8637 7.38895 72.6604 6.94392 72.2538 6.63624C71.8583 6.31758 71.2649 6.15824 70.4737 6.15824H67.2596V9.94927H70.4737ZM80.7799 12.4217H85.8896L83.4172 6.32307H83.2523L80.7799 12.4217ZM85.2303 4.92204L89.9279 16.46H87.5543L86.4665 13.6579H80.203L79.1152 16.46H76.7417L81.4392 4.92204H85.2303ZM97.1854 4.92204C98.0096 4.92204 98.7458 5.01544 99.3941 5.20224C100.053 5.37806 100.608 5.64178 101.059 5.99341C101.509 6.33406 101.856 6.75711 102.097 7.26259C102.339 7.75707 102.46 8.32298 102.46 8.96031C102.46 9.59764 102.339 10.169 102.097 10.6745C101.856 11.169 101.509 11.5921 101.059 11.9437C100.608 12.2843 100.053 12.5481 99.3941 12.7349C98.7458 12.9107 98.0096 12.9986 97.1854 12.9986H93.6416V16.46H91.2516V4.92204H97.1854ZM93.6416 6.15824V11.7624H97.1854C98.0535 11.7624 98.7238 11.5371 99.1963 11.0866C99.6798 10.6251 99.9216 9.91631 99.9216 8.96031C99.9216 8.00431 99.6798 7.30105 99.1963 6.85052C98.7238 6.389 98.0535 6.15824 97.1854 6.15824H93.6416ZM113.915 6.15824H109.465V16.46H107.075V6.15824H102.625V4.92204H113.915V6.15824ZM126.773 4.92204V16.46H124.383V6.15824H117.625V16.46H115.235V4.92204H126.773ZM128.254 15.471H128.749C129.078 15.471 129.369 15.3336 129.622 15.0589C129.875 14.7842 130.023 14.3172 130.067 13.6579L130.644 4.92204H140.451V16.46H138.061V6.15824H132.869L132.375 13.6579C132.298 14.7348 131.996 15.5149 131.468 15.9984C130.952 16.4709 130.238 16.7072 129.325 16.7072C129.04 16.7072 128.787 16.6797 128.567 16.6248C128.446 16.6028 128.342 16.5753 128.254 16.5424V15.471ZM145.81 12.4217H150.919L148.447 6.32307H148.282L145.81 12.4217ZM150.26 4.92204L154.957 16.46H152.584L151.496 13.6579H145.233L144.145 16.46H141.771L146.469 4.92204H150.26ZM165.263 6.15824H160.813V16.46H158.423V6.15824H153.972V4.92204H165.263V6.15824ZM168.312 12.4217H173.422L170.95 6.32307H170.785L168.312 12.4217ZM172.763 4.92204L177.46 16.46H175.087L173.999 13.6579H167.735L166.648 16.46H164.274L168.972 4.92204H172.763Z" fill="#0050C8"/>
</svg>
