<svg width="27" height="23" viewBox="0 0 27 23" fill="none" xmlns="http://www.w3.org/2000/svg">
<path d="M26.5215 17.3008H21.5781V22.2441H26.5215V17.3008Z" fill="#FAFCFF"/>
<path d="M16.6332 0.825842V2.87235C14.9244 1.5704 12.8087 0.798718 10.5235 0.785156C10.0963 0.785156 9.68268 0.81228 9.27582 0.852966C4.08836 1.45648 0.053656 5.99975 0.046875 11.5127V11.5398C0.060437 17.046 4.08836 21.5757 9.27582 22.1792C9.68268 22.2199 10.1031 22.247 10.5235 22.247H16.6332V17.3037H21.5698V0.785143L16.6332 0.825842ZM10.8226 17.2962C7.59753 17.2962 4.98345 14.7161 4.98345 11.5324C4.98345 8.34869 7.59753 5.76852 10.8226 5.76852C14.0476 5.76852 16.6617 8.34869 16.6617 11.5324C16.6617 14.7161 14.0476 17.2962 10.8226 17.2962Z" fill="#FAFCFF"/>
</svg>
