<svg width="78" height="63" viewBox="0 0 78 63" fill="none" xmlns="http://www.w3.org/2000/svg">
<path d="M77.9989 47.9961H63.4297V62.3579H77.9989V47.9961Z" fill="#003990" fill-opacity="0.2"/>
<path d="M48.8838 0.118204V6.06387C43.8475 2.28134 37.6121 0.0394014 30.8771 0C29.6181 0 28.399 0.0788027 27.1999 0.197007C11.9112 1.95037 0.0199852 15.1498 0 31.1665V31.2453C0.0399704 47.2423 11.9112 60.4023 27.1999 62.1557C28.399 62.2739 29.638 62.3527 30.8771 62.3527H48.8838V47.9909H63.433V-3.83276e-05L48.8838 0.118204ZM31.7585 47.9692C22.2535 47.9692 14.5492 40.4731 14.5492 31.2236C14.5492 21.9741 22.2535 14.478 31.7585 14.478C41.2634 14.478 48.9677 21.9741 48.9677 31.2236C48.9677 40.4731 41.2634 47.9692 31.7585 47.9692Z" fill="#003990" fill-opacity="0.2"/>
</svg>
