<svg width="83" height="17" viewBox="0 0 83 17" fill="none" xmlns="http://www.w3.org/2000/svg">
<path d="M76.3255 14.5133C77.3236 14.5133 78.2837 14.3476 79.1963 14.0102C80.1243 13.6627 81.0048 13.1009 81.8431 12.3305L82.9476 13.6414C82.1099 14.4117 81.0963 15.027 79.9009 15.4761C78.7109 15.9257 77.4465 16.1556 76.1068 16.1556C74.7671 16.1556 73.4707 15.9792 72.355 15.6311C71.2505 15.2836 70.3011 14.7645 69.5115 14.0797C68.7326 13.3949 68.1296 12.5497 67.7029 11.5495C67.2758 10.5492 67.0625 9.38809 67.0625 8.07779C67.0625 6.76749 67.2705 5.61168 67.6816 4.6061C68.1082 3.60052 68.7059 2.75532 69.4687 2.07585C70.2476 1.39103 71.1816 0.872465 72.2706 0.524441C73.359 0.176952 74.5645 0 75.8882 0C77.2119 0 78.4922 0.224531 79.6822 0.679475C80.8723 1.12907 81.8917 1.74386 82.7289 2.51422L81.6244 3.82505C80.7867 3.0547 79.9009 2.49818 78.9776 2.16673C78.0656 1.81924 77.1103 1.64229 76.1074 1.64229C75.3124 1.64229 74.5704 1.77059 73.8765 2.03308C73.1826 2.27899 72.5908 2.66444 72.0893 3.18835C71.5879 3.71279 71.1928 4.38104 70.8993 5.19951C70.6219 6.00194 70.4775 6.95941 70.4775 8.08313C70.4775 9.20686 70.6165 10.175 70.8993 10.9881C71.1923 11.7906 71.5986 12.4487 72.1161 12.9726C72.6442 13.497 73.2633 13.8873 73.9674 14.1492C74.6827 14.3898 75.4723 14.5128 76.3255 14.5128V14.5133Z" fill="#003990" fill-opacity="0.2"/>
<path d="M11.2271 0.203125H6.33393L0 15.9845H3.06272L4.73815 11.7264H12.8224L14.6849 15.9845H17.7476L11.2271 0.203125ZM5.48017 9.90716L8.67119 2.01648H8.8845L12.0755 9.90716H5.48017Z" fill="#003990" fill-opacity="0.2"/>
<path d="M32.9963 3.23056C32.6873 2.57781 32.2388 2.02664 31.6572 1.58827C31.0755 1.13333 30.3613 0.791184 29.507 0.566652C28.6693 0.326083 27.7193 0.203125 26.6571 0.203125H19V15.9845H22.0841V10.6561H26.6571C27.7193 10.6561 28.6688 10.5439 29.507 10.314C30.3554 10.0734 31.0755 9.73074 31.6572 9.29237C32.2393 8.83743 32.6873 8.29214 32.9963 7.65009C33.3059 6.99734 33.4662 6.25906 33.4662 5.4299C33.4609 4.60608 33.3059 3.87315 32.9963 3.23109V3.23056ZM29.2504 8.1788C28.642 8.76205 27.7781 9.05073 26.6571 9.05073H22.0841V1.80211H26.6571C27.7781 1.80211 28.642 2.10149 29.2504 2.69542C29.8748 3.27867 30.1843 4.18802 30.1843 5.42348C30.1897 6.66482 29.8748 7.57952 29.2504 8.17827V8.1788Z" fill="#003990" fill-opacity="0.2"/>
<path d="M67.7278 0.203125L59.441 15.9845H56.1431L58.7952 10.7577H57.0931L51.0312 0.203125H54.5425L59.5367 8.94969H59.7506L64.4299 0.203125H67.7278Z" fill="#003990" fill-opacity="0.2"/>
<path d="M44.0732 7.58005L50.4017 15.9845H46.8905L41.5386 8.84812H37.8141L37.8034 15.9845H34.7188V0.203125H37.8034L37.7927 7.02942H41.2981L46.2019 0.203125H49.6063L44.0732 7.58005Z" fill="#003990" fill-opacity="0.2"/>
</svg>
