<svg width="47" height="59" viewBox="0 0 47 59" fill="none" xmlns="http://www.w3.org/2000/svg">
<path d="M26.2107 16.0868C25.333 13.3878 21.5111 13.3877 20.6334 16.0868L16.5554 28.626H3.35965C0.519237 28.626 -0.661807 32.2576 1.63616 33.9254L12.3119 41.675L8.2341 54.2143C7.35638 56.9132 10.4483 59.1579 12.7462 57.4897L23.4221 49.7401L34.0974 57.4897C36.3957 59.1575 39.4876 56.9132 38.6099 54.2143L34.5319 41.675L45.2076 33.9254C47.5055 32.2576 46.3245 28.626 43.4842 28.626H30.2883L26.2107 16.0868Z" fill="#003990"/>
<path d="M3.41406 0.933594C5.0709 0.933594 6.41406 2.21836 6.41406 3.80316V20.0641C6.41406 21.6489 5.0709 22.9336 3.41406 22.9336C1.75722 22.9336 0.414062 21.6489 0.414062 20.0641V3.80316C0.414062 2.21836 1.75722 0.933594 3.41406 0.933594Z" fill="#003990"/>
<path d="M43.4766 0.933594C45.1334 0.933594 46.4766 2.21836 46.4766 3.80316V20.0641C46.4766 21.6489 45.1334 22.9336 43.4766 22.9336C41.8198 22.9336 40.4766 21.6489 40.4766 20.0641V3.80316C40.4766 2.21836 41.8198 0.933594 43.4766 0.933594Z" fill="#003990"/>
<path d="M26.5 3.9336C26.5 2.27676 25.1568 0.933594 23.5 0.933594C21.8432 0.933594 20.5 2.27676 20.5 3.9336V5.93359C20.5 7.59047 21.8432 8.93359 23.5 8.93359C25.1568 8.93359 26.5 7.59047 26.5 5.93359V3.9336Z" fill="#003990"/>
</svg>
