<svg width="33" height="42" viewBox="0 0 33 42" fill="none" xmlns="http://www.w3.org/2000/svg">
<path d="M18.4734 11.6567C17.8548 9.74465 15.1611 9.74462 14.5424 11.6567L11.6681 20.5397H2.36748C0.365498 20.5397 -0.466928 23.1124 1.15273 24.2939L8.67721 29.7839L5.8031 38.667C5.18446 40.5789 7.36369 42.1691 8.98335 40.9873L16.5079 35.4974L24.0321 40.9873C25.652 42.1688 27.8312 40.5789 27.2126 38.667L24.3383 29.7839L31.8628 24.2939C33.4824 23.1124 32.6501 20.5397 30.6481 20.5397H21.3474L18.4734 11.6567Z" fill="#FAFCFF"/>
<path d="M2.22696 0.605469C3.35331 0.605469 4.26641 1.52244 4.26641 2.65355V14.2593C4.26641 15.3904 3.35331 16.3074 2.22696 16.3074C1.10061 16.3074 0.1875 15.3904 0.1875 14.2593V2.65355C0.1875 1.52244 1.10061 0.605469 2.22696 0.605469Z" fill="#FAFCFF"/>
<path d="M30.7738 0.605469C31.9002 0.605469 32.8133 1.52244 32.8133 2.65355V14.2593C32.8133 15.3904 31.9002 16.3074 30.7738 16.3074C29.6475 16.3074 28.7344 15.3904 28.7344 14.2593V2.65355C28.7344 1.52244 29.6475 0.605469 30.7738 0.605469Z" fill="#FAFCFF"/>
<path d="M18.5477 2.65355C18.5477 1.52244 17.6345 0.605469 16.5082 0.605469C15.3819 0.605469 14.4688 1.52244 14.4688 2.65355V4.01892C14.4688 5.15006 15.3819 6.067 16.5082 6.067C17.6345 6.067 18.5477 5.15006 18.5477 4.01892V2.65355Z" fill="#FAFCFF"/>
</svg>
