<svg width="32" height="32" viewBox="0 0 32 32" fill="none" xmlns="http://www.w3.org/2000/svg">
<path d="M31.2648 16C31.2648 24.4305 24.4305 31.2648 16 31.2648C7.56947 31.2648 0.735175 24.4305 0.735175 16C0.735175 7.56947 7.56947 0.735175 16 0.735175C24.4305 0.735175 31.2648 7.56947 31.2648 16Z" stroke="#27A7E7" stroke-width="1.47035"/>
<path d="M22.1624 11.7134C22.1261 11.5579 22.0702 11.5113 21.981 11.4662C21.7845 11.3666 21.4278 11.4522 21.4278 11.4522C21.4278 11.4522 8.79529 14.7835 8.05166 15.2159C7.89145 15.3092 7.83553 15.3667 7.80379 15.4383C7.64962 15.7836 8.01236 15.9764 8.01236 15.9764L11.0639 17.3388C11.0639 17.3388 11.1803 17.3684 11.2242 17.345C11.9829 16.9484 18.8614 13.362 19.2483 13.2563C19.3088 13.2438 19.3511 13.2687 19.336 13.3091C19.1365 13.8364 13.0258 18.4446 13.0258 18.4446C13.0258 18.4446 13.0016 18.4695 12.985 18.5006L12.9774 18.4959L12.388 21.6811C12.388 21.6811 12.1748 22.6531 13.2223 21.762C13.9614 21.1321 14.6672 20.6157 15.0209 20.3638C16.0335 21.2378 17.1202 22.2021 17.5827 22.6967C17.8155 22.9455 18.0226 23.0015 18.1979 23.0124C18.677 23.0404 18.8599 22.5132 18.8599 22.5132C18.8599 22.5132 21.9326 13.5098 22.1201 12.2811C22.1382 12.1613 22.1548 12.0851 22.1639 12.0012C22.176 11.8861 22.176 11.7694 22.1639 11.7119L22.1624 11.7134Z" fill="#27A7E7"/>
</svg>

