<svg width="50" height="50" viewBox="0 0 50 50" fill="none" xmlns="http://www.w3.org/2000/svg">
<g clip-path="url(#clip0_7252_2860)">
<path d="M43.1818 0H6.81818C3.0526 0 0 3.0526 0 6.81818V43.1818C0 46.9474 3.0526 50 6.81818 50H43.1818C46.9474 50 50 46.9474 50 43.1818V6.81818C50 3.0526 46.9474 0 43.1818 0Z" fill="#1C8ADB"/>
<path d="M38.6171 12.926L38.1 13.1135L10.0375 23.2243C9.83867 23.2858 9.66583 23.4116 9.54611 23.5819C9.42638 23.7521 9.36654 23.9573 9.37596 24.1653C9.38539 24.3732 9.46354 24.5722 9.59817 24.7309C9.73281 24.8897 9.91631 24.9993 10.1199 25.0425L17.3841 27.0312L18.7392 31.0084L20.0944 34.9857C20.1722 35.1807 20.2965 35.3537 20.4564 35.4897C20.6162 35.6258 20.8069 35.7207 21.0118 35.7664C21.2168 35.812 21.4297 35.8069 21.6322 35.7516C21.8347 35.6962 22.0207 35.5923 22.1739 35.4488L25.9267 31.9033L33.2961 36.9005C34.1966 37.5141 35.4807 37.0596 35.7108 36.0482L40.5915 14.4829C40.8302 13.4147 39.7052 12.5368 38.6171 12.926ZM35.0347 17.713L22.3557 28.0766L21.7591 28.5652C21.6281 28.6691 21.5425 28.8199 21.5205 28.9857L21.387 30.088L21.0205 33.1846C21.0235 33.2222 21.0114 33.2596 20.9869 33.2883C20.9624 33.3171 20.9275 33.335 20.8898 33.338C20.8521 33.341 20.8148 33.3289 20.786 33.3044C20.7573 33.2799 20.7394 33.245 20.7364 33.2073L19.7052 30.1135L18.6398 26.9459C18.5948 26.8035 18.6007 26.6499 18.6567 26.5115C18.7127 26.373 18.8153 26.2584 18.9466 26.1874L32.1398 18.6249L34.6228 17.2044C34.9836 16.9942 35.3529 17.4516 35.0347 17.713Z" fill="#FAFCFF"/>
</g>
<defs>
<clipPath id="clip0_7252_2860">
<rect width="50" height="50" rx="10" fill="white"/>
</clipPath>
</defs>
</svg>
