<svg width="40" height="40" viewBox="0 0 40 40" fill="none" xmlns="http://www.w3.org/2000/svg">
<path d="M39.081 20C39.081 30.5382 30.5382 39.081 20 39.081C9.46184 39.081 0.918968 30.5382 0.918968 20C0.918968 9.46184 9.46184 0.918968 20 0.918968C30.5382 0.918968 39.081 9.46184 39.081 20Z" stroke="#0166FF" stroke-width="1.83794"/>
<path d="M28.7317 22.6186C27.549 21.3433 26.304 20.624 25.4708 20.2313C26.2511 19.7686 27.6095 18.8276 28.7657 17.1519C29.9352 15.4566 30.3508 13.81 30.5133 12.8963H26.782C26.5647 13.6506 26.132 14.7956 25.2346 15.9407C23.88 17.6728 22.2363 18.4291 21.4296 18.7324L21.4145 12.8904L17.9306 12.9002L17.959 23.194C17.0257 22.8616 16.0433 22.3172 15.1987 21.4307C14.1181 20.2993 13.6684 19.0143 13.2736 17.8828C12.7219 16.3042 12.4631 14.642 12.5027 12.939L9.02077 12.8516C8.96976 14.9978 9.29849 17.0994 9.99564 19.0959C10.4604 20.4276 11.099 22.2511 12.7143 23.9425C14.9078 26.2423 17.6227 26.983 19.5139 27.2008L21.4542 27.4243L21.4409 22.3095C22.089 22.3736 23.2698 22.5855 24.4638 23.4137C26.4211 24.7726 27.0087 26.8178 27.1542 27.3932H31.3238C31.0631 26.3842 30.4113 24.4266 28.7355 22.6186H28.7317Z" fill="#0166FF"/>
</svg>
