<svg width="51" height="51" viewBox="0 0 51 51" fill="none" xmlns="http://www.w3.org/2000/svg">
<g clip-path="url(#clip0_7252_2857)">
<path d="M26.0424 12.3984C19.0453 12.3984 13.3547 18.0867 13.3516 25.0788C13.3508 27.4749 14.0216 29.8083 15.2912 31.8273L15.5928 32.3071L14.3111 36.9868L19.1122 35.7277L19.5756 36.0024C21.523 37.158 23.7557 37.7693 26.0319 37.77H26.037C33.0287 37.77 38.7193 32.0814 38.7224 25.0889C38.7235 21.7002 37.4053 18.5143 35.0104 16.1174C32.6155 13.7206 29.4303 12.3996 26.0424 12.3984ZM33.5038 30.5308C33.1859 31.4211 31.6626 32.2339 30.9299 32.3437C30.2727 32.4417 29.4416 32.4826 28.528 32.1927C27.9739 32.0168 27.2638 31.7822 26.3537 31.3896C22.5285 29.7383 20.0301 25.8877 19.8394 25.6333C19.6487 25.3788 18.2822 23.566 18.2822 21.6893C18.2822 19.8131 19.2674 18.8906 19.6168 18.5092C19.9666 18.1275 20.3799 18.0322 20.6339 18.0322C20.888 18.0322 21.1425 18.0345 21.3647 18.0454C21.5989 18.0571 21.9133 17.9563 22.2226 18.6999C22.5405 19.4633 23.3032 21.3395 23.3985 21.5302C23.4938 21.7213 23.5572 21.9438 23.4304 22.1983C23.3032 22.4528 22.7032 23.2193 22.4771 23.5022C22.3086 23.7123 22.0872 23.8987 22.3098 24.2804C22.532 24.6617 23.2977 25.9103 24.4312 26.9212C25.8879 28.22 27.1167 28.6223 27.498 28.8134C27.879 29.004 28.1015 28.9721 28.3241 28.718C28.5463 28.4636 29.2774 27.6048 29.5315 27.2231C29.7856 26.8414 30.04 26.9052 30.3894 27.0325C30.7392 27.1593 32.6139 28.0819 32.9952 28.2725C33.3765 28.4636 33.6306 28.5589 33.726 28.718C33.8217 28.8772 33.8217 29.6402 33.5038 30.5308Z" fill="#25D366"/>
<path d="M47.3218 0H3.67815C1.64667 0 0 1.64667 0 3.67815V47.3218C0 49.3533 1.64667 51 3.67815 51H47.3218C49.3533 51 51 49.3533 51 47.3218V3.67815C51 1.64667 49.3533 0 47.3218 0ZM26.0405 40.3469C26.0401 40.3469 26.0408 40.3469 26.0405 40.3469H26.0342C23.4798 40.3457 20.9697 39.7052 18.7406 38.4897L10.65 40.6114L12.8154 32.7049C11.4796 30.3914 10.7769 27.7665 10.778 25.0774C10.7815 16.6651 17.6281 9.82125 26.0405 9.82125C30.1229 9.82281 33.9551 11.4119 36.8364 14.2955C39.7181 17.1795 41.304 21.0129 41.3025 25.0895C41.299 33.5022 34.4516 40.3469 26.0405 40.3469Z" fill="#25D366"/>
</g>
<defs>
<clipPath id="clip0_7252_2857">
<rect width="51" height="51" rx="10" fill="white"/>
</clipPath>
</defs>
</svg>
