<svg width="40" height="40" viewBox="0 0 40 40" fill="none" xmlns="http://www.w3.org/2000/svg">
<path d="M39.081 20C39.081 30.5382 30.5381 39.081 20 39.081C9.46183 39.081 0.918968 30.5382 0.918968 20C0.918968 9.46184 9.46183 0.918968 20 0.918968C30.5381 0.918968 39.081 9.46184 39.081 20Z" stroke="#81E062" stroke-width="1.83794"/>
<path d="M28.9819 15.2825C27.304 12.3958 24.132 10.5222 20.6772 10.4149C17.174 10.3076 13.5681 12.0249 11.7273 15.307C10.0474 18.2991 10.183 21.9748 12.0664 24.8992C11.8164 26.2323 11.5645 27.5655 11.3146 28.8987C12.7814 28.6671 14.2482 28.4336 15.715 28.202C16.242 28.4807 19.7588 30.2639 23.8666 28.7895C24.3801 28.605 28.3483 27.1042 29.7764 22.8636C31.0746 19.0053 29.2842 15.7966 28.9839 15.2806L28.9819 15.2825ZM28.3348 22.2949C27.1819 25.8802 23.8588 27.1908 23.4229 27.3546C19.5844 28.7933 16.2672 26.8255 15.9126 26.6071C15.0174 26.7935 14.1222 26.9799 13.229 27.1644L13.6514 24.515C11.8242 22.0501 11.5859 18.7887 13.0372 16.1224C14.5621 13.3204 17.5848 11.8498 20.5242 11.9006C23.4364 11.9533 26.1336 13.4974 27.5791 15.9133C27.8368 16.3446 29.385 19.0279 28.3348 22.2949Z" fill="#81E062"/>
<path d="M17.9219 15.4727C18.0304 15.4727 18.1273 15.5404 18.1603 15.6402C18.3424 16.1713 19.0613 17.8001 19.0051 17.9752C18.9373 18.1861 18.1099 18.8019 18.077 19.1013C18.044 19.4007 18.6602 20.2348 19.3035 20.8901C20.1793 21.7808 21.5666 22.3664 21.679 22.4135C21.7933 22.4606 22.6536 21.2272 22.8319 21.15C23.0102 21.0728 25.2985 22.2723 25.2985 22.4775C25.2985 22.6828 25.1202 23.387 24.6978 23.9444C24.4033 24.3342 23.7562 24.5037 23.2756 24.5658C23.264 24.5658 23.2524 24.5658 23.2427 24.5658C22.8784 24.5074 20.3672 24.2325 18.2068 22.1631C16.4493 20.4796 15.9223 18.5627 15.7557 17.8001C15.7537 17.7888 15.7518 17.7794 15.7518 17.7681C15.7421 17.512 15.7518 16.7531 16.3079 16.0903C16.523 15.8323 16.8989 15.5913 17.0345 15.5066C17.0675 15.4858 17.1062 15.4745 17.1469 15.4745H17.9219V15.4727Z" fill="#81E062"/>
</svg>