<svg width="249" height="75" viewBox="0 0 249 75" fill="none" xmlns="http://www.w3.org/2000/svg">
<path d="M0.75 60.96H33.435V67.74H0.75V60.96ZM237.12 39.195L247.425 27.825H239.745L231.3 37.275V27.825H225.18V51.72H231.33V41.655L240.36 51.72H248.25L237.12 39.195ZM37.035 40.77C36.87 45.27 36.3 46.125 33.81 46.125V51.735H34.74C40.995 51.735 42.48 48.51 42.705 41.325L42.975 33.375H48.75V51.72H54.87V27.825H37.455L37.035 40.77ZM10.47 44.88H23.37L25.515 51.72H32.67L23.025 22.98C22.095 20.205 21.015 18 17.325 18C13.635 18 12.51 20.205 11.52 22.98L1.41 51.72H8.13L10.47 44.88ZM17.01 25.5H17.175L21.495 39.12H12.405L17.01 25.5ZM159.975 31.215H153.15V24.465H168.99V18.465H146.73V51.72H159.975C167.31 51.72 171.525 48.06 171.525 41.37C171.525 35.025 167.25 31.215 159.975 31.215ZM159.66 45.705H153.15V37.065H159.66C163.05 37.065 164.955 38.565 164.955 41.385C164.955 44.205 163.05 45.705 159.66 45.705ZM99.135 27.27V18.42H93.03V27.27C89.8243 27.3758 86.7916 28.7494 84.5979 31.0893C82.4043 33.4293 81.2289 36.5442 81.33 39.75C81.2208 42.9624 82.392 46.0866 84.5862 48.4354C86.7803 50.7844 89.8176 52.1655 93.03 52.275V61.275H99.15V52.275C100.741 52.2226 102.307 51.8571 103.756 51.1989C105.206 50.5408 106.512 49.6032 107.598 48.4398C108.685 47.2763 109.532 45.9099 110.09 44.4187C110.648 42.9276 110.906 41.341 110.85 39.75C110.914 38.1579 110.661 36.569 110.104 35.076C109.548 33.5829 108.699 32.2157 107.609 31.0539C106.518 29.8923 105.207 28.9593 103.753 28.3097C102.298 27.66 100.728 27.3066 99.135 27.27ZM93.045 46.5C91.4253 46.3221 89.9405 45.5147 88.9107 44.252C87.8808 42.9893 87.3885 41.3724 87.54 39.75C87.408 38.1317 87.9073 36.525 88.9337 35.2668C89.9598 34.0084 91.4333 33.1962 93.045 33V46.5ZM99.165 46.5V33C100.777 33.1962 102.25 34.0084 103.276 35.2668C104.303 36.525 104.802 38.1317 104.67 39.75C104.814 41.3708 104.318 42.9834 103.29 44.2444C102.262 45.5054 100.782 46.3148 99.165 46.5ZM133.785 44.385V36.33C133.785 30.45 130.05 26.775 123.78 26.775C117.51 26.775 113.85 30.675 113.55 34.74H119.745C119.955 33.87 120.885 32.325 123.765 32.325C124.304 32.2557 124.849 32.3124 125.361 32.4909C125.874 32.6694 126.337 32.9644 126.715 33.3531C127.093 33.7416 127.377 34.2129 127.542 34.7295C127.707 35.2463 127.749 35.7942 127.665 36.33H121.665C116.235 36.33 113.01 39.195 113.01 43.935C112.968 45.0662 113.163 46.1936 113.584 47.2443C114.005 48.2951 114.642 49.2456 115.454 50.0346C116.265 50.8236 117.234 51.4334 118.296 51.8246C119.358 52.2156 120.491 52.3792 121.62 52.305C122.895 52.372 124.167 52.1238 125.324 51.5823C126.48 51.0406 127.485 50.2225 128.25 49.2C128.748 50.0422 129.474 50.726 130.346 51.1719C131.215 51.618 132.195 51.808 133.17 51.72H135.285V46.2C134.25 46.2 133.785 45.705 133.785 44.385ZM127.665 42.885C127.69 43.4759 127.59 44.0653 127.37 44.6145C127.151 45.1637 126.818 45.6602 126.393 46.0711C125.967 46.4821 125.46 46.7984 124.903 46.9991C124.347 47.1996 123.755 47.28 123.165 47.235C120.96 47.235 119.22 46.44 119.22 44.055C119.22 41.67 121.155 41.325 122.79 41.325H127.665V42.885ZM70.11 35.085H65.715V27.825H59.595V51.72H70.215C76.86 51.72 79.215 47.4 79.215 43.32C79.245 38.055 75.945 35.085 70.11 35.085ZM69.66 46.5H65.715V40.5H69.66C71.775 40.5 73.05 41.46 73.05 43.5C73.05 45.54 71.835 46.5 69.66 46.5ZM194.88 44.385V36.33C194.88 30.45 191.145 26.775 184.875 26.775C178.605 26.775 174.945 30.675 174.645 34.74H180.84C181.05 33.87 181.98 32.325 184.86 32.325C185.399 32.2557 185.945 32.3124 186.456 32.4909C186.969 32.6694 187.432 32.9644 187.811 33.3531C188.189 33.7416 188.472 34.2129 188.637 34.7295C188.802 35.2463 188.844 35.7942 188.76 36.33H182.76C177.33 36.33 174.105 39.195 174.105 43.935C174.063 45.0662 174.258 46.1936 174.68 47.2443C175.1 48.2951 175.737 49.2456 176.549 50.0346C177.36 50.8236 178.329 51.4334 179.391 51.8246C180.453 52.2156 181.585 52.3792 182.715 52.305C184.002 52.3846 185.289 52.1425 186.461 51.6006C187.631 51.0585 188.647 50.2335 189.42 49.2C189.91 50.0275 190.623 50.7018 191.477 51.147C192.33 51.5922 193.29 51.7906 194.25 51.72H196.365V46.2C195.3 46.2 194.88 45.705 194.88 44.385ZM188.79 42.885C188.812 43.4753 188.711 44.0636 188.49 44.6117C188.27 45.1597 187.936 45.6552 187.512 46.0658C187.087 46.4762 186.58 46.7925 186.025 46.9941C185.471 47.1955 184.88 47.2776 184.29 47.235C182.085 47.235 180.345 46.44 180.345 44.055C180.345 41.67 182.28 41.325 183.915 41.325H188.79V42.885ZM214.425 36.72H205.98V27.825H199.86V51.735H205.98V42.315H214.425V51.72H220.545V27.825H214.425V36.72Z" fill="#969696"/>
</svg>
