<svg width="148" height="31" viewBox="0 0 148 31" fill="none" xmlns="http://www.w3.org/2000/svg">
<g clip-path="url(#clip0_6233_963)">
<path d="M142.818 6.49609L137.761 12.2004V6.49609H134.102V20.8961H137.761V14.8335L143.174 20.8961H147.902L141.244 13.3511L147.419 6.49609H142.818Z" fill="#898989"/>
<path d="M127.546 11.8667H122.643V6.49609H119.094V20.8961H122.643V15.2184H127.546V20.8961H131.094V6.49609H127.546V11.8667Z" fill="#898989"/>
<mask id="mask0_6233_963" style="mask-type:luminance" maskUnits="userSpaceOnUse" x="0" y="0" width="148" height="31">
<path d="M147.898 0.496094H0.898438V30.4961H147.898V0.496094Z" fill="white"/>
</mask>
<g mask="url(#mask0_6233_963)">
<path d="M22.6269 14.3009C22.5399 16.9872 22.1976 17.5237 20.7031 17.5237V20.9H21.26C24.9841 20.9 25.8792 18.9549 26.0169 14.6326L26.1688 9.84969H29.66V20.9H33.3031V6.5H22.8801L22.6269 14.3009Z" fill="#898989"/>
<path d="M41.8091 10.8734H39.2489V6.5H35.7031V20.9H41.8584C45.7254 20.9 47.1031 18.2915 47.1031 15.8345C47.1031 12.6629 45.1814 10.8714 41.8091 10.8714M41.5391 17.7264H39.2489V14.0675H41.5391C42.771 14.0675 43.5081 14.6306 43.5081 15.8325C43.5081 17.1367 42.7946 17.7264 41.5391 17.7264Z" fill="#898989"/>
<path d="M59.7605 5.83438V0.496094H56.0363V5.83438C51.7697 6.19217 48.8984 9.18128 48.8984 13.344C48.8984 17.5066 51.7697 20.5223 56.0363 20.8801V26.2961H59.7605V20.8801C64.0271 20.5489 66.8984 17.5332 66.8984 13.344C66.8984 9.1547 64.0271 6.16559 59.7605 5.83438ZM56.0363 17.4064C53.9682 17.1243 52.6744 15.5929 52.6744 13.346C52.6744 11.0991 53.9682 9.56565 56.0363 9.28555V17.4085V17.4064ZM59.7605 17.4064V9.28351C61.8286 9.56361 63.1225 11.097 63.1225 13.344C63.1225 15.5909 61.8286 17.1243 59.7605 17.4044" fill="#898989"/>
<path d="M80.3589 16.0393V11.1336C80.3589 7.55152 78.0554 5.29297 74.1799 5.29297C70.3044 5.29297 68.0533 7.68242 67.8689 10.1737H71.692C71.8219 9.6293 72.3983 8.6943 74.1799 8.6943C75.6471 8.6943 76.5882 9.36958 76.5882 11.1336H72.8427C69.4912 11.1336 67.5 12.8727 67.5 15.7795C67.5 18.6864 69.6777 20.893 72.8154 20.893C75.1168 20.893 76.3954 19.8146 76.9529 18.998C77.4497 19.985 78.5501 20.5294 79.99 20.5294H81.3V17.155C80.6188 17.155 80.3568 16.8434 80.3568 16.0393M76.5861 15.0793C76.5861 16.7665 75.3809 17.7264 73.811 17.7264C72.4486 17.7264 71.3755 17.234 71.3755 15.7795C71.3755 14.3251 72.5534 14.1194 73.5742 14.1194H76.5861V15.0793Z" fill="#898989"/>
<path d="M95.9104 8.11365H91.7759V4.10399H101.356V0.496094H87.8984V20.2961H95.9124C100.355 20.2961 102.898 18.1277 102.898 14.1423C102.898 10.385 100.355 8.11365 95.9124 8.11365M95.7336 16.7144H91.778V11.5681H95.7336C97.7874 11.5681 98.9449 12.5009 98.9449 14.1403C98.9449 15.7797 97.7895 16.7124 95.7336 16.7124" fill="#898989"/>
<path d="M116.367 16.0393V11.1336C116.367 7.55152 114.063 5.29297 110.188 5.29297C106.312 5.29297 104.061 7.68242 103.877 10.1737H107.7C107.83 9.6293 108.406 8.6943 110.188 8.6943C111.655 8.6943 112.596 9.36958 112.596 11.1336H108.85C105.499 11.1336 103.508 12.8727 103.508 15.7795C103.508 18.6864 105.686 20.893 108.823 20.893C111.125 20.893 112.403 19.8146 112.961 18.998C113.457 19.985 114.558 20.5294 115.998 20.5294H117.308V17.155C116.627 17.155 116.365 16.8434 116.365 16.0393M112.594 15.0793C112.594 16.7665 111.389 17.7264 109.819 17.7264C108.456 17.7264 107.383 17.234 107.383 15.7795C107.383 14.3251 108.561 14.1194 109.582 14.1194H112.594V15.0793Z" fill="#898989"/>
<path d="M20.0984 26.293H0.898438V30.493H20.0984V26.293Z" fill="#898989"/>
<path d="M14.3632 3.41672C13.8069 1.78484 13.1677 0.496094 10.977 0.496094C8.78626 0.496094 8.10457 1.77885 7.52199 3.41672L1.5 20.2961H5.49308L6.88277 16.2842H14.5655L15.8541 20.2961H20.1L14.3632 3.41672ZM8.04591 12.8948L10.7747 4.89498H10.8759L13.453 12.8948H8.04388H8.04591Z" fill="#898989"/>
</g>
</g>
<defs>
<clipPath id="clip0_6233_963">
<rect width="147" height="30" fill="white" transform="translate(0.898438 0.5)"/>
</clipPath>
</defs>
</svg>
