<svg xmlns="http://www.w3.org/2000/svg" width="158" height="33" fill="none"><path fill="#898989" fill-rule="evenodd" d="M16.995 0C7.896 0 .5 7.4.5 16.509.5 25.599 7.896 33 16.995 33c9.08 0 16.473-7.401 16.473-16.491C33.468 7.4 26.074 0 16.995 0m0 32.175c-8.641 0-15.67-7.031-15.67-15.666C1.324 7.856 8.35.825 16.994.825c8.627 0 15.65 7.035 15.65 15.684 0 8.633-7.026 15.666-15.65 15.666m48.426-18.583c0 1.05-.973 1.394-1.506 1.394h-1.41v3.052h1.335c1.124 0 1.637.534 1.637 1.336 0 .57-.417 1.356-1.485 1.356-.63 0-1.258-.037-2.192-.44l-.057 2.96c.305.167.595.3.885.403.672.24 1.35.327 2.24.34 2.402 0 4.27-1.488 4.27-4.18 0-2.177-1.297-3.109-2.268-3.418v-.132c1.008-.422 2.04-1.507 2.04-3.302 0-1.85-1.201-3.74-3.91-3.74a10.7 10.7 0 0 0-2.876.362l.038 3.094c.706-.344 1.43-.402 1.81-.402.326 0 1.45.078 1.45 1.317M96.333 23.88c3.906 0 5.22-3.667 5.22-7.311 0-3.643-1.314-7.31-5.22-7.31-3.907 0-5.22 3.667-5.22 7.31 0 3.644 1.313 7.31 5.22 7.311m0-3.456c-1.165 0-1.753-1.354-1.753-3.855s.588-3.856 1.753-3.856c1.164 0 1.751 1.355 1.751 3.856s-.587 3.855-1.751 3.855m9.606-10.954h-2.802v14.237h3.296v-8.684l1.98 2.48 1.982-2.48v8.684h3.299V9.468h-2.781l-2.5 3.36zm9.984 14.237h3.926c.857 0 4.422-.363 4.44-4.678 0-3.621-2.762-4.253-4.554-4.253h-.591v-1.889h4.364V9.47h-7.585zm3.221-2.863v-3.225h.477c.202 0 .566.006.876.2.303.191.554.563.554 1.288 0 1.491-1.031 1.737-1.43 1.737zm17-11.374h3.221v5.134h2.306V9.47h3.219v14.238h-3.219V18h-2.306v5.707h-3.221zm10.918 0h3.241l-.019 5.115h.704l1.849-5.115h3.506l-2.516 6.758 2.879 7.48h-3.794l-1.865-5.726h-.763l.019 5.725h-3.241zm-18.788 14.256h-3.355l2.839-14.236h4.155l2.82 14.236h-3.353l-.401-2.462h-2.304zm2.171-5.592-.61-4.333-.629 4.333zm-45.586 5.573h-3.297V9.468h4.404c3.105 0 4.268 2.9 4.268 4.732 0 1.873-1.011 4.813-4.268 4.813H84.86zm.782-11.107h-.782v3.281h.782c.42 0 1.22-.113 1.22-1.64 0-1.183-.476-1.641-1.22-1.641m-14.96-3.13h8.994v14.236h-3.297v-10.8h-2.4v10.801H70.68zM50.957 23.706h3.334l.42-2.463h2.306l.4 2.463h3.333L57.93 9.468h-4.153zm4.896-9.943.63 4.351h-1.259zm-4.518-4.294h-6.762v14.236h3.352V13.017h3.41zM21.673 6.136c-2.609-1.165-7.47-1.28-11.452.495a9 9 0 0 1 1.64-.932c1.253-.585 3.275-1.151 5.795-1.151q.179 0 .358.003c2.155.039 4.71.783 6.27 2.33.157.19.275.38.357.556q.085.185.12.34c1.239.63 1.962 1.221 2.362 1.909.173.361.23.742.152 1.181a3.2 3.2 0 0 1 1.033.92c.087.148.165.306.226.464.056.147.097.294.115.434.056.378.094.817-.306 1.334.419.21.76.799.802 1.05.21.931-.402 1.848-1.183 2.556-.915.8-2.936 1.755-4.575 2.175-3.236.82-6.116 1.165-8.401 1.586 1.028.247 2.418.573 4.688.573 4.857 0 9.146-2.293 9.146-2.293s-.095.288-.192.556c-3.086 1.87-7.982 2.65-10.08 2.555-2.116-.097-3.906-.42-5.66-.955a16 16 0 0 0-1.581.535c2.67 1.221 4.688 1.49 6.957 1.66 2.323.174 6.174-.382 9.411-1.562-.152.154-.228.381-.38.515-1.104.584-3.027 1.169-4.711 1.516-.846.174-1.632.29-2.224.315-1.755.077-3.889 0-5.757-.345-1.6-.322-2.918-.821-4.289-1.43-.245.189-.36.42-.42.688 5.36 2.805 10.35 2.86 16.05 1.087l-.517.497c-6.27 2.557-11.167 1.564-14.961-.269l-.16-.069a1.5 1.5 0 0 1-.237-.121c.362.611 3.256 2.729 6.497 2.997 2.232.19 4.956-.192 6.575-.84l-.953.496c-.782.382-2.858 1.262-5.757 1.07-3.867-.269-6.04-1.987-7.013-2.882-.457-.422-.665-.898-.8-1.49-.634-.33-1.098-.673-1.479-1.11a4.5 4.5 0 0 1-.406-.55c-.267-.401-.212-.877-.155-1.281l.119-.34c-.422-.308-.86-.632-1.031-.954-.384-.688-.152-1.28.114-1.739-.23-.267-.44-.534-.532-.8-.115-.306-.133-.614-.099-.956.078-.571.383-1.104.783-1.564.837-.974 2.174-1.737 4.44-2.48 2.23-.747 3.127-.862 4.804-1.245.746-.173 1.547-.302 2.36-.433 1.329-.214 2.692-.434 3.909-.86-5.47-.954-11.148-.078-15.78 3.107l.305-.896c4.154-2.71 8.747-4.312 16.522-2.956.42-.25.667-.498.783-.993-1.945-.706-4.059-.953-6.784-.917-2.44.078-6.844.99-9.204 2.389l.721-.9c1.639-.976 5.927-2.252 9.15-2.31 2.266-.056 3.429.076 6.136.802-.233-.424-.728-.653-1.457-.992zm4.154 3.97c-.074-.534-.684-1.05-1.22-1.393-.075.267-.358.592-.55.802.59.154 1.2.38 1.77.592m-2.608.17c-.384.307-.82.573-1.47.823.577.101 1.076.237 1.555.38.41.122.807.249 1.227.363a.1.1 0 0 0 .03.006c.199 0 .852-.605.965-.77a16 16 0 0 0-2.307-.801m4.077 2.806c.246-.477.094-.782-.419-1.222-.21.25-.44.459-.687.65.4.19.764.325 1.106.572m-8.575-1.01c-2.515.306-5.3.837-7.68 1.545l-.127.038c-1.182.36-5.651 1.717-4.294 3.588.014 0 .861-1.17 4.057-2.1 2.089-.614 4.23-1.005 6.405-1.401 1.954-.356 3.935-.718 5.928-1.25-1.64-.437-2.558-.632-4.289-.42m2.725 2.31c-1.353.342-4.632.82-8.156 1.582-1.106.248-4.138.953-5.624 2.214.193.159.354.261.516.35.189.105.38.193.626.337.61-.402 1.45-.783 2.69-1.11 2.15-.57 3.774-.816 5.717-1.139 1.925-.291 5.564-1.054 7.564-1.78.47-.159.911-.357 1.283-.588q.236-.146.432-.31c-.133-.15-1.43-.779-1.468-.72-.797.38-1.941.76-3.58 1.163m-4.69 3.837c-1.459.241-2.863.474-4.345.838-.667.17-1.353.381-1.98.647.627.325 1.314.612 1.999.88 1.372-.401 2.023-.573 4.001-.897a240 240 0 0 0 4.765-.895c3.033-.652 7.473-2.065 6.291-3.896q-.089.074-.177.141c-.075.06-.149.118-.223.184-.897.683-2.326 1.239-4.288 1.755-2.276.617-4.202.937-6.044 1.243m-9.158 1.578q.087-.067.164-.13a8 8 0 0 1-.617-.357l-.28-.18a.53.53 0 0 0 .026.457c.091.183.262.344.432.442.083-.083.18-.159.275-.232m3.269 1.34c-.553-.249-1.142-.495-1.715-.763a6 6 0 0 0-.704.514c.457.268.896.514 1.354.766a6 6 0 0 1 1.065-.518m-2.228 1.775c.055-.192.152-.344.286-.534-.326-.175-.65-.345-.973-.556-.02.364.21.688.687 1.09" clip-rule="evenodd"/></svg>