<svg width="194" height="31" viewBox="0 0 194 31" fill="none" xmlns="http://www.w3.org/2000/svg">
<path d="M86.638 9.60658L90.704 6.60659H77.222V24.3923H90.704V21.3923H81.074V16.8923H89.206V13.8923H81.074V9.60658H86.638ZM69.839 9.60658L73.905 6.60659H58.497V24.3923H66.522C71.016 24.3923 73.584 22.3566 73.584 18.8209C73.584 15.3923 71.23 13.5709 66.95 13.5709H62.242V9.60658H69.839V9.60658ZM66.415 16.4637C68.876 16.4637 69.946 17.3209 69.946 18.928C69.946 20.5352 68.769 21.3923 66.415 21.3923H62.349V16.4637H66.415ZM101.511 6.60659H94.235V24.3923H98.087V19.3566H101.618C106.326 19.3566 109.215 16.8923 109.215 12.928C109.215 8.96373 106.219 6.60659 101.511 6.60659V6.60659ZM101.511 16.3566H98.087V9.49944H101.511C103.972 9.49944 105.363 10.678 105.363 12.928C105.256 15.178 103.972 16.3566 101.511 16.3566ZM51.97 20.5352C50.9 21.0709 49.83 21.3923 48.653 21.3923C45.229 21.3923 42.661 18.928 42.661 15.4994C42.661 12.0709 45.122 9.60658 48.653 9.60658C49.937 9.60658 51.114 10.0352 52.184 10.678L54.966 8.6423L54.752 8.42801C53.147 7.03516 51.007 6.28516 48.546 6.28516C45.871 6.28516 43.517 7.1423 41.698 8.85658C39.986 10.5709 38.916 12.928 39.023 15.3923C39.023 17.8566 39.986 20.2137 41.698 22.0352C43.517 23.7494 45.978 24.7137 48.439 24.6066C51.221 24.6066 53.575 23.6423 55.287 21.928L52.826 20.1066L51.97 20.5352ZM167.423 13.8923H159.184V6.60659H155.332V24.3923H159.184V17.1066H167.423V24.3923H171.275V6.60659H167.423V13.8923ZM141.422 6.60659L133.718 24.3923H137.57L139.068 20.8566H147.2L148.698 24.3923H152.764L145.274 6.60659H141.422V6.60659ZM140.352 17.8566L143.348 10.678L146.13 17.8566H140.352ZM185.185 15.178L192.14 6.60659H187.753L181.975 14.2137H179.835V6.60659H175.983V24.3923H179.835V17.2137H182.296L188.181 24.3923H193.103L185.185 15.178ZM125.693 13.5709H120.985V9.60658H131.043V6.60659H117.133V24.3923H125.158C129.652 24.3923 132.22 22.3566 132.22 18.8209C132.327 15.3923 129.973 13.5709 125.693 13.5709V13.5709ZM125.051 21.4994H120.985V16.5709H125.051C127.512 16.5709 128.582 17.428 128.582 19.0352C128.689 20.6423 127.405 21.4994 125.051 21.4994V21.4994Z" fill="#898989"/>
<path d="M26.6896 6.26562C27.3843 7.17701 27.9724 8.16716 28.4419 9.21618L15.1216 19.1808L9.55469 15.6394V11.379L15.1216 14.9203L26.6896 6.26562Z" fill="#898989"/>
<path d="M3.8783 15.3392C3.8783 15.1481 3.8829 14.9581 3.89209 14.7693L0.518374 14.6016C0.506891 14.8463 0.500004 15.0933 0.500004 15.3427C0.498569 17.2909 0.876184 19.2202 1.6112 21.0199C2.34621 22.8197 3.42414 24.4545 4.78317 25.8305L7.17622 23.4031C6.13009 22.3458 5.3002 21.0891 4.73423 19.7052C4.16826 18.3213 3.87738 16.8375 3.8783 15.3392Z" fill="#898989"/>
<path d="M15.1296 3.92601C15.3179 3.92601 15.505 3.93301 15.691 3.94233L15.8598 0.51749C15.618 0.505837 15.3745 0.500011 15.1296 0.500011C13.2088 0.497634 11.3067 0.88029 9.53216 1.626C7.75764 2.37172 6.14576 3.46581 4.78906 4.84545L7.18212 7.27395C8.22407 6.21198 9.46261 5.36949 10.8265 4.79493C12.1904 4.22037 13.6527 3.92507 15.1296 3.92601Z" fill="#898989"/>
<path d="M15.1299 26.753C14.9416 26.753 14.7544 26.753 14.5673 26.7378L14.3984 30.1615C14.6411 30.1739 14.8849 30.1802 15.1299 30.1802C17.0498 30.1822 18.951 29.7993 20.7246 29.0534C22.4982 28.3074 24.109 27.2132 25.4647 25.8336L23.0762 23.4062C22.034 24.4677 20.7956 25.3097 19.432 25.884C18.0684 26.4584 16.6063 26.7537 15.1299 26.753Z" fill="#898989"/>
<path d="M21.4605 5.91871L24.3036 3.79202C21.7049 1.65654 18.4611 0.494072 15.1172 0.500023V3.92719C17.3815 3.92434 19.5933 4.61877 21.4605 5.91871Z" fill="#898989"/>
<path d="M29.7457 15.3389C29.7475 14.4474 29.6706 13.5574 29.516 12.6797L26.3685 15.0336C26.3685 15.135 26.3685 15.2364 26.3685 15.3389C26.3693 16.9334 26.0399 18.5103 25.4018 19.9673C24.7637 21.4243 23.8309 22.7289 22.6641 23.7967L24.9343 26.343C26.4512 24.9532 27.6635 23.2555 28.4923 21.3599C29.3212 19.4642 29.7482 17.4128 29.7457 15.3389Z" fill="#898989"/>
<path d="M15.1247 26.7515C13.5534 26.752 11.9994 26.4177 10.5635 25.7701C9.12761 25.1225 7.84172 24.1761 6.78913 22.9922L4.28125 25.2948C5.65055 26.8345 7.32345 28.0649 9.19148 28.9062C11.0595 29.7475 13.0809 30.1811 15.1247 30.1786V26.7515Z" fill="#898989"/>
<path d="M7.58273 6.87823L5.31369 4.33203C3.79629 5.72152 2.58363 7.41915 1.75436 9.31484C0.925095 11.2105 0.497739 13.2619 0.500009 15.336H3.87831C3.87761 13.7416 4.20702 12.1648 4.84516 10.7078C5.48332 9.25079 6.41598 7.94609 7.58273 6.87823Z" fill="#898989"/>
</svg>
