<svg width="306" height="85" viewBox="0 0 306 85" fill="none" xmlns="http://www.w3.org/2000/svg">
<path d="M136.849 33.1489L143.309 28.3889H121.889V56.6089H143.309V51.8489H128.009V44.7089H140.929V39.9489H128.009V33.1489H136.849ZM110.159 33.1489L116.619 28.3889H92.1392V56.6089H104.889C112.029 56.6089 116.109 53.3789 116.109 47.7689C116.109 42.3289 112.369 39.4389 105.569 39.4389H98.0892V33.1489H110.159ZM104.719 44.0289C108.629 44.0289 110.329 45.3889 110.329 47.9389C110.329 50.4889 108.459 51.8489 104.719 51.8489H98.2592V44.0289H104.719ZM160.479 28.3889H148.919V56.6089H155.039V48.6189H160.649C168.129 48.6189 172.719 44.7089 172.719 38.4189C172.719 32.1289 167.959 28.3889 160.479 28.3889ZM160.479 43.8589H155.039V32.9789H160.479C164.389 32.9789 166.599 34.8489 166.599 38.4189C166.429 41.9889 164.389 43.8589 160.479 43.8589ZM81.7692 50.4889C80.0692 51.3389 78.3692 51.8489 76.4992 51.8489C71.0592 51.8489 66.9792 47.9389 66.9792 42.4989C66.9792 37.0589 70.8892 33.1489 76.4992 33.1489C78.5392 33.1489 80.4092 33.8289 82.1092 34.8489L86.5292 31.6189L86.1892 31.2789C83.6392 29.0689 80.2392 27.8789 76.3292 27.8789C72.0792 27.8789 68.3392 29.2389 65.4492 31.9589C62.7292 34.6789 61.0292 38.4189 61.1992 42.3289C61.1992 46.2389 62.7292 49.9789 65.4492 52.8689C68.3392 55.5889 72.2492 57.1189 76.1592 56.9489C80.5792 56.9489 84.3192 55.4189 87.0392 52.6989L83.1292 49.8089L81.7692 50.4889ZM265.199 39.9489H252.109V28.3889H245.989V56.6089H252.109V45.0489H265.199V56.6089H271.319V28.3889H265.199V39.9489ZM223.889 28.3889L211.649 56.6089H217.769L220.149 50.9989H233.069L235.449 56.6089H241.909L230.009 28.3889H223.889ZM222.189 46.2389L226.949 34.8489L231.369 46.2389H222.189ZM293.419 41.9889L304.469 28.3889H297.499L288.319 40.4589H284.919V28.3889H278.799V56.6089H284.919V45.2189H288.829L298.179 56.6089H305.999L293.419 41.9889ZM198.899 39.4389H191.419V33.1489H207.399V28.3889H185.299V56.6089H198.049C205.189 56.6089 209.269 53.3789 209.269 47.7689C209.439 42.3289 205.699 39.4389 198.899 39.4389ZM197.879 52.0189H191.419V44.1989H197.879C201.789 44.1989 203.489 45.5589 203.489 48.1089C203.659 50.6589 201.619 52.0189 197.879 52.0189Z" fill="#21A038"/>
<path d="M41.6144 27.8477C42.718 29.2937 43.6524 30.8648 44.3984 32.5292L23.2353 48.3397L14.3906 42.7207V35.9609L23.2353 41.5798L41.6144 27.8477Z" fill="#21A038"/>
<path d="M5.3674 42.2447C5.3674 41.9413 5.3747 41.64 5.3893 41.3404L0.029192 41.0742C0.010948 41.4625 6.47743e-06 41.8545 6.47743e-06 42.2501C-0.0022741 45.3413 0.597676 48.4025 1.76546 51.258C2.93323 54.1137 4.64583 56.7075 6.80503 58.8907L10.6071 55.0394C8.94501 53.3618 7.62648 51.3677 6.72728 49.172C5.82807 46.9762 5.36593 44.6219 5.3674 42.2447Z" fill="url(#paint0_linear_2690_3527)"/>
<path d="M23.2335 24.1391C23.5327 24.1391 23.83 24.1502 24.1255 24.165L24.3937 18.7309C24.0095 18.7124 23.6226 18.7031 23.2335 18.7031C20.1819 18.6994 17.1598 19.3065 14.3405 20.4897C11.5211 21.6729 8.96019 23.4089 6.80469 25.5979L10.6067 29.4511C12.2622 27.7661 14.2299 26.4294 16.3969 25.5177C18.5639 24.6061 20.8872 24.1376 23.2335 24.1391Z" fill="url(#paint1_linear_2690_3527)"/>
<path d="M23.2324 60.3492C22.9332 60.3492 22.6358 60.3492 22.3385 60.3252L22.0703 65.7574C22.4559 65.7771 22.8433 65.787 23.2324 65.787C26.2827 65.7902 29.3034 65.1827 32.1212 63.9991C34.939 62.8156 37.4983 61.0794 39.6522 58.8904L35.8574 55.0391C34.2017 56.7232 32.2341 58.0592 30.0676 58.9705C27.901 59.8818 25.5782 60.3504 23.2324 60.3492Z" fill="url(#paint2_linear_2690_3527)"/>
<path d="M33.3047 27.2969L37.8219 23.9226C33.6931 20.5343 28.5393 18.6898 23.2266 18.6993V24.137C26.8241 24.1325 30.3381 25.2343 33.3047 27.2969Z" fill="url(#paint3_linear_2690_3527)"/>
<path d="M46.4621 42.2467C46.465 40.8321 46.3429 39.4199 46.0971 38.0273L41.0965 41.7622C41.0965 41.9232 41.0965 42.084 41.0965 42.2467C41.0978 44.7766 40.5745 47.2785 39.5607 49.5903C38.5467 51.9021 37.0648 53.9722 35.2109 55.6664L38.8178 59.7064C41.228 57.5013 43.1539 54.8076 44.4708 51.7999C45.7878 48.792 46.4661 45.5373 46.4621 42.2467Z" fill="#21A038"/>
<path d="M23.2357 60.3515C20.7392 60.3523 18.2703 59.8218 15.9889 58.7943C13.7076 57.7669 11.6646 56.2652 9.9923 54.3867L6.00781 58.0403C8.18334 60.4832 10.8412 62.4354 13.8091 63.7703C16.777 65.1052 19.9886 65.7931 23.2357 65.7892V60.3515Z" fill="url(#paint4_linear_2690_3527)"/>
<path d="M11.2529 28.8251L7.64792 24.7852C5.2371 26.9898 3.31044 29.6834 1.99291 32.6912C0.675385 35.699 -0.00359202 38.9539 1.42908e-05 42.2448H5.36741C5.3663 39.7151 5.88966 37.2131 6.90353 34.9013C7.91742 32.5896 9.39922 30.5195 11.2529 28.8251Z" fill="url(#paint5_linear_2690_3527)"/>
<defs>
<linearGradient id="paint0_linear_2690_3527" x1="7.89056" y1="58.2122" x2="1.88542" y2="41.0831" gradientUnits="userSpaceOnUse">
<stop offset="0.14" stop-color="#F1E813"/>
<stop offset="0.3" stop-color="#E6E418"/>
<stop offset="0.58" stop-color="#C9DA26"/>
<stop offset="0.89" stop-color="#A2CC39"/>
</linearGradient>
<linearGradient id="paint1_linear_2690_3527" x1="8.33718" y1="26.5594" x2="23.4921" y2="20.8607" gradientUnits="userSpaceOnUse">
<stop offset="0.06" stop-color="#0FA7DF"/>
<stop offset="0.54" stop-color="#0098F8"/>
<stop offset="0.92" stop-color="#0290EA"/>
</linearGradient>
<linearGradient id="paint2_linear_2690_3527" x1="21.7164" y1="62.5051" x2="38.8183" y2="58.6929" gradientUnits="userSpaceOnUse">
<stop offset="0.12" stop-color="#A2CC39"/>
<stop offset="0.28" stop-color="#86C239"/>
<stop offset="0.87" stop-color="#219F38"/>
</linearGradient>
<linearGradient id="paint3_linear_2690_3527" x1="22.1101" y1="20.5205" x2="36.7462" y2="24.9771" gradientUnits="userSpaceOnUse">
<stop offset="0.06" stop-color="#0290EA"/>
<stop offset="0.79" stop-color="#0C89CA"/>
</linearGradient>
<linearGradient id="paint4_linear_2690_3527" x1="7.35421" y1="57.3783" x2="23.3" y2="63.2587" gradientUnits="userSpaceOnUse">
<stop offset="0.13" stop-color="#F1E813"/>
<stop offset="0.3" stop-color="#EAE616"/>
<stop offset="0.53" stop-color="#D8DF1F"/>
<stop offset="0.8" stop-color="#BAD52D"/>
<stop offset="0.98" stop-color="#A2CC39"/>
</linearGradient>
<linearGradient id="paint5_linear_2690_3527" x1="1.99956" y1="42.903" x2="8.5296" y2="26.1416" gradientUnits="userSpaceOnUse">
<stop offset="0.07" stop-color="#A2CC39"/>
<stop offset="0.26" stop-color="#81C45E"/>
<stop offset="0.92" stop-color="#0FA7DF"/>
</linearGradient>
</defs>
</svg>
