<svg width="173" height="53" viewBox="0 0 173 53" fill="none" xmlns="http://www.w3.org/2000/svg">
<path d="M86.0244 22.6008C84.8325 22.1424 83.2737 22.0049 81.5774 22.0049H72.1323V19.0706H88.3628V14.0273H65.4844V35.8511H80.9812C83.1362 35.8511 84.7405 35.6677 85.9329 35.209C88.4546 34.2461 90.1509 31.908 90.1509 28.8362C90.1509 25.7188 88.5462 23.5637 86.0244 22.6008ZM82.7234 30.1658C82.3567 30.3035 81.8523 30.3491 81.2102 30.3491H72.1323V26.8648H81.2102C81.9441 26.8648 82.5398 26.9109 82.9985 27.1399C83.5486 27.4151 83.8237 27.9194 83.8237 28.5611C83.8237 29.2029 83.5029 29.8907 82.7234 30.1658Z" fill="#333333"/>
<path d="M108.785 14.0273H99.0654L90.125 35.8511H97.6443L98.8821 32.6875H108.969L110.252 35.8511H117.726L108.785 14.0273ZM100.532 27.8733L103.696 19.0706H104.2L107.364 27.8733H100.532Z" fill="#333333"/>
<path d="M126.281 27.7362V35.8511H119.633V14.0273H126.281V22.005H136.963V14.0273H143.611V35.8511H136.963V27.7362H126.281Z" fill="#333333"/>
<path d="M154.132 27.5986V35.8511H147.484V14.0273H154.132V22.2342H155.966L163.99 14.0273H172.334L161.697 24.4807L172.747 35.8511H163.898L155.966 27.5986H154.132Z" fill="#333333"/>
<path d="M0 0H53.0001V26.6552C53.0001 33.4884 49.3547 39.8027 43.4373 43.2197L26.5 53L9.56277 43.2197C3.64525 39.8027 0 33.4884 0 26.6552V0Z" fill="#FFDD2D"/>
<path fill-rule="evenodd" clip-rule="evenodd" d="M14.5547 14.0273V22.3177C15.6884 21.0375 17.7496 20.1711 20.1063 20.1711H22.6674V29.8085C22.6674 32.3725 21.9707 34.6167 20.9371 35.8511H32.0773C31.0458 34.6155 30.3508 32.3741 30.3508 29.8134V20.1711H32.912C35.2687 20.1711 37.3299 21.0375 38.4636 22.3177V14.0273H14.5547Z" fill="#333333"/>
</svg>
