<svg width="109" height="33" viewBox="0 0 109 33" fill="none" xmlns="http://www.w3.org/2000/svg">
<path fill-rule="evenodd" clip-rule="evenodd" d="M51.4109 13.7055C52.4655 13.7055 53.4346 13.7909 54.1757 14.0764C55.7434 14.6762 56.7409 16.0178 56.7409 17.9587C56.7409 19.8717 55.6865 21.3275 54.1188 21.9268C53.3775 22.2123 52.3801 22.3265 51.0404 22.3265H41.4062V8.73828H55.6293V11.8783H45.5391V13.7055H51.4109ZM51.1828 18.901C51.5819 18.901 51.8954 18.8723 52.1235 18.7868C52.6081 18.6155 52.8075 18.1871 52.8075 17.7874C52.8075 17.6366 52.7831 17.4975 52.7343 17.374C52.705 17.3003 52.667 17.232 52.6204 17.1695C52.5385 17.0607 52.4299 16.9704 52.2945 16.9026C52.2531 16.8821 52.2098 16.8635 52.1649 16.8474C52.0927 16.8215 52.0158 16.8015 51.9344 16.7854C51.717 16.7425 51.4665 16.7313 51.1828 16.7313H45.5391V18.901H51.1828ZM62.2867 8.73828H68.3292L73.8874 22.3265H69.2414L68.4432 20.3568H62.1726L61.4031 22.3265H56.7285L62.2867 8.73828ZM65.1655 11.8783L63.1986 17.3594H67.4457L65.479 11.8783H65.1655ZM79.2072 17.2739V22.3265H75.0745V8.73828H79.2072V13.7055H85.8484V8.73828H89.9816V22.3265H85.8484V17.2739H79.2072ZM96.5233 22.3265V17.1881H97.6634L102.594 22.3265H108.096L101.226 15.2472L107.839 8.73828H102.652L97.6634 13.8485H96.5233V8.73828H92.3903V22.3265H96.5233Z" fill="#898989"/>
<path d="M0.703125 0H33.6523V16.5966C33.6523 20.8513 31.3861 24.7828 27.7073 26.9104L17.1777 33L6.64813 26.9104C2.96931 24.7828 0.703125 20.8513 0.703125 16.5966V0Z" fill="#898989"/>
<path fill-rule="evenodd" clip-rule="evenodd" d="M9.75 8.73828V13.9002C10.4548 13.1031 11.7362 12.5636 13.2013 12.5636H14.7935V18.5643C14.7935 20.1607 14.3604 21.5581 13.7178 22.3267H20.6435C20.0022 21.5573 19.5701 20.1617 19.5701 18.5673V12.5636H21.1624C22.6275 12.5636 23.9089 13.1031 24.6137 13.9002V8.73828H9.75Z" fill="#FAFCFF"/>
</svg>
