<svg width="245" height="149" viewBox="0 0 245 149" fill="none" xmlns="http://www.w3.org/2000/svg">
<g filter="url(#filter0_ii_5310_7324)">
<path opacity="0.5" d="M2.52 81V74.868L19.32 60.336C20.832 59.048 22.484 57.648 24.276 56.136C26.124 54.568 27.86 52.888 29.484 51.096C31.164 49.304 32.536 47.4 33.6 45.384C34.72 43.312 35.28 41.128 35.28 38.832C35.28 35.248 34.216 32.504 32.088 30.6C29.96 28.64 27.104 27.66 23.52 27.66C20.664 27.66 18.172 28.248 16.044 29.424C13.916 30.6 12.516 32.308 11.844 34.548H4.032C4.592 31.468 5.852 28.948 7.812 26.988C9.828 24.972 12.236 23.46 15.036 22.452C17.892 21.444 20.832 20.94 23.856 20.94C27.552 20.94 30.8 21.612 33.6 22.956C36.456 24.3 38.668 26.26 40.236 28.836C41.86 31.356 42.672 34.464 42.672 38.16C42.672 41.8 41.972 44.992 40.572 47.736C39.228 50.48 37.436 52.972 35.196 55.212C33.012 57.396 30.66 59.552 28.14 61.68L13.104 74.364H43.344V81H2.52ZM75.8468 81V36.732H85.4228L99.7868 58.908L113.899 36.732H123.307V81H116.251V44.628L100.627 69.66H98.6108L82.9028 44.628V81H75.8468ZM153.733 81.504C149.029 81.504 145.137 80.552 142.057 78.648C138.977 76.688 136.681 74 135.169 70.584C133.657 67.168 132.901 63.276 132.901 58.908C132.901 54.484 133.685 50.592 135.253 47.232C136.877 43.816 139.229 41.128 142.309 39.168C145.389 37.208 149.169 36.228 153.649 36.228C156.953 36.228 159.837 36.872 162.301 38.16C164.821 39.392 166.893 41.072 168.517 43.2C170.197 45.328 171.401 47.708 172.129 50.34C172.913 52.972 173.249 55.688 173.137 58.488C173.081 58.992 173.053 59.496 173.053 60C173.053 60.504 173.025 61.008 172.969 61.512H140.125C140.349 64.088 140.993 66.412 142.057 68.484C143.121 70.556 144.633 72.208 146.593 73.44C148.553 74.616 150.989 75.204 153.901 75.204C155.357 75.204 156.813 75.036 158.269 74.7C159.781 74.308 161.125 73.664 162.301 72.768C163.533 71.872 164.401 70.668 164.905 69.156H172.213C171.541 72.012 170.281 74.364 168.433 76.212C166.585 78.004 164.373 79.348 161.797 80.244C159.221 81.084 156.533 81.504 153.733 81.504ZM140.293 55.296H165.913C165.857 52.776 165.297 50.564 164.233 48.66C163.169 46.756 161.713 45.272 159.865 44.208C158.073 43.144 155.917 42.612 153.397 42.612C150.653 42.612 148.329 43.2 146.425 44.376C144.577 45.552 143.149 47.092 142.141 48.996C141.133 50.9 140.517 53 140.293 55.296ZM201.633 81.504C196.985 81.504 193.121 80.552 190.041 78.648C187.017 76.688 184.749 74 183.237 70.584C181.781 67.168 181.053 63.304 181.053 58.992C181.053 54.792 181.809 50.984 183.321 47.568C184.889 44.096 187.241 41.352 190.377 39.336C193.569 37.264 197.601 36.228 202.473 36.228C205.497 36.228 208.185 36.732 210.537 37.74C212.945 38.748 214.933 40.232 216.501 42.192C218.069 44.096 219.161 46.504 219.777 49.416H212.469C211.629 46.952 210.285 45.216 208.437 44.208C206.645 43.144 204.517 42.612 202.053 42.612C198.693 42.612 196.005 43.396 193.989 44.964C191.973 46.532 190.489 48.576 189.537 51.096C188.641 53.56 188.193 56.192 188.193 58.992C188.193 61.904 188.669 64.592 189.621 67.056C190.573 69.52 192.057 71.508 194.073 73.02C196.089 74.476 198.693 75.204 201.885 75.204C204.237 75.204 206.449 74.7 208.521 73.692C210.649 72.684 212.049 70.892 212.721 68.316H220.113C219.553 71.34 218.349 73.832 216.501 75.792C214.709 77.752 212.497 79.208 209.865 80.16C207.289 81.056 204.545 81.504 201.633 81.504ZM234.203 81.672C232.747 81.672 231.543 81.196 230.591 80.244C229.639 79.292 229.163 78.088 229.163 76.632C229.163 75.176 229.639 73.972 230.591 73.02C231.543 72.068 232.747 71.592 234.203 71.592C235.659 71.592 236.863 72.068 237.815 73.02C238.767 73.972 239.243 75.176 239.243 76.632C239.243 78.088 238.767 79.292 237.815 80.244C236.863 81.196 235.659 81.672 234.203 81.672Z" fill="#0166FF"/>
<path opacity="0.5" d="M23.9912 139V115.621H40.3266V118.829H27.4963V125.079H32.721C33.8674 125.079 34.9586 125.167 35.9947 125.343C37.0529 125.519 37.9898 125.839 38.8055 126.302C39.6211 126.765 40.2604 127.426 40.7234 128.286C41.2084 129.146 41.4509 130.259 41.4509 131.626C41.4509 133.037 41.2084 134.216 40.7234 135.164C40.2604 136.112 39.6101 136.873 38.7724 137.446C37.9567 137.997 36.9978 138.394 35.8955 138.636C34.7933 138.879 33.6138 139 32.3573 139H23.9912ZM27.4963 135.792H32.1589C32.8643 135.792 33.5587 135.748 34.2421 135.66C34.9476 135.55 35.5759 135.363 36.127 135.098C36.6781 134.833 37.108 134.448 37.4166 133.941C37.7473 133.412 37.9126 132.717 37.9126 131.857C37.9126 131.02 37.7583 130.358 37.4497 129.873C37.1631 129.366 36.7442 129.003 36.1931 128.782C35.664 128.54 35.0688 128.385 34.4075 128.319C33.7461 128.231 33.0517 128.187 32.3242 128.187H27.4963V135.792ZM45.8855 139V115.621H61.9895V118.829H49.3907V125.839H60.5345V129.014H49.3907V135.792H61.9895V139H45.8855ZM75.8203 139.265C73.4174 139.265 71.4002 138.758 69.7689 137.743C68.1596 136.729 66.9471 135.329 66.1315 133.544C65.3158 131.758 64.908 129.697 64.908 127.36C64.908 125.023 65.3158 122.951 66.1315 121.143C66.9692 119.336 68.1927 117.925 69.802 116.911C71.4333 115.875 73.4504 115.357 75.8533 115.357C77.5949 115.357 79.116 115.643 80.4167 116.216C81.7173 116.768 82.7645 117.561 83.5581 118.597C84.3738 119.611 84.9139 120.824 85.1784 122.235H81.7394C81.4087 121.11 80.7363 120.218 79.7223 119.556C78.7082 118.895 77.4075 118.564 75.8203 118.564C74.0567 118.564 72.6348 118.972 71.5545 119.788C70.4964 120.603 69.7248 121.673 69.2398 122.995C68.7548 124.296 68.5123 125.707 68.5123 127.228C68.5123 128.793 68.7658 130.248 69.2729 131.593C69.7799 132.938 70.5846 134.018 71.6868 134.833C72.7891 135.649 74.2 136.057 75.9195 136.057C76.9776 136.057 77.9146 135.914 78.7302 135.627C79.5459 135.318 80.2293 134.889 80.7804 134.337C81.3315 133.764 81.7063 133.103 81.9047 132.353H85.5752C85.2886 133.786 84.7044 135.021 83.8226 136.057C82.9408 137.093 81.8276 137.887 80.4828 138.438C79.1381 138.989 77.5839 139.265 75.8203 139.265ZM89.7712 139V115.621H108.521V139H105.015V118.796H93.2764V139H89.7712ZM111.708 139.198V135.792C112.325 135.792 112.844 135.671 113.262 135.429C113.703 135.164 114.056 134.811 114.321 134.371C114.607 133.908 114.806 133.39 114.916 132.816C115.07 132.155 115.18 131.472 115.246 130.766C115.313 130.061 115.357 129.355 115.379 128.65C115.423 127.944 115.445 127.283 115.445 126.666L115.61 115.621H131.549V139H128.044V118.829H119.016L118.884 125.541C118.84 127.173 118.796 128.738 118.752 130.237C118.708 131.714 118.553 133.059 118.289 134.271C118.046 135.462 117.583 136.454 116.9 137.247C116.349 137.887 115.654 138.361 114.817 138.669C114.001 138.978 112.965 139.154 111.708 139.198ZM134.534 139L143.363 115.621H147.894L156.69 139H152.92L151.201 134.304H140.024L138.304 139H134.534ZM141.181 131.163H150.043L145.612 118.961L141.181 131.163ZM162.936 139V118.829H155.528V115.621H173.815V118.829H166.441V139H162.936ZM176.994 139V115.621H180.499V125.905H192.205V115.621H195.71V139H192.205V129.113H180.499V139H176.994ZM211.1 139.265C208.697 139.265 206.658 138.758 204.983 137.743C203.329 136.707 202.073 135.285 201.213 133.478C200.353 131.67 199.923 129.62 199.923 127.327C199.923 125.012 200.353 122.951 201.213 121.143C202.073 119.336 203.34 117.925 205.016 116.911C206.691 115.875 208.73 115.357 211.133 115.357C213.558 115.357 215.597 115.864 217.251 116.878C218.904 117.892 220.161 119.303 221.02 121.11C221.88 122.918 222.31 124.979 222.31 127.294C222.31 129.587 221.88 131.637 221.02 133.445C220.161 135.252 218.893 136.674 217.218 137.71C215.564 138.746 213.525 139.265 211.1 139.265ZM211.133 136.057C212.897 136.057 214.341 135.649 215.465 134.833C216.589 134.018 217.416 132.949 217.945 131.626C218.474 130.303 218.739 128.87 218.739 127.327C218.739 126.159 218.584 125.045 218.276 123.987C217.989 122.929 217.537 121.992 216.92 121.177C216.303 120.361 215.509 119.722 214.539 119.259C213.569 118.796 212.434 118.564 211.133 118.564C209.392 118.564 207.948 118.972 206.801 119.788C205.677 120.603 204.839 121.673 204.288 122.995C203.737 124.318 203.462 125.762 203.462 127.327C203.462 128.87 203.726 130.303 204.255 131.626C204.806 132.949 205.644 134.018 206.768 134.833C207.915 135.649 209.37 136.057 211.133 136.057Z" fill="#0166FF"/>
</g>
<defs>
<filter id="filter0_ii_5310_7324" x="0" y="0" width="245" height="154.511" filterUnits="userSpaceOnUse" color-interpolation-filters="sRGB">
<feFlood flood-opacity="0" result="BackgroundImageFix"/>
<feBlend mode="normal" in="SourceGraphic" in2="BackgroundImageFix" result="shape"/>
<feColorMatrix in="SourceAlpha" type="matrix" values="0 0 0 0 0 0 0 0 0 0 0 0 0 0 0 0 0 0 127 0" result="hardAlpha"/>
<feOffset dy="5.51127"/>
<feGaussianBlur stdDeviation="2.75564"/>
<feComposite in2="hardAlpha" operator="arithmetic" k2="-1" k3="1"/>
<feColorMatrix type="matrix" values="0 0 0 0 0 0 0 0 0 0.223529 0 0 0 0 0.564706 0 0 0 0.3 0"/>
<feBlend mode="normal" in2="shape" result="effect1_innerShadow_5310_7324"/>
<feColorMatrix in="SourceAlpha" type="matrix" values="0 0 0 0 0 0 0 0 0 0 0 0 0 0 0 0 0 0 127 0" result="hardAlpha"/>
<feOffset dy="5.51127"/>
<feGaussianBlur stdDeviation="2.75564"/>
<feComposite in2="hardAlpha" operator="arithmetic" k2="-1" k3="1"/>
<feColorMatrix type="matrix" values="0 0 0 0 0 0 0 0 0 0.223529 0 0 0 0 0.564706 0 0 0 0.3 0"/>
<feBlend mode="normal" in2="effect1_innerShadow_5310_7324" result="effect2_innerShadow_5310_7324"/>
</filter>
</defs>
</svg>
