<svg width="1280" height="15" viewBox="0 0 1280 15" fill="none" xmlns="http://www.w3.org/2000/svg">
<path d="M1280 0H0V4.13236L7.8064 15L15.4801 4.30993L23.1538 15L30.4996 4.77401L37.8454 15L45.1913 4.77401L52.5371 15L60.2108 4.30993L67.8845 15L75.2303 4.77401L82.5761 15L89.9219 4.77401L97.2678 15L104.606 4.77805L111.944 15L119.29 4.77401L126.635 15L133.981 4.77401L141.319 15L148.665 4.77401L156.011 15L163.349 4.77805L170.695 15L178.033 4.77401L185.379 15L192.724 4.77401L200.07 15L207.416 4.77401L214.754 15L222.1 4.77805L229.438 15L236.784 4.77401L244.13 15L251.468 4.77401L258.813 15L266.159 4.77401L273.505 15L280.843 4.77805L288.181 15L295.527 4.77401L302.873 15L310.219 4.77401L317.564 15L324.902 4.77401L332.248 15L339.594 4.77401L346.94 15L354.278 4.77805L361.616 15L368.962 4.77401L376.308 15L383.653 4.77401L390.999 15L398.337 4.77401L405.683 15L413.029 4.77805L420.367 15L427.713 4.77401L435.059 15L442.397 4.77401L449.742 15L457.088 4.77401L464.434 15L471.772 4.77805L479.11 15L486.456 4.77401L493.802 15L501.148 4.77401L508.493 15L515.831 4.77401L523.177 15L530.515 4.77805L537.861 15L545.207 4.77401L552.545 15L559.891 4.77401L567.237 15L574.582 4.77401L581.928 15L589.266 4.77805L596.604 15L603.95 4.77401L611.296 15L618.642 4.77401L625.98 15L633.326 4.77401L640.671 15L648.009 4.77805L655.355 15L662.693 4.77401L670.039 15L677.385 4.77401L684.731 15L692.076 4.77401L699.414 15L706.76 4.77805L714.098 15L721.444 4.77401L728.79 15L736.128 4.77401L743.474 15L750.82 4.77401L758.165 15L765.504 4.77805L772.849 15L780.187 4.77401L787.533 15L794.879 4.77401L802.225 15L809.571 4.77401L816.909 15L824.255 4.77805L831.593 15L838.938 4.77401L846.284 15L853.622 4.77401L860.968 15L868.314 4.77401L875.66 15L882.998 4.77805L890.336 15L897.682 4.77401L905.027 15L912.373 4.77401L919.719 15L927.057 4.77401L934.403 15L941.749 4.77805L949.087 15L956.432 4.77401L963.771 15L971.116 4.77401L978.462 15L985.808 4.77401L993.154 15L1000.49 4.77805L1007.83 15L1015.18 4.77401L1022.52 15L1029.87 4.77401L1037.21 15L1044.55 4.77401L1051.9 15L1059.23 4.77805L1066.58 15L1073.92 4.77401L1081.26 15L1088.61 4.77401L1095.96 15L1103.3 4.77401L1110.65 15L1117.99 4.77805L1125.32 15L1132.67 4.77401L1140.02 15L1147.36 4.77401L1154.7 15L1162.05 4.77401L1169.39 15L1176.73 4.77805L1184.07 15L1191.41 4.77401L1198.76 15L1206.1 4.77401L1213.45 15L1220.8 4.77401L1228.13 15L1235.48 4.77805L1242.82 15L1250.16 4.77401L1257.51 15L1264.85 4.77401L1272.19 15L1280 4.13236V0Z" fill="#003990"/>
</svg>
