<svg width="1920" height="19" viewBox="0 0 1920 19" fill="none" xmlns="http://www.w3.org/2000/svg">
<path d="M1920 0H0V4L11.689 19L22.6868 4.88699L33.6846 19L44.6824 4.88699L55.6802 19L66.6781 4.887L77.6759 19L89.1736 4.2455L100.671 19L111.669 4.887L122.667 19L133.665 4.887L144.663 19L155.66 4.887L166.658 19L177.656 4.887L188.654 19L199.652 4.887L210.649 19L221.647 4.887L232.645 19L243.643 4.887L254.641 19L265.638 4.887L276.636 19L287.634 4.887L298.632 19L309.673 4.83077L321.124 19L332.578 4.82658L343.623 19L354.621 4.887L365.618 19L376.616 4.887L387.614 19L398.612 4.887L409.61 19L420.608 4.887L431.605 19L442.603 4.887L453.601 19L464.599 4.887L475.597 19L486.594 4.887L497.592 19L508.59 4.887L519.588 19L530.586 4.887L541.583 19L552.581 4.887L563.579 19L574.577 4.887L585.575 19L596.572 4.887L607.57 19L618.568 4.887L629.566 19L640.564 4.887L651.561 19L662.559 4.887L673.557 19L684.555 4.887L695.553 19L706.551 4.887L717.548 19L728.546 4.887L739.544 19L750.542 4.887L761.54 19L772.537 4.887L783.535 19L794.533 4.887L805.531 19L816.529 4.887L827.526 19L838.524 4.887L849.522 19L860.52 4.887L871.518 19L882.515 4.887L893.513 19L904.511 4.887L915.509 19L926.507 4.887L937.504 19L948.592 4.77173L960.501 19L972.409 4.77316L983.495 19L994.493 4.887L1005.49 19L1016.49 4.88699L1027.49 19L1038.48 4.887L1049.48 19L1060.48 4.887L1071.48 19L1082.48 4.887L1093.47 19L1104.47 4.887L1115.47 19L1126.47 4.887L1137.46 19L1148.46 4.887L1159.46 19L1170.46 4.887L1181.46 19L1192.45 4.887L1203.45 19L1214.45 4.887L1225.45 19L1236.44 4.887L1247.44 19L1258.44 4.887L1269.44 19L1280.44 4.887L1291.43 19L1302.43 4.887L1313.43 19L1324.43 4.887L1335.43 19L1346.42 4.887L1357.42 19L1368.42 4.887L1379.42 19L1390.41 4.887L1401.41 19L1412.41 4.887L1423.41 19L1434.41 4.887L1445.4 19L1456.4 4.887L1467.4 19L1478.4 4.887L1489.39 19L1500.39 4.887L1511.39 19L1522.39 4.887L1533.39 19L1544.38 4.887L1555.38 19L1566.38 4.887L1577.38 19L1588.42 4.83074L1599.87 19L1611.32 4.82658L1622.37 19L1633.37 4.887L1644.36 19L1655.36 4.887L1666.36 19L1677.36 4.887L1688.35 19L1699.35 4.887L1710.35 19L1721.35 4.887L1732.35 19L1743.34 4.887L1754.34 19L1765.34 4.887L1776.34 19L1787.34 4.887L1798.33 19L1809.33 4.887L1820.33 19L1831.33 4.887L1842.32 19L1853.32 4.887L1864.32 19L1875.32 4.887L1886.32 19L1897.31 4.887L1908.31 19L1920 4V0Z" fill="#003990"/>
</svg>
