<svg width="768" height="12" viewBox="0 0 768 12" fill="none" xmlns="http://www.w3.org/2000/svg">
<path d="M768 0H1H0V2L8 12L15.5 2.625L23 12L30.5 2.625L38 12L45.4844 2.64453L52.5 12L60 2L68 12L75.5 2.625L83 12L90.4844 2.64453L97.5 12L104.516 2.64453L112 12L119.5 2.625L127 12L134.484 2.64453L141.5 12L149 2L156.5 12L163.516 2.64453L171 12L178.5 2.625L186 12L193.484 2.64453L200.5 12L207.516 2.64453L215 12L222.5 2.625L230 12L237.5 2.625L245 12L252.484 2.64453L259.5 12L266.516 2.64453L274 12L281.5 2.625L289 12L296.484 2.64453L303.5 12L310.516 2.64453L318 12L325.5 2.625L333 12L340.5 2.625L348 12L355.484 2.64453L362.5 12L369.516 2.64453L377 12L384.5 2.625L392 12L399.484 2.64453L406.5 12L414 2L421.5 12L428.516 2.64453L436 12L443.5 2.625L451 12L458.484 2.64453L465.5 12L472.516 2.64453L480 12L487.5 2.625L495 12L502.5 2.625L510 12L517.484 2.64453L524.5 12L531.516 2.64453L539 12L546.5 2.625L554 12L561.484 2.64453L568.5 12L575.516 2.64453L583 12L590.5 2.625L598 12L605.5 2.625L613 12L620.484 2.64453L627.5 12L634.516 2.64453L642 12L649.5 2.625L657 12L664.484 2.64453L671.5 12L679 2L686.5 12L693.516 2.64453L701 12L708.5 2.625L716 12L723.484 2.64453L730.5 12L737.516 2.64453L745 12L752.5 2.625L760 12L768 2V0Z" fill="#003990"/>
</svg>
