<svg width="360" height="220" viewBox="0 0 360 220" fill="none" xmlns="http://www.w3.org/2000/svg">
<path d="M218.727 137.559H172.458V218.952H218.727V137.559Z" fill="#0166FF"/>
<path d="M160.672 103.367H114.404V218.946H160.672V103.367Z" fill="#DDEBFF"/>
<path d="M102.641 59.4102H56.3723V218.942H102.641V59.4102Z" fill="#DDEBFF"/>
<path d="M45.4258 0H-0.00128555V218.949H45.4258V0Z" fill="#DDEBFF"/>
<path d="M299.011 83V71.156H266.755V65.696L295.819 23.612H306.319V64.52H313.291V71.156H306.319V83H299.011ZM275.575 64.52H299.011V30.248L275.575 64.52ZM317.559 83L333.351 60.404L318.315 38.732H326.883L338.139 55.532L349.059 38.732H357.375L342.423 60.656L358.467 83H349.983L337.719 66.116L325.623 83H317.559Z" fill="#0166FF"/>
<path d="M250.939 27.0607C251.525 27.6464 252.475 27.6464 253.061 27.0607L262.607 17.5147C263.192 16.9289 263.192 15.9792 262.607 15.3934C262.021 14.8076 261.071 14.8076 260.485 15.3934L252 23.8787L243.515 15.3934C242.929 14.8076 241.979 14.8076 241.393 15.3934C240.808 15.9792 240.808 16.9289 241.393 17.5147L250.939 27.0607ZM253.5 2L253.5 0.5L250.5 0.5L250.5 2L253.5 2ZM253.5 26L253.5 2L250.5 2L250.5 26L253.5 26Z" fill="#0166FF"/>
</svg>
