<svg width="389" height="238" viewBox="0 0 389 238" fill="none" xmlns="http://www.w3.org/2000/svg">
<path d="M159 150H208V238H159V150Z" fill="#0166FF"/>
<path d="M220 113H269V238H220V113Z" fill="#DDEBFF"/>
<path d="M281 65H329V238H281V65Z" fill="#DDEBFF"/>
<path d="M341 1H388V238H341V1Z" fill="#DDEBFF"/>
<path d="M72.5672 98V85.2348H37.8024V79.3501L69.1269 33.9929H80.4436V78.0827H87.9579V85.2348H80.4436V98H72.5672ZM47.3084 78.0827H72.5672V41.1451L47.3084 78.0827ZM92.5581 98L109.578 73.6465L93.3729 50.2889H102.607L114.739 68.3956L126.508 50.2889H135.471L119.356 73.9181L136.648 98H127.504L114.286 79.8028L101.249 98H92.5581Z" fill="#0166FF"/>
<path d="M10.9393 35.0607C11.5251 35.6464 12.4749 35.6464 13.0607 35.0607L22.6066 25.5147C23.1924 24.9289 23.1924 23.9792 22.6066 23.3934C22.0208 22.8076 21.0711 22.8076 20.4853 23.3934L12 31.8787L3.51472 23.3934C2.92893 22.8076 1.97918 22.8076 1.3934 23.3934C0.807611 23.9792 0.807611 24.9289 1.3934 25.5147L10.9393 35.0607ZM13.5 10L13.5 8.5L10.5 8.5L10.5 10L13.5 10ZM13.5 34L13.5 10L10.5 10L10.5 34L13.5 34Z" fill="#0166FF"/>
</svg>
