<svg width="255" height="152" viewBox="0 0 255 152" fill="none" xmlns="http://www.w3.org/2000/svg">
<path d="M151.121 95.0391H119.154V151.275H151.121V95.0391Z" fill="#0166FF"/>
<path d="M111.012 71.418H79.0445V151.273H111.012V71.418Z" fill="#DDEBFF"/>
<path d="M70.918 41.0469H38.9508V151.269H70.918V41.0469Z" fill="#DDEBFF"/>
<path d="M31.3867 0H0.000745773V151.274H31.3867V0Z" fill="#DDEBFF"/>
<path d="M209.131 63.3828V54.3588H184.555V50.1988L206.699 18.1348H214.699V49.3028H220.011V54.3588H214.699V63.3828H209.131ZM191.275 49.3028H209.131V23.1908L191.275 49.3028ZM223.263 63.3828L235.295 46.1668L223.839 29.6548H230.367L238.943 42.4548L247.263 29.6548H253.599L242.207 46.3588L254.431 63.3828H247.967L238.623 50.5188L229.407 63.3828H223.263Z" fill="#0166FF"/>
<path d="M173.377 18.6977C173.781 19.1024 174.437 19.1024 174.842 18.6977L181.438 12.1023C181.842 11.6976 181.842 11.0414 181.438 10.6366C181.033 10.2319 180.377 10.2319 179.972 10.6366L174.109 16.4992L168.247 10.6366C167.842 10.2319 167.186 10.2319 166.781 10.6366C166.376 11.0414 166.376 11.6976 166.781 12.1023L173.377 18.6977ZM175.146 1.38303L175.146 0.346662L173.073 0.346663L173.073 1.38303L175.146 1.38303ZM175.146 17.9648L175.146 1.38303L173.073 1.38303L173.073 17.9648L175.146 17.9648Z" fill="#0166FF"/>
</svg>
