<svg width="106" height="93" viewBox="0 0 106 93" fill="none" xmlns="http://www.w3.org/2000/svg">
<path d="M5.46967 11.5303C5.76256 11.8232 6.23744 11.8232 6.53033 11.5303L11.3033 6.75736C11.5962 6.46447 11.5962 5.98959 11.3033 5.6967C11.0104 5.40381 10.5355 5.40381 10.2426 5.6967L6 9.93934L1.75736 5.6967C1.46447 5.40381 0.989592 5.40381 0.696699 5.6967C0.403806 5.98959 0.403806 6.46447 0.696699 6.75736L5.46967 11.5303ZM6.75 1L6.75 0.25L5.25 0.25L5.25 1L6.75 1ZM6.75 11L6.75 1L5.25 1L5.25 11L6.75 11Z" fill="#0166FF"/>
<path d="M24.125 63.0352H41.1308V92.9978H24.125V63.0352Z" fill="#0166FF"/>
<path d="M45.1719 43.6016H62.1777V92.9994H45.1719V43.6016Z" fill="#0166FF" fill-opacity="0.3"/>
<path d="M67.0469 28.2109H84.0527V92.995H67.0469V28.2109Z" fill="#DDEBFF"/>
<path d="M88.9141 2.30078H105.92V92.9985H88.9141V2.30078Z" fill="#DDEBFF"/>
<path d="M27.7258 34V29.488H15.4378V27.408L26.5098 11.376H30.5098V26.96H33.1658V29.488H30.5098V34H27.7258ZM18.7977 26.96H27.7258V13.904L18.7977 26.96ZM34.7918 34L40.8078 25.392L35.0798 17.136H38.3438L42.6318 23.536L46.7918 17.136H49.9598L44.2638 25.488L50.3758 34H47.1438L42.4718 27.568L37.8638 34H34.7918Z" fill="#0166FF"/>
</svg>
