<svg width="193" height="115" viewBox="0 0 193 115" fill="none" xmlns="http://www.w3.org/2000/svg">
<path d="M108 73.5422H85.1545V113.731H108V73.5422Z" fill="#E27E55"/>
<path d="M79.3364 56.6616H56.491V113.73H79.3364V56.6616Z" fill="#F6E7E4"/>
<path d="M50.6841 34.9563H27.8386V113.727H50.6841V34.9563Z" fill="#F6E7E4"/>
<path d="M22.4321 5.62329H0.0020256V113.732H22.4321V5.62329Z" fill="#F6E7E4"/>
<path d="M157.867 49.0398V42.0445H138.816V38.8197L155.981 13.9639H162.183V38.1251H166.301V42.0445H162.183V49.0398H157.867ZM144.025 38.1251H157.867V17.8833L144.025 38.1251ZM168.822 49.0398L178.149 35.6941L169.268 22.8941H174.329L180.977 32.8166L187.426 22.8941H192.338L183.507 35.8429L192.983 49.0398H187.972L180.729 39.0677L173.585 49.0398H168.822Z" fill="#E27E55"/>
<path d="M130.348 14.0571C130.653 14.3613 131.146 14.3613 131.45 14.0571L136.409 9.09847C136.713 8.79419 136.713 8.30085 136.409 7.99656C136.105 7.69228 135.611 7.69228 135.307 7.99656L130.899 12.4042L126.492 7.99656C126.187 7.69228 125.694 7.69228 125.39 7.99656C125.086 8.30085 125.086 8.79419 125.39 9.09847L130.348 14.0571ZM131.679 1.03944L131.679 0.260272L130.12 0.260272L130.12 1.03944L131.679 1.03944ZM131.679 13.5061L131.679 1.03944L130.12 1.03944L130.12 13.5061L131.679 13.5061Z" fill="#E27E55"/>
</svg>
