<svg width="132" height="80" viewBox="0 0 132 80" fill="none" xmlns="http://www.w3.org/2000/svg">
<path d="M78.9857 49.6721H62.2777V79.0643H78.9857V49.6721Z" fill="#E27E55"/>
<path d="M58.0228 37.3267H41.3148V79.0635H58.0228V37.3267Z" fill="#F6E7E4"/>
<path d="M37.0677 21.4524H20.3598V79.061H37.0677V21.4524Z" fill="#F6E7E4"/>
<path d="M16.4056 0H0.00142288V79.0649H16.4056V0Z" fill="#F6E7E4"/>
<path d="M108.686 31.7227V27.2107H96.3982V25.1307L107.47 9.09866H111.47V24.6827H114.126V27.2107H111.47V31.7227H108.686ZM99.7582 24.6827H108.686V11.6267L99.7582 24.6827ZM115.752 31.7227L121.768 23.1147L116.04 14.8587H119.304L123.592 21.2587L127.752 14.8587H130.92L125.224 23.2107L131.336 31.7227H128.104L123.432 25.2907L118.824 31.7227H115.752Z" fill="#E27E55"/>
<path d="M90.617 11.383C90.8285 11.5946 91.1715 11.5946 91.383 11.383L94.8302 7.93587C95.0417 7.72434 95.0417 7.38137 94.8302 7.16984C94.6186 6.95831 94.2757 6.95831 94.0641 7.16984L91 10.234L87.9359 7.16984C87.7243 6.9583 87.3814 6.9583 87.1698 7.16984C86.9583 7.38137 86.9583 7.72434 87.1698 7.93587L90.617 11.383ZM91.5417 1L91.5417 0.458333L90.4583 0.458333L90.4583 1L91.5417 1ZM91.5417 11L91.5417 1L90.4583 1L90.4583 11L91.5417 11Z" fill="#E27E55"/>
</svg>
