<svg width="152" height="92" viewBox="0 0 152 92" fill="none" xmlns="http://www.w3.org/2000/svg">
<path d="M90.9534 57.123H71.7139V90.9241H90.9534V57.123Z" fill="#E27E55"/>
<path d="M66.8137 42.9258H47.5742V90.9231H66.8137V42.9258Z" fill="#F6E7E4"/>
<path d="M42.6837 24.6699H23.4443V90.9198H42.6837V24.6699Z" fill="#F6E7E4"/>
<path d="M18.8906 0H0.000976562V90.9246H18.8906V0Z" fill="#F6E7E4"/>
<path d="M125.153 36.4815V31.2927H111.004V28.9007L123.753 10.4639H128.359V28.3855H131.418V31.2927H128.359V36.4815H125.153ZM114.873 28.3855H125.153V13.3711L114.873 28.3855ZM133.29 36.4815L140.218 26.5823L133.622 17.0879H137.38L142.318 24.4479L147.108 17.0879H150.756L144.197 26.6927L151.235 36.4815H147.514L142.134 29.0847L136.828 36.4815H133.29Z" fill="#E27E55"/>
<path d="M104.346 13.0907C104.59 13.3341 104.985 13.3341 105.229 13.0907L109.198 9.12651C109.442 8.88325 109.442 8.48884 109.198 8.24558C108.954 8.00232 108.56 8.00232 108.316 8.24558L104.788 11.7694L101.259 8.24558C101.016 8.00231 100.621 8.00231 100.377 8.24558C100.133 8.48884 100.133 8.88325 100.377 9.12651L104.346 13.0907ZM105.411 1.15026V0.527344H104.164V1.15026H105.411ZM105.411 12.6503V1.15026H104.164V12.6503H105.411Z" fill="#E27E55"/>
</svg>
