<svg width="131" height="113" viewBox="0 0 131 113" fill="none" xmlns="http://www.w3.org/2000/svg">
<path d="M5.46967 12.667C5.76256 12.9599 6.23744 12.9599 6.53033 12.667L11.3033 7.89408C11.5962 7.60118 11.5962 7.12631 11.3033 6.83342C11.0104 6.54052 10.5355 6.54052 10.2426 6.83342L6 11.0761L1.75736 6.83342C1.46447 6.54052 0.989593 6.54052 0.696699 6.83342C0.403806 7.12631 0.403806 7.60118 0.696699 7.89408L5.46967 12.667ZM6.75 1.13605V0.386051H5.25V1.13605H6.75ZM6.75 12.1367L6.75 1.13605H5.25L5.25 12.1367H6.75Z" fill="#0166FF"/>
<path d="M30 75.1367H51V112.137H30V75.1367Z" fill="#0166FF"/>
<path d="M56 51.1367H77V112.137H56V51.1367Z" fill="#0166FF" fill-opacity="0.3"/>
<path d="M83 32.1367H104V112.137H83V32.1367Z" fill="#DDEBFF"/>
<path d="M110 0.136719H131V112.137H110V0.136719Z" fill="#DDEBFF"/>
<path d="M34.7822 40V34.36H19.4222V31.76L33.2622 11.72H38.2622V31.2H41.5822V34.36H38.2622V40H34.7822ZM23.6222 31.2H34.7822V14.88L23.6222 31.2ZM43.6147 40L51.1347 29.24L43.9747 18.92H48.0547L53.4147 26.92L58.6147 18.92H62.5747L55.4547 29.36L63.0947 40H59.0547L53.2147 31.96L47.4547 40H43.6147Z" fill="#0166FF"/>
</svg>
