<svg width="203" height="120" viewBox="0 0 203 120" fill="none" xmlns="http://www.w3.org/2000/svg">
<path d="M119.086 74.8906H93.8954V119.205H119.086V74.8906Z" fill="#E27E55"/>
<path d="M87.4805 56.2773H62.2899V119.204H87.4805V56.2773Z" fill="#F6E7E4"/>
<path d="M55.8867 32.3438H30.6962V119.2H55.8867V32.3438Z" fill="#F6E7E4"/>
<path d="M24.7344 0H0.00186157V119.205H24.7344V0Z" fill="#F6E7E4"/>
<path d="M165.465 51.0898V43.7578H145.497V40.3778L163.489 14.3258H169.989V39.6498H174.305V43.7578H169.989V51.0898H165.465ZM150.956 39.6498H165.465V18.4338L150.956 39.6498ZM176.947 51.0898L186.723 37.1018L177.415 23.6858H182.719L189.687 34.0858L196.447 23.6858H201.595L192.339 37.2578L202.271 51.0898H197.019L189.427 40.6378L181.939 51.0898H176.947Z" fill="#E27E55"/>
<path d="M136.622 14.7337C136.941 15.0526 137.458 15.0526 137.777 14.7337L142.974 9.53649C143.293 9.21756 143.293 8.70047 142.974 8.38154C142.655 8.06262 142.138 8.06262 141.819 8.38154L137.199 13.0013L132.579 8.38155C132.261 8.06262 131.743 8.06262 131.425 8.38155C131.106 8.70047 131.106 9.21756 131.425 9.53649L136.622 14.7337ZM138.016 1.08958L138.016 0.272918L136.383 0.272918L136.383 1.08958L138.016 1.08958ZM138.016 14.1562L138.016 1.08958L136.383 1.08958L136.383 14.1563L138.016 14.1562Z" fill="#E27E55"/>
</svg>
