<svg width="315" height="129" viewBox="0 0 315 129" fill="none" xmlns="http://www.w3.org/2000/svg">
<path d="M72.929 19.9504C49.6885 19.9504 38.2854 33.3194 27.9111 28.0465C21.9176 25.0002 20.0296 20.5399 17.4444 16.5978C12.8208 9.5473 9.32386 3.01041 0 1.04688V129.002H314V97.7796C314 97.7796 312.235 92.5019 304.115 88.4125C297.379 85.0201 285.543 83.1258 273.296 79.5657C261.203 76.0503 249.317 58.8504 237.826 54.0663C215.118 44.6127 208.644 40.6731 182.66 39.1435C170.956 38.4544 159.883 42.7338 150.604 47.8216C137.647 54.9257 126.028 62.2602 111.644 55.1071C85.2447 41.9781 96.1695 19.9504 72.929 19.9504Z" fill="url(#paint0_linear_5313_32643)"/>
<path d="M0.78125 1.04688C23.1296 10.7091 16.074 35.7744 41.7532 27.191C41.7532 27.191 63.0918 17.7902 76.9687 20.0872C97.7842 23.5327 86.1812 44.4788 111.946 54.9763C137.711 65.4738 151.627 37.3255 180.245 38.275C206.424 39.1436 218.169 44.2428 240.316 54.9763C251.653 60.4706 262.402 74.762 274.379 79.1975C294.009 86.4672 303.14 81.2847 313.996 96.8169" stroke="#0166FF" stroke-opacity="0.5" stroke-width="1.26238" stroke-linecap="round"/>
<path d="M94.2929 77.7071C94.6834 78.0976 95.3166 78.0976 95.7071 77.7071L102.071 71.3431C102.462 70.9526 102.462 70.3195 102.071 69.9289C101.681 69.5384 101.047 69.5384 100.657 69.9289L95 75.5858L89.3431 69.9289C88.9526 69.5384 88.3195 69.5384 87.9289 69.9289C87.5384 70.3195 87.5384 70.9526 87.9289 71.3431L94.2929 77.7071ZM96 63L96 62L94 62L94 63L96 63ZM96 77L96 63L94 63L94 77L96 77Z" fill="#0166FF"/>
<path d="M127.476 111.607C126.02 111.607 124.546 111.469 123.056 111.191C121.6 110.879 120.23 110.394 118.948 109.735C117.7 109.077 116.625 108.193 115.724 107.083C114.857 105.974 114.302 104.605 114.06 102.975H118.74C119.156 104.154 119.849 105.073 120.82 105.731C121.79 106.39 122.865 106.858 124.044 107.135C125.257 107.378 126.418 107.499 127.528 107.499C128.325 107.499 129.192 107.43 130.128 107.291C131.064 107.153 131.965 106.858 132.832 106.407C133.733 105.957 134.461 105.298 135.016 104.431C135.57 103.53 135.848 102.351 135.848 100.895C135.848 99.5087 135.588 98.3994 135.068 97.5674C134.548 96.7007 133.854 96.0594 132.988 95.6434C132.121 95.1927 131.15 94.8981 130.076 94.7594C129.036 94.6207 127.978 94.5514 126.904 94.5514H123.368V90.4954H125.5C126.713 90.4954 127.857 90.3914 128.932 90.1834C130.006 89.9407 130.96 89.5767 131.792 89.0914C132.624 88.6061 133.265 87.9647 133.716 87.1674C134.201 86.3701 134.444 85.3821 134.444 84.2034C134.444 82.5047 134.08 81.2221 133.352 80.3554C132.658 79.4887 131.757 78.8994 130.648 78.5874C129.538 78.2754 128.377 78.1194 127.164 78.1194C126.193 78.1194 125.188 78.2754 124.148 78.5874C123.142 78.8647 122.241 79.3327 121.444 79.9914C120.646 80.6154 120.109 81.4647 119.832 82.5394H115.308C115.516 81.0141 116.001 79.7141 116.764 78.6394C117.526 77.5647 118.462 76.6807 119.572 75.9874C120.716 75.2941 121.964 74.7914 123.316 74.4794C124.702 74.1674 126.106 74.0114 127.528 74.0114C129.088 74.0114 130.544 74.1847 131.896 74.5314C133.282 74.8434 134.496 75.3807 135.536 76.1434C136.576 76.8714 137.39 77.8421 137.98 79.0554C138.604 80.2687 138.916 81.7421 138.916 83.4754C138.916 84.7581 138.708 85.9367 138.292 87.0114C137.876 88.0861 137.252 89.0221 136.42 89.8194C135.622 90.6167 134.617 91.2754 133.404 91.7954C134.964 92.0727 136.264 92.6274 137.304 93.4594C138.378 94.2914 139.176 95.3141 139.696 96.5274C140.25 97.7061 140.528 99.0407 140.528 100.531C140.528 102.854 140.112 104.743 139.28 106.199C138.448 107.655 137.373 108.782 136.056 109.579C134.738 110.342 133.317 110.879 131.792 111.191C130.266 111.469 128.828 111.607 127.476 111.607ZM160.789 111.607C158.223 111.607 156.022 111.139 154.185 110.203C152.382 109.233 150.909 107.898 149.765 106.199C148.621 104.466 147.771 102.473 147.217 100.219C146.697 97.9314 146.437 95.4701 146.437 92.8354C146.437 90.2007 146.697 87.7567 147.217 85.5034C147.737 83.2154 148.569 81.2221 149.713 79.5234C150.857 77.7901 152.33 76.4381 154.133 75.4674C155.97 74.4967 158.189 74.0114 160.789 74.0114C163.527 74.0114 165.815 74.5487 167.653 75.6234C169.525 76.6634 170.998 78.0847 172.073 79.8874C173.182 81.6901 173.962 83.7181 174.413 85.9714C174.898 88.1901 175.141 90.4781 175.141 92.8354C175.141 95.1927 174.898 97.4981 174.413 99.7514C173.962 101.97 173.182 103.981 172.073 105.783C170.998 107.551 169.525 108.973 167.653 110.047C165.815 111.087 163.527 111.607 160.789 111.607ZM160.789 107.499C162.834 107.499 164.481 107.066 165.729 106.199C167.011 105.298 167.999 104.119 168.693 102.663C169.386 101.207 169.854 99.6301 170.097 97.9314C170.339 96.1981 170.461 94.4994 170.461 92.8354C170.461 91.2061 170.339 89.5421 170.097 87.8434C169.854 86.1101 169.386 84.5154 168.693 83.0594C167.999 81.5687 167.011 80.3727 165.729 79.4714C164.481 78.5701 162.834 78.1194 160.789 78.1194C158.709 78.1194 157.027 78.5701 155.745 79.4714C154.462 80.3727 153.474 81.5687 152.781 83.0594C152.122 84.5154 151.671 86.1101 151.429 87.8434C151.186 89.5421 151.065 91.2061 151.065 92.8354C151.065 94.4994 151.186 96.1981 151.429 97.9314C151.671 99.6301 152.122 101.207 152.781 102.663C153.474 104.119 154.462 105.298 155.745 106.199C157.027 107.066 158.709 107.499 160.789 107.499ZM185.283 111.191L207.903 74.4274H212.479L189.911 111.191H185.283ZM209.307 111.503C207.643 111.503 206.239 111.139 205.095 110.411C203.985 109.683 203.136 108.713 202.547 107.499C201.957 106.251 201.663 104.865 201.663 103.339C201.663 101.745 201.957 100.341 202.547 99.1274C203.136 97.9141 204.003 96.9607 205.147 96.2674C206.291 95.5741 207.677 95.2274 209.307 95.2274C210.901 95.2274 212.253 95.5741 213.363 96.2674C214.472 96.9607 215.321 97.9141 215.911 99.1274C216.5 100.341 216.795 101.745 216.795 103.339C216.795 104.865 216.5 106.251 215.911 107.499C215.321 108.713 214.472 109.683 213.363 110.411C212.253 111.139 210.901 111.503 209.307 111.503ZM209.255 107.811C210.156 107.811 210.867 107.603 211.387 107.187C211.941 106.771 212.323 106.217 212.531 105.523C212.773 104.83 212.895 104.102 212.895 103.339C212.895 102.577 212.773 101.866 212.531 101.207C212.323 100.514 211.941 99.9594 211.387 99.5434C210.867 99.1274 210.156 98.9194 209.255 98.9194C207.868 98.9194 206.88 99.3701 206.291 100.271C205.736 101.173 205.459 102.195 205.459 103.339C205.459 104.553 205.753 105.61 206.343 106.511C206.932 107.378 207.903 107.811 209.255 107.811ZM188.715 90.2874C187.051 90.2874 185.647 89.9234 184.503 89.1954C183.393 88.4674 182.544 87.4967 181.955 86.2834C181.4 85.0354 181.123 83.6487 181.123 82.1234C181.123 80.5287 181.4 79.1247 181.955 77.9114C182.544 76.6981 183.411 75.7447 184.555 75.0514C185.699 74.3581 187.085 74.0114 188.715 74.0114C190.344 74.0114 191.713 74.3581 192.823 75.0514C193.932 75.7447 194.764 76.6981 195.319 77.9114C195.908 79.1247 196.203 80.5287 196.203 82.1234C196.203 83.6487 195.908 85.0354 195.319 86.2834C194.764 87.4967 193.932 88.4674 192.823 89.1954C191.713 89.9234 190.344 90.2874 188.715 90.2874ZM188.715 86.5954C189.616 86.5954 190.327 86.3874 190.847 85.9714C191.367 85.5554 191.748 85.0007 191.991 84.3074C192.233 83.6141 192.355 82.8861 192.355 82.1234C192.355 81.3607 192.233 80.6501 191.991 79.9914C191.748 79.2981 191.367 78.7434 190.847 78.3274C190.327 77.9114 189.616 77.7034 188.715 77.7034C187.328 77.7034 186.34 78.1541 185.751 79.0554C185.161 79.9567 184.867 80.9794 184.867 82.1234C184.867 83.3367 185.161 84.3941 185.751 85.2954C186.34 86.1621 187.328 86.5954 188.715 86.5954Z" fill="#0166FF"/>
<defs>
<linearGradient id="paint0_linear_5313_32643" x1="157.742" y1="19.3425" x2="157.742" y2="113.153" gradientUnits="userSpaceOnUse">
<stop stop-color="#DDEBFF"/>
<stop offset="1" stop-color="#DDEBFF" stop-opacity="0.15"/>
</linearGradient>
</defs>
</svg>
