<svg width="401" height="140" viewBox="0 0 401 140" fill="none" xmlns="http://www.w3.org/2000/svg">
<g clip-path="url(#clip0_274_2)">
<path d="M92.9032 25.081C63.2975 25.081 48.7712 42.1115 35.5556 35.3944C27.9206 31.5138 25.5155 25.8318 22.2222 20.8101C16.3322 11.8286 11.8775 3.50132 0 1V164H400V124.226C400 124.226 397.752 117.503 387.407 112.294C378.826 107.972 363.75 105.559 348.148 101.024C332.743 96.5458 317.602 74.6351 302.963 68.5407C274.036 56.4978 265.788 51.4792 232.688 49.5307C217.778 48.6529 203.672 54.1043 191.852 60.5856C175.347 69.6355 160.545 78.9787 142.222 69.8665C108.592 53.1417 122.509 25.081 92.9032 25.081Z" fill="url(#paint0_linear_274_2)"/>
<path d="M1 1C29.4692 13.3086 20.4812 45.2389 53.1935 34.3046C53.1935 34.3046 80.3765 22.3291 98.0541 25.2552C124.571 29.6443 109.79 56.3273 142.611 69.6999C175.433 83.0725 193.16 47.2147 229.616 48.4243C262.966 49.5308 277.928 56.0267 306.14 69.6999C320.582 76.699 334.275 94.9046 349.532 100.555C374.538 109.816 386.17 103.214 400 123" stroke="#B567DA" stroke-opacity="0.4" stroke-width="1.60813" stroke-linecap="round"/>
<path d="M125.116 95.8839C125.604 96.372 126.396 96.372 126.884 95.8839L134.839 87.9289C135.327 87.4408 135.327 86.6493 134.839 86.1612C134.351 85.673 133.559 85.673 133.071 86.1612L126 93.2322L118.929 86.1612C118.441 85.673 117.649 85.673 117.161 86.1612C116.673 86.6493 116.673 87.4408 117.161 87.9289L125.116 95.8839ZM127.25 78V76.75H124.75V78H127.25ZM127.25 95V78H124.75V95H127.25Z" fill="#B567DA"/>
<path d="M161.733 140.133C159.941 140.133 158.128 139.962 156.293 139.621C154.501 139.237 152.816 138.64 151.237 137.829C149.701 137.018 148.379 135.93 147.269 134.565C146.203 133.2 145.52 131.514 145.221 129.509H150.981C151.493 130.96 152.347 132.09 153.541 132.901C154.736 133.712 156.059 134.288 157.509 134.629C159.003 134.928 160.432 135.077 161.797 135.077C162.779 135.077 163.845 134.992 164.997 134.821C166.149 134.65 167.259 134.288 168.325 133.733C169.435 133.178 170.331 132.368 171.013 131.301C171.696 130.192 172.037 128.741 172.037 126.949C172.037 125.242 171.717 123.877 171.077 122.853C170.437 121.786 169.584 120.997 168.517 120.485C167.451 119.93 166.256 119.568 164.933 119.397C163.653 119.226 162.352 119.141 161.029 119.141H156.677V114.149H159.301C160.795 114.149 162.203 114.021 163.525 113.765C164.848 113.466 166.021 113.018 167.045 112.421C168.069 111.824 168.859 111.034 169.413 110.053C170.011 109.072 170.309 107.856 170.309 106.405C170.309 104.314 169.861 102.736 168.965 101.669C168.112 100.602 167.003 99.8773 165.637 99.4933C164.272 99.1093 162.843 98.9173 161.349 98.9173C160.155 98.9173 158.917 99.1093 157.637 99.4933C156.4 99.8346 155.291 100.41 154.309 101.221C153.328 101.989 152.667 103.034 152.325 104.357H146.757C147.013 102.48 147.611 100.88 148.549 99.5573C149.488 98.2346 150.64 97.1466 152.005 96.2933C153.413 95.44 154.949 94.8213 156.613 94.4373C158.32 94.0533 160.048 93.8613 161.797 93.8613C163.717 93.8613 165.509 94.0746 167.173 94.5013C168.88 94.8853 170.373 95.5466 171.653 96.4853C172.933 97.3813 173.936 98.576 174.661 100.069C175.429 101.562 175.813 103.376 175.813 105.509C175.813 107.088 175.557 108.538 175.045 109.861C174.533 111.184 173.765 112.336 172.741 113.317C171.76 114.298 170.523 115.109 169.029 115.749C170.949 116.09 172.549 116.773 173.829 117.797C175.152 118.821 176.133 120.08 176.773 121.573C177.456 123.024 177.797 124.666 177.797 126.501C177.797 129.36 177.285 131.685 176.261 133.477C175.237 135.269 173.915 136.656 172.293 137.637C170.672 138.576 168.923 139.237 167.045 139.621C165.168 139.962 163.397 140.133 161.733 140.133ZM202.734 140.133C199.577 140.133 196.867 139.557 194.606 138.405C192.387 137.21 190.574 135.568 189.166 133.477C187.758 131.344 186.713 128.89 186.03 126.117C185.39 123.301 185.07 120.272 185.07 117.029C185.07 113.786 185.39 110.778 186.03 108.005C186.67 105.189 187.694 102.736 189.102 100.645C190.51 98.512 192.323 96.848 194.542 95.6533C196.803 94.4586 199.534 93.8613 202.734 93.8613C206.105 93.8613 208.921 94.5226 211.182 95.8453C213.486 97.1253 215.299 98.8746 216.622 101.093C217.987 103.312 218.947 105.808 219.502 108.581C220.099 111.312 220.398 114.128 220.398 117.029C220.398 119.93 220.099 122.768 219.502 125.541C218.947 128.272 217.987 130.746 216.622 132.965C215.299 135.141 213.486 136.89 211.182 138.213C208.921 139.493 206.105 140.133 202.734 140.133ZM202.734 135.077C205.251 135.077 207.278 134.544 208.814 133.477C210.393 132.368 211.609 130.917 212.462 129.125C213.315 127.333 213.891 125.392 214.19 123.301C214.489 121.168 214.638 119.077 214.638 117.029C214.638 115.024 214.489 112.976 214.19 110.885C213.891 108.752 213.315 106.789 212.462 104.997C211.609 103.162 210.393 101.69 208.814 100.581C207.278 99.472 205.251 98.9173 202.734 98.9173C200.174 98.9173 198.105 99.472 196.526 100.581C194.947 101.69 193.731 103.162 192.878 104.997C192.067 106.789 191.513 108.752 191.214 110.885C190.915 112.976 190.766 115.024 190.766 117.029C190.766 119.077 190.915 121.168 191.214 123.301C191.513 125.392 192.067 127.333 192.878 129.125C193.731 130.917 194.947 132.368 196.526 133.477C198.105 134.544 200.174 135.077 202.734 135.077ZM232.88 139.621L260.72 94.3733H266.352L238.576 139.621H232.88ZM262.448 140.005C260.4 140.005 258.672 139.557 257.264 138.661C255.899 137.765 254.854 136.57 254.128 135.077C253.403 133.541 253.04 131.834 253.04 129.957C253.04 127.994 253.403 126.266 254.128 124.773C254.854 123.28 255.92 122.106 257.328 121.253C258.736 120.4 260.443 119.973 262.448 119.973C264.411 119.973 266.075 120.4 267.44 121.253C268.806 122.106 269.851 123.28 270.576 124.773C271.302 126.266 271.664 127.994 271.664 129.957C271.664 131.834 271.302 133.541 270.576 135.077C269.851 136.57 268.806 137.765 267.44 138.661C266.075 139.557 264.411 140.005 262.448 140.005ZM262.384 135.461C263.494 135.461 264.368 135.205 265.008 134.693C265.691 134.181 266.16 133.498 266.416 132.645C266.715 131.792 266.864 130.896 266.864 129.957C266.864 129.018 266.715 128.144 266.416 127.333C266.16 126.48 265.691 125.797 265.008 125.285C264.368 124.773 263.494 124.517 262.384 124.517C260.678 124.517 259.462 125.072 258.736 126.181C258.054 127.29 257.712 128.549 257.712 129.957C257.712 131.45 258.075 132.752 258.8 133.861C259.526 134.928 260.72 135.461 262.384 135.461ZM237.104 113.893C235.056 113.893 233.328 113.445 231.92 112.549C230.555 111.653 229.51 110.458 228.784 108.965C228.102 107.429 227.76 105.722 227.76 103.845C227.76 101.882 228.102 100.154 228.784 98.6613C229.51 97.168 230.576 95.9946 231.984 95.1413C233.392 94.288 235.099 93.8613 237.104 93.8613C239.11 93.8613 240.795 94.288 242.16 95.1413C243.526 95.9946 244.55 97.168 245.232 98.6613C245.958 100.154 246.32 101.882 246.32 103.845C246.32 105.722 245.958 107.429 245.232 108.965C244.55 110.458 243.526 111.653 242.16 112.549C240.795 113.445 239.11 113.893 237.104 113.893ZM237.104 109.349C238.214 109.349 239.088 109.093 239.728 108.581C240.368 108.069 240.838 107.386 241.136 106.533C241.435 105.68 241.584 104.784 241.584 103.845C241.584 102.906 241.435 102.032 241.136 101.221C240.838 100.368 240.368 99.6853 239.728 99.1733C239.088 98.6613 238.214 98.4053 237.104 98.4053C235.398 98.4053 234.182 98.96 233.456 100.069C232.731 101.178 232.368 102.437 232.368 103.845C232.368 105.338 232.731 106.64 233.456 107.749C234.182 108.816 235.398 109.349 237.104 109.349Z" fill="#B567DA"/>
</g>
<defs>
<linearGradient id="paint0_linear_274_2" x1="200.945" y1="24.3729" x2="200.945" y2="143.819" gradientUnits="userSpaceOnUse">
<stop stop-color="#EFE3F9"/>
<stop offset="1" stop-color="#EFE3F9" stop-opacity="0.15"/>
</linearGradient>
<clipPath id="clip0_274_2">
<rect width="401" height="140" fill="white"/>
</clipPath>
</defs>
</svg>
