<svg width="466" height="221" viewBox="0 0 466 221" fill="none" xmlns="http://www.w3.org/2000/svg">
<path d="M48 49.4991C16.6325 40.2732 24 -1.499 0 0.998051V220.999H465V159.94C465 159.94 443.5 150 403.5 136.5C385.591 130.456 373.145 103.48 356.128 95.2543C322.5 79 309.036 67.958 270.5 66.5C228.319 64.9042 203.15 116.68 166.595 95.5735C127.5 73 141.5 33.5002 108 33.5002C74.5 33.5002 65 54.4992 48 49.4991Z" fill="url(#paint0_linear_313_21)"/>
<path d="M2.5 1C35.5 18 25.0816 62.1005 63 46.9985C63 46.9985 94.5091 30.4587 115 34.5C145.737 40.5621 128.603 77.4151 166.648 95.8847C204.693 114.354 225.242 64.8294 267.5 66.5C306.157 68.0283 323.5 77 356.203 95.8847C372.943 105.551 388.815 130.696 406.5 138.5C435.486 151.291 448.969 142.172 465 169.5" stroke="#B567DA" stroke-opacity="0.4" stroke-width="2" stroke-linecap="round"/>
<path d="M154.939 138.061C155.525 138.646 156.475 138.646 157.061 138.061L166.607 128.515C167.192 127.929 167.192 126.979 166.607 126.393C166.021 125.808 165.071 125.808 164.485 126.393L156 134.879L147.515 126.393C146.929 125.808 145.979 125.808 145.393 126.393C144.808 126.979 144.808 127.929 145.393 128.515L154.939 138.061ZM157.5 113L157.5 111.5L154.5 111.5L154.5 113L157.5 113ZM157.5 137L157.5 113L154.5 113L154.5 137L157.5 137Z" fill="#B567DA"/>
<path d="M202.444 194.672C200.092 194.672 197.712 194.448 195.304 194C192.952 193.496 190.74 192.712 188.668 191.648C186.652 190.584 184.916 189.156 183.46 187.364C182.06 185.572 181.164 183.36 180.772 180.728H188.332C189.004 182.632 190.124 184.116 191.692 185.18C193.26 186.244 194.996 187 196.9 187.448C198.86 187.84 200.736 188.036 202.528 188.036C203.816 188.036 205.216 187.924 206.728 187.7C208.24 187.476 209.696 187 211.096 186.272C212.552 185.544 213.728 184.48 214.624 183.08C215.52 181.624 215.968 179.72 215.968 177.368C215.968 175.128 215.548 173.336 214.708 171.992C213.868 170.592 212.748 169.556 211.348 168.884C209.948 168.156 208.38 167.68 206.644 167.456C204.964 167.232 203.256 167.12 201.52 167.12H195.808V160.568H199.252C201.212 160.568 203.06 160.4 204.796 160.064C206.532 159.672 208.072 159.084 209.416 158.3C210.76 157.516 211.796 156.48 212.524 155.192C213.308 153.904 213.7 152.308 213.7 150.404C213.7 147.66 213.112 145.588 211.936 144.188C210.816 142.788 209.36 141.836 207.568 141.332C205.776 140.828 203.9 140.576 201.94 140.576C200.372 140.576 198.748 140.828 197.068 141.332C195.444 141.78 193.988 142.536 192.7 143.6C191.412 144.608 190.544 145.98 190.096 147.716H182.788C183.124 145.252 183.908 143.152 185.14 141.416C186.372 139.68 187.884 138.252 189.676 137.132C191.524 136.012 193.54 135.2 195.724 134.696C197.964 134.192 200.232 133.94 202.528 133.94C205.048 133.94 207.4 134.22 209.584 134.78C211.824 135.284 213.784 136.152 215.464 137.384C217.144 138.56 218.46 140.128 219.412 142.088C220.42 144.048 220.924 146.428 220.924 149.228C220.924 151.3 220.588 153.204 219.916 154.94C219.244 156.676 218.236 158.188 216.892 159.476C215.604 160.764 213.98 161.828 212.02 162.668C214.54 163.116 216.64 164.012 218.32 165.356C220.056 166.7 221.344 168.352 222.184 170.312C223.08 172.216 223.528 174.372 223.528 176.78C223.528 180.532 222.856 183.584 221.512 185.936C220.168 188.288 218.432 190.108 216.304 191.396C214.176 192.628 211.88 193.496 209.416 194C206.952 194.448 204.628 194.672 202.444 194.672ZM256.257 194.672C252.113 194.672 248.557 193.916 245.589 192.404C242.677 190.836 240.297 188.68 238.449 185.936C236.601 183.136 235.229 179.916 234.333 176.276C233.493 172.58 233.073 168.604 233.073 164.348C233.073 160.092 233.493 156.144 234.333 152.504C235.173 148.808 236.517 145.588 238.365 142.844C240.213 140.044 242.593 137.86 245.505 136.292C248.473 134.724 252.057 133.94 256.257 133.94C260.681 133.94 264.377 134.808 267.345 136.544C270.369 138.224 272.749 140.52 274.485 143.432C276.277 146.344 277.537 149.62 278.265 153.26C279.049 156.844 279.441 160.54 279.441 164.348C279.441 168.156 279.049 171.88 278.265 175.52C277.537 179.104 276.277 182.352 274.485 185.264C272.749 188.12 270.369 190.416 267.345 192.152C264.377 193.832 260.681 194.672 256.257 194.672ZM256.257 188.036C259.561 188.036 262.221 187.336 264.237 185.936C266.309 184.48 267.905 182.576 269.025 180.224C270.145 177.872 270.901 175.324 271.293 172.58C271.685 169.78 271.881 167.036 271.881 164.348C271.881 161.716 271.685 159.028 271.293 156.284C270.901 153.484 270.145 150.908 269.025 148.556C267.905 146.148 266.309 144.216 264.237 142.76C262.221 141.304 259.561 140.576 256.257 140.576C252.897 140.576 250.181 141.304 248.109 142.76C246.037 144.216 244.441 146.148 243.321 148.556C242.257 150.908 241.529 153.484 241.137 156.284C240.745 159.028 240.549 161.716 240.549 164.348C240.549 167.036 240.745 169.78 241.137 172.58C241.529 175.324 242.257 177.872 243.321 180.224C244.441 182.576 246.037 184.48 248.109 185.936C250.181 187.336 252.897 188.036 256.257 188.036ZM295.824 194L332.364 134.612H339.756L303.3 194H295.824ZM334.632 194.504C331.944 194.504 329.676 193.916 327.828 192.74C326.036 191.564 324.664 189.996 323.712 188.036C322.76 186.02 322.284 183.78 322.284 181.316C322.284 178.74 322.76 176.472 323.712 174.512C324.664 172.552 326.064 171.012 327.912 169.892C329.76 168.772 332 168.212 334.632 168.212C337.208 168.212 339.392 168.772 341.184 169.892C342.976 171.012 344.348 172.552 345.3 174.512C346.252 176.472 346.728 178.74 346.728 181.316C346.728 183.78 346.252 186.02 345.3 188.036C344.348 189.996 342.976 191.564 341.184 192.74C339.392 193.916 337.208 194.504 334.632 194.504ZM334.548 188.54C336.004 188.54 337.152 188.204 337.992 187.532C338.888 186.86 339.504 185.964 339.84 184.844C340.232 183.724 340.428 182.548 340.428 181.316C340.428 180.084 340.232 178.936 339.84 177.872C339.504 176.752 338.888 175.856 337.992 175.184C337.152 174.512 336.004 174.176 334.548 174.176C332.308 174.176 330.712 174.904 329.76 176.36C328.864 177.816 328.416 179.468 328.416 181.316C328.416 183.276 328.892 184.984 329.844 186.44C330.796 187.84 332.364 188.54 334.548 188.54ZM301.368 160.232C298.68 160.232 296.412 159.644 294.564 158.468C292.772 157.292 291.4 155.724 290.448 153.764C289.552 151.748 289.104 149.508 289.104 147.044C289.104 144.468 289.552 142.2 290.448 140.24C291.4 138.28 292.8 136.74 294.648 135.62C296.496 134.5 298.736 133.94 301.368 133.94C304 133.94 306.212 134.5 308.004 135.62C309.796 136.74 311.14 138.28 312.036 140.24C312.988 142.2 313.464 144.468 313.464 147.044C313.464 149.508 312.988 151.748 312.036 153.764C311.14 155.724 309.796 157.292 308.004 158.468C306.212 159.644 304 160.232 301.368 160.232ZM301.368 154.268C302.824 154.268 303.972 153.932 304.812 153.26C305.652 152.588 306.268 151.692 306.66 150.572C307.052 149.452 307.248 148.276 307.248 147.044C307.248 145.812 307.052 144.664 306.66 143.6C306.268 142.48 305.652 141.584 304.812 140.912C303.972 140.24 302.824 139.904 301.368 139.904C299.128 139.904 297.532 140.632 296.58 142.088C295.628 143.544 295.152 145.196 295.152 147.044C295.152 149.004 295.628 150.712 296.58 152.168C297.532 153.568 299.128 154.268 301.368 154.268Z" fill="#B567DA"/>
<defs>
<linearGradient id="paint0_linear_313_21" x1="233.599" y1="32.4524" x2="233.599" y2="193.747" gradientUnits="userSpaceOnUse">
<stop stop-color="#EFE3F9"/>
<stop offset="1" stop-color="#EFE3F9" stop-opacity="0.15"/>
</linearGradient>
</defs>
</svg>
