<svg width="465" height="220" viewBox="0 0 465 220" fill="none" xmlns="http://www.w3.org/2000/svg">
<g clip-path="url(#clip0_293_16)">
<path d="M107.731 33.6456C73.3998 33.6456 56.5551 56.4914 41.2303 47.4806C32.3768 42.2749 29.5878 34.6527 25.7689 27.9163C18.9388 15.868 13.7732 4.69723 0 1.3418V220H463.84V166.645C463.84 166.645 461.234 157.626 449.238 150.639C439.287 144.841 421.805 141.604 403.713 135.52C385.849 129.513 368.292 100.121 351.316 91.9452C317.772 75.7901 308.208 69.0578 269.825 66.444C252.536 65.2664 236.178 72.5793 222.472 81.2737C203.333 93.4138 186.168 105.947 164.921 93.7237C125.923 71.288 142.062 33.6456 107.731 33.6456Z" fill="url(#paint0_linear_293_16)"/>
<path d="M1.15918 1.3418C34.1721 17.8533 23.7496 60.6867 61.6828 46.0187C61.6828 46.0187 93.2042 29.954 113.703 33.8793C144.452 39.7671 127.312 75.5613 165.371 93.5002C203.432 111.439 223.988 63.3371 266.263 64.9598C304.935 66.4441 322.285 75.1581 355 93.5002C371.747 102.889 387.625 127.311 405.317 134.891C434.314 147.314 447.803 138.458 463.84 165" stroke="#B567DA" stroke-opacity="0.4" stroke-width="1.60813" stroke-linecap="round"/>
<path d="M145.085 128.624C145.65 129.279 146.569 129.279 147.135 128.624L156.359 117.953C156.925 117.298 156.925 116.237 156.359 115.582C155.794 114.927 154.875 114.927 154.309 115.582L146.11 125.067L137.91 115.582C137.344 114.927 136.426 114.927 135.86 115.582C135.294 116.237 135.294 117.298 135.86 117.953L145.085 128.624ZM147.559 104.634V102.957H144.66V104.634H147.559ZM147.559 127.439V104.634H144.66V127.439H147.559Z" fill="#B567DA"/>
<path d="M187.546 187.984C185.468 187.984 183.365 187.755 181.238 187.297C179.16 186.782 177.206 185.981 175.375 184.893C173.593 183.806 172.06 182.346 170.773 180.515C169.537 178.684 168.745 176.422 168.398 173.732H175.078C175.671 175.679 176.662 177.195 178.046 178.283C179.432 179.371 180.966 180.143 182.648 180.601C184.38 181.002 186.037 181.202 187.62 181.202C188.759 181.202 189.995 181.088 191.331 180.858C192.667 180.629 193.954 180.143 195.19 179.399C196.477 178.654 197.516 177.568 198.307 176.136C199.099 174.649 199.494 172.702 199.494 170.298C199.494 168.008 199.123 166.177 198.381 164.804C197.639 163.372 196.65 162.314 195.413 161.627C194.176 160.883 192.791 160.397 191.257 160.168C189.772 159.938 188.264 159.824 186.729 159.824H181.683V153.128H184.726C186.458 153.128 188.091 152.956 189.624 152.612C191.158 152.211 192.518 151.61 193.706 150.81C194.893 150.009 195.809 148.949 196.452 147.633C197.145 146.317 197.491 144.686 197.491 142.739C197.491 139.934 196.971 137.817 195.932 136.386C194.943 134.955 193.657 133.982 192.073 133.467C190.49 132.952 188.833 132.695 187.1 132.695C185.716 132.695 184.28 132.952 182.796 133.467C181.362 133.925 180.076 134.697 178.937 135.785C177.799 136.815 177.033 138.217 176.636 139.992H170.18C170.476 137.474 171.17 135.328 172.258 133.553C173.346 131.779 174.682 130.319 176.265 129.175C177.898 128.03 179.679 127.2 181.609 126.685C183.588 126.17 185.592 125.912 187.62 125.912C189.846 125.912 191.924 126.198 193.854 126.771C195.833 127.286 197.565 128.173 199.049 129.432C200.533 130.634 201.696 132.237 202.537 134.24C203.428 136.243 203.873 138.676 203.873 141.537C203.873 143.656 203.576 145.601 202.982 147.375C202.389 149.15 201.498 150.696 200.311 152.011C199.173 153.327 197.739 154.415 196.006 155.274C198.233 155.731 200.088 156.648 201.572 158.021C203.106 159.395 204.244 161.084 204.986 163.087C205.778 165.033 206.174 167.236 206.174 169.697C206.174 173.533 205.58 176.651 204.392 179.055C203.205 181.459 201.672 183.32 199.791 184.636C197.911 185.896 195.883 186.782 193.706 187.297C191.529 187.755 189.475 187.984 187.546 187.984ZM235.091 187.984C231.43 187.984 228.287 187.211 225.665 185.666C223.092 184.063 220.99 181.86 219.357 179.055C217.724 176.194 216.513 172.902 215.721 169.182C214.978 165.405 214.607 161.341 214.607 156.991C214.607 152.641 214.978 148.606 215.721 144.886C216.463 141.108 217.65 137.817 219.283 135.012C220.916 132.151 223.018 129.919 225.591 128.316C228.213 126.713 231.38 125.912 235.091 125.912C239 125.912 242.265 126.799 244.887 128.574C247.559 130.291 249.661 132.637 251.195 135.613C252.778 138.59 253.891 141.938 254.535 145.658C255.227 149.322 255.574 153.099 255.574 156.991C255.574 160.883 255.227 164.69 254.535 168.41C253.891 172.073 252.778 175.392 251.195 178.369C249.661 181.288 247.559 183.634 244.887 185.409C242.265 187.126 239 187.984 235.091 187.984ZM235.091 181.202C238.009 181.202 240.36 180.487 242.141 179.055C243.972 177.568 245.382 175.621 246.371 173.217C247.36 170.813 248.028 168.21 248.375 165.405C248.722 162.543 248.894 159.738 248.894 156.991C248.894 154.301 248.722 151.554 248.375 148.749C248.028 145.888 247.36 143.254 246.371 140.851C245.382 138.389 243.972 136.414 242.141 134.927C240.36 133.439 238.009 132.695 235.091 132.695C232.122 132.695 229.723 133.439 227.892 134.927C226.061 136.414 224.651 138.389 223.662 140.851C222.721 143.254 222.079 145.888 221.732 148.749C221.385 151.554 221.212 154.301 221.212 156.991C221.212 159.738 221.385 162.543 221.732 165.405C222.079 168.21 222.721 170.813 223.662 173.217C224.651 175.621 226.061 177.568 227.892 179.055C229.723 180.487 232.122 181.202 235.091 181.202ZM270.048 187.297L302.331 126.599H308.862L276.653 187.297H270.048ZM304.335 187.812C301.96 187.812 299.956 187.211 298.324 186.01C296.741 184.808 295.529 183.205 294.687 181.202C293.846 179.141 293.425 176.851 293.425 174.333C293.425 171.7 293.846 169.382 294.687 167.379C295.529 165.376 296.765 163.802 298.398 162.657C300.031 161.513 302.01 160.94 304.335 160.94C306.611 160.94 308.541 161.513 310.124 162.657C311.708 163.802 312.92 165.376 313.76 167.379C314.602 169.382 315.022 171.7 315.022 174.333C315.022 176.851 314.602 179.141 313.76 181.202C312.92 183.205 311.708 184.808 310.124 186.01C308.541 187.211 306.611 187.812 304.335 187.812ZM304.261 181.717C305.548 181.717 306.561 181.373 307.304 180.687C308.096 180 308.639 179.084 308.936 177.939C309.283 176.795 309.456 175.593 309.456 174.333C309.456 173.074 309.283 171.901 308.936 170.813C308.639 169.669 308.096 168.753 307.304 168.066C306.561 167.379 305.548 167.036 304.261 167.036C302.283 167.036 300.872 167.78 300.031 169.268C299.24 170.756 298.843 172.445 298.843 174.333C298.843 176.336 299.264 178.083 300.105 179.571C300.947 181.002 302.331 181.717 304.261 181.717ZM274.946 152.784C272.571 152.784 270.567 152.183 268.935 150.981C267.352 149.779 266.14 148.176 265.298 146.173C264.507 144.113 264.111 141.823 264.111 139.305C264.111 136.672 264.507 134.354 265.298 132.351C266.14 130.348 267.376 128.774 269.009 127.629C270.642 126.485 272.621 125.912 274.946 125.912C277.272 125.912 279.226 126.485 280.809 127.629C282.393 128.774 283.58 130.348 284.371 132.351C285.213 134.354 285.633 136.672 285.633 139.305C285.633 141.823 285.213 144.113 284.371 146.173C283.58 148.176 282.393 149.779 280.809 150.981C279.226 152.183 277.272 152.784 274.946 152.784ZM274.946 146.689C276.233 146.689 277.247 146.345 277.989 145.658C278.731 144.971 279.276 144.055 279.622 142.911C279.968 141.767 280.141 140.565 280.141 139.305C280.141 138.046 279.968 136.873 279.622 135.785C279.276 134.641 278.731 133.725 277.989 133.038C277.247 132.351 276.233 132.008 274.946 132.008C272.968 132.008 271.558 132.752 270.716 134.24C269.875 135.727 269.454 137.416 269.454 139.305C269.454 141.308 269.875 143.055 270.716 144.542C271.558 145.974 272.968 146.689 274.946 146.689Z" fill="#B567DA"/>
</g>
<defs>
<linearGradient id="paint0_linear_293_16" x1="233.016" y1="32.6957" x2="233.016" y2="192.928" gradientUnits="userSpaceOnUse">
<stop stop-color="#EFE3F9"/>
<stop offset="1" stop-color="#EFE3F9" stop-opacity="0.15"/>
</linearGradient>
<clipPath id="clip0_293_16">
<rect width="465" height="220" fill="white"/>
</clipPath>
</defs>
</svg>
