<svg width="467" height="240" viewBox="0 0 467 240" fill="none" xmlns="http://www.w3.org/2000/svg">
<path d="M49 50.4991C17.6325 41.2732 25 -0.499002 1 1.99805V240H466V171.5C466 171.5 466.459 162.668 452 154C442.045 148.032 420.81 143.005 404.5 137.5C386.591 131.456 374.145 104.48 357.128 96.2543C323.5 80 310.036 68.958 271.5 67.5C227.5 65.8353 204.15 117.68 167.595 96.5735C128.5 74 142.5 34.5002 109 34.5002C75.5 34.5002 66 55.4992 49 50.4991Z" fill="url(#paint0_linear_5368_5924)"/>
<path d="M1.5 2C6.5 2 8.49227 1.68753 11.5 4.5C29.5 25.5 30.8345 61.2075 64 47.9985C64 47.9985 95.5091 31.4587 116 35.5C146.737 41.5621 129.603 78.4151 167.648 96.8847C205.693 115.354 226.242 65.8294 268.5 67.5C307.157 69.0283 324.5 78 357.203 96.8847C373.943 106.551 389.815 131.696 407.5 139.5C436.486 152.291 449.969 143.172 466 170.5" stroke="#0166FF" stroke-opacity="0.5" stroke-width="2" stroke-linecap="round"/>
<path d="M155.939 158.061C156.525 158.646 157.475 158.646 158.061 158.061L167.607 148.515C168.192 147.929 168.192 146.979 167.607 146.393C167.021 145.808 166.071 145.808 165.485 146.393L157 154.879L148.515 146.393C147.929 145.808 146.979 145.808 146.393 146.393C145.808 146.979 145.808 147.929 146.393 148.515L155.939 158.061ZM158.5 133L158.5 131.5L155.5 131.5L155.5 133L158.5 133ZM158.5 157L158.5 133L155.5 133L155.5 157L158.5 157Z" fill="#0166FF"/>
<path d="M203.444 214.672C201.092 214.672 198.712 214.448 196.304 214C193.952 213.496 191.74 212.712 189.668 211.648C187.652 210.584 185.916 209.156 184.46 207.364C183.06 205.572 182.164 203.36 181.772 200.728H189.332C190.004 202.632 191.124 204.116 192.692 205.18C194.26 206.244 195.996 207 197.9 207.448C199.86 207.84 201.736 208.036 203.528 208.036C204.816 208.036 206.216 207.924 207.728 207.7C209.24 207.476 210.696 207 212.096 206.272C213.552 205.544 214.728 204.48 215.624 203.08C216.52 201.624 216.968 199.72 216.968 197.368C216.968 195.128 216.548 193.336 215.708 191.992C214.868 190.592 213.748 189.556 212.348 188.884C210.948 188.156 209.38 187.68 207.644 187.456C205.964 187.232 204.256 187.12 202.52 187.12H196.808V180.568H200.252C202.212 180.568 204.06 180.4 205.796 180.064C207.532 179.672 209.072 179.084 210.416 178.3C211.76 177.516 212.796 176.48 213.524 175.192C214.308 173.904 214.7 172.308 214.7 170.404C214.7 167.66 214.112 165.588 212.936 164.188C211.816 162.788 210.36 161.836 208.568 161.332C206.776 160.828 204.9 160.576 202.94 160.576C201.372 160.576 199.748 160.828 198.068 161.332C196.444 161.78 194.988 162.536 193.7 163.6C192.412 164.608 191.544 165.98 191.096 167.716H183.788C184.124 165.252 184.908 163.152 186.14 161.416C187.372 159.68 188.884 158.252 190.676 157.132C192.524 156.012 194.54 155.2 196.724 154.696C198.964 154.192 201.232 153.94 203.528 153.94C206.048 153.94 208.4 154.22 210.584 154.78C212.824 155.284 214.784 156.152 216.464 157.384C218.144 158.56 219.46 160.128 220.412 162.088C221.42 164.048 221.924 166.428 221.924 169.228C221.924 171.3 221.588 173.204 220.916 174.94C220.244 176.676 219.236 178.188 217.892 179.476C216.604 180.764 214.98 181.828 213.02 182.668C215.54 183.116 217.64 184.012 219.32 185.356C221.056 186.7 222.344 188.352 223.184 190.312C224.08 192.216 224.528 194.372 224.528 196.78C224.528 200.532 223.856 203.584 222.512 205.936C221.168 208.288 219.432 210.108 217.304 211.396C215.176 212.628 212.88 213.496 210.416 214C207.952 214.448 205.628 214.672 203.444 214.672ZM257.257 214.672C253.113 214.672 249.557 213.916 246.589 212.404C243.677 210.836 241.297 208.68 239.449 205.936C237.601 203.136 236.229 199.916 235.333 196.276C234.493 192.58 234.073 188.604 234.073 184.348C234.073 180.092 234.493 176.144 235.333 172.504C236.173 168.808 237.517 165.588 239.365 162.844C241.213 160.044 243.593 157.86 246.505 156.292C249.473 154.724 253.057 153.94 257.257 153.94C261.681 153.94 265.377 154.808 268.345 156.544C271.369 158.224 273.749 160.52 275.485 163.432C277.277 166.344 278.537 169.62 279.265 173.26C280.049 176.844 280.441 180.54 280.441 184.348C280.441 188.156 280.049 191.88 279.265 195.52C278.537 199.104 277.277 202.352 275.485 205.264C273.749 208.12 271.369 210.416 268.345 212.152C265.377 213.832 261.681 214.672 257.257 214.672ZM257.257 208.036C260.561 208.036 263.221 207.336 265.237 205.936C267.309 204.48 268.905 202.576 270.025 200.224C271.145 197.872 271.901 195.324 272.293 192.58C272.685 189.78 272.881 187.036 272.881 184.348C272.881 181.716 272.685 179.028 272.293 176.284C271.901 173.484 271.145 170.908 270.025 168.556C268.905 166.148 267.309 164.216 265.237 162.76C263.221 161.304 260.561 160.576 257.257 160.576C253.897 160.576 251.181 161.304 249.109 162.76C247.037 164.216 245.441 166.148 244.321 168.556C243.257 170.908 242.529 173.484 242.137 176.284C241.745 179.028 241.549 181.716 241.549 184.348C241.549 187.036 241.745 189.78 242.137 192.58C242.529 195.324 243.257 197.872 244.321 200.224C245.441 202.576 247.037 204.48 249.109 205.936C251.181 207.336 253.897 208.036 257.257 208.036ZM296.824 214L333.364 154.612H340.756L304.3 214H296.824ZM335.632 214.504C332.944 214.504 330.676 213.916 328.828 212.74C327.036 211.564 325.664 209.996 324.712 208.036C323.76 206.02 323.284 203.78 323.284 201.316C323.284 198.74 323.76 196.472 324.712 194.512C325.664 192.552 327.064 191.012 328.912 189.892C330.76 188.772 333 188.212 335.632 188.212C338.208 188.212 340.392 188.772 342.184 189.892C343.976 191.012 345.348 192.552 346.3 194.512C347.252 196.472 347.728 198.74 347.728 201.316C347.728 203.78 347.252 206.02 346.3 208.036C345.348 209.996 343.976 211.564 342.184 212.74C340.392 213.916 338.208 214.504 335.632 214.504ZM335.548 208.54C337.004 208.54 338.152 208.204 338.992 207.532C339.888 206.86 340.504 205.964 340.84 204.844C341.232 203.724 341.428 202.548 341.428 201.316C341.428 200.084 341.232 198.936 340.84 197.872C340.504 196.752 339.888 195.856 338.992 195.184C338.152 194.512 337.004 194.176 335.548 194.176C333.308 194.176 331.712 194.904 330.76 196.36C329.864 197.816 329.416 199.468 329.416 201.316C329.416 203.276 329.892 204.984 330.844 206.44C331.796 207.84 333.364 208.54 335.548 208.54ZM302.368 180.232C299.68 180.232 297.412 179.644 295.564 178.468C293.772 177.292 292.4 175.724 291.448 173.764C290.552 171.748 290.104 169.508 290.104 167.044C290.104 164.468 290.552 162.2 291.448 160.24C292.4 158.28 293.8 156.74 295.648 155.62C297.496 154.5 299.736 153.94 302.368 153.94C305 153.94 307.212 154.5 309.004 155.62C310.796 156.74 312.14 158.28 313.036 160.24C313.988 162.2 314.464 164.468 314.464 167.044C314.464 169.508 313.988 171.748 313.036 173.764C312.14 175.724 310.796 177.292 309.004 178.468C307.212 179.644 305 180.232 302.368 180.232ZM302.368 174.268C303.824 174.268 304.972 173.932 305.812 173.26C306.652 172.588 307.268 171.692 307.66 170.572C308.052 169.452 308.248 168.276 308.248 167.044C308.248 165.812 308.052 164.664 307.66 163.6C307.268 162.48 306.652 161.584 305.812 160.912C304.972 160.24 303.824 159.904 302.368 159.904C300.128 159.904 298.532 160.632 297.58 162.088C296.628 163.544 296.152 165.196 296.152 167.044C296.152 169.004 296.628 170.712 297.58 172.168C298.532 173.568 300.128 174.268 302.368 174.268Z" fill="#0166FF"/>
<defs>
<linearGradient id="paint0_linear_5368_5924" x1="234.599" y1="33.4524" x2="234.599" y2="194.747" gradientUnits="userSpaceOnUse">
<stop stop-color="#DDEBFF"/>
<stop offset="1" stop-color="#DDEBFF" stop-opacity="0.15"/>
</linearGradient>
</defs>
</svg>
