<svg width="111" height="115" viewBox="0 0 111 115" fill="none" xmlns="http://www.w3.org/2000/svg">
<path d="M26.3161 54.3825C18.2486 54.3825 14.2902 61.7362 10.6889 58.8358C8.60835 57.1601 7.95297 54.7067 7.05556 52.5383C5.45052 48.6601 4.23663 45.0644 1 43.9844V114.367H110V97.1931C110 97.1931 109.387 94.2901 106.569 92.0406C104.23 90.1746 100.122 89.1327 95.8704 87.1744C91.6724 85.2407 87.5465 75.7798 83.5574 73.1482C75.6748 67.9482 73.4273 65.7811 64.4075 64.9398C60.3444 64.5607 56.5007 66.9146 53.2796 69.7132C48.7821 73.6209 44.7485 77.6553 39.7556 73.7207C30.5913 66.499 34.3837 54.3825 26.3161 54.3825Z" fill="url(#paint0_linear_5313_34728)"/>
<path d="M1.3125 43.9844C9.13424 49.5143 7.27356 63.2226 16.2611 58.3101C16.2611 58.3101 22.3043 52.9469 27.1611 54.2615C34.4464 56.2335 30.2676 67.5958 39.285 73.6037C48.3025 79.6117 53.8935 64.6181 63.9096 65.1615C73.0723 65.6586 76.4624 67.4607 84.2137 73.6037C88.1814 76.7482 91.9434 84.9276 96.1353 87.4661C103.006 91.6267 106.201 88.6606 110.001 97.5501" stroke="#0166FF" stroke-opacity="0.5" stroke-width="0.722744" stroke-linecap="round"/>
<path d="M52.312 31.256C51.416 31.256 50.5093 31.1707 49.592 31C48.696 30.808 47.8533 30.5093 47.064 30.104C46.296 29.6987 45.6347 29.1547 45.08 28.472C44.5467 27.7893 44.2053 26.9467 44.056 25.944H46.936C47.192 26.6693 47.6187 27.2347 48.216 27.64C48.8133 28.0453 49.4747 28.3333 50.2 28.504C50.9467 28.6533 51.6613 28.728 52.344 28.728C52.8347 28.728 53.368 28.6853 53.944 28.6C54.52 28.5147 55.0747 28.3333 55.608 28.056C56.1627 27.7787 56.6107 27.3733 56.952 26.84C57.2933 26.2853 57.464 25.56 57.464 24.664C57.464 23.8107 57.304 23.128 56.984 22.616C56.664 22.0827 56.2373 21.688 55.704 21.432C55.1707 21.1547 54.5733 20.9733 53.912 20.888C53.272 20.8027 52.6213 20.76 51.96 20.76H49.784V18.264H51.096C51.8427 18.264 52.5467 18.2 53.208 18.072C53.8693 17.9227 54.456 17.6987 54.968 17.4C55.48 17.1013 55.8747 16.7067 56.152 16.216C56.4507 15.7253 56.6 15.1173 56.6 14.392C56.6 13.3467 56.376 12.5573 55.928 12.024C55.5013 11.4907 54.9467 11.128 54.264 10.936C53.5813 10.744 52.8667 10.648 52.12 10.648C51.5227 10.648 50.904 10.744 50.264 10.936C49.6453 11.1067 49.0907 11.3947 48.6 11.8C48.1093 12.184 47.7787 12.7067 47.608 13.368H44.824C44.952 12.4293 45.2507 11.6293 45.72 10.968C46.1893 10.3067 46.7653 9.76267 47.448 9.336C48.152 8.90933 48.92 8.6 49.752 8.408C50.6053 8.216 51.4693 8.12 52.344 8.12C53.304 8.12 54.2 8.22667 55.032 8.44C55.8853 8.632 56.632 8.96267 57.272 9.432C57.912 9.88 58.4133 10.4773 58.776 11.224C59.16 11.9707 59.352 12.8773 59.352 13.944C59.352 14.7333 59.224 15.4587 58.968 16.12C58.712 16.7813 58.328 17.3573 57.816 17.848C57.3253 18.3387 56.7067 18.744 55.96 19.064C56.92 19.2347 57.72 19.576 58.36 20.088C59.0213 20.6 59.512 21.2293 59.832 21.976C60.1733 22.7013 60.344 23.5227 60.344 24.44C60.344 25.8693 60.088 27.032 59.576 27.928C59.064 28.824 58.4027 29.5173 57.592 30.008C56.7813 30.4773 55.9067 30.808 54.968 31C54.0293 31.1707 53.144 31.256 52.312 31.256ZM72.8123 31.256C71.2336 31.256 69.8789 30.968 68.7483 30.392C67.6389 29.7947 66.7323 28.9733 66.0283 27.928C65.3243 26.8613 64.8016 25.6347 64.4603 24.248C64.1403 22.84 63.9803 21.3253 63.9803 19.704C63.9803 18.0827 64.1403 16.5787 64.4603 15.192C64.7803 13.784 65.2923 12.5573 65.9963 11.512C66.7003 10.4453 67.6069 9.61333 68.7163 9.016C69.8469 8.41867 71.2123 8.12 72.8123 8.12C74.4976 8.12 75.9056 8.45067 77.0363 9.112C78.1883 9.752 79.0949 10.6267 79.7563 11.736C80.4389 12.8453 80.9189 14.0933 81.1963 15.48C81.4949 16.8453 81.6443 18.2533 81.6443 19.704C81.6443 21.1547 81.4949 22.5733 81.1963 23.96C80.9189 25.3253 80.4389 26.5627 79.7563 27.672C79.0949 28.76 78.1883 29.6347 77.0363 30.296C75.9056 30.936 74.4976 31.256 72.8123 31.256ZM72.8123 28.728C74.0709 28.728 75.0843 28.4613 75.8523 27.928C76.6416 27.3733 77.2496 26.648 77.6763 25.752C78.1029 24.856 78.3909 23.8853 78.5403 22.84C78.6896 21.7733 78.7643 20.728 78.7643 19.704C78.7643 18.7013 78.6896 17.6773 78.5403 16.632C78.3909 15.5653 78.1029 14.584 77.6763 13.688C77.2496 12.7707 76.6416 12.0347 75.8523 11.48C75.0843 10.9253 74.0709 10.648 72.8123 10.648C71.5323 10.648 70.4976 10.9253 69.7083 11.48C68.9189 12.0347 68.3109 12.7707 67.8843 13.688C67.4789 14.584 67.2016 15.5653 67.0523 16.632C66.9029 17.6773 66.8283 18.7013 66.8283 19.704C66.8283 20.728 66.9029 21.7733 67.0523 22.84C67.2016 23.8853 67.4789 24.856 67.8843 25.752C68.3109 26.648 68.9189 27.3733 69.7083 27.928C70.4976 28.4613 71.5323 28.728 72.8123 28.728ZM87.8855 31L101.806 8.376H104.622L90.7335 31H87.8855ZM102.67 31.192C101.646 31.192 100.782 30.968 100.078 30.52C99.3948 30.072 98.8722 29.4747 98.5095 28.728C98.1468 27.96 97.9655 27.1067 97.9655 26.168C97.9655 25.1867 98.1468 24.3227 98.5095 23.576C98.8722 22.8293 99.4055 22.2427 100.11 21.816C100.814 21.3893 101.667 21.176 102.67 21.176C103.651 21.176 104.483 21.3893 105.166 21.816C105.848 22.2427 106.371 22.8293 106.734 23.576C107.096 24.3227 107.278 25.1867 107.278 26.168C107.278 27.1067 107.096 27.96 106.734 28.728C106.371 29.4747 105.848 30.072 105.166 30.52C104.483 30.968 103.651 31.192 102.67 31.192ZM102.638 28.92C103.192 28.92 103.63 28.792 103.95 28.536C104.291 28.28 104.526 27.9387 104.654 27.512C104.803 27.0853 104.878 26.6373 104.878 26.168C104.878 25.6987 104.803 25.2613 104.654 24.856C104.526 24.4293 104.291 24.088 103.95 23.832C103.63 23.576 103.192 23.448 102.638 23.448C101.784 23.448 101.176 23.7253 100.814 24.28C100.472 24.8347 100.302 25.464 100.302 26.168C100.302 26.9147 100.483 27.5653 100.846 28.12C101.208 28.6533 101.806 28.92 102.638 28.92ZM89.9975 18.136C88.9735 18.136 88.1095 17.912 87.4055 17.464C86.7228 17.016 86.2002 16.4187 85.8375 15.672C85.4962 14.904 85.3255 14.0507 85.3255 13.112C85.3255 12.1307 85.4962 11.2667 85.8375 10.52C86.2002 9.77333 86.7335 9.18667 87.4375 8.76C88.1415 8.33333 88.9948 8.12 89.9975 8.12C91.0002 8.12 91.8428 8.33333 92.5255 8.76C93.2082 9.18667 93.7202 9.77333 94.0615 10.52C94.4242 11.2667 94.6055 12.1307 94.6055 13.112C94.6055 14.0507 94.4242 14.904 94.0615 15.672C93.7202 16.4187 93.2082 17.016 92.5255 17.464C91.8428 17.912 91.0002 18.136 89.9975 18.136ZM89.9975 15.864C90.5522 15.864 90.9895 15.736 91.3095 15.48C91.6295 15.224 91.8642 14.8827 92.0135 14.456C92.1628 14.0293 92.2375 13.5813 92.2375 13.112C92.2375 12.6427 92.1628 12.2053 92.0135 11.8C91.8642 11.3733 91.6295 11.032 91.3095 10.776C90.9895 10.52 90.5522 10.392 89.9975 10.392C89.1442 10.392 88.5362 10.6693 88.1735 11.224C87.8108 11.7787 87.6295 12.408 87.6295 13.112C87.6295 13.8587 87.8108 14.5093 88.1735 15.064C88.5362 15.5973 89.1442 15.864 89.9975 15.864Z" fill="#0166FF"/>
<path d="M34.4697 11.5303C34.7626 11.8232 35.2374 11.8232 35.5303 11.5303L40.3033 6.75736C40.5962 6.46447 40.5962 5.98959 40.3033 5.6967C40.0104 5.40381 39.5355 5.40381 39.2426 5.6967L35 9.93934L30.7574 5.6967C30.4645 5.40381 29.9896 5.40381 29.6967 5.6967C29.4038 5.98959 29.4038 6.46447 29.6967 6.75736L34.4697 11.5303ZM35.75 1V0.25H34.25V1H35.75ZM35.75 11V1H34.25V11H35.75Z" fill="#0166FF"/>
<defs>
<linearGradient id="paint0_linear_5313_34728" x1="55.7575" y1="54.0481" x2="55.7575" y2="105.65" gradientUnits="userSpaceOnUse">
<stop stop-color="#DDEBFF"/>
<stop offset="1" stop-color="#DDEBFF" stop-opacity="0.15"/>
</linearGradient>
</defs>
</svg>
