<svg width="175" height="128" viewBox="0 0 175 128" fill="none" xmlns="http://www.w3.org/2000/svg">
<path d="M174.599 69.5291C171.934 57.2825 166.692 45.7434 159.223 35.6791C151.753 25.6147 142.227 17.2556 131.277 11.1575C120.327 5.05937 108.204 1.36195 95.7142 0.311005C83.2246 -0.739929 70.6544 0.8797 58.8392 5.06222C47.024 9.24474 36.2345 15.8943 27.188 24.5689C18.1414 33.2435 11.0452 43.7444 6.3709 55.3735C1.69662 67.0025 -0.448559 79.4933 0.0779583 92.0155C0.604476 104.538 3.79063 116.804 9.42461 128L18.7885 123.288C13.8232 113.421 11.0153 102.611 10.5513 91.5752C10.0873 80.5394 11.9778 69.5313 16.0972 59.2827C20.2167 49.034 26.4706 39.7796 34.4433 32.1347C42.4159 24.4898 51.9247 18.6296 62.3374 14.9435C72.7501 11.2575 83.8282 9.83008 94.8352 10.7563C105.842 11.6825 116.526 14.941 126.176 20.3152C135.827 25.6895 144.222 33.0564 150.805 41.926C157.388 50.7957 162.007 60.965 164.356 71.758L174.599 69.5291Z" fill="url(#paint0_linear_5313_32648)"/>
<path d="M37.7071 52.2929C37.3166 51.9024 36.6834 51.9024 36.2929 52.2929L29.9289 58.6569C29.5384 59.0474 29.5384 59.6805 29.9289 60.0711C30.3195 60.4616 30.9526 60.4616 31.3431 60.0711L37 54.4142L42.6569 60.0711C43.0474 60.4616 43.6805 60.4616 44.0711 60.0711C44.4616 59.6805 44.4616 59.0474 44.0711 58.6569L37.7071 52.2929ZM36 67V68H38V67H36ZM36 53V67H38V53H36Z" fill="#0166FF"/>
<path d="M59.924 98.416C58.156 98.416 56.4573 98.1213 54.828 97.532C53.2333 96.9427 51.8467 96.0587 50.668 94.88C49.4893 93.6667 48.6747 92.176 48.224 90.408H53.216C53.84 91.7253 54.8453 92.7133 56.232 93.372C57.6533 93.996 59.0573 94.308 60.444 94.308C62.316 94.308 63.8587 93.9267 65.072 93.164C66.32 92.3667 67.2907 91.292 67.984 89.94C68.712 88.588 69.232 87.08 69.544 85.416C69.856 83.7173 70.012 81.9667 70.012 80.164C70.012 79.9907 70.012 79.8 70.012 79.592C70.012 79.384 70.012 79.1933 70.012 79.02C69.3533 80.372 68.4693 81.464 67.36 82.296C66.2507 83.0933 65.02 83.6827 63.668 84.064C62.316 84.4107 60.9467 84.584 59.56 84.584C57.4107 84.584 55.4347 84.1507 53.632 83.284C51.864 82.3827 50.4427 81.0827 49.368 79.384C48.328 77.6507 47.808 75.5533 47.808 73.092C47.808 70.6307 48.3453 68.4813 49.42 66.644C50.4947 64.8067 51.9853 63.3853 53.892 62.38C55.8333 61.34 58.0693 60.82 60.6 60.82C63.304 60.82 65.54 61.392 67.308 62.536C69.1107 63.68 70.5147 65.2053 71.52 67.112C72.56 69.0187 73.288 71.116 73.704 73.404C74.12 75.6573 74.328 77.9107 74.328 80.164C74.328 82.764 74.068 85.1733 73.548 87.392C73.028 89.576 72.196 91.5 71.052 93.164C69.908 94.828 68.4173 96.128 66.58 97.064C64.7427 97.9653 62.524 98.416 59.924 98.416ZM60.236 80.424C61.7267 80.424 63.0787 80.112 64.292 79.488C65.54 78.864 66.528 77.9973 67.256 76.888C68.0187 75.7787 68.4 74.4787 68.4 72.988C68.4 71.3933 68.0533 70.0067 67.36 68.828C66.6667 67.6147 65.7133 66.6613 64.5 65.968C63.3213 65.2747 61.9693 64.928 60.444 64.928C58.884 64.928 57.4973 65.2747 56.284 65.968C55.1053 66.6613 54.1693 67.5973 53.476 68.776C52.7827 69.9547 52.436 71.2547 52.436 72.676C52.436 75.1027 53.1293 77.0093 54.516 78.396C55.9373 79.748 57.844 80.424 60.236 80.424ZM93.4181 98.416C91.7541 98.416 90.1248 98.2427 88.5301 97.896C86.9701 97.5147 85.5661 96.908 84.3181 96.076C83.0701 95.244 82.0648 94.152 81.3021 92.8C80.5741 91.4133 80.2101 89.732 80.2101 87.756C80.2101 86.3693 80.4528 85.104 80.9381 83.96C81.4234 82.816 82.1168 81.828 83.0181 80.996C83.9541 80.164 85.0461 79.5053 86.2941 79.02C84.9074 78.3613 83.8501 77.5467 83.1221 76.576C82.3941 75.5707 81.9088 74.5307 81.6661 73.456C81.4234 72.3813 81.3021 71.4107 81.3021 70.544C81.3021 68.8107 81.6314 67.3373 82.2901 66.124C82.9834 64.9107 83.9021 63.9053 85.0461 63.108C86.2248 62.3107 87.5248 61.7387 88.9461 61.392C90.4021 61.0107 91.8928 60.82 93.4181 60.82C94.9434 60.82 96.4168 61.0107 97.8381 61.392C99.2941 61.7387 100.594 62.3107 101.738 63.108C102.917 63.9053 103.835 64.9107 104.494 66.124C105.187 67.3373 105.534 68.8107 105.534 70.544C105.534 71.4453 105.395 72.416 105.118 73.456C104.875 74.496 104.39 75.5013 103.662 76.472C102.934 77.408 101.877 78.2053 100.49 78.864C101.807 79.3493 102.917 80.0253 103.818 80.892C104.754 81.7587 105.447 82.7813 105.898 83.96C106.383 85.104 106.626 86.3693 106.626 87.756C106.626 89.732 106.245 91.4133 105.482 92.8C104.754 94.152 103.749 95.244 102.466 96.076C101.218 96.908 99.8141 97.5147 98.2541 97.896C96.6941 98.2427 95.0821 98.416 93.4181 98.416ZM93.4181 94.308C94.2501 94.308 95.1514 94.2213 96.1221 94.048C97.0928 93.8747 98.0114 93.5627 98.8781 93.112C99.7794 92.6267 100.507 91.968 101.062 91.136C101.651 90.2693 101.946 89.16 101.946 87.808C101.946 86.2133 101.53 84.948 100.698 84.012C99.9008 83.076 98.8434 82.4 97.5261 81.984C96.2434 81.568 94.8741 81.36 93.4181 81.36C91.9968 81.36 90.6274 81.568 89.3101 81.984C87.9928 82.4 86.9181 83.076 86.0861 84.012C85.2541 84.948 84.8381 86.2133 84.8381 87.808C84.8381 89.16 85.1154 90.2693 85.6701 91.136C86.2594 91.968 87.0048 92.6267 87.9061 93.112C88.8074 93.5627 89.7434 93.8747 90.7141 94.048C91.6848 94.2213 92.5861 94.308 93.4181 94.308ZM93.4181 77.356C94.7354 77.356 95.9488 77.148 97.0581 76.732C98.1674 76.2813 99.0688 75.6227 99.7621 74.756C100.49 73.8547 100.854 72.728 100.854 71.376C100.889 69.7813 100.559 68.516 99.8661 67.58C99.1728 66.644 98.2541 65.968 97.1101 65.552C96.0008 65.136 94.7701 64.928 93.4181 64.928C92.0314 64.928 90.7661 65.1533 89.6221 65.604C88.5128 66.02 87.6288 66.696 86.9701 67.632C86.3114 68.5333 85.9821 69.712 85.9821 71.168C85.9821 72.624 86.3288 73.82 87.0221 74.756C87.7501 75.6573 88.6688 76.316 89.7781 76.732C90.9221 77.148 92.1354 77.356 93.4181 77.356ZM116.822 98L139.442 61.236H144.018L121.45 98H116.822ZM140.846 98.312C139.182 98.312 137.778 97.948 136.634 97.22C135.524 96.492 134.675 95.5213 134.086 94.308C133.496 93.06 133.202 91.6733 133.202 90.148C133.202 88.5533 133.496 87.1493 134.086 85.936C134.675 84.7227 135.542 83.7693 136.686 83.076C137.83 82.3827 139.216 82.036 140.846 82.036C142.44 82.036 143.792 82.3827 144.902 83.076C146.011 83.7693 146.86 84.7227 147.45 85.936C148.039 87.1493 148.334 88.5533 148.334 90.148C148.334 91.6733 148.039 93.06 147.45 94.308C146.86 95.5213 146.011 96.492 144.902 97.22C143.792 97.948 142.44 98.312 140.846 98.312ZM140.794 94.62C141.695 94.62 142.406 94.412 142.926 93.996C143.48 93.58 143.862 93.0253 144.07 92.332C144.312 91.6387 144.434 90.9107 144.434 90.148C144.434 89.3853 144.312 88.6747 144.07 88.016C143.862 87.3227 143.48 86.768 142.926 86.352C142.406 85.936 141.695 85.728 140.794 85.728C139.407 85.728 138.419 86.1787 137.83 87.08C137.275 87.9813 136.998 89.004 136.998 90.148C136.998 91.3613 137.292 92.4187 137.882 93.32C138.471 94.1867 139.442 94.62 140.794 94.62ZM120.254 77.096C118.59 77.096 117.186 76.732 116.042 76.004C114.932 75.276 114.083 74.3053 113.494 73.092C112.939 71.844 112.662 70.4573 112.662 68.932C112.662 67.3373 112.939 65.9333 113.494 64.72C114.083 63.5067 114.95 62.5533 116.094 61.86C117.238 61.1667 118.624 60.82 120.254 60.82C121.883 60.82 123.252 61.1667 124.362 61.86C125.471 62.5533 126.303 63.5067 126.858 64.72C127.447 65.9333 127.742 67.3373 127.742 68.932C127.742 70.4573 127.447 71.844 126.858 73.092C126.303 74.3053 125.471 75.276 124.362 76.004C123.252 76.732 121.883 77.096 120.254 77.096ZM120.254 73.404C121.155 73.404 121.866 73.196 122.386 72.78C122.906 72.364 123.287 71.8093 123.53 71.116C123.772 70.4227 123.894 69.6947 123.894 68.932C123.894 68.1693 123.772 67.4587 123.53 66.8C123.287 66.1067 122.906 65.552 122.386 65.136C121.866 64.72 121.155 64.512 120.254 64.512C118.867 64.512 117.879 64.9627 117.29 65.864C116.7 66.7653 116.406 67.788 116.406 68.932C116.406 70.1453 116.7 71.2027 117.29 72.104C117.879 72.9707 118.867 73.404 120.254 73.404Z" fill="#0166FF"/>
<defs>
<linearGradient id="paint0_linear_5313_32648" x1="201.733" y1="89.659" x2="24.3284" y2="170.044" gradientUnits="userSpaceOnUse">
<stop stop-color="#0166FF"/>
<stop offset="0.556949" stop-color="#BAD6FF"/>
</linearGradient>
</defs>
</svg>
