<svg width="223" height="163" viewBox="0 0 223 163" fill="none" xmlns="http://www.w3.org/2000/svg">
<path d="M223 88.541C219.596 72.9456 212.902 58.2514 203.361 45.4351C193.821 32.6187 181.654 21.9739 167.668 14.2084C153.683 6.44279 138.199 1.73436 122.247 0.396057C106.295 -0.942261 90.2406 1.12024 75.1501 6.44643C60.0596 11.7726 46.2791 20.2404 34.7248 31.287C23.1705 42.3336 14.107 55.7058 8.13699 70.5147C2.16695 85.3235 -0.572905 101.23 0.0995693 117.176C0.772044 133.122 4.84144 148.743 12.0372 163L23.9968 157C17.6552 144.435 14.0689 130.669 13.4762 116.615C12.8836 102.562 15.2982 88.5438 20.5596 75.4928C25.821 62.4417 33.8085 50.6569 43.9913 40.9215C54.1741 31.1862 66.3188 23.7236 79.618 19.0296C92.9173 14.3357 107.066 12.518 121.125 13.6974C135.183 14.8769 148.828 19.0264 161.154 25.8702C173.479 32.714 184.202 42.0952 192.61 53.3902C201.018 64.6852 206.918 77.6352 209.918 91.3793L223 88.541Z" fill="url(#paint0_linear_5313_19812)"/>
<path d="M84.368 130.512C82.192 130.512 80.1013 130.149 78.096 129.424C76.1333 128.699 74.4267 127.611 72.976 126.16C71.5253 124.667 70.5227 122.832 69.968 120.656H76.112C76.88 122.277 78.1173 123.493 79.824 124.304C81.5733 125.072 83.3013 125.456 85.008 125.456C87.312 125.456 89.2107 124.987 90.704 124.048C92.24 123.067 93.4347 121.744 94.288 120.08C95.184 118.416 95.824 116.56 96.208 114.512C96.592 112.421 96.784 110.267 96.784 108.048C96.784 107.835 96.784 107.6 96.784 107.344C96.784 107.088 96.784 106.853 96.784 106.64C95.9733 108.304 94.8853 109.648 93.52 110.672C92.1547 111.653 90.64 112.379 88.976 112.848C87.312 113.275 85.6267 113.488 83.92 113.488C81.2747 113.488 78.8427 112.955 76.624 111.888C74.448 110.779 72.6987 109.179 71.376 107.088C70.096 104.955 69.456 102.373 69.456 99.344C69.456 96.3147 70.1173 93.6693 71.44 91.408C72.7627 89.1467 74.5973 87.3973 76.944 86.16C79.3333 84.88 82.0853 84.24 85.2 84.24C88.528 84.24 91.28 84.944 93.456 86.352C95.6747 87.76 97.4027 89.6373 98.64 91.984C99.92 94.3307 100.816 96.912 101.328 99.728C101.84 102.501 102.096 105.275 102.096 108.048C102.096 111.248 101.776 114.213 101.136 116.944C100.496 119.632 99.472 122 98.064 124.048C96.656 126.096 94.8213 127.696 92.56 128.848C90.2987 129.957 87.568 130.512 84.368 130.512ZM84.752 108.368C86.5867 108.368 88.2507 107.984 89.744 107.216C91.28 106.448 92.496 105.381 93.392 104.016C94.3307 102.651 94.8 101.051 94.8 99.216C94.8 97.2533 94.3733 95.5467 93.52 94.096C92.6667 92.6027 91.4933 91.4293 90 90.576C88.5493 89.7227 86.8853 89.296 85.008 89.296C83.088 89.296 81.3813 89.7227 79.888 90.576C78.4373 91.4293 77.2853 92.5813 76.432 94.032C75.5787 95.4827 75.152 97.0827 75.152 98.832C75.152 101.819 76.0053 104.165 77.712 105.872C79.4613 107.536 81.808 108.368 84.752 108.368ZM125.592 130.512C123.544 130.512 121.538 130.299 119.576 129.872C117.656 129.403 115.928 128.656 114.392 127.632C112.856 126.608 111.618 125.264 110.68 123.6C109.784 121.893 109.336 119.824 109.336 117.392C109.336 115.685 109.634 114.128 110.232 112.72C110.829 111.312 111.682 110.096 112.792 109.072C113.944 108.048 115.288 107.237 116.824 106.64C115.117 105.829 113.816 104.827 112.92 103.632C112.024 102.395 111.426 101.115 111.128 99.792C110.829 98.4693 110.68 97.2747 110.68 96.208C110.68 94.0747 111.085 92.2613 111.896 90.768C112.749 89.2747 113.88 88.0373 115.288 87.056C116.738 86.0747 118.338 85.3707 120.088 84.944C121.88 84.4747 123.714 84.24 125.592 84.24C127.469 84.24 129.282 84.4747 131.032 84.944C132.824 85.3707 134.424 86.0747 135.832 87.056C137.282 88.0373 138.413 89.2747 139.224 90.768C140.077 92.2613 140.504 94.0747 140.504 96.208C140.504 97.3173 140.333 98.512 139.992 99.792C139.693 101.072 139.096 102.309 138.2 103.504C137.304 104.656 136.002 105.637 134.296 106.448C135.917 107.045 137.282 107.877 138.392 108.944C139.544 110.011 140.397 111.269 140.951 112.72C141.549 114.128 141.847 115.685 141.847 117.392C141.847 119.824 141.378 121.893 140.44 123.6C139.544 125.264 138.306 126.608 136.728 127.632C135.192 128.656 133.464 129.403 131.544 129.872C129.624 130.299 127.64 130.512 125.592 130.512ZM125.592 125.456C126.616 125.456 127.725 125.349 128.92 125.136C130.114 124.923 131.245 124.539 132.312 123.984C133.421 123.387 134.317 122.576 135 121.552C135.725 120.485 136.088 119.12 136.088 117.456C136.088 115.493 135.576 113.936 134.552 112.784C133.57 111.632 132.269 110.8 130.648 110.288C129.069 109.776 127.384 109.52 125.592 109.52C123.842 109.52 122.157 109.776 120.536 110.288C118.914 110.8 117.592 111.632 116.568 112.784C115.544 113.936 115.032 115.493 115.032 117.456C115.032 119.12 115.373 120.485 116.056 121.552C116.781 122.576 117.698 123.387 118.808 123.984C119.917 124.539 121.069 124.923 122.264 125.136C123.458 125.349 124.568 125.456 125.592 125.456ZM125.592 104.592C127.213 104.592 128.706 104.336 130.072 103.824C131.437 103.269 132.546 102.459 133.4 101.392C134.296 100.283 134.744 98.896 134.744 97.232C134.786 95.2693 134.381 93.712 133.528 92.56C132.674 91.408 131.544 90.576 130.136 90.064C128.77 89.552 127.256 89.296 125.592 89.296C123.885 89.296 122.328 89.5733 120.92 90.128C119.554 90.64 118.466 91.472 117.656 92.624C116.845 93.7333 116.44 95.184 116.44 96.976C116.44 98.768 116.866 100.24 117.72 101.392C118.616 102.501 119.746 103.312 121.112 103.824C122.52 104.336 124.013 104.592 125.592 104.592ZM154.396 130L182.236 84.752H187.868L160.092 130H154.396ZM183.964 130.384C181.916 130.384 180.188 129.936 178.78 129.04C177.415 128.144 176.369 126.949 175.644 125.456C174.919 123.92 174.556 122.213 174.556 120.336C174.556 118.373 174.919 116.645 175.644 115.152C176.369 113.659 177.436 112.485 178.844 111.632C180.252 110.779 181.959 110.352 183.964 110.352C185.927 110.352 187.591 110.779 188.956 111.632C190.321 112.485 191.367 113.659 192.092 115.152C192.817 116.645 193.18 118.373 193.18 120.336C193.18 122.213 192.817 123.92 192.092 125.456C191.367 126.949 190.321 128.144 188.956 129.04C187.591 129.936 185.927 130.384 183.964 130.384ZM183.9 125.84C185.009 125.84 185.884 125.584 186.524 125.072C187.207 124.56 187.676 123.877 187.932 123.024C188.231 122.171 188.38 121.275 188.38 120.336C188.38 119.397 188.231 118.523 187.932 117.712C187.676 116.859 187.207 116.176 186.524 115.664C185.884 115.152 185.009 114.896 183.9 114.896C182.193 114.896 180.977 115.451 180.252 116.56C179.569 117.669 179.228 118.928 179.228 120.336C179.228 121.829 179.591 123.131 180.316 124.24C181.041 125.307 182.236 125.84 183.9 125.84ZM158.62 104.272C156.572 104.272 154.844 103.824 153.436 102.928C152.071 102.032 151.025 100.837 150.3 99.344C149.617 97.808 149.276 96.1013 149.276 94.224C149.276 92.2613 149.617 90.5333 150.3 89.04C151.025 87.5467 152.092 86.3733 153.5 85.52C154.908 84.6667 156.615 84.24 158.62 84.24C160.625 84.24 162.311 84.6667 163.676 85.52C165.041 86.3733 166.065 87.5467 166.748 89.04C167.473 90.5333 167.836 92.2613 167.836 94.224C167.836 96.1013 167.473 97.808 166.748 99.344C166.065 100.837 165.041 102.032 163.676 102.928C162.311 103.824 160.625 104.272 158.62 104.272ZM158.62 99.728C159.729 99.728 160.604 99.472 161.244 98.96C161.884 98.448 162.353 97.7653 162.652 96.912C162.951 96.0587 163.1 95.1627 163.1 94.224C163.1 93.2853 162.951 92.4107 162.652 91.6C162.353 90.7467 161.884 90.064 161.244 89.552C160.604 89.04 159.729 88.784 158.62 88.784C156.913 88.784 155.697 89.3387 154.972 90.448C154.247 91.5573 153.884 92.816 153.884 94.224C153.884 95.7173 154.247 97.0187 154.972 98.128C155.697 99.1947 156.913 99.728 158.62 99.728Z" fill="#0166FF"/>
<path d="M49.8839 67.1161C49.3957 66.628 48.6043 66.628 48.1161 67.1161L40.1612 75.0711C39.673 75.5592 39.673 76.3507 40.1612 76.8388C40.6493 77.327 41.4408 77.327 41.9289 76.8388L49 69.7678L56.0711 76.8388C56.5592 77.327 57.3507 77.327 57.8388 76.8388C58.327 76.3507 58.327 75.5592 57.8388 75.0711L49.8839 67.1161ZM47.75 85V86.25H50.25V85H47.75ZM47.75 68V85H50.25V68H47.75Z" fill="#0166FF"/>
<defs>
<linearGradient id="paint0_linear_5313_19812" x1="257.655" y1="114.175" x2="31.3014" y2="217.044" gradientUnits="userSpaceOnUse">
<stop stop-color="#0166FF"/>
<stop offset="0.556949" stop-color="#BAD6FF"/>
</linearGradient>
</defs>
</svg>
