<svg width="296" height="217" viewBox="0 0 296 217" fill="none" xmlns="http://www.w3.org/2000/svg">
<path d="M296 117.874C291.482 97.1117 282.596 77.5494 269.932 60.4872C257.269 43.4249 241.119 29.2536 222.555 18.9154C203.991 8.57722 183.439 2.30893 162.266 0.527252C141.092 -1.25443 119.781 1.49136 99.7508 8.58205C79.7204 15.6727 61.4288 26.9458 46.0921 41.652C30.7554 56.3582 18.725 74.1605 10.8007 93.8753C2.87631 113.59 -0.760448 134.766 0.132164 155.995C1.02478 177.224 6.42631 198.02 15.9777 217L31.8523 209.012C23.4347 192.285 18.6744 173.958 17.8877 155.249C17.1011 136.539 20.3061 117.877 27.2898 100.503C34.2736 83.128 44.8759 67.4389 58.3921 54.4784C71.9082 41.5179 88.0286 31.5829 105.681 25.3339C123.334 19.0849 142.115 16.6651 160.775 18.2352C179.436 19.8054 197.548 25.3296 213.908 34.4407C230.268 43.5517 244.502 56.0408 255.662 71.0777C266.822 86.1146 274.653 103.355 278.635 121.652L296 117.874Z" fill="url(#paint0_linear_5313_14143)"/>
<path d="M112.108 166.672C109.252 166.672 106.508 166.196 103.876 165.244C101.3 164.292 99.06 162.864 97.156 160.96C95.252 159 93.936 156.592 93.208 153.736H101.272C102.28 155.864 103.904 157.46 106.144 158.524C108.44 159.532 110.708 160.036 112.948 160.036C115.972 160.036 118.464 159.42 120.424 158.188C122.44 156.9 124.008 155.164 125.128 152.98C126.304 150.796 127.144 148.36 127.648 145.672C128.152 142.928 128.404 140.1 128.404 137.188C128.404 136.908 128.404 136.6 128.404 136.264C128.404 135.928 128.404 135.62 128.404 135.34C127.34 137.524 125.912 139.288 124.12 140.632C122.328 141.92 120.34 142.872 118.156 143.488C115.972 144.048 113.76 144.328 111.52 144.328C108.048 144.328 104.856 143.628 101.944 142.228C99.088 140.772 96.792 138.672 95.056 135.928C93.376 133.128 92.536 129.74 92.536 125.764C92.536 121.788 93.404 118.316 95.14 115.348C96.876 112.38 99.284 110.084 102.364 108.46C105.5 106.78 109.112 105.94 113.2 105.94C117.568 105.94 121.18 106.864 124.036 108.712C126.948 110.56 129.216 113.024 130.84 116.104C132.52 119.184 133.696 122.572 134.368 126.268C135.04 129.908 135.376 133.548 135.376 137.188C135.376 141.388 134.956 145.28 134.116 148.864C133.276 152.392 131.932 155.5 130.084 158.188C128.236 160.876 125.828 162.976 122.86 164.488C119.892 165.944 116.308 166.672 112.108 166.672ZM112.612 137.608C115.02 137.608 117.204 137.104 119.164 136.096C121.18 135.088 122.776 133.688 123.952 131.896C125.184 130.104 125.8 128.004 125.8 125.596C125.8 123.02 125.24 120.78 124.12 118.876C123 116.916 121.46 115.376 119.5 114.256C117.596 113.136 115.412 112.576 112.948 112.576C110.428 112.576 108.188 113.136 106.228 114.256C104.324 115.376 102.812 116.888 101.692 118.792C100.572 120.696 100.012 122.796 100.012 125.092C100.012 129.012 101.132 132.092 103.372 134.332C105.668 136.516 108.748 137.608 112.612 137.608ZM166.214 166.672C163.526 166.672 160.894 166.392 158.318 165.832C155.798 165.216 153.53 164.236 151.514 162.892C149.498 161.548 147.874 159.784 146.642 157.6C145.466 155.36 144.878 152.644 144.878 149.452C144.878 147.212 145.27 145.168 146.054 143.32C146.838 141.472 147.958 139.876 149.414 138.532C150.926 137.188 152.69 136.124 154.706 135.34C152.466 134.276 150.758 132.96 149.582 131.392C148.406 129.768 147.622 128.088 147.23 126.352C146.838 124.616 146.642 123.048 146.642 121.648C146.642 118.848 147.174 116.468 148.238 114.508C149.358 112.548 150.842 110.924 152.69 109.636C154.594 108.348 156.694 107.424 158.99 106.864C161.342 106.248 163.75 105.94 166.214 105.94C168.678 105.94 171.058 106.248 173.354 106.864C175.706 107.424 177.806 108.348 179.654 109.636C181.558 110.924 183.042 112.548 184.106 114.508C185.226 116.468 185.786 118.848 185.786 121.648C185.786 123.104 185.562 124.672 185.114 126.352C184.722 128.032 183.938 129.656 182.762 131.224C181.586 132.736 179.878 134.024 177.638 135.088C179.766 135.872 181.558 136.964 183.014 138.364C184.526 139.764 185.646 141.416 186.374 143.32C187.158 145.168 187.55 147.212 187.55 149.452C187.55 152.644 186.934 155.36 185.702 157.6C184.526 159.784 182.902 161.548 180.83 162.892C178.814 164.236 176.546 165.216 174.026 165.832C171.506 166.392 168.902 166.672 166.214 166.672ZM166.214 160.036C167.558 160.036 169.014 159.896 170.582 159.616C172.15 159.336 173.634 158.832 175.034 158.104C176.49 157.32 177.666 156.256 178.562 154.912C179.514 153.512 179.99 151.72 179.99 149.536C179.99 146.96 179.318 144.916 177.974 143.404C176.686 141.892 174.978 140.8 172.85 140.128C170.778 139.456 168.566 139.12 166.214 139.12C163.918 139.12 161.706 139.456 159.578 140.128C157.45 140.8 155.714 141.892 154.37 143.404C153.026 144.916 152.354 146.96 152.354 149.536C152.354 151.72 152.802 153.512 153.698 154.912C154.65 156.256 155.854 157.32 157.31 158.104C158.766 158.832 160.278 159.336 161.846 159.616C163.414 159.896 164.87 160.036 166.214 160.036ZM166.214 132.652C168.342 132.652 170.302 132.316 172.094 131.644C173.886 130.916 175.342 129.852 176.462 128.452C177.638 126.996 178.226 125.176 178.226 122.992C178.282 120.416 177.75 118.372 176.63 116.86C175.51 115.348 174.026 114.256 172.178 113.584C170.386 112.912 168.398 112.576 166.214 112.576C163.974 112.576 161.93 112.94 160.082 113.668C158.29 114.34 156.862 115.432 155.798 116.944C154.734 118.4 154.202 120.304 154.202 122.656C154.202 125.008 154.762 126.94 155.882 128.452C157.058 129.908 158.542 130.972 160.334 131.644C162.182 132.316 164.142 132.652 166.214 132.652ZM204.02 166L240.56 106.612H247.952L211.496 166H204.02ZM242.828 166.504C240.14 166.504 237.872 165.916 236.024 164.74C234.232 163.564 232.86 161.996 231.908 160.036C230.956 158.02 230.48 155.78 230.48 153.316C230.48 150.74 230.956 148.472 231.908 146.512C232.86 144.552 234.26 143.012 236.108 141.892C237.956 140.772 240.196 140.212 242.828 140.212C245.404 140.212 247.588 140.772 249.38 141.892C251.172 143.012 252.544 144.552 253.496 146.512C254.448 148.472 254.924 150.74 254.924 153.316C254.924 155.78 254.448 158.02 253.496 160.036C252.544 161.996 251.172 163.564 249.38 164.74C247.588 165.916 245.404 166.504 242.828 166.504ZM242.744 160.54C244.2 160.54 245.348 160.204 246.188 159.532C247.084 158.86 247.7 157.964 248.036 156.844C248.428 155.724 248.624 154.548 248.624 153.316C248.624 152.084 248.428 150.936 248.036 149.872C247.7 148.752 247.084 147.856 246.188 147.184C245.348 146.512 244.2 146.176 242.744 146.176C240.504 146.176 238.908 146.904 237.956 148.36C237.06 149.816 236.612 151.468 236.612 153.316C236.612 155.276 237.088 156.984 238.04 158.44C238.992 159.84 240.56 160.54 242.744 160.54ZM209.564 132.232C206.876 132.232 204.608 131.644 202.76 130.468C200.968 129.292 199.596 127.724 198.644 125.764C197.748 123.748 197.3 121.508 197.3 119.044C197.3 116.468 197.748 114.2 198.644 112.24C199.596 110.28 200.996 108.74 202.844 107.62C204.692 106.5 206.932 105.94 209.564 105.94C212.196 105.94 214.408 106.5 216.2 107.62C217.992 108.74 219.336 110.28 220.232 112.24C221.184 114.2 221.66 116.468 221.66 119.044C221.66 121.508 221.184 123.748 220.232 125.764C219.336 127.724 217.992 129.292 216.2 130.468C214.408 131.644 212.196 132.232 209.564 132.232ZM209.564 126.268C211.02 126.268 212.168 125.932 213.008 125.26C213.848 124.588 214.464 123.692 214.856 122.572C215.248 121.452 215.444 120.276 215.444 119.044C215.444 117.812 215.248 116.664 214.856 115.6C214.464 114.48 213.848 113.584 213.008 112.912C212.168 112.24 211.02 111.904 209.564 111.904C207.324 111.904 205.728 112.632 204.776 114.088C203.824 115.544 203.348 117.196 203.348 119.044C203.348 121.004 203.824 122.712 204.776 124.168C205.728 125.568 207.324 126.268 209.564 126.268Z" fill="#0166FF"/>
<path d="M67.0607 85.9393C66.4749 85.3536 65.5251 85.3536 64.9393 85.9393L55.3934 95.4853C54.8076 96.0711 54.8076 97.0208 55.3934 97.6066C55.9792 98.1924 56.9289 98.1924 57.5147 97.6066L66 89.1213L74.4853 97.6066C75.0711 98.1924 76.0208 98.1924 76.6066 97.6066C77.1924 97.0208 77.1924 96.0711 76.6066 95.4853L67.0607 85.9393ZM64.5 111L64.5 112.5L67.5 112.5L67.5 111L64.5 111ZM64.5 87L64.5 111L67.5 111L67.5 87L64.5 87Z" fill="#0166FF"/>
<defs>
<linearGradient id="paint0_linear_5313_14143" x1="342" y1="152" x2="41.2442" y2="288.277" gradientUnits="userSpaceOnUse">
<stop stop-color="#0166FF"/>
<stop offset="0.556949" stop-color="#BAD6FF"/>
</linearGradient>
</defs>
</svg>
