<svg width="328" height="238" viewBox="0 0 328 238" fill="none" xmlns="http://www.w3.org/2000/svg">
<path d="M328 129.281C322.993 106.51 313.147 85.0542 299.114 66.3408C285.082 47.6273 267.186 32.0846 246.615 20.746C226.044 9.40727 203.271 2.53236 179.808 0.578271C156.345 -1.37582 132.731 1.63568 110.535 9.41256C88.3388 17.1894 68.0697 29.5535 51.075 45.6828C34.0803 61.8122 20.7494 81.3373 11.9683 102.96C3.18726 124.583 -0.842658 147.808 0.146452 171.091C1.13556 194.375 7.12104 217.183 17.705 238L35.2958 229.239C25.9682 210.893 20.6932 190.792 19.8215 170.273C18.9498 149.753 22.5014 129.285 30.2401 110.229C37.9788 91.1726 49.7274 73.9652 64.7047 59.7505C79.6821 45.5357 97.5452 34.6393 117.106 27.7856C136.668 20.9318 157.479 18.2778 178.156 19.9999C198.834 21.7221 218.905 27.7809 237.033 37.7736C255.162 47.7664 270.934 61.4641 283.301 77.9562C295.668 94.4483 304.346 113.357 308.758 133.425L328 129.281Z" fill="url(#paint0_linear_5368_5929)"/>
<path d="M123.441 184.737C120.309 184.737 117.299 184.215 114.412 183.171C111.587 182.127 109.13 180.561 107.042 178.472C104.954 176.323 103.51 173.682 102.712 170.549H111.556C112.662 172.883 114.443 174.634 116.9 175.801C119.418 176.906 121.906 177.459 124.362 177.459C127.679 177.459 130.412 176.783 132.562 175.432C134.773 174.019 136.493 172.115 137.721 169.72C139.011 167.325 139.932 164.653 140.485 161.705C141.038 158.695 141.314 155.594 141.314 152.4C141.314 152.093 141.314 151.755 141.314 151.386C141.314 151.018 141.314 150.68 141.314 150.373C140.147 152.768 138.581 154.703 136.615 156.177C134.65 157.59 132.47 158.634 130.074 159.309C127.679 159.924 125.253 160.231 122.796 160.231C118.988 160.231 115.487 159.463 112.293 157.927C109.161 156.331 106.643 154.027 104.739 151.018C102.896 147.947 101.975 144.231 101.975 139.87C101.975 135.509 102.927 131.701 104.831 128.446C106.735 125.191 109.376 122.673 112.754 120.892C116.194 119.049 120.155 118.128 124.639 118.128C129.429 118.128 133.391 119.141 136.523 121.168C139.717 123.195 142.205 125.897 143.986 129.275C145.828 132.653 147.118 136.369 147.855 140.423C148.592 144.415 148.961 148.407 148.961 152.4C148.961 157.006 148.5 161.275 147.579 165.206C146.658 169.075 145.183 172.484 143.157 175.432C141.13 178.38 138.489 180.683 135.234 182.342C131.978 183.939 128.047 184.737 123.441 184.737ZM123.994 152.86C126.635 152.86 129.03 152.308 131.18 151.202C133.391 150.097 135.141 148.561 136.431 146.596C137.782 144.63 138.458 142.327 138.458 139.686C138.458 136.861 137.844 134.404 136.615 132.316C135.387 130.166 133.698 128.477 131.548 127.249C129.46 126.02 127.065 125.406 124.362 125.406C121.598 125.406 119.142 126.02 116.992 127.249C114.904 128.477 113.245 130.135 112.017 132.223C110.789 134.312 110.174 136.615 110.174 139.133C110.174 143.433 111.403 146.811 113.86 149.267C116.378 151.663 119.756 152.86 123.994 152.86ZM182.783 184.737C179.835 184.737 176.948 184.43 174.123 183.816C171.359 183.14 168.871 182.065 166.66 180.591C164.449 179.117 162.668 177.182 161.317 174.787C160.027 172.33 159.382 169.351 159.382 165.851C159.382 163.394 159.812 161.152 160.672 159.125C161.532 157.098 162.76 155.348 164.357 153.874C166.015 152.4 167.95 151.233 170.161 150.373C167.704 149.206 165.831 147.763 164.541 146.043C163.252 144.262 162.392 142.419 161.962 140.515C161.532 138.611 161.317 136.891 161.317 135.356C161.317 132.285 161.9 129.675 163.067 127.525C164.296 125.375 165.923 123.594 167.95 122.181C170.038 120.769 172.342 119.755 174.86 119.141C177.439 118.466 180.08 118.128 182.783 118.128C185.485 118.128 188.096 118.466 190.614 119.141C193.194 119.755 195.497 120.769 197.524 122.181C199.612 123.594 201.239 125.375 202.406 127.525C203.635 129.675 204.249 132.285 204.249 135.356C204.249 136.953 204.003 138.673 203.512 140.515C203.082 142.358 202.222 144.139 200.932 145.859C199.643 147.517 197.769 148.93 195.312 150.097C197.646 150.956 199.612 152.154 201.209 153.69C202.867 155.225 204.095 157.037 204.894 159.125C205.754 161.152 206.184 163.394 206.184 165.851C206.184 169.351 205.508 172.33 204.157 174.787C202.867 177.182 201.086 179.117 198.813 180.591C196.602 182.065 194.115 183.14 191.351 183.816C188.587 184.43 185.731 184.737 182.783 184.737ZM182.783 177.459C184.257 177.459 185.854 177.305 187.574 176.998C189.293 176.691 190.921 176.138 192.456 175.34C194.053 174.48 195.343 173.313 196.326 171.839C197.37 170.303 197.892 168.338 197.892 165.943C197.892 163.117 197.155 160.876 195.681 159.217C194.268 157.559 192.395 156.361 190.061 155.624C187.789 154.887 185.363 154.519 182.783 154.519C180.265 154.519 177.839 154.887 175.505 155.624C173.171 156.361 171.267 157.559 169.793 159.217C168.319 160.876 167.582 163.117 167.582 165.943C167.582 168.338 168.073 170.303 169.056 171.839C170.1 173.313 171.42 174.48 173.017 175.34C174.614 176.138 176.272 176.691 177.992 176.998C179.712 177.305 181.309 177.459 182.783 177.459ZM182.783 147.425C185.117 147.425 187.267 147.056 189.232 146.319C191.197 145.521 192.794 144.354 194.023 142.818C195.312 141.221 195.957 139.225 195.957 136.83C196.019 134.005 195.435 131.763 194.207 130.105C192.979 128.446 191.351 127.249 189.324 126.511C187.359 125.774 185.178 125.406 182.783 125.406C180.326 125.406 178.084 125.805 176.058 126.604C174.092 127.341 172.526 128.538 171.359 130.197C170.192 131.794 169.608 133.882 169.608 136.461C169.608 139.041 170.223 141.16 171.451 142.818C172.741 144.415 174.368 145.582 176.334 146.319C178.361 147.056 180.51 147.425 182.783 147.425ZM224.247 184L264.324 118.865H272.431L232.447 184H224.247ZM266.811 184.553C263.863 184.553 261.375 183.908 259.349 182.618C257.383 181.328 255.878 179.609 254.834 177.459C253.79 175.248 253.268 172.791 253.268 170.089C253.268 167.263 253.79 164.776 254.834 162.626C255.878 160.476 257.414 158.787 259.441 157.559C261.468 156.331 263.924 155.716 266.811 155.716C269.636 155.716 272.032 156.331 273.997 157.559C275.963 158.787 277.467 160.476 278.511 162.626C279.556 164.776 280.078 167.263 280.078 170.089C280.078 172.791 279.556 175.248 278.511 177.459C277.467 179.609 275.963 181.328 273.997 182.618C272.032 183.908 269.636 184.553 266.811 184.553ZM266.719 178.012C268.316 178.012 269.575 177.643 270.496 176.906C271.479 176.169 272.155 175.186 272.523 173.958C272.953 172.73 273.168 171.44 273.168 170.089C273.168 168.737 272.953 167.478 272.523 166.311C272.155 165.083 271.479 164.1 270.496 163.363C269.575 162.626 268.316 162.258 266.719 162.258C264.262 162.258 262.512 163.056 261.468 164.653C260.485 166.25 259.994 168.062 259.994 170.089C259.994 172.238 260.516 174.111 261.56 175.708C262.604 177.244 264.324 178.012 266.719 178.012ZM230.328 146.964C227.38 146.964 224.892 146.319 222.866 145.029C220.9 143.74 219.395 142.02 218.351 139.87C217.369 137.659 216.877 135.202 216.877 132.5C216.877 129.675 217.369 127.187 218.351 125.037C219.395 122.888 220.931 121.199 222.958 119.97C224.985 118.742 227.441 118.128 230.328 118.128C233.215 118.128 235.641 118.742 237.606 119.97C239.572 121.199 241.046 122.888 242.028 125.037C243.073 127.187 243.595 129.675 243.595 132.5C243.595 135.202 243.073 137.659 242.028 139.87C241.046 142.02 239.572 143.74 237.606 145.029C235.641 146.319 233.215 146.964 230.328 146.964ZM230.328 140.423C231.925 140.423 233.184 140.054 234.105 139.317C235.027 138.58 235.702 137.598 236.132 136.369C236.562 135.141 236.777 133.851 236.777 132.5C236.777 131.149 236.562 129.89 236.132 128.723C235.702 127.494 235.027 126.511 234.105 125.774C233.184 125.037 231.925 124.669 230.328 124.669C227.871 124.669 226.121 125.467 225.077 127.064C224.033 128.661 223.51 130.473 223.51 132.5C223.51 134.65 224.033 136.523 225.077 138.12C226.121 139.655 227.871 140.423 230.328 140.423Z" fill="#0166FF"/>
<path d="M76.0607 93.9393C75.4749 93.3536 74.5251 93.3536 73.9393 93.9393L64.3934 103.485C63.8076 104.071 63.8076 105.021 64.3934 105.607C64.9792 106.192 65.9289 106.192 66.5147 105.607L75 97.1213L83.4853 105.607C84.0711 106.192 85.0208 106.192 85.6066 105.607C86.1924 105.021 86.1924 104.071 85.6066 103.485L76.0607 93.9393ZM73.5 119L73.5 120.5L76.5 120.5L76.5 119L73.5 119ZM73.5 95L73.5 119L76.5 119L76.5 95L73.5 95Z" fill="#0166FF"/>
<defs>
<linearGradient id="paint0_linear_5368_5929" x1="378.973" y1="166.71" x2="46.8782" y2="318.742" gradientUnits="userSpaceOnUse">
<stop stop-color="#0166FF"/>
<stop offset="0.556949" stop-color="#BAD6FF"/>
</linearGradient>
</defs>
</svg>
