<svg width="123" height="88" viewBox="0 0 123 88" fill="none" xmlns="http://www.w3.org/2000/svg">
<path d="M122.705 47.4073C120.835 39.0573 117.156 31.1898 111.913 24.3278C106.671 17.4658 99.9848 11.7664 92.2995 7.60863C84.6143 3.45084 76.106 0.929871 67.3403 0.213326C58.5746 -0.503227 49.7523 0.601067 41.4599 3.45277C33.1675 6.30448 25.595 10.8383 19.2457 16.7528C12.8965 22.6672 7.91603 29.8269 4.63543 37.7558C1.35482 45.6846 -0.150759 54.201 0.218773 62.7389C0.588306 71.2767 2.82448 79.6403 6.77865 87.2736L13.3506 84.0611C9.8658 77.3338 7.89506 69.963 7.56939 62.4386C7.24372 54.9143 8.57059 47.4088 11.4618 40.4211C14.353 33.4334 18.7422 27.1236 24.3378 21.9112C29.9333 16.6988 36.607 12.7032 43.9151 10.19C51.2231 7.67678 58.9982 6.70358 66.7234 7.33507C74.4486 7.96655 81.9469 10.1883 88.7199 13.8525C95.4929 17.5168 101.385 22.5396 106.005 28.5871C110.626 34.6346 113.868 41.5682 115.516 48.927L122.705 47.4073Z" fill="url(#paint0_linear_5313_34716)"/>
<path d="M47.7153 67.256C46.6273 67.256 45.5819 67.0747 44.5793 66.712C43.5979 66.3493 42.7446 65.8053 42.0193 65.08C41.2939 64.3333 40.7926 63.416 40.5153 62.328H43.5873C43.9713 63.1387 44.5899 63.7467 45.4433 64.152C46.3179 64.536 47.1819 64.728 48.0353 64.728C49.1873 64.728 50.1366 64.4933 50.8833 64.024C51.6513 63.5333 52.2486 62.872 52.6753 62.04C53.1233 61.208 53.4433 60.28 53.6353 59.256C53.8273 58.2107 53.9233 57.1333 53.9233 56.024C53.9233 55.9173 53.9233 55.8 53.9233 55.672C53.9233 55.544 53.9233 55.4267 53.9233 55.32C53.5179 56.152 52.9739 56.824 52.2913 57.336C51.6086 57.8267 50.8513 58.1893 50.0193 58.424C49.1873 58.6373 48.3446 58.744 47.4913 58.744C46.1686 58.744 44.9526 58.4773 43.8433 57.944C42.7553 57.3893 41.8806 56.5893 41.2193 55.544C40.5793 54.4773 40.2593 53.1867 40.2593 51.672C40.2593 50.1573 40.5899 48.8347 41.2513 47.704C41.9126 46.5733 42.8299 45.6987 44.0033 45.08C45.1979 44.44 46.5739 44.12 48.1313 44.12C49.7953 44.12 51.1713 44.472 52.2593 45.176C53.3686 45.88 54.2326 46.8187 54.8513 47.992C55.4913 49.1653 55.9393 50.456 56.1953 51.864C56.4513 53.2507 56.5793 54.6373 56.5793 56.024C56.5793 57.624 56.4193 59.1067 56.0993 60.472C55.7793 61.816 55.2673 63 54.5633 64.024C53.8593 65.048 52.9419 65.848 51.8113 66.424C50.6806 66.9787 49.3153 67.256 47.7153 67.256ZM47.9073 56.184C48.8246 56.184 49.6566 55.992 50.4033 55.608C51.1713 55.224 51.7793 54.6907 52.2273 54.008C52.6966 53.3253 52.9313 52.5253 52.9313 51.608C52.9313 50.6267 52.7179 49.7733 52.2913 49.048C51.8646 48.3013 51.2779 47.7147 50.5313 47.288C49.8059 46.8613 48.9739 46.648 48.0353 46.648C47.0753 46.648 46.2219 46.8613 45.4753 47.288C44.7499 47.7147 44.1739 48.2907 43.7473 49.016C43.3206 49.7413 43.1073 50.5413 43.1073 51.416C43.1073 52.9093 43.5339 54.0827 44.3873 54.936C45.2619 55.768 46.4353 56.184 47.9073 56.184ZM68.327 67.256C67.303 67.256 66.3003 67.1493 65.319 66.936C64.359 66.7013 63.495 66.328 62.727 65.816C61.959 65.304 61.3403 64.632 60.871 63.8C60.423 62.9467 60.199 61.912 60.199 60.696C60.199 59.8427 60.3483 59.064 60.647 58.36C60.9457 57.656 61.3723 57.048 61.927 56.536C62.503 56.024 63.175 55.6187 63.943 55.32C63.0897 54.9147 62.439 54.4133 61.991 53.816C61.543 53.1973 61.2443 52.5573 61.095 51.896C60.9457 51.2347 60.871 50.6373 60.871 50.104C60.871 49.0373 61.0737 48.1307 61.479 47.384C61.9057 46.6373 62.471 46.0187 63.175 45.528C63.9003 45.0373 64.7003 44.6853 65.575 44.472C66.471 44.2373 67.3883 44.12 68.327 44.12C69.2657 44.12 70.1723 44.2373 71.047 44.472C71.943 44.6853 72.743 45.0373 73.447 45.528C74.1723 46.0187 74.7377 46.6373 75.143 47.384C75.5697 48.1307 75.783 49.0373 75.783 50.104C75.783 50.6587 75.6977 51.256 75.527 51.896C75.3777 52.536 75.079 53.1547 74.631 53.752C74.183 54.328 73.5323 54.8187 72.679 55.224C73.4897 55.5227 74.1723 55.9387 74.727 56.472C75.303 57.0053 75.7297 57.6347 76.007 58.36C76.3057 59.064 76.455 59.8427 76.455 60.696C76.455 61.912 76.2203 62.9467 75.751 63.8C75.303 64.632 74.6843 65.304 73.895 65.816C73.127 66.328 72.263 66.7013 71.303 66.936C70.343 67.1493 69.351 67.256 68.327 67.256ZM68.327 64.728C68.839 64.728 69.3937 64.6747 69.991 64.568C70.5883 64.4613 71.1537 64.2693 71.687 63.992C72.2417 63.6933 72.6897 63.288 73.031 62.776C73.3937 62.2427 73.575 61.56 73.575 60.728C73.575 59.7467 73.319 58.968 72.807 58.392C72.3163 57.816 71.6657 57.4 70.855 57.144C70.0657 56.888 69.223 56.76 68.327 56.76C67.4523 56.76 66.6097 56.888 65.799 57.144C64.9883 57.4 64.327 57.816 63.815 58.392C63.303 58.968 63.047 59.7467 63.047 60.728C63.047 61.56 63.2177 62.2427 63.559 62.776C63.9217 63.288 64.3803 63.6933 64.935 63.992C65.4897 64.2693 66.0657 64.4613 66.663 64.568C67.2603 64.6747 67.815 64.728 68.327 64.728ZM68.327 54.296C69.1377 54.296 69.8843 54.168 70.567 53.912C71.2497 53.6347 71.8043 53.2293 72.231 52.696C72.679 52.1413 72.903 51.448 72.903 50.616C72.9243 49.6347 72.7217 48.856 72.295 48.28C71.8683 47.704 71.303 47.288 70.599 47.032C69.9163 46.776 69.159 46.648 68.327 46.648C67.4737 46.648 66.695 46.7867 65.991 47.064C65.3083 47.32 64.7643 47.736 64.359 48.312C63.9537 48.8667 63.751 49.592 63.751 50.488C63.751 51.384 63.9643 52.12 64.391 52.696C64.839 53.2507 65.4043 53.656 66.087 53.912C66.791 54.168 67.5377 54.296 68.327 54.296ZM82.7293 67L96.6493 44.376H99.4653L85.5773 67H82.7293ZM97.5133 67.192C96.4893 67.192 95.6253 66.968 94.9213 66.52C94.2386 66.072 93.7159 65.4747 93.3533 64.728C92.9906 63.96 92.8093 63.1067 92.8093 62.168C92.8093 61.1867 92.9906 60.3227 93.3533 59.576C93.7159 58.8293 94.2493 58.2427 94.9533 57.816C95.6573 57.3893 96.5106 57.176 97.5133 57.176C98.4946 57.176 99.3266 57.3893 100.009 57.816C100.692 58.2427 101.215 58.8293 101.577 59.576C101.94 60.3227 102.121 61.1867 102.121 62.168C102.121 63.1067 101.94 63.96 101.577 64.728C101.215 65.4747 100.692 66.072 100.009 66.52C99.3266 66.968 98.4946 67.192 97.5133 67.192ZM97.4813 64.92C98.0359 64.92 98.4733 64.792 98.7933 64.536C99.1346 64.28 99.3693 63.9387 99.4973 63.512C99.6466 63.0853 99.7213 62.6373 99.7213 62.168C99.7213 61.6987 99.6466 61.2613 99.4973 60.856C99.3693 60.4293 99.1346 60.088 98.7933 59.832C98.4733 59.576 98.0359 59.448 97.4813 59.448C96.6279 59.448 96.0199 59.7253 95.6573 60.28C95.3159 60.8347 95.1453 61.464 95.1453 62.168C95.1453 62.9147 95.3266 63.5653 95.6893 64.12C96.0519 64.6533 96.6493 64.92 97.4813 64.92ZM84.8413 54.136C83.8173 54.136 82.9533 53.912 82.2493 53.464C81.5666 53.016 81.0439 52.4187 80.6813 51.672C80.3399 50.904 80.1693 50.0507 80.1693 49.112C80.1693 48.1307 80.3399 47.2667 80.6813 46.52C81.0439 45.7733 81.5773 45.1867 82.2812 44.76C82.9853 44.3333 83.8386 44.12 84.8413 44.12C85.8439 44.12 86.6866 44.3333 87.3693 44.76C88.0519 45.1867 88.5639 45.7733 88.9053 46.52C89.2679 47.2667 89.4493 48.1307 89.4493 49.112C89.4493 50.0507 89.2679 50.904 88.9053 51.672C88.5639 52.4187 88.0519 53.016 87.3693 53.464C86.6866 53.912 85.8439 54.136 84.8413 54.136ZM84.8413 51.864C85.3959 51.864 85.8333 51.736 86.1533 51.48C86.4733 51.224 86.7079 50.8827 86.8573 50.456C87.0066 50.0293 87.0813 49.5813 87.0813 49.112C87.0813 48.6427 87.0066 48.2053 86.8573 47.8C86.7079 47.3733 86.4733 47.032 86.1533 46.776C85.8333 46.52 85.3959 46.392 84.8413 46.392C83.9879 46.392 83.3799 46.6693 83.0173 47.224C82.6546 47.7787 82.4733 48.408 82.4733 49.112C82.4733 49.8587 82.6546 50.5093 83.0173 51.064C83.3799 51.5973 83.9879 51.864 84.8413 51.864Z" fill="#0166FF"/>
<path d="M30.5303 39.4697C30.2374 39.1768 29.7626 39.1768 29.4697 39.4697L24.6967 44.2426C24.4038 44.5355 24.4038 45.0104 24.6967 45.3033C24.9896 45.5962 25.4645 45.5962 25.7574 45.3033L30 41.0607L34.2426 45.3033C34.5355 45.5962 35.0104 45.5962 35.3033 45.3033C35.5962 45.0104 35.5962 44.5355 35.3033 44.2426L30.5303 39.4697ZM29.25 50L29.25 50.75L30.75 50.75L30.75 50L29.25 50ZM29.25 40L29.25 50L30.75 50L30.75 40L29.25 40Z" fill="#0166FF"/>
<defs>
<linearGradient id="paint0_linear_5313_34716" x1="116.984" y1="85.326" x2="8.59308" y2="86.8481" gradientUnits="userSpaceOnUse">
<stop stop-color="#0166FF"/>
<stop offset="1" stop-color="#BAD6FF"/>
</linearGradient>
</defs>
</svg>
