<svg width="139" height="99" viewBox="0 0 139 99" fill="none" xmlns="http://www.w3.org/2000/svg">
<path d="M136.624 53.6294C134.551 44.324 130.474 35.5563 124.663 27.9091C118.853 20.2618 111.442 13.9103 102.924 9.27681C94.4061 4.64327 84.9758 1.83385 75.2603 1.03532C65.5448 0.236779 55.7665 1.46742 46.5755 4.64543C37.3845 7.82344 28.9915 12.876 21.9542 19.4672C14.917 26.0585 9.39689 34.0374 5.7608 42.8735C2.12472 51.7096 0.455997 61.2005 0.865571 70.7152C1.27514 80.23 3.75363 89.5505 8.13626 98.0573L15.4203 94.4772C11.5579 86.9801 9.37365 78.7659 9.01269 70.3806C8.65174 61.9953 10.1224 53.631 13.3268 45.8438C16.5313 38.0565 21.3962 31.0248 27.5981 25.2159C33.8 19.4071 41.1968 14.9543 49.2967 12.1535C57.3967 9.35276 66.0143 8.2682 74.5765 8.97195C83.1388 9.6757 91.4497 12.1516 98.9565 16.2352C106.463 20.3187 112.994 25.9162 118.115 32.6557C123.236 39.3952 126.829 47.1221 128.656 55.3229L136.624 53.6294Z" fill="url(#paint0_linear_10316_1018)"/>
<path d="M52.8554 71.9938C51.7674 71.9938 50.7221 71.8125 49.7194 71.4498C48.7381 71.0871 47.8847 70.5431 47.1594 69.8178C46.4341 69.0711 45.9327 68.1538 45.6554 67.0658H48.7274C49.1114 67.8765 49.7301 68.4845 50.5834 68.8898C51.4581 69.2738 52.3221 69.4658 53.1754 69.4658C54.3274 69.4658 55.2767 69.2311 56.0234 68.7618C56.7914 68.2711 57.3887 67.6098 57.8154 66.7778C58.2634 65.9458 58.5834 65.0178 58.7754 63.9938C58.9674 62.9485 59.0634 61.8711 59.0634 60.7618C59.0634 60.6551 59.0634 60.5378 59.0634 60.4098C59.0634 60.2818 59.0634 60.1645 59.0634 60.0578C58.6581 60.8898 58.1141 61.5618 57.4314 62.0738C56.7487 62.5645 55.9914 62.9271 55.1594 63.1618C54.3274 63.3751 53.4847 63.4818 52.6314 63.4818C51.3087 63.4818 50.0927 63.2151 48.9834 62.6818C47.8954 62.1271 47.0207 61.3271 46.3594 60.2818C45.7194 59.2151 45.3994 57.9245 45.3994 56.4098C45.3994 54.8951 45.7301 53.5725 46.3914 52.4418C47.0527 51.3111 47.9701 50.4365 49.1434 49.8178C50.3381 49.1778 51.7141 48.8578 53.2714 48.8578C54.9354 48.8578 56.3114 49.2098 57.3994 49.9138C58.5087 50.6178 59.3727 51.5565 59.9914 52.7298C60.6314 53.9031 61.0794 55.1938 61.3354 56.6018C61.5914 57.9885 61.7194 59.3751 61.7194 60.7618C61.7194 62.3618 61.5594 63.8445 61.2394 65.2098C60.9194 66.5538 60.4074 67.7378 59.7034 68.7618C58.9994 69.7858 58.0821 70.5858 56.9514 71.1618C55.8207 71.7165 54.4554 71.9938 52.8554 71.9938ZM53.0474 60.9218C53.9647 60.9218 54.7967 60.7298 55.5434 60.3458C56.3114 59.9618 56.9194 59.4285 57.3674 58.7458C57.8367 58.0631 58.0714 57.2631 58.0714 56.3458C58.0714 55.3645 57.8581 54.5111 57.4314 53.7858C57.0047 53.0391 56.4181 52.4525 55.6714 52.0258C54.9461 51.5991 54.1141 51.3858 53.1754 51.3858C52.2154 51.3858 51.3621 51.5991 50.6154 52.0258C49.8901 52.4525 49.3141 53.0285 48.8874 53.7538C48.4607 54.4791 48.2474 55.2791 48.2474 56.1538C48.2474 57.6471 48.6741 58.8205 49.5274 59.6738C50.4021 60.5058 51.5754 60.9218 53.0474 60.9218ZM73.4671 71.9938C72.4431 71.9938 71.4405 71.8871 70.4591 71.6738C69.4991 71.4391 68.6351 71.0658 67.8671 70.5538C67.0991 70.0418 66.4805 69.3698 66.0111 68.5378C65.5631 67.6845 65.3391 66.6498 65.3391 65.4338C65.3391 64.5805 65.4885 63.8018 65.7871 63.0978C66.0858 62.3938 66.5125 61.7858 67.0671 61.2738C67.6431 60.7618 68.3151 60.3565 69.0831 60.0578C68.2298 59.6525 67.5791 59.1511 67.1311 58.5538C66.6831 57.9351 66.3845 57.2951 66.2351 56.6338C66.0858 55.9725 66.0111 55.3751 66.0111 54.8418C66.0111 53.7751 66.2138 52.8685 66.6191 52.1218C67.0458 51.3751 67.6111 50.7565 68.3151 50.2658C69.0405 49.7751 69.8405 49.4231 70.7151 49.2098C71.6111 48.9751 72.5285 48.8578 73.4671 48.8578C74.4058 48.8578 75.3125 48.9751 76.1871 49.2098C77.0831 49.4231 77.8831 49.7751 78.5871 50.2658C79.3125 50.7565 79.8778 51.3751 80.2831 52.1218C80.7098 52.8685 80.9231 53.7751 80.9231 54.8418C80.9231 55.3965 80.8378 55.9938 80.6671 56.6338C80.5178 57.2738 80.2191 57.8925 79.7711 58.4898C79.3231 59.0658 78.6725 59.5565 77.8191 59.9618C78.6298 60.2605 79.3125 60.6765 79.8671 61.2098C80.4431 61.7431 80.8698 62.3725 81.1471 63.0978C81.4458 63.8018 81.5951 64.5805 81.5951 65.4338C81.5951 66.6498 81.3605 67.6845 80.8911 68.5378C80.4431 69.3698 79.8245 70.0418 79.0351 70.5538C78.2671 71.0658 77.4031 71.4391 76.4431 71.6738C75.4831 71.8871 74.4911 71.9938 73.4671 71.9938ZM73.4671 69.4658C73.9791 69.4658 74.5338 69.4125 75.1311 69.3058C75.7285 69.1991 76.2938 69.0071 76.8271 68.7298C77.3818 68.4311 77.8298 68.0258 78.1711 67.5138C78.5338 66.9805 78.7151 66.2978 78.7151 65.4658C78.7151 64.4845 78.4591 63.7058 77.9471 63.1298C77.4565 62.5538 76.8058 62.1378 75.9951 61.8818C75.2058 61.6258 74.3631 61.4978 73.4671 61.4978C72.5925 61.4978 71.7498 61.6258 70.9391 61.8818C70.1285 62.1378 69.4671 62.5538 68.9551 63.1298C68.4431 63.7058 68.1871 64.4845 68.1871 65.4658C68.1871 66.2978 68.3578 66.9805 68.6991 67.5138C69.0618 68.0258 69.5205 68.4311 70.0751 68.7298C70.6298 69.0071 71.2058 69.1991 71.8031 69.3058C72.4005 69.4125 72.9551 69.4658 73.4671 69.4658ZM73.4671 59.0338C74.2778 59.0338 75.0245 58.9058 75.7071 58.6498C76.3898 58.3725 76.9445 57.9671 77.3711 57.4338C77.8191 56.8791 78.0431 56.1858 78.0431 55.3538C78.0645 54.3725 77.8618 53.5938 77.4351 53.0178C77.0085 52.4418 76.4431 52.0258 75.7391 51.7698C75.0565 51.5138 74.2991 51.3858 73.4671 51.3858C72.6138 51.3858 71.8351 51.5245 71.1311 51.8018C70.4485 52.0578 69.9045 52.4738 69.4991 53.0498C69.0938 53.6045 68.8911 54.3298 68.8911 55.2258C68.8911 56.1218 69.1045 56.8578 69.5311 57.4338C69.9791 57.9885 70.5445 58.3938 71.2271 58.6498C71.9311 58.9058 72.6778 59.0338 73.4671 59.0338ZM87.8694 71.7378L101.789 49.1138H104.605L90.7174 71.7378H87.8694ZM102.653 71.9298C101.629 71.9298 100.765 71.7058 100.061 71.2578C99.3787 70.8098 98.8561 70.2125 98.4934 69.4658C98.1307 68.6978 97.9494 67.8445 97.9494 66.9058C97.9494 65.9245 98.1307 65.0605 98.4934 64.3138C98.8561 63.5671 99.3894 62.9805 100.093 62.5538C100.797 62.1271 101.651 61.9138 102.653 61.9138C103.635 61.9138 104.467 62.1271 105.149 62.5538C105.832 62.9805 106.355 63.5671 106.717 64.3138C107.08 65.0605 107.261 65.9245 107.261 66.9058C107.261 67.8445 107.08 68.6978 106.717 69.4658C106.355 70.2125 105.832 70.8098 105.149 71.2578C104.467 71.7058 103.635 71.9298 102.653 71.9298ZM102.621 69.6578C103.176 69.6578 103.613 69.5298 103.933 69.2738C104.275 69.0178 104.509 68.6765 104.637 68.2498C104.787 67.8231 104.861 67.3751 104.861 66.9058C104.861 66.4365 104.787 65.9991 104.637 65.5938C104.509 65.1671 104.275 64.8258 103.933 64.5698C103.613 64.3138 103.176 64.1858 102.621 64.1858C101.768 64.1858 101.16 64.4631 100.797 65.0178C100.456 65.5725 100.285 66.2018 100.285 66.9058C100.285 67.6525 100.467 68.3031 100.829 68.8578C101.192 69.3911 101.789 69.6578 102.621 69.6578ZM89.9814 58.8738C88.9574 58.8738 88.0934 58.6498 87.3894 58.2018C86.7067 57.7538 86.1841 57.1565 85.8214 56.4098C85.4801 55.6418 85.3094 54.7885 85.3094 53.8498C85.3094 52.8685 85.4801 52.0045 85.8214 51.2578C86.1841 50.5111 86.7174 49.9245 87.4214 49.4978C88.1254 49.0711 88.9787 48.8578 89.9814 48.8578C90.9841 48.8578 91.8267 49.0711 92.5094 49.4978C93.1921 49.9245 93.7041 50.5111 94.0454 51.2578C94.4081 52.0045 94.5894 52.8685 94.5894 53.8498C94.5894 54.7885 94.4081 55.6418 94.0454 56.4098C93.7041 57.1565 93.1921 57.7538 92.5094 58.2018C91.8267 58.6498 90.9841 58.8738 89.9814 58.8738ZM89.9814 56.6018C90.5361 56.6018 90.9734 56.4738 91.2934 56.2178C91.6134 55.9618 91.8481 55.6205 91.9974 55.1938C92.1467 54.7671 92.2214 54.3191 92.2214 53.8498C92.2214 53.3805 92.1467 52.9431 91.9974 52.5378C91.8481 52.1111 91.6134 51.7698 91.2934 51.5138C90.9734 51.2578 90.5361 51.1298 89.9814 51.1298C89.1281 51.1298 88.5201 51.4071 88.1574 51.9618C87.7947 52.5165 87.6134 53.1458 87.6134 53.8498C87.6134 54.5965 87.7947 55.2471 88.1574 55.8018C88.5201 56.3351 89.1281 56.6018 89.9814 56.6018Z" fill="#0050C8"/>
<path d="M34.4052 39.5948C34.1814 39.371 33.8186 39.371 33.5948 39.5948L29.9478 43.2418C29.724 43.4656 29.724 43.8284 29.9478 44.0522C30.1716 44.276 30.5344 44.276 30.7582 44.0522L34 40.8104L37.2418 44.0522C37.4656 44.276 37.8284 44.276 38.0522 44.0522C38.276 43.8284 38.276 43.4656 38.0522 43.2418L34.4052 39.5948ZM33.4269 50L33.4269 50.5731L34.5731 50.5731L34.5731 50L33.4269 50ZM33.4269 40L33.4269 50L34.5731 50L34.5731 40L33.4269 40Z" fill="#0050C8"/>
<defs>
<linearGradient id="paint0_linear_10316_1018" x1="159.546" y1="94.7975" x2="8.73099" y2="146.089" gradientUnits="userSpaceOnUse">
<stop stop-color="#81E062"/>
<stop offset="0.556949" stop-color="#0050C8" stop-opacity="0.2"/>
</linearGradient>
</defs>
</svg>
