<svg width="172" height="123" viewBox="0 0 172 123" fill="none" xmlns="http://www.w3.org/2000/svg">
<path d="M170.033 67.1387C167.438 55.4893 162.333 44.5129 155.059 34.9393C147.785 25.3657 138.508 17.4142 127.844 11.6134C117.18 5.81267 105.374 2.29553 93.2113 1.29584C81.0483 0.296143 68.8068 1.83679 57.3006 5.81537C45.7943 9.79395 35.287 16.1193 26.477 24.3709C17.667 32.6225 10.7563 42.6114 6.2043 53.6734C1.65225 64.7354 -0.436834 76.6171 0.0759147 88.5287C0.588664 100.44 3.6915 112.109 9.17816 122.759L18.2971 118.276C13.4618 108.891 10.7272 98.6075 10.2754 88.1098C9.82348 77.6122 11.6646 67.1408 15.6763 57.3919C19.688 47.643 25.7784 38.8399 33.5426 31.5678C41.3068 24.2956 50.5669 18.7211 60.7073 15.2148C70.8477 11.7085 81.6361 10.3507 92.3553 11.2318C103.074 12.1128 113.479 15.2124 122.877 20.3246C132.275 25.4368 140.451 32.4445 146.862 40.8816C153.272 49.3188 157.771 58.9923 160.058 69.2589L170.033 67.1387Z" fill="url(#paint0_linear_10001_29764)"/>
<path d="M64.6441 90.32C63.2841 90.32 61.9774 90.0933 60.7241 89.64C59.4974 89.1867 58.4307 88.5067 57.5241 87.6C56.6174 86.6667 55.9907 85.52 55.6441 84.16H59.4841C59.9641 85.1733 60.7374 85.9333 61.8041 86.44C62.8974 86.92 63.9774 87.16 65.0441 87.16C66.4841 87.16 67.6707 86.8667 68.6041 86.28C69.5641 85.6667 70.3107 84.84 70.8441 83.8C71.4041 82.76 71.8041 81.6 72.0441 80.32C72.2841 79.0133 72.4041 77.6667 72.4041 76.28C72.4041 76.1467 72.4041 76 72.4041 75.84C72.4041 75.68 72.4041 75.5333 72.4041 75.4C71.8974 76.44 71.2174 77.28 70.3641 77.92C69.5107 78.5333 68.5641 78.9867 67.5241 79.28C66.4841 79.5467 65.4307 79.68 64.3641 79.68C62.7107 79.68 61.1907 79.3467 59.8041 78.68C58.4441 77.9867 57.3507 76.9867 56.5241 75.68C55.7241 74.3467 55.3241 72.7333 55.3241 70.84C55.3241 68.9467 55.7374 67.2933 56.5641 65.88C57.3907 64.4667 58.5374 63.3733 60.0041 62.6C61.4974 61.8 63.2174 61.4 65.1641 61.4C67.2441 61.4 68.9641 61.84 70.3241 62.72C71.7107 63.6 72.7907 64.7733 73.5641 66.24C74.3641 67.7067 74.9241 69.32 75.2441 71.08C75.5641 72.8133 75.7241 74.5467 75.7241 76.28C75.7241 78.28 75.5241 80.1333 75.1241 81.84C74.7241 83.52 74.0841 85 73.2041 86.28C72.3241 87.56 71.1774 88.56 69.7641 89.28C68.3507 89.9733 66.6441 90.32 64.6441 90.32ZM64.8841 76.48C66.0307 76.48 67.0707 76.24 68.0041 75.76C68.9641 75.28 69.7241 74.6133 70.2841 73.76C70.8707 72.9067 71.1641 71.9067 71.1641 70.76C71.1641 69.5333 70.8974 68.4667 70.3641 67.56C69.8307 66.6267 69.0974 65.8933 68.1641 65.36C67.2574 64.8267 66.2174 64.56 65.0441 64.56C63.8441 64.56 62.7774 64.8267 61.8441 65.36C60.9374 65.8933 60.2174 66.6133 59.6841 67.52C59.1507 68.4267 58.8841 69.4267 58.8841 70.52C58.8841 72.3867 59.4174 73.8533 60.4841 74.92C61.5774 75.96 63.0441 76.48 64.8841 76.48ZM90.4088 90.32C89.1288 90.32 87.8754 90.1867 86.6488 89.92C85.4488 89.6267 84.3688 89.16 83.4088 88.52C82.4488 87.88 81.6754 87.04 81.0888 86C80.5288 84.9333 80.2488 83.64 80.2488 82.12C80.2488 81.0533 80.4354 80.08 80.8088 79.2C81.1821 78.32 81.7154 77.56 82.4088 76.92C83.1288 76.28 83.9688 75.7733 84.9288 75.4C83.8621 74.8933 83.0488 74.2667 82.4888 73.52C81.9288 72.7467 81.5554 71.9467 81.3688 71.12C81.1821 70.2933 81.0888 69.5467 81.0888 68.88C81.0888 67.5467 81.3421 66.4133 81.8488 65.48C82.3821 64.5467 83.0888 63.7733 83.9688 63.16C84.8754 62.5467 85.8754 62.1067 86.9688 61.84C88.0888 61.5467 89.2354 61.4 90.4088 61.4C91.5821 61.4 92.7154 61.5467 93.8088 61.84C94.9288 62.1067 95.9288 62.5467 96.8088 63.16C97.7154 63.7733 98.4221 64.5467 98.9288 65.48C99.4621 66.4133 99.7288 67.5467 99.7288 68.88C99.7288 69.5733 99.6221 70.32 99.4088 71.12C99.2221 71.92 98.8488 72.6933 98.2888 73.44C97.7288 74.16 96.9154 74.7733 95.8488 75.28C96.8621 75.6533 97.7154 76.1733 98.4088 76.84C99.1288 77.5067 99.6621 78.2933 100.009 79.2C100.382 80.08 100.569 81.0533 100.569 82.12C100.569 83.64 100.275 84.9333 99.6888 86C99.1288 87.04 98.3554 87.88 97.3688 88.52C96.4088 89.16 95.3288 89.6267 94.1288 89.92C92.9288 90.1867 91.6888 90.32 90.4088 90.32ZM90.4088 87.16C91.0488 87.16 91.7421 87.0933 92.4888 86.96C93.2354 86.8267 93.9421 86.5867 94.6088 86.24C95.3021 85.8667 95.8621 85.36 96.2888 84.72C96.7421 84.0533 96.9688 83.2 96.9688 82.16C96.9688 80.9333 96.6488 79.96 96.0088 79.24C95.3954 78.52 94.5821 78 93.5688 77.68C92.5821 77.36 91.5288 77.2 90.4088 77.2C89.3154 77.2 88.2621 77.36 87.2488 77.68C86.2354 78 85.4088 78.52 84.7688 79.24C84.1288 79.96 83.8088 80.9333 83.8088 82.16C83.8088 83.2 84.0221 84.0533 84.4488 84.72C84.9021 85.36 85.4754 85.8667 86.1688 86.24C86.8621 86.5867 87.5821 86.8267 88.3288 86.96C89.0754 87.0933 89.7688 87.16 90.4088 87.16ZM90.4088 74.12C91.4221 74.12 92.3554 73.96 93.2088 73.64C94.0621 73.2933 94.7554 72.7867 95.2888 72.12C95.8488 71.4267 96.1288 70.56 96.1288 69.52C96.1554 68.2933 95.9021 67.32 95.3688 66.6C94.8354 65.88 94.1288 65.36 93.2488 65.04C92.3954 64.72 91.4488 64.56 90.4088 64.56C89.3421 64.56 88.3688 64.7333 87.4888 65.08C86.6354 65.4 85.9554 65.92 85.4488 66.64C84.9421 67.3333 84.6888 68.24 84.6888 69.36C84.6888 70.48 84.9554 71.4 85.4888 72.12C86.0488 72.8133 86.7554 73.32 87.6088 73.64C88.4888 73.96 89.4221 74.12 90.4088 74.12ZM108.412 90L125.812 61.72H129.332L111.972 90H108.412ZM126.892 90.24C125.612 90.24 124.532 89.96 123.652 89.4C122.798 88.84 122.145 88.0933 121.692 87.16C121.238 86.2 121.012 85.1333 121.012 83.96C121.012 82.7333 121.238 81.6533 121.692 80.72C122.145 79.7867 122.812 79.0533 123.692 78.52C124.572 77.9867 125.638 77.72 126.892 77.72C128.118 77.72 129.158 77.9867 130.012 78.52C130.865 79.0533 131.518 79.7867 131.972 80.72C132.425 81.6533 132.652 82.7333 132.652 83.96C132.652 85.1333 132.425 86.2 131.972 87.16C131.518 88.0933 130.865 88.84 130.012 89.4C129.158 89.96 128.118 90.24 126.892 90.24ZM126.852 87.4C127.545 87.4 128.092 87.24 128.492 86.92C128.918 86.6 129.212 86.1733 129.372 85.64C129.558 85.1067 129.652 84.5467 129.652 83.96C129.652 83.3733 129.558 82.8267 129.372 82.32C129.212 81.7867 128.918 81.36 128.492 81.04C128.092 80.72 127.545 80.56 126.852 80.56C125.785 80.56 125.025 80.9067 124.572 81.6C124.145 82.2933 123.932 83.08 123.932 83.96C123.932 84.8933 124.158 85.7067 124.612 86.4C125.065 87.0667 125.812 87.4 126.852 87.4ZM111.052 73.92C109.772 73.92 108.692 73.64 107.812 73.08C106.958 72.52 106.305 71.7733 105.852 70.84C105.425 69.88 105.212 68.8133 105.212 67.64C105.212 66.4133 105.425 65.3333 105.852 64.4C106.305 63.4667 106.972 62.7333 107.852 62.2C108.732 61.6667 109.798 61.4 111.052 61.4C112.305 61.4 113.358 61.6667 114.212 62.2C115.065 62.7333 115.705 63.4667 116.132 64.4C116.585 65.3333 116.812 66.4133 116.812 67.64C116.812 68.8133 116.585 69.88 116.132 70.84C115.705 71.7733 115.065 72.52 114.212 73.08C113.358 73.64 112.305 73.92 111.052 73.92ZM111.052 71.08C111.745 71.08 112.292 70.92 112.692 70.6C113.092 70.28 113.385 69.8533 113.572 69.32C113.758 68.7867 113.852 68.2267 113.852 67.64C113.852 67.0533 113.758 66.5067 113.572 66C113.385 65.4667 113.092 65.04 112.692 64.72C112.292 64.4 111.745 64.24 111.052 64.24C109.985 64.24 109.225 64.5867 108.772 65.28C108.318 65.9733 108.092 66.76 108.092 67.64C108.092 68.5733 108.318 69.3867 108.772 70.08C109.225 70.7467 109.985 71.08 111.052 71.08Z" fill="#0050C8"/>
<path d="M41.5073 50.4927C41.2271 50.2125 40.7729 50.2125 40.4927 50.4927L35.927 55.0584C35.6468 55.3386 35.6468 55.7929 35.927 56.073C36.2071 56.3532 36.6614 56.3532 36.9416 56.073L41 52.0146L45.0584 56.073C45.3386 56.3532 45.7929 56.3532 46.073 56.073C46.3532 55.7929 46.3532 55.3386 46.073 55.0584L41.5073 50.4927ZM40.2826 62.0007V62.7181H41.7174V62.0007H40.2826ZM40.2826 51V62.0007H41.7174V51H40.2826Z" fill="#0050C8"/>
<defs>
<linearGradient id="paint0_linear_10001_29764" x1="198.73" y1="118.677" x2="9.9227" y2="182.889" gradientUnits="userSpaceOnUse">
<stop stop-color="#81E062"/>
<stop offset="0.556949" stop-color="#0050C8" stop-opacity="0.2"/>
</linearGradient>
</defs>
</svg>
