<svg width="175" height="128" viewBox="0 0 175 128" fill="none" xmlns="http://www.w3.org/2000/svg">
<path d="M174.599 69.5291C171.934 57.2825 166.692 45.7434 159.223 35.6791C151.753 25.6147 142.227 17.2556 131.277 11.1575C120.327 5.05937 108.204 1.36195 95.7142 0.311005C83.2246 -0.739929 70.6544 0.8797 58.8392 5.06222C47.024 9.24474 36.2345 15.8943 27.188 24.5689C18.1414 33.2435 11.0452 43.7444 6.3709 55.3735C1.69662 67.0025 -0.448559 79.4933 0.0779583 92.0155C0.604476 104.538 3.79063 116.804 9.42461 128L18.7885 123.288C13.8232 113.421 11.0153 102.611 10.5513 91.5752C10.0873 80.5394 11.9778 69.5313 16.0972 59.2827C20.2167 49.034 26.4706 39.7796 34.4433 32.1347C42.4159 24.4898 51.9247 18.6296 62.3374 14.9435C72.7501 11.2575 83.8282 9.83008 94.8352 10.7563C105.842 11.6825 116.526 14.941 126.176 20.3152C135.827 25.6895 144.222 33.0564 150.805 41.926C157.388 50.7957 162.007 60.965 164.356 71.758L174.599 69.5291Z" fill="url(#paint0_linear_5313_27728)"/>
<path d="M58.924 106.416C57.156 106.416 55.4573 106.121 53.828 105.532C52.2333 104.943 50.8467 104.059 49.668 102.88C48.4893 101.667 47.6747 100.176 47.224 98.408H52.216C52.84 99.7253 53.8453 100.713 55.232 101.372C56.6533 101.996 58.0573 102.308 59.444 102.308C61.316 102.308 62.8587 101.927 64.072 101.164C65.32 100.367 66.2907 99.292 66.984 97.94C67.712 96.588 68.232 95.08 68.544 93.416C68.856 91.7173 69.012 89.9667 69.012 88.164C69.012 87.9907 69.012 87.8 69.012 87.592C69.012 87.384 69.012 87.1933 69.012 87.02C68.3533 88.372 67.4693 89.464 66.36 90.296C65.2507 91.0933 64.02 91.6827 62.668 92.064C61.316 92.4107 59.9467 92.584 58.56 92.584C56.4107 92.584 54.4347 92.1507 52.632 91.284C50.864 90.3827 49.4427 89.0827 48.368 87.384C47.328 85.6507 46.808 83.5533 46.808 81.092C46.808 78.6307 47.3453 76.4813 48.42 74.644C49.4947 72.8067 50.9853 71.3853 52.892 70.38C54.8333 69.34 57.0693 68.82 59.6 68.82C62.304 68.82 64.54 69.392 66.308 70.536C68.1107 71.68 69.5147 73.2053 70.52 75.112C71.56 77.0187 72.288 79.116 72.704 81.404C73.12 83.6573 73.328 85.9107 73.328 88.164C73.328 90.764 73.068 93.1733 72.548 95.392C72.028 97.576 71.196 99.5 70.052 101.164C68.908 102.828 67.4173 104.128 65.58 105.064C63.7427 105.965 61.524 106.416 58.924 106.416ZM59.236 88.424C60.7267 88.424 62.0787 88.112 63.292 87.488C64.54 86.864 65.528 85.9973 66.256 84.888C67.0187 83.7787 67.4 82.4787 67.4 80.988C67.4 79.3933 67.0533 78.0067 66.36 76.828C65.6667 75.6147 64.7133 74.6613 63.5 73.968C62.3213 73.2747 60.9693 72.928 59.444 72.928C57.884 72.928 56.4973 73.2747 55.284 73.968C54.1053 74.6613 53.1693 75.5973 52.476 76.776C51.7827 77.9547 51.436 79.2547 51.436 80.676C51.436 83.1027 52.1293 85.0093 53.516 86.396C54.9373 87.748 56.844 88.424 59.236 88.424ZM92.4181 106.416C90.7541 106.416 89.1248 106.243 87.5301 105.896C85.9701 105.515 84.5661 104.908 83.3181 104.076C82.0701 103.244 81.0648 102.152 80.3021 100.8C79.5741 99.4133 79.2101 97.732 79.2101 95.756C79.2101 94.3693 79.4528 93.104 79.9381 91.96C80.4234 90.816 81.1168 89.828 82.0181 88.996C82.9541 88.164 84.0461 87.5053 85.2941 87.02C83.9074 86.3613 82.8501 85.5467 82.1221 84.576C81.3941 83.5707 80.9088 82.5307 80.6661 81.456C80.4234 80.3813 80.3021 79.4107 80.3021 78.544C80.3021 76.8107 80.6314 75.3373 81.2901 74.124C81.9834 72.9107 82.9021 71.9053 84.0461 71.108C85.2248 70.3107 86.5248 69.7387 87.9461 69.392C89.4021 69.0107 90.8928 68.82 92.4181 68.82C93.9434 68.82 95.4168 69.0107 96.8381 69.392C98.2941 69.7387 99.5941 70.3107 100.738 71.108C101.917 71.9053 102.835 72.9107 103.494 74.124C104.187 75.3373 104.534 76.8107 104.534 78.544C104.534 79.4453 104.395 80.416 104.118 81.456C103.875 82.496 103.39 83.5013 102.662 84.472C101.934 85.408 100.877 86.2053 99.4901 86.864C100.807 87.3493 101.917 88.0253 102.818 88.892C103.754 89.7587 104.447 90.7813 104.898 91.96C105.383 93.104 105.626 94.3693 105.626 95.756C105.626 97.732 105.245 99.4133 104.482 100.8C103.754 102.152 102.749 103.244 101.466 104.076C100.218 104.908 98.8141 105.515 97.2541 105.896C95.6941 106.243 94.0821 106.416 92.4181 106.416ZM92.4181 102.308C93.2501 102.308 94.1514 102.221 95.1221 102.048C96.0928 101.875 97.0114 101.563 97.8781 101.112C98.7794 100.627 99.5074 99.968 100.062 99.136C100.651 98.2693 100.946 97.16 100.946 95.808C100.946 94.2133 100.53 92.948 99.6981 92.012C98.9008 91.076 97.8434 90.4 96.5261 89.984C95.2434 89.568 93.8741 89.36 92.4181 89.36C90.9968 89.36 89.6274 89.568 88.3101 89.984C86.9928 90.4 85.9181 91.076 85.0861 92.012C84.2541 92.948 83.8381 94.2133 83.8381 95.808C83.8381 97.16 84.1154 98.2693 84.6701 99.136C85.2594 99.968 86.0048 100.627 86.9061 101.112C87.8074 101.563 88.7434 101.875 89.7141 102.048C90.6848 102.221 91.5861 102.308 92.4181 102.308ZM92.4181 85.356C93.7354 85.356 94.9488 85.148 96.0581 84.732C97.1674 84.2813 98.0688 83.6227 98.7621 82.756C99.4901 81.8547 99.8541 80.728 99.8541 79.376C99.8888 77.7813 99.5594 76.516 98.8661 75.58C98.1728 74.644 97.2541 73.968 96.1101 73.552C95.0008 73.136 93.7701 72.928 92.4181 72.928C91.0314 72.928 89.7661 73.1533 88.6221 73.604C87.5128 74.02 86.6288 74.696 85.9701 75.632C85.3114 76.5333 84.9821 77.712 84.9821 79.168C84.9821 80.624 85.3288 81.82 86.0221 82.756C86.7501 83.6573 87.6688 84.316 88.7781 84.732C89.9221 85.148 91.1354 85.356 92.4181 85.356ZM115.822 106L138.442 69.236H143.018L120.45 106H115.822ZM139.846 106.312C138.182 106.312 136.778 105.948 135.634 105.22C134.524 104.492 133.675 103.521 133.086 102.308C132.496 101.06 132.202 99.6733 132.202 98.148C132.202 96.5533 132.496 95.1493 133.086 93.936C133.675 92.7227 134.542 91.7693 135.686 91.076C136.83 90.3827 138.216 90.036 139.846 90.036C141.44 90.036 142.792 90.3827 143.902 91.076C145.011 91.7693 145.86 92.7227 146.45 93.936C147.039 95.1493 147.334 96.5533 147.334 98.148C147.334 99.6733 147.039 101.06 146.45 102.308C145.86 103.521 145.011 104.492 143.902 105.22C142.792 105.948 141.44 106.312 139.846 106.312ZM139.794 102.62C140.695 102.62 141.406 102.412 141.926 101.996C142.48 101.58 142.862 101.025 143.07 100.332C143.312 99.6387 143.434 98.9107 143.434 98.148C143.434 97.3853 143.312 96.6747 143.07 96.016C142.862 95.3227 142.48 94.768 141.926 94.352C141.406 93.936 140.695 93.728 139.794 93.728C138.407 93.728 137.419 94.1787 136.83 95.08C136.275 95.9813 135.998 97.004 135.998 98.148C135.998 99.3613 136.292 100.419 136.882 101.32C137.471 102.187 138.442 102.62 139.794 102.62ZM119.254 85.096C117.59 85.096 116.186 84.732 115.042 84.004C113.932 83.276 113.083 82.3053 112.494 81.092C111.939 79.844 111.662 78.4573 111.662 76.932C111.662 75.3373 111.939 73.9333 112.494 72.72C113.083 71.5067 113.95 70.5533 115.094 69.86C116.238 69.1667 117.624 68.82 119.254 68.82C120.883 68.82 122.252 69.1667 123.362 69.86C124.471 70.5533 125.303 71.5067 125.858 72.72C126.447 73.9333 126.742 75.3373 126.742 76.932C126.742 78.4573 126.447 79.844 125.858 81.092C125.303 82.3053 124.471 83.276 123.362 84.004C122.252 84.732 120.883 85.096 119.254 85.096ZM119.254 81.404C120.155 81.404 120.866 81.196 121.386 80.78C121.906 80.364 122.287 79.8093 122.53 79.116C122.772 78.4227 122.894 77.6947 122.894 76.932C122.894 76.1693 122.772 75.4587 122.53 74.8C122.287 74.1067 121.906 73.552 121.386 73.136C120.866 72.72 120.155 72.512 119.254 72.512C117.867 72.512 116.879 72.9627 116.29 73.864C115.7 74.7653 115.406 75.788 115.406 76.932C115.406 78.1453 115.7 79.2027 116.29 80.104C116.879 80.9707 117.867 81.404 119.254 81.404Z" fill="#0166FF"/>
<path d="M27.7071 55.2929C27.3166 54.9024 26.6834 54.9024 26.2929 55.2929L19.9289 61.6569C19.5384 62.0474 19.5384 62.6805 19.9289 63.0711C20.3195 63.4616 20.9526 63.4616 21.3431 63.0711L27 57.4142L32.6569 63.0711C33.0474 63.4616 33.6805 63.4616 34.0711 63.0711C34.4616 62.6805 34.4616 62.0474 34.0711 61.6569L27.7071 55.2929ZM26 70V71H28V70H26ZM26 56V70H28V56H26Z" fill="#0166FF"/>
<defs>
<linearGradient id="paint0_linear_5313_27728" x1="201.733" y1="89.659" x2="24.3284" y2="170.044" gradientUnits="userSpaceOnUse">
<stop stop-color="#0166FF"/>
<stop offset="0.556949" stop-color="#BAD6FF"/>
</linearGradient>
</defs>
</svg>
