<svg width="509" height="32" viewBox="0 0 509 32" fill="none" xmlns="http://www.w3.org/2000/svg">
<g clip-path="url(#clip0_2662_3609)">
<path d="M508.194 6.65028C502.755 6.65028 497.325 6.75189 491.896 6.65028C489.647 6.59947 488.836 7.20915 488.88 9.42768C489.019 15.626 488.932 21.8244 488.932 28.0566V31.0372H481.82V21.5195C481.82 15.3212 481.82 9.12284 481.82 2.89062C481.82 1.6374 481.881 0.655155 483.642 0.672091C491.835 0.765235 500.019 0.799099 508.211 0.849905L508.194 6.65028Z" fill="#898995"/>
<path d="M435.232 31.0369H428.32V0.976595H435.214C435.214 4.31287 435.119 7.5221 435.284 10.7229C435.284 11.4765 436.295 12.8229 436.766 12.7975C438.369 12.6959 440.67 14.0592 441.455 11.5781C443.878 3.95721 449.77 0.680224 457.579 0.392322C461.506 0.202259 465.437 0.677909 469.197 1.79796C475.925 3.93182 479.124 9.29185 478.976 16.5995C478.854 23.1535 475.193 28.1918 468.656 30.3171C461.44 32.6542 454.206 32.5357 447.739 28.4119C445.243 26.7069 443.285 24.3616 442.082 21.6378C441.045 19.2922 439.895 18.5809 437.541 18.8858C436.835 18.9789 436.121 19.0551 435.206 19.1567L435.232 31.0369ZM448.366 15.8374C448.305 21.1128 450.903 24.2627 456.393 25.0333C458.836 25.372 461.316 25.372 463.758 25.0333C468.778 24.3559 471.602 21.2652 471.75 16.8535C471.916 11.2818 469.502 7.75919 464.264 6.85315C461.465 6.37045 458.6 6.37045 455.801 6.85315C450.798 7.81847 448.419 10.9261 448.366 15.8374Z" fill="#898995"/>
<path d="M282.043 23.5326C283.629 20.4165 284.971 17.7831 286.296 15.1496C288.431 10.9158 290.479 6.60573 292.745 2.4481C293.04 2.01343 293.424 1.64346 293.875 1.36199C294.325 1.08051 294.831 0.893792 295.36 0.813838C297.975 0.593678 300.633 0.737632 303.422 0.737632V31.0012H296.528V11.1106L295.857 10.8904C295.412 11.6694 294.942 12.4315 294.541 13.2275C292.005 18.3589 289.268 23.3887 287.045 28.6641C285.721 31.7802 283.289 30.9419 280.944 31.2044C278.774 31.4245 277.964 30.4338 277.153 28.7149C274.312 22.7197 271.279 16.8093 267.749 10.9327V31.0012H260.898V0.746082C263.818 0.746082 266.738 0.627548 269.614 0.83924C270.311 0.890047 271.139 1.93158 271.532 2.69367C275.009 9.42548 278.373 16.1912 282.043 23.5326Z" fill="#898995"/>
<path d="M105.011 15.2998C106.179 17.3151 107.94 19.2542 108.428 21.4473C109.43 25.9013 106.101 29.915 100.854 30.6094C96.9342 31.0067 92.9937 31.1791 89.053 31.1259C84.9392 31.2021 80.8341 31.1259 76.6157 31.1259C76.4823 30.4597 76.3863 29.7869 76.3281 29.1106C76.3281 20.3973 76.3281 11.6841 76.3281 2.9708C76.3281 1.53129 76.5809 0.650666 78.4025 0.684537C85.2878 0.811552 92.1906 0.608315 99.0585 0.989361C104.854 1.3196 108.21 5.02846 107.417 9.91432C107.077 11.8619 105.77 13.6486 105.011 15.2998ZM83.7626 25.1138C88.6085 25.1138 93.1842 25.19 97.7512 25.1138C99.6512 25.0715 101.063 24.1824 101.176 22.0993C101.247 21.6787 101.22 21.2481 101.097 20.8389C100.975 20.4297 100.76 20.052 100.469 19.7334C100.178 19.4148 99.8174 19.1632 99.4136 18.9968C99.0098 18.8304 98.5729 18.7534 98.1347 18.7715C93.4021 18.6191 88.6608 18.7207 83.7626 18.7207V25.1138ZM83.7626 12.9542C88.3296 12.9542 92.5392 13.022 96.7489 12.9542C98.6402 12.9034 100.131 12.0397 100.235 9.99052C100.357 8.22924 99.3636 6.93368 97.6205 6.86594C92.9924 6.68812 88.3644 6.80666 83.719 6.80666L83.7626 12.9542Z" fill="#898995"/>
<path d="M35.4138 24.9162L40.19 25.1872C40.3242 25.4565 40.4237 25.7409 40.4863 26.0339C40.9221 31.0553 40.9221 31.0553 35.6055 31.0553H0.132812V25.4327C5.19661 24.2642 6.16405 23.3666 6.60855 18.015C7.00075 13.2308 6.97461 8.42112 7.1402 3.61994C7.1402 2.77317 7.21864 1.92639 7.27093 0.935672C8.02448 0.818616 8.78376 0.73948 9.54572 0.698578C17.2852 0.698578 25.016 0.740927 32.7555 0.65625C34.795 0.65625 35.4748 1.28286 35.4486 3.19656C35.3528 9.31023 35.4486 15.4239 35.4486 21.5291L35.4138 24.9162ZM12.3434 24.823H28.0316V6.65984C23.9527 6.65984 20.1091 6.75299 16.2655 6.65984C14.1737 6.5921 13.6508 7.35418 13.5811 9.24248C13.3196 14.3739 12.7792 19.5307 12.3434 24.823Z" fill="#898995"/>
<path d="M202 0.0898438C207.744 0.174521 213.052 1.43622 217.026 5.60232C224.818 13.7906 220.974 27.1187 209.879 30.5397C204.85 32.1118 199.45 32.1767 194.383 30.7259C186.103 28.4143 181.98 22.6478 182.59 14.3494C183.122 7.25351 188.944 1.52936 196.788 0.4709C198.505 0.242273 200.266 0.199924 202 0.0898438ZM201.713 6.44909C192.125 6.44909 186.826 13.3587 190.896 20.6409C193.145 24.6716 197.259 25.4167 201.495 25.4506C205.73 25.4845 210.01 24.8663 212.502 20.8357C212.813 20.3034 213.05 19.7341 213.208 19.1422C215.483 11.5805 210.777 6.43215 201.713 6.44909Z" fill="#898995"/>
<path d="M51.6336 6.48271V12.9012H71.6796C71.7755 14.2052 71.8103 15.2976 71.9324 16.3814C72.1328 18.1681 71.4007 18.8455 69.4397 18.8032C64.6548 18.7016 59.8525 18.8032 55.0763 18.8032C51.4593 18.8032 51.4506 18.8032 51.4854 22.2411C51.4854 23.0878 51.5726 23.9346 51.6336 25.0693H72.647V30.9967H44.5391V0.71619H55.4162C60.1052 0.71619 64.8117 0.894023 69.492 0.64846C72.4466 0.487574 73.2833 1.56296 72.8911 4.07786C72.7865 4.76375 72.8126 5.46659 72.7603 6.48271H51.6336Z" fill="#898995"/>
<path d="M119.306 6.61086C118.957 6.97497 118.853 7.03424 118.835 7.10198C117.903 12.8261 118.033 12.9786 124.021 12.9786H138.838V18.7789H123.951C117.972 18.7789 117.972 18.7789 118.922 25.0111H139.84V30.9978H111.68V0.9375H139.927V6.61086H119.306Z" fill="#898995"/>
<path d="M336.266 1.10244V6.48788H315.453C315.258 6.80289 315.1 7.13802 314.982 7.48706C314.398 12.9741 314.398 12.9741 320.159 12.9741H335.159V18.7745H320.212C314.233 18.7745 314.111 18.8846 315.244 25.0575H336.161V30.9849H307.766V25.2523C307.766 17.8346 307.766 10.4084 307.766 2.98227C307.766 1.75445 307.766 0.729866 309.561 0.738333C318.12 0.797607 326.687 0.789136 335.246 0.814539C335.597 0.870888 335.939 0.967531 336.266 1.10244Z" fill="#898995"/>
<path d="M365.146 1.26716C365.371 1.13872 365.604 1.02281 365.843 0.919983C372.17 -0.0368662 372.345 0.0732197 372.345 6.05988V30.9887H365.233V18.9223C359.428 18.9223 353.902 18.88 348.438 18.9985C347.967 18.9985 347.156 20.1078 347.113 20.7344C346.956 23.1646 347.061 25.6118 347.034 28.0505C347.034 28.9904 346.93 29.9218 346.869 30.9887H339.992V0.733693C341.709 0.621242 343.432 0.649573 345.143 0.818375C345.578 0.958434 345.971 1.20114 346.286 1.52477C346.601 1.84841 346.828 2.24286 346.947 2.6728C347.132 5.28279 347.155 7.90117 347.017 10.5139C346.947 12.2497 347.47 13.0118 349.484 12.9695C354.608 12.8509 359.733 12.9272 365.172 12.9272L365.146 1.26716Z" fill="#898995"/>
<path d="M231.892 31.018H225.016V0.898438H256.043V30.9333H249.228V6.69881C243.589 6.69881 238.29 6.65647 232.99 6.80042C232.598 6.80042 231.945 8.23995 231.936 9.01898C231.849 15.2935 231.892 21.5766 231.892 27.8596V31.018Z" fill="#898995"/>
<path d="M143.562 25.2229C149.062 24.7064 150.247 23.5294 150.291 18.5165C150.343 12.7077 150.291 6.89039 150.291 0.734375H158.946C164.742 0.734375 170.537 0.734375 176.377 0.734375C177.806 0.734375 178.809 0.852922 178.791 2.66501C178.713 11.827 178.748 20.9806 178.73 30.1427C178.678 30.4331 178.593 30.717 178.477 30.9894H171.862C171.793 30.1427 171.662 29.2197 171.662 28.3052C171.662 21.9375 171.592 15.6036 171.662 9.20207C171.662 7.3053 171.121 6.55168 169.047 6.66176C165.291 6.79724 161.525 6.66176 157.15 6.66176C157.15 9.32908 157.22 11.8186 157.15 14.2827C157.153 16.9858 156.984 19.6864 156.645 22.3693C155.642 28.8386 151.415 31.6838 143.746 30.9217C143.702 30.0749 143.641 29.1181 143.615 28.1951C143.589 27.2721 143.562 26.3237 143.562 25.2229Z" fill="#898995"/>
<path d="M407.978 6.65843C404.544 6.65843 401.415 6.78543 398.304 6.61607C396.029 6.48906 395.48 7.34429 395.515 9.34267C395.62 15.541 395.515 21.7394 395.515 27.9716V30.9861H388.394V6.76003H375.844V0.925781H407.944L407.978 6.65843Z" fill="#898995"/>
</g>
<defs>
<clipPath id="clip0_2662_3609">
<rect width="508.062" height="31.7538" fill="white" transform="translate(0.132812 0.0898438)"/>
</clipPath>
</defs>
</svg>
