<svg width="255" height="64" viewBox="0 0 255 64" fill="none" xmlns="http://www.w3.org/2000/svg">
<g clip-path="url(#clip0_2662_3516)">
<path fill-rule="evenodd" clip-rule="evenodd" d="M34.5192 46.7348V1.98047C40.2432 15.0122 59.9264 22.6854 68.1381 21.9274C59.8812 32.7501 47.6747 40.6565 34.5192 46.7348ZM0.476562 63.1657C30.8248 54.2229 54.2319 42.6646 68.2666 26.1439V28.648C55.1308 44.9285 31.7277 58.9524 16.9792 63.1657H0.476562ZM18.2516 53.2985V29.281C19.3515 30.7206 20.5409 32.0096 21.7945 33.1608V52.0079C20.6129 52.4494 19.4315 52.8792 18.2516 53.2985ZM24.529 50.9651V16.0561C26.5284 19.3997 29.0277 22.1464 31.7854 24.3801V47.9666C29.3849 49.0211 26.9602 50.0191 24.529 50.9651Z" fill="#898995"/>
<path fill-rule="evenodd" clip-rule="evenodd" d="M54.7582 63.1657H68.2578V46.015C64.1576 52.3591 59.4793 59.0315 54.7582 63.1657ZM29.8516 63.1657C46.9118 54.1497 59.4465 43.7135 68.2578 31.5703V41.1393C65.0847 48.0526 55.2329 58.5112 48.691 63.1657H29.8516Z" fill="#898995"/>
<path d="M79.25 56.193V63.1569H81.107V57.7159H84.1896V56.193H79.25ZM91.9892 61.2257H93.6326C94.0195 61.2272 94.3507 61.1993 94.6246 61.1467C94.9 61.0926 95.1276 61.0043 95.307 60.8837C95.4881 60.7644 95.629 60.6036 95.7326 60.4055C95.8347 60.2059 95.9074 59.9628 95.9494 59.6735C95.9909 59.3841 96.0111 59.0437 96.0095 58.6538C96.0111 58.2003 95.9679 57.8164 95.8812 57.5008C95.7944 57.1866 95.6567 56.9329 95.4695 56.7409C95.2806 56.5491 95.0347 56.4081 94.7329 56.3216C94.4296 56.2349 94.0629 56.1917 93.6326 56.193H90.1322V63.1569H91.9892V61.2257ZM91.9892 57.7159H93.2612C93.4408 57.7145 93.5861 57.7313 93.6975 57.7639C93.809 57.7978 93.8927 57.8521 93.9514 57.9264C94.0087 58.0007 94.0475 58.0981 94.069 58.2205C94.0891 58.3442 94.0984 58.4942 94.0968 58.6723C94.0984 58.8951 94.0875 59.0762 94.066 59.2137C94.0443 59.35 94.0024 59.4538 93.9436 59.5249C93.8849 59.5962 93.7998 59.644 93.6899 59.6688C93.58 59.6937 93.436 59.7045 93.2612 59.7029H91.9892V57.7159ZM101.46 56.193L103.856 61.2628C103.826 61.3527 103.795 61.4284 103.76 61.4887C103.724 61.5475 103.678 61.5956 103.622 61.6312C103.565 61.6651 103.489 61.6899 103.396 61.7053C103.303 61.7209 103.184 61.727 103.039 61.727C102.913 61.7286 102.802 61.724 102.701 61.7163C102.601 61.707 102.509 61.6899 102.426 61.662V63.1663C102.568 63.1895 102.714 63.2095 102.862 63.225C103.011 63.2406 103.175 63.2498 103.354 63.2498C103.681 63.2514 103.972 63.1973 104.229 63.0906C104.485 62.9836 104.718 62.8149 104.925 62.586C105.134 62.3555 105.327 62.0567 105.509 61.6899L108.22 56.193H106.075L104.877 59.1829H104.793L103.568 56.193H101.46ZM113.93 56.193V63.1569H115.787V57.8088H118.211V63.1569H120.068V56.193H113.93ZM126.289 56.193V63.1569H128.146V57.8088H130.569V63.1569H132.426V56.193H126.289ZM142.863 61.9592L143.225 63.1569H145.119L143.002 56.193H140.179L138.09 63.1569H140.021L140.365 61.9592H142.863ZM142.482 60.6128H140.764L141.609 57.5859H141.628L142.482 60.6128ZM160.997 56.193H159.14V63.1569H160.997V60.4272H161.554L163.494 63.1569H165.797L163.142 59.61L165.593 56.193H163.345L161.554 58.8116H160.997V56.193ZM174.451 63.2498C174.829 63.2514 175.181 63.2298 175.51 63.1863C175.837 63.1415 176.134 63.0656 176.399 62.9558C176.664 62.8459 176.891 62.6927 177.082 62.4977C177.272 62.3027 177.417 62.0536 177.518 61.7518C177.62 61.4516 177.671 61.0864 177.672 60.6593V58.6909C177.671 58.2637 177.62 57.9001 177.518 57.5998C177.417 57.301 177.272 57.0551 177.082 56.8617C176.891 56.6698 176.664 56.5196 176.399 56.4129C176.134 56.306 175.837 56.2303 175.51 56.1885C175.181 56.1466 174.829 56.1266 174.451 56.1281C174.073 56.1266 173.721 56.1466 173.392 56.1885C173.065 56.2303 172.768 56.306 172.503 56.4129C172.238 56.5196 172.011 56.6698 171.82 56.8617C171.631 57.0551 171.485 57.301 171.384 57.5998C171.282 57.9001 171.231 58.2637 171.23 58.6909V60.6593C171.231 61.0864 171.282 61.4516 171.384 61.7518C171.485 62.0536 171.631 62.3027 171.82 62.4977C172.011 62.6927 172.238 62.8459 172.503 62.9558C172.768 63.0656 173.065 63.1415 173.392 63.1863C173.721 63.2298 174.073 63.2514 174.451 63.2498ZM174.451 61.6342C174.211 61.6358 174.007 61.6234 173.84 61.5956C173.671 61.5692 173.537 61.5149 173.435 61.4346C173.332 61.3541 173.259 61.2349 173.209 61.0786C173.163 60.9208 173.141 60.7135 173.141 60.455V58.8859C173.141 58.6274 173.163 58.4215 173.209 58.2683C173.259 58.1152 173.332 58.0006 173.435 57.9248C173.537 57.849 173.671 57.7994 173.84 57.7762C174.007 57.7515 174.211 57.7405 174.451 57.7437C174.692 57.7405 174.896 57.7531 175.064 57.7762C175.231 57.801 175.366 57.8521 175.467 57.9279C175.57 58.0038 175.645 58.1198 175.693 58.273C175.739 58.4262 175.762 58.6304 175.761 58.8859V60.455C175.762 60.7135 175.739 60.9208 175.693 61.0786C175.645 61.2349 175.57 61.3541 175.467 61.4346C175.366 61.5149 175.231 61.5692 175.064 61.5956C174.896 61.6234 174.692 61.6358 174.451 61.6342ZM183.709 56.193V63.1569H185.565L185.379 57.818L185.463 57.7994L187.218 63.1569H188.824L190.571 57.7994L190.653 57.818L190.468 63.1569H192.325V56.193H189.307L188.045 60.5664H187.98L186.652 56.193H183.709ZM198.546 56.193V63.1569H200.403V57.8088H202.826V63.1569H204.684V56.193H198.546ZM215.12 61.9592L215.482 63.1569H217.376L215.259 56.193H212.437L210.347 63.1569H212.279L212.622 61.9592H215.12ZM214.739 60.6128H213.022L213.867 57.5859H213.885L214.739 60.6128ZM224.897 56.193H223.041V63.1569H224.897V60.4272H227.321V63.1569H229.177V56.193H227.321V58.8116H224.897V56.193ZM237.163 56.193H235.399V63.1569H237.925L240.013 58.5701H240.078V63.1569H241.842V56.193H239.4L237.228 60.7798H237.163V56.193ZM249.828 56.193H248.064V63.1569H250.59L252.678 58.5701H252.743V63.1569H254.507V56.193H252.065L249.893 60.7798H249.828V56.193ZM250.284 54.2617H249.503C249.503 54.5727 249.541 54.8236 249.614 55.0124C249.689 55.2012 249.797 55.3452 249.936 55.4426C250.078 55.5385 250.247 55.6035 250.448 55.636C250.649 55.6686 250.875 55.684 251.129 55.6825C251.38 55.684 251.605 55.6686 251.807 55.636C252.005 55.6035 252.177 55.5385 252.316 55.4426C252.458 55.3452 252.566 55.2012 252.64 55.0124C252.715 54.8236 252.753 54.5727 252.753 54.2617H251.973C251.975 54.4243 251.946 54.5513 251.891 54.641C251.834 54.7323 251.745 54.7957 251.621 54.8314C251.495 54.8684 251.332 54.8855 251.129 54.8839C250.925 54.8855 250.762 54.8684 250.636 54.8314C250.513 54.7957 250.422 54.7323 250.367 54.641C250.309 54.5513 250.282 54.4243 250.284 54.2617Z" fill="#898995"/>
<path d="M89.0354 30.263V32.1354H85.8551C85.1322 32.1305 84.4633 32.1454 83.8392 32.1852C83.2151 32.2248 82.6454 32.314 82.1203 32.4523C81.6004 32.591 81.1296 32.8044 80.7086 33.1015C80.2926 33.3936 79.9258 33.7948 79.614 34.3051C79.5299 34.4439 79.4257 34.652 79.3017 34.9392C79.173 35.2266 79.0493 35.6029 78.9253 36.0784C78.8014 36.5539 78.6974 37.1484 78.6133 37.8569C78.5339 38.5651 78.4896 39.4124 78.4844 40.3979C78.4844 40.8585 78.4996 41.3589 78.5242 41.8987C78.5538 42.4438 78.5985 42.9936 78.6678 43.5534C78.7321 44.1082 78.826 44.638 78.95 45.1432C79.069 45.6436 79.2225 46.0845 79.4059 46.461C79.6932 47.0255 80.0398 47.4765 80.4561 47.8081C80.8672 48.1352 81.3229 48.3829 81.8233 48.5366C82.3233 48.695 82.8435 48.7942 83.3883 48.8385C83.9332 48.8831 84.4782 48.903 85.023 48.8982H89.0354V51.0677H95.7524V48.8982H99.7649C100.309 48.903 100.854 48.8831 101.399 48.8385C101.944 48.7942 102.464 48.695 102.965 48.5366C103.465 48.3829 103.921 48.1352 104.332 47.8081C104.748 47.4765 105.095 47.0255 105.382 46.461C105.565 46.0845 105.719 45.6436 105.838 45.1432C105.961 44.638 106.055 44.1082 106.12 43.5534C106.189 42.9936 106.239 42.4438 106.264 41.8987C106.293 41.3589 106.303 40.8585 106.303 40.3979C106.298 39.4124 106.259 38.5651 106.175 37.8569C106.09 37.1484 105.986 36.5539 105.862 36.0784C105.739 35.6029 105.615 35.2266 105.491 34.9392C105.362 34.652 105.258 34.4439 105.174 34.3051C104.862 33.7948 104.495 33.3936 104.079 33.1015C103.658 32.8044 103.187 32.591 102.667 32.4523C102.142 32.314 101.573 32.2248 100.948 32.1852C100.324 32.1454 99.6556 32.1305 98.9323 32.1354H95.7524V30.263H89.0354ZM254.5 30.263H247.783V37.6337H240.235V30.263H233.517V51.0677H240.235V42.8055H247.783V51.0677H254.5V30.263ZM207.116 51.0677H214.189L215.824 46.7879H223.313L224.949 51.0677H232.022L224.325 32.5515C224.077 31.9771 223.785 31.5213 223.448 31.1796C223.112 30.8376 222.734 30.5852 222.329 30.4165C221.918 30.253 221.476 30.1442 221.016 30.0947C220.549 30.0452 220.07 30.0206 219.57 30.0253C218.771 30.0253 218.103 30.0847 217.563 30.2036C217.023 30.3176 216.582 30.4859 216.235 30.7088C215.885 30.9268 215.602 31.1943 215.383 31.5065C215.161 31.8135 214.972 32.1652 214.814 32.5515L207.116 51.0677ZM219.301 36.7721C219.322 36.7175 219.346 36.6581 219.376 36.5887C219.406 36.5193 219.441 36.4599 219.474 36.4104C219.504 36.3558 219.539 36.331 219.57 36.3262C219.598 36.331 219.633 36.3558 219.663 36.4104C219.698 36.4599 219.733 36.5193 219.762 36.5887C219.792 36.6581 219.817 36.7175 219.836 36.7721L221.71 42.0327H217.429L219.301 36.7721ZM198.096 38.4661C198.187 38.1886 198.26 37.9954 198.329 37.8816C198.395 37.7725 198.453 37.7182 198.512 37.7229C198.577 37.7182 198.636 37.7577 198.691 37.8519C198.745 37.9459 198.776 38.1292 198.78 38.4068L198.542 51.0677H205.318V33.6812C205.323 33.4184 205.299 33.1313 205.239 32.8092C205.185 32.487 205.066 32.1652 204.883 31.8431C204.699 31.5162 204.423 31.2191 204.051 30.9416C203.674 30.6693 203.178 30.4511 202.554 30.2829C201.93 30.1146 201.148 30.0303 200.206 30.0253C199.757 30.0153 199.276 30.0452 198.771 30.1095C198.264 30.1689 197.759 30.3127 197.264 30.5356C196.769 30.7534 196.313 31.1002 195.892 31.566C195.476 32.0365 195.129 32.6704 194.857 33.473L191.499 43.5782C191.479 43.6571 191.434 43.7663 191.364 43.9148C191.296 44.0686 191.217 44.2022 191.128 44.3309C191.044 44.4549 190.959 44.5192 190.874 44.5292C190.796 44.5192 190.712 44.4549 190.621 44.3309C190.532 44.2022 190.453 44.0686 190.385 43.9148C190.32 43.7663 190.275 43.6571 190.25 43.5782L186.892 33.473C186.62 32.6704 186.272 32.0365 185.857 31.566C185.441 31.1002 184.985 30.7534 184.49 30.5356C183.994 30.3127 183.494 30.1689 182.994 30.1095C182.487 30.0452 182.017 30.0153 181.571 30.0253C181.389 30.0206 181.136 30.0303 180.824 30.0401C180.508 30.0552 180.155 30.0947 179.769 30.1589C179.387 30.2235 179.001 30.3324 178.615 30.481C178.228 30.6298 177.872 30.8427 177.55 31.1102C177.223 31.3777 176.961 31.7194 176.767 32.1405C176.569 32.5615 176.465 33.0767 176.461 33.6812V51.0677H183.207L182.999 38.4068C182.999 38.3323 182.999 38.2432 182.999 38.1392C183.003 38.03 183.022 37.936 183.057 37.8519C183.088 37.7725 183.146 37.7282 183.237 37.7229C183.31 37.7282 183.384 37.8071 183.454 37.9511C183.529 38.0946 183.592 38.268 183.653 38.4661L186.862 48.5116C186.976 48.8932 187.116 49.2499 187.278 49.5865C187.436 49.9234 187.66 50.2208 187.943 50.4785C188.224 50.736 188.6 50.9341 189.072 51.0824C189.546 51.2264 190.146 51.3006 190.874 51.3053C191.602 51.3006 192.207 51.2264 192.677 51.0824C193.149 50.9341 193.525 50.736 193.808 50.4785C194.089 50.2208 194.313 49.9234 194.476 49.5865C194.635 49.2499 194.773 48.8932 194.887 48.5116L198.096 38.4661ZM162.902 51.0677V36.7721C162.897 36.5887 162.908 36.4006 162.922 36.207C162.941 36.0141 162.997 35.8555 163.081 35.7318C163.224 35.5732 163.408 35.4841 163.635 35.4595C163.864 35.4344 164.081 35.4248 164.299 35.4344H174.97V30.263H159.485C158.974 30.2681 158.503 30.367 158.073 30.5553C157.642 30.7434 157.29 30.9864 157.018 31.2737C156.755 31.5608 156.562 31.8631 156.448 32.1752C156.329 32.487 156.255 32.8044 156.225 33.1263C156.195 33.4432 156.18 33.7602 156.185 34.0674V51.0677H162.902ZM130.387 51.0677H137.46L139.095 46.7879H146.585L148.219 51.0677H155.293L147.595 32.5515C147.348 31.9771 147.055 31.5213 146.718 31.1796C146.382 30.8376 146.005 30.5852 145.599 30.4165C145.188 30.253 144.747 30.1442 144.286 30.0947C143.821 30.0452 143.34 30.0206 142.84 30.0253C142.043 30.0253 141.374 30.0847 140.834 30.2036C140.294 30.3176 139.853 30.4859 139.506 30.7088C139.155 30.9268 138.872 31.1943 138.654 31.5065C138.431 31.8135 138.243 32.1652 138.085 32.5515L130.387 51.0677ZM142.573 36.7721C142.592 36.7175 142.617 36.6581 142.647 36.5887C142.677 36.5193 142.711 36.4599 142.746 36.4104C142.775 36.3558 142.81 36.331 142.84 36.3262C142.87 36.331 142.904 36.3558 142.934 36.4104C142.969 36.4599 143.004 36.5193 143.033 36.5887C143.063 36.6581 143.088 36.7175 143.108 36.7721L144.98 42.0327H140.7L142.573 36.7721ZM105.193 51.0677H112.327L117.349 37.3071C117.369 37.2623 117.394 37.203 117.429 37.1237C117.458 37.0444 117.498 36.9702 117.537 36.9056C117.582 36.8413 117.627 36.8067 117.676 36.8016C117.726 36.8067 117.77 36.8413 117.815 36.9056C117.854 36.9702 117.894 37.0444 117.924 37.1237C117.959 37.203 117.983 37.2623 118.003 37.3071L123.026 51.0677H130.159L122.164 32.1652C121.941 31.6649 121.649 31.2687 121.277 30.9764C120.911 30.6891 120.509 30.471 120.078 30.3375C119.643 30.1987 119.217 30.1146 118.796 30.0747C118.375 30.0352 118.003 30.0206 117.676 30.0253C117.349 30.0206 116.978 30.0352 116.557 30.0747C116.136 30.1146 115.71 30.1987 115.279 30.3375C114.843 30.471 114.441 30.6891 114.075 30.9764C113.703 31.2687 113.411 31.6649 113.188 32.1652L105.193 51.0677ZM89.0354 43.7266H88.441C87.8714 43.7266 87.3958 43.6671 87.0243 43.5534C86.6478 43.4394 86.3506 43.2759 86.1228 43.0579C85.8999 42.8401 85.7314 42.5773 85.6174 42.2704C85.5282 42.0327 85.4688 41.775 85.4293 41.4977C85.3945 41.2152 85.3799 40.8983 85.3799 40.5463C85.3799 40.0164 85.3994 39.5955 85.444 39.2784C85.4888 38.9613 85.558 38.7138 85.6474 38.5255C85.7909 38.2086 85.9891 37.9659 86.2415 37.7876C86.499 37.6089 86.7964 37.4853 87.1333 37.4108C87.4652 37.3367 87.8219 37.3019 88.2033 37.3071H89.0354V43.7266ZM95.7524 43.7266V37.3071H96.5845C96.9659 37.3019 97.3227 37.3367 97.6596 37.4108C97.9912 37.4853 98.2885 37.6089 98.546 37.7876C98.7987 37.9659 99.0016 38.2086 99.1404 38.5255C99.2296 38.7138 99.299 38.9613 99.3438 39.2784C99.3881 39.5955 99.4079 40.0164 99.4079 40.5463C99.4079 40.8983 99.3932 41.2152 99.3586 41.4977C99.3187 41.775 99.2593 42.0327 99.1703 42.2704C99.0563 42.5773 98.888 42.8401 98.6651 43.0579C98.4421 43.2759 98.14 43.4394 97.7685 43.5534C97.3919 43.6671 96.9164 43.7266 96.3467 43.7266H95.7524Z" fill="#898995"/>
</g>
<defs>
<clipPath id="clip0_2662_3516">
<rect width="254.031" height="63.5077" fill="white" transform="translate(0.476562 0.390625)"/>
</clipPath>
</defs>
</svg>
