<svg xmlns="http://www.w3.org/2000/svg" width="257" height="81" fill="none"><g clip-path="url(#a)"><path fill="#898995" d="M40.565 80.433H20.458C8.753 80.395.314 71.974.281 60.355v-39.13C.281 9.042 8.623.8 20.931.788h39.37c12.385 0 20.775 8.346 20.797 20.64v38.353c0 12.478-8.38 20.678-20.997 20.678l-19.536-.027Z"/><path fill="#FAFCFF" d="M63.241 41.334v15.92c0 2.576-1.021 4.553-3.52 5.536-3.658 1.437-6.946-1.194-6.99-5.704-.065-8.006 0-16.011 0-24.017 0-4.418 0-4.418-4.466-4.418-4.467 0-9.053.113-13.586-.043-2.537-.092-3.298.864-3.26 3.3.123 6.021.123 12.046 0 18.075a13.337 13.337 0 0 1-1.114 5.176 13.407 13.407 0 0 1-3.043 4.345 13.499 13.499 0 0 1-4.498 2.835c-1.674.638-3.46.939-5.251.883-3.26-.054-5.695-1.993-5.978-4.732-.282-2.738 1.63-4.786 4.93-5.401 4.346-.843 4.591-1.119 4.596-5.402V25.83c0-4.894 2.593-7.433 7.565-7.444a5696.4 5696.4 0 0 1 27.17 0c4.794 0 7.397 2.55 7.456 7.314.038 5.197-.01 10.399-.01 15.633Z"/></g><path fill="#898995" d="M116.941 51.508h1.89l3.138 7.296 3.139-7.296h1.889v8.988h-1.215V52.84l-3.287 7.657h-1.051l-3.287-7.657v7.657h-1.216v-8.988Zm12.953 0h1.216v7.263l5.472-7.263h1.216v8.988h-1.216v-7.263l-5.472 7.263h-1.216v-8.988Zm10.802 0h1.216v4.01l4.108-4.01h1.578l-4.486 4.354 4.486 4.634h-1.594l-4.092-4.24v4.24h-1.216v-8.988Zm8.845 0h1.216v1.545a3.738 3.738 0 0 1 1.462-1.315c.603-.296 1.293-.444 2.071-.444.668 0 1.287.121 1.857.362.58.241 1.084.575 1.511 1.002.427.417.762.915 1.003 1.496.241.57.361 1.188.361 1.856 0 .658-.12 1.276-.361 1.857a4.665 4.665 0 0 1-1.003 1.495 4.751 4.751 0 0 1-1.511.986 4.884 4.884 0 0 1-1.89.362c-.756 0-1.43-.148-2.021-.444a3.853 3.853 0 0 1-1.479-1.314v4.699h-1.216V51.508Zm4.699 8.084c.504 0 .97-.087 1.397-.262a3.552 3.552 0 0 0 1.134-.756c.318-.318.564-.69.739-1.118.187-.438.28-.909.28-1.413 0-.526-.093-1.013-.28-1.462a3.291 3.291 0 0 0-.739-1.15 3.338 3.338 0 0 0-1.134-.74 3.657 3.657 0 0 0-1.446-.28 3.454 3.454 0 0 0-2.497 1.052c-.318.318-.57.696-.756 1.134-.175.438-.263.91-.263 1.413 0 .504.088.975.263 1.413.186.439.438.816.756 1.134.328.318.706.57 1.133.756.439.186.91.28 1.413.28Zm6.978-3.582c0-.679.115-1.309.345-1.89a4.436 4.436 0 0 1 1.002-1.495c.428-.416.931-.739 1.512-.969a4.925 4.925 0 0 1 1.906-.361c.657 0 1.265.12 1.824.361.57.241 1.057.575 1.462 1.002.417.417.74.915.97 1.496.241.57.361 1.194.361 1.873 0 .668-.115 1.292-.345 1.873a4.524 4.524 0 0 1-.953 1.479 4.417 4.417 0 0 1-1.462.986 4.745 4.745 0 0 1-1.824.345c-.69 0-1.331-.115-1.923-.345a4.753 4.753 0 0 1-1.511-.986 4.667 4.667 0 0 1-1.003-1.495 4.837 4.837 0 0 1-.361-1.874Zm4.765 3.582a3.48 3.48 0 0 0 1.364-.262 3.181 3.181 0 0 0 1.068-.724 3.38 3.38 0 0 0 .69-1.133 3.82 3.82 0 0 0 .263-1.43c0-.526-.088-1.013-.263-1.462a3.108 3.108 0 0 0-.723-1.15 3.2 3.2 0 0 0-1.101-.74 3.382 3.382 0 0 0-1.397-.28c-.492 0-.953.094-1.38.28a3.12 3.12 0 0 0-1.084.756 3.564 3.564 0 0 0-.707 1.15 3.82 3.82 0 0 0-.263 1.43c0 .515.088.991.263 1.43.175.426.422.799.74 1.117.317.317.69.57 1.117.756a3.77 3.77 0 0 0 1.413.262Zm7.169-8.084h1.216v1.545a3.73 3.73 0 0 1 1.462-1.315c.602-.296 1.293-.444 2.07-.444.669 0 1.287.121 1.857.362a4.61 4.61 0 0 1 1.512 1.002c.427.417.761.915 1.002 1.496.241.57.362 1.188.362 1.856a4.663 4.663 0 0 1-1.364 3.352 4.745 4.745 0 0 1-1.512.986 4.88 4.88 0 0 1-1.89.362c-.755 0-1.429-.148-2.021-.444a3.858 3.858 0 0 1-1.478-1.314v4.699h-1.216V51.508Zm4.699 8.084a3.65 3.65 0 0 0 1.397-.262 3.537 3.537 0 0 0 1.133-.756c.318-.318.565-.69.74-1.118.186-.438.279-.909.279-1.413 0-.526-.093-1.013-.279-1.462a3.293 3.293 0 0 0-.74-1.15 3.324 3.324 0 0 0-1.133-.74 3.657 3.657 0 0 0-1.446-.28c-.493 0-.953.094-1.381.28a3.465 3.465 0 0 0-1.117.772 3.552 3.552 0 0 0-.756 1.134c-.175.438-.263.91-.263 1.413 0 .504.088.975.263 1.413.187.439.438.816.756 1.134.329.318.707.57 1.134.756.438.186.909.28 1.413.28Zm6.977-3.565c0-.68.121-1.304.362-1.873.241-.581.57-1.08.986-1.496a4.61 4.61 0 0 1 1.512-1.002 4.835 4.835 0 0 1 1.873-.361c.788 0 1.462.142 2.021.427.558.285 1.068.745 1.528 1.38v-1.594h1.216v8.988h-1.216V58.92a6.097 6.097 0 0 1-.74.821c-.241.23-.498.416-.772.559a3.405 3.405 0 0 1-.887.312 5.204 5.204 0 0 1-1.052.099c-.69 0-1.331-.115-1.922-.345a4.899 4.899 0 0 1-1.545-.986 4.476 4.476 0 0 1-1.002-1.48 4.837 4.837 0 0 1-.362-1.872Zm1.233-.05c0 .504.093.975.279 1.414.186.438.438.821.756 1.15.329.328.712.586 1.15.772.438.186.904.28 1.397.28s.947-.094 1.364-.28a3.404 3.404 0 0 0 1.84-1.906c.175-.45.263-.926.263-1.43 0-.514-.093-.985-.279-1.413a3.341 3.341 0 0 0-.74-1.133 3.328 3.328 0 0 0-1.134-.74 3.496 3.496 0 0 0-1.413-.28c-.482 0-.936.094-1.364.28a3.504 3.504 0 0 0-1.1.772c-.318.318-.57.696-.756 1.134a3.587 3.587 0 0 0-.263 1.38Zm13.812-7.739c0 .92.428 1.38 1.282 1.38.854 0 1.282-.46 1.282-1.38h1.216c-.121.701-.395 1.233-.822 1.594-.416.362-.975.542-1.676.542s-1.265-.18-1.692-.542c-.417-.361-.685-.893-.806-1.594h1.216Zm-2.662 3.27h1.216v7.263l5.472-7.263h1.216v8.988h-1.216v-7.263l-5.472 7.263h-1.216v-8.988Zm10.458 4.502c0-.679.115-1.309.345-1.89a4.436 4.436 0 0 1 1.002-1.495c.427-.416.931-.739 1.512-.969a4.921 4.921 0 0 1 1.906-.361c.657 0 1.265.12 1.824.361a4.298 4.298 0 0 1 1.462 1.002c.416.417.74.915.97 1.496.241.57.361 1.194.361 1.873 0 .668-.115 1.292-.345 1.873a4.524 4.524 0 0 1-.953 1.479 4.417 4.417 0 0 1-1.462.986 4.745 4.745 0 0 1-1.824.345c-.69 0-1.331-.115-1.923-.345a4.753 4.753 0 0 1-1.511-.986 4.65 4.65 0 0 1-1.003-1.495 4.837 4.837 0 0 1-.361-1.874Zm4.765 3.582c.493 0 .947-.087 1.364-.262a3.181 3.181 0 0 0 1.068-.724c.295-.317.526-.695.69-1.133a3.82 3.82 0 0 0 .263-1.43c0-.526-.088-1.013-.263-1.462a3.108 3.108 0 0 0-.723-1.15 3.2 3.2 0 0 0-1.101-.74 3.382 3.382 0 0 0-1.397-.28c-.493 0-.953.094-1.38.28a3.12 3.12 0 0 0-1.084.756 3.564 3.564 0 0 0-.707 1.15 3.82 3.82 0 0 0-.263 1.43c0 .515.088.991.263 1.43.175.426.422.799.739 1.117.318.317.691.57 1.118.756a3.77 3.77 0 0 0 1.413.262Zm7.168-8.084h1.216v3.861h5.39v-3.86h1.216v8.987h-1.216V56.47h-5.39v4.026h-1.216v-8.988ZM96.852 34.584c2.996.422 4.495-1.4 4.495-7.135V14.516h15.051V37.32h-3.03V17.384h-8.991v10.065c0 8.373-3.291 10.261-7.525 9.87v-2.735ZM139.284 33.32c1.108-1.108 1.661-2.475 1.661-4.138 0-1.661-.553-3.03-1.661-4.136-1.108-1.108-2.477-1.661-4.072-1.661-1.628 0-2.997.553-4.105 1.66-1.108 1.107-1.661 2.476-1.661 4.137 0 1.663.553 3.03 1.661 4.138s2.477 1.66 4.105 1.66c1.595 0 2.964-.552 4.072-1.66Zm1.987-10.23c1.661 1.662 2.509 3.682 2.509 6.092 0 2.411-.848 4.43-2.509 6.093-1.661 1.661-3.681 2.475-6.059 2.475-2.15 0-4.006-.684-5.57-2.052-1.565-1.369-2.509-3.095-2.801-5.18h-3.03v6.81h-2.834v-16.29h2.834v6.777h3.03c.292-2.086 1.236-3.812 2.801-5.147 1.596-1.369 3.452-2.052 5.57-2.052 2.378 0 4.398.813 6.059 2.474ZM154.686 25.143c-1.401 0-2.639.456-3.779 1.335-1.108.88-1.661 2.02-1.661 3.452 0 1.468.521 2.705 1.531 3.65 1.009.945 2.279 1.433 3.812 1.433 1.53 0 2.767-.455 3.745-1.4 1.009-.945 1.499-2.118 1.499-3.519 0-2.9-2.052-4.951-5.147-4.951Zm-6.06 10.229c-1.563-1.596-2.345-3.616-2.345-6.125 0-2.77.391-4.918 1.205-6.417.814-1.5 2.13-3.042 4.758-3.958 3.953-1.378 5.778-2.503 6.645-4.871l2.721.992c-.745 3.01-3.452 4.67-7.478 5.848-3.095.907-3.91 2.346-4.528 4.335 1.4-1.728 3.648-2.542 5.733-2.542 2.052 0 3.779.684 5.179 2.086 1.434 1.4 2.151 3.192 2.151 5.374 0 2.215-.749 4.04-2.281 5.505-1.531 1.434-3.453 2.151-5.797 2.151-2.412 0-4.399-.782-5.963-2.378ZM177.466 21.04h2.281v16.288h-2.803V25.892l-9.022 11.436h-2.281V21.04h2.8v11.434l9.025-11.434ZM200.367 21.04v16.288h-2.769V25.503l-5.179 8.339h-.359l-5.179-8.34v11.826h-2.803V21.04h3.03l5.115 8.242 5.114-8.242h3.03ZM216.446 33.32c1.108-1.108 1.661-2.475 1.661-4.138 0-1.661-.553-3.03-1.661-4.136-1.108-1.108-2.475-1.661-4.104-1.661-1.596 0-2.965.553-4.073 1.66-1.108 1.107-1.661 2.476-1.661 4.137 0 1.663.553 3.03 1.661 4.138s2.477 1.66 4.073 1.66c1.629 0 2.996-.552 4.104-1.66Zm-4.104 4.43c-2.379 0-4.431-.814-6.092-2.475-1.663-1.663-2.477-3.682-2.477-6.093 0-2.41.814-4.43 2.477-6.091 1.661-1.662 3.713-2.475 6.092-2.475 2.378 0 4.43.813 6.091 2.474 1.661 1.662 2.508 3.682 2.508 6.092 0 2.411-.847 4.43-2.508 6.093-1.661 1.661-3.713 2.475-6.091 2.475ZM232.263 34.755c1.661 0 2.573-.814 2.573-2.248 0-1.335-.912-2.151-2.573-2.151h-5.213v4.398h5.213ZM227.05 23.58v4.267h4.594c1.662 0 2.475-.716 2.475-2.183 0-1.4-.813-2.084-2.475-2.084h-4.594Zm10.587 9.153c0 2.704-1.856 4.594-5.212 4.594h-8.144V21.04h7.494c3.257 0 5.114 1.793 5.114 4.43 0 1.565-.587 2.738-1.76 3.487 1.663.685 2.508 1.955 2.508 3.778ZM252.446 33.32c1.108-1.108 1.661-2.475 1.661-4.138 0-1.661-.553-3.03-1.661-4.136-1.108-1.108-2.475-1.661-4.104-1.661-1.596 0-2.965.553-4.073 1.66-1.108 1.107-1.661 2.476-1.661 4.137 0 1.663.553 3.03 1.661 4.138s2.477 1.66 4.073 1.66c1.629 0 2.996-.552 4.104-1.66Zm-4.104 4.43c-2.379 0-4.431-.814-6.092-2.475-1.663-1.663-2.477-3.682-2.477-6.093 0-2.41.814-4.43 2.477-6.091 1.661-1.662 3.713-2.475 6.092-2.475 2.378 0 4.43.813 6.091 2.474 1.661 1.662 2.508 3.682 2.508 6.092 0 2.411-.847 4.43-2.508 6.093-1.661 1.661-3.713 2.475-6.091 2.475Z"/><defs><clipPath id="a"><path fill="#fff" d="M.266.773h80.86v79.671H.266z"/></clipPath></defs></svg>