<svg width="214" height="55" viewBox="0 0 214 55" fill="none" xmlns="http://www.w3.org/2000/svg">
<path d="M213.786 52.4252C209.175 52.3779 204.559 52.4252 199.948 52.2422C198.706 52.1882 197.502 51.7963 196.465 51.1087C189.777 46.4273 183.171 41.6278 176.535 36.8755C176.028 36.5095 175.496 36.173 174.693 35.624V52.2776C170.886 52.2776 167.296 52.3248 163.719 52.2008C163.371 52.2008 162.798 51.1087 162.786 50.5184C162.698 46.9763 162.739 43.4342 162.739 39.4081C160.69 40.9312 158.973 42.2358 157.231 43.4992C154.014 45.831 150.968 48.4876 147.514 50.3944C134.839 57.3781 120.063 53.5881 112.123 41.5392L111.149 40.0693C109.555 41.25 108.026 42.4661 106.426 43.57C102.465 46.3033 98.7162 49.4734 94.4362 51.5987C84.5657 56.4336 72.2275 53.9069 64.5825 46.0554C60.7366 42.1589 58.174 37.1795 57.2385 31.7852C56.303 26.3908 57.0394 20.8394 59.3489 15.8755C61.6584 10.9116 65.4305 6.77252 70.1593 4.01348C74.8882 1.25445 80.3476 0.00736853 85.8054 0.439498C92.9604 1.08888 98.9701 4.09963 104.035 9.73741L95.611 15.7707C92.8482 13.3208 89.8256 11.4789 86.1006 10.9417C82.6553 10.412 79.1309 10.993 76.0379 12.6005C72.945 14.2081 70.4442 16.7587 68.898 19.8827C67.3518 23.0067 66.8404 26.5419 67.438 29.9761C68.0355 33.4102 69.711 36.5649 72.2216 38.983C77.2808 43.9006 84.8786 45.1875 91.1126 41.4507C96.7563 38.0562 101.999 33.9887 107.318 30.0806C107.908 29.6556 107.979 28.3096 107.985 27.4064C108.067 14.5487 116.456 3.79265 128.93 1.06526C139.161 -1.18985 147.791 1.95669 155.236 9.69019L146.752 15.7766C143.765 13.0906 140.418 11.29 136.38 10.8414C133.105 10.5221 129.81 11.1943 126.922 12.7708C124.034 14.3472 121.686 16.7551 120.183 19.6822C118.68 22.6093 118.091 25.9205 118.493 29.1863C118.895 32.452 120.269 35.5217 122.436 37.9972C127.094 43.204 134.243 44.9986 140.465 42.4306C142.107 41.7601 143.67 40.9086 145.123 39.8922C150.525 36.0845 155.82 32.1351 161.222 28.3391C161.782 27.9888 162.234 27.4884 162.525 26.8948C162.816 26.3012 162.935 25.6379 162.869 24.9801C162.804 18.0908 162.839 11.1956 162.839 4.31806V1.91536H174.528V18.5867C175.52 17.9609 176.152 17.6067 176.736 17.1875C183.377 12.4648 189.995 7.6476 196.69 2.97208C197.728 2.28444 198.934 1.89446 200.179 1.84452C204.712 1.67922 209.264 1.70874 213.804 1.66741V2.94846C213.488 3.0957 213.182 3.26332 212.889 3.45025C202.337 11.0185 191.79 18.5886 181.246 26.1608C180.816 26.4059 180.366 26.6133 179.9 26.7806L213.786 51.1382V52.4252Z" fill="#898995"/>
<path d="M0.5625 1.66797C1.47753 1.70929 2.39847 1.79194 3.3135 1.79194H51.3557V13.5988H0.586119L0.5625 1.66797Z" fill="#898995"/>
<path d="M0.5625 40.9065L50.7889 40.8711C50.9911 40.9049 51.189 40.9603 51.3793 41.0364V52.6367H48.8467C33.5922 52.6367 18.3377 52.6367 3.08327 52.6367C2.23908 52.6367 1.40079 52.7665 0.5625 52.8374V40.9065Z" fill="#898995"/>
</svg>
