<svg width="194" height="39" viewBox="0 0 194 39" fill="none" xmlns="http://www.w3.org/2000/svg">
<g clip-path="url(#clip0_2662_3487)">
<mask id="mask0_2662_3487" style="mask-type:luminance" maskUnits="userSpaceOnUse" x="0" y="0" width="194" height="39">
<path d="M193.404 0.179688H0.234375V38.5489H193.404V0.179688Z" fill="white"/>
</mask>
<g mask="url(#mask0_2662_3487)">
<path d="M143.335 1.21484V15.8366H126.841V1.21484H117.5V15.8366V25.4785V37.5195H126.841V25.4785H143.335V37.5195H152.677V25.4785V15.8366V1.21484H143.335Z" fill="#898995"/>
<path d="M103.5 1.21484V15.8366H90.2868V1.21484H80.9453V25.4785H103.5V37.5195H112.842V25.4785V15.8366V1.21484H103.5Z" fill="#898995"/>
<path d="M35.414 1.21484H22.4936H13.1521H0.234375V10.8567H13.1521V37.5195H22.4936V10.8567H35.414V1.21484Z" fill="#898995"/>
<path d="M57.6652 0.179688C47.3989 0.179688 39.0781 8.76973 39.0781 19.3629C39.0781 29.9561 47.3989 38.5489 57.6652 38.5489C67.9315 38.5489 76.2552 29.9588 76.2552 19.3629C76.2552 8.76695 67.9315 0.179688 57.6652 0.179688ZM57.6652 10.1814C59.4515 10.1587 61.2041 10.6781 62.7001 11.6735C64.1961 12.6689 65.3681 14.0954 66.0671 15.7717C66.766 17.4479 66.9603 19.2983 66.6253 21.0874C66.2902 22.8765 65.4411 24.5237 64.1856 25.8194C62.9302 27.1152 61.3253 28.0012 59.5747 28.3646C57.8242 28.728 56.0073 28.5526 54.3549 27.8605C52.7023 27.1684 51.2892 25.991 50.2947 24.4778C49.3002 22.9648 48.7694 21.1843 48.7697 19.3629C48.7588 16.9437 49.6891 14.6188 51.3564 12.8977C53.024 11.1766 55.2926 10.1998 57.6652 10.1814Z" fill="#898995"/>
<path d="M174.822 0.179688C164.555 0.179688 156.234 8.76973 156.234 19.3629C156.234 29.9561 164.555 38.5489 174.822 38.5489C185.089 38.5489 193.411 29.9588 193.411 19.3629C193.411 8.76695 185.089 0.179688 174.822 0.179688ZM174.822 10.1814C176.609 10.1587 178.36 10.6781 179.857 11.6735C181.352 12.6689 182.524 14.0954 183.223 15.7717C183.922 17.4479 184.116 19.2983 183.782 21.0874C183.447 22.8765 182.597 24.5237 181.341 25.8194C180.087 27.1152 178.482 28.0012 176.731 28.3646C174.981 28.728 173.164 28.5526 171.511 27.8605C169.859 27.1684 168.446 25.991 167.451 24.4778C166.456 22.9648 165.926 21.1843 165.926 19.3629C165.915 16.9437 166.845 14.6188 168.513 12.8977C170.181 11.1766 172.449 10.1998 174.822 10.1814Z" fill="#898995"/>
</g>
</g>
<defs>
<clipPath id="clip0_2662_3487">
<rect width="193.169" height="38.3692" fill="white" transform="translate(0.242188 0.175781)"/>
</clipPath>
</defs>
</svg>
