<svg width="209" height="144" viewBox="0 0 209 144" fill="none" xmlns="http://www.w3.org/2000/svg">
<path d="M92.435 51.4011C85.8048 59.9299 79.5783 67.9055 73.3966 75.9111C63.8737 88.2221 54.433 100.578 44.8055 112.814C43.6544 114.272 41.4493 115.871 39.8273 115.804C37.0466 115.647 38.2725 112.814 38.0034 110.99C37.9361 110.557 37.8315 110.123 37.7343 109.66C34.266 110.856 34.0492 116.798 28.6001 115.064L28.316 109.473C24.9075 111.162 24.3918 117.292 18.681 114.907C18.681 104.756 18.6063 94.4934 18.7707 84.2604C18.7707 82.9822 19.9144 81.6143 20.7814 80.4782C35.8556 60.7447 50.9498 41.0186 66.0638 21.3001C67.6336 19.237 69.3229 18.2204 71.9689 18.3101C77.9488 18.4596 83.9286 18.1308 89.8263 18.4896C91.9402 18.6812 93.8981 19.6829 95.2904 21.2851C108.947 39.6208 122.416 58.0986 135.879 76.5987C136.469 77.406 137.015 78.7963 136.693 79.5438C136.372 80.2913 134.922 80.7697 133.958 80.7697C127.978 80.7697 122.05 80.7697 116.115 80.4184C115.061 80.3661 113.873 79.1477 113.125 78.1759C107.145 70.4694 101.278 62.6881 95.3576 54.9367C94.5205 53.7931 93.616 52.8064 92.435 51.4011ZM43.2881 110.751C44.955 108.957 45.837 108.135 46.5695 107.193C57.1389 93.6637 67.6958 80.1269 78.2403 66.5825C85.603 57.1269 92.8685 47.5965 100.298 38.1782C102.137 35.8535 102.294 34.0147 100.373 31.6751C97.8692 28.6254 95.6043 25.3739 93.3394 22.1298C91.9641 20.149 90.7905 20.149 89.3554 22.0251C87.1877 24.873 84.9527 27.6686 82.7252 30.4791C70.018 46.5425 57.2137 62.576 44.5663 78.7066C43.2842 80.3144 42.5043 82.2643 42.3238 84.3127C42.0622 91.4886 42.1818 98.6793 42.2566 105.863C42.2715 107.156 42.7649 108.397 43.2881 110.751ZM32.7486 109.398L33.952 109.959C35.0807 108.464 37.1064 106.969 37.1737 105.429C37.5101 97.6927 37.3232 89.9338 37.3232 82.1824L36.187 81.3378C35.0434 82.3319 32.928 83.2962 32.8981 84.3277C32.629 92.7144 32.7486 101.071 32.7486 109.428V109.398ZM23.3528 109.667L25.0197 110.28C26.1558 108.292 28.1591 106.363 28.2787 104.3C28.6375 98.029 28.3684 91.7128 28.1142 85.419C28.0768 84.4921 26.7987 83.6101 26.096 82.7057C25.1841 83.5877 23.5546 84.4174 23.4948 85.3592C23.2033 89.5376 23.3528 93.7534 23.3528 97.9543V109.667Z" fill="#898995"/>
<path d="M70.1719 113.689V87.1463H77.3402C77.3402 89.3887 77.1832 91.6835 77.4075 93.9558C77.5047 94.9649 78.3493 95.9067 78.8501 96.8785C79.7172 96.2282 81.0029 95.7647 81.3841 94.8976C85.2037 86.2717 92.2599 85.5242 100.819 87.0565C107.546 88.245 111.425 94.4192 111.238 102.133C111.089 108.554 105.004 114.056 97.4325 114.624C88.4627 115.289 84.7253 112.987 80.9879 104.794C80.6142 103.972 79.5378 103.464 78.7455 102.813C78.2596 103.651 77.4224 104.465 77.3626 105.325C77.1832 108.016 77.2954 110.729 77.2954 113.689H70.1719ZM95.8329 92.3712C94.8114 92.3291 93.7916 92.4894 92.8322 92.8428C91.8728 93.1962 90.9928 93.7357 90.2426 94.4303C89.4924 95.1249 88.8869 95.961 88.4608 96.8904C88.0348 97.8198 87.7967 98.8242 87.7601 99.846C87.6854 104.331 91.4975 108.644 95.5638 108.816C99.6301 108.988 103.913 104.809 103.913 100.459C103.837 98.3394 102.962 96.3272 101.463 94.8268C99.9637 93.3265 97.9523 92.4491 95.8329 92.3712Z" fill="#898995"/>
<path d="M113.062 87.4214C118.796 87.4214 124.23 87.257 129.649 87.4812C133.424 87.6382 136.556 89.4022 138.253 92.9453C139.434 95.2576 140.056 97.8153 140.068 100.412C140.079 103.009 139.481 105.572 138.32 107.895C137.501 109.787 136.12 111.382 134.365 112.463C132.609 113.545 130.564 114.061 128.505 113.942C125.792 113.89 123.079 113.942 119.872 113.942V125.603H113.062V87.4214ZM120.433 93.4013V107.917C129.156 108.089 132.871 105.623 132.594 100.024C132.325 94.5599 128.184 92.2576 120.433 93.4162V93.4013Z" fill="#898995"/>
<path d="M184.006 87.1961L190.532 86.8672C192.027 93.3777 191.354 95.5903 186.533 100.673C190.906 103.865 191.72 108.372 190.876 113.664H184.963C183.775 110.809 183.349 107.221 181.338 105.666C179.327 104.112 175.62 104.396 172.121 103.79V113.679H165.394C165.185 109.523 164.893 105.255 164.789 100.972C164.684 96.6891 164.789 92.3388 164.789 87.7118H172.092C172.092 90.2907 171.86 92.877 172.204 95.3885C172.353 96.4649 173.587 98.057 174.558 98.2513C179.679 99.2679 183.782 95.7473 183.894 90.5897C183.894 89.6254 183.932 88.6537 184.006 87.1961Z" fill="#898995"/>
<path d="M162.97 108.513V113.903C157.282 113.835 151.698 114.919 146.57 111.855C141.988 109.111 140.187 104.133 141.338 97.5853C142.242 92.3977 145.965 88.3614 150.876 87.5018C153.184 87.1181 155.518 86.9132 157.857 86.8888C163.613 86.8066 163.613 86.8888 162.82 93.1826C160.473 93.1826 158.037 93.1303 155.615 93.1826C151.22 93.3022 148.028 96.479 148.028 100.657C148.028 104.836 150.913 107.437 155.353 107.669C157.738 107.766 160.182 108.162 162.97 108.513Z" fill="#898995"/>
<path d="M63.7542 122.047H23.1958C22.1991 122.117 21.1979 122.092 20.2059 121.972C19.6528 121.86 19.2043 121.225 18.7109 120.843C19.1594 120.402 19.5332 119.745 20.0714 119.565C20.8096 119.417 21.5668 119.39 22.3138 119.483H105.628C106.239 119.387 106.862 119.404 107.467 119.535C108.091 119.902 108.661 120.352 109.164 120.873C108.655 121.254 108.199 121.837 107.669 121.965C106.809 122.082 105.939 122.102 105.075 122.024H63.7542V122.047Z" fill="#898995"/>
<path d="M158.144 119.48C168.056 119.48 177.967 119.443 187.879 119.533C189.03 119.533 190.181 120.28 191.34 120.654C190.263 121.11 189.194 121.969 188.126 121.977C168.058 122.062 147.988 122.062 127.916 121.977C126.892 121.977 125.868 121.267 124.844 120.878C125.905 120.415 126.967 119.548 128.043 119.54C138.074 119.443 148.113 119.48 158.144 119.48Z" fill="#898995"/>
<path d="M158.122 123.937C168.16 123.937 178.191 123.937 188.23 123.989C189.262 123.989 190.293 124.737 191.332 125.081C190.263 125.551 189.187 126.419 188.118 126.426C168.051 126.506 147.983 126.506 127.916 126.426C126.892 126.426 125.868 125.679 124.844 125.32C125.905 124.849 126.959 123.982 128.028 123.967C138.059 123.885 148.09 123.929 158.122 123.937Z" fill="#898995"/>
</svg>
