<svg width="176" height="99" viewBox="0 0 176 99" fill="none" xmlns="http://www.w3.org/2000/svg">
<g clip-path="url(#clip0_2662_3545)">
<mask id="mask0_2662_3545" style="mask-type:luminance" maskUnits="userSpaceOnUse" x="1" y="2" width="54" height="53">
<path d="M54.5811 2.71094H1.16406V54.9214H54.5811V28.8162V2.71094Z" fill="white"/>
</mask>
<g mask="url(#mask0_2662_3545)">
<path d="M54.3802 2.71094H1.03906V54.9215H54.3802V34.0372L47.9794 28.8162L54.3802 23.0731V2.71094Z" fill="#898995"/>
<g filter="url(#filter0_d_2662_3545)">
<path d="M1.03906 54.9215V2.71094H13.3075L47.9794 28.8162L15.4412 54.9215H1.03906Z" fill="#898995"/>
</g>
</g>
<mask id="mask1_2662_3545" style="mask-type:luminance" maskUnits="userSpaceOnUse" x="60" y="2" width="56" height="53">
<path d="M115.462 2.71094H60.9766V54.9214H115.462V2.71094Z" fill="white"/>
</mask>
<g mask="url(#mask1_2662_3545)">
<path d="M115.182 54.9215H60.7734V2.71094H115.182V15.2414L98.1122 29.3383L115.182 42.9129V54.9215Z" fill="#898995"/>
<g filter="url(#filter1_d_2662_3545)">
<path d="M60.7734 54.9215V2.71094H115.182V15.2414L66.641 54.9215H60.7734Z" fill="#898995"/>
</g>
</g>
<mask id="mask2_2662_3545" style="mask-type:luminance" maskUnits="userSpaceOnUse" x="121" y="2" width="55" height="53">
<path d="M175.339 2.71094H121.922V54.9214H175.339V2.71094Z" fill="white"/>
</mask>
<g mask="url(#mask2_2662_3545)">
<path d="M174.958 2.71094H121.617V54.9215H174.958V27.772L166.424 20.9845L174.958 14.7193V2.71094Z" fill="#898995"/>
<g filter="url(#filter2_d_2662_3545)">
<path d="M121.617 54.9215V2.71094H145.087L166.424 20.9845L125.885 54.9215H121.617Z" fill="#898995"/>
</g>
</g>
<path d="M1.25 80.5192H6.68533C9.35198 80.5192 10.7023 79.3939 10.7023 77.388C10.7023 76.1323 10.0271 75.1701 8.69444 74.8766C9.89235 74.4852 10.3824 73.5067 10.3824 72.4467C10.3824 70.4897 9.08242 69.4297 6.65132 69.4297H1.25V80.5192ZM6.24571 71.4682C7.47889 71.4682 7.86686 71.8922 7.86686 72.6913C7.86686 73.4741 7.46126 73.9307 6.26334 73.9307H3.78187V71.4682H6.24571ZM6.34774 75.9203C7.64768 75.9203 8.13643 76.328 8.13643 77.2086C8.13643 78.073 7.59604 78.4807 6.31373 78.4807H3.78187V75.9203H6.34774Z" fill="#898995"/>
<path d="M12.6484 80.5192H15.1967V76.0834H16.8015L19.7377 80.5192H22.8779L18.9277 74.7951L22.7432 69.4297H19.7717L16.8015 73.8003H15.1967V69.4297H12.6484V80.5192Z" fill="#898995"/>
<path d="M24.2891 80.5192H29.5896C32.1895 80.5192 33.6242 79.5244 33.6242 77.0945C33.6242 74.583 32.1895 73.735 29.5392 73.735H26.8386V71.6313H32.8483V69.4297H24.2891V80.5192ZM29.3541 75.8551C30.586 75.8551 31.076 76.2139 31.076 77.1271C31.076 78.0403 30.586 78.3991 29.3541 78.3991H26.8386V75.8551H29.3541Z" fill="#898995"/>
<path d="M40.1021 77.0424V75.0039H35.0547V77.0424H40.1021Z" fill="#898995"/>
<path d="M42.0859 80.5192H44.6354V76.0834H49.5808V80.5192H52.1303V69.4297H49.5808V73.7839H44.6354V69.4297H42.0859V80.5192Z" fill="#898995"/>
<path d="M59.9773 80.6735C63.3531 80.6735 65.7502 78.8307 65.7502 74.9493C65.7502 71.1495 63.3531 69.2578 59.9773 69.2578C56.6002 69.2578 54.2031 71.1495 54.2031 74.9493C54.2031 78.8307 56.6002 80.6735 59.9773 80.6735ZM59.9773 78.4882C57.9505 78.4882 56.803 77.1509 56.803 74.9493C56.803 72.7314 57.9505 71.4431 59.9773 71.4431C62.0028 71.4431 63.1503 72.7314 63.1503 74.9493C63.1503 77.1509 62.0028 78.4882 59.9773 78.4882Z" fill="#898995"/>
<path d="M67.8125 80.5192H73.2478C75.9145 80.5192 77.2648 79.3939 77.2648 77.388C77.2648 76.1323 76.5896 75.1701 75.2569 74.8766C76.4549 74.4852 76.9449 73.5067 76.9449 72.4467C76.9449 70.4897 75.6449 69.4297 73.2138 69.4297H67.8125V80.5192ZM72.8095 71.4682C74.0414 71.4682 74.4294 71.8922 74.4294 72.6913C74.4294 73.4741 74.0238 73.9307 72.8258 73.9307H70.3444V71.4682H72.8095ZM72.9102 75.9203C74.2102 75.9203 74.7002 76.328 74.7002 77.2086C74.7002 78.073 74.1598 78.4807 72.8762 78.4807H70.3444V75.9203H72.9102Z" fill="#898995"/>
<path d="M84.5229 80.6735C87.8987 80.6735 90.2958 78.8307 90.2958 74.9493C90.2958 71.1495 87.8987 69.2578 84.5229 69.2578C81.1471 69.2578 78.75 71.1495 78.75 74.9493C78.75 78.8307 81.1471 80.6735 84.5229 80.6735ZM84.5229 78.4882C82.4974 78.4882 81.3499 77.1509 81.3499 74.9493C81.3499 72.7314 82.4974 71.4431 84.5229 71.4431C86.5484 71.4431 87.6959 72.7314 87.6959 74.9493C87.6959 77.1509 86.5484 78.4882 84.5229 78.4882Z" fill="#898995"/>
<path d="M97.4685 78.4882C95.6622 78.4882 94.4807 77.2162 94.4807 74.9656C94.4807 72.6825 95.6962 71.4431 97.5026 71.4431C99.0721 71.4431 99.848 72.2585 100.169 73.3837L102.719 72.9924C102.263 70.6277 100.609 69.2578 97.5026 69.2578C94.2439 69.2578 91.8984 71.0843 91.8984 74.9656C91.8984 78.7328 94.1267 80.6735 97.4849 80.6735C100.591 80.6735 102.245 79.3525 102.735 76.9226L100.186 76.5149C99.8996 77.7054 99.1061 78.4882 97.4685 78.4882Z" fill="#898995"/>
<path d="M103.805 71.7291H107.703V80.5192H110.253V71.7291H114.135V69.4297H103.805V71.7291Z" fill="#898995"/>
<path d="M115.742 80.5192H118.29V76.7846H120.908C123.524 76.7846 125.06 75.6268 125.06 73.0827C125.06 70.4734 123.541 69.4297 120.908 69.4297H115.742V80.5192ZM118.29 74.6646V71.5497H120.621C121.953 71.5497 122.511 72.039 122.511 73.1153C122.511 74.159 121.971 74.6646 120.621 74.6646H118.29Z" fill="#898995"/>
<path d="M132.219 80.6735C135.595 80.6735 137.992 78.8307 137.992 74.9493C137.992 71.1495 135.595 69.2578 132.219 69.2578C128.842 69.2578 126.445 71.1495 126.445 74.9493C126.445 78.8307 128.842 80.6735 132.219 80.6735ZM132.219 78.4882C130.193 78.4882 129.045 77.1509 129.045 74.9493C129.045 72.7314 130.193 71.4431 132.219 71.4431C134.245 71.4431 135.392 72.7314 135.392 74.9493C135.392 77.1509 134.245 78.4882 132.219 78.4882Z" fill="#898995"/>
<path d="M142.022 66.1211C142.056 67.9476 143.085 68.8445 145.347 68.8445C147.592 68.8445 148.605 67.9476 148.656 66.1211H146.545C146.495 66.9039 146.208 67.2953 145.347 67.2953C144.486 67.2953 144.182 66.9039 144.098 66.1211H142.022ZM147.947 80.5211H150.479V69.4316H147.845L142.579 76.966V69.4316H140.047V80.5211H142.647L147.947 72.9868V80.5211Z" fill="#898995"/>
<path d="M153 80.5192H155.55V76.0834H157.153L160.09 80.5192H163.23L159.281 74.7951L163.095 69.4297H160.125L157.153 73.8003H155.55V69.4297H153V80.5192Z" fill="#898995"/>
<path d="M172.548 80.5192H175.081V69.4297H172.447L167.18 76.964V69.4297H164.648V80.5192H167.248L172.548 72.9849V80.5192Z" fill="#898995"/>
<path d="M5.34986 96.5919C3.61408 96.5919 2.29398 95.3048 2.29398 93.6724C2.29398 92.0399 3.61408 90.7528 5.34986 90.7528C7.09572 90.7528 8.41581 92.0399 8.41581 93.6724C8.41581 95.3048 7.09572 96.5919 5.34986 96.5919ZM5.34986 97.5128C7.64366 97.5128 9.45753 95.8176 9.45753 93.6724C9.45753 91.5272 7.64366 89.832 5.34986 89.832C3.06614 89.832 1.24219 91.5272 1.24219 93.6724C1.24219 95.8176 3.06614 97.5128 5.34986 97.5128Z" fill="#898995"/>
<path d="M13.2278 97.4909C14.9397 97.4909 16.1602 96.2665 16.1602 94.7492C16.1602 93.3574 15.0971 92.1541 13.3613 92.1541C12.5892 92.1541 11.8284 92.4052 11.3018 93.0644C11.482 91.6832 12.0526 90.9506 13.6977 90.6786L15.567 90.3542V89.4961L13.4848 89.8519C11.2691 90.2496 10.3281 91.4111 10.3281 93.9958V94.5295C10.3281 96.2874 11.4593 97.4909 13.2278 97.4909ZM13.2278 96.6537C12.0967 96.6537 11.3018 95.8688 11.3018 94.7492C11.3018 93.7446 12.0853 92.9703 13.2505 92.9703C14.369 92.9703 15.1752 93.7028 15.1752 94.7492C15.1752 95.8688 14.3577 96.6537 13.2278 96.6537Z" fill="#898995"/>
<path d="M17.9342 97.3845H20.1725C21.6274 97.3845 22.232 96.5264 22.232 95.6997C22.232 94.8939 21.6274 94.0359 20.1839 94.0359H18.8965V92.1523H16.3672V92.9581H17.9342V97.3845ZM18.8965 94.8521H20.1499C20.8666 94.8521 21.2798 95.1556 21.2798 95.6997C21.2798 96.2439 20.8666 96.5682 20.1385 96.5682H18.8965V94.8521Z" fill="#898995"/>
<path d="M25.5234 97.4923C26.9443 97.4923 27.8739 96.7179 28.1422 95.7971H27.1572C26.8108 96.4249 26.2402 96.676 25.5348 96.676C24.5157 96.676 23.7096 95.9645 23.6768 95.0122H28.2317C28.3551 93.3903 27.3146 92.0508 25.5461 92.0508C23.7889 92.0508 22.7031 93.2333 22.7031 94.7715C22.7031 96.3306 23.8897 97.4923 25.5234 97.4923ZM25.5121 92.8461C26.351 92.8461 27.0338 93.3274 27.2139 94.3006H23.7209C23.901 93.2751 24.7173 92.8461 25.5121 92.8461Z" fill="#898995"/>
<path d="M28.6875 96.5578V98.703H29.5944V97.3845H34.0032V98.703H34.9101V96.5578H34.0712V92.1523H29.6272V94.8626C29.6272 96.2753 29.2354 96.5578 28.821 96.5578H28.6875ZM30.5895 92.979H33.1088V96.5578H30.2432C30.456 96.2125 30.5895 95.8776 30.5895 95.0091V92.979Z" fill="#898995"/>
<path d="M36.7444 97.3845L39.9011 93.5441V97.3845H40.8521V92.1523H40.0018L36.8452 95.9927V92.1523H35.8828V97.3845H36.7444Z" fill="#898995"/>
<path d="M42.3438 97.3845H43.3061V95.1242H46.362V97.3845H47.3244V92.1523H46.362V94.308H43.3061V92.1523H42.3438V97.3845Z" fill="#898995"/>
<path d="M51.1875 97.4923C52.6097 97.4923 53.538 96.7179 53.8063 95.7971H52.8213C52.4749 96.4249 51.9042 96.676 51.1988 96.676C50.1798 96.676 49.3749 95.9645 49.3409 95.0122H53.8957C54.0192 93.3903 52.9787 92.0508 51.2102 92.0508C49.453 92.0508 48.3672 93.2333 48.3672 94.7715C48.3672 96.3306 49.5538 97.4923 51.1875 97.4923ZM51.1762 92.8461C52.0164 92.8461 52.6991 93.3274 52.878 94.3006H49.3862C49.5651 93.2751 50.3814 92.8461 51.1762 92.8461Z" fill="#898995"/>
<path d="M54.9531 97.3845H55.9155V95.1242H58.9701V97.3845H59.9337V92.1523H58.9701V94.308H55.9155V92.1523H54.9531V97.3845Z" fill="#898995"/>
<path d="M62.2835 97.3845L65.4401 93.5441V97.3845H66.3911V92.1523H65.5409L62.3842 95.9927V92.1523H61.4219V97.3845H62.2835Z" fill="#898995"/>
<path d="M70.2591 97.4923C71.68 97.4923 72.6096 96.7179 72.8779 95.7971H71.8928C71.5452 96.4249 70.9746 96.676 70.2692 96.676C69.2514 96.676 68.4452 95.9645 68.4112 95.0122H72.9673C73.0907 93.3903 72.049 92.0508 70.2805 92.0508C68.5233 92.0508 67.4375 93.2333 67.4375 94.7715C67.4375 96.3306 68.6241 97.4923 70.2591 97.4923ZM70.2478 92.8461C71.0867 92.8461 71.7694 93.3274 71.9483 94.3006H68.4566C68.6354 93.2751 69.4529 92.8461 70.2478 92.8461Z" fill="#898995"/>
<path d="M78.1658 97.4923C79.632 97.4923 80.3815 96.7701 80.3815 95.9331C80.3815 95.3052 80.0338 94.8866 79.4632 94.646C79.9444 94.3844 80.1572 93.9972 80.1572 93.5053C80.1572 92.6996 79.4632 92.0508 78.1658 92.0508C77.1467 92.0508 76.1957 92.5218 75.9828 93.5368H76.9338C77.1014 93.0449 77.5725 92.8043 78.1544 92.8043C78.7918 92.8043 79.2289 93.0658 79.2289 93.5577C79.2289 94.0599 78.8145 94.3006 78.2212 94.3006H77.5725V95.0331H78.2212C78.982 95.0331 79.4078 95.347 79.4078 95.8598C79.4078 96.3517 79.016 96.7283 78.1658 96.7283C77.5045 96.7283 77.0233 96.4771 76.8331 95.9749H75.8594C76.0723 96.9795 77.0686 97.4923 78.1658 97.4923Z" fill="#898995"/>
<path d="M83.78 97.4923C84.6315 97.4923 85.381 97.0842 85.7501 96.5818V97.3876H86.7125V92.1555H85.7501V92.9612C85.381 92.4589 84.6315 92.0508 83.78 92.0508C82.2143 92.0508 81.0391 93.2751 81.0391 94.7715C81.0391 96.2679 82.2143 97.4923 83.78 97.4923ZM83.9262 96.6656C82.7963 96.6656 82.0128 95.8284 82.0128 94.7715C82.0128 93.7146 82.7963 92.8775 83.9262 92.8775C85.046 92.8775 85.8294 93.7146 85.8294 94.7715C85.8294 95.8284 85.046 96.6656 83.9262 96.6656Z" fill="#898995"/>
<path d="M90.6711 97.4923C92.092 97.4923 93.1664 96.676 93.4914 95.5459H92.4623C92.2041 96.2156 91.5554 96.6656 90.6711 96.6656C89.5072 96.6656 88.7237 95.8284 88.7237 94.7715C88.7237 93.7146 89.5072 92.8775 90.6711 92.8775C91.5554 92.8775 92.2041 93.3274 92.4623 93.9972H93.4914C93.1564 92.867 92.092 92.0508 90.6711 92.0508C88.9693 92.0508 87.75 93.2751 87.75 94.7715C87.75 96.2679 88.9693 97.4923 90.6711 97.4923Z" fill="#898995"/>
<path d="M95.4752 97.3845H96.4375V92.979H98.2955V92.1523H93.6953V92.979H95.4752V97.3845Z" fill="#898995"/>
<path d="M100.01 99.5746V96.5818C100.38 97.0842 101.129 97.4923 101.979 97.4923C103.546 97.4923 104.722 96.2679 104.722 94.7715C104.722 93.2751 103.546 92.0508 101.979 92.0508C101.129 92.0508 100.38 92.4589 100.01 92.9612V92.1555H99.0469V99.5746H100.01ZM101.834 96.6656C100.715 96.6656 99.9311 95.8284 99.9311 94.7715C99.9311 93.7146 100.715 92.8775 101.834 92.8775C102.953 92.8775 103.737 93.7146 103.737 94.7715C103.737 95.8284 102.953 96.6656 101.834 96.6656Z" fill="#898995"/>
<path d="M108.276 97.4923C109.955 97.4923 111.197 96.2784 111.197 94.7715C111.197 93.2647 109.955 92.0508 108.276 92.0508C106.574 92.0508 105.344 93.2647 105.344 94.7715C105.344 96.2784 106.574 97.4923 108.276 97.4923ZM108.276 96.6551C107.112 96.6551 106.329 95.818 106.329 94.7715C106.329 93.7251 107.112 92.8879 108.276 92.8879C109.44 92.8879 110.212 93.7251 110.212 94.7715C110.212 95.818 109.44 96.6551 108.276 96.6551Z" fill="#898995"/>
<path d="M113.113 97.3872L116.268 93.5468V97.3872H117.219V92.1551H116.369L113.212 95.9954V92.1551H112.25V97.3872H113.113ZM114.825 91.3388C115.81 91.3388 116.605 90.6901 116.605 89.675V89.5391H115.844V89.675C115.844 90.3761 115.395 90.7319 114.825 90.7319C114.254 90.7319 113.806 90.3761 113.806 89.675V89.5391H113.045V89.675C113.045 90.6901 113.84 91.3388 114.825 91.3388Z" fill="#898995"/>
<path d="M126.899 96.5578H126.038V92.1523H125.075V96.5578H122.848V92.1523H121.885V96.5578H119.658V92.1523H118.695V97.3845H125.992V98.703H126.899V96.5578Z" fill="#898995"/>
<path d="M128.713 97.3845L131.87 93.5441V97.3845H132.821V92.1523H131.971L128.814 95.9927V92.1523H127.852V97.3845H128.713Z" fill="#898995"/>
<path d="M138.088 97.3845H139.41L136.253 94.7161L138.995 92.1523H137.774L135.29 94.4754V92.1523H134.328V97.3845H135.29V95.0509L138.088 97.3845Z" fill="#898995"/>
<path d="M142.026 97.4923C143.705 97.4923 144.947 96.2784 144.947 94.7715C144.947 93.2647 143.705 92.0508 142.026 92.0508C140.324 92.0508 139.094 93.2647 139.094 94.7715C139.094 96.2784 140.324 97.4923 142.026 97.4923ZM142.026 96.6551C140.862 96.6551 140.079 95.818 140.079 94.7715C140.079 93.7251 140.862 92.8879 142.026 92.8879C143.19 92.8879 143.962 93.7251 143.962 94.7715C143.962 95.818 143.19 96.6551 142.026 96.6551Z" fill="#898995"/>
<path d="M145.984 97.3845H148.693C150.115 97.3845 150.708 96.6834 150.708 95.8671C150.708 95.323 150.417 94.873 149.79 94.5905C150.181 94.308 150.339 93.9836 150.339 93.5755C150.339 92.7279 149.689 92.1523 148.424 92.1523H145.984V97.3845ZM146.947 96.5996V95.0404H148.749C149.331 95.0404 149.723 95.3125 149.723 95.8149C149.723 96.3171 149.331 96.5996 148.749 96.5996H146.947ZM146.947 94.3184V92.9266H148.502C148.939 92.9266 149.365 93.0942 149.365 93.6173C149.365 94.151 148.939 94.3184 148.502 94.3184H146.947Z" fill="#898995"/>
<path d="M154.266 97.3872H155.306V94.049H156.694C156.873 96.0268 158.575 97.5128 160.667 97.5128C162.905 97.5128 164.651 95.8489 164.651 93.6724C164.651 91.4958 162.905 89.832 160.667 89.832C158.608 89.832 156.985 91.2447 156.717 93.1387H155.306V89.9575H154.266V97.3872ZM163.611 93.6724C163.611 95.3152 162.335 96.5919 160.667 96.5919C158.999 96.5919 157.735 95.3152 157.735 93.6724C157.735 92.0295 158.999 90.7528 160.667 90.7528C162.335 90.7528 163.611 92.0295 163.611 93.6724Z" fill="#898995"/>
<path d="M165.734 97.3845H166.697V92.979H169.237V92.1523H165.734V97.3845Z" fill="#898995"/>
<path d="M172.141 97.4923C172.991 97.4923 173.74 97.0842 174.111 96.5818V97.3876H175.073V92.1555H174.111V92.9612C173.74 92.4589 172.991 92.0508 172.141 92.0508C170.574 92.0508 169.398 93.2751 169.398 94.7715C169.398 96.2679 170.574 97.4923 172.141 97.4923ZM172.286 96.6656C171.156 96.6656 170.372 95.8284 170.372 94.7715C170.372 93.7146 171.156 92.8775 172.286 92.8775C173.405 92.8775 174.189 93.7146 174.189 94.7715C174.189 95.8284 173.405 96.6656 172.286 96.6656Z" fill="#898995"/>
</g>
<defs>
<filter id="filter0_d_2662_3545" x="-4.7018" y="-3.02993" width="58.4192" height="63.6927" filterUnits="userSpaceOnUse" color-interpolation-filters="sRGB">
<feFlood flood-opacity="0" result="BackgroundImageFix"/>
<feColorMatrix in="SourceAlpha" type="matrix" values="0 0 0 0 0 0 0 0 0 0 0 0 0 0 0 0 0 0 127 0" result="hardAlpha"/>
<feOffset/>
<feGaussianBlur stdDeviation="2.87043"/>
<feColorMatrix type="matrix" values="0 0 0 0 0.00130208 0 0 0 0 0.124485 0 0 0 0 0.3125 0 0 0 0.3 0"/>
<feBlend mode="normal" in2="BackgroundImageFix" result="effect1_dropShadow_2662_3545"/>
<feBlend mode="normal" in="SourceGraphic" in2="effect1_dropShadow_2662_3545" result="shape"/>
</filter>
<filter id="filter1_d_2662_3545" x="53.1189" y="-4.94355" width="69.7152" height="67.5199" filterUnits="userSpaceOnUse" color-interpolation-filters="sRGB">
<feFlood flood-opacity="0" result="BackgroundImageFix"/>
<feColorMatrix in="SourceAlpha" type="matrix" values="0 0 0 0 0 0 0 0 0 0 0 0 0 0 0 0 0 0 127 0" result="hardAlpha"/>
<feOffset/>
<feGaussianBlur stdDeviation="3.82724"/>
<feColorMatrix type="matrix" values="0 0 0 0 0 0 0 0 0 0.12549 0 0 0 0 0.313726 0 0 0 0.6 0"/>
<feBlend mode="normal" in2="BackgroundImageFix" result="effect1_dropShadow_2662_3545"/>
<feBlend mode="normal" in="SourceGraphic" in2="effect1_dropShadow_2662_3545" result="shape"/>
</filter>
<filter id="filter2_d_2662_3545" x="113.963" y="-4.94355" width="60.1137" height="67.5199" filterUnits="userSpaceOnUse" color-interpolation-filters="sRGB">
<feFlood flood-opacity="0" result="BackgroundImageFix"/>
<feColorMatrix in="SourceAlpha" type="matrix" values="0 0 0 0 0 0 0 0 0 0 0 0 0 0 0 0 0 0 127 0" result="hardAlpha"/>
<feOffset/>
<feGaussianBlur stdDeviation="3.82724"/>
<feColorMatrix type="matrix" values="0 0 0 0 0 0 0 0 0 0.12549 0 0 0 0 0.313726 0 0 0 0.7 0"/>
<feBlend mode="normal" in2="BackgroundImageFix" result="effect1_dropShadow_2662_3545"/>
<feBlend mode="normal" in="SourceGraphic" in2="effect1_dropShadow_2662_3545" result="shape"/>
</filter>
<clipPath id="clip0_2662_3545">
<rect width="174.646" height="97.9324" fill="white" transform="translate(0.429688 0.835938)"/>
</clipPath>
</defs>
</svg>
